<svg width="20" height="12" viewBox="0 0 20 12" fill="none" xmlns="http://www.w3.org/2000/svg">
<g clip-path="url(#clip0_991_26)">
<path d="M12.4535 10.5186C11.9897 10.4869 11.4549 10.4035 11.033 10.2783C10.954 10.2548 10.6268 10.1315 10.5436 10.0924C9.07502 9.39496 8.05192 7.8725 8.05192 6.10622C8.05192 3.6836 9.97442 1.71028 12.339 1.71028C14.6826 1.71028 16.5921 3.64994 16.6249 6.04517H18.1737C18.1409 2.77482 15.5369 0.124421 12.339 0.124421C9.12197 0.124421 6.50353 2.80731 6.50353 6.10622C6.50353 8.38051 7.7511 10.3585 9.57778 11.3691C9.90762 11.5479 10.381 11.7323 10.5417 11.7827C11.0624 11.9416 11.7015 12.0473 12.2703 12.0915C12.4634 12.1064 13.138 12.1142 13.3346 12.115H24V10.5335H13.3525C13.2109 10.5335 12.5921 10.528 12.4535 10.5186ZM13.3525 8.03532C13.2399 8.03532 12.6509 8.0314 12.5421 8.02201C12.3577 8.00596 12.0905 7.97779 11.9187 7.93747C11.7248 7.88425 11.5427 7.8138 11.4606 7.76762C10.8853 7.44864 10.4932 6.82479 10.4932 6.10622C10.4932 5.06085 11.319 4.21313 12.339 4.21313C13.3377 4.21313 14.1496 5.02759 14.1821 6.04517H15.6702C15.6389 4.18613 14.1607 2.68794 12.339 2.68794C10.497 2.68794 9.00401 4.21822 9.00401 6.10622C9.00401 7.43769 9.74843 8.58755 10.8326 9.15074C10.9994 9.25093 11.3132 9.35582 11.4026 9.3797C11.7087 9.46228 12.1199 9.51864 12.4535 9.54368C12.5768 9.55425 13.1808 9.55895 13.3083 9.55973V9.56208H23.9996V8.03532H13.3525ZM5.54915 12.1092H3.99008V1.7138H1.71178V0.115028H5.54915V12.1092ZM0 2.5126V4.04993H1.71178V12.1092H3.20977V2.5126H0Z" fill="#D91920"/>
</g>
<defs>
<clipPath id="clip0_991_26">
<rect width="20" height="12" fill="white"/>
</clipPath>
</defs>
</svg>
