<svg width="20" height="20" viewBox="0 0 20 20" fill="none" xmlns="http://www.w3.org/2000/svg">
<g clip-path="url(#clip0_1213_31)">
<path d="M3.54168 0.00205231H16.4583C18.4166 0.00205231 20 1.62568 20 3.6338V16.3662C20 18.3743 18.4166 19.998 16.4583 19.998H3.54168C1.58336 19.998 0 18.3743 0 16.3662V3.6338C0 1.62568 1.58336 0.00205231 3.54168 0.00205231Z" fill="#00005B"/>
<path d="M8.03336 11.9654H4.93336L4.3 13.982C4.28336 14.0589 4.21664 14.1102 4.14168 14.1016H2.57504C2.48336 14.1016 2.4584 14.0504 2.48336 13.9478L5.16672 6.06054C5.19168 5.97506 5.21672 5.8982 5.25008 5.79565C5.28344 5.61624 5.30008 5.42822 5.30008 5.2402C5.29176 5.19746 5.32504 5.15472 5.36672 5.14619H7.52504C7.58336 5.14619 7.62504 5.17178 7.63336 5.21452L10.675 13.9307C10.7001 14.0247 10.675 14.0674 10.5917 14.0674H8.85C8.79168 14.076 8.73336 14.0332 8.71664 13.9734L8.03328 11.9226V11.9653L8.03336 11.9654ZM5.41672 10.2649H7.53336C7.48336 10.0855 7.41672 9.87178 7.34168 9.64963C7.26664 9.41895 7.19168 9.17112 7.11672 8.91477C7.03336 8.64988 6.9584 8.39352 6.87504 8.12863C6.79168 7.86374 6.71672 7.61592 6.65008 7.36809C6.58344 7.1288 6.52512 6.90665 6.46672 6.70156H6.45008C6.37504 7.06899 6.28344 7.43642 6.16672 7.80394C6.04176 8.21411 5.91672 8.64135 5.78336 9.06866C5.67504 9.50443 5.54168 9.90607 5.41672 10.265V10.2649ZM15.5834 11.1963H12.9417C12.975 11.4612 13.0583 11.7261 13.2 11.9569C13.35 12.1875 13.5583 12.367 13.8083 12.4696C14.1417 12.6148 14.5083 12.6917 14.875 12.6832C15.1666 12.6747 15.4583 12.649 15.7416 12.5892C15.9999 12.555 16.2499 12.4866 16.4833 12.3926C16.525 12.3584 16.5499 12.3756 16.5499 12.461V13.7684C16.5499 13.8026 16.5416 13.8368 16.5333 13.871C16.5166 13.8966 16.4999 13.9137 16.475 13.9308C16.2083 14.0504 15.9333 14.1359 15.6416 14.1871C15.2499 14.264 14.8582 14.2982 14.4582 14.2897C13.8249 14.2897 13.2916 14.1871 12.8582 13.9906C12.4499 13.8111 12.0916 13.5291 11.8082 13.1788C11.5416 12.8455 11.3499 12.4695 11.2333 12.0593C11.1166 11.6577 11.0582 11.239 11.0582 10.8117C11.0582 10.3503 11.1249 9.89738 11.2666 9.45299C11.3999 9.02576 11.6082 8.63265 11.8915 8.28228C12.1666 7.94044 12.5082 7.66702 12.8998 7.47047C13.2915 7.27391 13.7582 7.20558 14.2915 7.20558C14.7332 7.19705 15.1749 7.28253 15.5832 7.47047C15.9249 7.62428 16.2249 7.85505 16.4582 8.15406C16.6749 8.44463 16.8499 8.76932 16.9582 9.12822C17.0666 9.47006 17.1166 9.82035 17.1166 10.1707C17.1166 10.3758 17.1082 10.5553 17.0999 10.7176C17.0833 10.88 17.0749 10.9997 17.0666 11.0765C17.0582 11.1363 17.0082 11.1876 16.9499 11.1876C16.8999 11.1876 16.8082 11.1961 16.6749 11.2047C16.5415 11.2217 16.3832 11.2304 16.1915 11.2304C15.9998 11.2304 15.7998 11.1961 15.5832 11.1961L15.5834 11.1963ZM12.9417 9.94873H14.7C14.9166 9.94873 15.075 9.94873 15.175 9.9402C15.2416 9.93167 15.3083 9.91452 15.3666 9.87186V9.78638C15.3666 9.67531 15.35 9.57277 15.3166 9.47022C15.1666 8.99172 14.725 8.66694 14.2333 8.68409C13.775 8.65841 13.3416 8.90624 13.125 9.33355C13.025 9.53011 12.9666 9.73519 12.9416 9.94881L12.9417 9.94873Z" fill="#9999FF"/>
</g>
<defs>
<clipPath id="clip0_1213_31">
<rect width="20" height="20" fill="white"/>
</clipPath>
</defs>
</svg>
