<svg width="24" height="24" viewBox="0 0 24 24" fill="none" xmlns="http://www.w3.org/2000/svg">
<path d="M16.6448 9.6578L18.3925 6.63079C18.4233 6.57897 18.4415 6.51595 18.4415 6.44873C18.4415 6.24777 18.2791 6.08532 18.0781 6.08532C17.9444 6.08532 17.8274 6.15745 17.7644 6.26528L17.7637 6.26668L15.9943 9.3315C14.673 8.72442 13.1276 8.37011 11.4997 8.37011C9.87166 8.37011 8.3263 8.72442 6.93638 9.35951L7.005 9.3315L5.23557 6.26598C5.17185 6.15675 5.05422 6.08392 4.92048 6.08392C4.71952 6.08392 4.55707 6.24637 4.55707 6.44733C4.55707 6.51455 4.57527 6.57687 4.60678 6.63079L4.60608 6.62939L6.35381 9.6564C3.35271 11.3138 1.28709 14.3457 1.0021 17.8797L1 17.9161H22C21.7129 14.3457 19.6473 11.3138 16.6994 9.683L16.6462 9.6564L16.6448 9.6578ZM6.6654 14.9255C6.18225 14.9255 5.79084 14.5341 5.79084 14.0509C5.79084 13.5678 6.18225 13.1764 6.6654 13.1764C7.14854 13.1764 7.53996 13.5678 7.53996 14.0509C7.53926 14.5334 7.14854 14.9248 6.6654 14.9255ZM16.3311 14.9255C15.848 14.9255 15.4565 14.5341 15.4565 14.0509C15.4565 13.5678 15.848 13.1764 16.3311 13.1764C16.8142 13.1764 17.2057 13.5678 17.2057 14.0509C17.205 14.5334 16.8142 14.9248 16.3311 14.9255Z" fill="currentColor"/>
</svg>
