<svg width="24" height="24" viewBox="0 0 24 24" fill="none" xmlns="http://www.w3.org/2000/svg">
<path d="M17.5369 12.625C17.5405 13.4879 17.7966 14.3309 18.2735 15.05C18.7504 15.7691 19.4274 16.333 20.2209 16.672C19.8996 17.6823 19.4334 18.6406 18.8369 19.517C18.0029 20.735 17.1369 21.949 15.7749 21.974C14.4359 21.999 14.0059 21.18 12.4749 21.18C10.9439 21.18 10.4659 21.949 9.19991 22C7.88391 22.049 6.88291 20.682 6.04191 19.468C4.32291 16.984 3.00991 12.451 4.77191 9.391C5.18582 8.65062 5.78483 8.03037 6.51035 7.59092C7.23586 7.15148 8.06303 6.90789 8.91091 6.884C10.2029 6.859 11.4219 7.753 12.2109 7.753C12.9999 7.753 14.4819 6.678 16.0389 6.836C16.761 6.86094 17.4675 7.05311 18.1028 7.39737C18.738 7.74164 19.2848 8.22862 19.6999 8.82C19.0473 9.21968 18.5067 9.77839 18.1288 10.4438C17.7508 11.1093 17.5479 11.8598 17.5389 12.625M15.0199 5.193C15.7751 4.30801 16.149 3.15997 16.0599 2C14.9203 2.11051 13.8662 2.65294 13.1139 3.516C12.7385 3.93395 12.4511 4.4232 12.2688 4.95459C12.0865 5.48598 12.0131 6.04863 12.0529 6.609C12.623 6.61698 13.1873 6.49338 13.7019 6.24779C14.2165 6.00221 14.6675 5.64126 15.0199 5.193Z" fill="currentColor"/>
</svg>
