<svg width="24" height="24" viewBox="0 0 24 24" fill="none" xmlns="http://www.w3.org/2000/svg">
<path d="M7.70858 10.176C7.70268 10.3678 7.72874 10.5593 7.78574 10.743C7.84209 10.9012 7.91249 11.0544 7.99615 11.2007C8.02604 11.2431 8.04306 11.2928 8.04524 11.3442C8.04156 11.3836 8.02816 11.4216 8.00618 11.4549C7.9842 11.4882 7.95429 11.5158 7.919 11.5355L7.50518 11.8019C7.45597 11.8361 7.39732 11.8552 7.33685 11.8565C7.29956 11.8559 7.26281 11.8477 7.22899 11.8324C7.19516 11.8171 7.165 11.7951 7.14047 11.7677C7.04963 11.6791 6.96961 11.5805 6.902 11.474C6.83888 11.3647 6.77575 11.2417 6.70562 11.0982C6.47555 11.3782 6.18276 11.6032 5.84965 11.7559C5.51655 11.9087 5.15197 11.9852 4.78385 11.9795C4.54603 11.992 4.30804 11.958 4.08397 11.8793C3.8599 11.8007 3.65428 11.6791 3.47929 11.5218C3.31648 11.3617 3.18992 11.1702 3.10777 10.9596C3.02562 10.749 2.98971 10.5239 3.00235 10.2989C2.99385 10.0513 3.04235 9.80503 3.1443 9.57806C3.24624 9.3511 3.39905 9.14923 3.59151 8.98727C4.04859 8.64023 4.61892 8.46557 5.19766 8.4954C5.43234 8.49438 5.66678 8.51037 5.89903 8.54322C6.14452 8.57738 6.39 8.6252 6.64951 8.67985V8.2153C6.68697 7.84978 6.57622 7.48447 6.3409 7.1974C6.03766 6.96937 5.65576 6.86413 5.27481 6.90364C5.03857 6.90473 4.80323 6.93223 4.57343 6.98562C4.33424 7.0409 4.09976 7.11399 3.87206 7.20423L3.6406 7.28621H3.54241C3.44422 7.28621 3.40214 7.21789 3.40214 7.08809V6.77384C3.39592 6.69862 3.41045 6.62315 3.44422 6.55523C3.4964 6.49683 3.56102 6.4502 3.63359 6.4186C3.89619 6.29554 4.1712 6.19938 4.4542 6.13167C4.78638 6.04836 5.12818 6.00703 5.47119 6.0087C6.08951 5.9562 6.70421 6.1427 7.18255 6.5279C7.37899 6.73796 7.52844 6.98551 7.62141 7.25483C7.71438 7.52414 7.74885 7.80935 7.72261 8.09234L7.70858 10.176ZM5.05738 11.1461C5.29625 11.1464 5.53343 11.1071 5.75876 11.0299C5.99875 10.9501 6.21205 10.8085 6.37597 10.62C6.48418 10.506 6.56134 10.3675 6.60041 10.217C6.64573 10.0359 6.66695 9.84993 6.66353 9.6636V9.37667C6.45746 9.33496 6.24902 9.30531 6.03931 9.28786C5.8289 9.28786 5.6255 9.28786 5.4221 9.28786C5.07921 9.26107 4.73733 9.35035 4.4542 9.54063C4.34478 9.63035 4.25856 9.74388 4.20252 9.87205C4.14647 10.0002 4.12216 10.1394 4.13157 10.2784C4.12002 10.4022 4.13528 10.527 4.17636 10.6447C4.21744 10.7624 4.28342 10.8703 4.37003 10.9616C4.56504 11.1093 4.81223 11.1756 5.05738 11.1461ZM10.3107 11.8292C10.2218 11.8373 10.1327 11.8156 10.0582 11.7677C9.98699 11.6987 9.9382 11.6108 9.91792 11.515L8.38892 6.59622C8.35784 6.51267 8.33895 6.42528 8.33281 6.33662C8.33281 6.23415 8.3819 6.17949 8.48711 6.17949H9.13238C9.22127 6.17144 9.31033 6.19313 9.38487 6.24098C9.45319 6.31109 9.49944 6.39881 9.51813 6.49375L10.6193 10.743L11.6503 6.50058C11.6611 6.40462 11.7057 6.31528 11.7766 6.24781C11.8537 6.19994 11.945 6.17832 12.0361 6.18632H12.5621C12.6554 6.17832 12.7489 6.19989 12.8286 6.24781C12.8944 6.31875 12.9382 6.40639 12.9549 6.50058L13.9719 10.743L15.1011 6.48008C15.1198 6.38515 15.166 6.29743 15.2343 6.22731C15.3089 6.17946 15.3979 6.15778 15.4868 6.16583H16.097C16.1188 6.1637 16.1407 6.1663 16.1613 6.17344C16.1818 6.18058 16.2005 6.19209 16.216 6.20713C16.2314 6.22216 16.2432 6.24036 16.2505 6.26039C16.2579 6.28043 16.2605 6.3018 16.2584 6.32296C16.261 6.35707 16.261 6.39132 16.2584 6.42543C16.2584 6.42543 16.2584 6.51424 16.2163 6.58256L14.6312 11.5013C14.6125 11.5962 14.5662 11.6839 14.4979 11.7541C14.4225 11.8 14.3341 11.8216 14.2454 11.8155H13.6843C13.5921 11.8251 13.4995 11.8007 13.4248 11.7472C13.3553 11.6788 13.3109 11.59 13.2985 11.4945L12.2816 7.39551L11.2716 11.4945C11.2592 11.59 11.2148 11.6788 11.1453 11.7472C11.07 11.7996 10.9779 11.8238 10.8858 11.8155L10.3107 11.8292ZM18.7272 11.9932C18.3873 11.9947 18.0484 11.9581 17.7172 11.8839C17.4565 11.8329 17.2041 11.7479 16.9667 11.6311C16.8828 11.5921 16.8122 11.5305 16.7633 11.4535C16.7361 11.3956 16.7218 11.3327 16.7213 11.269V10.9479C16.7213 10.8181 16.7704 10.7498 16.8686 10.7498C16.9104 10.7433 16.953 10.7433 16.9948 10.7498L17.1561 10.8181C17.3809 10.916 17.6161 10.9893 17.8575 11.0367C18.1133 11.091 18.3743 11.1185 18.636 11.1187C18.9683 11.1389 19.2994 11.0653 19.5899 10.9069C19.6954 10.8445 19.782 10.756 19.8411 10.6504C19.9003 10.5449 19.9297 10.426 19.9266 10.3058C19.9299 10.224 19.916 10.1425 19.8859 10.0661C19.8557 9.98977 19.8099 9.92022 19.7512 9.86171C19.5613 9.70144 19.3355 9.58679 19.0919 9.52697L18.1451 9.23321C17.7354 9.13291 17.3693 8.90795 17.1 8.59104C16.8882 8.32508 16.7723 7.99853 16.7704 7.66195C16.7665 7.42322 16.827 7.18767 16.9457 6.97879C17.063 6.77349 17.2231 6.59432 17.4156 6.45276C17.6265 6.30194 17.8643 6.19073 18.117 6.12484C18.3859 6.04937 18.6648 6.01255 18.9446 6.01554C19.0894 6.00558 19.2347 6.00558 19.3795 6.01554L19.8073 6.08385L20.179 6.18632L20.4526 6.29563C20.526 6.33784 20.5922 6.39085 20.649 6.45276C20.6881 6.51668 20.7075 6.59017 20.7051 6.66454V6.96512C20.7051 7.10176 20.656 7.17007 20.5578 7.17007C20.4687 7.16013 20.3827 7.13221 20.3053 7.08809C19.9072 6.91958 19.4768 6.83573 19.0428 6.84216C18.7421 6.82795 18.4426 6.88911 18.1731 7.01978C18.073 7.07912 17.9914 7.16389 17.9371 7.26499C17.8827 7.36609 17.8576 7.4797 17.8645 7.59363C17.8642 7.67782 17.8814 7.7612 17.9152 7.8387C17.9489 7.91621 17.9985 7.98623 18.0609 8.04451C18.2679 8.2059 18.5066 8.32445 18.7623 8.39293L19.6881 8.67985C20.0805 8.78127 20.4325 8.99553 20.6981 9.29469C20.8991 9.55144 21.0054 9.86676 20.9997 10.1896C21.0038 10.445 20.9462 10.6978 20.8313 10.9274C20.7187 11.1474 20.5555 11.3391 20.3544 11.4876C20.1463 11.6506 19.9083 11.7735 19.653 11.8497C19.3469 11.9456 19.0277 11.9962 18.7062 12L18.7272 11.9932Z" fill="currentColor"/>
<path d="M1.95721 14.0043C2.04572 13.8926 2.20997 13.8626 2.36012 13.9542C5.31612 15.6241 8.66447 16.5008 12.0713 16.4966C14.6183 16.4864 17.138 15.979 19.4852 15.0039C19.7064 14.9116 19.9272 14.9787 20.0356 15.1312C20.09 15.2077 20.114 15.3044 20.0916 15.4043C20.0693 15.5037 20.0036 15.5956 19.8987 15.6707L19.8962 15.6725C17.5222 17.2635 14.7162 18.1095 11.8463 18.0998C8.21826 18.119 4.71333 16.8023 2.01757 14.4069C2.0175 14.4068 2.01763 14.4069 2.01757 14.4069C1.95158 14.3484 1.91182 14.278 1.90217 14.2036C1.89255 14.1294 1.91406 14.0587 1.95721 14.0043Z" fill="currentColor"/>
<path d="M21.9852 13.2357C21.9346 13.177 21.8523 13.1299 21.7594 13.0916C21.6635 13.052 21.5443 13.017 21.4086 12.9881C21.1367 12.9302 20.7901 12.8951 20.4119 12.9005C19.6578 12.9113 18.7611 13.0835 18.0778 13.5753C17.966 13.6558 17.8829 13.7698 17.9027 13.89C17.9252 14.0262 18.0578 14.0817 18.1891 14.0817L18.2132 14.0787C18.5882 14.0322 19.1784 13.9589 19.7132 13.9447C19.9838 13.9375 20.2357 13.9456 20.4364 13.9786C20.5367 13.995 20.6209 14.0172 20.687 14.0449C20.7537 14.0729 20.7954 14.104 20.8188 14.1345L20.8198 14.1358C20.8409 14.1624 20.8594 14.2078 20.8687 14.2792C20.8779 14.3496 20.8772 14.4371 20.8669 14.5396C20.8465 14.7445 20.7896 14.9956 20.7142 15.2626C20.5969 15.6782 20.4384 16.1203 20.3128 16.4707C20.2773 16.5698 20.2444 16.6616 20.2158 16.7434C20.1905 16.8079 20.1814 16.8734 20.1954 16.9335C20.2101 16.9965 20.2492 17.048 20.3067 17.0765C20.4175 17.1314 20.5536 17.086 20.6615 16.9932C21.3046 16.4423 21.7103 15.5985 21.9206 14.8583C22.0261 14.4871 22.0838 14.1375 22.097 13.8577C22.1035 13.7179 22.0991 13.593 22.0829 13.4902C22.0674 13.3912 22.0387 13.298 21.9852 13.2357Z" fill="currentColor"/>
</svg>
