<svg width="20" height="21" viewBox="0 0 20 21" fill="none" xmlns="http://www.w3.org/2000/svg">
<path d="M0.194458 5.47363H4.77937V6.76615H0.194458V5.47363ZM0.194458 3.07324H4.77937V4.36576H0.194458V3.07324ZM8.42033 7.85556H0.194458V9.14807H8.1121C8.979 9.14807 11.0018 9.16654 11.7531 10.3298V9.60969C11.387 8.46489 10.3082 7.85556 8.42033 7.85556ZM8.4396 10.2559H0.194458V11.5485H8.1121C10.0385 11.5485 11.2522 11.6223 11.7531 11.8808V11.3084C11.3678 10.4037 9.74957 10.2559 8.4396 10.2559ZM8.42033 16.3492H0.194458V15.0567H8.1121C8.979 15.0567 11.0018 15.0383 11.7531 13.875V14.5951C11.387 15.7399 10.3082 16.3492 8.42033 16.3492ZM8.4396 13.9489H0.194458V12.6563H8.1121C10.0385 12.6563 11.2522 12.5825 11.7531 12.324V12.8964C11.3678 13.8011 9.74957 13.9489 8.4396 13.9489ZM13.7566 18.5834H19.8056V17.7895H13.9299C13.4098 17.7895 12.1769 17.771 11.7338 17.0878V17.531C11.9457 18.2142 12.6007 18.5834 13.7566 18.5834ZM13.7373 17.1247H19.7863V16.3308H13.9299C12.7548 16.3308 12.0228 16.2938 11.7338 16.1277V16.4785C11.965 17.0324 12.9475 17.1247 13.7373 17.1247Z" fill="currentColor"/>
</svg>
