<svg width="24" height="24" viewBox="0 0 24 24" fill="none" xmlns="http://www.w3.org/2000/svg">
<path d="M10.7367 14.5876C11.6317 14.8241 13.5895 15.3416 13.901 14.091C14.2189 12.8129 12.3215 12.3871 11.3957 12.1793C11.2923 12.1561 11.201 12.1356 11.1263 12.117L10.5238 14.5323C10.5849 14.5475 10.6566 14.5664 10.7367 14.5876Z" fill="currentColor"/>
<path d="M11.5819 11.0585C12.3287 11.2578 13.9565 11.692 14.24 10.556C14.5299 9.39387 12.9471 9.0436 12.174 8.87252C12.0871 8.85329 12.0105 8.83633 11.9478 8.82072L11.4016 11.0113C11.4533 11.0242 11.5139 11.0404 11.5819 11.0585Z" fill="currentColor"/>
<path fill-rule="evenodd" clip-rule="evenodd" d="M9.57909 21.7008C14.9369 23.0364 20.3631 19.7764 21.6988 14.4192C23.0344 9.06175 19.7741 3.63487 14.4166 2.29925C9.06034 0.963624 3.6344 4.22425 2.2994 9.58206C0.963461 14.9389 4.22377 20.3652 9.57909 21.7008ZM14.2085 8.0526C15.5938 8.52979 16.6069 9.2451 16.4082 10.5757C16.2641 11.5498 15.7238 12.0213 15.0069 12.1873C15.9913 12.7001 16.4919 13.486 16.0147 14.8485C15.4232 16.5404 14.016 16.6832 12.145 16.3292L11.691 18.1488L10.5938 17.8754L11.0419 16.0801C10.7575 16.0095 10.4669 15.9345 10.1678 15.8532L9.71784 17.657L8.6219 17.3835L9.07597 15.5601C8.97538 15.5343 8.87412 15.5079 8.77212 15.4813C8.61459 15.4402 8.45532 15.3986 8.29409 15.3582L6.86597 15.0023L7.41065 13.746C7.41065 13.746 8.21909 13.961 8.20815 13.9451C8.51878 14.022 8.65659 13.8195 8.71097 13.6845L9.42878 10.8079L9.5444 10.8367C9.50065 10.8192 9.46097 10.8079 9.43034 10.8001L9.94222 8.74666C9.95597 8.51354 9.87534 8.21947 9.43097 8.10854C9.44815 8.09697 8.63409 7.91041 8.63409 7.91041L8.92597 6.73854L10.4391 7.11635L10.4378 7.12197C10.6653 7.17854 10.8997 7.23229 11.1385 7.28666L11.5882 5.48479L12.6847 5.75822L12.2441 7.52479C12.5385 7.59197 12.8347 7.65979 13.1228 7.73166L13.5603 5.97666L14.6578 6.2501L14.2085 8.0526Z" fill="currentColor"/>
</svg>
