<svg width="20" height="20" viewBox="0 0 20 20" fill="none" xmlns="http://www.w3.org/2000/svg">
<g clip-path="url(#clip0_1218_45)">
<path d="M8.58362 19.5312C6.90954 19.185 5.34751 18.413 4.12123 17.3257C0.972967 14.5341 2.05636e-05 10.1487 1.66314 6.24676C2.07158 5.28849 2.73555 4.31596 3.55825 3.47108L4.28358 2.72628L4.33474 7.08574C4.38371 11.2587 4.39476 11.4688 4.59236 11.9946C4.98794 13.0467 5.41192 13.7163 6.14191 14.4421C8.0275 16.317 10.7933 16.785 13.1446 15.6269C15.3545 14.5384 16.7477 12.1715 16.5858 9.78065C16.477 8.1747 15.9361 6.99718 14.7683 5.82384C13.8851 4.93664 12.8461 4.35705 11.715 4.12077C10.5641 3.8804 10.6194 3.8453 10.6194 4.81783V5.65747L11.2503 5.77352C13.6938 6.22307 15.3098 8.61863 14.8005 11.0364C14.6379 11.8085 14.275 12.4904 13.6925 13.1185C12.8074 14.073 11.5621 14.5292 10.4747 14.5272C8.6767 14.5236 7.17536 13.5036 6.44775 11.9951C6.44775 11.9951 6.2572 11.564 6.19584 11.2975C5.83561 9.73061 6.06598 6.43225 6.06598 6.43225L6.03806 1.60935L6.32322 1.4621C6.48004 1.38115 6.63048 1.31485 6.65754 1.31485C6.6845 1.31485 6.7188 3.53006 6.73376 6.23743C6.73376 6.23743 6.38744 9.78645 6.81532 11.1465C6.87705 11.3427 6.99434 11.6784 6.99434 11.6784C7.36943 12.4415 7.97071 13.1127 8.75197 13.4821C9.34496 13.7626 9.64355 13.8896 10.5208 13.8896C11.0941 13.8896 11.6019 13.7088 12.1862 13.4406C12.8751 13.1243 13.6652 12.2857 13.9572 11.5201C14.7617 9.41053 13.6415 7.14091 11.4834 6.50806C10.6014 6.24942 10.6195 6.23525 10.6195 7.19275V8.02906L11.0428 8.14216C12.5689 8.54967 13.0345 10.5919 11.8365 11.6411C11.4132 12.0119 11.0318 12.1757 10.3647 12.1757C9.65174 12.1757 8.96748 11.7449 8.61563 11.0842C8.40431 10.6873 8.38649 10.3109 8.38649 10.1383C8.38649 8.54558 8.35191 5.68087 8.35191 5.68087L8.32333 0.767135L8.54246 0.71282C8.66289 0.682762 9.15003 0.608851 9.62469 0.548354C11.2348 0.34327 13.6169 0.869297 15.2172 1.78352C17.399 3.02981 19.0498 5.17083 19.7373 7.64553C19.9737 8.49678 20 8.74419 20 10.1136C20 11.4768 19.9731 11.7326 19.7416 12.5651C18.8068 15.9285 16.4286 18.3328 13.0283 19.3525C12.3126 19.5672 11.9774 19.6081 10.7146 19.635C9.69557 19.6567 9.03503 19.6246 8.58362 19.5312Z" fill="#C60C30"/>
</g>
<defs>
<clipPath id="clip0_1218_45">
<rect width="20" height="20" fill="white"/>
</clipPath>
</defs>
</svg>
