<svg width="20" height="20" viewBox="0 0 20 20" fill="none" xmlns="http://www.w3.org/2000/svg">
<g clip-path="url(#clip0_1221_143)">
<path d="M9.99598 20C15.4928 20 19.9489 15.5439 19.9489 10.0471C19.9489 4.55028 15.4928 0.0942154 9.99598 0.0942154C4.49915 0.0942154 0.0430908 4.55028 0.0430908 10.0471C0.0430908 15.5439 4.49915 20 9.99598 20Z" fill="#F5BB60"/>
<path d="M8.98137 17.9922C13.9297 17.9922 17.9411 13.9808 17.9411 9.03242C17.9411 4.08408 13.9297 0.0726547 8.98137 0.0726547C4.03303 0.0726547 0.0216064 4.08408 0.0216064 9.03242C0.0216064 13.9808 4.03303 17.9922 8.98137 17.9922Z" fill="#E86F32"/>
<path d="M10.1687 15.6173C14.4613 15.6173 17.941 12.1375 17.941 7.845C17.941 3.55249 14.4613 0.072731 10.1687 0.072731C5.87625 0.072731 2.39648 3.55249 2.39648 7.845C2.39648 12.1375 5.87625 15.6173 10.1687 15.6173Z" fill="#E53D42"/>
<path d="M10.7949 15.6173C14.7416 15.6173 17.941 12.4178 17.941 8.47109C17.941 4.52437 14.7416 1.32492 10.7949 1.32492C6.84813 1.32492 3.64868 4.52437 3.64868 8.47109C3.64868 12.4178 6.84813 15.6173 10.7949 15.6173Z" fill="#BFD141"/>
<path d="M10.2767 15.6173C13.9373 15.6173 16.9048 12.6498 16.9048 8.98922C16.9048 5.32865 13.9373 2.36118 10.2767 2.36118C6.61616 2.36118 3.64868 5.32865 3.64868 8.98922C3.64868 12.6498 6.61616 15.6173 10.2767 15.6173Z" fill="#6DB64C"/>
<path d="M9.21884 13.5231C12.2951 13.5231 14.789 11.0293 14.789 7.95297C14.789 4.87666 12.2951 2.38281 9.21884 2.38281C6.14253 2.38281 3.64868 4.87666 3.64868 7.95297C3.64868 11.0293 6.14253 13.5231 9.21884 13.5231Z" fill="#AFDBE7"/>
<path d="M10.1255 11.688C12.701 11.688 14.7889 9.60011 14.7889 7.02461C14.7889 4.44911 12.701 2.36125 10.1255 2.36125C7.55001 2.36125 5.46216 4.44911 5.46216 7.02461C5.46216 9.60011 7.55001 11.688 10.1255 11.688Z" fill="#57BADF"/>
<path d="M10.7085 11.7095C12.974 11.7095 14.8105 9.87299 14.8105 7.6075C14.8105 5.34201 12.974 3.50547 10.7085 3.50547C8.44299 3.50547 6.60645 5.34201 6.60645 7.6075C6.60645 9.87299 8.44299 11.7095 10.7085 11.7095Z" fill="#02B2D6"/>
<path d="M10.1039 11.6879C12.0356 11.6879 13.6014 10.122 13.6014 8.19039C13.6014 6.25878 12.0356 4.69289 10.1039 4.69289C8.17233 4.69289 6.60645 6.25878 6.60645 8.19039C6.60645 10.122 8.17233 11.6879 10.1039 11.6879Z" fill="url(#paint0_radial_1221_143)"/>
<path d="M10.1039 11.6879C12.0356 11.6879 13.6014 10.122 13.6014 8.19039C13.6014 6.25878 12.0356 4.69289 10.1039 4.69289C8.17233 4.69289 6.60645 6.25878 6.60645 8.19039C6.60645 10.122 8.17233 11.6879 10.1039 11.6879Z" fill="#231F20"/>
<path d="M11.0225 7.73211C11.3693 7.88774 11.8475 7.57461 12.0906 7.03281C12.3337 6.49094 12.2497 5.92555 11.9029 5.77C11.5561 5.61438 11.0779 5.9275 10.8348 6.4693C10.5917 7.01117 10.6757 7.57656 11.0225 7.73211Z" fill="white"/>
</g>
<defs>
<radialGradient id="paint0_radial_1221_143" cx="0" cy="0" r="1" gradientUnits="userSpaceOnUse" gradientTransform="translate(357.343 354.464) scale(350.582)">
<stop stop-color="#797979"/>
<stop offset="1" stop-color="#4C4C4C"/>
</radialGradient>
<clipPath id="clip0_1221_143">
<rect width="20" height="20" fill="white"/>
</clipPath>
</defs>
</svg>
