<svg width="20" height="20" viewBox="0 0 20 20" fill="none" xmlns="http://www.w3.org/2000/svg">
<g clip-path="url(#clip0_1221_107)">
<path d="M10 14.9978C12.7614 14.9978 15 12.7592 15 9.99779C15 7.23637 12.7614 4.9978 10 4.9978C7.23858 4.9978 5 7.23637 5 9.99779C5 12.7592 7.23858 14.9978 10 14.9978Z" fill="white"/>
<path d="M10 5H18.6589C17.7814 3.47975 16.5192 2.21729 14.9991 1.33959C13.4791 0.461882 11.7547 -0.000137705 9.99937 -1.52344e-05C8.24408 0.000107236 6.51976 0.462368 4.99979 1.34029C3.47982 2.2182 2.21778 3.48083 1.34058 5.00121L5.66999 12.5L5.67387 12.499C5.23345 11.7395 5.00104 10.8774 5.00005 9.99944C4.99906 9.12151 5.22954 8.25884 5.66825 7.49838C6.10696 6.73792 6.73839 6.10656 7.4989 5.66793C8.2594 5.2293 9.1221 4.99892 10 5Z" fill="url(#paint0_linear_1221_107)"/>
<path d="M9.99996 13.9583C12.1861 13.9583 13.9583 12.1861 13.9583 10C13.9583 7.81387 12.1861 6.04167 9.99996 6.04167C7.81383 6.04167 6.04163 7.81387 6.04163 10C6.04163 12.1861 7.81383 13.9583 9.99996 13.9583Z" fill="#1A73E8"/>
<path d="M14.3297 12.5012L10.0003 20C11.7556 20.0002 13.48 19.5383 15.0002 18.6607C16.5203 17.7832 17.7826 16.5208 18.6602 15.0006C19.5377 13.4804 19.9995 11.756 19.9992 10.0007C19.9989 8.24543 19.5364 6.52117 18.6584 5.00129H9.99958L9.99854 5.00517C10.8765 5.00347 11.7393 5.23326 12.5001 5.67137C13.261 6.10947 13.8928 6.74041 14.332 7.50058C14.7713 8.26074 15.0023 9.12327 15.0019 10.0012C15.0015 10.8791 14.7697 11.7414 14.3297 12.5012Z" fill="url(#paint1_linear_1221_107)"/>
<path d="M5.67028 12.5013L1.34087 5.0025C0.463 6.5225 0.000797843 8.24684 0.000732429 10.0021C0.000667014 11.7574 0.462741 13.4818 1.34049 15.0019C2.21824 16.5219 3.48073 17.7841 5.00102 18.6615C6.5213 19.5388 8.24578 20.0005 10.0011 20L14.3305 12.5012L14.3277 12.4984C13.8902 13.2595 13.2597 13.8919 12.4999 14.3317C11.7401 14.7715 10.8778 15.0033 9.99983 15.0036C9.1219 15.0038 8.25941 14.7727 7.49929 14.3334C6.73918 13.8941 6.10831 13.2621 5.67028 12.5013Z" fill="url(#paint2_linear_1221_107)"/>
</g>
<defs>
<linearGradient id="paint0_linear_1221_107" x1="1.34058" y1="6.25" x2="18.6589" y2="6.25" gradientUnits="userSpaceOnUse">
<stop stop-color="#D93025"/>
<stop offset="1" stop-color="#EA4335"/>
</linearGradient>
<linearGradient id="paint1_linear_1221_107" x1="8.63416" y1="19.8663" x2="17.2933" y2="4.86821" gradientUnits="userSpaceOnUse">
<stop stop-color="#FCC934"/>
<stop offset="1" stop-color="#FBBC04"/>
</linearGradient>
<linearGradient id="paint2_linear_1221_107" x1="11.0826" y1="19.3756" x2="2.42341" y2="4.3775" gradientUnits="userSpaceOnUse">
<stop stop-color="#1E8E3E"/>
<stop offset="1" stop-color="#34A853"/>
</linearGradient>
<clipPath id="clip0_1221_107">
<rect width="20" height="20" fill="white"/>
</clipPath>
</defs>
</svg>
