<svg width="20" height="21" viewBox="0 0 20 21" fill="none" xmlns="http://www.w3.org/2000/svg">
<mask id="mask0_991_30" style="mask-type:luminance" maskUnits="userSpaceOnUse" x="1" y="0" width="18" height="21">
<path d="M18.8485 0.253906H1.15149V20.2539H18.8485V0.253906Z" fill="white"/>
</mask>
<g mask="url(#mask0_991_30)">
<path d="M7.11757 14.2537C6.6054 13.7368 6.20022 13.124 5.92525 12.4503C5.65028 11.7766 5.51092 11.0552 5.51515 10.3276C5.51329 9.59998 5.65651 8.87929 5.93644 8.20767C6.21636 7.53606 6.62738 6.92699 7.14545 6.41608C7.36738 6.21882 7.5467 5.97834 7.67245 5.70937C7.7982 5.4404 7.86773 5.14859 7.87677 4.85181C7.88582 4.55503 7.8342 4.25952 7.72506 3.98339C7.61593 3.70726 7.45158 3.4563 7.24208 3.2459C7.03258 3.03549 6.78235 2.87006 6.50669 2.75973C6.23103 2.6494 5.93575 2.5965 5.63894 2.60426C5.34212 2.61202 5.05001 2.68029 4.7805 2.80487C4.51098 2.92945 4.26973 3.10774 4.07151 3.32881C2.20971 5.17963 1.15931 7.69419 1.15135 10.3194C1.1434 12.9446 2.17853 15.4655 4.02909 17.3276C4.22666 17.5484 4.46712 17.7266 4.7358 17.8514C5.00449 17.9762 5.29578 18.0449 5.59192 18.0535C5.88805 18.062 6.18283 18.0102 6.45827 17.9011C6.73371 17.792 6.98405 17.628 7.19403 17.419C7.40401 17.21 7.56923 16.9604 7.67961 16.6855C7.79 16.4106 7.84324 16.1161 7.83608 15.8199C7.82893 15.5237 7.76153 15.2321 7.638 14.9628C7.51447 14.6936 7.3374 14.4523 7.11757 14.2537Z" fill="#FFDA00"/>
<path d="M7.14544 6.4167C8.18953 5.3831 9.60083 4.80562 11.07 4.81084C12.5392 4.81607 13.9463 5.40357 14.983 6.44458C15.1799 6.66767 15.4203 6.84813 15.6895 6.97488C15.9587 7.10162 16.251 7.17197 16.5483 7.18159C16.8457 7.19121 17.1419 7.13991 17.4188 7.03084C17.6956 6.92176 17.9472 6.75722 18.158 6.54733C18.3689 6.33744 18.5347 6.08663 18.645 5.81033C18.7554 5.53402 18.8081 5.23806 18.7999 4.94064C18.7917 4.64322 18.7227 4.35062 18.5972 4.08084C18.4718 3.81105 18.2924 3.56978 18.0703 3.37185C17.1574 2.44716 16.0708 1.71192 14.8729 1.20837C13.675 0.704819 12.3894 0.442875 11.09 0.437582C9.7906 0.432288 8.50294 0.683749 7.30099 1.17752C6.09904 1.6713 5.00648 2.39766 4.08605 3.31488C3.86332 3.51113 3.68299 3.75076 3.55607 4.01911C3.42916 4.28746 3.35834 4.57889 3.34796 4.87555C3.33757 5.17222 3.38783 5.46789 3.49566 5.74446C3.60349 6.02103 3.76662 6.27268 3.97507 6.48403C4.18353 6.69537 4.43291 6.86196 4.70797 6.97358C4.98303 7.08521 5.27798 7.13954 5.57476 7.13324C5.87154 7.12693 6.16391 7.06014 6.43399 6.93693C6.70406 6.81373 6.94615 6.63671 7.14544 6.4167Z" fill="#67B3FF"/>
<path d="M14.9696 14.2817C14.453 14.7949 13.8401 15.2011 13.1662 15.4771C12.4923 15.7531 11.7706 15.8935 11.0424 15.8902C10.3143 15.8913 9.59339 15.7471 8.92175 15.4661C8.25011 15.1851 7.64127 14.773 7.13086 14.2538C6.9336 14.0319 6.69313 13.8526 6.42415 13.7268C6.15518 13.6011 5.86337 13.5315 5.56659 13.5225C5.26981 13.5135 4.97431 13.5651 4.69817 13.6742C4.42204 13.7833 4.17109 13.9477 3.96068 14.1572C3.75027 14.3667 3.58484 14.6169 3.47451 14.8926C3.36419 15.1682 3.31128 15.4635 3.31904 15.7603C3.32681 16.0572 3.39507 16.3493 3.51965 16.6188C3.64424 16.8883 3.82252 17.1295 4.04359 17.3278C4.95808 18.2524 6.04606 18.9875 7.24517 19.4908C8.44428 19.9942 9.73094 20.256 11.0314 20.2611C12.3319 20.2663 13.6206 20.0148 14.8237 19.521C16.0267 19.0272 17.1205 18.3008 18.0424 17.3835C18.246 17.1818 18.408 16.9419 18.5189 16.6775C18.6299 16.4132 18.6877 16.1296 18.689 15.8429C18.6904 15.5562 18.6353 15.2721 18.5268 15.0067C18.4183 14.7413 18.2587 14.4999 18.0569 14.2962C17.8552 14.0926 17.6153 13.9306 17.3509 13.8197C17.0866 13.7087 16.803 13.6509 16.5163 13.6496C16.2296 13.6482 15.9455 13.7034 15.6801 13.8118C15.4147 13.9203 15.1733 14.0799 14.9696 14.2817Z" fill="#EB5A68"/>
<path d="M7.14544 6.41594C6.83964 6.72138 6.45 6.92912 6.02596 7.01279C5.60191 7.09647 5.16257 7.05231 4.76366 6.88592C4.36475 6.71954 4.02425 6.43842 3.78534 6.07823C3.54644 5.71803 3.4199 5.295 3.42177 4.86279C3.42365 4.43057 3.55385 4.00865 3.79587 3.65054C4.0379 3.29244 4.38082 3.01428 4.78116 2.85136C5.1815 2.68844 5.62121 2.6481 6.04451 2.73545C6.46781 2.8228 6.85563 3.03391 7.15878 3.342C7.56264 3.75244 7.78787 4.3059 7.78537 4.88171C7.78287 5.45753 7.55285 6.00901 7.14544 6.41594Z" fill="#47A1FF"/>
<path d="M7.10302 17.3277C6.79709 17.633 6.40738 17.8406 5.9833 17.9241C5.55923 18.0076 5.1199 17.9633 4.72106 17.7967C4.32221 17.6302 3.98182 17.3489 3.74306 16.9886C3.5043 16.6284 3.37792 16.2053 3.37997 15.7731C3.38201 15.3408 3.51239 14.919 3.75455 14.561C3.99671 14.203 4.33975 13.9249 4.74015 13.7622C5.14055 13.5994 5.58027 13.5592 6.00354 13.6468C6.42681 13.7343 6.81454 13.9455 7.11757 14.2537C7.52127 14.6643 7.74628 15.2179 7.74356 15.7937C7.74083 16.3695 7.51059 16.9209 7.10302 17.3277Z" fill="#D5465F"/>
</g>
</svg>
