<svg width="20" height="21" viewBox="0 0 20 21" fill="none" xmlns="http://www.w3.org/2000/svg">
<path d="M2.60488 18.0007L1 0H18.635L17.0284 17.9979L9.80672 20L2.60488 18.0007Z" fill="#264DE4"/>
<path d="M15.8355 16.8518L17.2084 1.47168H10V18.4696L15.8355 16.8518Z" fill="#2965F1"/>
<path d="M4.86171 8.14816L5.05956 10.3559H9.99999V8.14816H4.86171ZM4.6648 5.88742H9.99999V3.67969H4.4641L4.6648 5.88742ZM9.99999 13.8818L9.99031 13.8844L7.53156 13.2205L7.37441 11.4597H5.15816L5.46749 14.9262L9.98984 16.1816L9.99999 16.1788V13.8818Z" fill="#EBEBEB"/>
<path d="M9.99239 8.14816V10.3559H12.7109L12.4547 13.2191L9.99239 13.8837V16.1805L14.5183 14.9262L14.5515 14.5532L15.0703 8.74098L15.1242 8.14816L15.5227 3.67969H9.99239V5.88742H13.1033L12.9023 8.14816H9.99239Z" fill="white"/>
</svg>
