<svg width="20" height="20" viewBox="0 0 20 20" fill="none" xmlns="http://www.w3.org/2000/svg">
<g clip-path="url(#clip0_1221_95)">
<path d="M7.0287 7.93692C7.83704 7.93692 8.49381 8.36914 8.83062 9.11974L8.85588 9.17877L10.2115 8.71703L10.1842 8.64745C9.66 7.36554 8.44961 6.57066 7.0287 6.57066C6.02881 6.57066 5.21626 6.89114 4.54475 7.55108C3.87746 8.20679 3.54065 9.03118 3.54065 10.0011C3.54065 10.9646 3.87956 11.7848 4.54475 12.4384C5.21626 13.0983 6.02881 13.4188 7.0287 13.4188C8.44961 13.4188 9.6579 12.6218 10.1842 11.342L10.2115 11.2724L8.85377 10.8107L8.83062 10.8718C8.52749 11.6119 7.85388 12.0525 7.0287 12.0525C6.46666 12.0525 5.99092 11.8565 5.61622 11.4685C5.23521 11.0763 5.04365 10.5809 5.04365 10.0011C5.04365 9.41702 5.231 8.93209 5.61622 8.52095C5.99302 8.133 6.46666 7.93692 7.0287 7.93692Z" fill="#1B1E2E"/>
<path d="M12.9144 19.5669L12.5103 18.2323C16.1562 17.1233 18.6065 13.8152 18.6065 10.0011C18.6065 8.94896 18.4191 7.92005 18.0486 6.94596L19.3495 6.45049C19.7811 7.58481 20 8.77818 20 10.0032C19.9979 14.4329 17.1519 18.2766 12.9144 19.5669Z" fill="url(#paint0_linear_1221_95)"/>
<path d="M18.2297 7.47939C17.1161 3.84026 13.8091 1.39661 9.99897 1.39661C9.48113 1.39661 8.96329 1.443 8.45808 1.53366L8.21179 0.161079C8.79699 0.055658 9.39904 0.000839233 9.99897 0.000839233C14.4238 0.000839233 18.2655 2.84087 19.5601 7.06825L18.2297 7.47939Z" fill="#69D3A7"/>
<path d="M0.639933 13.5263C0.214714 12.4004 0 11.2134 0 10.0011C0 4.83544 3.87117 0.557465 9.00537 0.051445L9.1422 1.43878C4.72371 1.87522 1.39143 5.55652 1.39143 10.0011C1.39143 11.0447 1.57668 12.0673 1.94085 13.0351L0.639933 13.5263Z" fill="url(#paint1_linear_1221_95)"/>
<path d="M15.5183 6.69717L13.588 11.5971L11.6429 6.69717H10.0515L12.7796 13.3851L10.7925 18.2133L12.1839 18.4916L17.0213 6.69717H15.5183Z" fill="#1B1E2E"/>
<path d="M11.0431 17.6061L10.7505 18.3166C10.6831 18.479 10.5294 18.5907 10.3568 18.5971C10.2368 18.6013 10.119 18.6055 9.99687 18.6055C6.17622 18.6055 2.77448 16.0438 1.72406 12.3751L0.385254 12.7589C1.60618 17.02 5.55734 19.9971 9.99477 19.9992H9.99687C10.1358 19.9992 10.2747 19.9971 10.4137 19.9907C11.1273 19.9612 11.7651 19.5121 12.0388 18.848L12.4345 17.8844L11.0431 17.6061Z" fill="url(#paint2_linear_1221_95)"/>
</g>
<defs>
<linearGradient id="paint0_linear_1221_95" x1="20.766" y1="10.0644" x2="11.8297" y2="15.841" gradientUnits="userSpaceOnUse">
<stop offset="0.081" stop-color="#69D3A7"/>
<stop offset="1" stop-color="#69D3A7" stop-opacity="0"/>
</linearGradient>
<linearGradient id="paint1_linear_1221_95" x1="6.67054" y1="0.127264" x2="1.04699" y2="12.0351" gradientUnits="userSpaceOnUse">
<stop stop-color="#69D3A7"/>
<stop offset="0.823" stop-color="#2AB586"/>
<stop offset="1" stop-color="#1CAE7F"/>
</linearGradient>
<linearGradient id="paint2_linear_1221_95" x1="-0.0141146" y1="14.5794" x2="14.6973" y2="19.1891" gradientUnits="userSpaceOnUse">
<stop offset="0.077" stop-color="#1CAE7F"/>
<stop offset="0.164" stop-color="#1CA379"/>
<stop offset="0.316" stop-color="#1C8568"/>
<stop offset="0.516" stop-color="#1B554D"/>
<stop offset="0.719" stop-color="#1B1E2E"/>
</linearGradient>
<clipPath id="clip0_1221_95">
<rect width="20" height="20" fill="white"/>
</clipPath>
</defs>
</svg>
