<svg width="21" height="21" viewBox="0 0 21 21" fill="none" xmlns="http://www.w3.org/2000/svg">
<g clip-path="url(#clip0_991_45)">
<mask id="mask0_991_45" style="mask-type:luminance" maskUnits="userSpaceOnUse" x="0" y="0" width="21" height="21">
<path d="M20.697 0.253906H0.69696V20.2539H20.697V0.253906Z" fill="white"/>
</mask>
<g mask="url(#mask0_991_45)">
<path d="M10.6971 0.306641H0.69696V20.2021H10.6971C15.6984 20.2021 20.697 15.7481 20.697 10.2558C20.697 4.76342 15.6984 0.306641 10.6971 0.306641ZM10.6971 14.7746C8.17135 14.7736 6.12462 12.7491 6.12556 10.2526C6.12649 7.75609 8.17474 5.73303 10.7005 5.73391C13.2262 5.73479 15.273 7.75927 15.2722 10.2558C15.2722 11.4548 14.7901 12.6047 13.932 13.4523C13.0739 14.2998 11.9102 14.7755 10.6971 14.7746Z" fill="#FF7751"/>
</g>
</g>
<defs>
<clipPath id="clip0_991_45">
<rect width="21" height="21" fill="white"/>
</clipPath>
</defs>
</svg>
