<svg width="24" height="24" viewBox="0 0 24 24" fill="none" xmlns="http://www.w3.org/2000/svg">
<path d="M18.942 5.556C17.6305 4.94128 16.243 4.50409 14.816 4.256C14.6212 4.61349 14.4446 4.98063 14.287 5.356C12.7714 5.125 11.2296 5.125 9.71401 5.356C9.55517 4.98017 9.37659 4.61299 9.17901 4.256C7.75092 4.50353 6.36231 4.94073 5.05001 5.556C2.73962 8.97948 1.72297 13.1134 2.18201 17.218C3.67392 18.3457 5.35439 19.1993 7.14501 19.739C7.55571 19.1754 7.91832 18.5783 8.22901 17.954C7.63674 17.7287 7.06581 17.4509 6.52301 17.124C6.66601 17.018 6.80601 16.907 6.94101 16.793C8.51928 17.5527 10.2484 17.9472 12 17.9472C13.7516 17.9472 15.4807 17.5527 17.059 16.793C17.196 16.907 17.336 17.018 17.477 17.124C16.933 17.4518 16.3607 17.7303 15.767 17.956C16.078 18.5801 16.4406 19.1772 16.851 19.741C18.6769 19.1765 20.3905 18.2984 21.915 17.146C22.3353 13.0519 21.2811 8.94223 18.942 5.556ZM8.67801 14.813C8.16955 14.7768 7.69575 14.542 7.35896 14.1593C7.02216 13.7767 6.8494 13.2769 6.87801 12.768C6.8462 12.2581 7.01778 11.7563 7.35516 11.3727C7.69253 10.989 8.16821 10.7547 8.67801 10.721C8.93099 10.7361 9.17847 10.8012 9.40616 10.9125C9.63386 11.0238 9.83725 11.1791 10.0046 11.3694C10.172 11.5597 10.3 11.7813 10.3812 12.0213C10.4625 12.2614 10.4954 12.5152 10.478 12.768C10.5098 13.2777 10.3382 13.7792 10.0007 14.1626C9.66331 14.5459 9.18763 14.7798 8.67801 14.813ZM15.322 14.813C14.8135 14.7768 14.3398 14.542 14.003 14.1593C13.6662 13.7767 13.4934 13.2769 13.522 12.768C13.4902 12.2581 13.6618 11.7563 13.9992 11.3727C14.3365 10.989 14.8122 10.7547 15.322 10.721C15.575 10.736 15.8226 10.801 16.0503 10.9122C16.2781 11.0235 16.4815 11.1788 16.6489 11.3691C16.8163 11.5594 16.9443 11.7811 17.0255 12.0212C17.1067 12.2613 17.1395 12.5151 17.122 12.768C17.1535 13.2776 16.9818 13.779 16.6444 14.1623C16.3071 14.5456 15.8315 14.7796 15.322 14.813Z" fill="currentColor"/>
</svg>
