<svg width="24" height="24" viewBox="0 0 24 24" fill="none" xmlns="http://www.w3.org/2000/svg">
<path fill-rule="evenodd" clip-rule="evenodd" d="M12 2C10.0222 2 8.08879 2.58649 6.4443 3.6853C4.79981 4.78412 3.51809 6.3459 2.76121 8.17317C2.00433 10.0004 1.8063 12.0111 2.19215 13.9509C2.578 15.8907 3.53041 17.6725 4.92894 19.0711C6.32746 20.4696 8.10929 21.422 10.0491 21.8079C11.9889 22.1937 13.9996 21.9957 15.8268 21.2388C17.6541 20.4819 19.2159 19.2002 20.3147 17.5557C21.4135 15.9112 22 13.9778 22 12C21.9976 9.34857 20.9433 6.80641 19.0684 4.93156C17.1936 3.05672 14.6514 2.00238 12 2ZM18.613 6.614C19.8435 8.11575 20.5244 9.99261 20.543 11.934C18.5846 11.5477 16.5796 11.4553 14.594 11.66C14.535 11.511 14.472 11.368 14.41 11.219C14.235 10.801 14.042 10.386 13.844 9.98C15.6986 9.29044 17.3421 8.13049 18.613 6.614ZM10 3.707C10.6554 3.55157 11.3264 3.47171 12 3.469C14.0883 3.46622 16.1045 4.23226 17.664 5.621C16.5004 7.05951 14.9461 8.13144 13.188 8.708C12.2346 6.97414 11.1697 5.30297 10 3.707ZM3.642 10.262C3.9153 8.96762 4.48454 7.75409 5.30515 6.71645C6.12576 5.67881 7.17545 4.84523 8.372 4.281C9.5168 5.86935 10.5744 7.51879 11.54 9.222C8.96013 9.89565 6.30633 10.245 3.64 10.262H3.642ZM5.652 17.722C4.23676 16.158 3.45275 14.1242 3.452 12.015C3.452 11.926 3.452 11.84 3.452 11.753C6.42037 11.7604 9.375 11.35 12.229 10.534C12.472 11.011 12.706 11.498 12.921 11.983C12.807 12.015 12.694 12.05 12.585 12.083C9.70068 13.1234 7.25375 15.1099 5.643 17.719L5.652 17.722ZM12 20.556C10.1004 20.5581 8.25472 19.9245 6.757 18.756C8.23767 16.197 10.631 14.2924 13.457 13.424C13.4749 13.4163 13.4933 13.4096 13.512 13.404C14.3211 15.5005 14.9301 17.6688 15.331 19.88C14.2777 20.3279 13.1446 20.5579 12 20.556ZM16.772 19.094C16.3926 17.0193 15.8376 14.9807 15.113 13C16.8922 12.7375 18.7071 12.8617 20.434 13.364C20.2477 14.5184 19.8268 15.6225 19.1973 16.608C18.5678 17.5935 17.7431 18.4395 16.774 19.094H16.772Z" fill="currentColor"/>
</svg>
