<svg width="20" height="21" viewBox="0 0 20 21" fill="none" xmlns="http://www.w3.org/2000/svg">
<g clip-path="url(#clip0_991_51)">
<path d="M19.9601 10.2439C19.9601 15.7504 15.5791 20.2143 10.1749 20.2143C4.77074 20.2143 0.389771 15.7504 0.389771 10.2439C0.389771 4.73734 4.77074 0.273438 10.1749 0.273438C15.5791 0.273438 19.9601 4.73734 19.9601 10.2439Z" fill="#353535"/>
<path d="M17.0732 14.0524H15.6895L13.7905 11.4018L11.8779 14.0524H10.4943L13.0987 10.4481L10.6435 7.04004H12.0406L13.7905 9.48036L15.5403 7.04004H16.9239L14.4823 10.4341L17.0732 14.0524Z" fill="white"/>
<path d="M4.42173 11.107C4.53931 11.7334 4.81509 12.2196 5.24919 12.5656C5.69227 12.9115 6.23489 13.0845 6.87692 13.0845C7.77219 13.0845 8.42335 12.7432 8.83022 12.0607L9.83402 12.6497C9.17386 13.7062 8.17914 14.2345 6.84982 14.2345C5.77369 14.2345 4.8965 13.8886 4.21827 13.1967C3.54907 12.4954 3.21448 11.6119 3.21448 10.5459C3.21448 9.48943 3.54455 8.61054 4.2047 7.9093C4.86485 7.20806 5.71941 6.85742 6.76841 6.85742C7.76317 6.85742 8.57254 7.22208 9.19649 7.95137C9.82952 8.6713 10.146 9.54088 10.146 10.56C10.146 10.7377 10.1324 10.92 10.1053 11.107H4.42173ZM6.76841 8.00748C6.13539 8.00748 5.61089 8.19447 5.19491 8.56848C4.77893 8.93307 4.52119 9.42399 4.42173 10.041H8.95237C8.85286 9.37729 8.59966 8.87234 8.1927 8.52638C7.78576 8.18045 7.31099 8.00748 6.76841 8.00748Z" fill="white"/>
</g>
<defs>
<clipPath id="clip0_991_51">
<rect width="20" height="21" fill="white"/>
</clipPath>
</defs>
</svg>
