<svg width="20" height="21" viewBox="0 0 20 21" fill="none" xmlns="http://www.w3.org/2000/svg">
<mask id="mask0_991_55" style="mask-type:luminance" maskUnits="userSpaceOnUse" x="3" y="0" width="14" height="21">
<path d="M16.6618 0.253906H3.33813V20.2539H16.6618V0.253906Z" fill="white"/>
</mask>
<g mask="url(#mask0_991_55)">
<path d="M9.99365 10.2573C9.99365 8.42158 11.4819 6.92578 13.3252 6.92578C15.161 6.92578 16.6568 8.41403 16.6568 10.2573C16.6568 12.0931 15.1685 13.5889 13.3252 13.5889C11.4895 13.5889 9.99365 12.0931 9.99365 10.2573Z" fill="#1ABCFE"/>
<path d="M3.33813 16.9136C3.33813 15.0778 4.82638 13.582 6.66969 13.582H10.0012V16.9136C10.0012 18.7493 8.513 20.2451 6.66969 20.2451C4.82638 20.2451 3.33813 18.7569 3.33813 16.9136Z" fill="#0ACF83"/>
<path d="M9.99365 0.27025V6.9258H13.3252C15.161 6.9258 16.6568 5.43756 16.6568 3.59425C16.6568 1.75849 15.1685 0.262695 13.3252 0.262695H9.99365V0.27025Z" fill="#FF7262"/>
<path d="M3.33813 3.60206C3.33813 5.43782 4.82638 6.93361 6.66969 6.93361H10.0012V0.270508H6.66969C4.82638 0.270508 3.33813 1.75875 3.33813 3.60206Z" fill="#F24E1E"/>
<path d="M3.33813 10.2573C3.33813 12.0931 4.82638 13.5889 6.66969 13.5889H10.0012V6.92578H6.66969C4.82638 6.92578 3.33813 8.42158 3.33813 10.2573Z" fill="#A259FF"/>
</g>
</svg>
