<svg width="20" height="21" viewBox="0 0 20 21" fill="none" xmlns="http://www.w3.org/2000/svg">
<g clip-path="url(#clip0_991_71)">
<mask id="mask0_991_71" style="mask-type:luminance" maskUnits="userSpaceOnUse" x="0" y="0" width="20" height="21">
<path d="M20 0.253906H0V20.2539H20V0.253906Z" fill="white"/>
</mask>
<g mask="url(#mask0_991_71)">
<path d="M19.6228 9.36279L10.8906 0.631074C10.388 0.128184 9.57242 0.128184 9.06922 0.631074L7.25594 2.44436L9.55617 4.74459C10.0907 4.56396 10.7037 4.68514 11.1298 5.11123C11.5579 5.54006 11.6782 6.15826 11.4932 6.69451L13.71 8.91139C14.2463 8.72662 14.8652 8.84615 15.2935 9.27521C15.8922 9.87365 15.8922 10.8436 15.2935 11.4424C14.6947 12.0413 13.7248 12.0413 13.1256 11.4424C12.6753 10.9916 12.5641 10.3303 12.792 9.77553L10.7247 7.70818L10.7245 13.1486C10.8743 13.2227 11.0112 13.3206 11.1298 13.4384C11.7284 14.0369 11.7284 15.0069 11.1298 15.6062C10.5309 16.2047 9.56055 16.2047 8.96258 15.6062C8.36391 15.0069 8.36391 14.0369 8.96258 13.4385C9.10605 13.295 9.27655 13.1813 9.46422 13.104V7.61295C9.27627 7.53622 9.10568 7.42249 8.96258 7.2785C8.50898 6.82553 8.39992 6.15998 8.63234 5.60303L6.36484 3.33529L0.377344 9.3224C-0.125781 9.82576 -0.125781 10.6415 0.377344 11.1444L9.10969 19.8763C9.61242 20.3793 10.4279 20.3793 10.9312 19.8763L19.6227 11.185C20.1257 10.6819 20.1258 9.86568 19.6228 9.36279Z" fill="#DE4C36"/>
</g>
</g>
<defs>
<clipPath id="clip0_991_71">
<rect width="20" height="21" fill="white"/>
</clipPath>
</defs>
</svg>
