<svg width="20" height="21" viewBox="0 0 20 21" fill="none" xmlns="http://www.w3.org/2000/svg">
<mask id="mask0_991_9" style="mask-type:luminance" maskUnits="userSpaceOnUse" x="0" y="0" width="20" height="20">
<path d="M20 0.526367H0V19.9824H20V0.526367Z" fill="white"/>
</mask>
<g mask="url(#mask0_991_9)">
<path d="M9.96133 0.526367C4.46055 0.526367 0 4.98613 0 10.4877C0 14.8889 2.85422 18.6228 6.81219 19.94C7.31 20.0322 7.49281 19.7239 7.49281 19.4608C7.49281 19.2233 7.48352 18.4386 7.4793 17.6062C4.70797 18.2088 4.1232 16.4309 4.1232 16.4309C3.67008 15.2795 3.01719 14.9734 3.01719 14.9734C2.11344 14.3551 3.08531 14.3678 3.08531 14.3678C4.08563 14.4381 4.61234 15.3943 4.61234 15.3943C5.50078 16.9172 6.94266 16.4769 7.51109 16.2225C7.60047 15.5786 7.85867 15.1392 8.14352 14.8904C5.93102 14.6385 3.60508 13.7843 3.60508 9.96746C3.60508 8.87996 3.99422 7.99129 4.63148 7.29371C4.52805 7.04277 4.18711 6.02965 4.72797 4.65754C4.72797 4.65754 5.56445 4.3898 7.46805 5.67863C8.26258 5.45785 9.11477 5.34723 9.96133 5.34348C10.8079 5.34723 11.6607 5.45785 12.4568 5.67863C14.3581 4.3898 15.1934 4.65754 15.1934 4.65754C15.7356 6.02965 15.3945 7.04277 15.2911 7.29371C15.9298 7.99129 16.3162 8.87988 16.3162 9.96746C16.3162 13.7934 13.9859 14.6359 11.7678 14.8825C12.1251 15.1916 12.4434 15.7978 12.4434 16.7271C12.4434 18.06 12.4319 19.1327 12.4319 19.4608C12.4319 19.7259 12.6112 20.0365 13.1162 19.9387C17.072 18.62 19.9226 14.8875 19.9226 10.4877C19.9226 4.98613 15.4627 0.526367 9.96133 0.526367Z" fill="black"/>
<path d="M3.73085 14.7168C3.70898 14.7662 3.63101 14.7811 3.56015 14.7472C3.48788 14.7147 3.44726 14.6472 3.47069 14.5975C3.49218 14.5465 3.57015 14.5323 3.64226 14.5665C3.71468 14.599 3.75593 14.6671 3.73085 14.7168ZM4.22085 15.154C4.17335 15.198 4.08046 15.1776 4.01741 15.1079C3.95226 15.0385 3.94007 14.9457 3.98827 14.9009C4.03726 14.8569 4.12734 14.8775 4.19265 14.947C4.2578 15.0172 4.27054 15.1095 4.22085 15.154ZM4.55702 15.7133C4.49593 15.7558 4.39609 15.716 4.33445 15.6274C4.27343 15.5389 4.27343 15.4326 4.33577 15.3901C4.39765 15.3475 4.49593 15.3858 4.55843 15.4736C4.61937 15.5637 4.61944 15.6699 4.55702 15.7133ZM5.12546 16.3612C5.07085 16.4214 4.9546 16.4053 4.86945 16.3231C4.78241 16.2428 4.75812 16.1288 4.81288 16.0686C4.86812 16.0083 4.98507 16.0252 5.07085 16.1067C5.15734 16.1868 5.18366 16.3017 5.12546 16.3612ZM5.86015 16.58C5.83616 16.6579 5.72413 16.6934 5.61132 16.6603C5.49866 16.6261 5.42491 16.5347 5.44765 16.4559C5.47109 16.3774 5.58359 16.3404 5.69726 16.3759C5.80976 16.4099 5.88359 16.5006 5.86015 16.58ZM6.6964 16.6727C6.69921 16.7549 6.60351 16.823 6.48507 16.8245C6.36593 16.8271 6.2696 16.7606 6.26835 16.6798C6.26835 16.5968 6.36187 16.5293 6.48093 16.5274C6.59937 16.5251 6.6964 16.5911 6.6964 16.6727ZM7.5178 16.6412C7.53202 16.7214 7.44968 16.8037 7.3321 16.8256C7.21648 16.8467 7.10945 16.7972 7.09468 16.7178C7.0803 16.6356 7.16421 16.5533 7.2796 16.532C7.39741 16.5115 7.5028 16.5597 7.5178 16.6412Z" fill="black"/>
</g>
</svg>
