<svg width="20" height="21" viewBox="0 0 20 21" fill="none" xmlns="http://www.w3.org/2000/svg">
<mask id="mask0_991_77" style="mask-type:luminance" maskUnits="userSpaceOnUse" x="0" y="0" width="20" height="20">
<path d="M20 0.814453H0V19.2545H20V0.814453Z" fill="white"/>
</mask>
<g mask="url(#mask0_991_77)">
<path d="M10.0059 19.2574L13.6859 7.93164H6.32578L10.0059 19.2574Z" fill="#E24329"/>
<path d="M10.0058 19.2574L6.32577 7.93164H1.16843L10.0058 19.2574Z" fill="#FC6D26"/>
<path d="M1.16843 7.93164L0.0501446 11.3735C0.000422362 11.5265 0.000415504 11.6914 0.050125 11.8444C0.0998345 11.9974 0.196708 12.1307 0.326863 12.2253L10.0058 19.2575L1.16843 7.93164Z" fill="#FCA326"/>
<path d="M1.16843 7.93237H6.32577L4.10944 1.11089C3.99538 0.759873 3.49882 0.759951 3.38483 1.11089L1.16843 7.93237Z" fill="#E24329"/>
<path d="M10.0058 19.2574L13.6858 7.93164H18.8433L10.0058 19.2574Z" fill="#FC6D26"/>
<path d="M18.8433 7.93164L19.9616 11.3735C20.0113 11.5265 20.0113 11.6914 19.9615 11.8444C19.9118 11.9974 19.8149 12.1307 19.6848 12.2253L10.0059 19.2575L18.8433 7.93164Z" fill="#FCA326"/>
<path d="M18.8433 7.93237H13.6859L15.9023 1.11089C16.0163 0.759873 16.5129 0.759951 16.6269 1.11089L18.8433 7.93237Z" fill="#E24329"/>
</g>
</svg>
