<svg width="15" height="20" viewBox="0 0 15 20" fill="none" xmlns="http://www.w3.org/2000/svg">
<g clip-path="url(#clip0_1210_11)">
<path d="M10.3752 0H2.40579C1.65669 0 1 0.636 1 1.364V18.6368C1 19.364 1.65587 20.0008 2.40661 20.0008H14.5942C15.3441 20.0008 16.0008 19.3648 16.0008 18.6368V5.4544L12.7198 3.1816L10.3752 0Z" fill="#4285F4"/>
<path d="M4.74957 14.5456H12.2496V13.6368H4.7504L4.74957 14.5456ZM4.74957 16.364H10.3744V15.4552H4.74957V16.364ZM4.74957 10V10.9088H12.2496V10H4.74957ZM4.74957 12.7272H12.2496V11.8184H4.7504L4.74957 12.7272Z" fill="#F1F1F1"/>
<path d="M10.3752 0V4.0912C10.3752 4.8184 11.0311 5.4544 11.781 5.4544H16L10.3752 0Z" fill="#A1C2FA"/>
</g>
<defs>
<clipPath id="clip0_1210_11">
<rect width="15" height="20" fill="white"/>
</clipPath>
</defs>
</svg>
