<svg width="20" height="16" viewBox="0 0 20 16" fill="none" xmlns="http://www.w3.org/2000/svg">
<g clip-path="url(#clip0_1223_155)">
<path d="M11.313 8L13.2625 10.1666L15.8839 11.7954L16.341 8.01333L15.8839 4.31572L13.2122 5.74677L11.313 8Z" fill="#00832D"/>
<path d="M0 11.4443V14.6664C0 15.403 0.613644 15.9996 1.37127 15.9996H4.68518L5.37081 13.5642L4.68518 11.4443L2.41115 10.7777L0 11.4443Z" fill="#0066DA"/>
<path d="M4.68518 0.000358582L0 4.55571L2.41115 5.22235L4.68518 4.55571L5.35939 2.46469L4.68518 0.000358582Z" fill="#E94235"/>
<path d="M4.68518 4.55571H0V11.4443H4.68518V4.55571Z" fill="#2684FC"/>
<path d="M18.8778 1.92916L15.8839 4.31572V11.7954L18.8916 14.1931C19.3418 14.5353 20 14.2231 20 13.6664V2.4447C20 1.88139 19.3269 1.57251 18.8778 1.92916ZM11.313 8V11.4443H4.68518V15.9996H14.5126C15.2703 15.9996 15.8839 15.403 15.8839 14.6664V11.7954L11.313 8Z" fill="#00AC47"/>
<path d="M14.5126 0.000358582H4.68518V4.55571H11.313V8L15.8839 4.31794V1.33363C15.8839 0.596998 15.2703 0.000358582 14.5126 0.000358582Z" fill="#FFBA00"/>
</g>
<defs>
<clipPath id="clip0_1223_155">
<rect width="20" height="16" fill="white"/>
</clipPath>
</defs>
</svg>
