<svg width="20" height="20" viewBox="0 0 20 20" fill="none" xmlns="http://www.w3.org/2000/svg">
<g clip-path="url(#clip0_1221_64)">
<path fill-rule="evenodd" clip-rule="evenodd" d="M0.160156 4.09997H19.8399V16.3998H0.160156V4.09997Z" fill="#DDEEFF"/>
<path fill-rule="evenodd" clip-rule="evenodd" d="M19.8399 4.09997H0.160156V1.63588C0.160156 0.732419 0.895726 0 1.80419 0H18.1959C19.1039 0 19.8399 0.731534 19.8399 1.63588V4.09997Z" fill="#BBDDFF"/>
<path fill-rule="evenodd" clip-rule="evenodd" d="M5.0801 2.86998C4.62723 2.86998 4.26012 2.50283 4.26012 2.04997C4.26012 1.5971 4.62719 1.22999 5.0801 1.22999C5.533 1.22999 5.90007 1.5971 5.90007 2.04997C5.90007 2.50283 5.533 2.86998 5.0801 2.86998ZM2.21011 2.86998C1.75725 2.86998 1.39014 2.50283 1.39014 2.04997C1.39014 1.5971 1.75725 1.22999 2.21011 1.22999C2.66298 1.22999 3.03013 1.5971 3.03013 2.04997C3.03013 2.50283 2.66298 2.86998 2.21011 2.86998Z" fill="white"/>
<path fill-rule="evenodd" clip-rule="evenodd" d="M3.44011 16.3998H0.160156C0.160156 13.8816 1.12085 11.3633 3.04217 9.44195C6.88491 5.59924 13.1152 5.59924 16.9579 9.44195L14.6386 11.7612C13.4515 10.5742 11.8115 9.83989 10 9.83989C6.37708 9.83989 3.44011 12.7769 3.44011 16.3998Z" fill="#0066FF"/>
<path fill-rule="evenodd" clip-rule="evenodd" d="M16.56 16.3998H19.84C19.84 13.8816 18.8793 11.3633 16.958 9.44195L14.6387 11.7612C15.8258 12.9484 16.56 14.5883 16.56 16.3998Z" fill="#CC66FF"/>
<path fill-rule="evenodd" clip-rule="evenodd" d="M7.68078 18.7191C6.39986 17.4382 6.39986 15.3615 7.68078 14.0805C8.96169 12.7996 16.0882 10.3117 16.0882 10.3117C16.0882 10.3117 13.6003 17.4382 12.3194 18.7191C11.0384 20 8.96169 20 7.68078 18.7191Z" fill="#66CCFF"/>
<path fill-rule="evenodd" clip-rule="evenodd" d="M10.0001 18.0398C9.09437 18.0398 8.36011 17.3056 8.36011 16.3998C8.36011 15.4941 9.09437 14.7598 10.0001 14.7598C10.9058 14.7598 11.6401 15.4941 11.6401 16.3998C11.6401 17.3056 10.9058 18.0398 10.0001 18.0398Z" fill="#0066FF"/>
</g>
<defs>
<clipPath id="clip0_1221_64">
<rect width="20" height="20" fill="white"/>
</clipPath>
</defs>
</svg>
