<svg width="18" height="20" viewBox="0 0 18 20" fill="none" xmlns="http://www.w3.org/2000/svg">
<g clip-path="url(#clip0_1218_41)">
<path d="M18 17.4972C18.0074 18.8704 16.9041 19.9885 15.5368 19.9959C15.4351 19.9967 15.3327 19.991 15.2319 19.9786C13.9629 19.7902 13.0334 18.682 13.0645 17.3952V2.60069C13.0342 1.31227 13.9662 0.204043 15.236 0.0172809C16.5942 -0.142331 17.8246 0.83344 17.9836 2.19672C17.9951 2.2971 18.0008 2.39747 18 2.49867V17.4972Z" fill="#F9AB00"/>
<path d="M2.46815 15.0455C3.83132 15.0455 4.93629 16.1545 4.93629 17.5227C4.93629 18.8909 3.83132 20 2.46815 20C1.10497 20 0 18.8909 0 17.5227C0 16.1545 1.10497 15.0455 2.46815 15.0455ZM8.96188 7.53795C7.59215 7.61364 6.52981 8.7663 6.56177 10.1427V16.7963C6.56177 18.6022 7.35361 19.6981 8.5135 19.9317C9.85209 20.204 11.1562 19.3361 11.4276 17.9925C11.4612 17.828 11.4776 17.661 11.4768 17.4931V10.0276C11.4792 8.65441 10.3726 7.5396 9.00451 7.53713C8.99057 7.53713 8.97582 7.53713 8.96188 7.53795Z" fill="#E37400"/>
</g>
<defs>
<clipPath id="clip0_1218_41">
<rect width="18" height="20" fill="white"/>
</clipPath>
</defs>
</svg>
