<svg width="15" height="20" viewBox="0 0 15 20" fill="none" xmlns="http://www.w3.org/2000/svg">
<g clip-path="url(#clip0_1210_27)">
<path d="M9.81885 5.07998H15L9.81885 0.001091V5.07998Z" fill="#188038"/>
<path d="M9.81888 5.07998V0.001091H1.14395C0.51001 0.001091 0 0.501036 0 1.12246V18.8775C0 19.499 0.51001 19.9989 1.14395 19.9989H13.8561C14.49 19.9989 15 19.499 15 18.8775V5.07998H9.81888Z" fill="#34A853"/>
<path d="M2.85986 7.84603V14.7191H12.1401V7.84603H2.85986ZM6.92564 13.5977H4.00381V11.8409H6.92564V13.5977ZM6.92564 10.7242H4.00381V8.9674H6.92564V10.7242ZM10.9962 13.5977H8.07435V11.8409H10.9962V13.5977ZM10.9962 10.7242H8.07435V8.9674H10.9962V10.7242Z" fill="white"/>
</g>
<defs>
<clipPath id="clip0_1210_27">
<rect width="15" height="20" fill="white"/>
</clipPath>
</defs>
</svg>
