<svg width="20" height="21" viewBox="0 0 20 21" fill="none" xmlns="http://www.w3.org/2000/svg">
<g clip-path="url(#clip0_991_89)">
<mask id="mask0_991_89" style="mask-type:luminance" maskUnits="userSpaceOnUse" x="0" y="0" width="21" height="21">
<path d="M20.16 0.828125H0.160034V20.8281H20.16V0.828125Z" fill="white"/>
</mask>
<g mask="url(#mask0_991_89)">
<path d="M3.22755 15.8218L2.52832 15.4181L10.3178 1.92676L11.017 2.33046L3.22755 15.8218Z" fill="#E535AB"/>
<path d="M2.36816 14.3398H17.947V15.1472H2.36816V14.3398Z" fill="#E535AB"/>
<path d="M10.4689 19.2921L2.67651 14.7931L3.08021 14.0939L10.8726 18.5929L10.4689 19.2921ZM17.2381 7.56644L9.44571 3.06739L9.84941 2.36816L17.6418 6.86722L17.2381 7.56644Z" fill="#E535AB"/>
<path d="M3.08229 7.56346L2.67859 6.86429L10.4709 2.36523L10.8746 3.06441L3.08229 7.56346Z" fill="#E535AB"/>
<path d="M17.0943 15.8218L9.30484 2.33046L10.0041 1.92676L17.7935 15.4181L17.0943 15.8218ZM2.98584 6.32936H3.79324V15.3275H2.98584V6.32936Z" fill="#E535AB"/>
<path d="M16.5269 6.3291H17.3343V15.3272H16.5269V6.3291Z" fill="#E535AB"/>
<path d="M10.3314 18.9505L9.97876 18.3397L16.756 14.4268L17.1087 15.0375L10.3314 18.9505Z" fill="#E535AB"/>
<path d="M18.4043 15.5898C17.9373 16.402 16.8965 16.6793 16.0842 16.2124C15.2719 15.7454 14.9947 14.7046 15.4616 13.8923C15.9286 13.08 16.9694 12.8028 17.7817 13.2697C18.5988 13.7415 18.8761 14.7775 18.4043 15.5898ZM4.85361 7.76387C4.38668 8.57613 3.34582 8.85337 2.53356 8.38644C1.72129 7.91951 1.44406 6.87865 1.91098 6.06639C2.37791 5.25412 3.41877 4.97689 4.23104 5.44381C5.0433 5.91561 5.32054 6.9516 4.85361 7.76387ZM1.91585 15.5898C1.44892 14.7775 1.72616 13.7415 2.53842 13.2697C3.35068 12.8028 4.38668 13.08 4.85847 13.8923C5.3254 14.7046 5.04816 15.7406 4.2359 16.2124C3.41877 16.6793 2.38278 16.402 1.91585 15.5898ZM15.4665 7.76387C14.9996 6.9516 15.2768 5.91561 16.0891 5.44381C16.9013 4.97689 17.9373 5.25412 18.4091 6.06639C18.8761 6.87865 18.5988 7.91465 17.7866 8.38644C16.9743 8.85337 15.9334 8.57613 15.4665 7.76387ZM10.1601 20.3515C9.22133 20.3515 8.46258 19.5927 8.46258 18.654C8.46258 17.7153 9.22133 16.9565 10.1601 16.9565C11.0988 16.9565 11.8575 17.7153 11.8575 18.654C11.8575 19.5879 11.0988 20.3515 10.1601 20.3515ZM10.1601 4.69965C9.22133 4.69965 8.46258 3.94089 8.46258 3.00217C8.46258 2.06345 9.22133 1.30469 10.1601 1.30469C11.0988 1.30469 11.8575 2.06345 11.8575 3.00217C11.8575 3.94089 11.0988 4.69965 10.1601 4.69965Z" fill="#E535AB"/>
</g>
</g>
<defs>
<clipPath id="clip0_991_89">
<rect width="20" height="21" fill="white"/>
</clipPath>
</defs>
</svg>
