<svg width="20" height="21" viewBox="0 0 20 21" fill="none" xmlns="http://www.w3.org/2000/svg">
<mask id="mask0_991_124" style="mask-type:luminance" maskUnits="userSpaceOnUse" x="1" y="0" width="18" height="21">
<path d="M18.6486 0.828125H1.35135V20.8281H18.6486V0.828125Z" fill="white"/>
</mask>
<g mask="url(#mask0_991_124)">
<path d="M4.11491 9.63424C3.54425 9.90204 2.03385 11.1075 1.74294 11.4647C1.44083 11.8219 1.35135 11.2638 1.66461 10.3374C1.9107 9.58958 2.53733 8.57384 3.58901 7.70326C4.20433 7.20097 5.55818 6.4755 6.38608 6.0513C6.55394 5.96198 8.72448 5.04674 10.6601 4.58912C10.828 4.54446 10.4587 4.86815 10.4027 5.04674C10.1118 5.89502 4.30502 9.53374 4.30502 9.53374L4.11491 9.63424ZM12.2936 19.8695C12.3943 20.4722 12.3048 20.5169 11.6783 20.595C11.0517 20.6731 10.593 20.4387 10.4252 20.2825C10.2573 20.1262 10.2238 19.7802 10.3916 19.4677C10.4923 19.2667 10.593 19.1998 10.649 18.9542C10.7049 18.7199 10.7497 18.664 10.7944 18.5748C10.8391 18.4966 10.8504 18.4184 10.8615 17.8715C10.8727 17.3246 10.8615 16.2977 10.9175 15.8625C10.9735 15.416 12.9091 16.0633 12.9091 16.0633C12.9091 16.0633 12.4503 17.2018 12.3273 17.4809C12.2042 17.76 12.2154 18.2957 12.2154 18.4073C12.2154 18.5189 12.1706 18.7421 12.137 18.7533C12.1035 18.7644 12.2489 19.0546 12.1817 19.2221C12.137 19.3784 12.2824 19.7802 12.2936 19.8695ZM13.0321 2.80324C12.9649 2.3791 13.0321 1.54189 13.1215 1.40802C13.4013 1.02849 14.8781 0.983881 15.1914 1.43032C15.3257 1.63121 15.3145 2.10001 15.2921 2.40141C15.2698 2.70274 15.1914 3.35013 15.1802 3.56225C15.1691 3.71854 13.5467 3.96403 13.1887 3.5399C13.088 3.42833 13.0321 2.80324 13.0321 2.80324ZM16.3214 18.7868C17.0039 19.2779 17.5298 19.3672 17.8766 19.5458C18.2234 19.7244 18.134 20.0704 17.5521 20.1709C17.0822 20.2601 16.3438 20.0815 15.8515 20.0815C15.3592 20.0815 14.2627 20.1374 13.9718 19.9365C13.6362 19.7021 13.7816 19.2667 13.7816 19.2667C13.8712 19.0213 14.0949 18.4743 14.0278 18.0278C13.9606 17.5814 13.8711 17.3358 13.7033 16.9228C13.5355 16.5098 13.4124 15.4942 13.5691 15.4383C13.7258 15.3825 13.6809 15.4383 13.8824 15.4829C14.0837 15.5275 14.3075 15.5945 14.7439 15.5945C15.1802 15.5945 15.6613 15.5275 15.8292 15.4941C15.997 15.4606 16.1312 15.4271 16.0753 15.7731C16.0193 16.1191 15.8515 16.7665 15.8403 17.2688C15.8292 17.7711 15.8292 18.3515 15.8627 18.452C15.8962 18.5524 16.1424 18.664 16.3214 18.7868Z" fill="#010101"/>
<path d="M13.9271 3.91856C12.6964 4.97896 10.3133 5.26912 6.77779 6.63085C5.87151 6.97685 3.45483 8.0149 2.87302 9.0976C4.83098 7.97029 5.55824 9.52174 5.71485 11.1179C5.86025 12.6135 6.60992 13.3949 8.53432 13.3502C10.5147 13.3056 11.1189 14.4552 11.6671 15.8058C12.7299 10.6379 14.4306 9.63337 15.527 8.75161C17.8543 6.86523 14.99 3.53902 13.9271 3.91856Z" fill="#8AC640"/>
<path d="M13.9271 3.91895C10.9734 4.94581 8.0532 5.20254 4.6184 7.31211C3.80165 7.8144 2.07862 8.95283 1.74295 11.1294C2.996 9.74533 5.89381 8.00416 9.44055 6.89915C11.2307 6.34103 12.5398 5.97273 14.1285 5.35883C14.0167 4.64442 14.0167 4.36539 13.9271 3.91895Z" fill="#8AC640"/>
<path d="M17.6976 10.0354C17.6976 10.0354 17.485 10.7609 17.0599 10.9953C17.0599 10.9953 16.7466 11.107 16.1201 10.761C15.9411 10.6605 15.8068 10.3145 15.818 10.2028C15.8292 9.93494 15.997 9.81219 15.997 9.81219C15.997 9.81219 16.176 9.5108 16.3886 9.52198C16.6012 9.5331 16.9592 9.56658 17.0711 9.46614C17.1718 9.35451 17.72 9.66703 17.6976 10.0354ZM13.1327 3.01467C13.1327 3.01467 13.088 3.58397 13.0097 3.9411C12.9985 4.00811 12.6629 4.04154 12.4167 4.14204C12.8866 5.48142 15.7173 5.47024 16.0865 4.81173C15.9075 4.68898 15.5495 4.49922 15.3817 4.43225C15.2138 4.36523 15.225 4.37641 15.2138 4.0639C15.2026 3.75133 15.1802 3.17096 15.1578 3.01467C15.1355 2.85839 13.4012 2.85839 13.1327 3.01467Z" fill="#010101"/>
<path d="M13.2446 3.01532C13.2446 3.01532 13.2446 3.33902 13.2111 3.65153C13.1999 3.79664 13.1887 3.88591 13.1664 3.99753C13.1552 4.06455 13.5467 4.33235 13.6586 4.92395C14.1957 6.11823 15.4376 5.52668 15.9523 4.95743C15.7733 4.83463 15.4824 4.66722 15.1467 4.53329C14.9789 4.46628 15.0572 4.32122 15.046 4.00871C15.0348 3.69619 14.9901 3.23852 14.9677 3.07111C14.9453 2.9037 13.5132 2.85904 13.2446 3.01532Z" fill="#F0EFEF"/>
<path d="M13.1327 3.01467C13.1327 3.01467 13.1215 3.21562 13.088 3.44999C13.2334 3.59504 13.4236 3.79599 13.5692 3.91879C13.6698 4.00811 13.9159 3.99694 14.1398 3.99694C14.3411 3.99694 14.5201 4.01924 14.5985 3.97463C14.7775 3.88531 15.0348 3.66212 15.1803 3.49465C15.1691 3.29376 15.1579 3.104 15.1468 3.01467C15.1355 2.85839 13.4012 2.85839 13.1327 3.01467Z" fill="#010101"/>
<path d="M14.1509 3.86276C14.0166 3.86276 13.8599 3.85164 13.7369 3.82928C13.6809 3.81815 13.625 3.78467 13.5802 3.76231C13.5019 3.70648 13.4236 3.63957 13.3342 3.57255C13.1551 3.43862 13.1439 3.36048 13.1439 3.32705C13.2223 2.62382 13.1215 2.03228 13.1215 2.03228C13.1215 2.03228 13.0432 1.73089 13.4683 1.65274C13.8935 1.5746 14.1508 1.56348 14.1508 1.56348C14.1508 1.56348 14.4194 1.56348 14.8333 1.65274C15.2585 1.73089 15.1802 2.03228 15.1802 2.03228C15.1802 2.03228 15.0795 2.62382 15.1578 3.32705C15.1578 3.36048 15.1467 3.43862 14.9676 3.57255C14.8109 3.68417 14.6879 3.80692 14.5649 3.82928C14.4418 3.85164 14.2851 3.86276 14.1509 3.86276Z" fill="#010101"/>
<path d="M14.1509 1.27344C13.4125 1.27344 13.267 1.47433 13.0544 1.69758C13.0097 1.75336 13.0432 2.08823 13.1216 2.80259H13.2223C13.2223 2.80259 13.1551 2.60164 13.1663 2.36727C13.1775 2.13289 13.2223 2.14407 13.1887 2.08823C13.1439 2.02122 13.0544 1.90959 13.2558 1.79802C13.4572 1.6864 13.7705 1.88729 14.1509 1.89847C14.5313 1.88729 14.8558 1.6864 15.0571 1.79802C15.2585 1.90959 15.169 2.02122 15.1243 2.08823C15.0795 2.1552 15.1355 2.13284 15.1467 2.36727C15.1578 2.60164 15.0907 2.80259 15.0907 2.80259H15.1914C15.2585 2.08823 15.3033 1.77572 15.2697 1.71988C15.0795 1.47433 14.8893 1.28456 14.1509 1.27344ZM17.6976 10.0688C17.6976 10.0688 17.485 10.7497 17.0711 10.9841C16.9815 10.9395 16.9927 10.8725 16.9144 10.772C16.892 10.7386 16.8137 10.7162 16.7802 10.6828C16.7466 10.6493 16.7578 10.5934 16.7018 10.5488C16.6571 10.5042 16.6235 10.5376 16.5787 10.5042C16.534 10.4596 16.5228 10.4037 16.4893 10.3703C16.4668 10.3479 16.3774 10.3368 16.355 10.3145C16.299 10.2586 15.8068 10.1582 15.8292 10.0465C15.8739 9.87908 15.9634 9.75633 15.9634 9.75633C15.9634 9.75633 16.176 9.44382 16.3885 9.45494C16.6011 9.46612 16.8025 9.51078 16.9144 9.41034C17.0375 9.29866 17.7312 9.71167 17.6976 10.0688Z" fill="#010101"/>
<path d="M16.2431 5.13537C16.2431 5.13537 16.948 4.96791 17.4291 5.42558C17.9102 5.89438 17.8766 6.47475 17.7312 6.83193C17.8543 6.97703 18.078 7.37882 17.9102 7.85879C18.6486 8.48382 18.3242 9.44378 17.6641 10.08C17.6641 10.08 17.5074 9.49957 16.8809 9.46608C16.9033 9.24289 16.2991 9.06425 16.5788 8.48382C16.1536 8.38338 16.1648 8.09317 16.0977 7.73605C16.0417 7.37882 16.2431 5.13537 16.2431 5.13537Z" fill="#010101"/>
<path d="M15.9858 5.44832C15.9858 5.44832 16.8025 5.03536 17.2837 5.50416C17.7647 5.97296 17.6304 6.48637 17.485 6.84354C17.6081 6.98859 17.899 7.40166 17.72 7.89271C17.6864 8.00434 17.4403 8.00434 17.2612 8.29455C17.7087 8.03776 17.9885 8.10478 18.0891 8.42842C18.2458 8.9307 17.8989 9.53343 17.5969 9.8683C17.5969 9.85712 17.5857 9.84594 17.5857 9.83482C17.5409 10.0023 17.485 10.3259 17.1494 10.6831C16.9815 10.8617 16.8472 10.8394 16.657 10.7947C16.4333 10.7389 16.355 10.6384 16.0417 10.471C15.8627 10.3706 15.9634 10.2478 15.9634 10.1473C15.9634 10.125 15.9857 10.0915 16.0193 10.0469C16.0417 9.99105 16.1088 9.90184 16.2095 9.80134C16.2095 9.80134 16.355 9.60045 16.5676 9.61157C16.7802 9.62275 17.0039 9.57814 17.0599 9.5223C17.0599 9.13165 16.6124 9.12047 16.769 8.45078C16.7802 8.4173 16.8361 8.36146 17.0151 8.33915C16.7466 8.28331 16.6235 8.27213 16.4333 8.0936C16.299 7.97085 16.1984 7.81457 16.1647 7.61368C16.0977 7.26768 15.9858 5.44832 15.9858 5.44832Z" fill="#F0EFEF"/>
<path d="M13.625 4.7446C13.5579 4.65528 13.2111 4.20884 12.5509 4.03025C12.3607 3.97441 12.2377 4.13069 12.0475 4.24232C11.9915 4.20884 11.7454 4.09721 11.6111 4.1753C11.4769 4.25339 11.3874 4.33158 11.2531 4.38737C11.1859 4.35389 11.007 4.35389 10.8615 4.40967C10.7161 4.45433 10.4923 4.55478 10.2797 4.84499C10.1454 5.32497 12.6516 4.96774 12.6516 4.96774L13.625 4.7446Z" fill="#010101"/>
<path d="M13.6474 4.74504C13.2893 4.62224 13.3453 4.20928 12.5509 4.14231C12.3943 4.13114 12.2936 4.25388 12.1817 4.33203C12.2377 4.38787 12.2936 4.47713 12.3271 4.5664C12.2265 4.45483 12.0474 4.30967 11.8684 4.27619C11.7006 4.24276 11.5887 4.36551 11.4097 4.45483C11.4432 4.48826 11.4768 4.5441 11.5215 4.61111C11.3648 4.51067 11.253 4.47719 11.0404 4.55528C10.895 4.59988 10.6153 4.72268 10.4027 5.02408C10.2684 5.50405 12.6628 4.96824 12.6628 4.96824L13.6474 4.74504Z" fill="#8AC640"/>
<path d="M15.7508 4.92356C15.7508 4.92356 15.7508 4.80076 15.7396 4.68919C15.7396 4.66689 15.6501 4.61105 15.6501 4.58874L15.6278 4.56639C15.6278 4.56639 15.8068 4.46594 15.9411 4.52178C16.0865 4.56639 16.1648 4.75615 16.1648 4.75615C16.4221 4.66689 16.4445 4.76733 16.5676 4.90126C16.8361 4.84542 16.8696 4.94586 17.0375 5.19147C17.0375 5.19147 16.8361 5.15799 16.4445 5.2249C16.0641 5.28068 15.7508 4.91238 15.7508 4.92356Z" fill="#010101"/>
<path d="M15.7061 4.86768C15.7061 4.86768 15.7732 4.81184 15.7508 4.80066C15.8738 4.7337 16.0417 4.65561 16.12 4.86768C16.3774 4.77836 16.4109 4.90116 16.534 5.03514C16.8472 4.89004 16.8696 5.06857 16.892 5.14671C16.7913 5.14671 16.6459 5.15789 16.4445 5.18019C16.0641 5.23603 15.6949 4.8565 15.7061 4.86768Z" fill="#8AC640"/>
<path d="M11.902 4.58887C11.902 4.58887 12.5398 4.81206 13.0768 4.77858C13.6139 4.73397 14.5313 4.68931 15.0236 4.97952C15.0236 4.97952 15.5271 4.80088 15.997 4.92369C16.467 5.04643 17.3284 5.85011 17.0711 6.69838C17.0487 6.75422 16.9033 6.84349 16.7355 6.89933C16.7355 6.89933 16.825 7.27881 16.6683 7.59132C16.5117 7.89271 16.1648 8.47314 16.1536 9.27676C16.1425 9.41068 16.1201 9.68972 16.0977 9.82364C15.225 9.79022 13.8824 9.46647 12.5622 9.48883C12.5733 9.34378 12.5845 9.25445 12.5958 9.10935H12.6293C12.5621 8.74099 12.5398 8.55123 12.4726 8.27219C12.0474 8.00434 11.5999 7.69182 11.2195 7.10022C10.8503 6.50862 11.902 4.58887 11.902 4.58887ZM16.2208 10.6162C16.2208 10.6162 16.9145 13.0941 16.0977 14.1322C16.0977 14.1322 16.2208 14.6121 15.9411 15.1255C15.8963 15.3487 15.8403 15.5497 15.8068 15.7729C15.6614 16.6993 15.4152 17.09 15.348 18.5744L14.6767 18.5633C14.6767 18.5633 14.5984 17.4918 14.3634 16.9226C14.2292 16.5989 13.7033 16.1635 13.7258 15.7283C13.7481 15.3934 13.8152 15.1144 14.3859 14.6679C14.4306 14.0205 13.7817 13.4066 13.8824 10.9957L16.2208 10.6162Z" fill="#010101"/>
<path d="M16.0194 10.5157C16.1984 11.6542 16.6123 13.3396 15.8627 14.1655C15.907 14.375 15.9107 14.5909 15.8739 14.8017C15.8515 14.9357 15.8068 15.0808 15.7508 15.237C15.6389 15.5049 15.5942 15.8956 15.5606 16.1299C15.4152 17.0564 15.4152 17.1011 15.348 18.5856L14.6767 18.5744C14.6767 18.5744 14.5984 17.5029 14.3634 16.9337C14.2292 16.61 13.9495 16.3309 13.9271 15.8956C13.9048 15.5608 14.1397 14.8911 14.6992 14.9134C14.6656 13.5629 14.039 13.8307 13.8712 11.018L16.0194 10.5157ZM11.902 4.58887C11.902 4.58887 12.1482 4.66701 12.4167 4.68931C12.6852 4.71162 12.9761 4.68931 13.2334 4.67813C13.7705 4.63353 14.5313 4.57769 15.0348 4.8679C15.0348 4.8679 15.3145 4.77858 15.6166 4.80088C15.7508 4.81206 15.8851 4.92369 16.0417 4.96835C16.534 5.09109 17.0039 5.90589 16.7913 6.6426C16.769 6.69844 16.6123 6.6426 16.4333 6.69844C16.4668 6.85472 16.4893 7.2119 16.3102 7.59138C16.12 7.97091 15.8739 8.46201 15.9186 9.39961C14.7438 9.34377 14.218 9.26569 13.0543 9.20985C12.9537 8.79683 12.8865 8.38387 12.8753 8.1718C13.032 8.09366 13.1214 8.02675 13.2446 7.89277C12.9089 7.94861 12.7746 7.92625 12.5732 7.81463C12.3718 7.703 12.0138 7.34583 11.8348 7.11145C11.8124 7.0891 11.6894 7.4574 11.4097 7.46863C11.309 7.32352 11.7341 6.91051 11.6558 6.75428C11.3761 6.18498 11.902 4.58887 11.902 4.58887Z" fill="#F0EFEF"/>
<path d="M16.1088 9.58908C16.1088 9.58908 16.1312 9.99092 16.1312 10.0914C16.1312 10.203 16.2207 10.5378 16.2319 10.6941C16.1088 10.9062 15.5718 11.3861 14.5984 11.5647C13.6362 11.7656 12.3607 10.2588 12.3607 10.2588C12.3943 10.1137 12.5062 9.68953 12.5845 9.46633C12.5957 9.44403 12.618 9.38819 12.618 9.36589C12.7188 9.22078 16.1088 9.58908 16.1088 9.58908Z" fill="#010101"/>
<path d="M15.8627 9.62278C15.8627 9.90181 15.9074 10.1028 15.9411 10.2813C15.997 10.605 16.0865 10.8171 16.0865 11.0292C16.0865 11.6765 15.2362 11.5649 14.52 11.5872C13.5578 11.7882 12.7411 10.2813 12.7411 10.2813C12.8082 10.0246 12.853 9.73446 12.9537 9.48885C12.9648 9.35493 12.9872 9.18752 12.9984 9.10938C14.3634 9.10938 15.3256 9.18752 15.885 9.24325C15.9074 9.36605 15.8851 9.57812 15.8627 9.62278Z" fill="#F0EFEF"/>
<path d="M14.7886 11.0623C14.7886 11.0623 14.1956 9.74521 12.4166 10.1359C11.9915 11.3302 11.4209 12.7031 11.7901 14.1876C11.4209 14.6899 10.9957 14.969 10.9957 15.8953C10.9957 16.8218 11.0405 16.978 11.0405 16.978L12.3495 17.0451C12.3495 17.0451 12.7746 16.4982 12.9425 15.9066C12.9872 15.7391 13.032 15.4378 12.9984 15.0918C13.0431 15.0248 13.2334 14.8686 13.2558 14.5672C13.2558 14.5672 13.8935 14.2324 14.2627 13.4176C14.6096 12.6808 14.5201 12.0445 14.7886 11.0623Z" fill="#010101"/>
<path d="M14.7886 11.0624C14.7551 10.9396 14.3075 9.73415 12.6516 10.0913C11.6783 12.6808 12.0363 13.7523 12.1817 14.2211C11.5215 15.0582 11.2195 15.2368 11.3538 16.9334H12.2265C12.6293 16.2972 12.7188 16.0628 12.7411 15.2257C12.7411 15.1922 12.6181 15.2926 12.5286 15.4042C12.5957 15.0582 12.7859 14.9913 12.9314 14.7792C12.9985 14.6899 13.0544 14.556 13.0544 14.3774C13.8376 13.8528 14.1285 13.1942 14.2963 12.5134C14.4306 12.0446 14.5872 11.2744 14.7886 11.0624Z" fill="#F0EFEF"/>
<path d="M12.0251 9.26562C12.0251 9.26562 12.3272 9.27675 12.5957 9.36607C12.8531 9.45534 12.8531 9.51112 12.9538 9.6228C13.0545 9.73448 13.3006 9.90183 13.2559 10.0692C13.2335 10.1586 13.1775 10.1809 13.0992 10.259C13.0657 10.2925 12.8195 10.5603 12.7635 10.5938C12.73 10.6161 12.6852 10.6497 12.6517 10.672L12.4838 10.7836C12.372 10.8394 12.2936 10.8729 12.1706 10.8617C12.1706 10.8617 11.8909 10.8506 11.7118 10.6608C11.7118 10.6608 11.6895 10.5715 11.7342 10.5269C11.7342 10.5269 11.4992 10.326 11.4321 10.192C11.3649 10.0582 11.3649 9.86841 11.4098 9.76796C11.4321 9.66741 11.8684 9.38837 12.0251 9.26562ZM12.3048 20.1259L12.2713 20.405C12.2713 20.405 12.1706 20.5278 11.421 20.5167C10.6601 20.5055 10.4588 20.2711 10.3916 20.1483L10.3469 19.8581C10.3469 19.8581 10.4924 19.646 10.5259 19.646C10.7721 19.6683 11.6112 20.0032 12.193 20.0925C12.2489 20.0925 12.26 20.1148 12.3048 20.1259ZM13.9271 19.5567C13.9271 19.6794 13.9159 19.6794 13.9159 19.8023C14.0502 19.9027 14.3859 19.9585 15.0236 19.9473C15.9522 19.925 16.8137 20.2264 17.8654 20.0477L17.8766 19.8469L17.7759 19.8357L14.0502 19.5343L13.9271 19.5567Z" fill="#010101"/>
<path d="M14.7439 19.9472H15.0236C15.6278 19.9249 16.1984 20.0588 16.8137 20.0923C17.1382 20.0811 17.541 20.003 17.5074 19.7686L14.3299 19.5007C14.1397 19.7127 14.2851 19.8913 14.7439 19.9472ZM11.0964 15.2481C11.1971 15.3151 11.8796 15.7169 12.9873 15.6611C12.9649 15.8731 12.9761 16.2861 12.4838 17.0116C12.2377 17.3688 12.025 17.9939 11.9803 18.7864C11.9915 18.965 12.0922 19.1212 11.958 19.3556C12.0027 19.5007 12.1817 19.7909 12.2712 19.9695C12.3607 20.1481 12.4055 20.349 11.8124 20.3602C11.2083 20.3713 10.2349 20.3043 10.3692 19.8356C10.4364 19.5901 10.6265 19.3333 10.6489 19.2328C10.6713 19.1324 10.6713 18.831 10.8615 18.6301C11.0293 18.072 10.9733 17.5363 10.9398 17.034C10.8839 16.5093 10.8727 15.6722 11.0964 15.2481ZM12.137 6.1513C12.9314 5.0909 12.26 4.24268 10.9846 4.49935C10.4699 4.5998 9.95528 4.95703 9.92166 5.60436C9.75385 5.62667 9.37347 5.64897 9.18325 6.34102C9.03785 6.87678 8.95952 6.97722 8.70212 7.24508C8.53431 7.43485 8.71333 7.8255 8.83637 8.10459C9.25037 9.06449 10.5258 9.15376 11.3873 9.87929C11.6783 9.80115 11.9803 9.47751 12.0698 9.26544C11.3426 8.40593 11.4992 8.07111 11.2083 7.62467C11.5216 7.51299 12.2377 7.07772 12.137 6.1513Z" fill="#010101"/>
<path d="M11.9803 6.084C12.025 6.01698 12.1034 5.87193 12.137 5.81609C12.1482 5.80491 12.2712 6.01698 12.2824 6.00586C12.5845 5.5147 12.6628 4.80035 12.3159 4.73338C12.2376 4.7222 12.0922 4.68878 11.9691 4.64406C11.7454 4.56592 11.544 4.56592 11.1859 4.63294C10.6937 4.7222 10.2014 5.07938 10.2014 5.59284C10.2014 5.62632 10.5481 5.72677 10.6489 6.13978C10.481 5.90536 10.1901 5.64863 9.84329 5.87187C9.47405 6.10625 9.66427 6.64201 9.17199 7.20008C9.00413 7.38984 9.02654 7.61309 9.2055 8.05953C9.49641 8.76276 10.8726 9.14224 11.6222 9.81193C11.8012 9.73379 11.9243 9.5552 12.0138 9.42127C11.5103 8.89669 11.3089 8.40553 11.1635 8.04835C10.9845 7.63539 10.7831 7.40102 10.3915 7.0884C10.5929 7.16654 10.7496 7.24468 10.839 7.31165C10.9397 7.37861 11.0851 7.38979 11.2194 7.34513C11.7006 7.17783 11.958 6.50808 11.9803 6.084Z" fill="#F0EFEF"/>
<path d="M16.8473 6.2629C16.8137 6.68704 16.5005 6.47497 16.3326 6.39683C15.997 6.25172 15.6613 6.15128 15.2697 6.15128C14.8781 6.15128 14.3746 6.18476 13.9383 6.29639C13.3342 6.46379 13.1551 6.45267 12.8866 6.31869C12.6181 6.17358 12.1482 5.81641 12.1482 5.81641C12.1482 5.81641 12.137 5.92803 12.2489 6.07314C12.3943 6.25172 12.7188 6.47497 13.1551 6.62002C13.3677 6.68704 13.5356 6.64233 13.7258 6.59772C14.7216 6.35217 15.7732 6.30751 16.6571 6.84327C16.7019 6.86558 16.8585 6.79861 16.9257 6.69817C17.0151 6.55312 16.8473 6.2629 16.8473 6.2629Z" fill="#010101"/>
<path d="M11.7566 10.5156C11.8461 10.5715 11.958 10.6049 12.081 10.7054C12.081 10.7054 11.9803 10.7054 11.9356 10.6608C11.8796 10.6273 11.7677 10.5269 11.7566 10.5156Z" fill="#0A1825"/>
<path d="M14.99 1.66483C14.9564 1.56438 14.7102 1.38574 14.1397 1.38574C13.5243 1.38574 13.3453 1.57551 13.3342 1.67595C13.3342 1.70944 13.2894 2.06667 13.2782 2.21172C13.2782 2.21172 13.2782 2.39031 13.2893 2.65816C13.3005 2.83675 13.3453 2.93719 13.3677 3.17162C13.39 3.41712 13.4572 3.5734 13.5802 3.77435C13.6362 3.80777 13.6809 3.84131 13.7369 3.85249C13.9607 3.8971 14.3523 3.90827 14.5649 3.85249C14.6879 3.81901 14.8446 3.60694 14.8781 3.41717C14.9228 3.1828 14.9676 3.01534 14.9788 2.87028C15.0012 2.72523 15.0124 2.40148 15.0235 2.31216C15.0571 2.06667 15.0012 1.68713 14.99 1.66483Z" fill="#F0EFEF"/>
<path d="M13.8152 15.46C13.8152 15.46 14.4083 15.7167 15.8739 15.4934C15.8739 15.4934 15.46 17.5695 15.6502 18.6075C15.6502 18.6075 15.8404 18.8754 17.2501 19.3888C17.2501 19.3888 17.8767 19.5451 17.8543 19.8577C17.8543 19.8577 17.8767 19.9247 17.1159 19.9023C16.3551 19.8799 15.639 19.746 15.1355 19.746C14.632 19.746 14.095 19.7683 14.0055 19.6233C13.9048 19.4893 14.0279 19.1433 14.1733 18.9423C14.33 18.7303 14.2852 18.574 14.2741 18.1946C14.2404 17.2012 13.4796 16.1743 13.8152 15.46Z" fill="#010101"/>
<path d="M13.6921 15.6503C13.6138 15.7619 13.7033 16.186 13.8152 16.599C13.9271 17.012 14.1733 17.2576 14.2292 17.9384C14.2851 18.6081 14.2963 18.6974 14.1061 19.088C13.9159 19.4786 13.8599 19.8358 14.52 19.847C15.1801 19.8582 15.5382 19.8358 16.2095 19.9363C16.8808 20.0368 17.1158 20.0703 17.485 20.0145C17.8542 19.9587 17.9325 19.8358 17.7759 19.7243C17.6193 19.6126 16.9703 19.4899 16.6906 19.2666C16.4221 19.0657 15.6613 18.7308 15.6501 18.6416C15.6166 18.3402 15.6054 17.2463 15.6613 16.8892C15.7173 16.5319 15.7955 16.0185 15.818 15.8846C15.8404 15.7507 15.9522 15.6167 15.762 15.6613C15.5718 15.706 14.8558 15.8065 14.3187 15.773C13.7817 15.7395 13.7257 15.6167 13.6921 15.6503Z" fill="#8AC640"/>
<path opacity="0.3" d="M14.0726 19.0991C14.2627 19.1883 14.5425 19.2554 14.7551 19.2554C14.7551 19.2554 14.6767 19.6237 14.7998 19.8469C14.9228 20.0702 13.9047 19.9362 13.9047 19.9362L13.86 19.1437L14.0726 19.0991ZM17.0375 20.059C17.2165 20.0031 17.3396 19.8022 17.1942 19.6125C17.0375 19.4228 16.9033 19.3893 17.1046 19.3782C17.3061 19.367 18.0445 19.8134 18.0445 19.8134L17.664 20.1594L17.0375 20.059ZM13.6586 16.0854C13.9159 16.1747 14.3075 16.197 14.6432 16.1858C14.9788 16.1747 15.4823 16.13 15.8068 16.0184C16.1312 15.9068 15.997 16.1412 15.997 16.1412L15.818 16.3086C15.818 16.3086 15.3928 16.476 14.6992 16.4649C13.8824 16.4537 13.6362 16.3645 13.6362 16.3645L13.6586 16.0854ZM13.6809 16.6435C13.9383 16.7328 14.3299 16.7551 14.6655 16.744C15.0012 16.7328 15.4487 16.7328 15.7732 16.61C15.9074 16.5654 15.8292 16.7551 15.8292 16.7551L15.7732 16.8556C15.7732 16.8556 15.3368 17.0119 14.6543 17.0006C13.8376 16.9895 13.6921 16.9225 13.6921 16.9225L13.6809 16.6435Z" fill="#010101"/>
<path d="M12.9425 8.81934C12.9425 8.89748 13.8152 9.33274 14.2963 9.42206C14.7774 9.51133 15.7844 9.42206 15.941 9.38858L15.9186 9.54487C15.9186 9.54487 14.7215 9.72345 13.804 9.4779C12.8865 9.23235 12.9873 9.17651 12.9873 9.17651L12.9425 8.81934Z" fill="#010101"/>
<path d="M11.074 18.3401C11.2083 18.4071 11.6894 18.5299 12.0027 18.4629C12.0474 18.4517 12.0027 17.6927 12.1258 17.3467C12.3048 16.8668 12.5957 16.4761 12.7299 15.6279C12.26 15.5832 11.723 15.4604 11.4432 15.3711C11.0852 16.465 11.2083 17.4025 11.074 18.3401ZM11.8237 19.0434C11.902 19.0657 11.958 19.1549 11.9804 19.0992C12.0251 18.9987 11.902 18.809 11.8908 18.6751V18.6639C11.7901 18.5746 11.1076 18.5634 11.1524 18.608C11.0741 18.7531 10.951 18.7308 10.9063 19.021C10.884 19.1661 11.063 19.0433 11.2307 19.0322C10.9287 19.2331 10.5819 19.4898 10.5259 19.713C10.4588 20.0256 10.5707 20.1149 10.9063 20.2823C11.1972 20.3493 11.5441 20.3605 11.8126 20.3493C12.1147 20.2935 12.1706 20.1484 12.0811 19.9475C11.9467 19.6461 11.8573 19.2554 11.8237 19.0434Z" fill="#F0EFEF"/>
<path d="M11.9467 4.54395C12.316 4.75601 12.8307 4.70023 13.0208 4.68905C13.0656 4.68905 13.5132 4.61091 13.5355 4.62203C13.5802 4.63321 13.5802 4.66669 13.5802 4.66669C13.5802 4.66669 13.4124 4.75596 13.032 4.77826C12.674 4.80057 12.2489 4.77826 12.0139 4.66669C11.7342 4.54395 11.9467 4.54395 11.9467 4.54395ZM15.7508 4.75601C15.818 4.80062 16.2543 4.96808 16.4445 5.16898C16.6123 5.34762 16.5229 5.33644 16.4892 5.29178C16.4445 5.23594 16.0977 5.00157 15.9634 4.94578C15.8292 4.89 15.6613 4.7895 15.6613 4.76719C15.6613 4.74489 15.7508 4.75601 15.7508 4.75601Z" fill="#010101"/>
<path d="M11.8908 9.38842C12.2152 9.36612 12.5509 9.44426 12.7635 9.66745C12.8754 9.77908 13.0544 9.90183 13.032 10.0135C13.032 10.0469 12.9649 10.1363 12.909 10.2032C12.8754 10.2478 12.7748 10.3483 12.7411 10.3818C12.6964 10.4153 12.5398 10.5381 12.5062 10.5604C12.4726 10.5828 12.4279 10.6386 12.3943 10.6497C12.2825 10.7056 12.1594 10.6609 12.0475 10.6051C11.9357 10.5493 12.0699 10.5381 11.9468 10.4488C11.6447 10.2368 11.4769 10.0916 11.6 9.67863C11.6111 9.60049 11.7342 9.51117 11.8908 9.38842Z" fill="#F0EFEF"/>
<path opacity="0.4" d="M9.0378 6.83198C8.03083 7.23381 5.46864 8.50628 4.74142 8.89694C5.34559 9.27642 5.6253 10.1917 5.71483 11.1181C5.72598 11.2074 5.73719 11.2855 5.74839 11.3748C5.75954 11.453 5.77075 11.5087 5.7819 11.5423C5.7819 11.5535 5.7819 11.5758 5.7931 11.5869C6.45325 9.78988 8.81395 7.89238 8.90349 7.74727C8.9482 7.68031 8.84752 7.3901 9.00418 7.11112C9.20561 6.75383 9.59726 6.59755 9.0378 6.83198ZM11.4321 15.2591C11.9467 14.2322 11.958 13.25 11.9467 12.1003C11.9467 11.6203 12.2936 10.9394 12.1146 11.1292C11.4433 11.877 9.75386 13.2834 8.53432 13.3615C10.2461 13.3057 10.9174 14.1652 11.4321 15.2591Z" fill="#010101"/>
<path d="M3.75684 9.84572C4.39457 9.3881 7.69517 7.63576 8.48956 7.39015C9.2839 7.13342 9.03776 6.83203 9.03776 6.83203C9.03776 6.83203 5.81548 8.21607 3.89108 9.4104" fill="#010101"/>
<path opacity="0.4" d="M13.1551 6.62027C12.8977 6.51983 12.6964 6.82122 12.7635 7.11143C12.8307 7.40164 13.4348 7.72528 13.4012 8.78568C13.3789 9.65632 13.1887 10.0134 13.1887 10.0134L12.7635 9.47773C12.7635 9.47773 12.6964 8.27222 12.5509 8.09364C12.4055 7.91505 11.9468 7.59136 11.7677 7.42395C11.5887 7.25648 11.9691 7.03329 11.9468 6.72072C11.9244 6.41938 12.137 5.81666 12.137 5.81666L13.1551 6.62027ZM14.7103 11.3751C14.688 12.2122 14.8782 13.4512 14.9564 14.0428C15.0348 14.6344 15.1355 14.679 14.9564 14.9469C14.7774 15.2037 14.5425 15.6278 14.5425 15.6278L13.7705 15.5608C13.7705 15.5608 14.3858 14.7795 14.4193 14.6344C14.4529 14.4893 14.1061 13.3843 14.1061 13.3843L14.7103 11.3751ZM13.2223 3.56198C13.3789 3.90792 13.5691 4.0642 13.8712 4.1647C14.0502 4.23167 14.755 4.32099 15.0348 4.00842C15.1578 3.86331 15.0795 3.47266 15.0795 3.47266L14.4418 3.98606L13.5802 3.82983L13.4796 3.5731L13.2223 3.56198Z" fill="#010101"/>
<path d="M13.2895 4.33203C13.5804 4.5218 14.3076 4.70039 14.509 4.73387C14.7104 4.77847 15.0348 4.5218 15.1915 4.45483C15.3594 4.37669 15.6503 4.33203 15.9859 4.63342C16.0195 4.6669 15.9076 4.81201 15.9076 4.81201C15.8964 4.80083 15.8292 4.80083 15.7397 4.75617C15.6502 4.71156 15.5719 4.67803 15.4376 4.68921C14.8782 4.75617 14.7887 4.94594 14.2964 4.83426C13.8042 4.72258 13.6811 4.63337 13.2 4.65567" fill="#8AC640"/>
<path d="M13.2895 4.33203C13.5804 4.5218 14.3076 4.70039 14.509 4.73387C14.7104 4.77847 15.0348 4.5218 15.1915 4.45483C15.3594 4.37669 15.6503 4.33203 15.9859 4.63342C16.0195 4.6669 15.9076 4.81201 15.9076 4.81201C15.8964 4.80083 15.8292 4.80083 15.7397 4.75617C15.6502 4.71156 15.5719 4.67803 15.4376 4.68921C14.8782 4.75617 14.7887 4.94594 14.2964 4.83426C13.8042 4.72258 13.6811 4.63337 13.2 4.65567" fill="black"/>
<path d="M13.2895 4.33203C13.5804 4.5218 14.3076 4.70039 14.509 4.73387C14.7104 4.77847 15.0348 4.5218 15.1915 4.45483C15.3594 4.37669 15.6503 4.33203 15.9859 4.63342C16.0195 4.6669 15.9076 4.81201 15.9076 4.81201C15.8964 4.80083 15.8292 4.80083 15.7397 4.75617C15.6502 4.71156 15.5719 4.67803 15.4376 4.68921C14.8782 4.75617 14.7887 4.94594 14.2964 4.83426C13.8042 4.72258 13.6811 4.63337 13.2 4.65567" stroke="#010101" stroke-width="0.1" stroke-miterlimit="10" stroke-linejoin="round"/>
<path d="M13.1887 4.36523C13.5579 4.52152 14.274 4.68893 14.4753 4.73359C14.6767 4.77825 15.0012 4.5773 15.1578 4.47686C15.4376 4.29827 15.7956 4.44338 15.9634 4.63314C16.0753 4.75589 16.1201 4.83403 16.1201 4.86752C16.1201 4.91212 15.9858 4.86752 15.9858 4.86752C15.9075 4.83403 15.818 4.82291 15.7509 4.77819C15.6614 4.73359 15.5718 4.66663 15.4376 4.67775C14.8782 4.74477 14.7663 4.93448 14.2852 4.82286C13.8041 4.71123 13.681 4.61079 13.1664 4.64421" fill="#8AC640"/>
<path d="M11.4545 14.7909C11.4321 14.7686 11.4768 14.7463 11.4545 14.7463C11.3091 14.7463 11.1076 14.6347 10.9957 14.4784C10.5146 13.7864 9.80971 13.3288 8.53425 13.3623C6.621 13.4069 5.86017 12.6256 5.71477 11.13C5.63644 10.3152 5.41266 9.52267 4.95394 9.07617L4.68539 9.24364C5.20003 9.69008 5.36789 10.4156 5.47978 11.409C5.6588 12.9047 6.86714 13.5967 8.2769 13.619C9.74259 13.6413 10.2684 13.9427 10.8166 14.6794C10.9956 14.9138 11.1971 14.9919 11.3537 15.0254L11.4545 14.7909Z" fill="#010101"/>
<path opacity="0.4" d="M16.6459 7.61328C16.6795 7.78069 16.769 8.10438 16.948 8.26061C17.0264 8.33876 17.0375 8.36106 16.9704 8.36106C16.9032 8.36106 16.4109 8.33876 16.4109 8.33876L16.2767 8.10438L16.6459 7.61328Z" fill="#010101"/>
</g>
</svg>
