<svg width="20" height="21" viewBox="0 0 20 21" fill="none" xmlns="http://www.w3.org/2000/svg">
<g clip-path="url(#clip0_991_113)">
<mask id="mask0_991_113" style="mask-type:luminance" maskUnits="userSpaceOnUse" x="0" y="0" width="20" height="21">
<path d="M20 0.828125H0V20.8281H20V0.828125Z" fill="white"/>
</mask>
<g mask="url(#mask0_991_113)">
<path d="M0 0.828125H20V20.8281H0V0.828125Z" fill="#F0DB4F"/>
<path d="M18.3631 16.0585C18.2167 15.1459 17.6217 14.3798 15.8593 13.6649C15.2471 13.3836 14.5646 13.1821 14.3612 12.7182C14.289 12.4482 14.2795 12.2961 14.3251 12.1326C14.4563 11.6022 15.0894 11.4368 15.5913 11.5889C15.9144 11.6972 16.2205 11.9463 16.4049 12.3436C17.2681 11.7847 17.2662 11.7885 17.8688 11.4045C17.6483 11.0623 17.5304 10.9045 17.3859 10.7581C16.8669 10.1782 16.1597 9.87977 15.0285 9.90258C14.8327 9.9273 14.635 9.9539 14.4392 9.97863C13.8745 10.1212 13.3365 10.4178 13.0209 10.8151C12.0741 11.8893 12.3441 13.7695 13.4962 14.5433C14.6312 15.395 16.2985 15.5889 16.5114 16.3855C16.7186 17.3608 15.7947 17.6763 14.8764 17.5642C14.1996 17.4235 13.8232 17.0794 13.4163 16.4539C12.6673 16.8874 12.6673 16.8874 11.8974 17.3303C12.0799 17.7296 12.2719 17.9102 12.578 18.2562C14.0266 19.7258 17.6521 19.6535 18.3023 17.4292C18.3289 17.3531 18.5038 16.8436 18.3631 16.0585ZM10.8726 10.0204H9.0019C9.0019 11.6364 8.99431 13.241 8.99431 14.8569C8.99431 15.8855 9.04755 16.8284 8.88025 17.1174C8.60648 17.6858 7.89736 17.6155 7.57416 17.5052C7.24526 17.3436 7.07796 17.1136 6.88405 16.7885C6.83082 16.6953 6.79089 16.6231 6.77757 16.6174C6.26998 16.9273 5.76426 17.239 5.25665 17.549C5.50952 18.068 5.88213 18.5185 6.35931 18.8113C7.07224 19.239 8.03042 19.3702 9.03234 19.1402C9.68443 18.9501 10.2471 18.5566 10.5418 17.9577C10.9677 17.1725 10.8764 16.222 10.8726 15.1706C10.8821 13.4558 10.8726 11.741 10.8726 10.0204Z" fill="#323330"/>
</g>
</g>
<defs>
<clipPath id="clip0_991_113">
<rect width="20" height="21" fill="white"/>
</clipPath>
</defs>
</svg>
