<svg width="20" height="20" viewBox="0 0 20 20" fill="none" xmlns="http://www.w3.org/2000/svg">
<g clip-path="url(#clip0_1210_23)">
<path d="M18.1828 2.14245H9.5835C9.5835 3.17198 9.99248 4.15934 10.7205 4.88733C11.4485 5.61532 12.4358 6.0243 13.4653 6.0243H15.0494V7.55376C15.0508 9.6957 16.7868 11.4318 18.9288 11.4332V2.88844C18.9288 2.47656 18.5949 2.14245 18.1828 2.14245Z" fill="#2684FF"/>
<path d="M13.9279 6.42716H5.32867C5.33 8.5691 7.066 10.3052 9.20801 10.3066H10.7921V11.8409C10.7948 13.9829 12.532 15.7177 14.6739 15.7177V7.17329C14.6739 6.76127 14.3399 6.42716 13.9279 6.42716Z" fill="url(#paint0_linear_1210_23)"/>
<path d="M9.67051 10.7094H1.07123C1.07123 12.8533 2.80926 14.5913 4.95308 14.5913H6.54213V16.1207C6.54353 18.2606 8.27652 19.9959 10.4166 20V11.4555C10.4166 11.0435 10.0825 10.7094 9.67051 10.7094Z" fill="url(#paint1_linear_1210_23)"/>
</g>
<defs>
<linearGradient id="paint0_linear_1210_23" x1="2344.42" y1="10.7045" x2="1416.73" y2="1094.84" gradientUnits="userSpaceOnUse">
<stop offset="0.18" stop-color="#0052CC"/>
<stop offset="1" stop-color="#2684FF"/>
</linearGradient>
<linearGradient id="paint1_linear_1210_23" x1="2403.03" y1="22.7974" x2="1329.93" y2="1205.25" gradientUnits="userSpaceOnUse">
<stop offset="0.18" stop-color="#0052CC"/>
<stop offset="1" stop-color="#2684FF"/>
</linearGradient>
<clipPath id="clip0_1210_23">
<rect width="20" height="20" fill="white"/>
</clipPath>
</defs>
</svg>
