<svg width="24" height="24" viewBox="0 0 24 24" fill="none" xmlns="http://www.w3.org/2000/svg">
<path d="M17 13L20.4641 11V7L17 5L13.5359 7V11M17 13L13.5359 11M17 13L17 17L9.99999 21M17 13V9M17 13L9.99999 17M13.5359 11L10.5 12.7348M9.99999 21L6.53589 18.8682M9.99999 21V17M6.53589 19V18.8682M6.53589 18.8682V15L10.5 12.7348M6.53589 18.8682L3.5 17V5M3.5 5L7 3L10.5 5M3.5 5L6.49999 7M10.5 5V12.7348M10.5 5L6.49999 7M17 9L20.5 7M17 9L13.5 7M9.99999 17L6.49999 15M6.49999 15.5V7" stroke="currentColor" stroke-linejoin="round"/>
</svg>
