<svg width="24" height="24" viewBox="0 0 24 24" fill="none" xmlns="http://www.w3.org/2000/svg">
<path fill-rule="evenodd" clip-rule="evenodd" d="M12.6387 7.15478V9.19204C13.083 8.54081 13.6954 8.01204 14.4158 7.65759C15.1362 7.30314 15.9399 7.13518 16.748 7.1702C21.0667 7.1702 22 9.76236 22 13.1342V20H18V13.9139C18 12.4624 17.6947 10.5947 15.34 10.5947C13.056 10.5947 12.6667 12.1747 12.6667 13.806V20H8.67867V7.15478H12.6387Z" fill="currentColor"/>
<path fill-rule="evenodd" clip-rule="evenodd" d="M6 3.92678C6 4.30786 5.8827 4.68039 5.66294 4.99725C5.44318 5.3141 5.13082 5.56106 4.76537 5.7069C4.39992 5.85273 3.99778 5.89089 3.60982 5.81654C3.22186 5.7422 2.86549 5.55869 2.58579 5.28922C2.30608 5.01976 2.1156 4.67644 2.03843 4.30268C1.96126 3.92892 2.00087 3.54151 2.15224 3.18943C2.30362 2.83736 2.55996 2.53644 2.88886 2.32472C3.21776 2.113 3.60444 2 4 2C4.53043 2 5.03914 2.203 5.41421 2.56434C5.78929 2.92568 6 3.41577 6 3.92678Z" fill="currentColor"/>
<path d="M6 7.1702H2V20H6V7.1702Z" fill="currentColor"/>
</svg>
