<svg width="24" height="24" viewBox="0 0 24 24" fill="none" xmlns="http://www.w3.org/2000/svg">
<path fill-rule="evenodd" clip-rule="evenodd" d="M4 4C2.89543 4 2 4.89543 2 6V18C2 19.1046 2.89543 20 4 20H20C21.1046 20 22 19.1046 22 18V6C22 4.89543 21.1046 4 20 4H4ZM9.17823 16.1372C6.89331 16.1372 5.04102 14.2849 5.04102 11.9999C5.04102 9.71503 6.89331 7.86273 9.17823 7.86273C9.53586 7.86273 9.88289 7.90811 10.2139 7.99342C9.28692 9.06802 8.72559 10.4681 8.72559 11.9999C8.72559 13.5312 9.28635 14.9314 10.2137 16.0065C9.88277 16.0918 9.5358 16.1372 9.17823 16.1372ZM10.7256 11.9999C10.7256 10.8166 11.2223 9.74834 12.0204 8.99351C12.8179 9.74768 13.3154 10.8157 13.3154 11.9999C13.3154 13.1841 12.8179 14.2521 12.0205 15.0063C11.2231 14.2521 10.7256 13.1841 10.7256 11.9999ZM15.3154 11.9999C15.3154 13.5312 14.7547 14.9314 13.8273 16.0065C14.1583 16.0918 14.5052 16.1372 14.8628 16.1372C17.1477 16.1372 19 14.2849 19 11.9999C19 9.71502 17.1477 7.86273 14.8628 7.86273C14.5045 7.86273 14.1576 7.90806 13.8271 7.99317C14.7546 9.06831 15.3154 10.4686 15.3154 11.9999Z" fill="currentColor"/>
</svg>
