<svg width="20" height="20" viewBox="0 0 20 20" fill="none" xmlns="http://www.w3.org/2000/svg">
<path d="M4.33264 0H15.6674C18.0586 0 20 1.9414 20 4.33264V15.6674C20 18.0586 18.0586 20 15.6674 20H4.33264C1.9414 20 0 18.0586 0 15.6674V4.33264C0 1.9414 1.9414 0 4.33264 0Z" fill="#FFD02F"/>
<path d="M13.8976 2.49778H11.7017L13.5306 5.71175L9.50578 2.49778H7.30986L9.32229 6.42794L5.11395 2.49778H2.91803L5.11395 7.49926L2.91803 17.5022H5.11395L9.32229 6.78307L7.30986 17.5022H9.50578L13.5306 6.0728L11.7017 17.5022H13.8976L17.9225 4.99556L13.8976 2.49778Z" fill="#050038"/>
</svg>
