<svg width="20" height="21" viewBox="0 0 20 21" fill="none" xmlns="http://www.w3.org/2000/svg">
<g clip-path="url(#clip0_991_16)">
<mask id="mask0_991_16" style="mask-type:luminance" maskUnits="userSpaceOnUse" x="0" y="0" width="20" height="21">
<path d="M20 0.828125H0V20.8281H20V0.828125Z" fill="white"/>
</mask>
<g mask="url(#mask0_991_16)">
<path d="M9.18464 1.08354C9.6784 0.800917 10.3215 0.79964 10.8149 1.08354C13.2968 2.48595 15.7795 3.88617 18.261 5.28943C18.7277 5.55234 19.0399 6.07177 19.0351 6.60957V15.047C19.0386 15.6071 18.6956 16.1389 18.2032 16.3959C15.7294 17.7906 13.2569 19.1869 10.7836 20.5816C10.2796 20.8698 9.62358 20.8476 9.13535 20.5358C8.39372 20.1059 7.65081 19.6781 6.90911 19.2486C6.75755 19.1582 6.5867 19.0863 6.47968 18.9394C6.57429 18.8118 6.74344 18.796 6.88088 18.7403C7.19046 18.6418 7.47478 18.4838 7.75918 18.3305C7.83109 18.2813 7.9189 18.3001 7.98783 18.3442C8.62202 18.7078 9.2506 19.082 9.88691 19.4421C10.0227 19.5205 10.1601 19.4164 10.2761 19.3518C12.7036 17.9798 15.1341 16.613 17.5612 15.2406C17.6512 15.1973 17.7009 15.1018 17.6936 15.0033C17.6953 12.22 17.694 9.43617 17.6944 6.65283C17.7047 6.54106 17.64 6.43829 17.539 6.39255C15.0738 5.00425 12.6099 3.61382 10.1451 2.22517C10.1024 2.19581 10.0518 2.18006 10 2.17999C9.9482 2.17991 9.89757 2.19551 9.85478 2.22475C7.39003 3.61382 4.92656 5.00553 2.4618 6.39375C2.36109 6.43957 2.29351 6.54063 2.30549 6.65283C2.30592 9.43617 2.30549 12.22 2.30549 15.0038C2.30122 15.0518 2.31177 15.1 2.33574 15.1419C2.35971 15.1838 2.39593 15.2173 2.43953 15.238C3.09727 15.611 3.75585 15.9813 4.414 16.353C4.78478 16.5526 5.24003 16.6712 5.64854 16.5183C6.00904 16.389 6.26173 16.0211 6.25485 15.6384C6.25826 12.8713 6.25315 10.1038 6.25741 7.33709C6.2484 7.21425 6.36492 7.11276 6.48436 7.12432C6.80039 7.12219 7.11684 7.12007 7.43287 7.12517C7.56478 7.12219 7.65556 7.25446 7.63925 7.37822C7.63797 10.1628 7.64265 12.9475 7.63712 15.7321C7.63797 16.4742 7.33308 17.2818 6.64663 17.6449C5.80095 18.083 4.7557 17.9901 3.92024 17.57C3.19698 17.209 2.50677 16.783 1.79634 16.3962C1.30266 16.1407 0.961308 15.6067 0.964783 15.0471V6.60957C0.959605 6.06063 1.28422 5.53177 1.76549 5.27269C4.23883 3.87687 6.71173 2.47999 9.18464 1.08354Z" fill="#8CC84B"/>
<path d="M11.3423 6.92789C12.4211 6.85846 13.5759 6.88676 14.5466 7.41818C15.2981 7.82541 15.7148 8.68009 15.7281 9.51506C15.7071 9.62768 15.5893 9.68981 15.4818 9.68208C15.1689 9.68165 14.8558 9.68633 14.5428 9.67995C14.4101 9.68506 14.3329 9.56264 14.3162 9.44527C14.2263 9.04577 14.0084 8.65009 13.6324 8.4574C13.0552 8.16839 12.3859 8.18293 11.7564 8.18896C11.2969 8.21335 10.8028 8.25314 10.4135 8.52335C10.1147 8.72803 10.0239 9.14123 10.1306 9.47399C10.2311 9.71293 10.5069 9.79002 10.7326 9.86108C12.0326 10.2011 13.4102 10.1673 14.6854 10.6147C15.2133 10.7971 15.7298 11.1517 15.9105 11.7045C16.1469 12.4453 16.0433 13.3309 15.5162 13.9256C15.0887 14.4151 14.4662 14.6814 13.8452 14.8261C13.0192 15.0103 12.162 15.015 11.3231 14.9332C10.5343 14.8433 9.71346 14.636 9.10453 14.0986C8.58382 13.6465 8.32949 12.942 8.35474 12.2621C8.36077 12.1473 8.47509 12.0672 8.58509 12.0766C8.90027 12.0741 9.21545 12.0732 9.53063 12.077C9.65651 12.068 9.74985 12.1768 9.7563 12.2955C9.81446 12.6761 9.9575 13.0756 10.2894 13.3013C10.93 13.7146 11.7337 13.6863 12.4672 13.6978C13.0749 13.6709 13.757 13.6627 14.2529 13.2611C14.5145 13.032 14.592 12.6487 14.5213 12.319C14.4447 12.0407 14.1535 11.9109 13.9035 11.8261C12.6201 11.4202 11.2272 11.5675 9.95623 11.1084C9.44027 10.926 8.94133 10.5813 8.74311 10.0512C8.46651 9.30101 8.59325 8.37307 9.17559 7.79839C9.74339 7.22676 10.563 7.00669 11.3423 6.92789Z" fill="#8CC84B"/>
</g>
</g>
<defs>
<clipPath id="clip0_991_16">
<rect width="20" height="21" fill="white"/>
</clipPath>
</defs>
</svg>
