<svg width="19" height="20" viewBox="0 0 19 20" fill="none" xmlns="http://www.w3.org/2000/svg">
<g clip-path="url(#clip0_1210_16)">
<path d="M6.78918 0.628C3.69479 0.854461 1.06421 1.06273 0.940528 1.08712C0.59375 1.14828 0.278284 1.38093 0.129944 1.68714L0 1.95657L0.0125247 8.378L0.0309204 14.7994L0.228968 15.1974C0.340516 15.4176 1.09552 16.4462 1.91863 17.505C3.54645 19.5923 3.66387 19.7088 4.28267 19.77C4.46232 19.7881 5.81147 19.727 7.27217 19.6414C8.73912 19.5497 11.0906 19.4088 12.502 19.3294C18.5299 18.9675 18.2203 18.998 18.5667 18.7042C19 18.3492 18.9691 18.9307 18.9875 11.1261C19 4.50881 18.9937 4.07446 18.8947 3.87239C18.7773 3.64593 18.5667 3.48683 15.8187 1.57681C13.9807 0.303599 13.8508 0.236242 13.0273 0.223854C12.6872 0.211853 9.87731 0.395345 6.78918 0.628ZM13.7455 1.46649C14.0054 1.58262 15.9056 2.89261 16.1839 3.14385C16.2583 3.2174 16.2829 3.27856 16.2457 3.31534C16.1592 3.38889 4.3997 4.08066 4.05958 4.0315C3.90497 4.00711 3.67601 3.91536 3.54606 3.82942C3.0075 3.46825 1.67088 2.38472 1.67088 2.30536C1.67088 2.09709 1.62743 2.09709 6.86981 1.72392C7.87257 1.65656 9.51879 1.53423 10.5215 1.45449C12.6934 1.28299 13.3435 1.28919 13.7455 1.46649ZM17.4837 4.81501C17.5702 4.90056 17.6446 5.06586 17.6692 5.22496C17.6876 5.37207 17.7002 8.11437 17.6876 11.3096C17.6692 16.7942 17.663 17.1372 17.5577 17.2963C17.4959 17.3942 17.3722 17.4984 17.279 17.529C17.0195 17.6331 4.69716 18.3249 4.44354 18.2513C4.32612 18.2207 4.16486 18.1228 4.07836 18.0372L3.92963 17.8781L3.91124 11.965C3.89871 7.81475 3.91124 5.97828 3.96094 5.81299C3.99813 5.69066 4.09089 5.54356 4.17151 5.49478C4.28306 5.42123 5.01341 5.36007 7.52618 5.21335C9.29021 5.11541 12.0194 4.95011 13.5854 4.85837C17.3103 4.63152 17.2982 4.63152 17.4837 4.81501Z" fill="black"/>
<path d="M14.1725 6.84116C13.504 6.88413 12.9098 6.9453 12.8417 6.98207C12.6374 7.0862 12.5137 7.2577 12.4891 7.45357C12.4707 7.65565 12.5325 7.68003 13.2006 7.75978L13.4914 7.79656V10.4103C13.4914 11.965 13.4668 12.9935 13.4359 12.963C13.4049 12.9262 12.5263 11.6042 11.48 10.0248C10.4342 8.43955 9.56768 7.13537 9.55516 7.12337C9.54263 7.11098 8.86199 7.14776 8.04514 7.20311C7.04238 7.27047 6.49169 7.33163 6.38014 7.3928C6.20049 7.48454 6.00244 7.80894 6.00244 8.0234C6.00244 8.15193 6.23767 8.21928 6.73279 8.21928H6.99268V15.7362L6.57192 15.8648C6.24393 15.9627 6.13239 16.0239 6.07681 16.1462C5.97778 16.3545 5.98405 16.5441 6.08307 16.5441C6.12025 16.5441 6.81968 16.5012 7.624 16.4524C9.21464 16.3607 9.3939 16.3177 9.56103 15.9933C9.61073 15.8953 9.65379 15.7912 9.65379 15.7606C9.65379 15.7362 9.43735 15.6627 9.17707 15.6015C8.91092 15.5404 8.64477 15.4792 8.58919 15.4668C8.4839 15.4362 8.47764 15.2465 8.47764 12.6142V9.79212L10.3591 12.7121C12.3333 15.7726 12.5811 16.1218 12.8844 16.2747C13.2621 16.4706 14.2214 16.3359 14.704 16.0239L14.8527 15.9321L14.8652 11.7575L14.8836 7.57668L15.2116 7.51551C15.6015 7.44196 15.7811 7.26466 15.7811 6.95846C15.7811 6.76258 15.7686 6.75019 15.5831 6.75638C15.4723 6.76142 14.8347 6.79819 14.1725 6.84116Z" fill="black"/>
</g>
<defs>
<clipPath id="clip0_1210_16">
<rect width="19" height="20" fill="white"/>
</clipPath>
</defs>
</svg>
