<svg width="16" height="20" viewBox="0 0 16 20" fill="none" xmlns="http://www.w3.org/2000/svg">
<g clip-path="url(#clip0_1218_35)">
<path d="M5.25964 18.5921L5.58292 16.5691L4.8627 16.5527H1.42358L3.81359 1.62574C3.82128 1.58029 3.8449 1.53894 3.88036 1.50888C3.91582 1.47892 3.96103 1.46249 4.00775 1.46258H9.80656C11.7317 1.46258 13.0602 1.85717 13.7538 2.63604C14.079 3.00137 14.2861 3.3832 14.3863 3.80332C14.4914 4.24421 14.4932 4.77093 14.3906 5.4134L14.3832 5.46029V5.87192L14.7084 6.05336C14.9822 6.19647 15.1998 6.36029 15.3667 6.54786C15.645 6.86025 15.8248 7.25727 15.9009 7.72796C15.9794 8.21206 15.9534 8.78811 15.8248 9.44031C15.6765 10.1905 15.4367 10.8439 15.1127 11.3786C14.8147 11.8712 14.4351 12.2798 13.9845 12.5964C13.5541 12.8972 13.0429 13.1256 12.4649 13.2718C11.9048 13.4155 11.2662 13.4879 10.5657 13.4879H10.1144C9.79126 13.4886 9.47875 13.6018 9.23223 13.8076C8.98559 14.0171 8.82234 14.3033 8.77227 14.6163L8.73828 14.7984L8.16709 18.3637L8.14112 18.4946C8.13431 18.5361 8.12256 18.5568 8.10526 18.5707C8.08851 18.5843 8.06758 18.5918 8.04591 18.5921H5.25964Z" fill="#253B80"/>
<path d="M14.2901 5.48074C14.2722 5.59271 14.2524 5.70437 14.2307 5.81568C13.4659 9.68304 10.8497 11.019 7.50822 11.019H5.80692C5.39831 11.019 5.05392 11.3113 4.99029 11.7084L4.11918 17.1498L3.87254 18.6923C3.83114 18.9529 4.03512 19.188 4.30219 19.188H7.31967C7.67701 19.188 7.98054 18.9322 8.03682 18.5851L8.06647 18.4341L8.63466 14.8828L8.67111 14.6879C8.6979 14.5195 8.78489 14.3661 8.91639 14.2554C9.04789 14.1446 9.21524 14.0838 9.38826 14.0838H9.83954C12.7631 14.0838 15.0517 12.9146 15.7206 9.53139C16 8.11808 15.8553 6.93791 15.116 6.10794C14.8922 5.85764 14.6146 5.65002 14.2901 5.48074Z" fill="#179BD7"/>
<path d="M13.49 5.1665C13.3707 5.13242 13.2503 5.10195 13.129 5.07516C13.0022 5.04789 12.8746 5.02414 12.7464 5.00393C12.2876 4.93087 11.7851 4.89614 11.2466 4.89614H6.70148C6.5285 4.89599 6.36119 4.95681 6.22978 5.0676C6.09837 5.17839 6.01154 5.33184 5.985 5.5002L5.01807 11.5324L4.9903 11.7084C5.05392 11.3113 5.39831 11.019 5.80693 11.019H7.50823C10.8497 11.019 13.4659 9.68238 14.2307 5.81568C14.2536 5.70118 14.2728 5.58971 14.2901 5.48073C14.0966 5.37965 13.887 5.29317 13.6613 5.21951C13.6045 5.20092 13.5474 5.18325 13.49 5.1665Z" fill="#222D65"/>
<path d="M5.98497 5.50021C6.00298 5.38569 6.04912 5.27723 6.11936 5.18427C6.18961 5.09131 6.28184 5.01665 6.38805 4.96679C6.48587 4.9206 6.59298 4.89666 6.70146 4.89674H11.2466C11.7851 4.89674 12.2876 4.93147 12.7464 5.00454C12.8774 5.02525 13.0048 5.04899 13.129 5.07583C13.2527 5.10318 13.3732 5.13363 13.49 5.16711C13.5482 5.18421 13.6057 5.20183 13.662 5.21952C13.8876 5.29318 14.0971 5.38026 14.2906 5.48075C14.5182 4.05159 14.2888 3.07845 13.5042 2.19732C12.6394 1.22727 11.0784 0.812027 9.08098 0.812027H3.2821C2.87408 0.812027 2.52602 1.10429 2.463 1.50191L0.0476187 16.5824C1.35824e-05 16.8807 0.2337 17.1498 0.539093 17.1498H4.11916L5.01805 11.5324L5.98497 5.50021Z" fill="#253B80"/>
</g>
<defs>
<clipPath id="clip0_1218_35">
<rect width="16" height="20" fill="white"/>
</clipPath>
</defs>
</svg>
