<svg width="20" height="21" viewBox="0 0 20 21" fill="none" xmlns="http://www.w3.org/2000/svg">
<g clip-path="url(#clip0_991_107)">
<mask id="mask0_991_107" style="mask-type:luminance" maskUnits="userSpaceOnUse" x="0" y="5" width="21" height="11">
<path d="M20.16 5.82422H0.160034V15.8242H20.16V5.82422Z" fill="white"/>
</mask>
<g mask="url(#mask0_991_107)">
<path d="M1.73631 7.92774H4.69021C5.55721 7.93502 6.18546 8.18479 6.57498 8.67664C6.96449 9.1685 7.09301 9.8403 6.96075 10.6921C6.90938 11.0813 6.79542 11.463 6.61906 11.8374C6.44767 12.2153 6.20861 12.5587 5.91365 12.8507C5.54618 13.2324 5.15313 13.4747 4.7343 13.5775C4.31546 13.6804 3.88186 13.7317 3.4337 13.7317H2.11105L1.69222 15.8242H0.160156L1.73631 7.92774ZM3.02588 9.18325L2.36456 12.4872C2.40865 12.4945 2.45274 12.4982 2.49683 12.4982H2.65113C3.35654 12.5055 3.94445 12.4359 4.41466 12.289C4.88486 12.1348 5.20097 11.5989 5.36255 10.681C5.49482 9.91012 5.36255 9.46585 4.96576 9.34845C4.57625 9.23104 4.08774 9.17598 3.49983 9.18325C3.41165 9.19052 3.32722 9.19426 3.24632 9.19426H3.01486L3.02588 9.18325ZM8.70597 5.82422H10.227L9.79715 7.92774H11.1639C11.9134 7.9425 12.4718 8.09668 12.8392 8.3903C13.214 8.68391 13.3242 9.24206 13.1699 10.0643L12.4314 13.7317H10.8883L11.5937 10.2295C11.6672 9.86233 11.6451 9.60175 11.5276 9.44757C11.4101 9.29338 11.1566 9.21629 10.7671 9.21629L9.54364 9.20528L8.63984 13.7317H7.1188L8.70597 5.82422ZM14.8032 7.92774H17.7571C18.6241 7.93502 19.2524 8.18479 19.6419 8.67664C20.0314 9.1685 20.1599 9.8403 20.0277 10.6921C19.9763 11.0813 19.8623 11.463 19.686 11.8374C19.5146 12.2153 19.2755 12.5587 18.9806 12.8507C18.6131 13.2324 18.2201 13.4747 17.8012 13.5775C17.3824 13.6804 16.9488 13.7317 16.5006 13.7317H15.178L14.7591 15.8242H13.2271L14.8032 7.92774ZM16.0928 9.18325L15.4315 12.4872C15.4756 12.4945 15.5197 12.4982 15.5638 12.4982H15.7181C16.4235 12.5055 17.0114 12.4359 17.4816 12.289C17.9518 12.1348 18.2679 11.5989 18.4295 10.681C18.5617 9.91012 18.4295 9.46585 18.0327 9.34845C17.6432 9.23104 17.1547 9.17598 16.5668 9.18325C16.4786 9.19052 16.3941 9.19426 16.3132 9.19426H16.0818L16.0928 9.18325Z" fill="black"/>
</g>
</g>
<defs>
<clipPath id="clip0_991_107">
<rect width="20" height="21" fill="white"/>
</clipPath>
</defs>
</svg>
