<svg width="20" height="20" viewBox="0 0 20 20" fill="none" xmlns="http://www.w3.org/2000/svg">
<g clip-path="url(#clip0_1221_119)">
<path d="M19.9182 11.2698C20.6181 5.79076 16.7488 0.781662 11.2798 0.0817876C5.81075 -0.618086 0.781662 3.25122 0.0817876 8.72023C-0.618086 14.1892 3.25122 19.2083 8.72023 19.9182C14.1992 20.6181 19.2083 16.7488 19.9182 11.2698Z" fill="#FF6C37"/>
<path d="M13.6093 6.42064L9.3901 10.6399L8.20032 9.4501C12.3496 5.30085 12.7595 5.66078 13.6093 6.42064Z" fill="white"/>
<path d="M9.3901 10.7399C9.3601 10.7399 9.34011 10.7299 9.32011 10.7099L8.12033 9.52009C8.08033 9.48009 8.08033 9.42011 8.12033 9.38011C12.3396 5.16087 12.7795 5.5608 13.6693 6.36066C13.6893 6.38065 13.6993 6.40065 13.6993 6.43064C13.6993 6.46064 13.6893 6.48064 13.6693 6.50063L9.45009 10.7099C9.44009 10.7299 9.41009 10.7399 9.3901 10.7399ZM8.34029 9.4501L9.3901 10.4999L13.4594 6.43064C12.7195 5.77076 12.2196 5.5708 8.34029 9.4501Z" fill="#FF6C37"/>
<path d="M10.5999 11.8497L9.45007 10.6999L13.6693 6.48063C14.7991 7.62043 13.1094 9.47009 10.5999 11.8497Z" fill="white"/>
<path d="M10.5999 11.9496C10.5699 11.9496 10.5499 11.9397 10.5299 11.9197L9.3801 10.7699C9.36011 10.7499 9.36011 10.7299 9.36011 10.6999C9.36011 10.6699 9.37011 10.6499 9.3901 10.6299L13.6093 6.41065C13.6493 6.37066 13.7093 6.37066 13.7493 6.41065C14.0093 6.6506 14.1492 6.99054 14.1392 7.34048C14.1192 8.45028 12.8595 9.86003 10.6799 11.9197C10.6499 11.9397 10.6199 11.9496 10.5999 11.9496ZM9.59007 10.6999C10.23 11.3498 10.4999 11.6097 10.5999 11.7097C12.2796 10.11 13.9093 8.47028 13.9193 7.34048C13.9293 7.08053 13.8293 6.82057 13.6593 6.62061L9.59007 10.6999Z" fill="#FF6C37"/>
<path d="M8.2203 9.48009L9.07015 10.3299C9.09014 10.3499 9.09014 10.3699 9.07015 10.3899C9.06015 10.3999 9.06015 10.3999 9.05015 10.3999L7.29047 10.7799C7.20048 10.7899 7.1205 10.7299 7.1005 10.6399C7.0905 10.5899 7.1105 10.5399 7.14049 10.5099L8.16031 9.49009C8.18031 9.47009 8.2103 9.4601 8.2203 9.48009Z" fill="white"/>
<path d="M7.26044 10.8798C7.11047 10.8798 7.00049 10.7599 7.00049 10.6099C7.00049 10.5399 7.03048 10.4699 7.08047 10.4199L8.10029 9.40011C8.16028 9.35012 8.24026 9.35012 8.30025 9.40011L9.1501 10.25C9.21009 10.2999 9.21009 10.3899 9.1501 10.4499C9.1301 10.4699 9.11011 10.4799 9.08011 10.4899L7.32043 10.8698C7.30043 10.8698 7.28044 10.8798 7.26044 10.8798ZM8.19027 9.59007L7.21045 10.5699C7.19045 10.5899 7.18046 10.6199 7.20045 10.6499C7.21045 10.6799 7.24045 10.6899 7.27044 10.6799L8.92014 10.3199L8.19027 9.59007Z" fill="#FF6C37"/>
<path d="M15.8389 4.08107C15.199 3.46118 14.1692 3.48118 13.5493 4.13106C12.9294 4.78094 12.9494 5.80076 13.5993 6.42065C14.1292 6.93056 14.9291 7.02054 15.5589 6.64061L14.4192 5.50081L15.8389 4.08107Z" fill="white"/>
<path d="M14.7192 6.97055C13.7694 6.97055 12.9995 6.20069 12.9995 5.25086C12.9995 4.30103 13.7694 3.53117 14.7192 3.53117C15.1591 3.53117 15.589 3.70114 15.909 4.01108C15.929 4.03108 15.939 4.05107 15.939 4.08107C15.939 4.11106 15.929 4.13106 15.909 4.15105L14.5592 5.50081L15.619 6.56062C15.659 6.60061 15.659 6.6606 15.619 6.70059C15.609 6.71059 15.609 6.71059 15.599 6.72059C15.3391 6.88056 15.0291 6.97055 14.7192 6.97055ZM14.7192 3.74113C13.8794 3.74113 13.1995 4.42101 13.2095 5.26085C13.2095 6.1007 13.8894 6.78058 14.7292 6.77058C14.9592 6.77058 15.1891 6.72059 15.3991 6.61061L14.3493 5.5708C14.3293 5.5508 14.3193 5.53081 14.3193 5.50081C14.3193 5.47082 14.3293 5.45082 14.3493 5.43082L15.689 4.09107C15.4191 3.86111 15.0791 3.74113 14.7192 3.74113Z" fill="#FF6C37"/>
<path d="M15.8689 4.11106L15.8489 4.09106L14.4192 5.50081L15.549 6.63061C15.659 6.56062 15.7689 6.48063 15.8589 6.39065C16.4988 5.76076 16.4988 4.74095 15.8689 4.11106Z" fill="white"/>
<path d="M15.559 6.74059C15.529 6.74059 15.509 6.73059 15.489 6.7106L14.3492 5.5708C14.3292 5.5508 14.3192 5.53081 14.3192 5.50081C14.3192 5.47082 14.3292 5.45082 14.3492 5.43083L15.769 4.01108C15.8089 3.97109 15.8689 3.97109 15.9089 4.01108L15.9389 4.03108C16.6088 4.70096 16.6088 5.78076 15.9489 6.46064C15.8489 6.56062 15.739 6.65061 15.619 6.72059C15.589 6.73059 15.569 6.74059 15.559 6.74059ZM14.5592 5.50081L15.569 6.51063C15.649 6.46064 15.729 6.39065 15.7889 6.33066C16.3588 5.76077 16.3888 4.83093 15.8389 4.23104L14.5592 5.50081Z" fill="#FF6C37"/>
<path d="M13.7793 6.60061C13.5393 6.36066 13.1494 6.36066 12.9095 6.60061L9.14014 10.3699L9.77002 10.9998L13.7593 7.50045C14.0193 7.28049 14.0393 6.89056 13.8193 6.63061C13.7993 6.62061 13.7893 6.61061 13.7793 6.60061Z" fill="white"/>
<path d="M9.76002 11.0998C9.73003 11.0998 9.71003 11.0898 9.69003 11.0698L9.06015 10.4399C9.02015 10.3999 9.02015 10.3399 9.06015 10.2999L12.8295 6.53063C13.1094 6.25068 13.5593 6.25068 13.8393 6.53063C14.1192 6.81058 14.1192 7.26049 13.8393 7.54044C13.8293 7.55044 13.8193 7.56044 13.8093 7.57044L9.82001 11.0698C9.81001 11.0898 9.79001 11.0998 9.76002 11.0998ZM9.28011 10.3699L9.77002 10.8598L13.6893 7.42047C13.9093 7.2405 13.9293 6.91056 13.7493 6.6906C13.5693 6.47064 13.2394 6.45064 13.0194 6.63061C13.0094 6.64061 12.9994 6.6506 12.9794 6.6606L9.28011 10.3699Z" fill="#FF6C37"/>
<path d="M6.25066 14.6592C6.21067 14.6792 6.19067 14.7191 6.20067 14.7591L6.37064 15.479C6.41063 15.579 6.35064 15.699 6.24066 15.729C6.16068 15.759 6.07069 15.729 6.0207 15.669L4.9209 14.5792L8.51025 10.9898L9.75003 11.0098L10.5899 11.8497C10.3899 12.0196 9.18013 13.1894 6.25066 14.6592Z" fill="white"/>
<path d="M6.1707 15.8289C6.09072 15.8289 6.01073 15.799 5.96074 15.739L4.87094 14.6492C4.85094 14.6292 4.84094 14.6092 4.84094 14.5792C4.84094 14.5492 4.85094 14.5292 4.87094 14.5092L8.46029 10.9198C8.48029 10.8998 8.51028 10.8898 8.53028 10.8898L9.77005 10.9098C9.80005 10.9098 9.82004 10.9198 9.84004 10.9398L10.6799 11.7797C10.6999 11.7997 10.7099 11.8297 10.7099 11.8597C10.7099 11.8897 10.6999 11.9097 10.6699 11.9297L10.5999 11.9896C9.5401 12.9195 8.10036 13.8493 6.31068 14.7391L6.48065 15.449C6.51064 15.579 6.45065 15.719 6.33067 15.789C6.27068 15.819 6.22069 15.8289 6.1707 15.8289ZM5.0709 14.5792L6.10072 15.599C6.13071 15.649 6.1907 15.669 6.24069 15.639C6.29068 15.609 6.31068 15.549 6.28068 15.499L6.11071 14.7791C6.09072 14.6892 6.13071 14.6092 6.2107 14.5692C7.98038 13.6793 9.41012 12.7595 10.4599 11.8497L9.72006 11.1098L8.57027 11.0898L5.0709 14.5792Z" fill="#FF6C37"/>
<path d="M4.07111 15.439L4.93095 14.5792L6.21072 15.8589L4.17109 15.719C4.08111 15.709 4.02112 15.629 4.03112 15.539C4.03112 15.499 4.04111 15.459 4.07111 15.439Z" fill="white"/>
<path d="M6.21068 15.9489L4.16105 15.809C4.01108 15.799 3.9111 15.669 3.9211 15.519C3.9311 15.459 3.95109 15.399 4.00108 15.359L4.86093 14.4992C4.90092 14.4592 4.96091 14.4592 5.0009 14.4992L6.28067 15.779C6.31067 15.809 6.32066 15.8489 6.30067 15.8889C6.28067 15.9289 6.25068 15.9489 6.21068 15.9489ZM4.93092 14.7192L4.14106 15.509C4.11106 15.529 4.11106 15.579 4.14106 15.599C4.15106 15.609 4.16105 15.619 4.18105 15.619L5.95073 15.739L4.93092 14.7192Z" fill="#FF6C37"/>
<path d="M8.16028 11.4497C8.1003 11.4497 8.0603 11.3997 8.0603 11.3498C8.0603 11.3198 8.0703 11.2998 8.0903 11.2798L9.06012 10.3099C9.10012 10.27 9.1601 10.27 9.2001 10.3099L9.82998 10.9398C9.85998 10.9698 9.86998 10.9998 9.85998 11.0398C9.84998 11.0698 9.81999 11.0998 9.77999 11.1098L8.18028 11.4497C8.17028 11.4497 8.16028 11.4497 8.16028 11.4497ZM9.13011 10.5199L8.47023 11.1798L9.55003 10.9498L9.13011 10.5199Z" fill="#FF6C37"/>
<path d="M9.75005 11.0098L8.65025 11.2498C8.57026 11.2698 8.49028 11.2198 8.47028 11.1398C8.46028 11.0898 8.47028 11.0398 8.51027 10.9998L9.12016 10.3899L9.75005 11.0098Z" fill="white"/>
<path d="M8.6302 11.3498C8.49023 11.3498 8.38025 11.2398 8.38025 11.0998C8.38025 11.0298 8.41024 10.9698 8.45024 10.9198L9.06013 10.3099C9.10012 10.27 9.16011 10.27 9.2001 10.3099L9.82999 10.9398C9.85998 10.9698 9.86998 10.9998 9.85998 11.0398C9.84998 11.0698 9.81999 11.0998 9.78 11.1098L8.68019 11.3498C8.6602 11.3498 8.6402 11.3498 8.6302 11.3498ZM9.13011 10.5199L8.59021 11.0598C8.57021 11.0798 8.57021 11.0998 8.58021 11.1198C8.59021 11.1398 8.61021 11.1498 8.6402 11.1498L9.56004 10.9498L9.13011 10.5199Z" fill="#FF6C37"/>
<path d="M15.8789 5.07088C15.8589 5.0109 15.7889 4.9809 15.729 5.0009C15.669 5.02089 15.639 5.09088 15.659 5.15087C15.659 5.16087 15.669 5.17087 15.669 5.18087C15.729 5.30084 15.709 5.45082 15.629 5.5608C15.589 5.61079 15.599 5.68077 15.639 5.72077C15.689 5.76076 15.759 5.75076 15.7989 5.70077C15.9489 5.51081 15.9789 5.27085 15.8789 5.07088Z" fill="#FF6C37"/>
</g>
<defs>
<clipPath id="clip0_1221_119">
<rect width="20" height="20" fill="white"/>
</clipPath>
</defs>
</svg>
