<svg width="20" height="21" viewBox="0 0 20 21" fill="none" xmlns="http://www.w3.org/2000/svg">
<mask id="mask0_991_235" style="mask-type:luminance" maskUnits="userSpaceOnUse" x="0" y="0" width="20" height="21">
<path d="M20 0.0996094H0V20.0996H20V0.0996094Z" fill="white"/>
</mask>
<g mask="url(#mask0_991_235)">
<path d="M16.7812 8.05273C16.7499 7.36523 16.8437 6.75586 16.5312 6.24023C15.7812 4.95898 13.9062 4.20898 10.1562 4.20898C6.40617 4.20898 4.43742 4.95898 3.68742 6.25586C3.39054 6.78711 3.42179 7.38086 3.37492 8.06836C3.34367 8.61523 3.09367 9.19336 3.20304 9.81836C3.32804 10.6309 3.37492 11.4434 3.49992 12.1934C3.59367 12.8027 4.43742 13.3184 4.51554 13.8965C4.73429 15.4902 6.39054 16.2246 10.1405 16.2246V16.3496H10.0468H10.1562V16.2246C13.9062 16.2246 15.4999 15.4902 15.703 13.8965C15.7812 13.3027 16.5624 12.8027 16.6562 12.1934C16.7812 11.4434 16.828 10.6309 16.953 9.81836C17.0624 9.19336 16.8124 8.59961 16.7812 8.05273Z" fill="#EFCCA3"/>
<path d="M10.0937 8.61523C10.7656 8.63086 11.2344 9.05273 11.6719 9.44336C12.1875 9.89648 13.0625 10.209 13.4219 10.5996C13.7812 10.9902 14.25 11.3809 14.4219 11.9902C14.5938 12.5996 14.6406 13.3809 14.6406 13.584C14.6406 13.7871 14.75 13.7402 15.0625 13.584C15.7969 13.2246 16.6094 12.2559 16.6094 12.2559C16.5156 12.8652 15.7187 13.4121 15.6406 13.9902C15.4531 15.584 13.9062 16.3496 10.0781 16.3496H10.0625H10.1562" fill="#CCAC8D"/>
<path d="M12.5625 7.39668C12.7031 7.88105 13.2031 9.52168 12.2344 8.9748C12.2344 8.9748 12.6406 9.20918 12.8906 10.0998C13.1562 10.9904 13.7969 11.0998 13.7969 11.0998C13.7969 11.0998 14.8437 11.3029 15.625 10.6311C16.2812 10.0686 16.3906 9.06855 16.1094 8.30293C15.8281 7.55293 15.3281 7.31855 14.5937 7.1623C13.8594 6.99043 12.3906 6.8498 12.5625 7.39668Z" fill="#CCAC8D"/>
<path d="M14.4219 10.5527C15.1813 10.5527 15.7969 9.93713 15.7969 9.17773C15.7969 8.41834 15.1813 7.80273 14.4219 7.80273C13.6625 7.80273 13.0469 8.41834 13.0469 9.17773C13.0469 9.93713 13.6625 10.5527 14.4219 10.5527Z" fill="black"/>
<path d="M14.0625 8.92773C14.261 8.92773 14.4219 8.76684 14.4219 8.56836C14.4219 8.36988 14.261 8.20898 14.0625 8.20898C13.864 8.20898 13.7031 8.36988 13.7031 8.56836C13.7031 8.76684 13.864 8.92773 14.0625 8.92773Z" fill="white"/>
<path d="M12.3281 9.11523C12.3281 9.11523 13.5625 9.95898 14.2344 10.7871C14.9062 11.6152 14.8906 11.7715 14.8906 11.7715L14.4062 11.9902C14.4062 11.9902 13.7187 10.6934 12.875 10.209C12.0156 9.72461 11.9219 9.31836 11.9219 9.31836L12.3281 9.11523Z" fill="#EFCCA3"/>
<path d="M10.1406 8.61523C9.46875 8.63086 8.96875 9.05273 8.51562 9.44336C8 9.89648 7.09376 10.209 6.73438 10.5996C6.37501 10.9902 5.89062 11.3809 5.71876 11.9902C5.54688 12.5996 5.48438 13.3809 5.48438 13.584C5.48438 13.7871 5.51564 13.8027 5.06251 13.584C4.32814 13.2402 3.51562 12.2559 3.51562 12.2559C3.60938 12.8652 4.40625 13.4121 4.48438 13.9902C4.70313 15.584 6.25001 16.3496 10.0781 16.3496H10.1562" fill="#CCAC8D"/>
<path d="M13.7656 11.2559C13.0156 10.334 11.8125 9.47461 10.1406 9.47461H10.125C8.45309 9.47461 7.24997 10.334 6.49997 11.2559C5.71872 12.209 5.78122 12.584 5.78122 13.4902C5.78122 16.7715 6.93747 15.834 7.70309 16.2402C8.48434 16.6309 9.29684 16.5059 10.125 16.5059H10.1406C10.9843 16.5059 11.7812 16.6152 12.5625 16.2246C13.3281 15.834 14.4843 16.8027 14.4843 13.5215C14.5 12.6152 14.5468 12.209 13.7656 11.2559Z" fill="#56332B"/>
<path d="M10.0625 10.2871C10.0625 10.2871 9.95312 11.8027 9.73438 12.0996L10.1406 12.0059L10.0625 10.2871Z" fill="#442823"/>
<path d="M10.1719 10.2871C10.1719 10.2871 10.2812 11.8027 10.5 12.0996L10.0938 12.0059L10.1719 10.2871Z" fill="#442823"/>
<path d="M8.8595 9.92772C8.70325 9.56835 9.26575 8.99023 10.1564 8.97461C11.047 8.97461 11.6095 9.55272 11.4532 9.92772C11.297 10.3027 10.7345 10.4121 10.1564 10.4277C9.59387 10.4121 9.01575 10.3027 8.8595 9.92772Z" fill="#56332B"/>
<path d="M10.1562 10.2871C10.1562 10.2246 10.6875 10.209 10.9687 10.0215C10.9687 10.0215 10.3906 10.209 10.2656 10.1309C10.1406 10.0684 10.1094 9.88086 10.1094 9.88086C10.1094 9.88086 10.0625 10.0684 9.96875 10.1309C9.85937 10.1934 9.20312 10.0215 9.20312 10.0215C9.20312 10.0215 10.0781 10.2402 10.0781 10.2871C10.0781 10.334 10.0625 10.4902 10.0625 10.5996C10.0625 10.9902 10.0625 11.959 10.125 12.0371C10.2188 12.1777 10.1875 10.9902 10.1875 10.5996C10.1719 10.4746 10.1719 10.3496 10.1562 10.2871Z" fill="black"/>
<path d="M10.1875 12.3809C10.4531 12.3809 10.9219 12.5684 11.3437 12.8652C10.9375 12.4121 10.4531 12.0996 10.1875 12.0996C9.90625 12.0996 9.31251 12.4434 8.89062 12.9434C9.32812 12.5996 9.89062 12.3809 10.1875 12.3809Z" fill="#7F4A41"/>
<path d="M10.0781 15.1465C9.48437 15.1465 8.90625 14.959 8.375 14.8184C8.26562 14.7871 8.15625 14.8652 8.04687 14.834C7.0625 14.5215 6.26562 13.9902 5.78125 13.3184V13.4746C5.78125 16.7559 6.9375 15.834 7.70312 16.2246C8.48437 16.6152 9.29688 16.4902 10.125 16.4902H10.1406C10.9844 16.4902 11.7812 16.5996 12.5625 16.209C13.3281 15.8184 14.4844 16.7715 14.4844 13.4902C14.4844 13.3652 14.4844 13.2402 14.5 13.1309C14.0469 13.8652 13.2187 14.4434 12.1875 14.7871C12.0937 14.8184 11.875 14.7402 11.7812 14.7559C11.2187 14.9434 10.7187 15.1465 10.0781 15.1465Z" fill="#442823"/>
<path d="M8.59375 13.3809C8.59375 13.3809 8.20312 14.5527 8.46875 15.0684L8.10938 14.9121C8.10938 14.9121 8.375 13.7246 8.59375 13.3809ZM11.6875 13.3809C11.6875 13.3809 12.0781 14.5527 11.8125 15.0684L12.1719 14.9121C12.1719 14.9121 11.8906 13.7246 11.6875 13.3809Z" fill="#442823"/>
<path d="M7.59376 7.39668C7.45314 7.88105 6.95314 9.52168 7.92189 8.9748C7.92189 8.9748 7.51564 9.20918 7.26564 10.0998C7.01564 10.9904 6.35939 11.0998 6.35939 11.0998C6.35939 11.0998 5.31251 11.3029 4.53126 10.6311C3.87501 10.0686 3.76564 9.06855 4.04689 8.30293C4.32814 7.5373 4.82814 7.31855 5.56251 7.1623C6.29689 6.99043 7.75001 6.8498 7.59376 7.39668Z" fill="#CCAC8D"/>
<path d="M10.1406 12.0996C10.5625 12.0996 11.875 13.0059 11.8906 14.1152V14.0527C11.8906 12.8965 10.8281 11.9746 10.1406 11.9746C9.45314 11.9746 8.39062 12.9121 8.39062 14.0527V14.1152C8.40625 13.0059 9.71876 12.0996 10.1406 12.0996Z" fill="black"/>
<path d="M10.4818 9.93634C10.5486 9.91909 10.5766 9.80351 10.5443 9.67817C10.5119 9.55283 10.4315 9.46519 10.3647 9.48244C10.2978 9.49968 10.2699 9.61527 10.3022 9.74061C10.3345 9.86595 10.4149 9.95358 10.4818 9.93634Z" fill="#331712"/>
<path d="M9.6785 9.93396C9.74443 9.95441 9.82898 9.87077 9.86733 9.74714C9.90568 9.62351 9.88332 9.50671 9.81739 9.48626C9.75145 9.4658 9.66691 9.54944 9.62855 9.67307C9.5902 9.7967 9.61256 9.9135 9.6785 9.93396Z" fill="#331712"/>
<path d="M5.8125 10.5527C6.57189 10.5527 7.1875 9.93713 7.1875 9.17773C7.1875 8.41834 6.57189 7.80273 5.8125 7.80273C5.05311 7.80273 4.4375 8.41834 4.4375 9.17773C4.4375 9.93713 5.05311 10.5527 5.8125 10.5527Z" fill="black"/>
<path d="M6.17187 8.92773C6.37035 8.92773 6.53125 8.76684 6.53125 8.56836C6.53125 8.36988 6.37035 8.20898 6.17187 8.20898C5.9734 8.20898 5.8125 8.36988 5.8125 8.56836C5.8125 8.76684 5.9734 8.92773 6.17187 8.92773Z" fill="white"/>
<path d="M10.5469 9.19339C10.5469 9.17776 10.1875 9.34964 10.0937 9.36526C10 9.34964 9.64062 9.17776 9.64062 9.19339H10.5469Z" fill="#7F4A41"/>
<path d="M7.81253 9.11523C7.81253 9.11523 6.57816 9.95898 5.90628 10.7871C5.23441 11.6152 5.25003 11.7715 5.25003 11.7715L5.73441 11.9902C5.73441 11.9902 6.42191 10.6934 7.26566 10.209C8.10941 9.72461 8.21878 9.31836 8.21878 9.31836L7.81253 9.11523Z" fill="#EFCCA3"/>
<path d="M5.10938 6.61523C5.10938 6.61523 4.6875 7.77148 3.75 8.25586C3.75 8.25586 5.21875 8.08398 5.10938 6.61523ZM14.9688 6.61523C14.9688 6.61523 15.3906 7.77148 16.3281 8.25586C16.3281 8.25586 14.8594 8.08398 14.9688 6.61523ZM12.2969 8.77148C12.2969 8.77148 11.375 7.80273 10.1406 7.77148H10.1562H10.1719C8.92188 7.80273 8.01562 8.77148 8.01562 8.77148C9.09375 8.02148 10.0156 8.03711 10.1719 8.03711C10.1562 8.03711 11.2187 8.02148 12.2969 8.77148ZM11.2188 6.74023C11.2188 6.74023 10.75 6.08398 10.125 6.06836H10.1562C9.6875 6.08398 9.07812 6.74023 9.07812 6.74023C9.60938 6.22461 10.1562 6.24023 10.1562 6.24023C10.1562 6.24023 10.6719 6.22461 11.2188 6.74023ZM5.8125 11.5371C5.8125 11.5371 5.07813 11.8965 4.54688 11.6777H4.53125C4.0625 11.4121 3.82812 10.6152 3.82812 10.6152C3.82812 10.6152 4.29688 12.0215 5.8125 11.5371ZM14.375 11.5371C14.375 11.5371 15.1094 11.8965 15.6406 11.6777C16.2656 11.4121 16.3594 10.6152 16.3594 10.6152C16.3594 10.6152 15.8906 12.0215 14.375 11.5371Z" fill="#CCAC8D"/>
<path d="M6.65624 6.53711C7.0625 6.45898 7.73438 6.44336 8.26562 6.61523C8.9375 6.84961 8.39062 7.70898 8.53125 7.75586C8.67187 7.80273 8.85936 7.16211 10.1094 7.22461C11.375 7.28711 11.5156 7.84961 11.6875 7.75586C11.8594 7.66211 11.5156 6.19336 13.4062 6.53711C13.4062 6.53711 11.4219 6.00586 11.5156 7.44336C11.5156 7.44336 10.375 6.56836 8.78125 7.34961C8.79688 7.34961 9.20311 6.00586 6.65624 6.53711ZM13.5781 6.53711C13.6094 6.53711 13.625 6.55273 13.6406 6.55273C13.6563 6.55273 13.625 6.53711 13.5781 6.53711ZM6.10937 4.61523C6.10937 4.61523 4.42187 6.74023 4.17187 7.55273C3.92187 8.38086 3.73438 11.7715 3.51561 12.2559L2.73438 8.91211L4.17187 5.42773L6.10937 4.61523ZM14.0469 4.61523C14.0469 4.61523 15.7344 6.74023 15.9844 7.55273C16.2344 8.38086 16.4219 11.7715 16.6406 12.2559L17.4219 8.91211L15.9844 5.42773L14.0469 4.61523Z" fill="#CCAC8D"/>
<path d="M13.9688 4.61543C13.9688 4.61543 15.7813 6.13105 16.3126 7.88105C16.8438 9.63105 16.6251 11.7561 17.0313 12.0217C17.6094 12.3967 18.2657 10.1623 18.4844 9.92793C18.8282 9.55293 19.9688 8.5998 20.0469 8.42793C20.1251 8.25605 17.7344 5.64668 16.6876 5.13105C15.4219 4.5373 13.8594 4.49043 13.9688 4.61543Z" fill="#56332B"/>
<path d="M15.5156 5.55273C15.5156 5.55273 17.6562 8.28711 17.625 11.6934L18.4844 9.94336C18.4688 9.94336 17.7188 7.70898 15.5156 5.55273Z" fill="#442823"/>
<path d="M6.10929 4.61543C6.10929 4.61543 4.29679 6.13105 3.76554 7.88105C3.23429 9.63105 3.45304 11.7561 3.04679 12.0217C2.46867 12.3967 1.81242 10.1623 1.59367 9.92793C1.24992 9.55293 0.109291 8.5998 0.0311665 8.42793C-0.0469585 8.25605 2.34367 5.64668 3.39054 5.13105C4.65617 4.5373 6.21867 4.49043 6.10929 4.61543Z" fill="#56332B"/>
<path d="M4.56249 5.55273C4.56249 5.55273 2.42186 8.28711 2.45311 11.6934L1.60938 9.94336C1.60938 9.94336 2.35938 7.70898 4.56249 5.55273Z" fill="#442823"/>
<path d="M3.40625 11.7559C3.40625 11.7559 3.5625 12.5996 3.8125 12.8653C4.0625 13.1309 3.89063 12.6621 3.89063 12.6621C3.89063 12.6621 3.625 12.5215 3.67188 11.4434C3.71875 10.3653 3.40625 11.7559 3.40625 11.7559ZM16.7344 11.7559C16.7344 11.7559 16.5781 12.5996 16.3281 12.8653C16.0781 13.1309 16.25 12.6621 16.25 12.6621C16.25 12.6621 16.5156 12.5215 16.4688 11.4434C16.4219 10.3653 16.7344 11.7559 16.7344 11.7559Z" fill="#CCAC8D"/>
<path d="M8.51562 11.2402C8.58467 11.2402 8.64062 11.1843 8.64062 11.1152C8.64062 11.0462 8.58467 10.9902 8.51562 10.9902C8.44659 10.9902 8.39062 11.0462 8.39062 11.1152C8.39062 11.1843 8.44659 11.2402 8.51562 11.2402Z" fill="#442823"/>
<path d="M7.79688 11.9902C7.86591 11.9902 7.92188 11.9343 7.92188 11.8652C7.92188 11.7962 7.86591 11.7402 7.79688 11.7402C7.72783 11.7402 7.67188 11.7962 7.67188 11.8652C7.67188 11.9343 7.72783 11.9902 7.79688 11.9902Z" fill="#442823"/>
<path d="M7.5625 11.2402C7.63154 11.2402 7.6875 11.1843 7.6875 11.1152C7.6875 11.0462 7.63154 10.9902 7.5625 10.9902C7.49346 10.9902 7.4375 11.0462 7.4375 11.1152C7.4375 11.1843 7.49346 11.2402 7.5625 11.2402Z" fill="#442823"/>
<path d="M11.5625 11.2402C11.6315 11.2402 11.6875 11.1843 11.6875 11.1152C11.6875 11.0462 11.6315 10.9902 11.5625 10.9902C11.4935 10.9902 11.4375 11.0462 11.4375 11.1152C11.4375 11.1843 11.4935 11.2402 11.5625 11.2402Z" fill="#442823"/>
<path d="M12.2812 11.9902C12.3503 11.9902 12.4062 11.9343 12.4062 11.8652C12.4062 11.7962 12.3503 11.7402 12.2812 11.7402C12.2122 11.7402 12.1562 11.7962 12.1562 11.8652C12.1562 11.9343 12.2122 11.9902 12.2812 11.9902Z" fill="#442823"/>
<path d="M12.5156 11.2402C12.5847 11.2402 12.6406 11.1843 12.6406 11.1152C12.6406 11.0462 12.5847 10.9902 12.5156 10.9902C12.4466 10.9902 12.3906 11.0462 12.3906 11.1152C12.3906 11.1843 12.4466 11.2402 12.5156 11.2402Z" fill="#442823"/>
</g>
</svg>
