<svg width="20" height="21" viewBox="0 0 20 21" fill="none" xmlns="http://www.w3.org/2000/svg">
<path d="M18.776 10.8299C18.776 9.66714 17.3199 8.56522 15.0874 7.88189C15.6026 5.6065 15.3736 3.7962 14.3647 3.21662C14.1322 3.08067 13.8603 3.01627 13.5633 3.01627V3.81409C13.7279 3.81409 13.8603 3.84629 13.9712 3.90711C14.4578 4.18617 14.6688 5.24873 14.5043 6.6154C14.4649 6.9517 14.4005 7.30589 14.3218 7.66723C13.6206 7.4955 12.855 7.36313 12.05 7.27727C11.567 6.6154 11.0661 6.01435 10.5617 5.48844C11.728 4.4044 12.8228 3.81051 13.5669 3.81051V3.0127C12.5831 3.0127 11.2951 3.71392 9.99284 4.93032C8.69058 3.72107 7.40262 3.02701 6.41876 3.02701V3.82482C7.15934 3.82482 8.25768 4.41514 9.424 5.49201C8.92312 6.01793 8.42225 6.6154 7.94642 7.27727C7.13787 7.36313 6.37225 7.4955 5.67103 7.67081C5.58874 7.31304 5.52792 6.96601 5.48499 6.63329C5.31684 5.26662 5.52435 4.20406 6.00733 3.92142C6.11466 3.85702 6.25419 3.8284 6.41876 3.8284V3.03058C6.11824 3.03058 5.84634 3.09498 5.61021 3.23093C4.60489 3.81051 4.3795 5.61723 4.89826 7.88547C2.67295 8.57238 1.224 9.67072 1.224 10.8299C1.224 11.9926 2.68011 13.0945 4.91257 13.7779C4.39738 16.0533 4.62635 17.8636 5.63525 18.4431C5.8678 18.5791 6.1397 18.6435 6.44023 18.6435C7.42408 18.6435 8.71204 17.9423 10.0143 16.7259C11.3166 17.9351 12.6045 18.6292 13.5884 18.6292C13.8889 18.6292 14.1608 18.5648 14.3969 18.4288C15.4023 17.8492 15.6277 16.0425 15.1089 13.7743C17.327 13.091 18.776 11.989 18.776 10.8299ZM14.1179 8.44358C13.9855 8.9051 13.8209 9.38093 13.6349 9.85676C13.4882 9.57055 13.3344 9.28433 13.1662 8.99812C13.0017 8.71191 12.8264 8.43285 12.651 8.16095C13.1591 8.23608 13.6492 8.3291 14.1179 8.44358ZM12.4793 12.2538C12.2003 12.7368 11.914 13.1947 11.6171 13.6205C11.084 13.667 10.5438 13.692 10 13.692C9.45977 13.692 8.91955 13.667 8.39005 13.624C8.09311 13.1983 7.80332 12.7439 7.52426 12.2645C7.25236 11.7958 7.0055 11.32 6.78011 10.8406C7.00192 10.3612 7.25236 9.8818 7.52068 9.41313C7.79974 8.93014 8.08595 8.4722 8.3829 8.04646C8.91597 7.99995 9.45619 7.97491 10 7.97491C10.5402 7.97491 11.0805 7.99995 11.6099 8.04288C11.9069 8.46863 12.1967 8.92299 12.4757 9.4024C12.7476 9.87107 12.9945 10.3469 13.2199 10.8263C12.9945 11.3057 12.7476 11.7851 12.4793 12.2538ZM13.6349 11.7887C13.8281 12.2681 13.9927 12.7475 14.1286 13.2126C13.6599 13.3271 13.1662 13.4237 12.6546 13.4988C12.8299 13.2233 13.0052 12.9407 13.1698 12.6509C13.3344 12.3647 13.4882 12.0749 13.6349 11.7887ZM10.0072 15.6061C9.67443 15.2626 9.34171 14.8798 9.01256 14.4612C9.33455 14.4755 9.6637 14.4862 9.99642 14.4862C10.3327 14.4862 10.6654 14.4791 10.991 14.4612C10.669 14.8798 10.3363 15.2626 10.0072 15.6061ZM7.34538 13.4988C6.83735 13.4237 6.34721 13.3307 5.87853 13.2162C6.01091 12.7547 6.17548 12.2788 6.36152 11.803C6.5082 12.0892 6.66204 12.3754 6.83019 12.6616C6.99834 12.9479 7.17007 13.2269 7.34538 13.4988ZM9.98927 6.05371C10.322 6.39716 10.6547 6.77997 10.9839 7.19856C10.6619 7.18425 10.3327 7.17351 10 7.17351C9.6637 7.17351 9.33098 7.18067 9.00541 7.19856C9.3274 6.77997 9.66012 6.39716 9.98927 6.05371ZM7.3418 8.16095C7.16649 8.43643 6.99119 8.71906 6.82661 9.00885C6.66204 9.29507 6.5082 9.58128 6.36152 9.86749C6.16832 9.38808 6.00375 8.90868 5.8678 8.44358C6.33648 8.33268 6.83019 8.23608 7.3418 8.16095ZM4.10402 12.6402C2.83752 12.1 2.01824 11.3916 2.01824 10.8299C2.01824 10.2682 2.83752 9.55623 4.10402 9.01959C4.41169 8.88721 4.74799 8.76915 5.09503 8.65824C5.29895 9.35946 5.56728 10.0893 5.9 10.837C5.57086 11.5812 5.30611 12.3075 5.10576 13.0051C4.75157 12.8942 4.41527 12.7726 4.10402 12.6402ZM6.0288 17.7527C5.54223 17.4736 5.33115 16.411 5.49573 15.0444C5.53508 14.7081 5.59948 14.3539 5.67819 13.9925C6.37941 14.1643 7.14503 14.2966 7.95 14.3825C8.43298 15.0444 8.93386 15.6454 9.43831 16.1713C8.27199 17.2554 7.17723 17.8493 6.43307 17.8493C6.27208 17.8457 6.13613 17.8135 6.0288 17.7527ZM14.515 15.0265C14.6832 16.3931 14.4757 17.4557 13.9927 17.7383C13.8853 17.8027 13.7458 17.8314 13.5812 17.8314C12.8407 17.8314 11.7423 17.241 10.576 16.1642C11.0769 15.6383 11.5777 15.0408 12.0536 14.3789C12.8621 14.2931 13.6277 14.1607 14.329 13.9854C14.4113 14.3467 14.4757 14.6938 14.515 15.0265ZM15.8924 12.6402C15.5847 12.7726 15.2484 12.8906 14.9014 13.0015C14.6975 12.3003 14.4291 11.5705 14.0964 10.8227C14.4256 10.0786 14.6903 9.35231 14.8907 8.65466C15.2448 8.76557 15.5811 8.88721 15.896 9.01959C17.1625 9.55981 17.9818 10.2682 17.9818 10.8299C17.9782 11.3916 17.1589 12.1035 15.8924 12.6402Z" fill="#61DAFB"/>
<path d="M9.99641 12.4653C10.8994 12.4653 11.6314 11.7333 11.6314 10.8303C11.6314 9.92732 10.8994 9.19531 9.99641 9.19531C9.09343 9.19531 8.36142 9.92732 8.36142 10.8303C8.36142 11.7333 9.09343 12.4653 9.99641 12.4653Z" fill="#61DAFB"/>
</svg>
