<svg width="24" height="24" viewBox="0 0 24 24" fill="none" xmlns="http://www.w3.org/2000/svg">
<path d="M12.0075 16.5215C12.8973 16.5588 13.7673 16.2854 14.4783 15.751V15.7907C14.5876 15.6838 14.5901 15.5049 14.4832 15.3955C14.3763 15.2861 14.1974 15.2836 14.088 15.3905C13.479 15.8255 12.7432 16.0393 11.9975 15.9995C11.2518 16.0343 10.5185 15.8106 9.91698 15.3706C9.81507 15.2886 9.67338 15.2886 9.57395 15.3706C9.45961 15.4651 9.44221 15.6366 9.53667 15.751C10.2476 16.2854 11.1176 16.5588 12.0075 16.5215Z" fill="currentColor"/>
<path fill-rule="evenodd" clip-rule="evenodd" d="M22 12C22 17.5228 17.5228 22 12 22C6.47715 22 2 17.5228 2 12C2 6.47715 6.47715 2 12 2C17.5228 2 22 6.47715 22 12ZM17.1554 10.5931C17.9632 10.5658 18.6393 11.1947 18.6692 12C18.6791 12.5618 18.3634 13.0788 17.8613 13.3299C17.8712 13.4765 17.8712 13.6232 17.8613 13.7699C17.8613 16.012 15.2513 17.8315 12.0323 17.8315C8.81333 17.8315 6.20333 16.0095 6.20333 13.7699C6.19339 13.6232 6.19339 13.4765 6.20333 13.3299C6.05668 13.2653 5.92494 13.1733 5.81059 13.0664C5.22148 12.5146 5.19414 11.5899 5.74596 11.0033C6.29779 10.4141 7.22247 10.3868 7.8091 10.9386C8.96247 10.1581 10.3172 9.73058 11.7092 9.70821L12.4474 6.23816V6.23319C12.4847 6.06416 12.6513 5.95976 12.8178 5.99705L15.2687 6.48673C15.4253 6.2133 15.7087 6.02936 16.0244 5.99705C16.5737 5.93739 17.0659 6.3351 17.1255 6.88444C17.1852 7.43379 16.7875 7.92596 16.2381 7.98561C15.6888 8.04527 15.1966 7.64756 15.137 7.09821L12.9968 6.6483L12.348 9.76786C13.7226 9.79769 15.0599 10.2227 16.1984 10.9983C16.4569 10.7522 16.7974 10.6055 17.1554 10.5931Z" fill="currentColor"/>
<path d="M15.305 13C15.305 13.5523 14.8573 14 14.305 14C13.7527 14 13.305 13.5523 13.305 13C13.305 12.4477 13.7527 12 14.305 12C14.8573 12 15.305 12.4477 15.305 13Z" fill="currentColor"/>
<path d="M10.6807 13C10.6807 13.5523 10.233 14 9.68073 14C9.12844 14 8.68073 13.5523 8.68073 13C8.68073 12.4477 9.12844 12 9.68073 12C10.233 12 10.6807 12.4477 10.6807 13Z" fill="currentColor"/>
</svg>
