<svg width="20" height="21" viewBox="0 0 20 21" fill="none" xmlns="http://www.w3.org/2000/svg">
<g clip-path="url(#clip0_991_23)">
<path d="M17.2174 11.9503C16.5201 11.9539 15.914 12.1218 15.4065 12.3701C15.2203 12.0014 15.0341 11.6728 15.0012 11.4318C14.9647 11.1507 14.9209 10.9791 14.9647 10.6432C15.0086 10.3073 15.2057 9.82904 15.2021 9.79253C15.1984 9.75602 15.1582 9.58443 14.7566 9.58078C14.355 9.57713 14.0082 9.65745 13.968 9.76332C13.9279 9.8692 13.8512 10.1102 13.8001 10.3584C13.7307 10.7235 12.9969 12.0269 12.577 12.7097C12.4419 12.4431 12.3251 12.2095 12.2995 12.0233C12.263 11.7421 12.2192 11.5706 12.263 11.2347C12.3068 10.8988 12.504 10.4205 12.5003 10.384C12.4967 10.3475 12.4565 10.1759 12.0549 10.1722C11.6533 10.1686 11.3065 10.2489 11.2663 10.3548C11.2261 10.4607 11.1823 10.7089 11.0984 10.9499C11.0144 11.1909 10.0396 13.3668 9.78402 13.9291C9.65258 14.2175 9.5394 14.4475 9.45908 14.6045C9.45908 14.6045 9.45543 14.6155 9.44448 14.6337C9.37511 14.7688 9.33495 14.8418 9.33495 14.8418C9.33495 14.8418 9.33495 14.8418 9.33495 14.8455C9.28018 14.944 9.22177 15.0353 9.19256 15.0353C9.17065 15.0353 9.13049 14.7725 9.19986 14.4147C9.3459 13.6589 9.69274 12.4833 9.68909 12.4431C9.68909 12.4212 9.75481 12.2168 9.46273 12.1109C9.17796 12.005 9.07573 12.1803 9.05017 12.1803C9.02461 12.1803 9.00636 12.2423 9.00636 12.2423C9.00636 12.2423 9.32399 10.9207 8.4003 10.9207C7.82345 10.9207 7.02754 11.5523 6.63323 12.1218C6.38496 12.2569 5.85557 12.5454 5.28967 12.8557C5.07427 12.9762 4.85156 13.0967 4.64345 13.2098C4.62885 13.1952 4.61425 13.177 4.59964 13.1624C3.48245 11.9685 1.416 11.1251 1.50362 9.52236C1.53648 8.93821 1.73728 7.4048 5.47222 5.54281C8.54634 4.02765 10.9925 4.44752 11.416 5.37851C12.0221 6.70746 10.1053 9.17552 6.92896 9.53331C5.71684 9.6684 5.08157 9.20108 4.92093 9.02583C4.75298 8.84328 4.72743 8.83233 4.66536 8.86884C4.56313 8.9236 4.62885 9.0879 4.66536 9.18282C4.76028 9.43109 5.15094 9.8692 5.81176 10.0846C6.39592 10.2745 7.81614 10.3803 9.53575 9.71586C11.4598 8.97106 12.964 6.90097 12.5222 5.16676C12.0805 3.40699 9.1597 2.82649 6.39592 3.8086C4.75298 4.39275 2.97131 5.3128 1.68982 6.51031C0.167368 7.93419 -0.0735962 9.17187 0.0249799 9.69031C0.379124 11.5304 2.91655 12.7279 3.93152 13.6151C3.8804 13.6443 3.83294 13.6699 3.79278 13.6918C3.28529 13.9437 1.35028 14.955 0.868353 16.0247C0.320708 17.2369 0.955977 18.1058 1.37584 18.2226C2.67923 18.5841 4.01914 17.9342 4.73838 16.8608C5.45762 15.7874 5.37 14.3928 5.03776 13.7538C5.03411 13.7465 5.03046 13.7392 5.02315 13.7319C5.15459 13.6553 5.28967 13.5749 5.42111 13.4983C5.68033 13.3449 5.9359 13.2025 6.15495 13.0857C6.03082 13.4252 5.93955 13.8305 5.89574 14.4147C5.84097 15.101 6.1221 15.9919 6.49084 16.3424C6.65514 16.4957 6.84864 16.4994 6.97277 16.4994C7.40358 16.4994 7.59709 16.1416 7.81249 15.7181C8.07536 15.1996 8.31268 14.5972 8.31268 14.5972C8.31268 14.5972 8.01695 16.2255 8.82016 16.2255C9.11224 16.2255 9.40797 15.8458 9.5394 15.6523C9.5394 15.656 9.5394 15.656 9.5394 15.656C9.5394 15.656 9.5467 15.645 9.56131 15.6195C9.59051 15.572 9.60877 15.5428 9.60877 15.5428C9.60877 15.5428 9.60877 15.5392 9.60877 15.5355C9.7256 15.331 9.98847 14.8674 10.3791 14.097C10.883 13.104 11.3685 11.8626 11.3685 11.8626C11.3685 11.8626 11.4123 12.1657 11.562 12.6695C11.6497 12.9652 11.8322 13.2902 11.9782 13.6041C11.8614 13.7684 11.7884 13.8597 11.7884 13.8597C11.7884 13.8597 11.7884 13.8597 11.792 13.8634C11.6971 13.9875 11.5949 14.1226 11.4817 14.254C11.0838 14.7286 10.6091 15.2726 10.5434 15.4296C10.4667 15.6158 10.485 15.7509 10.631 15.8604C10.7369 15.9408 10.9268 15.9517 11.1203 15.9408C11.4781 15.9152 11.73 15.8276 11.8541 15.7728C12.0476 15.7034 12.274 15.5976 12.4857 15.4406C12.8764 15.1522 13.1137 14.7396 13.0918 14.1956C13.0808 13.8962 12.9823 13.5968 12.8618 13.3157C12.8983 13.2646 12.9311 13.2135 12.9677 13.1624C13.5847 12.2606 14.0629 11.2712 14.0629 11.2712C14.0629 11.2712 14.1068 11.5742 14.2565 12.078C14.3295 12.3336 14.4792 12.6111 14.6106 12.8813C14.0301 13.3522 13.6723 13.8999 13.5445 14.2577C13.3145 14.9221 13.4934 15.2215 13.8329 15.2909C13.9863 15.3237 14.2053 15.2507 14.366 15.1814C14.5704 15.1156 14.8114 15.0025 15.0414 14.8345C15.4321 14.5461 15.8081 14.1445 15.7862 13.6005C15.7753 13.3522 15.7095 13.1076 15.6183 12.8703C16.1111 12.6658 16.7464 12.5527 17.5569 12.6476C19.2948 12.852 19.638 13.9364 19.5723 14.3928C19.5065 14.8491 19.1414 15.0974 19.021 15.1741C18.9005 15.2507 18.8603 15.2763 18.8713 15.331C18.8859 15.4114 18.9443 15.4077 19.0465 15.3931C19.1889 15.3676 19.9593 15.0244 19.9921 14.1846C20.0469 13.1113 19.0246 11.9393 17.2174 11.9503ZM3.81103 16.4702C3.23418 17.0981 2.43097 17.3354 2.08413 17.1346C1.71173 16.9192 1.85777 15.9919 2.56605 15.3274C2.99687 14.9221 3.55181 14.5461 3.92056 14.3161C4.00453 14.265 4.12867 14.1919 4.27836 14.1007C4.30391 14.0861 4.31852 14.0788 4.31852 14.0788C4.34773 14.0605 4.37693 14.0423 4.40614 14.024C4.66536 14.9733 4.41709 15.8093 3.81103 16.4702ZM8.00965 13.6151C7.80884 14.1043 7.38898 15.3566 7.13341 15.2872C6.91436 15.2288 6.77927 14.2796 7.0896 13.3413C7.24659 12.8703 7.57883 12.308 7.77233 12.089C8.08632 11.7385 8.43316 11.6217 8.51713 11.7641C8.62301 11.9503 8.13378 13.3084 8.00965 13.6151ZM11.4744 15.2726C11.3904 15.3164 11.3101 15.3457 11.2736 15.3237C11.2481 15.3091 11.3101 15.2507 11.3101 15.2507C11.3101 15.2507 11.7446 14.7834 11.9162 14.5716C12.0148 14.4475 12.1316 14.3015 12.2557 14.1372C12.2557 14.1518 12.2557 14.17 12.2557 14.1846C12.2557 14.7432 11.7154 15.1193 11.4744 15.2726ZM14.1469 14.6629C14.0849 14.6191 14.0958 14.4731 14.3039 14.0167C14.3842 13.8378 14.5741 13.5384 14.899 13.25C14.9355 13.3668 14.9611 13.48 14.9574 13.5859C14.9538 14.2905 14.45 14.5534 14.1469 14.6629Z" fill="#CD6799"/>
</g>
<defs>
<clipPath id="clip0_991_23">
<rect width="20" height="21" fill="white"/>
</clipPath>
</defs>
</svg>
