<svg width="20" height="23" viewBox="0 0 20 23" fill="none" xmlns="http://www.w3.org/2000/svg">
<g clip-path="url(#clip0_1072_8)">
<mask id="mask0_1072_8" style="mask-type:luminance" maskUnits="userSpaceOnUse" x="2" y="2" width="16" height="15">
<path d="M17.3334 2.60378H2.66669V16.9245H17.3334V2.60378Z" fill="white"/>
</mask>
<g mask="url(#mask0_1072_8)">
<path d="M17.7778 2.16982H2.22223V17.3585H17.7778V2.16982Z" fill="white"/>
</g>
<mask id="mask1_1072_8" style="mask-type:luminance" maskUnits="userSpaceOnUse" x="7" y="6" width="6" height="7">
<path d="M11.7778 8.0283C11.9556 7.89811 12.0444 7.63774 12.0444 7.24717C12.0444 6.9434 11.9556 6.68302 11.8222 6.55283C11.6889 6.42264 11.4667 6.33585 11.2444 6.33585H7.02222V8.24528H11.1556C11.3778 8.28868 11.6 8.15849 11.7778 8.0283ZM11.6 10.5887H7.02222V12.7151H11.5111C11.7778 12.7151 12 12.6283 12.2222 12.4547C12.4 12.2811 12.4889 12.0208 12.4889 11.717C12.4889 11.4566 12.4 11.1962 12.2667 10.9358C12.0889 10.7189 11.8667 10.5887 11.6 10.5887Z" fill="white"/>
</mask>
<g mask="url(#mask1_1072_8)">
<path d="M12.9778 5.94528H6.57776V13.1925H12.9778V5.94528Z" fill="#00B3B0"/>
</g>
<mask id="mask2_1072_8" style="mask-type:luminance" maskUnits="userSpaceOnUse" x="0" y="0" width="20" height="23">
<path d="M16.0889 14.2774C15.8667 14.6679 15.5111 15.0151 15.1111 15.2755C14.6667 15.5358 14.1778 15.7962 13.6444 15.883C13.1111 16.0132 12.4889 16.1434 11.8667 16.1434H3.68889V3.60189H12.9333C13.3778 3.60189 13.7778 3.68868 14.1333 3.90566C14.4889 4.07925 14.8 4.33962 15.0667 4.6434C15.6 5.25094 15.8667 6.03208 15.8667 6.81321C15.8667 7.37736 15.6889 7.94151 15.4222 8.50566C15.1111 9.02641 14.6222 9.46038 14.0444 9.72075C14.8 9.93774 15.3778 10.2849 15.7778 10.8057C16.1778 11.3264 16.4 12.0208 16.4 12.9321C16.4 13.4094 16.2667 13.8868 16.0889 14.2774ZM19.1111 0H1.02222C0.444444 0 0 0.433962 0 0.998113V18.617C0 19.1377 0.444444 19.4849 1.02222 19.4849H3.68889V23L7.02222 19.4849H19.1111C19.6444 19.4849 20 19.1377 20 18.5736V0.998113C20 0.477358 19.6444 0.0433962 19.1111 0Z" fill="white"/>
</mask>
<g mask="url(#mask2_1072_8)">
<path d="M20.4444 -0.43396H-0.444458V23.434H20.4444V-0.43396Z" fill="#00B3B0"/>
</g>
</g>
<defs>
<clipPath id="clip0_1072_8">
<rect width="20" height="23" fill="white"/>
</clipPath>
</defs>
</svg>
