<svg width="48" height="20" viewBox="0 0 48 20" fill="none" xmlns="http://www.w3.org/2000/svg">
<g clip-path="url(#clip0_1218_47)">
<path d="M3.37331 7.80241C3.37331 7.28413 3.79997 7.0847 4.50675 7.0847C5.52 7.0847 6.79997 7.39048 7.81331 7.93539V4.81198C6.70669 4.37341 5.61337 4.20062 4.50675 4.20062C1.8 4.20062 0 5.60949 0 7.96202C0 11.6302 5.06662 11.0454 5.06662 12.6271C5.06662 13.2384 4.53337 13.4378 3.78666 13.4378C2.68003 13.4378 1.26666 12.9859 0.146625 12.3745V15.5377C1.38666 16.0694 2.64 16.2952 3.78666 16.2952C6.55997 16.2952 8.46666 14.9264 8.46666 12.5473C8.45334 8.58665 3.37331 9.29099 3.37331 7.80241ZM12.3866 1.5425L9.13331 2.23357L9.12 12.8795C9.12 14.8466 10.6 16.2952 12.5734 16.2952C13.6667 16.2952 14.4667 16.0959 14.9066 15.8567V13.1586C14.4801 13.3314 12.3733 13.9428 12.3733 11.9757V7.25749H14.9066V4.42659H12.3733L12.3866 1.5425ZM19.0534 5.41006L18.84 4.42659H15.96V16.056H19.2934V8.17462C20.0799 7.15124 21.4133 7.3373 21.8267 7.48346V4.42659C21.4 4.26706 19.84 3.97466 19.0534 5.41006ZM22.64 4.42659H25.9867V16.056H22.64V4.42659ZM22.64 3.41647L25.9867 2.69877V0.000747681L22.64 0.705181V3.41647ZM32.9467 4.20062C31.64 4.20062 30.8 4.81198 30.3334 5.23737L30.1599 4.41331H27.2267V19.9103L30.56 19.2059L30.5734 15.4446C31.0534 15.7902 31.76 16.282 32.9333 16.282C35.32 16.282 37.4933 14.3681 37.4933 10.1549C37.48 6.30056 35.28 4.20062 32.9467 4.20062ZM32.1467 13.358C31.36 13.358 30.8932 13.0789 30.5734 12.7333L30.56 7.80241C30.9067 7.41702 31.3867 7.15124 32.1467 7.15124C33.36 7.15124 34.2 8.50684 34.2 10.2479C34.2 12.0289 33.3733 13.358 32.1467 13.358ZM48 10.2878C48 6.88537 46.3466 4.20062 43.1867 4.20062C40.0132 4.20062 38.0933 6.88547 38.0933 10.2613C38.0933 14.2617 40.36 16.282 43.6133 16.282C45.2 16.282 46.4 15.9231 47.3066 15.4181V12.7599C46.4001 13.2118 45.36 13.491 44.04 13.491C42.7466 13.491 41.6 13.039 41.4533 11.4707H47.9734C47.9734 11.2978 48 10.6068 48 10.2878ZM41.4133 9.02521C41.4133 7.52336 42.3334 6.89864 43.1734 6.89864C43.9867 6.89864 44.8534 7.52336 44.8534 9.02521H41.4133Z" fill="#6772E5"/>
</g>
<defs>
<clipPath id="clip0_1218_47">
<rect width="48" height="20" fill="white"/>
</clipPath>
</defs>
</svg>
