<svg width="20" height="21" viewBox="0 0 20 21" fill="none" xmlns="http://www.w3.org/2000/svg">
<mask id="mask0_991_277" style="mask-type:luminance" maskUnits="userSpaceOnUse" x="0" y="4" width="20" height="13">
<path d="M0 4.82812H20V16.8281H0V4.82812Z" fill="white"/>
</mask>
<g mask="url(#mask0_991_277)">
<path fill-rule="evenodd" clip-rule="evenodd" d="M10 4.82812C7.33333 4.82812 5.66667 6.16146 5 8.82813C6 7.49479 7.16667 6.99479 8.5 7.32812C9.26074 7.51813 9.80444 8.07035 10.4063 8.68109C11.3867 9.67627 12.5215 10.8281 15 10.8281C17.6667 10.8281 19.3333 9.49479 20 6.82813C19 8.16146 17.8333 8.66146 16.5 8.32812C15.7393 8.13813 15.1956 7.5859 14.5937 6.97516C13.6133 5.97998 12.4785 4.82812 10 4.82812ZM5 10.8281C2.33333 10.8281 0.666667 12.1615 0 14.8281C1 13.4948 2.16667 12.9948 3.5 13.3281C4.26074 13.5185 4.80444 14.0703 5.4063 14.6811C6.38667 15.6763 7.52148 16.8281 10 16.8281C12.6667 16.8281 14.3333 15.4948 15 12.8281C14 14.1615 12.8333 14.6615 11.5 14.3281C10.7393 14.1381 10.1956 13.5859 9.5937 12.9752C8.61333 11.98 7.47852 10.8281 5 10.8281Z" fill="#38BDF8"/>
</g>
</svg>
