<svg width="20" height="20" viewBox="0 0 20 20" fill="none" xmlns="http://www.w3.org/2000/svg">
<g clip-path="url(#clip0_1210_19)">
<path d="M18.0469 0H1.95312C0.874444 0 0 0.874444 0 1.95312V18.0469C0 19.1256 0.874444 20 1.95312 20H18.0469C19.1256 20 20 19.1256 20 18.0469V1.95312C20 0.874444 19.1256 0 18.0469 0Z" fill="url(#paint0_linear_1210_19)"/>
<path d="M16.4625 2.6H12.2375C11.7197 2.6 11.3 3.01973 11.3 3.5375V10.4125C11.3 10.9303 11.7197 11.35 12.2375 11.35H16.4625C16.9803 11.35 17.4 10.9303 17.4 10.4125V3.5375C17.4 3.01973 16.9803 2.6 16.4625 2.6Z" fill="white"/>
<path d="M7.76248 2.6H3.53748C3.01971 2.6 2.59998 3.01973 2.59998 3.5375V15.4125C2.59998 15.9303 3.01971 16.35 3.53748 16.35H7.76248C8.28024 16.35 8.69998 15.9303 8.69998 15.4125V3.5375C8.69998 3.01973 8.28024 2.6 7.76248 2.6Z" fill="white"/>
</g>
<defs>
<linearGradient id="paint0_linear_1210_19" x1="1000" y1="0" x2="1000" y2="2000" gradientUnits="userSpaceOnUse">
<stop stop-color="#0091E6"/>
<stop offset="1" stop-color="#0079BF"/>
</linearGradient>
<clipPath id="clip0_1210_19">
<rect width="20" height="20" fill="white"/>
</clipPath>
</defs>
</svg>
