<svg width="24" height="24" viewBox="0 0 24 24" fill="none" xmlns="http://www.w3.org/2000/svg">
<path fill-rule="evenodd" clip-rule="evenodd" d="M22 5.892C21.2512 6.2202 20.4573 6.43425 19.645 6.527C20.4962 6.02497 21.1359 5.23066 21.445 4.292C20.6377 4.76257 19.7571 5.09419 18.84 5.273C18.4536 4.8696 17.9894 4.54879 17.4755 4.32998C16.9616 4.11117 16.4086 3.99891 15.85 4C15.3156 3.99578 14.7856 4.0969 14.2903 4.29757C13.795 4.49824 13.3441 4.79454 12.9634 5.16953C12.5826 5.54453 12.2795 5.99086 12.0713 6.48305C11.8631 6.97523 11.7539 7.50361 11.75 8.038C11.7493 8.34736 11.7846 8.65576 11.855 8.957C10.2296 8.87949 8.63813 8.46391 7.18233 7.73678C5.72653 7.00966 4.43834 5.98697 3.4 4.734C3.03722 5.34941 2.8456 6.05063 2.845 6.765C2.84547 7.43262 3.01241 8.08959 3.33072 8.67644C3.64903 9.2633 4.10866 9.76151 4.668 10.126C4.01779 10.1068 3.38112 9.93555 2.809 9.626V9.676C2.8148 10.6148 3.14597 11.5225 3.74609 12.2444C4.3462 12.9663 5.1781 13.4578 6.1 13.635C5.74707 13.7293 5.38331 13.777 5.018 13.777C4.75836 13.7764 4.49931 13.7523 4.244 13.705C4.51331 14.512 5.02652 15.2154 5.71275 15.7182C6.39898 16.221 7.22439 16.4984 8.075 16.512C6.34562 17.8404 4.16557 18.4404 2 18.184C3.88216 19.3741 6.06415 20.004 8.291 20C9.8157 20.0229 11.3297 19.7424 12.745 19.1748C14.1603 18.6071 15.4485 17.7637 16.5348 16.6935C17.6211 15.6233 18.4836 14.3478 19.0724 12.9412C19.6611 11.5345 19.9642 10.0249 19.964 8.5C19.964 8.323 19.964 8.151 19.952 7.977C20.7548 7.41156 21.4486 6.70452 22 5.892Z" fill="currentColor"/>
</svg>
