<svg width="20" height="21" viewBox="0 0 20 21" fill="none" xmlns="http://www.w3.org/2000/svg">
<g clip-path="url(#clip0_991_203)">
<mask id="mask0_991_203" style="mask-type:luminance" maskUnits="userSpaceOnUse" x="0" y="0" width="20" height="21">
<path d="M20 0.828125H0V20.8281H20V0.828125Z" fill="white"/>
</mask>
<g mask="url(#mask0_991_203)">
<path d="M0 10.8281V0.828125H20V20.8281H0" fill="#007ACC"/>
<path d="M4.38501 10.8634V11.6784H6.98501V19.0784H8.83001V11.6784H11.43V10.8784C11.43 10.4284 11.43 10.0634 11.41 10.0534C11.41 10.0384 9.82501 10.0334 7.90001 10.0334L4.40001 10.0484V10.8684L4.38501 10.8634ZM16.07 10.0284C16.58 10.1484 16.97 10.3784 17.32 10.7434C17.505 10.9434 17.78 11.2934 17.8 11.3834C17.8 11.4134 16.935 11.9984 16.41 12.3234C16.39 12.3384 16.31 12.2534 16.23 12.1234C15.97 11.7534 15.705 11.5934 15.29 11.5634C14.69 11.5234 14.29 11.8384 14.29 12.3634C14.29 12.5234 14.32 12.6134 14.38 12.7434C14.515 13.0184 14.765 13.1834 15.54 13.5234C16.97 14.1384 17.59 14.5434 17.965 15.1234C18.39 15.7734 18.485 16.7934 18.2 17.5584C17.88 18.3934 17.1 18.9584 15.985 19.1434C15.635 19.2034 14.835 19.1934 14.46 19.1284C13.66 18.9784 12.895 18.5784 12.425 18.0634C12.24 17.8634 11.885 17.3284 11.905 17.2934L12.095 17.1734L12.845 16.7384L13.41 16.4084L13.54 16.5834C13.705 16.8434 14.075 17.1934 14.29 17.3134C14.94 17.6484 15.81 17.6034 16.24 17.2134C16.425 17.0434 16.505 16.8634 16.505 16.6134C16.505 16.3834 16.47 16.2784 16.355 16.1034C16.195 15.8834 15.875 15.7034 14.975 15.3034C13.94 14.8634 13.5 14.5834 13.09 14.1534C12.855 13.8934 12.64 13.4884 12.54 13.1534C12.465 12.8634 12.44 12.1534 12.51 11.8684C12.725 10.8684 13.48 10.1684 14.56 9.96836C14.91 9.89836 15.735 9.92836 16.08 10.0184L16.07 10.0284Z" fill="white"/>
</g>
</g>
<defs>
<clipPath id="clip0_991_203">
<rect width="20" height="21" fill="white"/>
</clipPath>
</defs>
</svg>
