<svg width="24" height="24" viewBox="0 0 24 24" fill="none" xmlns="http://www.w3.org/2000/svg">
<path d="M17.3599 12.6069H18.4341L18.1349 11.2396L18.0464 10.8304C18.0036 10.9469 17.9406 11.1105 17.904 11.2056C17.8847 11.2558 17.8727 11.2869 17.8749 11.2819L17.3599 12.6069Z" fill="currentColor"/>
<path fill-rule="evenodd" clip-rule="evenodd" d="M2 6.28381C2 5.17924 2.89543 4.28381 4 4.28381H20C21.1046 4.28381 22 5.17924 22 6.28381V18.2838C22 19.3884 21.1046 20.2838 20 20.2838H4C2.89543 20.2838 2 19.3884 2 18.2838V6.28381ZM14.4854 9.46553C14.8801 9.46283 15.2721 9.53063 15.6429 9.66576L15.674 9.65858L15.4929 10.6852L15.3733 10.6318C15.0672 10.5033 14.7375 10.4411 14.4057 10.4491C13.9071 10.4491 13.6686 10.6597 13.6686 10.8567C13.6686 11.0793 13.947 11.2261 14.3961 11.4454C15.1348 11.7837 15.4858 12.1929 15.4746 12.7345C15.4642 13.7165 14.5772 14.3555 13.2203 14.3555C12.6427 14.3459 12.0835 14.235 11.7732 14.1058L11.9543 13.0432L12.1131 13.1174C12.5414 13.2953 12.8198 13.3663 13.3296 13.3663C13.7005 13.3663 14.0993 13.2227 14.1025 12.906C14.1041 12.6978 13.9358 12.5511 13.4325 12.3181C12.9419 12.0916 12.2933 11.7095 12.3013 11.0314C12.3077 10.1085 13.2091 9.46553 14.4854 9.46553ZM17.9579 9.55168H18.955L20 14.2893H18.8034C18.8034 14.2893 18.6838 13.7452 18.6447 13.5785L16.9886 13.5769L16.7174 14.2893H15.3605L17.2782 9.94495C17.4138 9.63704 17.6475 9.55168 17.9579 9.55168ZM11.7589 9.5118H10.4658V9.5102L9.65851 14.2518H10.95L11.7589 9.5118ZM7.31725 12.7824L7.18323 12.1243L7.18243 12.1267L6.72774 9.94974C6.65196 9.64821 6.42461 9.55966 6.14222 9.54849H4.06101L4.04346 9.64821C4.48439 9.75233 4.91088 9.91012 5.31341 10.1181C5.3717 10.154 5.41418 10.2107 5.43226 10.2768L6.54905 14.2829H7.91553L9.95048 9.55168H8.58081L7.31725 12.7824Z" fill="currentColor"/>
</svg>
