<svg width="20" height="21" viewBox="0 0 20 21" fill="none" xmlns="http://www.w3.org/2000/svg">
<g clip-path="url(#clip0_991_181)">
<mask id="mask0_991_181" style="mask-type:luminance" maskUnits="userSpaceOnUse" x="0" y="0" width="21" height="21">
<path d="M20.2973 0.828125H0.297302V20.8281H20.2973V0.828125Z" fill="white"/>
</mask>
<g mask="url(#mask0_991_181)">
<path d="M10.2973 0.828125L19.1357 5.82813V15.8281L10.2973 20.8281L1.45898 15.8281V5.82813L10.2973 0.828125Z" fill="white"/>
<path d="M17.5573 15.4831L10.589 19.4248V16.3548L14.9306 13.9664L17.5573 15.4831ZM18.034 15.0514V6.80811L15.484 8.27978V13.5781L18.034 15.0514ZM3.00895 15.4831L9.97729 19.4248V16.3548L5.63562 13.9664L3.00895 15.4831ZM2.53229 15.0514V6.80811L5.08229 8.27978V13.5781L2.53229 15.0514ZM2.83062 6.27478L9.97729 2.23145V5.19978L5.39895 7.71811L5.36395 7.73811L2.83062 6.27478ZM17.7356 6.27478L10.589 2.23145V5.19978L15.1673 7.71811L15.2023 7.73811L17.7356 6.27478Z" fill="#8ED6FB"/>
<path d="M9.9773 15.6562L5.69397 13.3012V8.63449L9.9773 11.1078V15.6562ZM10.589 15.6562L14.8723 13.3012V8.63449L10.589 11.1078V15.6562ZM5.98397 8.09449L10.284 5.72949L14.584 8.09449L10.284 10.5778L5.98397 8.09449Z" fill="#1C78C0"/>
</g>
</g>
<defs>
<clipPath id="clip0_991_181">
<rect width="20" height="21" fill="white"/>
</clipPath>
</defs>
</svg>
