<svg width="24" height="24" viewBox="0 0 24 24" fill="none" xmlns="http://www.w3.org/2000/svg">
<path d="M1.776 22.0431L3.20587 16.8325C2.32251 15.3039 1.85852 13.5699 1.86065 11.8053C1.86298 6.26085 6.38366 1.75018 11.9389 1.75018C14.6347 1.75155 17.165 2.79862 19.068 4.69933C20.971 6.60003 22.018 9.12646 22.017 11.8134C22.0146 17.3575 17.4932 21.8689 11.9388 21.8689H11.9344C10.2478 21.8683 8.59058 21.446 7.11853 20.6448L1.776 22.0431Z" fill="white"/>
<path d="M11.9419 3.44882C7.32139 3.44882 3.56379 7.19787 3.56214 11.806C3.55987 13.3796 4.00383 14.9216 4.84271 16.2539L5.04201 16.5701L4.19565 19.6541L7.36604 18.8244L7.67218 19.0054C8.95795 19.767 10.4322 20.1697 11.9356 20.1706H11.9388C16.5557 20.1706 20.3134 16.4211 20.3151 11.8127C20.3186 10.7143 20.1038 9.62613 19.683 8.61117C19.2623 7.59621 18.644 6.67463 17.864 5.89979C17.0883 5.12071 16.1655 4.50293 15.1489 4.08222C14.1324 3.66151 13.0424 3.44622 11.9419 3.44882Z" fill="url(#paint0_linear_994_2)"/>
<path fill-rule="evenodd" clip-rule="evenodd" d="M9.41995 7.60158C9.2312 7.1831 9.03259 7.17463 8.85329 7.16738L8.37059 7.1615C8.20266 7.1615 7.92981 7.22439 7.69915 7.47594C7.46848 7.72749 6.81772 8.33545 6.81772 9.572C6.81772 10.8086 7.7201 12.0034 7.84584 12.1713C7.97159 12.3392 9.58788 14.9576 12.1475 15.965C14.2746 16.8023 14.7074 16.6358 15.1693 16.5939C15.6312 16.5521 16.6591 15.986 16.8689 15.3991C17.0786 14.8122 17.0787 14.3093 17.0158 14.2042C16.953 14.0991 16.785 14.0366 16.533 13.9108C16.281 13.785 15.0431 13.1771 14.8123 13.0931C14.5815 13.0092 14.4137 12.9675 14.2457 13.2191C14.0776 13.4706 13.5956 14.0365 13.4486 14.2042C13.3016 14.3719 13.1549 14.393 12.9029 14.2674C12.6509 14.1417 11.84 13.8762 10.8779 13.02C10.1293 12.3538 9.62404 11.5311 9.47693 11.2797C9.32982 11.0283 9.46131 10.8921 9.5876 10.7669C9.70061 10.6542 9.83936 10.4733 9.96551 10.3267C10.0917 10.18 10.1332 10.0751 10.217 9.90763C10.3008 9.74016 10.259 9.59306 10.196 9.46742C10.133 9.34178 9.64376 8.09866 9.41995 7.60158Z" fill="white"/>
<defs>
<linearGradient id="paint0_linear_994_2" x1="11.7681" y1="4.45229" x2="11.8527" y2="18.7421" gradientUnits="userSpaceOnUse">
<stop stop-color="#57D163"/>
<stop offset="1" stop-color="#23B33A"/>
</linearGradient>
</defs>
</svg>
