<svg width="20" height="21" viewBox="0 0 20 21" fill="none" xmlns="http://www.w3.org/2000/svg">
<mask id="mask0_991_173" style="mask-type:luminance" maskUnits="userSpaceOnUse" x="0" y="0" width="20" height="21">
<path d="M20 0.669922H0V20.2532H20V0.669922Z" fill="white"/>
</mask>
<g mask="url(#mask0_991_173)">
<path d="M15.5095 9.7694C15.5095 8.7518 15.1435 8.04739 14.8303 7.49899L14.7343 7.34299C14.3539 6.73099 14.0215 6.19339 14.0215 5.567C14.0215 4.811 14.5951 4.1054 15.4039 4.1054C15.4279 4.1054 15.4507 4.1078 15.4735 4.109L15.5107 4.1126C13.994 2.71957 12.0091 1.9477 9.94986 1.9502C8.58506 1.9495 7.24151 2.28839 6.04033 2.93632C4.83914 3.58427 3.81804 4.52089 3.06904 5.6618C3.26104 5.6678 3.44464 5.6726 3.59944 5.6726C4.45984 5.6726 5.79304 5.5682 5.79304 5.5682C6.23704 5.5418 6.28984 6.19339 5.84584 6.24619C5.84584 6.24619 5.40064 6.29899 4.90384 6.32419L7.90384 15.245L9.70386 9.8378L8.41986 6.32299C7.97704 6.29659 7.55704 6.245 7.55704 6.245C7.11304 6.2186 7.16584 5.5394 7.60864 5.5658C7.60864 5.5658 8.96946 5.6702 9.77826 5.6702C10.6399 5.6702 11.9743 5.5658 11.9743 5.5658C12.4183 5.5394 12.4699 6.1922 12.0259 6.245C12.0259 6.245 11.5795 6.29659 11.0839 6.32299L14.0599 15.1754L14.8807 12.431L14.9455 12.2234C15.2695 11.1914 15.5083 10.4294 15.5083 9.7682L15.5095 9.7694ZM1.71424 10.1858C1.71416 11.7323 2.14946 13.2476 2.97031 14.5582C3.79118 15.8688 4.96444 16.922 6.35584 17.597L2.42584 6.83299C1.95524 7.88803 1.71274 9.03052 1.71424 10.1858Z" fill="#21759B"/>
<path d="M7.62299 18.0856L10.0949 10.906L12.6257 17.842C12.6425 17.8816 12.6618 17.9188 12.6846 17.9548C11.0531 18.5296 9.28199 18.5753 7.62299 18.0856ZM17.175 6.23438C17.211 6.49718 17.2314 6.77797 17.2314 7.08157C17.2314 7.91677 17.0753 8.85637 16.605 10.0312L14.0897 17.3032C15.9458 16.2248 17.3073 14.4641 17.8838 12.3964C18.4604 10.3287 18.2065 8.11756 17.1762 6.23438H17.175Z" fill="#21759B"/>
<path fill-rule="evenodd" clip-rule="evenodd" d="M0.412476 10.2699C0.412476 4.97672 4.71928 0.669922 10.0125 0.669922C15.3045 0.669922 19.6125 4.97672 19.6125 10.2699C19.6125 15.5631 15.3045 19.8699 10.0125 19.8699C4.71928 19.8699 0.412476 15.5631 0.412476 10.2699ZM0.85288 10.2699C0.85288 15.3207 4.96167 19.4295 10.0125 19.4295C15.0621 19.4295 19.1709 15.3207 19.1709 10.2699C19.1709 5.21792 15.0621 1.11032 10.0125 1.11032C4.96047 1.11032 0.85288 5.21792 0.85288 10.2699Z" fill="#21759B"/>
</g>
</svg>
