<svg width="20" height="20" viewBox="0 0 20 20" fill="none" xmlns="http://www.w3.org/2000/svg">
<path d="M13.7243 0H10.8665C8.0584 0 5.67702 2.2665 5.67702 6.66695C5.67702 9.30681 6.83029 11.2531 8.88569 12.2133L5.05027 19.5735C4.92474 19.8138 5.05027 20 5.25072 20H7.03065C7.18104 20 7.28171 19.9469 7.33178 19.8138L10.8163 12.5868H12.0698V19.8138C12.0698 19.8932 12.1447 20 12.245 20H13.7995C13.9499 20 14 19.9201 14 19.7874V0.266602C14.0001 0.0799238 13.9 0 13.7243 0ZM12.0697 10.8803H11.0168C9.36241 10.8803 7.75817 9.60024 7.75817 6.40025C7.75817 3.0664 9.26218 1.70656 10.7911 1.70656H12.0698L12.0697 10.8803Z" fill="#FF0303"/>
</svg>
