<svg width="20" height="21" viewBox="0 0 20 21" fill="none" xmlns="http://www.w3.org/2000/svg">
<g clip-path="url(#clip0_991_216)">
<mask id="mask0_991_216" style="mask-type:luminance" maskUnits="userSpaceOnUse" x="0" y="0" width="21" height="21">
<path d="M20.2957 0.828125H0.297302V20.8281H20.2957V0.828125Z" fill="white"/>
</mask>
<g mask="url(#mask0_991_216)">
<path d="M10.301 0.828128C15.7656 0.838859 20.152 5.18654 20.2924 10.557C20.4409 16.3253 15.7416 20.9569 10.0674 20.8257C4.76221 20.7051 0.541645 16.4714 0.308041 11.2916C0.0480211 5.55139 4.64004 0.824 10.301 0.828128Z" fill="#3398C2"/>
<path d="M6.61784 7.83121C6.68305 7.57779 6.77715 7.33263 6.89767 7.09903C7.01571 6.87368 7.1841 6.70529 7.42844 6.62439C7.60343 6.56743 7.74954 6.46673 7.88079 6.33383C8.34387 5.86827 8.906 5.59752 9.55977 5.52488C9.66708 5.51415 9.72156 5.47453 9.76283 5.37382C9.86106 5.13527 9.98323 4.90579 10.145 4.70273C10.3588 4.43363 10.6147 4.23304 10.9845 4.2545C11.2181 4.26771 11.4129 4.36594 11.5549 4.55414C11.7142 4.76381 11.8322 4.99824 11.9462 5.23432C11.9833 5.31109 12.0139 5.33915 12.108 5.31934C12.453 5.24258 12.7328 5.39363 12.8814 5.71474C13.0539 6.09032 13.1373 6.48819 13.1786 6.89514C13.2661 7.74123 13.2091 8.57412 12.9227 9.38472C12.7543 9.86101 12.5182 10.3026 12.2301 10.7178C12.1955 10.7682 12.1864 10.8012 12.2342 10.8532C13.006 11.7191 13.3841 12.7286 13.3404 13.8917V13.9751C13.3948 13.9776 13.4369 13.9445 13.4782 13.9223C13.8191 13.7473 14.1295 13.5244 14.4729 13.3519C14.9558 13.1092 15.461 12.9391 16.0091 12.9433C16.8197 12.9499 17.3405 13.739 17.0013 14.4423C16.8675 14.7196 16.6496 14.9169 16.35 14.9821C15.8035 15.1043 15.3182 15.3519 14.8551 15.6557C14.0924 16.1625 13.257 16.539 12.3828 16.827C12.3242 16.8469 12.2689 16.8708 12.2186 16.9104C11.985 17.0854 11.7117 17.1572 11.427 17.1968C10.5635 17.3174 9.69597 17.3694 8.82593 17.4065C8.46769 17.4222 8.11109 17.3735 7.79411 17.1836C7.70909 17.1308 7.6348 17.0326 7.5473 17.0177C7.46228 17.0045 7.3657 17.0829 7.2716 17.1052C6.71442 17.2299 6.1919 17.125 5.70901 16.832C5.42257 16.6595 5.2872 16.3862 5.30206 16.0495C5.30619 15.9595 5.2806 15.8943 5.22777 15.8225C4.99581 15.4989 4.88273 15.1299 4.81917 14.7403C4.69452 13.9734 4.96775 13.3395 5.47458 12.784C5.52246 12.7311 5.53979 12.6791 5.53979 12.609C5.53979 11.8421 5.6859 11.1116 6.07964 10.443C6.30004 10.069 6.58482 9.74792 6.90179 9.45736C6.96288 9.40288 6.96948 9.36573 6.92821 9.29557C6.79448 9.0727 6.71194 8.82754 6.6393 8.57825C6.57821 8.5345 6.61784 8.46681 6.59307 8.41233C6.58895 8.37106 6.59307 8.32896 6.57987 8.28769V8.01446C6.5906 7.97484 6.5906 7.93357 6.5906 7.89229C6.6005 7.87248 6.59637 7.84607 6.61784 7.83121Z" fill="#FEFEFE"/>
<path d="M6.61122 8.41107C6.62855 8.46555 6.60709 8.52664 6.63929 8.57947C6.63021 8.58607 6.63021 8.62982 6.61782 8.59928C6.59389 8.54067 6.57655 8.47463 6.57655 8.41107C6.57242 8.20141 6.55261 7.98927 6.61122 7.78125C6.6137 7.79858 6.61535 7.81592 6.6203 7.8316C6.61782 7.85141 6.61617 7.87122 6.6137 7.88856C6.59389 7.92571 6.61617 7.96945 6.59636 8.0066V8.29303C6.61122 8.33018 6.59223 8.37393 6.61122 8.41107Z" fill="#3298C3"/>
<path d="M12.7534 14.0062C12.7534 14.2076 12.7072 14.4041 12.6816 14.6005C12.6602 14.7731 12.6775 14.7929 12.8525 14.7623C13.2462 14.6946 13.602 14.5287 13.9454 14.3339C14.3127 14.1242 14.6627 13.8857 15.0556 13.7288C15.3594 13.6067 15.6698 13.5258 16 13.5258C16.2864 13.5258 16.4853 13.681 16.52 13.9261C16.553 14.1531 16.4284 14.3702 16.2006 14.4181C15.5493 14.556 14.9871 14.8771 14.439 15.2337C13.7044 15.7083 12.9045 16.0509 12.0716 16.3134C12.0411 16.3224 12.0015 16.329 11.9816 16.348C11.7852 16.556 11.5252 16.5907 11.2627 16.6254C10.5264 16.722 9.7851 16.7649 9.04219 16.8086C8.82839 16.8218 8.61378 16.8284 8.39998 16.7872C8.05907 16.7195 7.91461 16.5924 7.86261 16.3125C7.81638 16.0608 7.93442 15.823 8.18619 15.6588C8.2126 15.6414 8.24067 15.6241 8.28277 15.5977C8.14739 15.5143 8.03596 15.4161 7.95093 15.2939C7.90966 15.237 7.88737 15.2725 7.87417 15.3203C7.83289 15.478 7.79079 15.6373 7.74952 15.795C7.72146 15.8998 7.68596 16.003 7.64221 16.1029C7.51509 16.3934 7.28396 16.5338 6.97772 16.5618C6.66487 16.5899 6.37018 16.5205 6.09035 16.3827C5.89802 16.2886 5.84106 16.1466 5.90462 15.9386C5.93764 15.8272 6.0012 15.7306 6.07715 15.6125C5.813 15.6654 5.69661 15.5118 5.60498 15.3261C5.39945 14.9192 5.32928 14.4891 5.41265 14.0433C5.48034 13.6892 5.68835 13.4011 5.93764 13.1519C6.08375 13.0057 6.1275 12.8654 6.12337 12.6599C6.09035 11.4729 6.53858 10.498 7.46144 9.74437C7.54233 9.67668 7.62323 9.60651 7.70825 9.54543C7.76108 9.50829 7.76686 9.48435 7.72393 9.42987C7.48538 9.13023 7.29965 8.805 7.21463 8.42694C7.11805 8.001 7.2625 7.6312 7.47712 7.27707C7.50766 7.2292 7.55554 7.20526 7.60837 7.18545C7.87747 7.08887 8.10447 6.94276 8.31001 6.73723C8.77309 6.27414 9.34596 6.062 10.0014 6.09007C10.0847 6.09419 10.1219 6.07026 10.1475 5.99184C10.2457 5.7054 10.3679 5.4297 10.5321 5.17463C10.5932 5.07806 10.6609 4.98891 10.7484 4.91709C10.9102 4.78337 11.048 4.80318 11.157 4.98065C11.3584 5.30176 11.5136 5.64762 11.6704 5.99266C11.7101 6.08016 11.7406 6.1107 11.8322 6.05127C11.9395 5.98358 12.0592 5.93571 12.1797 5.89361C12.2763 5.86059 12.3325 5.88288 12.3746 5.98358C12.4967 6.27827 12.5628 6.58699 12.5999 6.90397C12.6106 6.99147 12.6304 7.07649 12.6197 7.16399C12.6131 7.35384 12.6222 7.54452 12.6238 7.73685C12.6238 7.82188 12.5933 7.90772 12.6197 7.9944C12.5999 8.51443 12.4621 9.00641 12.2615 9.4827C12.0733 9.92844 11.8 10.3238 11.5268 10.7201C11.4195 10.8728 11.422 10.8752 11.5615 10.9999C12.2433 11.614 12.6197 12.3858 12.746 13.2864C12.7501 13.3211 12.7485 13.3582 12.7485 13.3954C12.7204 13.4787 12.751 13.5596 12.7526 13.6405C12.76 13.7635 12.732 13.8865 12.7534 14.0062Z" fill="#3398C2"/>
<path d="M12.6222 7.99575C12.5958 7.97429 12.6024 7.94292 12.6024 7.91486V7.24789C12.6024 7.21982 12.5958 7.18928 12.6222 7.16699C12.6511 7.44269 12.6527 7.72005 12.6222 7.99575Z" fill="#2B95C1"/>
<path d="M12.7535 14.0057C12.7097 13.8373 12.7444 13.6672 12.7336 13.4988C12.7312 13.4642 12.7204 13.4245 12.7535 13.3965C12.7815 13.5995 12.7774 13.8026 12.7535 14.0057Z" fill="#2693BF"/>
<path d="M6.59388 8.00671C6.59635 7.96709 6.57654 7.92334 6.61121 7.88867C6.61121 7.92747 6.61369 7.96957 6.59388 8.00671ZM6.61121 8.41119C6.57819 8.37652 6.59553 8.33277 6.59388 8.29315C6.61616 8.33029 6.61121 8.37156 6.61121 8.41119Z" fill="#3398C2"/>
</g>
</g>
<defs>
<clipPath id="clip0_991_216">
<rect width="20" height="21" fill="white"/>
</clipPath>
</defs>
</svg>
