<svg width="24" height="24" viewBox="0 0 24 24" fill="none" xmlns="http://www.w3.org/2000/svg">
<path fill-rule="evenodd" clip-rule="evenodd" d="M21.7 8.037C21.6064 7.32638 21.335 6.65087 20.911 6.073C20.3855 5.54365 19.6728 5.24228 18.927 5.234C16.16 5.034 12.001 5.034 12.001 5.034C12.001 5.034 7.84398 5.034 5.07298 5.234C4.32738 5.24211 3.61498 5.54352 3.08998 6.073C2.66409 6.65031 2.39221 7.32655 2.29998 8.038C2.17638 9.10235 2.10962 10.1725 2.09998 11.244V12.744C2.10956 13.8155 2.17632 14.8857 2.29998 15.95C2.39398 16.6621 2.66337 17.3397 3.08398 17.922C3.68767 18.4578 4.46386 18.7588 5.27098 18.77C6.85398 18.921 12.002 18.97 12.002 18.97C12.002 18.97 16.163 18.97 18.93 18.77C19.6762 18.7613 20.3892 18.4596 20.915 17.93C21.338 17.3514 21.6087 16.6757 21.702 15.965C21.8256 14.9006 21.8923 13.8305 21.902 12.759V11.243C21.8907 10.1715 21.8233 9.1014 21.7 8.037ZM10.008 14.591V8.971L15.408 11.79L10.008 14.591Z" fill="currentColor"/>
</svg>
