<svg width="24" height="24" viewBox="0 0 24 24" fill="none" xmlns="http://www.w3.org/2000/svg">
<path fill-rule="evenodd" clip-rule="evenodd" d="M16.4472 5.10558C16.786 5.27497 17 5.62123 17 6.00001V18C17 18.3788 16.786 18.725 16.4472 18.8944C16.1084 19.0638 15.703 19.0273 15.4 18.8L9 14V18C9 18.5523 8.55228 19 8 19C7.44772 19 7 18.5523 7 18V6.00001C7 5.44772 7.44772 5.00001 8 5.00001C8.55228 5.00001 9 5.44772 9 6.00001V10L15.4 5.20001C15.703 4.97274 16.1084 4.93619 16.4472 5.10558ZM9.66667 12L15 16V8.00001L9.66667 12Z" fill="currentColor"/>
</svg>
