<svg width="24" height="24" viewBox="0 0 24 24" fill="none" xmlns="http://www.w3.org/2000/svg">
<path fill-rule="evenodd" clip-rule="evenodd" d="M7.5 4.58579C7.87507 4.21071 8.38378 4 8.91421 4H15.0858C15.6162 4 16.1249 4.21071 16.5 4.58579L17.9142 6H19C20.1046 6 21 6.89543 21 8V18C21 19.1046 20.1046 20 19 20H5C3.89543 20 3 19.1046 3 18V8C3 6.89543 3.89543 6 5 6H6.08579L7.5 4.58579L8.20711 5.29289L7.5 4.58579ZM15.0858 6L8.91421 6L7.20711 7.70711C7.01957 7.89464 6.76522 8 6.5 8H5V18H19V8H17.5C17.2348 8 16.9804 7.89464 16.7929 7.70711L15.0858 6ZM12 10C10.8954 10 10 10.8954 10 12C10 13.1046 10.8954 14 12 14C13.1046 14 14 13.1046 14 12C14 10.8954 13.1046 10 12 10ZM8 12C8 9.79086 9.79086 8 12 8C14.2091 8 16 9.79086 16 12C16 14.2091 14.2091 16 12 16C9.79086 16 8 14.2091 8 12Z" fill="#101828"/>
</svg>
