<svg width="24" height="24" viewBox="0 0 24 24" fill="none" xmlns="http://www.w3.org/2000/svg">
<path fill-rule="evenodd" clip-rule="evenodd" d="M2 6C2 4.89543 2.89543 4 4 4H20C21.1046 4 22 4.89543 22 6V18C22 19.1046 21.1046 20 20 20H4C2.89543 20 2 19.1046 2 18V6ZM20 6H4V18H20V6ZM9.71298 10.688C9.45214 10.6764 9.1929 10.7343 8.96174 10.8557C8.73058 10.977 8.53578 11.1576 8.39725 11.3789C8.25871 11.6002 8.18141 11.8543 8.17322 12.1153C8.16504 12.3763 8.22627 12.6347 8.35067 12.8643C8.47506 13.0939 8.65816 13.2863 8.88126 13.4219C9.10436 13.5575 9.35947 13.6315 9.62052 13.6363C9.88157 13.6411 10.1392 13.5765 10.3671 13.4491C10.8492 13.1796 11.4585 13.352 11.7279 13.8341C11.9974 14.3162 11.825 14.9255 11.3429 15.1949C10.8059 15.495 10.199 15.6472 9.58394 15.636C8.96892 15.6247 8.36791 15.4504 7.8423 15.1309C7.31669 14.8113 6.88532 14.358 6.59225 13.8172C6.29918 13.2764 6.15492 12.6674 6.1742 12.0526C6.19348 11.4378 6.37562 10.8391 6.702 10.3177C7.02838 9.79634 7.48731 9.37092 8.0319 9.08494C8.5765 8.79896 9.18725 8.66267 9.80177 8.68997C10.4163 8.71728 11.0125 8.90722 11.5296 9.24038C11.9939 9.5395 12.1278 10.1584 11.8286 10.6226C11.5295 11.0869 10.9106 11.2208 10.4464 10.9216C10.2269 10.7802 9.97381 10.6996 9.71298 10.688ZM15.899 10.688C15.6381 10.6764 15.3789 10.7343 15.1477 10.8557C14.9166 10.977 14.7218 11.1576 14.5832 11.3789C14.4447 11.6002 14.3674 11.8543 14.3592 12.1153C14.351 12.3763 14.4123 12.6347 14.5367 12.8643C14.6611 13.0939 14.8442 13.2863 15.0673 13.4219C15.2904 13.5575 15.5455 13.6315 15.8065 13.6363C16.0676 13.6411 16.3252 13.5765 16.5531 13.4491C17.0352 13.1796 17.6445 13.352 17.9139 13.8341C18.1834 14.3162 18.011 14.9255 17.5289 15.1949C16.9919 15.495 16.385 15.6472 15.7699 15.636C15.1549 15.6247 14.5539 15.4504 14.0283 15.1309C13.5027 14.8113 13.0713 14.358 12.7783 13.8172C12.4852 13.2764 12.3409 12.6674 12.3602 12.0526C12.3795 11.4378 12.5616 10.8391 12.888 10.3177C13.2144 9.79634 13.6733 9.37092 14.2179 9.08494C14.7625 8.79896 15.3733 8.66267 15.9878 8.68997C16.6023 8.71728 17.1985 8.90722 17.7156 9.24038C18.1799 9.5395 18.3138 10.1584 18.0146 10.6226C17.7155 11.0869 17.0966 11.2208 16.6324 10.9216C16.4129 10.7802 16.1598 10.6996 15.899 10.688Z" fill="#101828"/>
</svg>
