<svg width="24" height="24" viewBox="0 0 24 24" fill="none" xmlns="http://www.w3.org/2000/svg">
<path fill-rule="evenodd" clip-rule="evenodd" d="M3 5C3 3.89543 3.89543 3 5 3H8.99983C8.99971 3 8.99994 3 8.99983 3H13.9998C13.9997 3 13.9999 3 13.9998 3H19C20.1046 3 21 3.89543 21 5V19C21 20.1046 20.1046 21 19 21H5C3.89543 21 3 20.1046 3 19V5ZM5 9V19H19V9H5ZM19 7V5.41421L17.4142 7H19ZM14.5858 7L16.5858 5H14.4142L12.4142 7H14.5858ZM9.58579 7L11.5858 5H9.41421L7.41421 7H9.58579ZM5 6.58579L6.58579 5H5V6.58579ZM9.55279 10.1056C9.89157 9.93618 10.297 9.97274 10.6 10.2L14.6 13.2C14.8518 13.3889 15 13.6852 15 14C15 14.3148 14.8518 14.6111 14.6 14.8L10.6 17.8C10.297 18.0273 9.89157 18.0638 9.55279 17.8944C9.214 17.725 9 17.3788 9 17V11C9 10.6212 9.214 10.275 9.55279 10.1056ZM11 13V15L12.3333 14L11 13Z" fill="currentColor"/>
</svg>
