<svg width="24" height="24" viewBox="0 0 24 24" fill="none" xmlns="http://www.w3.org/2000/svg">
<path fill-rule="evenodd" clip-rule="evenodd" d="M3 5C3 3.89543 3.89543 3 5 3H19C20.1046 3 21 3.89543 21 5V6C21 6.55228 20.5523 7 20 7C19.4477 7 19 6.55228 19 6V5H5V11H9C9.55228 11 10 11.4477 10 12C10 12.5523 9.55228 13 9 13H5V15H9C9.55228 15 10 15.4477 10 16C10 16.5523 9.55228 17 9 17H5C3.89543 17 3 16.1046 3 15V5ZM11 9C11 8.44772 11.4477 8 12 8H20C20.5523 8 21 8.44772 21 9V20C21 20.5523 20.5523 21 20 21H9C8.44772 21 8 20.5523 8 20C8 19.4477 8.44772 19 9 19H11V9ZM13 19H19V10H13V19ZM14 16C14 14.8954 14.8954 14 16 14C17.1046 14 18 14.8954 18 16C18 17.1046 17.1046 18 16 18C14.8954 18 14 17.1046 14 16Z" fill="currentColor"/>
</svg>
