<svg width="24" height="24" viewBox="0 0 24 24" fill="none" xmlns="http://www.w3.org/2000/svg">
<path fill-rule="evenodd" clip-rule="evenodd" d="M7.55279 5.10558C7.89157 4.93619 8.29698 4.97274 8.6 5.20001L15 10V6.00001C15 5.44772 15.4477 5.00001 16 5.00001C16.5523 5.00001 17 5.44772 17 6.00001V18C17 18.5523 16.5523 19 16 19C15.4477 19 15 18.5523 15 18V14L8.6 18.8C8.29698 19.0273 7.89157 19.0638 7.55279 18.8944C7.214 18.725 7 18.3788 7 18V6.00001C7 5.62123 7.214 5.27497 7.55279 5.10558ZM14.3333 12L9 8.00001V16L14.3333 12Z" fill="currentColor"/>
</svg>
