<svg width="24" height="24" viewBox="0 0 24 24" fill="none" xmlns="http://www.w3.org/2000/svg">
<path fill-rule="evenodd" clip-rule="evenodd" d="M19.7326 3.29581C20.1215 3.68794 20.1189 4.3211 19.7268 4.71001L16.4284 7.98134L17.03 7.98134C17.5823 7.98135 18.03 8.42907 18.03 8.98135C18.03 9.53364 17.5823 9.98135 17.03 9.98134L14.0001 9.98132C13.4478 9.98132 13.0001 9.53361 13.0001 8.98132V5.99998C13.0001 5.44769 13.4478 4.99998 14.0001 4.99998C14.5524 4.99998 15.0001 5.44769 15.0001 5.99998V6.5811L18.3184 3.28999C18.7105 2.90107 19.3437 2.90368 19.7326 3.29581ZM7.38482 6.52221C6.04736 7.85135 5.73623 9.20421 6.01668 10.5512C6.3131 11.9751 7.29844 13.5053 8.79896 15.0061C10.2995 16.5069 11.8296 17.4933 13.2543 17.7917C14.6029 18.0742 15.9573 17.7651 17.289 16.4318C17.3099 16.4108 17.3318 16.3908 17.3546 16.3717L17.3549 16.3715C17.3552 16.3712 17.3557 16.3708 17.3564 16.3701L17.3621 16.3651C17.364 16.3634 17.3661 16.3615 17.3684 16.3593C17.3722 16.3558 17.3766 16.3517 17.3815 16.347C17.3978 16.3316 17.4179 16.3117 17.4411 16.2879C17.4877 16.24 17.5404 16.1826 17.5914 16.1232C17.6432 16.0631 17.6872 16.008 17.7193 15.9642C17.7327 15.9458 17.7411 15.9334 17.7457 15.9264C17.7749 15.8576 17.79 15.7835 17.79 15.7086C17.79 15.6271 17.7721 15.5466 17.7377 15.4729C17.7033 15.3991 17.6531 15.3338 17.5908 15.2817C17.5681 15.2627 17.5463 15.2427 17.5254 15.2218L16.3823 14.0779C16.1756 13.871 16.0474 13.8162 15.999 13.8017C15.9666 13.7921 15.9403 13.7895 15.8832 13.8086C15.8066 13.8343 15.6892 13.8967 15.5164 14.0327C15.3453 14.1673 15.1677 14.3347 14.9502 14.5429C14.4476 15.0413 13.7685 15.3211 13.0604 15.3211C12.3482 15.3211 11.6654 15.038 11.162 14.5344L11.162 14.5343L9.29095 12.662C9.29087 12.662 9.29079 12.6619 9.29071 12.6618C8.88496 12.256 8.4705 11.6822 8.40863 10.9475C8.3433 10.1717 8.68858 9.46805 9.28666 8.86827C9.32613 8.8279 9.36399 8.78934 9.40038 8.75228C9.57473 8.57474 9.71554 8.43134 9.83894 8.28629C9.98677 8.11253 10.0488 8.00403 10.0728 7.94005C10.0867 7.90291 10.0845 7.89579 10.0791 7.87799C10.0789 7.87734 10.0787 7.87667 10.0785 7.87598C10.0656 7.83339 10.0092 7.70034 9.7833 7.47423L8.5922 6.2823C8.47424 6.16425 8.38154 6.12184 8.32057 6.10432C8.25739 6.08616 8.18262 6.0818 8.0868 6.10143C7.87358 6.1451 7.61131 6.29885 7.38482 6.52221ZM7.6855 4.1421C8.45997 3.98348 9.30422 4.1654 10.0069 4.86858L11.198 6.06051C11.5676 6.43037 11.8536 6.83722 11.9926 7.29638C12.1387 7.77881 12.0974 8.23619 11.9459 8.64106C11.8039 9.02047 11.5725 9.33514 11.3623 9.58224C11.1879 9.78725 10.9861 9.99238 10.8111 10.1703C10.7773 10.2046 10.7446 10.238 10.7132 10.2701L10.7052 10.2782L10.7052 10.2782C10.3856 10.5978 10.3995 10.7564 10.4015 10.7789L10.4016 10.7797C10.4068 10.8416 10.4546 10.9972 10.7052 11.2478L10.7054 11.2481L12.5766 13.1206C12.7051 13.2491 12.8791 13.3211 13.0604 13.3211C13.2417 13.3211 13.4157 13.2491 13.5442 13.1206L13.5597 13.1053C13.5757 13.09 13.5921 13.0743 13.6088 13.0583C13.9926 12.6897 14.5634 12.1417 15.2475 11.9124C15.6492 11.7777 16.0994 11.7444 16.5715 11.8854C17.0277 12.0217 17.4322 12.2991 17.7971 12.6642L18.9126 13.7806C19.1817 14.0149 19.3989 14.3032 19.5499 14.6268C19.7081 14.9655 19.79 15.3348 19.79 15.7086C19.79 16.0824 19.7081 16.4516 19.5499 16.7903C19.4372 17.0317 19.2341 17.2806 19.1075 17.4277C18.9762 17.5802 18.816 17.75 18.6769 17.8722C16.8978 19.6385 14.8756 20.1747 12.8443 19.7493C10.8786 19.3375 9.01494 18.0508 7.38463 16.4202C5.75427 14.7896 4.46799 12.925 4.05866 10.9589C3.63342 8.91636 4.18217 6.88455 5.97638 5.10224L5.97847 5.10017L5.97847 5.10017C6.3788 4.70483 6.97281 4.28807 7.6855 4.1421Z" fill="#383838"/>
</svg>
