<svg width="24" height="24" viewBox="0 0 24 24" fill="none" xmlns="http://www.w3.org/2000/svg">
<path fill-rule="evenodd" clip-rule="evenodd" d="M17.3162 4.05132L17 5.00001C17.3162 4.05132 17.3167 4.05147 17.3171 4.05161L17.318 4.05193L17.3201 4.05263L17.3252 4.05434L17.3385 4.05895C17.3488 4.06257 17.3621 4.06727 17.3779 4.07309C17.4097 4.08474 17.4523 4.10091 17.5041 4.12189C17.6076 4.16377 17.7491 4.22525 17.916 4.30871C18.2475 4.47449 18.6918 4.73314 19.1402 5.10679C20.0443 5.86024 21 7.11891 21 9.00001C21 9.55229 20.5523 10 20 10C19.4477 10 19 9.55229 19 9.00001C19 7.96961 18.5384 7.25942 18 6.76572V15.5C18 15.6135 17.9811 15.7225 17.9463 15.8242C17.9815 16.0089 18 16.201 18 16.4C18 18.4745 15.9894 19.8 14 19.8C12.0106 19.8 10 18.4745 10 16.4C10 14.3255 12.0106 13 14 13C14.6927 13 15.3879 13.1607 16 13.4578V5.00001C16 4.67856 16.1545 4.37672 16.4153 4.18877C16.6761 4.00081 17.0113 3.94967 17.3162 4.05132ZM3 6.00001C3 5.44772 3.44772 5.00001 4 5.00001H13C13.5523 5.00001 14 5.44772 14 6.00001C14 6.55229 13.5523 7.00001 13 7.00001H4C3.44772 7.00001 3 6.55229 3 6.00001ZM3 10C3 9.44772 3.44772 9.00001 4 9.00001H13C13.5523 9.00001 14 9.44772 14 10C14 10.5523 13.5523 11 13 11H4C3.44772 11 3 10.5523 3 10ZM3 14C3 13.4477 3.44772 13 4 13H8C8.55228 13 9 13.4477 9 14C9 14.5523 8.55228 15 8 15H4C3.44772 15 3 14.5523 3 14ZM14 15C12.6757 15 12 15.8235 12 16.4C12 16.9765 12.6757 17.8 14 17.8C15.3243 17.8 16 16.9765 16 16.4C16 15.8235 15.3243 15 14 15Z" fill="#101828"/>
</svg>
