<svg width="24" height="24" viewBox="0 0 24 24" fill="none" xmlns="http://www.w3.org/2000/svg">
<path fill-rule="evenodd" clip-rule="evenodd" d="M11.0042 4.03735C9.90646 4.03735 9.0166 4.92721 9.0166 6.02491V7.60239L14.0829 12.6687C14.6258 12.3133 14.9834 11.6996 14.9834 11.0042V6.02491C14.9834 4.92721 14.0936 4.03735 12.9959 4.03735H11.0042ZM15.5119 14.0976C16.4094 13.3669 16.9834 12.2533 16.9834 11.0042V6.02491C16.9834 3.82264 15.1981 2.03735 12.9959 2.03735H11.0042C8.93774 2.03735 7.23844 3.60919 7.03666 5.62245L5.73616 4.32195C5.34564 3.93142 4.71247 3.93142 4.32195 4.32195C3.93142 4.71247 3.93142 5.34564 4.32195 5.73616L18.2639 19.6781C18.6544 20.0686 19.2875 20.0686 19.6781 19.6781C20.0686 19.2875 20.0686 18.6544 19.6781 18.2639L17.9193 16.5051C18.0217 16.4159 18.1213 16.3229 18.2179 16.2262C19.3386 15.1055 19.9691 13.5861 19.971 12.0012L19.971 9.01246C19.971 8.46017 19.5232 8.01246 18.971 8.01246C18.4187 8.01246 17.971 8.46017 17.971 9.01246L17.971 11.9988C17.971 11.9986 17.971 11.9991 17.971 11.9988C17.9695 13.0538 17.5498 14.066 16.8037 14.812C16.7068 14.9089 16.6055 15.0003 16.5002 15.0859L15.5119 14.0976ZM5.02905 9.00831C5.58134 9.00831 6.02905 9.45602 6.02905 10.0083V11.9994C6.03047 13.0545 6.45022 14.0659 7.1963 14.812C7.94233 15.5581 8.95374 15.9778 10.0088 15.9793C10.0085 15.9793 10.009 15.9793 10.0088 15.9793H12C12.5523 15.9793 13 16.427 13 16.9793V19.9627H14.9876C15.5398 19.9627 15.9876 20.4104 15.9876 20.9627C15.9876 21.5149 15.5398 21.9627 14.9876 21.9627H9.01246C8.46017 21.9627 8.01246 21.5149 8.01246 20.9627C8.01246 20.4104 8.46017 19.9627 9.01246 19.9627H11V17.9793L10.0071 17.9793C8.42221 17.9774 6.90277 17.3469 5.78208 16.2262C4.66139 15.1055 4.03095 13.5861 4.02905 12.0012L4.02905 10.0083C4.02905 9.45602 4.47677 9.00831 5.02905 9.00831Z" fill="#101828"/>
</svg>
