<svg width="24" height="24" viewBox="0 0 24 24" fill="none" xmlns="http://www.w3.org/2000/svg">
<path fill-rule="evenodd" clip-rule="evenodd" d="M19.831 5.68729C20.245 5.32169 20.2842 4.68974 19.9186 4.27579C19.553 3.86183 18.9211 3.82263 18.5071 4.18822L17.0132 5.50757L15.5408 4.19204C15.129 3.82407 14.4968 3.85965 14.1288 4.2715C13.7609 4.68334 13.7964 5.31551 14.2083 5.68348L15.5543 6.88604L14.1674 8.27287C13.7769 8.6634 13.7769 9.29656 14.1674 9.68708C14.558 10.0776 15.1911 10.0776 15.5816 9.68708L17.0109 8.25788L18.4634 9.70446C18.8548 10.0942 19.4879 10.0929 19.8776 9.70153C20.2674 9.3102 20.266 8.67703 19.8747 8.28732L18.4705 6.88889L19.831 5.68729ZM6.01668 10.5513C5.73624 9.20428 6.04735 7.85142 7.38479 6.52229C7.61129 6.29892 7.87358 6.14515 8.0868 6.10148C8.18262 6.08186 8.2574 6.08621 8.32057 6.10437C8.38154 6.1219 8.47424 6.16431 8.5922 6.28235L9.7833 7.47428C10.0092 7.70039 10.0656 7.83344 10.0785 7.87603L10.0791 7.87805C10.0845 7.89585 10.0867 7.90296 10.0728 7.94011C10.0488 8.00409 9.98677 8.11258 9.83894 8.28635C9.71554 8.4314 9.57473 8.57479 9.40039 8.75233L9.28668 8.8683C8.68859 9.46809 8.3433 10.1718 8.40863 10.9476C8.4705 11.6822 8.88496 12.256 9.29071 12.6619L9.29095 12.6621L11.162 14.5344L11.162 14.5344C11.6654 15.0381 12.3482 15.3212 13.0604 15.3212C13.7685 15.3212 14.4476 15.0413 14.9502 14.543C15.1677 14.3347 15.3453 14.1673 15.5164 14.0327C15.6892 13.8968 15.8066 13.8344 15.8832 13.8087C15.9403 13.7895 15.9666 13.7921 15.999 13.8018C16.0474 13.8163 16.1756 13.8711 16.3823 14.0779L17.5254 15.2218C17.5463 15.2428 17.5681 15.2627 17.5908 15.2817C17.6531 15.3339 17.7033 15.3991 17.7377 15.4729C17.7721 15.5467 17.79 15.6271 17.79 15.7086C17.79 15.7836 17.7749 15.8577 17.7457 15.9265C17.7411 15.9335 17.7327 15.9459 17.7193 15.9642C17.6872 16.0081 17.6432 16.0632 17.5914 16.1233C17.5404 16.1827 17.4877 16.24 17.4411 16.288C17.4179 16.3118 17.3978 16.3316 17.3815 16.3471C17.3735 16.3547 17.367 16.3607 17.3621 16.3652L17.3564 16.3702L17.3549 16.3715L17.3546 16.3718C17.3318 16.3908 17.3099 16.4109 17.289 16.4319C15.9573 17.7651 14.6029 18.0743 13.2543 17.7918C11.8296 17.4934 10.2995 16.5069 8.79896 15.0061C7.29844 13.5054 6.3131 11.9751 6.01668 10.5513ZM10.0069 4.86864C9.30422 4.16545 8.45997 3.98353 7.6855 4.14216C6.97281 4.28813 6.3788 4.70488 5.97847 5.10023L5.97847 5.10022L5.97638 5.10229C4.18217 6.88461 3.63342 8.91641 4.05866 10.9589C4.46799 12.925 5.75427 14.7896 7.38463 16.4202C9.01494 18.0508 10.8786 19.3376 12.8443 19.7493C14.8756 20.1748 16.8978 19.6385 18.6769 17.8723C18.816 17.7501 18.9762 17.5803 19.1075 17.4277C19.2341 17.2806 19.4372 17.0318 19.5499 16.7904C19.7081 16.4517 19.79 16.0824 19.79 15.7086C19.79 15.3348 19.7081 14.9656 19.5499 14.6269C19.3989 14.3032 19.1817 14.015 18.9126 13.7806L17.7971 12.6642C17.4322 12.2991 17.0277 12.0218 16.5715 11.8855C16.0994 11.7444 15.6492 11.7777 15.2475 11.9124C14.5634 12.1417 13.9926 12.6898 13.6088 13.0584L13.5597 13.1054L13.5442 13.1206C13.4157 13.2491 13.2417 13.3212 13.0604 13.3212C12.8791 13.3212 12.7051 13.2491 12.5766 13.1206L10.7054 11.2481L10.7052 11.2479C10.4546 10.9973 10.4068 10.8416 10.4016 10.7798L10.4015 10.7789C10.3995 10.7564 10.3856 10.5978 10.7052 10.2782L10.7052 10.2783L10.7132 10.2701L10.8111 10.1704C10.9861 9.99243 11.1879 9.78731 11.3623 9.58229C11.5725 9.33519 11.8039 9.02052 11.9459 8.64112C12.0974 8.23624 12.1387 7.77886 11.9926 7.29644C11.8536 6.83728 11.5676 6.43043 11.198 6.06057L10.0069 4.86864Z" fill="#383838"/>
</svg>
