<svg width="24" height="24" viewBox="0 0 24 24" fill="none" xmlns="http://www.w3.org/2000/svg">
<path fill-rule="evenodd" clip-rule="evenodd" d="M18.6216 3.21667C18.8607 3.40637 19 3.69484 19 4.00001V7.97978C19.0003 7.99388 19.0003 8.00795 19 8.02197V15.6667C19 15.7079 18.9975 15.7486 18.9927 15.7885C18.9975 15.8584 19 15.9289 19 16C19 17.6569 17.6569 19 16 19C14.3431 19 13 17.6569 13 16C13 14.3432 14.3431 13 16 13C16.3506 13 16.6872 13.0602 17 13.1707V9.2602L9 11.1269V18C9 19.6569 7.65685 21 6 21C4.34315 21 3 19.6569 3 18C3 16.3432 4.34315 15 6 15C6.35064 15 6.68722 15.0602 7 15.1707V10.3536C6.9997 10.3395 6.9997 10.3254 7 10.3114V6.33334C7 5.8686 7.32018 5.46511 7.77277 5.3595L17.7728 3.02617C18.07 2.95682 18.3825 3.02698 18.6216 3.21667ZM9 9.07315L17 7.20648V5.2602L9 7.12687V9.07315ZM7 18C7 17.4477 6.55228 17 6 17C5.44772 17 5 17.4477 5 18C5 18.5523 5.44772 19 6 19C6.55228 19 7 18.5523 7 18ZM16 15C15.4477 15 15 15.4477 15 16C15 16.5523 15.4477 17 16 17C16.5523 17 17 16.5523 17 16C17 15.4477 16.5523 15 16 15Z" fill="#101828"/>
</svg>
