<svg width="24" height="24" viewBox="0 0 24 24" fill="none" xmlns="http://www.w3.org/2000/svg">
<path fill-rule="evenodd" clip-rule="evenodd" d="M11 5C11 4.44772 11.4477 4 12 4C13.5438 4 15.3242 4.75435 16.5149 6.16836C17.7497 7.63468 18.3035 9.75176 17.4487 12.3162C17.274 12.8402 16.7077 13.1233 16.1838 12.9487C15.6598 12.774 15.3767 12.2077 15.5513 11.6838C16.1965 9.74824 15.7503 8.36532 14.9851 7.45664C14.4407 6.8102 13.7107 6.37433 13 6.15825V16.5C13 18.433 11.433 20 9.5 20C7.567 20 6 18.433 6 16.5C6 14.567 7.567 13 9.5 13C10.0368 13 10.5454 13.1208 11 13.3368V5ZM11 16.5C11 15.6716 10.3284 15 9.5 15C8.67157 15 8 15.6716 8 16.5C8 17.3284 8.67157 18 9.5 18C10.3284 18 11 17.3284 11 16.5Z" fill="currentColor"/>
</svg>
