<svg width="24" height="24" viewBox="0 0 24 24" fill="none" xmlns="http://www.w3.org/2000/svg">
<path fill-rule="evenodd" clip-rule="evenodd" d="M15.9926 3C15.4403 3 14.9926 3.44771 14.9926 3.99999C14.9926 4.55228 15.4403 5 15.9926 5L16.5942 5L13.2958 8.27133C12.9037 8.66024 12.9011 9.2934 13.29 9.68553C13.6789 10.0777 14.3121 10.0803 14.7042 9.69136L18.0225 6.40024V6.98137C18.0225 7.53365 18.4703 7.98137 19.0225 7.98137C19.5748 7.98137 20.0225 7.53365 20.0225 6.98137V4.00002C20.0225 3.44774 19.5748 3.00003 19.0226 3.00002L15.9926 3ZM6.01668 10.5513C5.73624 9.20426 6.04735 7.85141 7.38479 6.52228C7.61129 6.29891 7.87358 6.14514 8.0868 6.10147C8.18262 6.08184 8.2574 6.0862 8.32057 6.10436C8.38154 6.12189 8.47424 6.1643 8.5922 6.28234L9.7833 7.47427C10.0092 7.70038 10.0656 7.83343 10.0785 7.87602L10.0791 7.87803C10.0845 7.89584 10.0867 7.90295 10.0728 7.94009C10.0488 8.00408 9.98677 8.11257 9.83894 8.28634C9.71554 8.43139 9.57473 8.57478 9.40039 8.75232L9.28668 8.86829C8.68859 9.46807 8.3433 10.1717 8.40863 10.9476C8.4705 11.6822 8.88496 12.256 9.29071 12.6619L9.29095 12.6621L11.162 14.5344L11.162 14.5344C11.6654 15.0381 12.3482 15.3212 13.0604 15.3212C13.7685 15.3212 14.4476 15.0413 14.9502 14.543C15.1677 14.3347 15.3453 14.1673 15.5164 14.0327C15.6892 13.8967 15.8066 13.8344 15.8832 13.8087C15.9403 13.7895 15.9666 13.7921 15.999 13.8018C16.0474 13.8162 16.1756 13.8711 16.3823 14.0779L17.5254 15.2218C17.5463 15.2427 17.5681 15.2627 17.5908 15.2817C17.6531 15.3339 17.7033 15.3991 17.7377 15.4729C17.7721 15.5467 17.79 15.6271 17.79 15.7086C17.79 15.7836 17.7749 15.8577 17.7457 15.9265C17.7411 15.9334 17.7327 15.9459 17.7193 15.9642C17.6872 16.008 17.6432 16.0632 17.5914 16.1233C17.5404 16.1827 17.4877 16.24 17.4411 16.288C17.4179 16.3118 17.3978 16.3316 17.3815 16.3471C17.376 16.3524 17.3712 16.3569 17.3671 16.3606C17.3653 16.3623 17.3636 16.3638 17.3621 16.3651L17.3564 16.3702L17.3549 16.3715L17.3546 16.3718C17.3318 16.3908 17.3099 16.4109 17.289 16.4318C15.9573 17.7651 14.6029 18.0743 13.2543 17.7918C11.8296 17.4934 10.2995 16.5069 8.79896 15.0061C7.29844 13.5054 6.3131 11.9751 6.01668 10.5513ZM10.0069 4.86862C9.30422 4.16544 8.45997 3.98352 7.6855 4.14214C6.97281 4.28811 6.3788 4.70487 5.97847 5.10022L5.97847 5.10021L5.97638 5.10228C4.18217 6.8846 3.63342 8.9164 4.05866 10.9589C4.46799 12.925 5.75427 14.7896 7.38463 16.4202C9.01494 18.0508 10.8786 19.3376 12.8443 19.7493C14.8756 20.1748 16.8978 19.6385 18.6769 17.8722C18.816 17.7501 18.9762 17.5803 19.1075 17.4277C19.2341 17.2806 19.4372 17.0318 19.5499 16.7904C19.7081 16.4517 19.79 16.0824 19.79 15.7086C19.79 15.3348 19.7081 14.9656 19.5499 14.6269C19.3989 14.3032 19.1817 14.015 18.9126 13.7806L17.7971 12.6642C17.4322 12.2991 17.0277 12.0218 16.5715 11.8855C16.0994 11.7444 15.6492 11.7777 15.2475 11.9124C14.5634 12.1417 13.9926 12.6898 13.6088 13.0583L13.5597 13.1054L13.5442 13.1206C13.4157 13.2491 13.2417 13.3212 13.0604 13.3212C12.8791 13.3212 12.7051 13.2491 12.5766 13.1206L10.7054 11.2481L10.7052 11.2479C10.4546 10.9973 10.4068 10.8416 10.4016 10.7798L10.4015 10.7789C10.3995 10.7564 10.3856 10.5978 10.7052 10.2782L10.7052 10.2783L10.7132 10.2701L10.8111 10.1703C10.9861 9.99242 11.1879 9.7873 11.3623 9.58228C11.5725 9.33518 11.8039 9.02051 11.9459 8.64111C12.0974 8.23623 12.1387 7.77885 11.9926 7.29643C11.8536 6.83727 11.5676 6.43042 11.198 6.06056L10.0069 4.86862Z" fill="currentColor"/>
</svg>
