<svg width="24" height="24" viewBox="0 0 24 24" fill="none" xmlns="http://www.w3.org/2000/svg">
<path fill-rule="evenodd" clip-rule="evenodd" d="M2 6C2 4.89543 2.89543 4 4 4H20C21.1046 4 22 4.89543 22 6V18C22 19.1046 21.1046 20 20 20H4C2.89543 20 2 19.1046 2 18V6ZM20 6H4V18H20V6ZM5.99591 9C5.99591 8.44772 6.44363 8 6.99591 8H7.00591C7.5582 8 8.00591 8.44772 8.00591 9C8.00591 9.55228 7.5582 10 7.00591 10H6.99591C6.44363 10 5.99591 9.55228 5.99591 9ZM10 9C10 8.44772 10.4477 8 11 8H17C17.5523 8 18 8.44772 18 9C18 9.55228 17.5523 10 17 10H11C10.4477 10 10 9.55228 10 9ZM5.99591 12C5.99591 11.4477 6.44363 11 6.99591 11H7.00591C7.5582 11 8.00591 11.4477 8.00591 12C8.00591 12.5523 7.5582 13 7.00591 13H6.99591C6.44363 13 5.99591 12.5523 5.99591 12ZM10 12C10 11.4477 10.4477 11 11 11H17C17.5523 11 18 11.4477 18 12C18 12.5523 17.5523 13 17 13H11C10.4477 13 10 12.5523 10 12ZM5.99591 15C5.99591 14.4477 6.44363 14 6.99591 14H7.00591C7.5582 14 8.00591 14.4477 8.00591 15C8.00591 15.5523 7.5582 16 7.00591 16H6.99591C6.44363 16 5.99591 15.5523 5.99591 15ZM10 15C10 14.4477 10.4477 14 11 14H17C17.5523 14 18 14.4477 18 15C18 15.5523 17.5523 16 17 16H11C10.4477 16 10 15.5523 10 15Z" fill="currentColor"/>
</svg>
