<svg width="24" height="24" viewBox="0 0 24 24" fill="none" xmlns="http://www.w3.org/2000/svg">
<path fill-rule="evenodd" clip-rule="evenodd" d="M16.2929 3.29289C16.6834 2.90237 17.3166 2.90237 17.7071 3.29289L20.7071 6.29289C21.0976 6.68342 21.0976 7.31658 20.7071 7.70711L17.7071 10.7071C17.3166 11.0976 16.6834 11.0976 16.2929 10.7071C15.9024 10.3166 15.9024 9.68342 16.2929 9.29289L17.5858 8H15.5207L14.3033 9.73941C13.9866 10.1919 13.3631 10.302 12.9106 9.98527C12.4581 9.66858 12.348 9.04506 12.6647 8.59259L14.1807 6.42659C14.3679 6.15923 14.6737 6 15 6H17.5858L16.2929 4.70711C15.9024 4.31658 15.9024 3.68342 16.2929 3.29289ZM3 7C3 6.44772 3.44772 6 4 6H8C8.32631 6 8.6321 6.15921 8.81923 6.42654L15.5207 16H17.5858L16.2929 14.7071C15.9024 14.3166 15.9024 13.6834 16.2929 13.2929C16.6834 12.9024 17.3166 12.9024 17.7071 13.2929L20.7071 16.2929C21.0976 16.6834 21.0976 17.3166 20.7071 17.7071L17.7071 20.7071C17.3166 21.0976 16.6834 21.0976 16.2929 20.7071C15.9024 20.3166 15.9024 19.6834 16.2929 19.2929L17.5858 18H15C14.6737 18 14.3679 17.8408 14.1808 17.5735L7.47934 8H4C3.44772 8 3 7.55228 3 7ZM10.1504 13.9278C10.6029 14.2445 10.7129 14.868 10.3962 15.3204L8.81925 17.5734C8.63212 17.8408 8.32632 18 8 18H4C3.44772 18 3 17.5523 3 17C3 16.4477 3.44772 16 4 16H7.47933L8.75775 14.1736C9.07445 13.7211 9.69798 13.611 10.1504 13.9278Z" fill="currentColor"/>
</svg>
