<svg width="24" height="24" viewBox="0 0 24 24" fill="none" xmlns="http://www.w3.org/2000/svg">
<path fill-rule="evenodd" clip-rule="evenodd" d="M2 7C2 5.89543 2.89543 5 4 5H14C15.1046 5 16 5.89543 16 7V7.61257L20.6838 6.05132C20.9887 5.94967 21.3239 6.00081 21.5847 6.18876C21.8455 6.37671 22 6.67856 22 7V17C22 17.3214 21.8455 17.6233 21.5847 17.8112C21.3239 17.9992 20.9887 18.0503 20.6838 17.9487L16 16.3874V17C16 18.1046 15.1046 19 14 19H4C2.89543 19 2 18.1046 2 17V7ZM16 14.2792L20 15.6126V8.38743L16 9.72076V14.2792ZM14 7H4V17H14V7Z" fill="currentColor"/>
</svg>
