<svg width="24" height="24" viewBox="0 0 24 24" fill="none" xmlns="http://www.w3.org/2000/svg">
<path fill-rule="evenodd" clip-rule="evenodd" d="M4.29289 4.29289C4.68342 3.90237 5.31658 3.90237 5.70711 4.29289L7.69773 6.28352L9.71963 4.5986C11.0223 3.51305 13 4.43937 13 6.13504V11.5858L15.4105 13.9963C15.805 13.3354 16 12.6056 16 12C16 10.8808 15.5417 9.87051 14.8 9.14338C14.4056 8.75676 14.3993 8.12362 14.7859 7.72924C15.1725 7.33485 15.8057 7.32856 16.2 7.71518C17.3097 8.80297 18 10.3218 18 12C18 13.107 17.616 14.3699 16.8545 15.4403L18.2876 16.8734C19.5974 15.6355 20 13.752 20 12C20 9.79058 19.1057 7.79196 17.6569 6.34315C17.2663 5.95262 17.2663 5.31946 17.6569 4.92893C18.0474 4.53841 18.6805 4.53841 19.0711 4.92893C20.8796 6.73748 22 9.23885 22 12C22 13.9377 21.5705 16.4977 19.7028 18.2885L19.7071 18.2929C20.0976 18.6834 20.0976 19.3166 19.7071 19.7071C19.3166 20.0976 18.6834 20.0976 18.2929 19.7071L14.7958 16.21C14.7948 16.209 14.7938 16.2081 14.7929 16.2071C14.7919 16.2062 14.791 16.2052 14.79 16.2042L11.2934 12.7076C11.2931 12.7073 11.2927 12.7069 11.2924 12.7066L4.29289 5.70711C3.90237 5.31658 3.90237 4.68342 4.29289 4.29289ZM11 9.58579L11 6.13504L9.11778 7.70356L11 9.58579ZM2 10C2 8.89544 2.89543 8.00001 4 8.00001C4.55228 8.00001 5 8.44773 5 9.00001C5 9.5523 4.55228 10 4 10V14H6C6.23394 14 6.46047 14.082 6.64018 14.2318L11 17.865V16.5C11 15.9477 11.4477 15.5 12 15.5C12.5523 15.5 13 15.9477 13 16.5V17.865C13 19.5606 11.0223 20.4869 9.71963 19.4014L5.63795 16H4C2.89543 16 2 15.1046 2 14V10Z" fill="currentColor"/>
</svg>
