<svg width="24" height="24" viewBox="0 0 24 24" fill="none" xmlns="http://www.w3.org/2000/svg">
<path fill-rule="evenodd" clip-rule="evenodd" d="M12 5C11.4477 5 11 5.44772 11 6C11 6.55228 11.4477 7 12 7C12.5523 7 13 6.55228 13 6C13 5.44772 12.5523 5 12 5ZM9 6C9 4.34315 10.3431 3 12 3C13.6569 3 15 4.34315 15 6C15 7.65685 13.6569 9 12 9C10.3431 9 9 7.65685 9 6ZM6 10.6487V17.6492C7.43701 17.6386 8.38204 17.816 9.30327 18.0939C9.63625 18.1944 9.97295 18.3104 10.3116 18.427C10.4256 18.4663 10.5398 18.5056 10.6541 18.5444C10.7664 18.5826 10.8814 18.6212 11 18.6601V11.7441C10.5153 11.5909 10.1139 11.448 9.7523 11.3193C8.57648 10.9007 7.82232 10.6322 6 10.6487ZM13 11.7436V18.6582C13.2293 18.5815 13.4406 18.5068 13.6491 18.4331C13.97 18.3196 14.2843 18.2085 14.6479 18.096C15.5697 17.8108 16.5149 17.6317 18 17.65V10.6497C16.1416 10.6243 15.4259 10.8846 14.2838 11.2999C13.9171 11.4333 13.5065 11.5826 13 11.7436ZM11.9997 9.95807C11.4957 9.80634 11.0524 9.64918 10.6279 9.49864C9.28862 9.02381 8.13534 8.61492 5.84795 8.65044C4.84875 8.66596 4 9.46415 4 10.5V17.7884C4 18.8762 4.91948 19.6632 5.92888 19.65C7.21188 19.6333 7.97513 19.7823 8.72559 20.0087C9.01848 20.097 9.30279 20.195 9.62923 20.3074C9.74983 20.3489 9.87618 20.3924 10.0108 20.4382C10.499 20.604 11.0576 20.7852 11.7444 20.9668C11.9119 21.011 12.0881 21.011 12.2556 20.9668C13.1276 20.7362 13.8605 20.4798 14.4547 20.2719C14.7505 20.1684 15.0119 20.0769 15.2391 20.0066C15.9648 19.7821 16.7046 19.6333 17.987 19.65C18.4889 19.6565 18.9676 19.4709 19.3277 19.1712C19.6895 18.8701 20 18.3902 20 17.7884V10.5C20 9.91889 19.7077 9.44981 19.3623 9.14973C19.0182 8.85069 18.5576 8.65805 18.0679 8.65044C15.8012 8.61524 14.6819 9.0195 13.3833 9.48855C12.957 9.6425 12.5115 9.80341 11.9997 9.95807Z" fill="#101828"/>
</svg>
