<svg width="24" height="24" viewBox="0 0 24 24" fill="none" xmlns="http://www.w3.org/2000/svg">
<path fill-rule="evenodd" clip-rule="evenodd" d="M3 4.92857C3 3.90506 3.80497 3 4.88889 3H19.1111C20.195 3 21 3.90506 21 4.92857V16.0714C21 17.0949 20.195 18 19.1111 18H15.635L16.7682 19.3598C17.1218 19.7841 17.0645 20.4147 16.6402 20.7682C16.2159 21.1218 15.5853 21.0645 15.2318 20.6402L13.0316 18H10.9684L8.76822 20.6402C8.41466 21.0645 7.78409 21.1218 7.35982 20.7682C6.93554 20.4147 6.87821 19.7841 7.23178 19.3598L8.36496 18H4.88889C3.80497 18 3 17.0949 3 16.0714V4.92857ZM5 5V13H12V11C12 10.4477 12.4477 10 13 10H17C17.5523 10 18 10.4477 18 11V13H19V5H5ZM19 15H5V16H19V15ZM16 13V12H14V13H16Z" fill="#101828"/>
</svg>
