<svg width="24" height="24" viewBox="0 0 24 24" fill="none" xmlns="http://www.w3.org/2000/svg">
<path fill-rule="evenodd" clip-rule="evenodd" d="M4 4C4 2.89543 4.89543 2 6 2H18.268C19.3667 2 20 2.98529 20 3.85714V15C20 15.5523 19.5523 16 19 16H14C13.4477 16 13 15.5523 13 15C13 14.4477 13.4477 14 14 14H15V12C15 11.4477 15.4477 11 16 11H18V4H6V8C6 8.55228 5.55228 9 5 9C4.44772 9 4 8.55228 4 8V4ZM18 13H17V14H18V13ZM9.5 10C8.67157 10 8 10.6716 8 11.5C8 12.3284 8.67157 13 9.5 13C10.3284 13 11 12.3284 11 11.5C11 10.6716 10.3284 10 9.5 10ZM6 11.5C6 9.567 7.567 8 9.5 8C11.433 8 13 9.567 13 11.5C13 13.433 11.433 15 9.5 15C7.567 15 6 13.433 6 11.5ZM8 18C6.89543 18 6 18.8954 6 20H13C13 18.8954 12.1046 18 11 18H8ZM4 20C4 17.7909 5.79086 16 8 16H11C13.2091 16 15 17.7909 15 20C15 21.1046 14.1046 22 13 22H6C4.89543 22 4 21.1046 4 20Z" fill="currentColor"/>
</svg>
