<svg width="24" height="24" viewBox="0 0 24 24" fill="none" xmlns="http://www.w3.org/2000/svg">
<path fill-rule="evenodd" clip-rule="evenodd" d="M11.5528 4.10557C11.8343 3.96481 12.1657 3.96481 12.4472 4.10557L21.4472 8.60557C21.786 8.77496 22 9.12123 22 9.5C22 9.87877 21.786 10.225 21.4472 10.3944L19 11.618V17.2222C19 17.6332 18.7775 17.9291 18.6795 18.0486C18.5488 18.2082 18.3873 18.35 18.2211 18.4733C17.8842 18.7234 17.427 18.9722 16.8665 19.193C15.7382 19.6375 14.1124 20 12 20C9.88191 20 8.25463 19.6216 7.12788 19.1699C6.56792 18.9454 6.11564 18.6963 5.78435 18.4539C5.62127 18.3345 5.46436 18.1999 5.3367 18.052C5.27301 17.9782 5.20028 17.8823 5.13908 17.7664C5.0834 17.6609 5 17.4693 5 17.2222V11.618L4 11.118V17C4 17.5523 3.55228 18 3 18C2.44772 18 2 17.5523 2 17V9.5C2 9.12123 2.214 8.77496 2.55279 8.60557L11.5528 4.10557ZM5.23607 9.5L12 12.882L18.7639 9.5L12 6.11803L5.23607 9.5ZM7 12.618V16.8639C7.17346 16.9853 7.46054 17.1485 7.87212 17.3135C8.74537 17.6636 10.1181 18 12 18C13.8876 18 15.2618 17.6756 16.1335 17.3322C16.5482 17.1688 16.8322 17.0079 17 16.8885V12.618L12.4472 14.8944C12.1657 15.0352 11.8343 15.0352 11.5528 14.8944L7 12.618Z" fill="currentColor"/>
</svg>
