<svg width="24" height="24" viewBox="0 0 24 24" fill="none" xmlns="http://www.w3.org/2000/svg">
<path fill-rule="evenodd" clip-rule="evenodd" d="M4 5.78571C4 4.80909 4.78639 4 5.77778 4H18.2222C19.2136 4 20 4.80909 20 5.78571V15C21.1046 15 22 15.8954 22 17V18C22 19.1046 21.1046 20 20 20H4C2.89543 20 2 19.1046 2 18V17C2 15.8954 2.89543 15 4 15V5.78571ZM6 15H18V6H6V15ZM8.27586 7.31034C8.65675 6.91041 9.28972 6.89498 9.68966 7.27586L12.3147 9.77586C12.5128 9.9646 12.625 10.2263 12.625 10.5C12.625 10.7737 12.5128 11.0354 12.3147 11.2241L9.68966 13.7241C9.28972 14.105 8.65675 14.0896 8.27586 13.6897C7.89498 13.2897 7.91041 12.6567 8.31034 12.2759L10.175 10.5L8.31034 8.72414C7.91041 8.34325 7.89498 7.71028 8.27586 7.31034ZM12 13C12 12.4477 12.4477 12 13 12H15C15.5523 12 16 12.4477 16 13C16 13.5523 15.5523 14 15 14H13C12.4477 14 12 13.5523 12 13ZM4 17V18H20V17H4Z" fill="currentColor"/>
</svg>
