<svg width="24" height="24" viewBox="0 0 24 24" fill="none" xmlns="http://www.w3.org/2000/svg">
<path fill-rule="evenodd" clip-rule="evenodd" d="M4 5.78571C4 4.80909 4.78639 4 5.77778 4H18.2222C19.2136 4 20 4.80909 20 5.78571V7H18V6H6V15H9C9.55228 15 10 15.4477 10 16C10 16.5523 9.55228 17 9 17H4V18H9C9.55228 18 10 18.4477 10 19C10 19.5523 9.55228 20 9 20H4C2.89543 20 2 19.1046 2 18V17C2 15.8954 2.89543 15 4 15V5.78571ZM13.9732 9.63401C14.3513 9.22956 14.8803 9 15.434 9H19C20.1046 9 21 9.89543 21 11V19C21 20.1046 20.1046 21 19 21H13C11.8954 21 11 20.1046 11 19V13.603C11 13.0958 11.1927 12.6075 11.5392 12.237L13.9732 9.63401ZM17 11V13C17 14.1046 16.1046 15 15 15H13V19L19 19V11H17ZM13.5639 13H15V11.4641L13.5639 13Z" fill="currentColor"/>
</svg>
