<svg width="24" height="24" viewBox="0 0 24 24" fill="none" xmlns="http://www.w3.org/2000/svg">
<path fill-rule="evenodd" clip-rule="evenodd" d="M16.1798 2.29289C16.5703 1.90237 17.2035 1.90237 17.594 2.29289L19.7494 4.44823C20.1399 4.83876 20.1399 5.47192 19.7494 5.86245C19.3588 6.25297 18.7257 6.25297 18.3351 5.86245L17.9646 5.49188L17.2234 6.23304L17.594 6.60359C17.7815 6.79113 17.8869 7.04548 17.8869 7.3107C17.8869 7.57592 17.7815 7.83027 17.594 8.01781L16.7874 8.82438C17.5502 9.88228 18 11.1851 18 12.5912C18 14.8847 16.8034 16.9036 15 18.0364V20H19C19.5523 20 20 20.4477 20 21C20 21.5523 19.5523 22 19 22H5C4.44772 22 4 21.5523 4 21C4 20.4477 4.44772 20 5 20H9V18.4182C7.87149 17.8953 6.92224 17.049 6.26801 16H5C4.44772 16 4 15.5523 4 15C4 14.4477 4.44772 14 5 14H11C11.5523 14 12 14.4477 12 15C12 15.5523 11.5523 16 11 16H8.88736C9.64 16.6262 10.6021 17 11.6479 17C14.0416 17 16 15.0361 16 12.5912C16 11.7363 15.7606 10.9401 15.3461 10.2656L13.2833 12.3285C13.0958 12.516 12.8414 12.6214 12.5762 12.6214C12.311 12.6214 12.0566 12.516 11.8691 12.3285L11.4774 11.9368L10.7071 12.7071C10.3166 13.0976 9.68342 13.0976 9.29289 12.7071C8.90237 12.3166 8.90237 11.6834 9.29289 11.2929L10.0632 10.5226L9.71373 10.1731C9.32321 9.78262 9.32321 9.14946 9.71373 8.75894L14.0244 4.44825C14.4149 4.05773 15.0481 4.05773 15.4386 4.44825L15.8092 4.81883L16.5504 4.07767L16.1798 3.70711C15.7893 3.31658 15.7893 2.68342 16.1798 2.29289ZM14.7315 6.56957L11.8351 9.46604L12.5762 10.2072L15.4727 7.3107L14.7315 6.56957ZM11 18.9671V20H13V18.8547C12.5645 18.9499 12.1122 19 11.6479 19C11.4291 19 11.213 18.9888 11 18.9671Z" fill="currentColor"/>
</svg>
