<svg width="24" height="24" viewBox="0 0 24 24" fill="none" xmlns="http://www.w3.org/2000/svg">
<path fill-rule="evenodd" clip-rule="evenodd" d="M8.49998 5C8.22384 5 7.99998 5.22386 7.99998 5.5C7.99998 5.77614 8.22384 6 8.49998 6C8.77613 6 8.99998 5.77614 8.99998 5.5C8.99998 5.22386 8.77613 5 8.49998 5ZM5.99998 5.5C5.99998 4.11929 7.11927 3 8.49998 3C9.8807 3 11 4.11929 11 5.5C11 6.88071 9.8807 8 8.49998 8C7.11927 8 5.99998 6.88071 5.99998 5.5ZM12 5C12 4.44772 12.4477 4 13 4H20C20.5523 4 21 4.44772 21 5V14C21 14.5523 20.5523 15 20 15H17.5L19.4231 19.6154C19.6355 20.1252 19.3944 20.7107 18.8846 20.9231C18.3748 21.1355 17.7893 20.8944 17.5769 20.3846L15.75 16L13.9231 20.3846C13.7106 20.8944 13.1252 21.1355 12.6154 20.9231C12.1056 20.7107 11.8645 20.1252 12.0769 19.6154L14 15H13C12.4477 15 12 14.5523 12 14C12 13.4477 12.4477 13 13 13H15.4776C15.4928 12.9997 15.5079 12.9997 15.5232 13H15.9768C15.992 12.9997 16.0072 12.9997 16.0223 13H19V6H13C12.4477 6 12 5.55228 12 5ZM6.16793 9.4453C6.3534 9.1671 6.66563 9 6.99998 9H15C15.5523 9 16 9.44772 16 10C16 10.5523 15.5523 11 15 11H11V20C11 20.5523 10.5523 21 9.99998 21C9.4477 21 8.99998 20.5523 8.99998 20V16H7.99998V20C7.99998 20.5523 7.55227 21 6.99998 21C6.4477 21 5.99998 20.5523 5.99998 20V13.3028L4.83203 15.0547C4.52568 15.5142 3.90481 15.6384 3.44528 15.3321C2.98576 15.0257 2.86158 14.4048 3.16793 13.9453L6.16793 9.4453ZM7.99998 11V14H8.99998V11H7.99998Z" fill="currentColor"/>
</svg>
