<svg width="24" height="24" viewBox="0 0 24 24" fill="none" xmlns="http://www.w3.org/2000/svg">
<path fill-rule="evenodd" clip-rule="evenodd" d="M11.4453 3.16795C11.7812 2.94402 12.2188 2.94402 12.5547 3.16795L18.5547 7.16795C19.0142 7.4743 19.1384 8.09517 18.8321 8.5547C18.5257 9.01423 17.9048 9.1384 17.4453 8.83205L17 8.53518V10.2425L17.7707 10.4592C18.3024 10.6088 18.6122 11.161 18.4627 11.6926C18.3131 12.2243 17.7609 12.5341 17.2293 12.3845L17 12.32V19C17.5523 19 18 19.4477 18 20C18 20.5523 17.5523 21 17 21H4C3.44772 21 3 20.5523 3 20V12.125C3 11.677 3.29797 11.2836 3.72925 11.1623L7 10.2425V8.53518L6.5547 8.83205C6.09517 9.1384 5.4743 9.01423 5.16795 8.5547C4.8616 8.09517 4.98577 7.4743 5.4453 7.16795L11.4453 3.16795ZM9 7.20185V19H15V7.20185L12 5.20185L9 7.20185ZM7 19V12.32L5 12.8825V19H7ZM10 9C10 8.44772 10.4477 8 11 8H13C13.5523 8 14 8.44772 14 9C14 9.55228 13.5523 10 13 10H11C10.4477 10 10 9.55228 10 9ZM10 12C10 11.4477 10.4477 11 11 11H13C13.5523 11 14 11.4477 14 12C14 12.5523 13.5523 13 13 13H11C10.4477 13 10 12.5523 10 12ZM20 12C20.5523 12 21 12.4477 21 13V17C21 17.5523 20.5523 18 20 18C19.4477 18 19 17.5523 19 17V13C19 12.4477 19.4477 12 20 12ZM19 20C19 19.4477 19.4477 19 20 19H20.01C20.5623 19 21.01 19.4477 21.01 20C21.01 20.5523 20.5623 21 20.01 21H20C19.4477 21 19 20.5523 19 20Z" fill="currentColor"/>
</svg>
