<svg width="24" height="24" viewBox="0 0 24 24" fill="none" xmlns="http://www.w3.org/2000/svg">
<path fill-rule="evenodd" clip-rule="evenodd" d="M12 4C12.2968 4 12.5782 4.13182 12.7682 4.35982L16 8.23795V5C16 4.44772 16.4477 4 17 4H21C21.5523 4 22 4.44772 22 5V8C22 8.55228 21.5523 9 21 9H18V10H20C20.5523 10 21 10.4477 21 11V19C21 19.5523 20.5523 20 20 20H4C3.44771 20 3 19.5523 3 19V12C2.62123 12 2.27497 11.786 2.10558 11.4472C1.93619 11.1084 1.97274 10.703 2.20001 10.4L5.20001 6.4C5.38886 6.14819 5.68525 6 6.00001 6H9.86495L11.2318 4.35982C11.4218 4.13182 11.7032 4 12 4ZM11.1052 7.64065C11.1224 7.62009 11.1386 7.59898 11.1539 7.57737L12 6.56205L16.2318 11.6402C16.4218 11.8682 16.7032 12 17 12H19V18H5V12H7C7.29657 12 7.57822 11.8679 7.76822 11.6402L11.1052 7.64065ZM8.19829 8H6.50001L5.00001 10H6.53162L8.19829 8ZM18 7H20V6H18V7ZM12 12C11.4477 12 11 12.4477 11 13C11 13.5523 11.4477 14 12 14C12.5523 14 13 13.5523 13 13C13 12.4477 12.5523 12 12 12ZM9 13C9 11.3431 10.3431 10 12 10C13.6569 10 15 11.3431 15 13C15 14.6569 13.6569 16 12 16C10.3431 16 9 14.6569 9 13Z" fill="#101828"/>
</svg>
