<svg width="24" height="24" viewBox="0 0 24 24" fill="none" xmlns="http://www.w3.org/2000/svg">
<path d="M12 4C12.2967 4 12.5785 4.13144 12.7685 4.35938L14.1357 6H18L18.1171 6.00684C18.3872 6.03869 18.6346 6.18012 18.7998 6.40039L21.7998 10.4004C22.0269 10.7034 22.0638 11.1085 21.8945 11.4473C21.7463 11.7436 21.4628 11.9445 21.1406 11.9902L21 12L20.9951 12.1025C20.9437 12.6067 20.5176 13 20 13C19.4477 13 19 12.5523 19 12H17C16.7034 12 16.4224 11.8683 16.2324 11.6406L16.2314 11.6396L15.373 10.6104L12.8945 7.64062C12.8862 7.63075 12.8798 7.6195 12.872 7.60938L12 6.5625L11.1269 7.60938C11.1192 7.61934 11.1135 7.6309 11.1054 7.64062L7.76851 11.6406L7.76753 11.6396V11.6406C7.60128 11.8398 7.36537 11.9658 7.1103 11.9941L6.99995 12H4.99995V18H12L12.1025 18.0049C12.6066 18.0562 13 18.4823 13 19C13 19.5177 12.6066 19.9438 12.1025 19.9951L12 20H3.99995C3.44767 20 2.99995 19.5523 2.99995 19V12C2.62118 12 2.27481 11.786 2.10542 11.4473C1.93606 11.1085 1.97299 10.7034 2.20015 10.4004L5.20015 6.40039L5.27534 6.31055C5.4629 6.11339 5.72446 6 5.99995 6H9.86421L11.2314 4.35938L11.3076 4.2793C11.4928 4.10135 11.7403 4 12 4ZM20.2929 14.293C20.6834 13.9025 21.3165 13.9024 21.707 14.293C22.0975 14.6835 22.0975 15.3165 21.707 15.707L17.707 19.707C17.3165 20.0976 16.6834 20.0975 16.2929 19.707L14.2929 17.707L14.2246 17.6309C13.9042 17.2381 13.9268 16.6591 14.2929 16.293C14.659 15.9269 15.238 15.9043 15.6308 16.2246L15.707 16.293L17 17.5859L20.2929 14.293ZM12 10C13.6568 10 15 11.3431 15 13C15 14.6569 13.6568 16 12 16C10.3431 16 8.99995 14.6569 8.99995 13C8.99995 11.3431 10.3431 10 12 10ZM12 12C11.4477 12 11 12.4477 11 13C11 13.5523 11.4477 14 12 14C12.5522 14 13 13.5523 13 13C13 12.4477 12.5522 12 12 12ZM4.99897 10H6.5312L8.19722 8H6.49897L4.99897 10ZM17.4687 10H19.0009L17.5009 8H15.8027L17.4687 10Z" fill="#101828"/>
</svg>
