<svg width="24" height="24" viewBox="0 0 24 24" fill="none" xmlns="http://www.w3.org/2000/svg">
<path fill-rule="evenodd" clip-rule="evenodd" d="M15 4C15 3.44772 15.4477 3 16 3H20C20.5523 3 21 3.44772 21 4V7C21 7.55228 20.5523 8 20 8H17V10.2425L20.2707 11.1623C20.702 11.2836 21 11.677 21 12.125V20C21 20.5523 20.5523 21 20 21H4C3.44772 21 3 20.5523 3 20V12.125C3 11.677 3.29797 11.2836 3.72925 11.1623L7 10.2425V8.53518L6.5547 8.83205C6.09517 9.1384 5.4743 9.01423 5.16795 8.5547C4.8616 8.09517 4.98577 7.4743 5.4453 7.16795L11.4453 3.16795C11.7812 2.94402 12.2188 2.94402 12.5547 3.16795L15 4.79815V4ZM15 7.20185L12 5.20185L9 7.20185V19H15V7.20185ZM17 19H19V12.8825L17 12.32V19ZM7 19V12.32L5 12.8825V19H7ZM17 6V5H19V6H17ZM10 9C10 8.44772 10.4477 8 11 8H13C13.5523 8 14 8.44772 14 9C14 9.55228 13.5523 10 13 10H11C10.4477 10 10 9.55228 10 9ZM10 12C10 11.4477 10.4477 11 11 11H13C13.5523 11 14 11.4477 14 12C14 12.5523 13.5523 13 13 13H11C10.4477 13 10 12.5523 10 12Z" fill="#101828"/>
</svg>
