<svg width="24" height="24" viewBox="0 0 24 24" fill="none" xmlns="http://www.w3.org/2000/svg">
<path fill-rule="evenodd" clip-rule="evenodd" d="M11.4453 3.16795C11.7812 2.94402 12.2188 2.94402 12.5547 3.16795L18.5547 7.16795C19.0142 7.4743 19.1384 8.09517 18.8321 8.5547C18.5257 9.01423 17.9048 9.1384 17.4453 8.83205L17 8.53518V10.2425L20.2707 11.1623C20.702 11.2836 21 11.677 21 12.125V13C21 13.5523 20.5523 14 20 14C19.4477 14 19 13.5523 19 13V12.8825L17 12.32V13C17 13.5523 16.5523 14 16 14C15.4477 14 15 13.5523 15 13V7.20185L12 5.20185L9 7.20185V19H12C12.5523 19 13 19.4477 13 20C13 20.5523 12.5523 21 12 21H4C3.44772 21 3 20.5523 3 20V12.125C3 11.677 3.29797 11.2836 3.72925 11.1623L7 10.2425V8.53518L6.5547 8.83205C6.09517 9.1384 5.4743 9.01423 5.16795 8.5547C4.8616 8.09517 4.98577 7.4743 5.4453 7.16795L11.4453 3.16795ZM7 12.32L5 12.8825V19H7V12.32ZM10 9C10 8.44772 10.4477 8 11 8H13C13.5523 8 14 8.44772 14 9C14 9.55228 13.5523 10 13 10H11C10.4477 10 10 9.55228 10 9ZM10 12C10 11.4477 10.4477 11 11 11H13C13.5523 11 14 11.4477 14 12C14 12.5523 13.5523 13 13 13H11C10.4477 13 10 12.5523 10 12ZM15.3077 15.7016C15.6983 15.3111 16.3314 15.3111 16.7219 15.7016L17.7826 16.7623L18.8433 15.7016C19.2338 15.3111 19.867 15.3111 20.2575 15.7016C20.648 16.0921 20.648 16.7253 20.2575 17.1158L19.1968 18.1765L20.2575 19.2371C20.648 19.6277 20.648 20.2608 20.2575 20.6514C19.867 21.0419 19.2338 21.0419 18.8433 20.6514L17.7826 19.5907L16.7219 20.6514C16.3314 21.0419 15.6983 21.0419 15.3077 20.6514C14.9172 20.2608 14.9172 19.6277 15.3077 19.2371L16.3684 18.1765L15.3077 17.1158C14.9172 16.7253 14.9172 16.0921 15.3077 15.7016Z" fill="currentColor"/>
</svg>
