<svg width="24" height="24" viewBox="0 0 24 24" fill="none" xmlns="http://www.w3.org/2000/svg">
<path fill-rule="evenodd" clip-rule="evenodd" d="M11.4453 3.16795C11.7812 2.94402 12.2188 2.94402 12.5547 3.16795L18.5547 7.16795C19.0142 7.4743 19.1384 8.09517 18.8321 8.5547C18.5257 9.01423 17.9048 9.1384 17.4453 8.83205L17 8.53518V10.2425L20.2707 11.1623C20.702 11.2836 21 11.677 21 12.125V13C21 13.5523 20.5523 14 20 14C19.4477 14 19 13.5523 19 13V12.8825L17 12.32V14C17 14.5523 16.5523 15 16 15C15.4477 15 15 14.5523 15 14V7.20185L12 5.20185L9 7.20185V19H11C11.5523 19 12 19.4477 12 20C12 20.5523 11.5523 21 11 21H4C3.44772 21 3 20.5523 3 20V12.125C3 11.677 3.29797 11.2836 3.72925 11.1623L7 10.2425V8.53518L6.5547 8.83205C6.09517 9.1384 5.4743 9.01423 5.16795 8.5547C4.8616 8.09517 4.98577 7.4743 5.4453 7.16795L11.4453 3.16795ZM7 12.32L5 12.8825V19H7V12.32ZM10 9C10 8.44772 10.4477 8 11 8H13C13.5523 8 14 8.44772 14 9C14 9.55228 13.5523 10 13 10H11C10.4477 10 10 9.55228 10 9ZM10 12C10 11.4477 10.4477 11 11 11H13C13.5523 11 14 11.4477 14 12C14 12.5523 13.5523 13 13 13H11C10.4477 13 10 12.5523 10 12ZM20.7071 15.2929C21.0976 15.6834 21.0976 16.3166 20.7071 16.7071L16.7071 20.7071C16.3166 21.0976 15.6834 21.0976 15.2929 20.7071L13.2929 18.7071C12.9024 18.3166 12.9024 17.6834 13.2929 17.2929C13.6834 16.9024 14.3166 16.9024 14.7071 17.2929L16 18.5858L19.2929 15.2929C19.6834 14.9024 20.3166 14.9024 20.7071 15.2929Z" fill="#101828"/>
</svg>
