<svg width="24" height="24" viewBox="0 0 24 24" fill="none" xmlns="http://www.w3.org/2000/svg">
<path fill-rule="evenodd" clip-rule="evenodd" d="M12 4C12.2968 4 12.5782 4.13182 12.7682 4.35982L14.135 6H18C18.3038 6 18.5911 6.13809 18.7809 6.3753L20.7809 8.8753C21.1259 9.30656 21.056 9.93586 20.6247 10.2809C20.1934 10.6259 19.5641 10.556 19.2191 10.1247L17.5194 8H15.8017L17.7682 10.3598C18.1218 10.7841 18.0645 11.4147 17.6402 11.7682C17.2159 12.1218 16.5853 12.0645 16.2318 11.6402L12.9474 7.69889C12.9103 7.66096 12.8762 7.6201 12.8455 7.57669L12 6.56205L11.1539 7.57737C11.1386 7.59898 11.1224 7.62009 11.1052 7.64065L7.76822 11.6402C7.57822 11.8679 7.29657 12 7 12H5V18H17C17.5523 18 18 18.4477 18 19C18 19.5523 17.5523 20 17 20H4C3.44771 20 3 19.5523 3 19V12C2.62123 12 2.27497 11.786 2.10558 11.4472C1.93619 11.1084 1.97274 10.703 2.20001 10.4L5.20001 6.4C5.38886 6.14819 5.68525 6 6.00001 6H9.86495L11.2318 4.35982C11.4218 4.13182 11.7032 4 12 4ZM8.19829 8H6.50001L5.00001 10H6.53162L8.19829 8ZM12 12C11.4477 12 11 12.4477 11 13C11 13.5523 11.4477 14 12 14C12.5523 14 13 13.5523 13 13C13 12.4477 12.5523 12 12 12ZM9 13C9 11.3431 10.3431 10 12 10C13.6569 10 15 11.3431 15 13C15 14.6569 13.6569 16 12 16C10.3431 16 9 14.6569 9 13ZM20 12C20.5523 12 21 12.4477 21 13V16C21 16.5523 20.5523 17 20 17C19.4477 17 19 16.5523 19 16V13C19 12.4477 19.4477 12 20 12ZM19 19C19 18.4477 19.4477 18 20 18H20.01C20.5623 18 21.01 18.4477 21.01 19C21.01 19.5523 20.5623 20 20.01 20H20C19.4477 20 19 19.5523 19 19Z" fill="currentColor"/>
</svg>
