<svg width="24" height="24" viewBox="0 0 24 24" fill="none" xmlns="http://www.w3.org/2000/svg">
<path fill-rule="evenodd" clip-rule="evenodd" d="M12 4C12.2968 4 12.5782 4.13182 12.7682 4.35982L14.135 6H18C18.3147 6 18.6111 6.14819 18.8 6.4L21.8 10.4C22.0273 10.703 22.0638 11.1084 21.8944 11.4472C21.725 11.786 21.3788 12 21 12L21 12.5574C21 13.1097 20.5523 13.5574 20 13.5574C19.4477 13.5574 19 13.1097 19 12.5574V12H17C16.7034 12 16.4222 11.8684 16.2322 11.6406L12.8948 7.64065C12.8776 7.62009 12.8614 7.59898 12.8461 7.57737L12 6.56205L11.1539 7.57737C11.1386 7.59898 11.1224 7.62009 11.1052 7.64065L7.76822 11.6402C7.57822 11.8679 7.29657 12 7 12H5V18H13.0797C13.632 18 14.0797 18.4477 14.0797 19C14.0797 19.5523 13.632 20 13.0797 20H4C3.44771 20 3 19.5523 3 19V12C2.62123 12 2.27497 11.786 2.10558 11.4472C1.93619 11.1084 1.97274 10.703 2.20001 10.4L5.20001 6.4C5.38886 6.14819 5.68525 6 6.00001 6H9.86495L11.2318 4.35982C11.4218 4.13182 11.7032 4 12 4ZM8.19829 8H6.50001L5.00001 10H6.53162L8.19829 8ZM17.4684 10H19L17.5 8H15.8017L17.4684 10ZM12 12C11.4477 12 11 12.4477 11 13C11 13.5523 11.4477 14 12 14C12.5523 14 13 13.5523 13 13C13 12.4477 12.5523 12 12 12ZM9 13C9 11.3431 10.3431 10 12 10C13.6569 10 15 11.3431 15 13C15 14.6569 13.6569 16 12 16C10.3431 16 9 14.6569 9 13ZM16.0543 14.7571C16.4448 14.3666 17.078 14.3666 17.4685 14.7571L18.5292 15.8178L19.5898 14.7571C19.9804 14.3666 20.6135 14.3666 21.004 14.7571C21.3946 15.1476 21.3946 15.7808 21.004 16.1713L19.9434 17.232L21.004 18.2927C21.3946 18.6832 21.3946 19.3163 21.004 19.7069C20.6135 20.0974 19.9804 20.0974 19.5898 19.7069L18.5292 18.6462L17.4685 19.7069C17.078 20.0974 16.4448 20.0974 16.0543 19.7069C15.6638 19.3163 15.6638 18.6832 16.0543 18.2927L17.115 17.232L16.0543 16.1713C15.6638 15.7808 15.6638 15.1476 16.0543 14.7571Z" fill="currentColor"/>
</svg>
