<svg width="24" height="24" viewBox="0 0 24 24" fill="none" xmlns="http://www.w3.org/2000/svg">
<path fill-rule="evenodd" clip-rule="evenodd" d="M11.4453 3.16795C11.7812 2.94402 12.2188 2.94402 12.5547 3.16795L16.5418 5.82601C16.55 5.83129 16.5581 5.83669 16.5661 5.84221L18.5547 7.16795C19.0142 7.4743 19.1384 8.09517 18.8321 8.5547C18.5257 9.01423 17.9048 9.1384 17.4453 8.83205L17 8.53518V9C17 9.55228 16.5523 10 16 10C15.4477 10 15 9.55228 15 9V7.20185L12 5.20185L9 7.20185V19H10C10.5523 19 11 19.4477 11 20C11 20.5523 10.5523 21 10 21H4C3.44772 21 3 20.5523 3 20V12.125C3 11.677 3.29797 11.2836 3.72925 11.1623L7 10.2425V8.53518L6.5547 8.83205C6.09517 9.1384 5.4743 9.01423 5.16795 8.5547C4.8616 8.09517 4.98577 7.4743 5.4453 7.16795L7.43393 5.84219C7.44194 5.83669 7.45003 5.8313 7.4582 5.82602L11.4453 3.16795ZM7 12.32L5 12.8825V19H7V12.32ZM10 9C10 8.44772 10.4477 8 11 8H13C13.5523 8 14 8.44772 14 9C14 9.55228 13.5523 10 13 10H11C10.4477 10 10 9.55228 10 9ZM10 12C10 11.4477 10.4477 11 11 11H12C12.5523 11 13 11.4477 13 12C13 12.5523 12.5523 13 12 13H11C10.4477 13 10 12.5523 10 12ZM16.5 13C16.2239 13 16 13.2239 16 13.5V15H17V13.5C17 13.2239 16.7761 13 16.5 13ZM19 15V13.5C19 12.1193 17.8807 11 16.5 11C15.1193 11 14 12.1193 14 13.5V15C12.8954 15 12 15.8954 12 17V19C12 20.1046 12.8954 21 14 21H19C20.1046 21 21 20.1046 21 19V17C21 15.8954 20.1046 15 19 15ZM14 17V19H19V17H14Z" fill="currentColor"/>
</svg>
