<svg width="24" height="24" viewBox="0 0 24 24" fill="none" xmlns="http://www.w3.org/2000/svg">
<path fill-rule="evenodd" clip-rule="evenodd" d="M12 4C12.2968 4 12.5782 4.13182 12.7682 4.35982L14.135 6H18C18.3147 6 18.6111 6.14819 18.8 6.4L20.3 8.4C20.6314 8.84183 20.5418 9.46863 20.1 9.8C19.6582 10.1314 19.0314 10.0418 18.7 9.6L17.5 8H15.8017L16.1016 8.35982C16.4551 8.78409 16.3978 9.41466 15.9735 9.76822C15.7869 9.92376 15.5603 9.99978 15.3349 10C15.0476 10.0009 14.7619 9.87855 14.5635 9.64064L12.8948 7.64064C12.8776 7.62009 12.8614 7.59898 12.8461 7.57737L12 6.56205L11.1539 7.57737C11.1386 7.59898 11.1224 7.62009 11.1052 7.64065L7.76822 11.6402C7.57822 11.8679 7.29657 12 7 12H5V18H11C11.5523 18 12 18.4477 12 19C12 19.5523 11.5523 20 11 20H4C3.44771 20 3 19.5523 3 19V12C2.62123 12 2.27497 11.786 2.10558 11.4472C1.93619 11.1084 1.97274 10.703 2.20001 10.4L5.20001 6.4C5.38886 6.14819 5.68525 6 6.00001 6H9.86495L11.2318 4.35982C11.4218 4.13182 11.7032 4 12 4ZM8.19829 8H6.50001L5.00001 10H6.53162L8.19829 8ZM17.5 12C17.2239 12 17 12.2239 17 12.5V14H18V12.5C18 12.2239 17.7761 12 17.5 12ZM20 14V12.5C20 11.1193 18.8807 10 17.5 10C16.1193 10 15 11.1193 15 12.5V14C13.8954 14 13 14.8954 13 16V18C13 19.1046 13.8954 20 15 20H20C21.1046 20 22 19.1046 22 18V16C22 14.8954 21.1046 14 20 14ZM15 16V18H20V16H15ZM12.3022 12.1169C11.7903 11.9096 11.2073 12.1566 11 12.6685C10.7927 13.1804 11.0397 13.7634 11.5516 13.9707C12.0635 14.178 12.3104 14.761 12.1032 15.2729C11.8959 15.7848 11.3129 16.0318 10.801 15.8245C9.26522 15.2026 8.52436 13.4536 9.1462 11.9178C9.76804 10.3821 11.5171 9.64125 13.0528 10.2631C13.5647 10.4704 13.8117 11.0534 13.6044 11.5653C13.3971 12.0772 12.8141 12.3242 12.3022 12.1169Z" fill="#101828"/>
</svg>
