<svg width="24" height="24" viewBox="0 0 24 24" fill="none" xmlns="http://www.w3.org/2000/svg">
<path fill-rule="evenodd" clip-rule="evenodd" d="M12 3C12.3557 3 12.6846 3.18891 12.8638 3.49613L16.3638 9.49613C16.5442 9.80542 16.5455 10.1876 16.3671 10.4981C16.1888 10.8086 15.8581 11 15.5 11H8.5C8.14193 11 7.8112 10.8086 7.63286 10.4981C7.45452 10.1876 7.4558 9.80542 7.63622 9.49613L11.1362 3.49613C11.3154 3.18891 11.6443 3 12 3ZM10.241 9H13.759L12 5.98464L10.241 9ZM16.5 14C15.1193 14 14 15.1193 14 16.5C14 17.8807 15.1193 19 16.5 19C17.8807 19 19 17.8807 19 16.5C19 15.1193 17.8807 14 16.5 14ZM12 16.5C12 14.0147 14.0147 12 16.5 12C18.9853 12 21 14.0147 21 16.5C21 18.9853 18.9853 21 16.5 21C14.0147 21 12 18.9853 12 16.5ZM3 14C3 13.4477 3.44772 13 4 13H10C10.5523 13 11 13.4477 11 14V20C11 20.5523 10.5523 21 10 21H4C3.44772 21 3 20.5523 3 20V14ZM5 15V19H9V15H5Z" fill="currentColor"/>
</svg>
