<svg width="24" height="24" viewBox="0 0 24 24" fill="none" xmlns="http://www.w3.org/2000/svg">
<path fill-rule="evenodd" clip-rule="evenodd" d="M11.2226 3.70106C12.2345 3.33534 13.6023 3 15 3C16.3887 3 17.7524 3.31285 18.7691 3.67026C19.2776 3.84902 19.7283 4.04902 20.0698 4.24595C20.2364 4.34199 20.4102 4.45617 20.5564 4.58762C20.6289 4.65282 20.7214 4.74605 20.8026 4.86736C20.8766 4.97801 21 5.19944 21 5.5V12C21 12.819 20.5728 13.594 20.1235 14.2037C19.6512 14.8446 19.0341 15.4624 18.42 15.9934C17.8027 16.5273 17.1591 16.9986 16.6121 17.342C16.3398 17.513 16.0768 17.6615 15.8429 17.7712C15.7263 17.8259 15.603 17.8775 15.48 17.9171C15.3716 17.9521 15.1976 18 15 18C14.6654 18 14.339 17.86 14.1517 17.7732C13.914 17.6632 13.6486 17.5142 13.3747 17.3428C12.8248 16.9986 12.1814 16.5265 11.5658 15.9923C10.9533 15.4606 10.3394 14.8424 9.86992 14.2012C9.42278 13.5906 8.99999 12.8166 8.99999 12V5.5C8.99999 5.14938 9.1726 4.9088 9.23414 4.82828C9.31623 4.72086 9.40652 4.63871 9.47363 4.58301C9.61157 4.46852 9.77624 4.36402 9.93851 4.27252C10.2713 4.08485 10.7149 3.88454 11.2226 3.70106ZM11 5.9714V12C11 12.1661 11.1093 12.5085 11.4836 13.0196C11.8354 13.5002 12.3322 14.0091 12.8768 14.4818C13.4184 14.9519 13.9786 15.3613 14.4358 15.6475C14.6655 15.7913 14.8545 15.8947 14.9919 15.9583C14.993 15.9588 14.9941 15.9593 14.9951 15.9598C15.1315 15.8958 15.3196 15.792 15.5486 15.6483C16.0056 15.3613 16.5677 14.9511 17.1118 14.4807C17.659 14.0074 18.159 13.4981 18.5135 13.0172C18.8908 12.5052 19 12.1638 19 12V5.9391C18.793 5.82732 18.4886 5.69161 18.1059 5.55708C17.2476 5.25537 16.1113 5 15 5C13.8977 5 12.7655 5.27002 11.9024 5.58198C11.5222 5.71938 11.2142 5.85775 11 5.9714ZM7.95025 7.33268C8.1706 7.8391 7.9387 8.42827 7.43228 8.64862C6.48481 9.06089 5.63893 9.57303 5.05036 10.0166C4.8014 10.2042 4.61614 10.3663 4.4936 10.4905C4.52421 10.6142 4.56311 10.7658 4.60934 10.9407C4.72372 11.3736 4.87996 11.9379 5.05978 12.5545C5.42191 13.7963 5.86917 15.2139 6.25601 16.1948C6.35395 16.4431 6.63133 16.778 7.15704 17.155C7.6627 17.5176 8.30086 17.8501 8.95962 18.1301C9.61465 18.4085 10.259 18.6219 10.7585 18.7553C10.9775 18.8137 11.158 18.8539 11.2923 18.8778C11.302 18.8699 11.3122 18.8616 11.3228 18.8529C11.4746 18.7275 11.6776 18.5415 11.9068 18.3053C12.2915 17.909 12.9246 17.8996 13.3209 18.2842C13.7172 18.6689 13.7266 19.302 13.342 19.6983C13.0713 19.9771 12.8145 20.2148 12.5962 20.3951C12.4878 20.4846 12.3799 20.5674 12.2779 20.6362C12.2022 20.6873 12.0436 20.7913 11.8541 20.8489C11.6508 20.9107 11.4584 20.9039 11.3763 20.9001C11.264 20.8948 11.1466 20.8803 11.0341 20.8624C10.8069 20.8263 10.5358 20.7658 10.2428 20.6876C9.65428 20.5305 8.92075 20.2868 8.17727 19.9707C7.43752 19.6563 6.65653 19.2571 5.99156 18.7803C5.34663 18.3178 4.70191 17.7056 4.39547 16.9285C3.97353 15.8586 3.5055 14.3686 3.13976 13.1144C2.95565 12.4831 2.79482 11.9024 2.67571 11.4517C2.5651 11.0331 2.47152 10.6575 2.4466 10.4871C2.39076 10.1054 2.54124 9.79911 2.61641 9.66411C2.70931 9.49726 2.82908 9.34653 2.944 9.21906C3.17729 8.96031 3.49187 8.68672 3.84669 8.41933C4.56217 7.88014 5.54445 7.28893 6.6343 6.81471C7.14072 6.59436 7.72989 6.82626 7.95025 7.33268ZM11.4704 18.9023C11.4694 18.9022 11.4682 18.9022 11.4669 18.9021C11.4834 18.9019 11.486 18.903 11.4704 18.9023ZM12 8C12 7.44772 12.4477 7 13 7H13.01C13.5623 7 14.01 7.44772 14.01 8C14.01 8.55228 13.5623 9 13.01 9H13C12.4477 9 12 8.55228 12 8ZM16 8C16 7.44772 16.4477 7 17 7H17.01C17.5623 7 18.01 7.44772 18.01 8C18.01 8.55228 17.5623 9 17.01 9H17C16.4477 9 16 8.55228 16 8ZM7.99967 11.5686C8.16023 12.0971 7.86201 12.6556 7.33358 12.8162L7.32401 12.8191C6.79558 12.9796 6.23704 12.6814 6.07648 12.153C5.91593 11.6245 6.21414 11.066 6.74258 10.9055L6.75214 10.9025C7.28058 10.742 7.83911 11.0402 7.99967 11.5686ZM12.3768 12.7917C12.3478 12.7623 12.3198 12.7341 12.2929 12.7071C11.9024 12.3166 11.9024 11.6834 12.2929 11.2929C12.6834 10.9024 13.3166 10.9024 13.7071 11.2929C14.2364 11.8222 14.4641 12.049 15 12.049C15.5359 12.049 15.7636 11.8222 16.2929 11.2929C16.6834 10.9024 17.3166 10.9024 17.7071 11.2929C18.0976 11.6834 18.0976 12.3166 17.7071 12.7071C17.6802 12.7341 17.6522 12.7623 17.6232 12.7917C17.1457 13.2747 16.3803 14.049 15 14.049C13.6197 14.049 12.8543 13.2747 12.3768 12.7917ZM9.6755 15.0302C10.0934 15.3913 10.1394 16.0228 9.77833 16.4407C9.63908 16.6018 9.53317 16.7855 9.37089 17.0671C9.35834 17.0889 9.34545 17.1112 9.33218 17.1342C9.05604 17.6125 8.44445 17.7764 7.96616 17.5002C7.48787 17.2241 7.32399 16.6125 7.60013 16.1342C7.61508 16.1083 7.63072 16.081 7.64708 16.0524C7.79186 15.7994 7.99306 15.4478 8.26503 15.133C8.62613 14.7151 9.25762 14.6691 9.6755 15.0302Z" fill="#101828"/>
</svg>
