<svg width="24" height="24" viewBox="0 0 24 24" fill="none" xmlns="http://www.w3.org/2000/svg">
<path fill-rule="evenodd" clip-rule="evenodd" d="M11.5528 2.10557C11.8343 1.96481 12.1657 1.96481 12.4472 2.10557L18.4472 5.10557C18.809 5.28645 19.0262 5.66744 18.9975 6.07089C18.9688 6.47433 18.6999 6.82078 18.3162 6.94868L15.8001 7.78738C15.9256 8.17185 16 8.58324 16 9C16 11.2091 14.2091 13 12 13C9.79086 13 8 11.2091 8 9C8 8.57634 8.06613 8.1675 8.18858 7.78362L7 7.38743V10C7 10.5523 6.55228 11 6 11C5.44772 11 5 10.5523 5 10V6C5 5.62123 5.214 5.27496 5.55279 5.10557L11.5528 2.10557ZM8.60655 5.81476L12 6.94591L15.3934 5.81476L12 4.11803L8.60655 5.81476ZM10.0863 8.41619C10.0302 8.60058 10 8.79648 10 9C10 10.1046 10.8954 11 12 11C13.1046 11 14 10.1046 14 9C14 8.81337 13.9648 8.61436 13.9027 8.41987L12.3162 8.94868C12.111 9.01711 11.889 9.01711 11.6838 8.94868L10.0863 8.41619ZM14.2996 13.2767C14.5328 13.0478 14.8632 12.9473 15.1843 13.0075C17.379 13.4191 19 15.4884 19 17.6488V19.8013C19 21.0302 17.9685 21.9442 16.8 21.9442H7.2C6.03151 21.9442 5 21.0302 5 19.8013V17.6488C5 15.5079 6.59079 13.4595 8.75163 13.02C9.07377 12.9545 9.40752 13.0515 9.64437 13.2795L11.9932 15.5401L14.2996 13.2767ZM15.2834 15.1134L12.7004 17.6483C12.3142 18.0273 11.6965 18.0303 11.3066 17.655L8.68124 15.1283C7.71419 15.5477 7 16.5898 7 17.6488V19.8013C7 19.8246 7.00823 19.8539 7.04113 19.8853C7.07488 19.9174 7.12889 19.9442 7.2 19.9442H16.8C16.8711 19.9442 16.9251 19.9174 16.9589 19.8853C16.9918 19.8539 17 19.8246 17 19.8013V17.6488C17 16.5757 16.2676 15.5222 15.2834 15.1134Z" fill="currentColor"/>
</svg>
