<svg width="24" height="24" viewBox="0 0 24 24" fill="none" xmlns="http://www.w3.org/2000/svg">
<path fill-rule="evenodd" clip-rule="evenodd" d="M2 6C2 4.89543 2.89543 4 4 4H20C21.1046 4 22 4.89543 22 6V18C22 19.1046 21.1046 20 20 20H4C2.89543 20 2 19.1046 2 18V6ZM4 12V14L8 14V12L4 12ZM8 10L4 10V6H8V10ZM10 6L10 18H20V6H10ZM8 18V16L4 16V18H8ZM15 9C15.5523 9 16 9.44772 16 10V11H17C17.5523 11 18 11.4477 18 12C18 12.5523 17.5523 13 17 13H16V14C16 14.5523 15.5523 15 15 15C14.4477 15 14 14.5523 14 14V13H13C12.4477 13 12 12.5523 12 12C12 11.4477 12.4477 11 13 11H14V10C14 9.44772 14.4477 9 15 9Z" fill="#101828"/>
</svg>
