<svg width="24" height="24" viewBox="0 0 24 24" fill="none" xmlns="http://www.w3.org/2000/svg">
<path fill-rule="evenodd" clip-rule="evenodd" d="M2 6C2 4.89543 2.89543 4 4 4H20C21.1046 4 22 4.89543 22 6V18C22 19.1046 21.1046 20 20 20H4C2.89543 20 2 19.1046 2 18V6ZM16 18H20V16L16 16V18ZM14 15.0007V18H4V6L14 6V10.9989C14 10.9993 14 10.9996 14 11C14 11.0004 14 11.0007 14 11.0011L14 14.9993C14 14.9995 14 15.0005 14 15.0007C14 15.001 14 15.0005 14 15.0007ZM16 14L20 14V12L16 12V14ZM16 10L20 10V6H16V10ZM9 9C9.55228 9 10 9.44772 10 10V11H11C11.5523 11 12 11.4477 12 12C12 12.5523 11.5523 13 11 13H10V14C10 14.5523 9.55228 15 9 15C8.44772 15 8 14.5523 8 14V13H7C6.44772 13 6 12.5523 6 12C6 11.4477 6.44772 11 7 11H8V10C8 9.44772 8.44772 9 9 9Z" fill="#101828"/>
</svg>
