<svg width="24" height="24" viewBox="0 0 24 24" fill="none" xmlns="http://www.w3.org/2000/svg">
<path fill-rule="evenodd" clip-rule="evenodd" d="M8 5C7.44771 5 7 5.44771 7 6C7 6.55228 7.44772 7 8 7C8.55228 7 9 6.55228 9 6C9 5.44772 8.55229 5 8 5ZM5.17071 5C5.58254 3.83481 6.69378 3 8 3C9.30622 3 10.4175 3.83481 10.8293 5L20 5C20.5523 5 21 5.44772 21 6C21 6.55229 20.5523 7 20 7L10.8293 7C10.4175 8.16519 9.30622 9 8 9C6.69378 9 5.58254 8.16519 5.17071 7L4 7C3.44772 7 3 6.55228 3 6C3 5.44771 3.44772 5 4 5L5.17071 5ZM16 11C15.4477 11 15 11.4477 15 12C15 12.5523 15.4477 13 16 13C16.5523 13 17 12.5523 17 12C17 11.4477 16.5523 11 16 11ZM13.1707 11C13.5825 9.83481 14.6938 9 16 9C17.3062 9 18.4175 9.83481 18.8293 11H20C20.5523 11 21 11.4477 21 12C21 12.5523 20.5523 13 20 13H18.8293C18.4175 14.1652 17.3062 15 16 15C14.6938 15 13.5825 14.1652 13.1707 13L4 13C3.44772 13 3 12.5523 3 12C3 11.4477 3.44772 11 4 11L13.1707 11ZM8 17C7.44771 17 7 17.4477 7 18C7 18.5523 7.44772 19 8 19C8.55228 19 9 18.5523 9 18C9 17.4477 8.55229 17 8 17ZM5.17071 17C5.58254 15.8348 6.69378 15 8 15C9.30622 15 10.4175 15.8348 10.8293 17L20 17C20.5523 17 21 17.4477 21 18C21 18.5523 20.5523 19 20 19L10.8293 19C10.4175 20.1652 9.30622 21 8 21C6.69378 21 5.58254 20.1652 5.17071 19H4C3.44772 19 3 18.5523 3 18C3 17.4477 3.44772 17 4 17H5.17071Z" fill="#101828"/>
</svg>
