<svg width="24" height="24" viewBox="0 0 24 24" fill="none" xmlns="http://www.w3.org/2000/svg">
<path fill-rule="evenodd" clip-rule="evenodd" d="M3.55883 4.54363C3.91423 4.19378 4.39296 4 4.88889 4H19.1111C19.607 4 20.0858 4.19378 20.4412 4.54363C20.7971 4.89401 21 5.3726 21 5.875V15.125C21 15.6274 20.7971 16.106 20.4412 16.4564C20.0858 16.8062 19.607 17 19.1111 17H15.5L12.8 20.6C12.6111 20.8518 12.3148 21 12 21C11.6852 21 11.3889 20.8518 11.2 20.6L8.5 17H4.88889C4.39296 17 3.91423 16.8062 3.55883 16.4564C3.2029 16.106 3 15.6274 3 15.125V5.875C3 5.37259 3.2029 4.894 3.55883 4.54363ZM5 6V15H9C9.31476 15 9.61115 15.1482 9.8 15.4L12 18.3333L14.2 15.4C14.3889 15.1482 14.6852 15 15 15H19V6H5ZM6.55556 8.5C6.55556 7.94772 7.00327 7.5 7.55556 7.5H15.5556C16.1078 7.5 16.5556 7.94772 16.5556 8.5C16.5556 9.05228 16.1078 9.5 15.5556 9.5H7.55556C7.00327 9.5 6.55556 9.05228 6.55556 8.5ZM6.55556 12C6.55556 11.4477 7.00327 11 7.55556 11H12C12.5523 11 13 11.4477 13 12C13 12.5523 12.5523 13 12 13H7.55556C7.00327 13 6.55556 12.5523 6.55556 12Z" fill="currentColor"/>
</svg>
