<svg width="24" height="24" viewBox="0 0 24 24" fill="none" xmlns="http://www.w3.org/2000/svg">
<path d="M10.9775 1C11.7538 1.0001 12.4264 1.44255 12.7578 2.08887C13.4497 1.85164 14.2459 2.00457 14.8037 2.54785L16.6836 4.37891C17.0701 4.75538 17.2881 5.27292 17.2881 5.8125C17.288 6.01215 17.2584 6.20905 17.2012 6.39648C17.8505 6.72694 18.2959 7.40119 18.2959 8.17969V10.7695C18.2959 11.4353 17.9701 12.0251 17.4697 12.3887L22.3623 16.9424C22.7631 17.3153 22.9938 17.8364 23 18.3838C23.0061 18.9311 22.7876 19.457 22.3955 19.8389L22.1543 20.0732C20.6012 21.5859 18.1264 21.5859 16.5732 20.0732L16.3691 19.875H16.0908C15.2684 19.875 14.5621 19.3785 14.2549 18.6689C13.7661 18.4726 13.3729 18.0887 13.1641 17.6064C12.9292 17.5121 12.7161 17.3742 12.5352 17.2031C12.1686 17.6579 11.6071 17.9491 10.9775 17.9492H8.31836C7.54195 17.9492 6.86851 17.5068 6.53711 16.8604C5.84538 17.0975 5.04997 16.9444 4.49219 16.4014L2.61133 14.5703C2.22479 14.1938 2.00684 13.6763 2.00684 13.1367C2.00688 12.937 2.0365 12.7402 2.09375 12.5527C1.44467 12.2222 1 11.5479 1 10.7695V8.17969C1 7.40136 1.44467 6.72702 2.09375 6.39648C2.03651 6.20905 2.00688 6.01216 2.00684 5.8125C2.00684 5.27292 2.22479 4.75538 2.61133 4.37891L4.49219 2.54785C5.04996 2.00481 5.84537 1.85175 6.53711 2.08887C6.86852 1.44239 7.54195 1 8.31836 1H10.9775ZM8.31836 4.45801C7.83049 4.58031 7.36943 4.76823 6.94629 5.01172L5.88672 3.98047L4.00684 5.8125L5.06543 6.84375C5.05856 6.85508 5.05171 6.86654 5.04492 6.87793C4.80494 7.28059 4.61916 7.7177 4.49707 8.17969H3V10.7695H4.49707C4.61916 11.2315 4.80494 11.6686 5.04492 12.0713C5.05172 12.0827 5.05855 12.0941 5.06543 12.1055L4.00684 13.1367L5.88672 14.9688L6.94629 13.9375C7.36943 14.181 7.83049 14.3689 8.31836 14.4912V15.9492H10.9775V14.4912C11.4654 14.3689 11.9265 14.181 12.3496 13.9375L13.9092 14.6875V15.75H15V16.8125H16.0908V17.875H17.1816L17.9678 18.6406C18.2243 18.8904 18.5316 19.0578 18.8555 19.1426C19.5121 19.3143 20.2388 19.147 20.7588 18.6406L21 18.4062L14.2295 12.1055C14.4387 11.7606 14.6082 11.3902 14.7314 11C14.7506 10.9392 14.7692 10.8781 14.7861 10.8164C14.7904 10.801 14.7947 10.785 14.7988 10.7695H16.2959V8.17969H14.7988C14.7947 8.1642 14.7904 8.14825 14.7861 8.13281C14.7823 8.11879 14.7784 8.10479 14.7744 8.09082C14.6525 7.66153 14.4746 7.25473 14.25 6.87793C14.2432 6.86652 14.2364 6.85511 14.2295 6.84375L15.2881 5.8125L13.4082 3.98047L12.3496 5.01172C11.9265 4.7682 11.4654 4.58033 10.9775 4.45801V3H8.31836V4.45801ZM9.09082 11H8.23828L8.07031 10.4434H7.11133L6.94336 11H6.09082L7.05078 8.09082H8.13086L9.09082 11ZM10.627 8.09082C10.8427 8.09084 11.0315 8.13359 11.1934 8.21875C11.3553 8.30397 11.4813 8.42379 11.5713 8.57812C11.6612 8.73244 11.706 8.91278 11.7061 9.11914C11.7061 9.3273 11.66 9.50777 11.5674 9.66016C11.4756 9.81252 11.3462 9.93032 11.1797 10.0127C11.014 10.095 10.8201 10.1367 10.5986 10.1367H10.1611V11H9.37109V8.09082H10.627ZM12.7861 11H11.9961V8.09082H12.7861V11ZM7.28906 9.85254H7.89258L7.60254 8.8916H7.5791L7.28906 9.85254ZM10.1611 9.52246H10.4395C10.5322 9.52244 10.6115 9.50679 10.6768 9.47461C10.7429 9.44152 10.7931 9.39441 10.8281 9.33398C10.8641 9.27338 10.8828 9.20153 10.8828 9.11914C10.8828 9.03588 10.8641 8.96492 10.8281 8.90625C10.7931 8.84669 10.7429 8.80075 10.6768 8.76953C10.6115 8.73735 10.5322 8.7217 10.4395 8.72168H10.1611V9.52246Z" fill="#101828"/>
</svg>
