<svg width="24" height="24" viewBox="0 0 24 24" fill="none" xmlns="http://www.w3.org/2000/svg">
<path fill-rule="evenodd" clip-rule="evenodd" d="M13.232 4C13.232 3.44772 13.6797 3 14.232 3H20C20.5523 3 21 3.44772 21 4V9.768C21 10.3203 20.5523 10.768 20 10.768C19.4477 10.768 19 10.3203 19 9.768V6.41421L12.8181 12.5961C12.4276 12.9866 11.7944 12.9866 11.4039 12.5961C11.0134 12.2056 11.0134 11.5724 11.4039 11.1819L17.5858 5H14.232C13.6797 5 13.232 4.55228 13.232 4ZM5.16614 7C5.14432 6.99998 5.12271 7.00427 5.10254 7.01261C5.08237 7.02095 5.06405 7.03319 5.04862 7.04862C5.03319 7.06405 5.02095 7.08237 5.01261 7.10254C5.00427 7.12271 4.99998 7.14432 5 7.16614L5 18.833C5 18.9169 5.01426 18.9564 5.01853 18.9665C5.01931 18.9684 5.01993 18.9697 5.0204 18.9707C5.02933 18.9764 5.07153 19 5.167 19H16.833C16.9039 19 16.9497 18.9744 16.9671 18.9587C16.9741 18.9524 16.9794 18.9455 16.9843 18.9344C16.989 18.9235 17 18.8932 17 18.833V14C17 13.4477 17.4477 13 18 13C18.5523 13 19 13.4477 19 14V18.833C19 20.234 17.8791 21 16.833 21H5.167C4.67119 21 4.12528 20.8517 3.68964 20.4641C3.23482 20.0595 3 19.4822 3 18.833V7.16738C3 7.16725 3 7.16751 3 7.16738C2.99987 6.88291 3.05577 6.60083 3.16452 6.33797C3.27338 6.07484 3.43305 5.83576 3.63441 5.63441C3.83576 5.43305 4.07484 5.27338 4.33797 5.16452C4.60083 5.05577 4.88253 4.99987 5.167 5C5.16687 5 5.16713 5 5.167 5H9.785C10.3373 5 10.785 5.44772 10.785 6C10.785 6.55228 10.3373 7 9.785 7L5.16614 7Z" fill="currentColor"/>
</svg>
