<svg width="24" height="24" viewBox="0 0 24 24" fill="none" xmlns="http://www.w3.org/2000/svg">
<path fill-rule="evenodd" clip-rule="evenodd" d="M10.2258 6.0893C9.48235 6.66609 8.74453 7.31543 8.03 8.02996C7.63948 8.42048 7.63948 9.05365 8.03 9.44417C8.42053 9.8347 9.05369 9.8347 9.44421 9.44417C10.2944 8.59398 11.1742 7.85057 12.045 7.22704C12.9159 7.85057 13.7957 8.594 14.6459 9.44419C15.0364 9.83472 15.6696 9.83472 16.0601 9.44419C16.4506 9.05367 16.4506 8.4205 16.0601 8.02998C15.3456 7.31544 14.6077 6.66609 13.8643 6.08929C14.8454 5.56587 15.7575 5.22963 16.5398 5.08359C17.6745 4.87177 18.3349 5.08652 18.6692 5.42085C19.1321 5.88375 19.3361 6.98655 18.6328 8.84638C17.9655 10.6109 16.5938 12.6979 14.6459 14.6459C12.698 16.5938 10.6109 17.9655 8.84643 18.6327C6.9866 19.336 5.88379 19.1321 5.42089 18.6692C5.08941 18.3377 4.87535 17.6861 5.07852 16.5675C5.22163 15.7796 5.55941 14.8576 6.08933 13.8642C6.66756 14.6095 7.31728 15.3474 8.03 16.0601C8.42052 16.4506 9.05369 16.4506 9.44421 16.0601C9.83474 15.6696 9.83474 15.0364 9.44421 14.6459C7.49628 12.6979 6.12461 10.6109 5.45734 8.8464C4.75403 6.98657 4.95799 5.88377 5.42089 5.42087C5.75522 5.08654 6.41565 4.87179 7.55029 5.08361C8.3326 5.22964 9.24468 5.56588 10.2258 6.0893ZM12.045 4.82775C13.4664 3.95753 14.8857 3.35782 16.1728 3.11755C17.6025 2.85066 19.0759 2.99911 20.0834 4.00663C21.4475 5.37066 21.2563 7.563 20.5035 9.55381C20.1993 10.3582 19.7814 11.1972 19.2623 12.045C20.1404 13.4792 20.7437 14.9124 20.9794 16.2101C21.2367 17.6268 21.0824 19.0844 20.0834 20.0834C19.0799 21.087 17.6138 21.2382 16.1902 20.9757C14.8982 20.7376 13.4724 20.1362 12.0451 19.2623C11.1973 19.7814 10.3582 20.1993 9.55385 20.5034C7.56304 21.2563 5.3707 21.4474 4.00668 20.0834C3.00767 19.0844 2.8534 17.6268 3.11072 16.2101C3.34641 14.9124 3.94968 13.4792 4.82777 12.045C4.30868 11.1972 3.89082 10.3582 3.58664 9.55383C2.83379 7.56302 2.64265 5.37068 4.00668 4.00665C5.0142 2.99914 6.48766 2.85069 7.91731 3.11757C9.20436 3.35783 10.6237 3.95754 12.045 4.82775ZM13.8643 18.0008C14.8511 18.5272 15.7678 18.8642 16.5527 19.0089C17.6799 19.2166 18.3362 19.0022 18.6692 18.6692C19.0007 18.3377 19.2148 17.6861 19.0116 16.5675C18.8685 15.7796 18.5307 14.8576 18.0008 13.8642C17.4225 14.6095 16.7728 15.3474 16.0601 16.0601C15.3474 16.7728 14.6096 17.4225 13.8643 18.0008ZM12.0001 11C11.4478 11 11.0001 11.4477 11.0001 12C11.0001 12.5523 11.4478 13 12.0001 13C12.5523 13 13.0001 12.5523 13.0001 12C13.0001 11.4477 12.5523 11 12.0001 11ZM9.00006 12C9.00006 10.3432 10.3432 9.00002 12.0001 9.00002C13.6569 9.00002 15.0001 10.3432 15.0001 12C15.0001 13.6569 13.6569 15 12.0001 15C10.3432 15 9.00006 13.6569 9.00006 12Z" fill="#101828"/>
</svg>
