<svg width="24" height="24" viewBox="0 0 24 24" fill="none" xmlns="http://www.w3.org/2000/svg">
<path fill-rule="evenodd" clip-rule="evenodd" d="M10.2258 6.08927C9.48235 6.66606 8.74453 7.3154 8.03 8.02993C7.63948 8.42045 7.63948 9.05362 8.03 9.44414C8.42053 9.83467 9.05369 9.83467 9.44421 9.44414C10.2944 8.59395 11.1742 7.85054 12.045 7.22701C12.9159 7.85054 13.7957 8.59397 14.6459 9.44416C15.0364 9.83469 15.6696 9.83469 16.0601 9.44416C16.4506 9.05364 16.4506 8.42047 16.0601 8.02995C15.3456 7.31541 14.6077 6.66606 13.8643 6.08926C14.8454 5.56584 15.7575 5.2296 16.5398 5.08356C17.6745 4.87174 18.3349 5.08649 18.6692 5.42082C19.1321 5.88372 19.3361 6.98652 18.6328 8.84635C17.9655 10.6109 16.5938 12.6979 14.6459 14.6458C12.698 16.5938 10.6109 17.9654 8.84643 18.6327C6.9866 19.336 5.88379 19.1321 5.42089 18.6692C5.08941 18.3377 4.87535 17.6861 5.07852 16.5675C5.22163 15.7795 5.55941 14.8575 6.08933 13.8642C6.66756 14.6095 7.31728 15.3473 8.03 16.0601C8.42052 16.4506 9.05369 16.4506 9.44421 16.0601C9.83474 15.6695 9.83474 15.0364 9.44421 14.6459C7.49628 12.6979 6.12461 10.6109 5.45734 8.84637C4.75403 6.98654 4.95799 5.88374 5.42089 5.42084C5.75522 5.08651 6.41565 4.87176 7.55029 5.08357C8.3326 5.22961 9.24468 5.56585 10.2258 6.08927ZM12.045 4.82772C13.4664 3.9575 14.8857 3.35779 16.1728 3.11752C17.6025 2.85063 19.0759 2.99908 20.0834 4.0066C21.4475 5.37063 21.2563 7.56297 20.5035 9.55378C20.1993 10.3582 19.7814 11.1972 19.2623 12.045C20.1404 13.4792 20.7437 14.9124 20.9794 16.2101C21.2367 17.6268 21.0824 19.0844 20.0834 20.0834C19.0799 21.087 17.6138 21.2381 16.1902 20.9757C14.8982 20.7375 13.4724 20.1362 12.0451 19.2623C11.1973 19.7814 10.3582 20.1992 9.55385 20.5034C7.56304 21.2563 5.3707 21.4474 4.00668 20.0834C3.00767 19.0844 2.8534 17.6268 3.11072 16.2101C3.34641 14.9124 3.94968 13.4792 4.82777 12.045C4.30868 11.1972 3.89082 10.3582 3.58664 9.5538C2.83379 7.56299 2.64265 5.37065 4.00668 4.00662C5.0142 2.99911 6.48766 2.85065 7.91731 3.11754C9.20436 3.3578 10.6237 3.95751 12.045 4.82772ZM13.8643 18.0007C14.8511 18.5272 15.7678 18.8641 16.5527 19.0088C17.6799 19.2166 18.3362 19.0022 18.6692 18.6692C19.0007 18.3377 19.2148 17.6861 19.0116 16.5675C18.8685 15.7795 18.5307 14.8575 18.0008 13.8642C17.4225 14.6095 16.7728 15.3473 16.0601 16.06C15.3474 16.7728 14.6096 17.4225 13.8643 18.0007ZM12.0001 11C11.4478 11 11.0001 11.4477 11.0001 12C11.0001 12.5523 11.4478 13 12.0001 13C12.5523 13 13.0001 12.5523 13.0001 12C13.0001 11.4477 12.5523 11 12.0001 11ZM9.00006 12C9.00006 10.3431 10.3432 8.99999 12.0001 8.99999C13.6569 8.99999 15.0001 10.3431 15.0001 12C15.0001 13.6568 13.6569 15 12.0001 15C10.3432 15 9.00006 13.6568 9.00006 12Z" fill="currentColor"/>
</svg>
