<svg width="24" height="24" viewBox="0 0 24 24" fill="none" xmlns="http://www.w3.org/2000/svg">
<path fill-rule="evenodd" clip-rule="evenodd" d="M9.89569 3.05107C10.9692 1.69168 13.0307 1.69168 14.1043 3.05107C14.251 3.23679 14.4835 3.33311 14.7186 3.3055C16.4389 3.10338 17.8966 4.56108 17.6945 6.28144C17.6669 6.51648 17.7632 6.74901 17.9489 6.89569C19.3083 7.96924 19.3083 10.0307 17.9489 11.1043C17.7632 11.251 17.6669 11.4835 17.6945 11.7185C17.7226 11.9582 17.7186 12.1927 17.6861 12.4184C17.7157 12.4715 17.7409 12.5281 17.7609 12.5878L19.9147 18.999C20.0354 19.3584 19.9425 19.7553 19.6746 20.0237C19.4068 20.2922 19.0102 20.386 18.6505 20.2661L16.701 19.6162L15.557 21.3232C15.3463 21.6376 14.9762 21.8061 14.6008 21.7586C14.2253 21.7111 13.9088 21.4557 13.7831 21.0987L11.9922 16.0145L10.2014 21.0987C10.0757 21.4557 9.7592 21.7111 9.38375 21.7586C9.0083 21.8061 8.63819 21.6376 8.4275 21.3232L7.28348 19.6162L5.33404 20.2661C4.97431 20.386 4.57769 20.2921 4.30986 20.0237C4.04204 19.7552 3.94909 19.3584 4.06985 18.999L6.22358 12.5878C6.2464 12.5198 6.27581 12.456 6.31085 12.3967C6.28117 12.1777 6.27825 11.9505 6.3055 11.7185C6.33311 11.4835 6.23679 11.251 6.05107 11.1043C4.69168 10.0307 4.69168 7.96924 6.05107 6.89569C6.23679 6.74901 6.33311 6.51648 6.3055 6.28144C6.10339 4.56108 7.56109 3.10338 9.28144 3.3055C9.51648 3.33311 9.74902 3.23679 9.89569 3.05107ZM7.72235 14.4068L6.60451 17.7343L7.37375 17.4779C7.80071 17.3356 8.27014 17.496 8.5207 17.8699L8.97795 18.5521L10.1404 15.2518C10.1432 15.2438 10.1461 15.2359 10.1491 15.2281C10.0598 15.1424 9.97504 15.0494 9.89569 14.9489C9.74902 14.7632 9.51648 14.6669 9.28144 14.6945C8.71703 14.7608 8.18088 14.6485 7.72235 14.4068ZM13.8394 15.239C13.933 15.1504 14.0216 15.0537 14.1043 14.9489C14.251 14.7632 14.4835 14.6669 14.7186 14.6945C15.2776 14.7602 15.8089 14.6506 16.2645 14.4137L17.38 17.7344L16.6108 17.4779C16.1838 17.3356 15.7144 17.496 15.4638 17.8699L15.0066 18.5521L13.8441 15.2519C13.8426 15.2475 13.841 15.2432 13.8394 15.239ZM12.5347 4.29061C12.2619 3.94516 11.7381 3.94516 11.4653 4.29061C10.8881 5.02147 9.973 5.4005 9.04808 5.29184C8.61091 5.24047 8.24048 5.6109 8.29184 6.04808C8.4005 6.973 8.02147 7.88807 7.29061 8.46525C6.94517 8.73806 6.94517 9.26193 7.29061 9.53474C8.02147 10.1119 8.4005 11.027 8.29184 11.9519C8.24048 12.3891 8.61091 12.7595 9.04808 12.7082C9.97301 12.5995 10.8881 12.9785 11.4653 13.7094C11.7381 14.0548 12.2619 14.0548 12.5347 13.7094C13.1119 12.9785 14.027 12.5995 14.9519 12.7082C15.3891 12.7595 15.7595 12.3891 15.7082 11.9519C15.5995 11.027 15.9785 10.1119 16.7094 9.53474C17.0548 9.26193 17.0548 8.73806 16.7094 8.46525C15.9785 7.88807 15.5995 6.973 15.7082 6.04808C15.7595 5.6109 15.3891 5.24047 14.9519 5.29184C14.027 5.4005 13.1119 5.02146 12.5347 4.29061ZM12 7.99999C11.4477 7.99999 11 8.44771 11 8.99999C11 9.55228 11.4477 9.99999 12 9.99999C12.5523 9.99999 13 9.55228 13 8.99999C13 8.44771 12.5523 7.99999 12 7.99999ZM9 8.99999C9 7.34314 10.3431 5.99999 12 5.99999C13.6569 5.99999 15 7.34314 15 8.99999C15 10.6568 13.6569 12 12 12C10.3431 12 9 10.6568 9 8.99999Z" fill="#101828"/>
</svg>
