<svg width="24" height="24" viewBox="0 0 24 24" fill="none" xmlns="http://www.w3.org/2000/svg">
<path d="M2.9917 3.9834C3.54398 3.9834 3.9917 4.43111 3.9917 4.9834V18.917C3.9917 19.4693 3.54398 19.917 2.9917 19.917C2.43941 19.917 1.9917 19.4693 1.9917 18.917V4.9834C1.9917 4.43111 2.43941 3.9834 2.9917 3.9834ZM5.479 3.9834C5.75515 3.9834 5.979 4.20726 5.979 4.4834V19.417C5.979 19.6931 5.75515 19.917 5.479 19.917C5.20297 19.9169 4.979 19.6931 4.979 19.417V4.4834C4.979 4.20734 5.20297 3.98353 5.479 3.9834ZM7.47119 3.9834C7.74722 3.98353 7.97119 4.20734 7.97119 4.4834V19.417C7.97119 19.6931 7.74722 19.9169 7.47119 19.917C7.19505 19.917 6.97119 19.6931 6.97119 19.417V4.4834C6.97119 4.20726 7.19505 3.9834 7.47119 3.9834ZM9.9624 3.9834C10.5147 3.9834 10.9624 4.43111 10.9624 4.9834V18.917C10.9624 19.4693 10.5147 19.917 9.9624 19.917C9.41023 19.9169 8.9624 19.4692 8.9624 18.917V4.9834C8.9624 4.4312 9.41023 3.98353 9.9624 3.9834ZM13.4458 3.9834C13.7219 3.9834 13.9458 4.20726 13.9458 4.4834V19.417C13.9458 19.6931 13.7219 19.917 13.4458 19.917C13.1698 19.9169 12.9458 19.693 12.9458 19.417V4.4834C12.9458 4.20734 13.1698 3.98354 13.4458 3.9834ZM15.938 3.9834C16.4902 3.98352 16.938 4.43119 16.938 4.9834V18.917C16.938 19.4692 16.4902 19.9169 15.938 19.917C15.3857 19.917 14.938 19.4693 14.938 18.917V4.9834C14.938 4.43111 15.3857 3.9834 15.938 3.9834ZM18.9253 3.9834C19.4776 3.9834 19.9253 4.43111 19.9253 4.9834V18.917C19.9253 19.4693 19.4776 19.917 18.9253 19.917C18.373 19.917 17.9253 19.4693 17.9253 18.917V4.9834C17.9253 4.43112 18.373 3.98341 18.9253 3.9834ZM21.4126 3.9834C21.6887 3.9834 21.9126 4.20726 21.9126 4.4834V19.417C21.9126 19.6931 21.6887 19.917 21.4126 19.917C21.1366 19.9169 20.9126 19.693 20.9126 19.417V4.4834C20.9126 4.20734 21.1366 3.98354 21.4126 3.9834Z" fill="currentColor"/>
</svg>
