<svg width="24" height="24" viewBox="0 0 24 24" fill="none" xmlns="http://www.w3.org/2000/svg">
<path fill-rule="evenodd" clip-rule="evenodd" d="M1.98755 7.97095C1.98755 6.86638 2.88298 5.97095 3.98755 5.97095H16.9253C18.0299 5.97095 18.9253 6.86638 18.9253 7.97095L18.9253 8.9585H19.9129C21.0174 8.9585 21.9129 9.85393 21.9129 10.9585V12.9419C21.9129 14.0465 21.0174 14.9419 19.9129 14.9419H18.9253V15.9295C18.9253 17.034 18.0299 17.9295 16.9253 17.9295H3.98755C2.88298 17.9295 1.98755 17.034 1.98755 15.9295V7.97095ZM16.9253 7.97095H3.98755V15.9295L16.9253 15.9295L16.9253 7.97095ZM18.9253 12.9419L19.9129 12.9419V10.9585H18.9253V12.9419ZM4.9751 9.9585C4.9751 9.40621 5.42282 8.9585 5.9751 8.9585H14.9378C15.49 8.9585 15.9378 9.40621 15.9378 9.9585V13.9419C15.9378 14.4942 15.49 14.9419 14.9378 14.9419H5.9751C5.42282 14.9419 4.9751 14.4942 4.9751 13.9419V9.9585ZM6.9751 10.9585V12.9419H13.9378V10.9585H6.9751Z" fill="currentColor"/>
</svg>
