<svg width="24" height="24" viewBox="0 0 24 24" fill="none" xmlns="http://www.w3.org/2000/svg">
<path fill-rule="evenodd" clip-rule="evenodd" d="M4 8C4 5.79086 5.79086 4 8 4H16C18.2091 4 20 5.79086 20 8V9.53513C21.1956 10.2267 22 11.5194 22 13V17C22 17.5523 21.5523 18 21 18H19V19C19 19.5523 18.5523 20 18 20C17.4477 20 17 19.5523 17 19V18H7V19C7 19.5523 6.55228 20 6 20C5.44772 20 5 19.5523 5 19V18H3C2.44772 18 2 17.5523 2 17V13C2 11.5194 2.8044 10.2267 4 9.53513V8ZM6 9H11V6H8C6.89543 6 6 6.89543 6 8V9ZM13 6V9H18V8C18 6.89543 17.1046 6 16 6H13ZM6 11C4.89543 11 4 11.8954 4 13V16H20V13C20 11.8954 19.1046 11 18 11H6Z" fill="currentColor"/>
</svg>
