<svg width="24" height="24" viewBox="0 0 24 24" fill="none" xmlns="http://www.w3.org/2000/svg">
<path fill-rule="evenodd" clip-rule="evenodd" d="M12 2C12.5523 2 13 2.44772 13 3V4.47662C14.2812 4.7247 15.4631 5.36428 16.3759 6.31881C17.5125 7.50752 18.1426 9.09149 18.133 10.7361V12.533C18.133 13.4124 18.4565 13.9437 18.854 14.4515C18.9046 14.5162 18.9671 14.5928 19.0352 14.6762C19.2 14.8782 19.3976 15.1204 19.5387 15.3308C19.7677 15.6722 20 16.1296 20 16.708C20 16.7224 20 16.7374 20 16.7531C20.0004 17.0151 20.0011 17.456 19.8981 17.8372C19.8401 18.0517 19.7258 18.3457 19.4761 18.5926C19.1983 18.8672 18.838 19 18.462 19H16.4158C16.0842 19.7999 15.4835 20.4147 14.9897 20.857C14.1679 21.5931 13.1033 22.0002 12 22.0002C10.8966 22.0002 9.83209 21.5931 9.01024 20.857C8.38706 20.2988 8.0688 19.6602 7.89654 19H5.53798C5.16191 19 4.80161 18.8672 4.52389 18.5926C4.27414 18.3457 4.15981 18.0517 4.10185 17.8372C3.99884 17.456 3.99953 17.0151 3.99993 16.7531C3.99996 16.7374 3.99998 16.7224 3.99998 16.708C3.99998 16.1296 4.23223 15.6722 4.46124 15.3308C4.60238 15.1204 4.79998 14.8782 4.96479 14.6763C5.03289 14.5928 5.09539 14.5162 5.14599 14.4515C5.54349 13.9437 5.86698 13.4124 5.86698 12.533V10.736C5.85738 9.09147 6.48742 7.50751 7.62408 6.31881C8.53682 5.36428 9.7188 4.7247 11 4.47662V3C11 2.44772 11.4477 2 12 2ZM12 6.36591C10.8886 6.41845 9.83923 6.89615 9.06958 7.70103C8.29108 8.51517 7.8598 9.60022 7.86696 10.7266L7.867 10.733L7.86698 12.533C7.86698 14.0396 7.25697 14.9993 6.72097 15.6842C6.60453 15.833 6.50996 15.9481 6.42884 16.0468C6.30537 16.1971 6.21305 16.3095 6.12215 16.445C6.0011 16.6254 5.99998 16.6899 5.99998 16.708C5.99998 16.817 6.00012 16.9124 6.00254 17H17.9974C17.9998 16.9124 18 16.817 18 16.708C18 16.6899 17.9989 16.6254 17.8778 16.445C17.7869 16.3095 17.6946 16.1971 17.5711 16.0468C17.49 15.9481 17.3954 15.833 17.279 15.6842C16.743 14.9993 16.133 14.0396 16.133 12.533V10.7266C16.1401 9.60022 15.7089 8.51517 14.9304 7.70103C14.1607 6.89615 13.1114 6.41845 12 6.36591ZM10.0363 19C10.1186 19.1362 10.2197 19.2553 10.3446 19.3672C10.7997 19.7748 11.3891 20.0002 12 20.0002C12.6109 20.0002 13.2003 19.7748 13.6553 19.3672C13.7963 19.2409 13.9229 19.1188 14.0348 19H10.0363Z" fill="#101828"/>
</svg>
