<svg width="24" height="24" viewBox="0 0 24 24" fill="none" xmlns="http://www.w3.org/2000/svg">
<path fill-rule="evenodd" clip-rule="evenodd" d="M12 2.099C12.5523 2.099 13 2.54671 13 3.099V4.57562C14.2812 4.8237 15.4632 5.46328 16.3759 6.41781C17.5126 7.60652 18.1426 9.19049 18.133 10.8351V12.632C18.133 13.5114 18.4565 14.0427 18.854 14.5505C18.9046 14.6152 18.9671 14.6918 19.0352 14.7753C19.2 14.9772 19.3976 15.2194 19.5387 15.4298C19.7677 15.7712 20 16.2286 20 16.807C20 16.8227 20 16.8393 20.0001 16.8567C20.0007 17.1113 20.0016 17.5431 19.8906 17.9133C19.8247 18.1326 19.696 18.4206 19.4277 18.6529C19.1412 18.901 18.7955 19 18.462 19H16.2626C16.0202 19.7479 15.5833 20.4243 14.9897 20.956C14.1679 21.6921 13.1033 22.0992 12 22.0992C10.8967 22.0992 9.83211 21.6921 9.01026 20.956C8.41666 20.4243 7.97981 19.7479 7.73736 19H5.538C5.20452 19 4.85884 18.901 4.57234 18.6529C4.30399 18.4206 4.17526 18.1326 4.10944 17.9133C3.99835 17.5431 3.99934 17.1113 3.99992 16.8567C3.99996 16.8393 4 16.8227 4 16.807C4 16.2286 4.23226 15.7712 4.46126 15.4298C4.6024 15.2194 4.8 14.9772 4.96481 14.7753C5.03291 14.6918 5.09541 14.6152 5.14601 14.5505C5.54351 14.0427 5.867 13.5114 5.867 12.632V10.835C5.85741 9.19046 6.48745 7.60651 7.6241 6.41781C8.53684 5.46328 9.71882 4.8237 11 4.57562V3.099C11 2.54671 11.4477 2.099 12 2.099ZM12 6.46491C10.8886 6.51745 9.83925 6.99515 9.0696 7.80003C8.2911 8.61417 7.85982 9.69921 7.86698 10.8256L7.86702 10.832L7.867 12.632C7.867 14.1386 7.25699 15.0983 6.72099 15.7832C6.60455 15.932 6.50998 16.0471 6.42886 16.1458C6.30539 16.2961 6.21307 16.4085 6.12217 16.544C6.00112 16.7244 6 16.7889 6 16.807C6 16.8784 6.00007 16.942 6.00076 17H17.9992C17.9999 16.942 18 16.8784 18 16.807C18 16.7889 17.9989 16.7244 17.8778 16.544C17.7869 16.4085 17.6946 16.2961 17.5711 16.1458C17.49 16.0471 17.3954 15.932 17.279 15.7832C16.743 15.0983 16.133 14.1386 16.133 12.632V10.8256C16.1402 9.69921 15.7089 8.61417 14.9304 7.80003C14.1608 6.99515 13.1114 6.51745 12 6.46491ZM9.93941 19C10.0537 19.1704 10.1895 19.3273 10.3447 19.4662C10.7997 19.8738 11.3891 20.0992 12 20.0992C12.6109 20.0992 13.2003 19.8738 13.6553 19.4662C13.8105 19.3273 13.9463 19.1704 14.0606 19H9.93941ZM4.29289 3.29289C4.68342 2.90237 5.31658 2.90237 5.70711 3.29289L6.70711 4.29289C7.09763 4.68342 7.09763 5.31658 6.70711 5.70711C6.31658 6.09763 5.68342 6.09763 5.29289 5.70711L4.29289 4.70711C3.90237 4.31658 3.90237 3.68342 4.29289 3.29289ZM19.7071 3.29289C20.0976 3.68342 20.0976 4.31658 19.7071 4.70711L18.7071 5.70711C18.3166 6.09763 17.6834 6.09763 17.2929 5.70711C16.9024 5.31658 16.9024 4.68342 17.2929 4.29289L18.2929 3.29289C18.6834 2.90237 19.3166 2.90237 19.7071 3.29289ZM2 9C2 8.44771 2.44772 8 3 8H4C4.55228 8 5 8.44771 5 9C5 9.55228 4.55228 10 4 10H3C2.44772 10 2 9.55228 2 9ZM19 9C19 8.44771 19.4477 8 20 8H21C21.5523 8 22 8.44771 22 9C22 9.55228 21.5523 10 21 10H20C19.4477 10 19 9.55228 19 9Z" fill="currentColor"/>
</svg>
