<svg width="24" height="24" viewBox="0 0 24 24" fill="none" xmlns="http://www.w3.org/2000/svg">
<path fill-rule="evenodd" clip-rule="evenodd" d="M12 2C12.5523 2 13 2.44772 13 3V4.47662C14.2811 4.7247 15.4631 5.36428 16.3759 6.31881C17.5125 7.50752 18.1426 9.09149 18.133 10.7361V12.533C18.133 13.4124 18.4565 13.9437 18.854 14.4515C18.9046 14.5162 18.9671 14.5928 19.0351 14.6762C19.2 14.8782 19.3976 15.1204 19.5387 15.3308C19.7677 15.6722 20 16.1296 20 16.708C20 16.7237 20 16.7403 20 16.7577C20.0006 17.0123 20.0016 17.4441 19.8905 17.8143C19.8247 18.0336 19.696 18.3216 19.4276 18.5539C19.1411 18.802 18.7954 18.901 18.462 18.901H16.2626C16.0202 19.6489 15.5833 20.3253 14.9897 20.857C14.1679 21.5931 13.1033 22.0002 12 22.0002C10.8966 22.0002 9.83207 21.5931 9.01023 20.857C8.41663 20.3253 7.97978 19.6489 7.73732 18.901H5.53797C5.20448 18.901 4.85881 18.802 4.57231 18.5539C4.30396 18.3216 4.17523 18.0336 4.10941 17.8143C3.99832 17.4441 3.99931 17.0123 3.99989 16.7577C3.99993 16.7403 3.99997 16.7237 3.99997 16.708C3.99997 16.1296 4.23222 15.6722 4.46123 15.3308C4.60237 15.1204 4.79997 14.8782 4.96478 14.6763C5.03288 14.5928 5.09537 14.5162 5.14598 14.4515C5.54347 13.9437 5.86697 13.4124 5.86697 12.533V10.736C5.85737 9.09147 6.48741 7.50751 7.62407 6.31881C8.53681 5.36428 9.71879 4.7247 11 4.47662V3C11 2.44772 11.4477 2 12 2ZM12 6.36591C10.8885 6.41845 9.83921 6.89615 9.06957 7.70103C8.29107 8.51517 7.85979 9.60022 7.86695 10.7266L7.86699 10.733L7.86697 12.533C7.86697 14.0396 7.25696 14.9993 6.72096 15.6842C6.60452 15.833 6.50995 15.9481 6.42883 16.0468C6.30536 16.1971 6.21303 16.3095 6.12214 16.445C6.00109 16.6254 5.99997 16.6899 5.99997 16.708C5.99997 16.7794 6.00004 16.843 6.00073 16.901H17.9992C17.9999 16.843 18 16.7794 18 16.708C18 16.6899 17.9988 16.6254 17.8778 16.445C17.7869 16.3095 17.6946 16.1971 17.5711 16.0468C17.49 15.9481 17.3954 15.833 17.279 15.6842C16.743 14.9993 16.133 14.0396 16.133 12.533V10.7266C16.1401 9.60022 15.7089 8.51517 14.9304 7.70103C14.1607 6.89615 13.1114 6.41845 12 6.36591ZM9.93937 18.901C10.0537 19.0714 10.1895 19.2283 10.3446 19.3672C10.7997 19.7748 11.3891 20.0002 12 20.0002C12.6109 20.0002 13.2003 19.7748 13.6553 19.3672C13.8105 19.2283 13.9463 19.0714 14.0606 18.901H9.93937ZM6.7974 4.28526C7.20263 4.66051 7.22694 5.2932 6.8517 5.69844C5.58186 7.06977 4.87318 8.8679 4.86596 10.7369C4.86383 11.2891 4.41439 11.7351 3.86211 11.733C3.30982 11.7309 2.86384 11.2814 2.86597 10.7291C2.87513 8.35898 3.77385 6.07865 5.38423 4.33957C5.75947 3.93433 6.39217 3.91002 6.7974 4.28526ZM17.2025 4.28526C17.6078 3.91002 18.2405 3.93433 18.6157 4.33957C20.2261 6.07865 21.1248 8.35898 21.134 10.7291C21.1361 11.2814 20.6901 11.7309 20.1378 11.733C19.5855 11.7351 19.1361 11.2891 19.134 10.7369C19.1268 8.8679 18.4181 7.06977 17.1482 5.69844C16.773 5.2932 16.7973 4.66051 17.2025 4.28526Z" fill="#101828"/>
</svg>
