<svg width="24" height="24" viewBox="0 0 24 24" fill="none" xmlns="http://www.w3.org/2000/svg">
<path fill-rule="evenodd" clip-rule="evenodd" d="M10.2993 2.1886C10.8411 2.08185 11.367 2.43459 11.4737 2.97646L11.7591 4.42524C13.0641 4.421 14.3474 4.82006 15.4274 5.58016C16.7724 6.52675 17.6967 7.95908 18.0052 9.57451L18.3525 11.3375C18.5225 12.2003 18.9426 12.6591 19.4308 13.0805C19.4929 13.1342 19.569 13.1973 19.652 13.266C19.8527 13.4323 20.0934 13.6317 20.2725 13.8109C20.5632 14.1015 20.8795 14.5055 20.9913 15.0729C20.9943 15.0883 20.9976 15.1046 21.001 15.1217C21.0508 15.3714 21.1352 15.7948 21.0977 16.1795C21.0756 16.4075 21.0049 16.7148 20.7865 16.9947C20.5534 17.2935 20.2334 17.4574 19.9062 17.5219L16.258 18.2406C16.1634 18.9753 15.8797 19.6785 15.4276 20.2784C14.7907 21.1235 13.8644 21.7039 12.8261 21.9084C11.7878 22.113 10.7106 21.9273 9.80073 21.3869C9.15493 21.0033 8.62568 20.4602 8.25946 19.8163L7.2259 20.0199C6.89871 20.0844 6.54042 20.0541 6.21137 19.866C5.90316 19.6899 5.72121 19.4323 5.61423 19.2298C5.43368 18.888 5.3512 18.4642 5.30255 18.2143C5.29922 18.1972 5.29605 18.1809 5.29302 18.1655C5.18123 17.5981 5.32069 17.1044 5.47939 16.7252C5.5772 16.4915 5.72427 16.2157 5.84693 15.9856C5.89761 15.8906 5.94412 15.8034 5.98128 15.7301C6.27311 15.155 6.48781 14.5712 6.31784 13.7084L5.9705 11.9453C5.64321 10.3336 5.95521 8.65776 6.84067 7.27178C7.5517 6.15883 8.58776 5.30285 9.79683 4.81181L9.51142 3.36303C9.40467 2.82116 9.7574 2.29535 10.2993 2.1886ZM11.1432 6.47218C10.0629 6.73855 9.12564 7.41007 8.52608 8.34854C7.91963 9.2978 7.7062 10.4457 7.93095 11.5495L7.93222 11.5558L8.28012 13.3218C8.57133 14.8 8.15833 15.8596 7.76481 16.6351C7.67933 16.8036 7.60879 16.9348 7.54829 17.0474C7.45619 17.2187 7.38733 17.3468 7.32434 17.4973C7.24045 17.6977 7.2518 17.7612 7.25531 17.779C7.26912 17.8491 7.28147 17.9114 7.29336 17.9682L8.61774 17.7073C8.63038 17.7043 8.64311 17.7015 8.65591 17.699L15.0881 16.4318C15.1009 16.4293 15.1137 16.427 15.1266 16.425L19.0656 15.649C19.055 15.592 19.0428 15.5296 19.029 15.4595C19.0255 15.4417 19.012 15.3787 18.8583 15.2251C18.7429 15.1097 18.6306 15.0173 18.4804 14.8937C18.3818 14.8125 18.2667 14.7178 18.1237 14.5944C17.4655 14.026 16.6815 13.2023 16.3902 11.7241L16.0411 9.95182C15.8304 8.84525 15.1975 7.86403 14.2764 7.21571C13.3656 6.57477 12.2438 6.3089 11.1432 6.47218ZM10.4433 19.3861C10.5588 19.4919 10.6855 19.5862 10.822 19.6673C11.3085 19.9562 11.8844 20.0555 12.4395 19.9461C12.9946 19.8368 13.4899 19.5265 13.8304 19.0746C13.926 18.9479 14.0074 18.8125 14.0742 18.6708L10.4433 19.3861ZM6.27201 4.28529C6.67724 4.66054 6.70155 5.29323 6.32631 5.69847C5.05647 7.0698 4.34779 8.86793 4.34057 10.7369C4.33844 11.2892 3.889 11.7352 3.33671 11.733C2.78443 11.7309 2.33845 11.2814 2.34058 10.7292C2.34974 8.35901 3.24846 6.07868 4.85884 4.3396C5.23408 3.93436 5.86678 3.91005 6.27201 4.28529Z" fill="#383838"/>
</svg>
