<svg width="24" height="24" viewBox="0 0 24 24" fill="none" xmlns="http://www.w3.org/2000/svg">
<path fill-rule="evenodd" clip-rule="evenodd" d="M4.92444 4.00001H6.98327C7.76418 4.00001 8.39578 4.30824 8.74293 4.89852C9.03567 5.3963 9.01417 5.91759 8.9892 6.15017L8.78815 8.02248C8.74504 8.42397 8.60148 8.81252 8.30784 9.12679C8.02214 9.43256 7.67338 9.58305 7.37249 9.66142C7.14633 9.72033 6.89403 9.74868 6.64617 9.76182C6.61877 10.1648 6.61055 10.5688 6.62158 10.9727C6.62207 10.9909 6.62207 11.0091 6.62158 11.0273C6.61047 11.4343 6.6189 11.8414 6.64681 12.2475C6.83771 12.2638 7.03264 12.2928 7.2131 12.3432C7.506 12.425 7.8429 12.5797 8.11879 12.883C8.40102 13.1932 8.54397 13.5758 8.58711 13.9775L8.78813 15.8496C8.78812 15.8495 8.78814 15.8497 8.78813 15.8496C8.81836 16.1308 8.78488 16.4143 8.69125 16.68C8.59767 16.9455 8.44728 17.1846 8.25418 17.3838C8.06128 17.5827 7.82996 17.7376 7.5774 17.8422C7.32492 17.9468 7.05434 17.9999 6.78247 18H5.66579C5.37017 18 4.85289 17.9788 4.34845 17.8344C3.88565 17.7018 3.12767 17.374 2.85256 16.5433C2.25924 14.7519 1.9736 12.8828 2.00702 11.0059C1.95102 9.11652 2.23045 7.23227 2.83316 5.42999C2.83759 5.41675 2.84229 5.40361 2.84727 5.39057C3.00926 4.96614 3.30368 4.6117 3.67669 4.36746C4.04827 4.12416 4.48407 3.99857 4.92444 4.00001ZM4.9182 6C4.85995 5.99975 4.80882 6.01676 4.77229 6.04068C4.74262 6.0601 4.72714 6.08066 4.71955 6.09539C4.19587 7.67338 3.95533 9.31979 4.00681 10.9688C4.00734 10.9856 4.00744 11.0025 4.00711 11.0193C3.97554 12.6528 4.21882 14.2814 4.72873 15.8463C4.76021 15.8634 4.81464 15.8875 4.89905 15.9116C5.13903 15.9804 5.43956 16 5.66579 16H6.78199C6.78575 16 6.78934 15.9998 6.79271 15.9994L6.60535 14.2545C6.54372 14.2442 6.45732 14.2357 6.3372 14.2316C6.21453 14.2275 6.09846 14.2284 5.96202 14.2294C5.89494 14.2299 5.82293 14.2304 5.74279 14.2304C5.24268 14.2304 4.81947 13.861 4.75195 13.3655C4.64508 12.5812 4.6015 11.7905 4.6216 11C4.6015 10.2095 4.64508 9.4188 4.75195 8.63456C4.81947 8.13904 5.24268 7.76959 5.74279 7.76959C5.83695 7.76959 5.92295 7.77012 6.0035 7.77061C6.1703 7.77165 6.31375 7.77253 6.45801 7.76826C6.61816 7.76351 6.72958 7.7528 6.80708 7.73911L6.99382 6.00006C6.99038 6.00003 6.98686 6.00001 6.98327 6.00001L4.9182 6ZM10 5C10 4.44772 10.4477 4 11 4H20.0591C20.0726 4 20.086 4.00027 20.0995 4.00082C20.3822 4.01226 20.6592 4.08416 20.9118 4.21166C21.1644 4.33916 21.3867 4.51929 21.5638 4.7399C21.7409 4.96052 21.8687 5.2165 21.9386 5.49061C22.0083 5.76398 22.0188 6.04909 21.9694 6.32686C21.9693 6.3276 21.9692 6.32834 21.969 6.32908L20.2765 16.046C20.7275 16.571 21 17.2536 21 18V19C21 19.5523 20.5523 20 20 20H10C9.44772 20 9 19.5523 9 19V18C9 17.1115 9.38625 16.3132 10 15.7639V5ZM12 15H18.4285L18.9511 12H15.9978C15.4455 12 14.9978 11.5523 14.9978 11C14.9978 10.4477 15.4455 10 15.9978 10H19.2995L19.4737 9H15.9978C15.4455 9 14.9978 8.55228 14.9978 8C14.9978 7.44772 15.4455 7 15.9978 7H19.8221L19.9963 6H12V15ZM12 17C11.4477 17 11 17.4477 11 18H19C19 17.4477 18.5523 17 18 17H12Z" fill="currentColor"/>
</svg>
