<svg width="24" height="24" viewBox="0 0 24 24" fill="none" xmlns="http://www.w3.org/2000/svg">
<path fill-rule="evenodd" clip-rule="evenodd" d="M8 4V18.9194L11.3753 16.2191C11.7405 15.927 12.2595 15.927 12.6247 16.2191L16 18.9194V4H8ZM6.51454 2.57641C6.85264 2.21577 7.32551 2 7.83333 2H16.1667C16.6745 2 17.1474 2.21577 17.4855 2.57641C17.8215 2.93486 18 3.408 18 3.88889V21C18 21.3844 17.7797 21.7348 17.4332 21.9013C17.0867 22.0678 16.6755 22.021 16.3753 21.7809L12 18.2806L7.6247 21.7809C7.32453 22.021 6.91328 22.0678 6.56681 21.9013C6.22035 21.7348 6 21.3844 6 21V3.88889C6 3.408 6.17849 2.93486 6.51454 2.57641Z" fill="#101828"/>
</svg>
