<svg width="24" height="24" viewBox="0 0 24 24" fill="none" xmlns="http://www.w3.org/2000/svg">
<path fill-rule="evenodd" clip-rule="evenodd" d="M4 6.00666V16.9993C4 16.9993 4 16.9994 4 16.9994C4.00034 16.9999 4.00085 17.0005 4.00159 17.0012C4.0036 17.0032 4.00595 17.0046 4.00808 17.0055C4.00905 17.0059 4.01004 17.0062 4.01116 17.0064C4.01222 17.0066 4.01399 17.0069 4.01676 17.0068C6.7674 16.9695 8.6204 17.159 11 17.7367V6.78502C8.67184 6.15029 6.92393 5.96009 4 6.00666ZM13 6.78502V17.7367C15.3796 17.159 17.2326 16.9695 19.9832 17.0068C19.986 17.0069 19.9878 17.0066 19.9888 17.0064C19.99 17.0062 19.9909 17.0059 19.9919 17.0055C19.994 17.0046 19.9964 17.0032 19.9984 17.0012C19.9992 17.0005 19.9997 16.9999 20 16.9994C20 16.9994 20 16.9993 20 16.9993V6.00666C17.0761 5.96009 15.3282 6.15029 13 6.78502ZM12 4.98821C9.22536 4.19167 7.24807 3.95398 3.95528 4.00712C2.86063 4.02479 2 4.9218 2 6.0004V16.9993C2 18.1325 2.93408 19.0217 4.04387 19.0066C7.06965 18.9656 8.87162 19.2073 11.7351 19.9939C11.9085 20.0416 12.0915 20.0416 12.2649 19.9939C15.1284 19.2073 16.9303 18.9656 19.9561 19.0066C21.0659 19.0217 22 18.1325 22 16.9993V6.0004C22 4.9218 21.1394 4.02479 20.0447 4.00712C16.7519 3.95398 14.7746 4.19167 12 4.98821Z" fill="currentColor"/>
</svg>
