<svg width="24" height="24" viewBox="0 0 24 24" fill="none" xmlns="http://www.w3.org/2000/svg">
<path fill-rule="evenodd" clip-rule="evenodd" d="M8 6C8 4.89543 8.89543 4 10 4L18 4C19.1046 4 20 4.89543 20 6V7H21C21.5523 7 22 7.44772 22 8C22 8.55229 21.5523 9 21 9H20V14.5858C20 14.5865 20 14.5873 20 14.588V19C20 19.5523 19.5523 20 19 20C18.4477 20 18 19.5523 18 19V16.5897C17.504 16.5933 16.9972 16.4114 16.5858 16L16 15.4142L15.4142 16C14.6332 16.781 13.3668 16.7811 12.5858 16L12 15.4142L11.4142 16C10.1543 17.2599 8 16.3676 8 14.5858L8 9H6L6 19C6 19.5523 5.55228 20 5 20C4.44771 20 4 19.5523 4 19L4 9H3C2.44772 9 2 8.55229 2 8C2 7.44772 2.44772 7 3 7H4V5C4 4.44772 4.44772 4 5 4C5.55228 4 6 4.44772 6 5V7H8L8 6ZM10 8L10 14.5858L10.5858 14C11.3668 13.219 12.6332 13.219 13.4142 14L14 14.5858L14.5858 14C15.3668 13.2189 16.6332 13.219 17.4142 14L18 14.5858L18 6L10 6L10 8Z" fill="currentColor"/>
</svg>
