<svg width="24" height="24" viewBox="0 0 24 24" fill="none" xmlns="http://www.w3.org/2000/svg">
<path fill-rule="evenodd" clip-rule="evenodd" d="M9.49821 2L9.49998 2C9.9596 2 10.4147 2.09053 10.8394 2.26642C11.264 2.44231 11.6498 2.70012 11.9749 3.02513C11.9833 3.03355 11.9916 3.04201 12 3.05051C12.0083 3.04201 12.0167 3.03355 12.0251 3.02513C12.6815 2.36875 13.5717 2 14.5 2H14.5017C15.3187 2.00145 16.1094 2.28862 16.7368 2.81176C17.1955 3.19418 17.5458 3.68508 17.7591 4.23533C18.0337 4.33975 18.2947 4.47888 18.5357 4.64994C18.9556 4.948 19.3041 5.3356 19.5559 5.78474C19.8078 6.23388 19.9567 6.73335 19.992 7.24707C20.0096 7.50366 19.9986 7.76062 19.9598 8.01329C20.383 8.42823 20.696 8.94795 20.8632 9.5255C21.0283 10.0957 21.043 10.6942 20.9123 11.2645C21.241 11.6122 21.5058 12.018 21.692 12.4633C21.9781 13.1476 22.0674 13.8981 21.9498 14.6303C21.8322 15.3625 21.5124 16.0474 21.0264 16.6076C20.7325 16.9464 20.3849 17.2315 19.9994 17.4526C20.0049 17.6919 19.9856 17.932 19.9413 18.169C19.8419 18.7014 19.6191 19.2031 19.2909 19.6339C18.9626 20.0648 18.538 20.4127 18.0511 20.6499C17.7091 20.8166 17.343 20.9253 16.9677 20.9728C16.5698 21.3723 16.0791 21.6714 15.5363 21.8412C14.8352 22.0606 14.0829 22.0535 13.3862 21.8207C12.8597 21.6448 12.3852 21.3469 12 20.9543C11.6147 21.3469 11.1403 21.6448 10.6138 21.8207C9.91708 22.0535 9.16472 22.0606 8.46369 21.8412C7.92063 21.6713 7.4298 21.3721 7.03175 20.9723C6.65663 20.9244 6.29077 20.8154 5.94902 20.6485C5.46264 20.411 5.0386 20.063 4.71083 19.6322C4.38306 19.2015 4.16067 18.7 4.06144 18.1679C4.01736 17.9315 3.99813 17.692 4.00358 17.4531C3.61794 17.2323 3.27019 16.9475 2.97611 16.6089C2.48973 16.0489 2.16947 15.3641 2.05145 14.6318C1.93343 13.8995 2.02234 13.1489 2.30815 12.4644C2.49424 12.0188 2.75898 11.6127 3.08771 11.2647C2.95696 10.6944 2.97167 10.0958 3.13674 9.5255C3.30391 8.94795 3.61693 8.42823 4.04016 8.01329C4.00134 7.76062 3.99038 7.50366 4.00799 7.24707C4.04327 6.73335 4.1922 6.23388 4.44404 5.78474C4.69587 5.3356 5.04432 4.948 5.46422 4.64994C5.70521 4.47888 5.96629 4.33975 6.24088 4.23533C6.45411 3.68509 6.80444 3.19418 7.26312 2.81176C7.89058 2.28862 8.68127 2.00145 9.49821 2ZM6.07922 7.00752C6.10808 6.92308 6.14462 6.84118 6.18852 6.76288C6.2955 6.57209 6.44352 6.40744 6.62189 6.28083C6.80025 6.15422 7.00452 6.0688 7.21992 6.03076C7.63089 5.95817 7.95356 5.63799 8.02935 5.2276C8.09293 4.88331 8.27494 4.5721 8.54386 4.3479C8.81254 4.12388 9.15107 4.00083 9.50087 4C9.69755 4.00012 9.89229 4.03891 10.074 4.11418C10.256 4.18956 10.4214 4.30005 10.5606 4.43934C10.6999 4.57863 10.8104 4.74399 10.8858 4.92598C10.9612 5.10796 11 5.30302 11 5.5V18.4986C11 18.5041 11 18.5096 11 18.515C10.9984 18.8248 10.9006 19.1266 10.7198 19.3784C10.5367 19.6334 10.2779 19.8243 9.98006 19.9238C9.68227 20.0232 9.36069 20.0263 9.06106 19.9325C8.76142 19.8388 8.49897 19.6529 8.31103 19.4014C8.12224 19.1488 7.82535 19 7.50998 19H7.49998L7.4881 19.0001C7.259 19.0028 7.03245 18.9519 6.82656 18.8513C6.62067 18.7508 6.44118 18.6035 6.30243 18.4211C6.20495 18.293 6.12948 18.1501 6.07865 17.9983C6.61485 17.9937 7.14915 17.8813 7.64855 17.6627C8.15447 17.4411 8.38502 16.8514 8.16351 16.3455C7.942 15.8396 7.35231 15.6091 6.84639 15.8306C6.39374 16.0288 5.88375 16.0524 5.41473 15.8968L5.39577 15.8907C5.04319 15.7816 4.72812 15.5761 4.48609 15.2974C4.24406 15.0187 4.0847 14.678 4.02597 14.3136C3.96724 13.9492 4.01149 13.5757 4.15371 13.2351C4.29593 12.8945 4.53048 12.6004 4.83091 12.386C5.22857 12.1021 5.36294 11.5725 5.14869 11.1335C4.98901 10.8062 4.95665 10.4313 5.05789 10.0816C5.15912 9.73179 5.38673 9.43213 5.69652 9.24077C5.70518 9.23542 5.71375 9.22994 5.72224 9.22433C5.92919 9.08759 6.16682 9.00431 6.41385 8.98194C6.66088 8.95957 6.9096 8.9988 7.13774 9.09613C7.64573 9.31285 8.23322 9.07673 8.44994 8.56874C8.66666 8.06075 8.43053 7.47326 7.92254 7.25654C7.3902 7.02944 6.80985 6.93789 6.23345 6.99009C6.18185 6.99477 6.13043 7.00058 6.07922 7.00752ZM13 18.515C13.0015 18.8248 13.0994 19.1266 13.2801 19.3784C13.4632 19.6334 13.7221 19.8243 14.0199 19.9238C14.3177 20.0232 14.6393 20.0263 14.9389 19.9325C15.2385 19.8388 15.501 19.6529 15.6889 19.4014C15.8777 19.1488 16.1746 19 16.49 19H16.5131C16.7423 19.003 16.9691 18.9524 17.1752 18.8519C17.3813 18.7515 17.561 18.6042 17.7 18.4219C17.7977 18.2936 17.8734 18.1504 17.9243 17.9983C17.3881 17.9937 16.8538 17.8813 16.3544 17.6627C15.8485 17.4411 15.6179 16.8514 15.8394 16.3455C16.061 15.8396 16.6506 15.6091 17.1566 15.8306C17.6092 16.0288 18.1192 16.0524 18.5882 15.8968L18.6065 15.891C18.9589 15.7816 19.2738 15.5759 19.5156 15.2971C19.7574 15.0183 19.9165 14.6775 19.9751 14.3132C20.0336 13.9488 19.9892 13.5753 19.8468 13.2349C19.7044 12.8944 19.4698 12.6004 19.1694 12.3862C18.7715 12.1024 18.637 11.5727 18.8513 11.1335C19.0109 10.8062 19.0433 10.4313 18.9421 10.0816C18.8408 9.73179 18.6132 9.43213 18.3034 9.24077C18.2948 9.23542 18.2862 9.22994 18.2777 9.22433C18.0708 9.0876 17.8331 9.00431 17.5861 8.98194C17.3391 8.95957 17.0904 8.9988 16.8622 9.09613C16.3542 9.31285 15.7667 9.07673 15.55 8.56874C15.3333 8.06075 15.5694 7.47326 16.0774 7.25654C16.6098 7.02944 17.1901 6.93789 17.7665 6.99009C17.8181 6.99477 17.8695 7.00058 17.9207 7.00752C17.8919 6.92308 17.8553 6.84118 17.8114 6.76288C17.7045 6.57209 17.5564 6.40744 17.3781 6.28083C17.1997 6.15422 16.9954 6.0688 16.78 6.03076C16.3691 5.95817 16.0464 5.63799 15.9706 5.2276C15.907 4.88331 15.725 4.5721 15.4561 4.3479C15.1874 4.12388 14.8489 4.00083 14.4991 4C14.1016 4.00024 13.7204 4.15825 13.4393 4.43934C13.158 4.72065 13 5.10218 13 5.5V18.4986C13 18.5041 13 18.5096 13 18.515Z" fill="currentColor"/>
</svg>
