<svg width="24" height="24" viewBox="0 0 24 24" fill="none" xmlns="http://www.w3.org/2000/svg">
<path fill-rule="evenodd" clip-rule="evenodd" d="M7 5C7 3.34315 8.34315 2 10 2H14C15.6569 2 17 3.34315 17 5V6H19C20.6569 6 22 7.34315 22 9V19C22 20.6569 20.6569 22 19 22H5C3.34315 22 2 20.6569 2 19V9C2 7.34315 3.34315 6 5 6H7V5ZM9 6H15V5C15 4.44772 14.5523 4 14 4H10C9.44772 4 9 4.44772 9 5V6ZM5 8C4.44772 8 4 8.44772 4 9V12.3528C4.02754 12.3644 4.05604 12.3763 4.08548 12.3885C4.51397 12.5658 5.14061 12.8047 5.91909 13.0442C7.48063 13.5247 9.62825 14 12 14C14.3717 14 16.5194 13.5247 18.0809 13.0442C18.8594 12.8047 19.486 12.5658 19.9145 12.3885C19.944 12.3763 19.9725 12.3644 20 12.3528V9C20 8.44772 19.5523 8 19 8H5ZM20 14.5035C19.62 14.6455 19.173 14.8007 18.6691 14.9558C16.9806 15.4753 14.6283 16 12 16C9.37175 16 7.01937 15.4753 5.33091 14.9558C4.82701 14.8007 4.38004 14.6455 4 14.5035V19C4 19.5523 4.44772 20 5 20H19C19.5523 20 20 19.5523 20 19V14.5035ZM11 11C11 10.4477 11.4477 10 12 10H12.01C12.5623 10 13.01 10.4477 13.01 11C13.01 11.5523 12.5623 12 12.01 12H12C11.4477 12 11 11.5523 11 11Z" fill="currentColor"/>
</svg>
