<svg width="24" height="24" viewBox="0 0 24 24" fill="none" xmlns="http://www.w3.org/2000/svg">
<path fill-rule="evenodd" clip-rule="evenodd" d="M9 2C9.55228 2 10 2.44772 10 3V3.58579L10.6492 4.23498C11.0786 4.08093 11.5351 4 12 4C12.4649 4 12.9214 4.08093 13.3508 4.23498L14 3.58579V3C14 2.44772 14.4477 2 15 2C15.5523 2 16 2.44772 16 3V4C16 4.26522 15.8946 4.51957 15.7071 4.70711L15.0279 5.38627C15.6529 6.11018 16 7.0372 16 8V9.52779C16.166 9.67635 16.3237 9.83401 16.4722 10H17V8C17 7.44772 17.4477 7 18 7C18.5523 7 19 7.44772 19 8V10C19 10.5304 18.7893 11.0391 18.4142 11.4142C18.1901 11.6384 17.9182 11.8038 17.6225 11.9007C17.754 12.2526 17.8533 12.6203 17.917 13H19.025C19.5773 13 20.025 13.4477 20.025 14C20.025 14.5523 19.5773 15 19.025 15H18V16C18 16.3407 17.9716 16.6748 17.917 17H18.025C18.5554 17 19.0641 17.2107 19.4392 17.5858C19.8143 17.9609 20.025 18.4696 20.025 19V21C20.025 21.5523 19.5773 22 19.025 22C18.4727 22 18.025 21.5523 18.025 21V19H17.1973C16.1599 20.7934 14.2208 22 12 22C9.77915 22 7.84012 20.7934 6.80269 19H6L6 21C6 21.5523 5.55228 22 5 22C4.44772 22 4 21.5523 4 21V19C4 18.4696 4.21071 17.9609 4.58579 17.5858C4.96086 17.2107 5.46957 17 6 17H6.08296C6.0284 16.6748 6 16.3407 6 16V15H5C4.44772 15 4 14.5523 4 14C4 13.4477 4.44772 13 5 13H6.08296C6.14666 12.6203 6.24604 12.2526 6.37752 11.9007C6.0818 11.8038 5.80993 11.6384 5.58579 11.4142C5.21071 11.0391 5 10.5304 5 10V8C5 7.44772 5.44772 7 6 7C6.55228 7 7 7.44772 7 8V10H7.52779C7.67635 9.83401 7.83401 9.67635 8 9.52779V8C8 7.0372 8.34712 6.11018 8.97205 5.38627L8.29289 4.70711C8.10536 4.51957 8 4.26522 8 4V3C8 2.44772 8.44772 2 9 2ZM8.9186 11.4493C9.08878 11.244 9.27909 11.0559 9.48652 10.8882C9.53627 10.8624 9.58402 10.8324 9.6292 10.7983C10.0412 10.4876 10.5073 10.2623 11 10.1319V19.874C9.27477 19.4299 8 17.8638 8 16V14C8 13.1597 8.25912 12.3799 8.70181 11.7362C8.79025 11.6548 8.864 11.5577 8.9186 11.4493ZM13 19.874C14.7252 19.4299 16 17.8638 16 16V14C16 13.1072 15.7075 12.2828 15.2132 11.6172C15.2042 11.6059 15.1955 11.5943 15.1871 11.5826C14.9913 11.3248 14.765 11.0916 14.5135 10.8882C14.4637 10.8624 14.416 10.8324 14.3708 10.7983C13.9588 10.4876 13.4927 10.2623 13 10.1319V19.874ZM14 8.34141C13.3744 8.12031 12.7013 8 12 8C11.2987 8 10.6256 8.12031 10 8.34141V8C10 7.46957 10.2107 6.96086 10.5858 6.58579C10.9609 6.21071 11.4696 6 12 6C12.5304 6 13.0391 6.21071 13.4142 6.58579C13.7893 6.96086 14 7.46957 14 8V8.34141Z" fill="currentColor"/>
</svg>
