<svg width="24" height="24" viewBox="0 0 24 24" fill="none" xmlns="http://www.w3.org/2000/svg">
<path fill-rule="evenodd" clip-rule="evenodd" d="M4 4.00012C4 3.44784 4.44772 3.00012 5 3.00012H19C19.5523 3.00012 20 3.44784 20 4.00012C20 4.55241 19.5523 5.00012 19 5.00012V19.0001C19.5523 19.0001 20 19.4478 20 20.0001C20 20.5524 19.5523 21.0001 19 21.0001H5C4.44772 21.0001 4 20.5524 4 20.0001C4 19.4478 4.44772 19.0001 5 19.0001V5.00012C4.44772 5.00012 4 4.55241 4 4.00012ZM7 5.00012V19.0001H9V16.0001C9 15.4697 9.21071 14.961 9.58579 14.5859C9.96086 14.2108 10.4696 14.0001 11 14.0001H13C13.5304 14.0001 14.0391 14.2108 14.4142 14.5859C14.7893 14.961 15 15.4697 15 16.0001V19.0001H17V5.00012H7ZM13 19.0001V16.0001H11V19.0001H13ZM8 7.00012C8 6.44784 8.44772 6.00012 9 6.00012H10C10.5523 6.00012 11 6.44784 11 7.00012V8.00012C11 8.55241 10.5523 9.00012 10 9.00012H9C8.44772 9.00012 8 8.55241 8 8.00012V7.00012ZM13 7.00012C13 6.44784 13.4477 6.00012 14 6.00012H15C15.5523 6.00012 16 6.44784 16 7.00012V8.00012C16 8.55241 15.5523 9.00012 15 9.00012H14C13.4477 9.00012 13 8.55241 13 8.00012V7.00012ZM8 11.0001C8 10.4478 8.44772 10.0001 9 10.0001H10C10.5523 10.0001 11 10.4478 11 11.0001V12.0001C11 12.5524 10.5523 13.0001 10 13.0001H9C8.44772 13.0001 8 12.5524 8 12.0001V11.0001ZM13 11.0001C13 10.4478 13.4477 10.0001 14 10.0001H15C15.5523 10.0001 16 10.4478 16 11.0001V12.0001C16 12.5524 15.5523 13.0001 15 13.0001H14C13.4477 13.0001 13 12.5524 13 12.0001V11.0001Z" fill="#101828"/>
</svg>
