<svg width="24" height="24" viewBox="0 0 24 24" fill="none" xmlns="http://www.w3.org/2000/svg">
<path fill-rule="evenodd" clip-rule="evenodd" d="M15.8375 4.31573C17.1613 3.3702 19 4.31645 19 5.94319V8.12602C20.7252 8.57006 22 10.1362 22 12C22 13.8638 20.7252 15.4299 19 15.874V18.0568C19 19.6836 17.1613 20.6298 15.8375 19.6843L10.6795 16H10V20C10 20.5523 9.55228 21 9 21H6C5.44772 21 5 20.5523 5 20V16C3.89543 16 3 15.1046 3 14V10C3 8.89543 3.89543 8 5 8H10.6795L15.8375 4.31573ZM10 10H5V14H10V10ZM12 14.4854L17 18.0568V5.94319L12 9.51462V14.4854ZM19 10.2676V13.7324C19.5978 13.3866 20 12.7403 20 12C20 11.2597 19.5978 10.6134 19 10.2676ZM7 16V19H8V16H7Z" fill="currentColor"/>
</svg>
