<svg width="24" height="24" viewBox="0 0 24 24" fill="none" xmlns="http://www.w3.org/2000/svg">
<path fill-rule="evenodd" clip-rule="evenodd" d="M7 3.04999C7.55228 3.04999 8 3.4977 8 4.04999V5.04999H11V4.04999C11 3.4977 11.4477 3.04999 12 3.04999C12.5523 3.04999 13 3.4977 13 4.04999V5.04999H16V4.04999C16 3.4977 16.4477 3.04999 17 3.04999C17.5523 3.04999 18 3.4977 18 4.04999V5.04999H19C20.1046 5.04999 21 5.94542 21 7.04999V19.05C21 20.1546 20.1046 21.05 19 21.05H5C3.89543 21.05 3 20.1546 3 19.05V7.04999C3 5.94542 3.89543 5.04999 5 5.04999H6L6 4.04999C6 3.4977 6.44772 3.04999 7 3.04999ZM6 7.04999L5 7.04999V9.04999H19V7.04999H18C18 7.60227 17.5523 8.04999 17 8.04999C16.4477 8.04999 16 7.60227 16 7.04999H13C13 7.60227 12.5523 8.04999 12 8.04999C11.4477 8.04999 11 7.60227 11 7.04999H8C8 7.60227 7.55228 8.04999 7 8.04999C6.44772 8.04999 6 7.60227 6 7.04999ZM19 11.05H5V19.05H19V11.05ZM12 12C12.5523 12 13 12.4477 13 13V14H14C14.5523 14 15 14.4477 15 15C15 15.5523 14.5523 16 14 16H13V17C13 17.5523 12.5523 18 12 18C11.4477 18 11 17.5523 11 17V16H10C9.44772 16 9 15.5523 9 15C9 14.4477 9.44772 14 10 14H11V13C11 12.4477 11.4477 12 12 12Z" fill="currentColor"/>
</svg>
