<svg width="24" height="24" viewBox="0 0 24 24" fill="none" xmlns="http://www.w3.org/2000/svg">
<path fill-rule="evenodd" clip-rule="evenodd" d="M7 3C7.55228 3 8 3.44772 8 4V5H11V4C11 3.44772 11.4477 3 12 3C12.5523 3 13 3.44772 13 4V5H16V4C16 3.44772 16.4477 3 17 3C17.5523 3 18 3.44772 18 4V5H19C20.1046 5 21 5.89543 21 7V19C21 20.1046 20.1046 21 19 21H5C3.89543 21 3 20.1046 3 19V7C3 5.89543 3.89543 5 5 5H6L6 4C6 3.44772 6.44772 3 7 3ZM6 7L5 7V9H19V7H18C18 7.55228 17.5523 8 17 8C16.4477 8 16 7.55228 16 7H13C13 7.55228 12.5523 8 12 8C11.4477 8 11 7.55228 11 7H8C8 7.55228 7.55228 8 7 8C6.44772 8 6 7.55228 6 7ZM19 11H5V19H19V11ZM7 14C7 13.4477 7.44772 13 8 13H16C16.5523 13 17 13.4477 17 14C17 14.5523 16.5523 15 16 15H8C7.44772 15 7 14.5523 7 14Z" fill="currentColor"/>
</svg>
