<svg width="24" height="24" viewBox="0 0 24 24" fill="none" xmlns="http://www.w3.org/2000/svg">
<path fill-rule="evenodd" clip-rule="evenodd" d="M7 3C7.55228 3 8 3.44772 8 4V5H11V4C11 3.44772 11.4477 3 12 3C12.5523 3 13 3.44772 13 4V5H16V4C16 3.44772 16.4477 3 17 3C17.5523 3 18 3.44772 18 4V5H19C20.1046 5 21 5.89543 21 7V19C21 20.1046 20.1046 21 19 21H5C3.89543 21 3 20.1046 3 19V7C3 5.89543 3.89543 5 5 5H6L6 4C6 3.44772 6.44772 3 7 3ZM6 7L5 7V9H19V7H18C18 7.55228 17.5523 8 17 8C16.4477 8 16 7.55228 16 7H13C13 7.55228 12.5523 8 12 8C11.4477 8 11 7.55228 11 7H8C8 7.55228 7.55228 8 7 8C6.44772 8 6 7.55228 6 7ZM19 11H5V19H19V11ZM7 13C7 12.4477 7.44772 12 8 12H8.01C8.56228 12 9.01 12.4477 9.01 13V13.01C9.01 13.5623 8.56228 14.01 8.01 14.01H8C7.44772 14.01 7 13.5623 7 13.01V13ZM11 13C11 12.4477 11.4477 12 12 12H12.01C12.5623 12 13.01 12.4477 13.01 13V13.01C13.01 13.5623 12.5623 14.01 12.01 14.01H12C11.4477 14.01 11 13.5623 11 13.01V13ZM15 13C15 12.4477 15.4477 12 16 12H16.01C16.5623 12 17.01 12.4477 17.01 13V13.01C17.01 13.5623 16.5623 14.01 16.01 14.01H16C15.4477 14.01 15 13.5623 15 13.01V13ZM7 17C7 16.4477 7.44772 16 8 16H8.01C8.56228 16 9.01 16.4477 9.01 17V17.01C9.01 17.5623 8.56228 18.01 8.01 18.01H8C7.44772 18.01 7 17.5623 7 17.01V17ZM11 17C11 16.4477 11.4477 16 12 16H12.01C12.5623 16 13.01 16.4477 13.01 17V17.01C13.01 17.5623 12.5623 18.01 12.01 18.01H12C11.4477 18.01 11 17.5623 11 17.01V17ZM15 17C15 16.4477 15.4477 16 16 16H16.01C16.5623 16 17.01 16.4477 17.01 17V17.01C17.01 17.5623 16.5623 18.01 16.01 18.01H16C15.4477 18.01 15 17.5623 15 17.01V17Z" fill="currentColor"/>
</svg>
