<svg width="24" height="24" viewBox="0 0 24 24" fill="none" xmlns="http://www.w3.org/2000/svg">
<path fill-rule="evenodd" clip-rule="evenodd" d="M7 3C7.55228 3 8 3.44772 8 4V5H11V4C11 3.44772 11.4477 3 12 3C12.5523 3 13 3.44772 13 4V5H16V4C16 3.44772 16.4477 3 17 3C17.5523 3 18 3.44772 18 4V5H19C20.1046 5 21 5.89543 21 7V19C21 20.1046 20.1046 21 19 21H5C3.89543 21 3 20.1046 3 19V7C3 5.89543 3.89543 5 5 5H6V4C6 3.44772 6.44772 3 7 3ZM6 7H5V9H9C9.55228 9 10 9.44772 10 10C10 10.5523 9.55228 11 9 11H5V19H19V11H18.5C17.9477 11 17.5 10.5523 17.5 10C17.5 9.44772 17.9477 9 18.5 9H19V7H18C18 7.55228 17.5523 8 17 8C16.4477 8 16 7.55228 16 7H13C13 7.55228 12.5523 8 12 8C11.4477 8 11 7.55228 11 7H8C8 7.55228 7.55228 8 7 8C6.44772 8 6 7.55228 6 7ZM13.9354 10.4138L12.9012 11.4609L13.5513 12.0868L14.5862 11.0646C14.6715 10.9783 14.7193 10.8619 14.7193 10.7405C14.7193 10.6186 14.671 10.5016 14.585 10.4152C14.4986 10.329 14.3815 10.2807 14.2595 10.2807C14.1381 10.2807 14.0217 10.3285 13.9354 10.4138ZM14.3866 14.0728L15.9947 12.4845L15.9995 12.4797C16.4604 12.0183 16.7193 11.3927 16.7193 10.7405C16.7193 10.0883 16.4604 9.46274 15.9995 9.0013L15.9987 9.0005C15.5373 8.53957 14.9117 8.28067 14.2595 8.28067C13.6073 8.28067 12.9817 8.53957 12.5203 9.0005L7.28854 14.2973C7.10367 14.4844 7 14.7369 7 15V17C7 17.5523 7.44772 18 8 18H10C10.2631 18 10.5156 17.8963 10.7027 17.7115L14.1394 14.317C14.1933 14.2797 14.2442 14.2366 14.2914 14.1876C14.3264 14.1512 14.3582 14.1128 14.3866 14.0728ZM12.1279 13.4927L11.4956 12.884L9 15.4106V16H9.5894L12.1279 13.4927Z" fill="#101828"/>
</svg>
