<svg width="24" height="24" viewBox="0 0 24 24" fill="none" xmlns="http://www.w3.org/2000/svg">
<path fill-rule="evenodd" clip-rule="evenodd" d="M2 6C2 4.89543 2.89543 4 4 4H20C21.1046 4 22 4.89543 22 6V10C22 10.5523 21.5523 11 21 11C20.4477 11 20 10.5523 20 10V6L4 6V10H14C14.5523 10 15 10.4477 15 11C15 11.5523 14.5523 12 14 12H13V19C13 19.5523 12.5523 20 12 20H4C2.89543 20 2 19.1046 2 18V6ZM11 14V12H4V14H11ZM4 16H11V18H4V16ZM17.0044 12.9053C16.8351 12.9598 16.6718 13.0277 16.5159 13.1079C16.123 12.7823 15.5396 12.8036 15.1716 13.1716C14.8036 13.5396 14.7824 14.123 15.1079 14.5159C15.0277 14.6718 14.9598 14.8351 14.9053 15.0045C14.3974 15.0522 14 15.4797 14 16.0001C14 16.5204 14.3975 16.9479 14.9053 16.9956C14.9598 17.1649 15.0277 17.3282 15.1079 17.4841C14.7824 17.877 14.8036 18.4604 15.1716 18.8284C15.5396 19.1964 16.123 19.2176 16.5159 18.8921C16.6718 18.9723 16.8351 19.0402 17.0044 19.0947C17.0521 19.6026 17.4797 20 18 20C18.5204 20 18.9479 19.6026 18.9956 19.0947C19.1649 19.0402 19.3282 18.9723 19.4842 18.8921C19.877 19.2177 20.4605 19.1964 20.8285 18.8284C21.1965 18.4604 21.2177 17.877 20.8921 17.4841C20.9723 17.3282 21.0403 17.1649 21.0947 16.9956C21.6026 16.9479 22 16.5204 22 16C22 15.4797 21.6026 15.0522 21.0947 15.0045C21.0403 14.8351 20.9723 14.6718 20.8921 14.5159C21.2177 14.123 21.1964 13.5396 20.8284 13.1716C20.4604 12.8036 19.877 12.7824 19.4842 13.1079C19.3282 13.0277 19.1649 12.9598 18.9956 12.9053C18.9479 12.3974 18.5204 12 18 12C17.4797 12 17.0521 12.3974 17.0044 12.9053ZM18.8806 15.1128C18.8817 15.1139 18.8828 15.115 18.8839 15.1161C18.885 15.1172 18.8861 15.1183 18.8872 15.1194C19.1115 15.3454 19.25 15.6565 19.25 16C19.25 16.6904 18.6904 17.25 18 17.25C17.656 17.25 17.3444 17.111 17.1184 16.8862C17.1177 16.8854 17.1169 16.8846 17.1161 16.8839C16.7413 16.509 16.1428 16.494 15.7501 16.8388L15.75 15.1612C16.1428 15.506 16.7412 15.491 17.1161 15.1161C17.1161 15.1161 17.1162 15.1161 17.1161 15.1161C17.4909 14.7412 17.506 14.1428 17.1612 13.75" fill="#101828"/>
</svg>
