<svg width="24" height="24" viewBox="0 0 24 24" fill="none" xmlns="http://www.w3.org/2000/svg">
<path fill-rule="evenodd" clip-rule="evenodd" d="M4 3.5C4.55228 3.5 5 3.94772 5 4.5V19H20C20.5523 19 21 19.4477 21 20C21 20.5523 20.5523 21 20 21H5C3.89543 21 3 20.1046 3 19V4.5C3 3.94772 3.44772 3.5 4 3.5ZM16.793 10C16.2407 10 15.793 9.55228 15.793 9C15.793 8.44772 16.2407 8 16.793 8H20C20.5523 8 21 8.44772 21 9V12.207C21 12.7593 20.5523 13.207 20 13.207C19.4477 13.207 19 12.7593 19 12.207V11.4142L15.7071 14.7071C15.3166 15.0976 14.6834 15.0976 14.2929 14.7071L11 11.4142L7.70711 14.7071C7.31658 15.0976 6.68342 15.0976 6.29289 14.7071C5.90237 14.3166 5.90237 13.6834 6.29289 13.2929L10.2929 9.29289C10.6834 8.90237 11.3166 8.90237 11.7071 9.29289L15 12.5858L17.5858 10H16.793Z" fill="#101828"/>
</svg>
