<svg width="24" height="24" viewBox="0 0 24 24" fill="none" xmlns="http://www.w3.org/2000/svg">
<path fill-rule="evenodd" clip-rule="evenodd" d="M13.0078 2.02209C13.1439 2.01253 13.3224 2 13.5 2C15.7543 2 17.9163 2.89553 19.5104 4.48959C21.1045 6.08365 22 8.24566 22 10.5C22 10.6776 21.9875 10.8561 21.9779 10.9922C21.9761 11.0185 21.9743 11.0433 21.9728 11.0661C21.938 11.5916 21.5016 12 20.975 12H13C12.4477 12 12 11.5523 12 11V3.025C12 2.49838 12.4084 2.06201 12.9339 2.02719C12.9567 2.02567 12.9815 2.02394 13.0078 2.02209ZM14 4.01924V10H19.9808C19.8619 8.45902 19.1968 7.00439 18.0962 5.90381C16.9956 4.80322 15.541 4.13807 14 4.01924ZM10.6836 5.29511C10.8854 5.48418 11 5.74841 11 6.025V13H17.975C18.2516 13 18.5158 13.1146 18.7049 13.3164C18.894 13.5183 18.991 13.7895 18.9729 14.0655C18.8659 15.6957 18.2914 17.2606 17.3181 18.5727C16.3448 19.8849 15.014 20.8888 13.4849 21.4642C11.9559 22.0396 10.2934 22.1622 8.69648 21.8173C7.09958 21.4724 5.63591 20.6745 4.48068 19.5193C3.32546 18.3641 2.52763 16.9004 2.1827 15.3035C1.83777 13.7066 1.96035 12.0441 2.53578 10.5151C3.1112 8.98604 4.11508 7.65522 5.42726 6.68193C6.73943 5.70864 8.30429 5.13412 9.93452 5.02715C10.2105 5.00904 10.4817 5.10604 10.6836 5.29511ZM9 7.18224C8.14291 7.38425 7.33201 7.75922 6.61875 8.28828C5.61532 9.03256 4.84765 10.0502 4.40761 11.2195C3.96758 12.3888 3.87384 13.6601 4.13761 14.8813C4.40138 16.1024 5.01149 17.2217 5.8949 18.1051C6.7783 18.9885 7.89758 19.5986 9.11874 19.8624C10.3399 20.1262 11.6112 20.0324 12.7805 19.5924C13.9498 19.1523 14.9674 18.3847 15.7117 17.3813C16.2408 16.668 16.6157 15.8571 16.8178 15H10C9.44771 15 9 14.5523 9 14V7.18224Z" fill="currentColor"/>
</svg>
