<svg width="24" height="24" viewBox="0 0 24 24" fill="none" xmlns="http://www.w3.org/2000/svg">
<path fill-rule="evenodd" clip-rule="evenodd" d="M4 3.5C4.55228 3.5 5 3.94772 5 4.5V19H20C20.5523 19 21 19.4477 21 20C21 20.5523 20.5523 21 20 21H5C3.89543 21 3 20.1046 3 19V4.5C3 3.94772 3.44772 3.5 4 3.5ZM6.29289 9.29289C6.68342 8.90237 7.31658 8.90237 7.70711 9.29289L11 12.5858L14.2929 9.29289C14.6834 8.90237 15.3166 8.90237 15.7071 9.29289L19 12.5858V11.793C19 11.2407 19.4477 10.793 20 10.793C20.5523 10.793 21 11.2407 21 11.793V15C21 15.5523 20.5523 16 20 16H16.793C16.2407 16 15.793 15.5523 15.793 15C15.793 14.4477 16.2407 14 16.793 14H17.5858L15 11.4142L11.7071 14.7071C11.3166 15.0976 10.6834 15.0976 10.2929 14.7071L6.29289 10.7071C5.90237 10.3166 5.90237 9.68342 6.29289 9.29289Z" fill="currentColor"/>
</svg>
