<svg width="24" height="24" viewBox="0 0 24 24" fill="none" xmlns="http://www.w3.org/2000/svg">
<path fill-rule="evenodd" clip-rule="evenodd" d="M4 3C4.55228 3 5 3.44772 5 4V19H20C20.5523 19 21 19.4477 21 20C21 20.5523 20.5523 21 20 21H5C3.89543 21 3 20.1046 3 19V4C3 3.44772 3.44772 3 4 3ZM17.1378 6.00915C17.4435 5.96751 17.7513 6.06931 17.9718 6.28499L20.6991 8.95166C21.094 9.33777 21.1011 9.9709 20.715 10.3658C20.3289 10.7607 19.6958 10.7678 19.3009 10.3817L17.4925 8.61346L14.3649 14.002C14.209 14.2705 13.9373 14.4514 13.6294 14.4916C13.3215 14.5318 13.0124 14.4267 12.7929 14.2071L10.8132 12.2275L8.91037 16.4138C8.68183 16.9166 8.08898 17.1389 7.5862 16.9104C7.08342 16.6818 6.8611 16.089 7.08963 15.5862L9.58963 10.0862C9.72535 9.78762 9.99886 9.57457 10.3216 9.51605C10.6443 9.45753 10.9752 9.56098 11.2071 9.79289L13.2878 11.8736L16.4079 6.49801C16.5627 6.23119 16.8321 6.05078 17.1378 6.00915Z" fill="currentColor"/>
</svg>
