<svg width="24" height="24" viewBox="0 0 24 24" fill="none" xmlns="http://www.w3.org/2000/svg">
<path fill-rule="evenodd" clip-rule="evenodd" d="M21.2071 4.79289C21.5977 5.18342 21.5977 5.81658 21.2071 6.20711L15.7071 11.7071C15.3414 12.0728 14.7572 12.0993 14.3598 11.7682L9.00003 7.30171L3.64021 11.7682C3.21593 12.1218 2.58537 12.0645 2.2318 11.6402C1.87824 11.2159 1.93556 10.5853 2.35984 10.2318L8.35984 5.23178C8.73069 4.92274 9.26936 4.92274 9.64021 5.23178L14.9387 9.64715L19.7929 4.79289C20.1834 4.40237 20.8166 4.40237 21.2071 4.79289ZM9.00003 12C9.55231 12 10 12.4477 10 13V19C10 19.5523 9.55231 20 9.00003 20C8.44774 20 8.00003 19.5523 8.00003 19V13C8.00003 12.4477 8.44774 12 9.00003 12ZM21 12C21.5523 12 22 12.4477 22 13V19C22 19.5523 21.5523 20 21 20C20.4477 20 20 19.5523 20 19V13C20 12.4477 20.4477 12 21 12ZM3.00003 14C3.55231 14 4.00003 14.4477 4.00003 15V19C4.00003 19.5523 3.55231 20 3.00003 20C2.44774 20 2.00003 19.5523 2.00003 19V15C2.00003 14.4477 2.44774 14 3.00003 14ZM14 19V15C14 14.4477 14.4477 14 15 14C15.5523 14 16 14.4477 16 15V19C16 19.5523 15.5523 20 15 20C14.4477 20 14 19.5523 14 19Z" fill="currentColor"/>
</svg>
