<svg width="24" height="24" viewBox="0 0 24 24" fill="none" xmlns="http://www.w3.org/2000/svg">
<path fill-rule="evenodd" clip-rule="evenodd" d="M12 4C7.58172 4 4 7.58172 4 12C4 16.4183 7.58172 20 12 20C12.5523 20 13 20.4477 13 21C13 21.5523 12.5523 22 12 22C6.47715 22 2 17.5228 2 12C2 6.47715 6.47715 2 12 2C13.167 2 14.2894 2.20032 15.3332 2.56928C15.854 2.75332 16.1269 3.32465 15.9428 3.84536C15.7588 4.36608 15.1875 4.639 14.6668 4.45496C13.834 4.16061 12.9368 4 12 4ZM20.1302 4.29289C20.5207 4.68342 20.5207 5.31658 20.1302 5.70711L11.6302 14.2071C11.4426 14.3946 11.1883 14.5 10.9231 14.5C10.6579 14.5 10.4035 14.3946 10.216 14.2071L6.29289 10.284C5.90237 9.8935 5.90237 9.26034 6.29289 8.86982C6.68342 8.47929 7.31658 8.47929 7.70711 8.86982L10.9231 12.0858L18.716 4.29289C19.1065 3.90237 19.7397 3.90237 20.1302 4.29289ZM17 13C17.5523 13 18 13.4477 18 14V16H20C20.5523 16 21 16.4477 21 17C21 17.5523 20.5523 18 20 18H18V20C18 20.5523 17.5523 21 17 21C16.4477 21 16 20.5523 16 20V18H14C13.4477 18 13 17.5523 13 17C13 16.4477 13.4477 16 14 16H16V14C16 13.4477 16.4477 13 17 13Z" fill="#101828"/>
</svg>
