<svg width="24" height="24" viewBox="0 0 24 24" fill="none" xmlns="http://www.w3.org/2000/svg">
<path fill-rule="evenodd" clip-rule="evenodd" d="M12 4C7.58172 4 4 7.58172 4 12C4 16.4183 7.58172 20 12 20C16.4183 20 20 16.4183 20 12C20 7.58172 16.4183 4 12 4ZM2 12C2 6.47715 6.47715 2 12 2C17.5228 2 22 6.47715 22 12C22 17.5228 17.5228 22 12 22C6.47715 22 2 17.5228 2 12ZM12 6.757C12.5523 6.757 13 7.20472 13 7.757V11H16.243C16.7953 11 17.243 11.4477 17.243 12C17.243 12.5523 16.7953 13 16.243 13H13V16.243C13 16.7953 12.5523 17.243 12 17.243C11.4477 17.243 11 16.7953 11 16.243V13H7.757C7.20472 13 6.757 12.5523 6.757 12C6.757 11.4477 7.20472 11 7.757 11H11V7.757C11 7.20472 11.4477 6.757 12 6.757Z" fill="currentColor"/>
</svg>
