<svg width="24" height="24" viewBox="0 0 24 24" fill="none" xmlns="http://www.w3.org/2000/svg">
<path fill-rule="evenodd" clip-rule="evenodd" d="M3.92871 5.99936V5C3.92871 4.44772 3.481 4 2.92871 4C2.37643 4 1.92871 4.44772 1.92871 5V9C1.92871 9.55228 2.37643 10 2.92871 10H6.92871C7.481 10 7.92871 9.55228 7.92871 9C7.92871 8.44772 7.481 8 6.92871 8H4.99871C6.38269 5.60755 8.96889 4 11.9287 4C16.347 4 19.9287 7.58172 19.9287 12C19.9287 16.4183 16.347 20 11.9287 20C8.12271 20 4.93531 17.3412 4.12694 13.7787C4.00472 13.2401 3.46903 12.9026 2.93044 13.0248C2.39185 13.147 2.05431 13.6827 2.17652 14.2213C3.18706 18.6747 7.16836 22 11.9287 22C17.4516 22 21.9287 17.5228 21.9287 12C21.9287 6.47715 17.4516 2 11.9287 2C8.65636 2 5.75252 3.57166 3.92871 5.99936ZM11.9287 7C12.481 7 12.9287 7.44772 12.9287 8V11.5858L15.6358 14.2929C16.0263 14.6834 16.0263 15.3166 15.6358 15.7071C15.2453 16.0976 14.6121 16.0976 14.2216 15.7071L11.2216 12.7071C11.0341 12.5196 10.9287 12.2652 10.9287 12V8C10.9287 7.44772 11.3764 7 11.9287 7Z" fill="currentColor"/>
</svg>
