<svg width="24" height="24" viewBox="0 0 24 24" fill="none" xmlns="http://www.w3.org/2000/svg">
<path fill-rule="evenodd" clip-rule="evenodd" d="M3 5C3 3.89543 3.89543 3 5 3H19C20.1046 3 21 3.89543 21 5V19C21 20.1046 20.1046 21 19 21H5C3.89543 21 3 20.1046 3 19V5ZM11 5H5V19H11V5ZM19 5H13V19H19V5ZM9.70705 9.29289C10.0976 9.68342 10.0976 10.3166 9.70705 10.7071L8.41421 11.9999L9.70705 13.2928C10.0976 13.6833 10.0976 14.3165 9.70705 14.707C9.31652 15.0975 8.68336 15.0975 8.29284 14.707L6.29289 12.707C5.90237 12.3165 5.90237 11.6834 6.29289 11.2928L8.29284 9.29289C8.68336 8.90237 9.31652 8.90237 9.70705 9.29289Z" fill="currentColor"/>
</svg>
