<svg width="24" height="24" viewBox="0 0 24 24" fill="none" xmlns="http://www.w3.org/2000/svg">
<path fill-rule="evenodd" clip-rule="evenodd" d="M2 6C2 4.89543 2.89543 4 4 4H20C21.1046 4 22 4.89543 22 6V18C22 19.1046 21.1046 20 20 20H4C2.89543 20 2 19.1046 2 18V6ZM12 18H20V6H12V18ZM10 6V18H4V6L10 6ZM8.70705 9.29289C9.09757 9.68342 9.09757 10.3166 8.70705 10.7071L7.41421 11.9999L8.70705 13.2928C9.09757 13.6833 9.09757 14.3165 8.70705 14.707C8.31652 15.0975 7.68336 15.0975 7.29284 14.707L5.29289 12.707C4.90237 12.3165 4.90237 11.6834 5.29289 11.2928L7.29284 9.29289C7.68336 8.90237 8.31652 8.90237 8.70705 9.29289Z" fill="#101828"/>
</svg>
