<svg width="24" height="24" viewBox="0 0 24 24" fill="none" xmlns="http://www.w3.org/2000/svg">
<path fill-rule="evenodd" clip-rule="evenodd" d="M8.9395 5.07753C10.2512 4.2187 11.8291 3.86293 13.3825 4.07579C14.9358 4.28865 16.3599 5.0558 17.3922 6.23584C18.3424 7.32196 18.9017 8.6905 18.9882 10.124C19.6788 10.3 20.316 10.6591 20.8284 11.1716C21.5786 11.9217 22 12.9391 22 14C22 15.0608 21.5786 16.0783 20.8284 16.8284C20.0783 17.5786 19.0609 18 18 18H15C14.4477 18 14 17.5523 14 17C14 16.4477 14.4477 16 15 16H18C18.5304 16 19.0391 15.7893 19.4142 15.4142C19.7893 15.0391 20 14.5304 20 14C20 13.4695 19.7893 12.9608 19.4142 12.5858C19.0391 12.2107 18.5304 12 18 12H17.975C17.6941 12 17.4262 11.8819 17.2368 11.6745C17.0473 11.4672 16.9538 11.1897 16.9791 10.91C16.9923 10.7639 16.9999 10.6289 17 10.5014C16.9966 9.4165 16.6013 8.3693 15.8869 7.55269C15.1722 6.73574 14.1864 6.20464 13.111 6.05727C12.0356 5.90991 10.9432 6.15621 10.035 6.75079C9.12694 7.34536 8.46434 8.24814 8.16937 9.29273C8.04194 9.74399 7.61809 10.0461 7.14995 10.0194C7.1018 10.0166 7.06028 10.012 7.0303 10.0082C7.00891 10.0055 6.98383 10.002 6.97173 10.0002C6.97145 10.0002 6.97117 10.0002 6.97091 10.0001C6.18577 10.0077 5.43443 10.3229 4.87868 10.8787C4.31607 11.4413 4 12.2043 4 13C4 13.7956 4.31607 14.5587 4.87868 15.1213C5.44129 15.6839 6.20435 16 7 16H9.167C9.71928 16 10.167 16.4477 10.167 17C10.167 17.5523 9.71928 18 9.167 18H7C5.67392 18 4.40215 17.4732 3.46447 16.5355C2.52678 15.5978 2 14.3261 2 13C2 11.6739 2.52678 10.4021 3.46447 9.46445C4.28257 8.64634 5.355 8.14102 6.49592 8.02544C6.9937 6.82519 7.84261 5.79571 8.9395 5.07753ZM11.2929 9.29287C11.6834 8.90235 12.3166 8.90235 12.7071 9.29287L14.7071 11.2929C15.0976 11.6834 15.0976 12.3166 14.7071 12.7071C14.3166 13.0976 13.6834 13.0976 13.2929 12.7071L13 12.4142V19C13 19.5523 12.5523 20 12 20C11.4477 20 11 19.5523 11 19V12.4142L10.7071 12.7071C10.3166 13.0976 9.68342 13.0976 9.29289 12.7071C8.90237 12.3166 8.90237 11.6834 9.29289 11.2929L11.2929 9.29287Z" fill="#101828"/>
</svg>
