<svg width="24" height="24" viewBox="0 0 24 24" fill="none" xmlns="http://www.w3.org/2000/svg">
<path fill-rule="evenodd" clip-rule="evenodd" d="M8 5C7.44772 5 7 5.44772 7 6C7 6.55228 7.44772 7 8 7C8.55228 7 9 6.55228 9 6C9 5.44772 8.55228 5 8 5ZM5 6C5 4.34315 6.34315 3 8 3C9.65685 3 11 4.34315 11 6C11 7.30622 10.1652 8.41746 9 8.82929V11.5351C9.58835 11.1948 10.2714 11 11 11H12C13.3835 11 14.5482 10.0635 14.8949 8.78991C13.7849 8.34988 13 7.26661 13 6C13 4.34315 14.3431 3 16 3C17.6569 3 19 4.34315 19 6C19 7.3332 18.1303 8.46329 16.9274 8.85392C16.5222 11.2085 14.4703 13 12 13H11C9.89543 13 9 13.8954 9 15V15.1707C10.1652 15.5825 11 16.6938 11 18C11 19.6569 9.65685 21 8 21C6.34315 21 5 19.6569 5 18C5 16.6938 5.83481 15.5825 7 15.1707V8.82929C5.83481 8.41746 5 7.30622 5 6ZM16 5C15.4477 5 15 5.44772 15 6C15 6.55228 15.4477 7 16 7C16.5523 7 17 6.55228 17 6C17 5.44772 16.5523 5 16 5ZM8 17C7.44772 17 7 17.4477 7 18C7 18.5523 7.44772 19 8 19C8.55228 19 9 18.5523 9 18C9 17.4477 8.55228 17 8 17Z" fill="#101828"/>
</svg>
