<svg width="24" height="24" viewBox="0 0 24 24" fill="none" xmlns="http://www.w3.org/2000/svg">
<path fill-rule="evenodd" clip-rule="evenodd" d="M8 5C7.44772 5 7 5.44772 7 6C7 6.55228 7.44772 7 8 7C8.55228 7 9 6.55228 9 6C9 5.44772 8.55228 5 8 5ZM5 6C5 4.34315 6.34315 3 8 3C9.65685 3 11 4.34315 11 6C11 7.30622 10.1652 8.41746 9 8.82929V10C9 10.2652 9.10536 10.5196 9.29289 10.7071C9.48043 10.8946 9.73478 11 10 11H14C14.2652 11 14.5196 10.8946 14.7071 10.7071C14.8946 10.5196 15 10.2652 15 10V8.82929C13.8348 8.41746 13 7.30622 13 6C13 4.34315 14.3431 3 16 3C17.6569 3 19 4.34315 19 6C19 7.30622 18.1652 8.41746 17 8.82929V10C17 10.7957 16.6839 11.5587 16.1213 12.1213C15.5587 12.6839 14.7957 13 14 13H13V15.1707C14.1652 15.5825 15 16.6938 15 18C15 19.6569 13.6569 21 12 21C10.3431 21 9 19.6569 9 18C9 16.6938 9.83481 15.5825 11 15.1707V13H10C9.20435 13 8.44129 12.6839 7.87868 12.1213C7.31607 11.5587 7 10.7956 7 10V8.82929C5.83481 8.41746 5 7.30622 5 6ZM16 5C15.4477 5 15 5.44772 15 6C15 6.55228 15.4477 7 16 7C16.5523 7 17 6.55228 17 6C17 5.44772 16.5523 5 16 5ZM12 17C11.4477 17 11 17.4477 11 18C11 18.5523 11.4477 19 12 19C12.5523 19 13 18.5523 13 18C13 17.4477 12.5523 17 12 17Z" fill="currentColor"/>
</svg>
