<svg width="24" height="24" viewBox="0 0 24 24" fill="none" xmlns="http://www.w3.org/2000/svg">
<path fill-rule="evenodd" clip-rule="evenodd" d="M14.2747 4.03848C14.8057 4.19021 15.1132 4.74369 14.9615 5.27473L10.9615 19.2747C10.8098 19.8058 10.2563 20.1133 9.72525 19.9615C9.19421 19.8098 8.88672 19.2563 9.03845 18.7253L13.0385 4.72528C13.1902 4.19425 13.7437 3.88676 14.2747 4.03848ZM8.70711 7.2929C9.09763 7.68342 9.09763 8.31659 8.70711 8.70711L5.41421 12L8.70711 15.2929C9.09763 15.6834 9.09763 16.3166 8.70711 16.7071C8.31658 17.0976 7.68342 17.0976 7.29289 16.7071L3.29289 12.7071C2.90237 12.3166 2.90237 11.6834 3.29289 11.2929L7.29289 7.2929C7.68342 6.90237 8.31658 6.90237 8.70711 7.2929ZM15.2929 7.2929C15.6834 6.90237 16.3166 6.90237 16.7071 7.2929L20.7071 11.2929C21.0976 11.6834 21.0976 12.3166 20.7071 12.7071L16.7071 16.7071C16.3166 17.0976 15.6834 17.0976 15.2929 16.7071C14.9024 16.3166 14.9024 15.6834 15.2929 15.2929L18.5858 12L15.2929 8.70711C14.9024 8.31659 14.9024 7.68342 15.2929 7.2929Z" fill="#101828"/>
</svg>
