<svg width="24" height="24" viewBox="0 0 24 24" fill="none" xmlns="http://www.w3.org/2000/svg">
<path fill-rule="evenodd" clip-rule="evenodd" d="M9.58579 2.58579C9.96086 2.21071 10.4696 2 11 2H13C13.5304 2 14.0391 2.21071 14.4142 2.58579C14.7893 2.96086 15 3.46957 15 4V4.0888L15.473 4.28469L15.536 4.22179C15.5358 4.22197 15.5362 4.2216 15.536 4.22179C15.911 3.84719 16.4199 3.63621 16.95 3.63621C17.4803 3.63621 17.9889 3.84684 18.364 4.22179L19.7781 5.63589C20.153 6.01095 20.3638 6.51967 20.3638 7.05C20.3638 7.58007 20.1534 8.08845 19.7788 8.46345L19.7153 8.52703L19.9112 9H20C20.5304 9 21.0391 9.21071 21.4142 9.58579C21.7893 9.96086 22 10.4696 22 11V13C22 13.5304 21.7893 14.0391 21.4142 14.4142C21.0391 14.7893 20.5304 15 20 15H19.9112L19.7153 15.473L19.7782 15.536C20.1532 15.9111 20.3638 16.4197 20.3638 16.95C20.3638 17.4803 20.1532 17.9889 19.7782 18.364L18.3641 19.7781C17.9891 20.153 17.4803 20.3638 16.95 20.3638C16.4197 20.3638 15.9111 20.1532 15.536 19.7782L15.4726 19.7148L15 19.9108V20C15 20.5304 14.7893 21.0391 14.4142 21.4142C14.0391 21.7893 13.5304 22 13 22H11C10.4696 22 9.96086 21.7893 9.58579 21.4142C9.21071 21.0391 9 20.5304 9 20V19.9112L8.52703 19.7153L8.464 19.7782C8.089 20.1528 7.58007 20.3638 7.05 20.3638C6.51967 20.3638 6.01105 20.1532 5.636 19.7782L4.22189 18.3641C3.84695 17.989 3.63621 17.4803 3.63621 16.95C3.63621 16.4199 3.84664 15.9116 4.22123 15.5366C4.22105 15.5367 4.22142 15.5364 4.22123 15.5366L4.28469 15.473L4.0888 15H4C3.46957 15 2.96086 14.7893 2.58579 14.4142C2.21071 14.0391 2 13.5304 2 13V11C2 10.4696 2.21071 9.96086 2.58579 9.58579C2.96086 9.21071 3.46957 9 4 9H4.08916L4.28518 8.52739L4.22189 8.46411C3.84695 8.08905 3.63621 7.58033 3.63621 7.05C3.63621 6.51967 3.84684 6.01106 4.22179 5.636L5.63589 4.22189C6.01095 3.84695 6.51967 3.63621 7.05 3.63621C7.58007 3.63621 8.08844 3.84664 8.46345 4.22123L8.52703 4.28469L9 4.0888V4C9 3.46957 9.21071 2.96086 9.58579 2.58579ZM13 4H11V4.757C11 5.16147 10.7563 5.52612 10.3827 5.68089L8.67565 6.38789C8.3023 6.54253 7.87257 6.45725 7.58655 6.17177L7.05055 5.63677L5.63621 7.05L6.17211 7.58589C6.45823 7.87201 6.54372 8.30236 6.3887 8.67612L5.6807 10.3831C5.52581 10.7566 5.16129 11 4.757 11H4V13H4.757C5.16147 13 5.52612 13.2437 5.68089 13.6173L6.38789 15.3243C6.54253 15.6977 6.45725 16.1274 6.17177 16.4134L5.63677 16.9494L7.05 18.3638L7.58655 17.8282C7.87257 17.5427 8.3023 17.4575 8.67566 17.6121L10.3827 18.3191C10.7563 18.4739 11 18.8385 11 19.243V20H13V19.243C13 18.8387 13.2434 18.4742 13.6169 18.3193L15.3239 17.6113C15.6976 17.4563 16.128 17.5418 16.4141 17.8279L16.95 18.3638L18.3638 16.95L17.8282 16.4134C17.5427 16.1274 17.4575 15.6977 17.6121 15.3243L18.3191 13.6173C18.4739 13.2437 18.8385 13 19.243 13H20V11H19.243C18.8385 11 18.4739 10.7563 18.3191 10.3827L17.6121 8.67566C17.4575 8.3023 17.5427 7.87257 17.8282 7.58655L18.3632 7.05055L16.95 5.63621L16.4134 6.17177C16.1274 6.45725 15.6977 6.54253 15.3243 6.38789L13.6173 5.68089C13.2437 5.52612 13 5.16147 13 4.757V4ZM12 10C10.8954 10 10 10.8954 10 12C10 13.1046 10.8954 14 12 14C13.1046 14 14 13.1046 14 12C14 10.8954 13.1046 10 12 10ZM8 12C8 9.79086 9.79086 8 12 8C14.2091 8 16 9.79086 16 12C16 14.2091 14.2091 16 12 16C9.79086 16 8 14.2091 8 12Z" fill="currentColor"/>
</svg>
