<svg width="24" height="24" viewBox="0 0 24 24" fill="none" xmlns="http://www.w3.org/2000/svg">
<path fill-rule="evenodd" clip-rule="evenodd" d="M2 6C2 4.89543 2.89543 4 4 4H20C21.1046 4 22 4.89543 22 6V18C22 19.1046 21.1046 20 20 20H4C2.89543 20 2 19.1046 2 18V6ZM12 18H20V6H12V18ZM10 6V18H4V6L10 6ZM5.29289 9.29289C5.68342 8.90237 6.31658 8.90237 6.70711 9.29289L8.70705 11.2928C8.89459 11.4804 8.99994 11.7347 8.99994 11.9999C8.99994 12.2652 8.89459 12.5195 8.70705 12.707L6.70711 14.707C6.31658 15.0975 5.68342 15.0975 5.29289 14.707C4.90237 14.3165 4.90237 13.6833 5.29289 13.2928L6.58573 11.9999L5.29289 10.7071C4.90237 10.3166 4.90237 9.68342 5.29289 9.29289Z" fill="#101828"/>
</svg>
