<svg width="24" height="24" viewBox="0 0 24 24" fill="none" xmlns="http://www.w3.org/2000/svg">
<path fill-rule="evenodd" clip-rule="evenodd" d="M3 5C3 3.89543 3.89543 3 5 3H19C20.1046 3 21 3.89543 21 5V19C21 20.1046 20.1046 21 19 21H5C3.89543 21 3 20.1046 3 19V5ZM11 5H5V19H11V5ZM19 5H13V19H19V5ZM6.29289 9.29289C6.68342 8.90237 7.31658 8.90237 7.70711 9.29289L9.70705 11.2928C9.89459 11.4804 9.99994 11.7347 9.99994 11.9999C9.99994 12.2652 9.89459 12.5195 9.70705 12.707L7.70711 14.707C7.31658 15.0975 6.68342 15.0975 6.29289 14.707C5.90237 14.3165 5.90237 13.6833 6.29289 13.2928L7.58573 11.9999L6.29289 10.7071C5.90237 10.3166 5.90237 9.68342 6.29289 9.29289Z" fill="currentColor"/>
</svg>
