<svg width="24" height="24" viewBox="0 0 24 24" fill="none" xmlns="http://www.w3.org/2000/svg">
<path fill-rule="evenodd" clip-rule="evenodd" d="M6.26184 5.5347C6.03173 5.76787 6 5.92395 6 6C6 6.07605 6.03173 6.23213 6.26184 6.4653C6.4962 6.70277 6.8849 6.96249 7.44417 7.20218C8.55915 7.68002 10.1692 8 12 8C13.8308 8 15.4409 7.68002 16.5558 7.20218C17.1151 6.96249 17.5038 6.70277 17.7382 6.4653C17.9683 6.23213 18 6.07605 18 6C18 5.92395 17.9683 5.76787 17.7382 5.5347C17.5038 5.29723 17.1151 5.03751 16.5558 4.79782C15.4409 4.31998 13.8308 4 12 4C10.1692 4 8.55915 4.31998 7.44417 4.79782C6.8849 5.03751 6.4962 5.29723 6.26184 5.5347ZM18 8.72232C17.7906 8.8372 17.5708 8.94313 17.3437 9.04047C15.9251 9.6484 14.0352 10 12 10C9.96482 10 8.07486 9.6484 6.65633 9.04047C6.42923 8.94313 6.20944 8.8372 6 8.72232V12C6 12.0761 6.03174 12.2322 6.26186 12.4653C6.49624 12.7028 6.88496 12.9625 7.44424 13.2022C8.55926 13.6801 10.1693 14 12 14C13.8307 14 15.4407 13.6801 16.5558 13.2022C17.115 12.9625 17.5038 12.7028 17.7381 12.4653C17.9683 12.2322 18 12.0761 18 12V8.72232ZM18 14.7223C17.7905 14.8372 17.5707 14.9432 17.3436 15.0405C15.925 15.6484 14.0351 16 12 16C9.96495 16 8.07499 15.6484 6.65644 15.0405C6.4293 14.9432 6.20948 14.8372 6 14.7223V18C6 18.0761 6.03174 18.2322 6.26186 18.4653C6.49624 18.7028 6.88496 18.9625 7.44424 19.2022C8.55926 19.6801 10.1693 20 12 20C13.8307 20 15.4407 19.6801 16.5558 19.2022C17.115 18.9625 17.5038 18.7028 17.7381 18.4653C17.9683 18.2322 18 18.0761 18 18V14.7223ZM4 6C4 5.24762 4.36003 4.61449 4.83835 4.12983C5.31243 3.64947 5.94885 3.26274 6.65633 2.95953C8.07486 2.3516 9.96482 2 12 2C14.0352 2 15.9251 2.3516 17.3437 2.95953C18.0511 3.26274 18.6876 3.64947 19.1617 4.12983C19.64 4.61449 20 5.24762 20 6V18C20 18.7524 19.64 19.3856 19.1616 19.8702C18.6875 20.3506 18.0511 20.7373 17.3436 21.0405C15.925 21.6484 14.0351 22 12 22C9.96495 22 8.07499 21.6484 6.65644 21.0405C5.94895 20.7373 5.3125 20.3506 4.83839 19.8702C4.36004 19.3856 4 18.7524 4 18V6Z" fill="currentColor"/>
</svg>
