<svg width="24" height="24" viewBox="0 0 24 24" fill="none" xmlns="http://www.w3.org/2000/svg">
<path fill-rule="evenodd" clip-rule="evenodd" d="M2 6C2 4.89543 2.89543 4 4 4H20C21.1046 4 22 4.89543 22 6V18C22 19.1046 21.1046 20 20 20H4C2.89543 20 2 19.1046 2 18V6ZM9 18H11V16H9V18ZM7 16V18H4V16H7ZM20 14V6L4 6V14H20ZM20 16H17V18H20V16ZM15 18V16H13V18H15ZM9.78676 7.78676C10.1773 7.39623 10.8104 7.39623 11.201 7.78676L12 8.58579L12.799 7.78676C13.1896 7.39623 13.8227 7.39623 14.2132 7.78676C14.6038 8.17728 14.6038 8.81044 14.2132 9.20097L13.4142 10L14.2132 10.799C14.6038 11.1896 14.6038 11.8227 14.2132 12.2132C13.8227 12.6038 13.1896 12.6038 12.799 12.2132L12 11.4142L11.201 12.2132C10.8104 12.6038 10.1773 12.6038 9.78676 12.2132C9.39623 11.8227 9.39623 11.1896 9.78676 10.799L10.5858 10L9.78675 9.20097C9.39623 8.81044 9.39623 8.17728 9.78676 7.78676Z" fill="currentColor"/>
</svg>
