<svg width="24" height="24" viewBox="0 0 24 24" fill="none" xmlns="http://www.w3.org/2000/svg">
<path fill-rule="evenodd" clip-rule="evenodd" d="M2 6C2 4.89543 2.89543 4 4 4H20C21.1046 4 22 4.89543 22 6V18C22 19.1046 21.1046 20 20 20H4C2.89543 20 2 19.1046 2 18V6ZM4 12V14L8 14V12L4 12ZM8 10L4 10V6H8V10ZM10 6L10 18H20V6H10ZM8 18V16L4 16V18H8ZM12.799 9.78676C13.1896 9.39623 13.8227 9.39623 14.2132 9.78676L15.0123 10.5858L15.8113 9.78676C16.2018 9.39623 16.835 9.39623 17.2255 9.78676C17.616 10.1773 17.616 10.8104 17.2255 11.201L16.4265 12L17.2255 12.799C17.616 13.1896 17.616 13.8227 17.2255 14.2132C16.835 14.6038 16.2018 14.6038 15.8113 14.2132L15.0123 13.4142L14.2132 14.2132C13.8227 14.6038 13.1896 14.6038 12.799 14.2132C12.4085 13.8227 12.4085 13.1896 12.799 12.799L13.5981 12L12.799 11.201C12.4085 10.8104 12.4085 10.1773 12.799 9.78676Z" fill="currentColor"/>
</svg>
