<svg width="24" height="24" viewBox="0 0 24 24" fill="none" xmlns="http://www.w3.org/2000/svg">
<path fill-rule="evenodd" clip-rule="evenodd" d="M2 6C2 4.89543 2.89543 4 4 4H20C21.1046 4 22 4.89543 22 6V12C22 12.5523 21.5523 13 21 13C20.4477 13 20 12.5523 20 12H17V13C17 13.5523 16.5523 14 16 14C15.4477 14 15 13.5523 15 13V12H13V14H14C14.5523 14 15 14.4477 15 15C15 15.5523 14.5523 16 14 16H13V18H14.5C15.0523 18 15.5 18.4477 15.5 19C15.5 19.5523 15.0523 20 14.5 20H4C2.89543 20 2 19.1046 2 18V6ZM9 18H11V16H9V18ZM7 16V18H4V16H7ZM9 14H11V12H9V14ZM7 12V14H4V12H7ZM20 10V6L4 6V10H20ZM21.6122 15.2362C22.0027 15.6267 22.0027 16.2599 21.6122 16.6504L20.8145 17.4481L21.5679 18.2014C21.9584 18.5919 21.9584 19.2251 21.5679 19.6156C21.1774 20.0061 20.5442 20.0061 20.1537 19.6156L19.4003 18.8623L18.6027 19.6599C18.2121 20.0504 17.579 20.0504 17.1885 19.6599C16.7979 19.2694 16.7979 18.6362 17.1885 18.2457L17.9861 17.4481L17.2328 16.6947C16.8422 16.3042 16.8422 15.671 17.2328 15.2805C17.6233 14.89 18.2565 14.89 18.647 15.2805L19.4003 16.0338L20.198 15.2362C20.5885 14.8457 21.2217 14.8457 21.6122 15.2362Z" fill="#101828"/>
</svg>
