<svg width="24" height="24" viewBox="0 0 24 24" fill="none" xmlns="http://www.w3.org/2000/svg">
<path fill-rule="evenodd" clip-rule="evenodd" d="M7 2C7.55228 2 8 2.44772 8 3V4H16V3C16 2.44772 16.4477 2 17 2C17.5523 2 18 2.44772 18 3V6.16895C18 6.16893 18 6.16897 18 6.16895C18 7.20521 17.7317 8.22387 17.2211 9.1256C16.7105 10.0273 15.9751 10.7815 15.0864 11.3145C15.0864 11.3145 15.0865 11.3145 15.0864 11.3145L9.94245 14.4005C9.66164 14.569 9.40373 14.7705 9.1739 15H14.8259C14.7029 14.8771 14.5716 14.7621 14.4328 14.6558C13.9944 14.3199 13.9113 13.6922 14.2472 13.2538C14.5831 12.8154 15.2108 12.7323 15.6492 13.0682C16.3803 13.6284 16.9727 14.3494 17.3803 15.1753C17.788 16.0013 18 16.9099 18 17.831C18 17.831 18 17.831 18 17.831V21C18 21.5523 17.5523 22 17 22C16.4477 22 16 21.5523 16 21V20H8V21C8 21.5523 7.55228 22 7 22C6.44772 22 6 21.5523 6 21V17.831C6 17.831 6 17.8311 6 17.831C5.99996 16.7948 6.2683 15.7761 6.77889 14.8744C7.28949 13.9726 8.02494 13.2185 8.9136 12.6854L14.0576 9.59948C14.3384 9.43103 14.5963 9.22945 14.8261 9H9.17403C9.28089 9.10668 9.39397 9.20748 9.5128 9.30182C9.94534 9.64523 10.0176 10.2743 9.67418 10.7068C9.33077 11.1393 8.70174 11.2116 8.2692 10.8682C7.56153 10.3063 6.98989 9.59188 6.59697 8.77819C6.20405 7.96451 5.99998 7.07259 6 6.169C6 6.16899 6 6.16901 6 6.169V3C6 2.44772 6.44772 2 7 2ZM8 6V6.169C7.99999 6.44916 8.02942 6.72767 8.08725 7H15.9128C15.9706 6.7279 16 6.44945 16 6.16905V6H8ZM8 18H16V17.831C16 17.5508 15.9706 17.2723 15.9127 17H8.08722C8.02945 17.2721 7.99999 17.5506 8 17.8309V18Z" fill="#101828"/>
</svg>
