<svg width="24" height="24" viewBox="0 0 24 24" fill="none" xmlns="http://www.w3.org/2000/svg">
<path fill-rule="evenodd" clip-rule="evenodd" d="M4.5 12C4.5 11.1716 5.17157 10.5 6 10.5H6.01C6.83843 10.5 7.51 11.1716 7.51 12C7.51 12.8284 6.83843 13.5 6.01 13.5H6C5.17157 13.5 4.5 12.8284 4.5 12ZM10.51 12C10.51 11.1716 11.1816 10.5 12.01 10.5H12.02C12.8484 10.5 13.52 11.1716 13.52 12C13.52 12.8284 12.8484 13.5 12.02 13.5H12.01C11.1816 13.5 10.51 12.8284 10.51 12ZM16.51 12C16.51 11.1716 17.1816 10.5 18.01 10.5H18.02C18.8484 10.5 19.52 11.1716 19.52 12C19.52 12.8284 18.8484 13.5 18.02 13.5H18.01C17.1816 13.5 16.51 12.8284 16.51 12Z" fill="#101828"/>
</svg>
