<svg width="24" height="24" viewBox="0 0 24 24" fill="none" xmlns="http://www.w3.org/2000/svg">
<path fill-rule="evenodd" clip-rule="evenodd" d="M10.5 6C10.5 5.17157 11.1716 4.5 12 4.5H12.01C12.8384 4.5 13.51 5.17157 13.51 6C13.51 6.82843 12.8384 7.5 12.01 7.5H12C11.1716 7.5 10.5 6.82843 10.5 6ZM10.5 12C10.5 11.1716 11.1716 10.5 12 10.5H12.01C12.8384 10.5 13.51 11.1716 13.51 12C13.51 12.8284 12.8384 13.5 12.01 13.5H12C11.1716 13.5 10.5 12.8284 10.5 12ZM10.5 18C10.5 17.1716 11.1716 16.5 12 16.5H12.01C12.8384 16.5 13.51 17.1716 13.51 18C13.51 18.8284 12.8384 19.5 12.01 19.5H12C11.1716 19.5 10.5 18.8284 10.5 18Z" fill="#101828"/>
</svg>
