<svg width="24" height="24" viewBox="0 0 24 24" fill="none" xmlns="http://www.w3.org/2000/svg">
<path fill-rule="evenodd" clip-rule="evenodd" d="M12 3C12.5523 3 13 3.44771 13 4L13 11.1492L15.2191 8.37531C15.5641 7.94404 16.1934 7.87412 16.6247 8.21913C17.056 8.56414 17.1259 9.19343 16.7809 9.62469L12.7809 14.6247C12.5911 14.8619 12.3038 15 12 15C11.6962 15 11.4089 14.8619 11.2191 14.6247L7.21913 9.6247C6.87412 9.19343 6.94404 8.56414 7.3753 8.21913C7.80657 7.87412 8.43586 7.94404 8.78087 8.37531L11 11.1492L11 4C11 3.44772 11.4477 3 12 3ZM3 15C3 13.8954 3.89543 13 5 13H7C7.55228 13 8 13.4477 8 14C8 14.5523 7.55228 15 7 15H5V19H19V15H17C16.4477 15 16 14.5523 16 14C16 13.4477 16.4477 13 17 13H19C20.1046 13 21 13.8954 21 15V19C21 20.1046 20.1046 21 19 21H5C3.89543 21 3 20.1046 3 19V15ZM16 17C16 16.4477 16.4477 16 17 16H17.01C17.5623 16 18.01 16.4477 18.01 17C18.01 17.5523 17.5623 18 17.01 18H17C16.4477 18 16 17.5523 16 17Z" fill="currentColor"/>
</svg>
