<svg width="24" height="24" viewBox="0 0 24 24" fill="none" xmlns="http://www.w3.org/2000/svg">
<path fill-rule="evenodd" clip-rule="evenodd" d="M3 5C3 3.89543 3.89543 3 5 3H7C8.10457 3 9 3.89543 9 5V7C9 8.10457 8.10457 9 7 9H5C3.89543 9 3 8.10457 3 7V5ZM7 5H5V7H7V5ZM15 5C15 3.89543 15.8954 3 17 3H19C20.1046 3 21 3.89543 21 5V7C21 8.10457 20.1046 9 19 9H17C15.8954 9 15 8.10457 15 7V5ZM19 5H17V7H19V5ZM10 6.5C10 5.94772 10.4477 5.5 11 5.5H13C13.5523 5.5 14 5.94772 14 6.5C14 7.05228 13.5523 7.5 13 7.5H11C10.4477 7.5 10 7.05228 10 6.5ZM6 10C6.55228 10 7 10.4477 7 11L7 13C7 13.5523 6.55228 14 6 14C5.44772 14 5 13.5523 5 13L5 11C5 10.4477 5.44772 10 6 10ZM18 10C18.5523 10 19 10.4477 19 11V13C19 13.5523 18.5523 14 18 14C17.4477 14 17 13.5523 17 13V11C17 10.4477 17.4477 10 18 10ZM3 17C3 15.8954 3.89543 15 5 15H7C8.10457 15 9 15.8954 9 17V19C9 20.1046 8.10457 21 7 21H5C3.89543 21 3 20.1046 3 19V17ZM15 17C15 15.8954 15.8954 15 17 15H19C20.1046 15 21 15.8954 21 17V19C21 20.1046 20.1046 21 19 21H17C15.8954 21 15 20.1046 15 19V17ZM5 17V19H7V17H5ZM10 18C10 17.4477 10.4477 17 11 17H13C13.5523 17 14 17.4477 14 18C14 18.5523 13.5523 19 13 19H11C10.4477 19 10 18.5523 10 18ZM19 17H17V19H19V17Z" fill="#101828"/>
</svg>
