<svg width="24" height="24" viewBox="0 0 24 24" fill="none" xmlns="http://www.w3.org/2000/svg">
<path fill-rule="evenodd" clip-rule="evenodd" d="M16.983 4C16.8495 4 16.7174 4.0263 16.594 4.0774C16.4707 4.1285 16.3587 4.2034 16.2643 4.29782L15.7182 4.84395L17.156 6.28173L17.7019 5.73584C17.7963 5.64149 17.8714 5.52922 17.9225 5.40591C17.9736 5.2826 17.9999 5.15043 17.9999 5.01695C17.9999 4.88346 17.9736 4.75129 17.9225 4.62798C17.8714 4.50467 17.7965 4.39264 17.7021 4.29829C17.6078 4.20387 17.4953 4.1285 17.372 4.0774C17.2487 4.0263 17.1165 4 16.983 4ZM15.7418 7.69595L14.304 6.25817L9.6342 10.928L9.27476 12.7252L11.072 12.3658L15.7418 7.69595ZM13.5944 4.13932L8.00589 9.7279C7.86629 9.8675 7.77114 10.0453 7.73242 10.2389L7.01942 13.8039C6.95385 14.1317 7.05647 14.4707 7.29289 14.7071C7.52932 14.9435 7.86826 15.0462 8.19612 14.9806L11.7611 14.2676C11.9547 14.2289 12.1325 14.1337 12.2721 13.9941L19.1159 7.15029C19.3961 6.8702 19.6185 6.53763 19.7702 6.17158C19.9219 5.80553 19.9999 5.41318 19.9999 5.01695C19.9999 4.62071 19.9219 4.22836 19.7702 3.86231C19.6186 3.49647 19.3964 3.16406 19.1163 2.88407C19.1163 2.88405 19.1164 2.88409 19.1163 2.88407M19.1163 2.88407C18.8363 2.60383 18.5037 2.38145 18.1376 2.22977C17.7716 2.07808 17.3792 2 16.983 2C16.5868 2 16.1944 2.07808 15.8284 2.22977C15.4624 2.38142 15.1299 2.60368 14.8499 2.88384L13.5994 4.13437C13.5985 4.13519 13.5977 4.13601 13.5969 4.13684C13.5961 4.13767 13.5952 4.13849 13.5944 4.13932M2 8C2 6.89543 2.89543 6 4 6H7C7.55228 6 8 6.44772 8 7C8 7.55228 7.55228 8 7 8H4V18H15V13.5C15 12.9477 15.4477 12.5 16 12.5C16.5523 12.5 17 12.9477 17 13.5V18C17 19.1046 16.1046 20 15 20H4C2.89543 20 2 19.1046 2 18V8Z" fill="#101828"/>
</svg>
