<svg width="24" height="24" viewBox="0 0 24 24" fill="none" xmlns="http://www.w3.org/2000/svg">
<path fill-rule="evenodd" clip-rule="evenodd" d="M12.4856 4.41376C12.1836 4.24597 11.8164 4.24597 11.5144 4.41376L4.86065 8.11027L12 13.2665L19.1394 8.11027L12.4856 4.41376ZM20 9.95576L12.5855 15.3107C12.236 15.5631 11.764 15.5631 11.4145 15.3107L4 9.95576V19C4 19.5523 4.44772 20 5 20H19C19.5523 20 20 19.5523 20 19V9.95576ZM10.5431 2.66545C11.4491 2.16208 12.5509 2.16207 13.4569 2.66545L21.4856 7.12584C21.8031 7.30221 22 7.63683 22 8V19C22 20.6569 20.6569 22 19 22H5C3.34315 22 2 20.6569 2 19V8C2 7.63683 2.19689 7.30221 2.51436 7.12584L10.5431 2.66545Z" fill="currentColor"/>
</svg>
