<svg width="24" height="24" viewBox="0 0 24 24" fill="none" xmlns="http://www.w3.org/2000/svg">
<path fill-rule="evenodd" clip-rule="evenodd" d="M18.2929 4.29289C18.6834 3.90237 19.3166 3.90237 19.7071 4.29289C20.0976 4.68342 20.0976 5.31658 19.7071 5.70711L15.4462 9.96803C15.7981 10.5635 16 11.2582 16 12C16 14.2091 14.2091 16 12 16C11.2582 16 10.5635 15.7981 9.96803 15.4462L5.70711 19.7071C5.31658 20.0976 4.68342 20.0976 4.29289 19.7071C3.90237 19.3166 3.90237 18.6834 4.29289 18.2929L8.55382 14.032C8.20193 13.4365 8 12.7418 8 12C8 9.79086 9.79086 8 12 8C12.7418 8 13.4365 8.20193 14.032 8.55382L18.2929 4.29289ZM12.518 10.0677C12.3528 10.0236 12.1792 10 12 10C10.8954 10 10 10.8954 10 12C10 12.1792 10.0236 12.3528 10.0677 12.518L12.518 10.0677ZM11.482 13.9323C11.6472 13.9764 11.8208 14 12 14C13.1046 14 14 13.1046 14 12C14 11.8208 13.9764 11.6472 13.9323 11.482L11.482 13.9323ZM4.02887 11.9996C4.03969 11.9755 4.05364 11.9462 4.07154 11.9112C4.15877 11.7411 4.3019 11.5113 4.50559 11.2373C4.91147 10.6915 5.51472 10.0283 6.27094 9.38839C7.7999 8.09465 9.82763 7 12 7C12.5523 7 13 6.55228 13 6C13 5.44772 12.5523 5 12 5C9.17237 5 6.7001 6.40535 4.97906 7.86161C4.11028 8.59673 3.40103 9.37102 2.90066 10.0439C2.65123 10.3794 2.44279 10.7042 2.29175 10.9989C2.16264 11.2508 2 11.6205 2 12C2 12.0695 2.00724 12.1388 2.02161 12.2068C2.20443 13.0718 2.59853 13.8782 3.16875 14.5539C3.52493 14.976 4.15584 15.0294 4.57792 14.6733C5 14.3171 5.05343 13.6862 4.69725 13.2641C4.38568 12.8949 4.15801 12.4634 4.02887 11.9996ZM18.8641 9.12286C19.2381 8.71646 19.8707 8.69017 20.2771 9.06415C21.0561 9.78094 21.634 10.689 21.9534 11.6982C21.9843 11.7959 22 11.8976 22 12C22 12.321 21.894 12.6531 21.7868 12.919C21.6681 13.2132 21.5 13.5408 21.2892 13.8835C20.8669 14.5697 20.2456 15.3606 19.4257 16.1122C17.7805 17.6202 15.2988 19 12 19C11.6562 19 11.3212 18.9847 10.9951 18.9562C10.4449 18.9082 10.0378 18.4233 10.0858 17.8731C10.1338 17.3229 10.6187 16.9158 11.1689 16.9638C11.4388 16.9873 11.7158 17 12 17C14.7012 17 16.7195 15.8798 18.0743 14.6378C18.7544 14.0144 19.2581 13.3678 19.5858 12.8353C19.75 12.5686 19.8631 12.3415 19.932 12.1708C19.9469 12.1339 19.9586 12.1024 19.9678 12.0759C19.7435 11.4897 19.3863 10.9623 18.9229 10.5359C18.5165 10.1619 18.4902 9.52926 18.8641 9.12286Z" fill="#101828"/>
</svg>
