<svg width="24" height="24" viewBox="0 0 24 24" fill="none" xmlns="http://www.w3.org/2000/svg">
<path fill-rule="evenodd" clip-rule="evenodd" d="M4.0117 12C4.02312 12.0329 4.04406 12.0868 4.08184 12.1644C4.16842 12.3421 4.3101 12.5758 4.51263 12.851C4.91651 13.3997 5.51827 14.0535 6.2742 14.6801C7.80015 15.9449 9.83098 17 12 17C14.169 17 16.1999 15.9449 17.7258 14.6801C18.4817 14.0535 19.0835 13.3997 19.4874 12.851C19.6899 12.5758 19.8316 12.3421 19.9182 12.1644C19.9559 12.0868 19.9769 12.0329 19.9883 12C19.9769 11.9671 19.9559 11.9132 19.9182 11.8356C19.8316 11.6579 19.6899 11.4242 19.4874 11.149C19.0835 10.6003 18.4817 9.94649 17.7258 9.3199C16.1999 8.05506 14.169 7 12 7C9.83098 7 7.80015 8.05506 6.2742 9.3199C5.51827 9.94649 4.91651 10.6003 4.51263 11.149C4.3101 11.4242 4.16842 11.6579 4.08184 11.8356C4.04406 11.9132 4.02312 11.9671 4.0117 12ZM4.99787 7.7801C6.72929 6.34495 9.19846 5 12 5C14.8015 5 17.2707 6.34495 19.0021 7.7801C19.8749 8.50351 20.5911 9.2747 21.0981 9.96347C21.351 10.3071 21.5629 10.6452 21.7161 10.9597C21.8554 11.2456 22 11.6185 22 12C22 12.3815 21.8554 12.7544 21.7161 13.0403C21.5629 13.3548 21.351 13.6929 21.0981 14.0365C20.5911 14.7253 19.8749 15.4965 19.0021 16.2199C17.2707 17.6551 14.8015 19 12 19C9.19846 19 6.72929 17.6551 4.99787 16.2199C4.12513 15.4965 3.40886 14.7253 2.9019 14.0365C2.649 13.6929 2.43705 13.3548 2.28385 13.0403C2.14458 12.7544 2 12.3815 2 12C2 11.6185 2.14458 11.2456 2.28385 10.9597C2.43705 10.6452 2.649 10.3071 2.9019 9.96347C3.40886 9.2747 4.12513 8.50351 4.99787 7.7801ZM12 10C10.8954 10 10 10.8954 10 12C10 13.1046 10.8954 14 12 14C13.1046 14 14 13.1046 14 12C14 10.8954 13.1046 10 12 10ZM8 12C8 9.79086 9.79086 8 12 8C14.2091 8 16 9.79086 16 12C16 14.2091 14.2091 16 12 16C9.79086 16 8 14.2091 8 12Z" fill="currentColor"/>
</svg>
