<svg width="24" height="24" viewBox="0 0 24 24" fill="none" xmlns="http://www.w3.org/2000/svg">
<path fill-rule="evenodd" clip-rule="evenodd" d="M3.69857 6.31701C2.56704 5.02384 3.48541 3 5.20372 3H18.7962C20.5145 3 21.4329 5.02384 20.3013 6.31701L15 12.3757V19.5C15 20.7361 13.5888 21.4416 12.6 20.7L9.59995 18.45C9.22225 18.1667 8.99995 17.7221 8.99995 17.25V12.3757L3.69857 6.31701ZM18.7962 5H5.20372L10.5051 11.0587C10.8241 11.4233 11 11.8913 11 12.3757V17L13 18.5V12.3757C13 11.8913 13.1758 11.4233 13.4948 11.0587L18.7962 5Z" fill="#101828"/>
</svg>
