<svg width="24" height="24" viewBox="0 0 24 24" fill="none" xmlns="http://www.w3.org/2000/svg">
<path fill-rule="evenodd" clip-rule="evenodd" d="M14.3906 4.31526C13.3101 4.00234 12.1757 3.921 11.0616 4.07655C9.94745 4.2321 8.8787 4.62105 7.9252 5.21796C7.45708 5.51101 6.84002 5.36909 6.54697 4.90097C6.25392 4.43284 6.39584 3.81579 6.86396 3.52274C8.05602 2.77649 9.39215 2.29024 10.785 2.09576C12.1779 1.90129 13.5961 2.00299 14.947 2.39419C16.2978 2.7854 17.5509 3.45731 18.6243 4.366C19.6977 5.27468 20.5672 6.39969 21.176 7.66746C21.4151 8.16531 21.2053 8.76272 20.7075 9.00179C20.2096 9.24087 19.6122 9.03109 19.3731 8.53324C18.8862 7.51917 18.1906 6.61931 17.3321 5.89246C16.4735 5.16562 15.4712 4.62818 14.3906 4.31526ZM12.4234 7.00945C11.5177 6.96234 10.6163 7.16241 9.81569 7.58825C9.01503 8.01409 8.34526 8.64966 7.87809 9.42693C7.41092 10.2042 7.16393 11.0939 7.16358 12.0007C7.16336 12.553 6.71547 13.0006 6.16319 13.0003C5.6109 13.0001 5.16336 12.5522 5.16358 12C5.16408 10.7304 5.50986 9.48479 6.1639 8.39662C6.81794 7.30845 7.75561 6.41864 8.87653 5.82247C9.99745 5.22629 11.2594 4.94619 12.5273 5.01216C13.7952 5.07812 15.0212 5.48767 16.0742 6.19696C16.5323 6.5055 16.6535 7.12695 16.345 7.58501C16.0364 8.04307 15.415 8.16428 14.9569 7.85574C14.2048 7.34911 13.329 7.05657 12.4234 7.00945ZM5.54655 5.8728C5.97256 6.22427 6.03299 6.85455 5.68152 7.28056C4.577 8.61933 4.22266 10.5428 4.22266 12.4296V15.1215C4.22266 15.6737 3.77494 16.1215 3.22266 16.1215C2.67037 16.1215 2.22266 15.6737 2.22266 15.1215V12.4296C2.22266 10.3791 2.59156 7.88314 4.13879 6.00777C4.49026 5.58176 5.12054 5.52133 5.54655 5.8728ZM12.1636 10.0003C11.6331 10.0003 11.1244 10.2111 10.7494 10.5861C10.3743 10.9612 10.1636 11.4699 10.1636 12.0003C10.1636 12.0393 10.1636 12.0781 10.1636 12.117C10.1639 14.876 10.1642 17.3948 8.49494 19.8921C8.18803 20.3512 7.567 20.4746 7.10785 20.1677C6.6487 19.8608 6.52529 19.2398 6.83221 18.7806C8.13945 16.825 8.16358 14.8856 8.16358 12.0003C8.16358 10.9395 8.58501 9.92207 9.33515 9.17192C10.0853 8.42177 11.1027 8.00035 12.1636 8.00035C13.2244 8.00035 14.2419 8.42177 14.992 9.17192C15.7422 9.92207 16.1636 10.9395 16.1636 12.0003V12.0088C16.1636 12.7525 16.1636 13.5409 16.1318 14.3506C16.1102 14.9024 15.6452 15.3322 15.0934 15.3106C14.5415 15.2889 14.1117 14.824 14.1333 14.2721C14.1635 13.5048 14.1636 12.7521 14.1636 12.0003C14.1636 11.4699 13.9529 10.9612 13.5778 10.5861C13.2027 10.2111 12.694 10.0003 12.1636 10.0003ZM17.3683 8.85244C17.8813 8.64792 18.463 8.89801 18.6675 9.41103C18.994 10.2301 19.1623 11.1036 19.1636 11.9853C19.2272 14.1377 19.0663 16.2909 18.6837 18.4101C18.5855 18.9536 18.0654 19.3146 17.5219 19.2164C16.9784 19.1183 16.6173 18.5981 16.7155 18.0546C17.0743 16.0676 17.2246 14.0486 17.164 12.0304C17.1637 12.0201 17.1636 12.0098 17.1636 11.9995C17.1641 11.3666 17.044 10.7395 16.8097 10.1517C16.6052 9.63864 16.8552 9.05696 17.3683 8.85244ZM21.1221 11.0012C21.6739 10.9783 22.1398 11.407 22.1627 11.9588C22.2935 15.1064 21.9119 18.2543 21.0329 21.2794C20.8788 21.8097 20.3239 22.1147 19.7935 21.9606C19.2632 21.8065 18.9582 21.2517 19.1123 20.7213C19.9309 17.9043 20.2862 14.9729 20.1644 12.0419C20.1415 11.49 20.5703 11.0241 21.1221 11.0012ZM12.1636 11.0003C12.7159 11.0003 13.1636 11.4481 13.1636 12.0003C13.1636 12.0267 13.1636 12.053 13.1636 12.0794C13.1638 15.0388 13.1639 18.3026 10.9956 21.555C10.6893 22.0146 10.0684 22.1388 9.60888 21.8324C9.14935 21.526 9.02518 20.9052 9.33153 20.4456C11.1439 17.7271 11.1636 15.0201 11.1636 12.0003C11.1636 11.4481 11.6113 11.0003 12.1636 11.0003ZM6.14237 14.7632C6.68535 14.8642 7.04368 15.3862 6.94273 15.9291C6.78979 16.7517 6.47043 17.5344 6.00423 18.2291C5.45504 19.0484 5.16237 20.0128 5.16358 20.9991C5.16425 21.5514 4.71708 21.9997 4.1648 22.0003C3.61251 22.001 3.16425 21.5539 3.16358 21.0016C3.16189 19.6178 3.57247 18.265 4.34293 17.1156L4.34326 17.1151C4.65779 16.6464 4.87326 16.1185 4.97643 15.5636C5.07738 15.0206 5.59939 14.6622 6.14237 14.7632ZM14.8592 17.2615C15.3954 17.3939 15.7228 17.9358 15.5904 18.472C15.3458 19.4631 15.0004 20.4265 14.5595 21.3472C14.321 21.8453 13.7239 22.0558 13.2257 21.8173C12.7276 21.5788 12.5171 20.9816 12.7556 20.4835C13.1375 19.6859 13.4368 18.8513 13.6487 17.9927C13.7811 17.4565 14.3231 17.1291 14.8592 17.2615Z" fill="#101828"/>
</svg>
