<svg width="24" height="24" viewBox="0 0 24 24" fill="none" xmlns="http://www.w3.org/2000/svg">
<path fill-rule="evenodd" clip-rule="evenodd" d="M7.42448 3.17994C7.77885 2.93264 8.25197 2.94095 8.59744 3.20052C8.69073 3.27061 8.83931 3.36613 9.02879 3.48795C9.78826 3.9762 11.2048 4.88687 12.3517 6.2758C13.4486 7.60423 14.354 9.39298 14.5759 11.8001C15.0071 10.9201 15.3033 9.80031 15.3696 8.36917C15.3866 8.00003 15.6059 7.67039 15.9398 7.51197C16.2736 7.35354 16.6676 7.39215 16.9644 7.61236C17.8909 8.29987 18.9876 9.86638 19.5715 11.7137C20.1674 13.5993 20.2843 15.9552 18.9821 18.1546C18.9776 18.1623 18.973 18.1699 18.9682 18.1774C18.2179 19.3708 17.1763 20.3498 15.9425 21.0188C14.7184 21.6825 13.3466 22.0183 11.9575 21.9938C10.6506 22.0466 9.35236 21.7612 8.18509 21.1652C7.008 20.5641 6.00424 19.6676 5.26856 18.5629C5.25781 18.5468 5.24754 18.5303 5.23775 18.5136C2.21843 13.3526 5.58277 8.56864 6.1794 7.75171C6.20332 7.71896 6.2292 7.68769 6.25692 7.65809C6.66805 7.21891 6.95818 6.67545 7.09606 6.08267C7.23395 5.48983 7.21425 4.87035 7.03912 4.28799C6.91467 3.87417 7.07011 3.42723 7.42448 3.17994ZM9.14271 5.98615C9.11924 6.17044 9.08636 6.35389 9.04406 6.53576C8.83208 7.44716 8.39052 8.28831 7.76146 8.97683C7.10611 9.88532 4.68784 13.5789 6.94925 17.4783C7.4949 18.2889 8.23345 18.9442 9.09464 19.3839C9.9642 19.828 10.9305 20.0378 11.9014 19.9944C11.9236 19.9934 11.9457 19.9932 11.9679 19.9936C13.0195 20.0165 14.06 19.7644 14.9893 19.2606C15.9148 18.7588 16.6997 18.0237 17.2679 17.1242C18.1899 15.5582 18.1442 13.8345 17.6644 12.3164C17.492 11.7707 17.2703 11.2735 17.0335 10.8417C16.5087 12.9544 15.4381 14.4319 14.1263 15.4275C13.8061 15.6705 13.3716 15.6982 13.0231 15.4979C12.6747 15.2975 12.4801 14.908 12.5292 14.509C12.948 11.1008 11.9722 8.95742 10.8095 7.54922C10.2592 6.88283 9.68384 6.38625 9.14271 5.98615Z" fill="currentColor"/>
</svg>
