<svg width="24" height="24" viewBox="0 0 24 24" fill="none" xmlns="http://www.w3.org/2000/svg">
<path fill-rule="evenodd" clip-rule="evenodd" d="M2 6C2 4.89543 2.89543 4 4 4H20C21.1046 4 22 4.89543 22 6V7.98935C22 8.54164 21.5523 8.98935 21 8.98935C20.4477 8.98935 20 8.54164 20 7.98935V6L4 6V10H8C8.55228 10 9 10.4477 9 11V19C9 19.5523 8.55228 20 8 20H4C2.89543 20 2 19.1046 2 18V6ZM4 12V14H7V12H4ZM7 16H4V18H7V16ZM14.1443 8.51345C14.3215 8.19916 14.6544 8.00475 15.0153 8.00475H18.1506C18.4992 8.00475 18.8227 8.18628 19.0043 8.48384L21.6144 12.761C21.7808 13.0338 21.8069 13.3697 21.6845 13.6648L20.8068 15.7823L21.4148 16.7882C21.7004 17.2609 21.5489 17.8756 21.0762 18.1613C20.6035 18.4469 19.9888 18.2953 19.7031 17.8227L18.8335 16.3839C18.669 16.1117 18.6438 15.7775 18.7656 15.4837L19.6422 13.3688L17.5894 10.0048H16.7881L17.3151 10.8768C17.9873 11.989 17.6306 13.4356 16.5183 14.1078C15.4061 14.78 13.9595 14.4233 13.2873 13.3111L12.7609 12.44L12.3592 13.2059L14.3766 16.5439L16.6844 16.7365C17.0039 16.7631 17.2912 16.9414 17.4571 17.2158L18.3266 18.6546C18.6123 19.1272 18.4607 19.742 17.988 20.0277C17.5154 20.3133 16.9006 20.1617 16.615 19.6891L16.0094 18.6871L13.7016 18.4945C13.3821 18.4679 13.0948 18.2896 12.9289 18.0152L10.3559 13.7579C10.1749 13.4584 10.1637 13.0861 10.3262 12.7762L11.8135 9.9401C11.9812 9.62044 12.3081 9.41593 12.6688 9.40499C13.0296 9.39406 13.3683 9.57838 13.555 9.88729L14.999 12.2766C15.0999 12.4435 15.3169 12.497 15.4839 12.3961C15.6508 12.2953 15.7043 12.0782 15.6034 11.9113L14.1594 9.52199C13.9728 9.21317 13.967 8.82774 14.1443 8.51345Z" fill="currentColor"/>
</svg>
