<svg width="24" height="24" viewBox="0 0 24 24" fill="none" xmlns="http://www.w3.org/2000/svg">
<path fill-rule="evenodd" clip-rule="evenodd" d="M13.0894 3.29377C15.0136 4.24393 16.5124 4.98402 18.5623 3.98617C18.8722 3.83531 19.238 3.85469 19.5302 4.03745C19.8225 4.22022 20 4.54061 20 4.8853V14.4262C20 14.8088 19.7817 15.1579 19.4377 15.3254C16.4569 16.7763 14.0556 15.566 12.1887 14.625C11.9741 14.5168 11.7666 14.4122 11.566 14.3157C10.5329 13.818 9.67912 13.5028 8.8105 13.5446C8.0506 13.5811 7.13845 13.9021 6 14.9409V21C6 21.5523 5.55228 22 5 22C4.44772 22 4 21.5523 4 21V4.97117C4 4.70402 4.1069 4.44797 4.29685 4.26013C5.81855 2.75532 7.26433 2.07567 8.71449 2.00597C10.1209 1.93838 11.3671 2.45896 12.434 2.97286C12.6585 3.08102 12.8765 3.18868 13.0894 3.29377ZM6 12.4331V5.39993C7.13845 4.36117 8.0506 4.04019 8.8105 4.00367C9.67912 3.96192 10.5329 4.27711 11.566 4.77473C11.7666 4.87132 11.9741 4.97591 12.1887 5.08407C13.7455 5.86874 15.6739 6.84073 18 6.30064V13.763C16.2279 14.3845 14.8334 13.6959 13.0894 12.8347C12.8765 12.7296 12.6585 12.6219 12.434 12.5138C11.3671 11.9999 10.1209 11.4793 8.71449 11.5469C7.81438 11.5902 6.91595 11.8684 6 12.4331Z" fill="currentColor"/>
</svg>
