<svg width="24" height="24" viewBox="0 0 24 24" fill="none" xmlns="http://www.w3.org/2000/svg">
<path fill-rule="evenodd" clip-rule="evenodd" d="M3 5C3 3.89543 3.89543 3 5 3H16.5858C17.1162 3 17.6249 3.21071 18 3.58579L20.4142 6C20.7893 6.37507 21 6.88378 21 7.41421V19C21 20.1046 20.1046 21 19 21H5C3.89543 21 3 20.1046 3 19V5ZM9 19H15V14H9V19ZM17 19V14C17 12.8954 16.1046 12 15 12H9C7.89543 12 7 12.8954 7 14V19H5V5H8V7C8 8.10457 8.89543 9 10 9H14C15.1046 9 16 8.10457 16 7V5H16.5858L19 7.41421V19H17ZM14 5H10V7H14V5ZM9.99995 16C9.99995 15.4477 10.4477 15 11 15H13C13.5522 15 14 15.4477 14 16C14 16.5523 13.5522 17 13 17H11C10.4477 17 9.99995 16.5523 9.99995 16Z" fill="currentColor"/>
</svg>
