<svg width="24" height="24" viewBox="0 0 24 24" fill="none" xmlns="http://www.w3.org/2000/svg">
<path fill-rule="evenodd" clip-rule="evenodd" d="M3 5C3 3.89543 3.89543 3 5 3H16.5858C17.1162 3 17.6249 3.21071 18 3.58579L20.4142 6C20.7893 6.37507 21 6.88378 21 7.41421V19C21 20.1046 20.1046 21 19 21H5C3.89543 21 3 20.1046 3 19V5ZM15 5H9V7H15V5ZM7 5V8C7 8.55228 7.44772 9 8 9H16C16.5523 9 17 8.55228 17 8V5.41421L19 7.41421V19H5V5H7ZM12 12C10.8954 12 10 12.8954 10 14C10 15.1046 10.8954 16 12 16C13.1046 16 14 15.1046 14 14C14 12.8954 13.1046 12 12 12ZM8 14C8 11.7909 9.79086 10 12 10C14.2091 10 16 11.7909 16 14C16 16.2091 14.2091 18 12 18C9.79086 18 8 16.2091 8 14Z" fill="currentColor"/>
</svg>
