<svg width="24" height="24" viewBox="0 0 24 24" fill="none" xmlns="http://www.w3.org/2000/svg">
<path fill-rule="evenodd" clip-rule="evenodd" d="M7.5 4C7.10218 4 6.72064 4.15804 6.43934 4.43934C6.15804 4.72064 6 5.10218 6 5.5C6 5.89782 6.15804 6.27936 6.43934 6.56066C6.72064 6.84196 7.10218 7 7.5 7H10.0615C10.1131 6.90989 10.1711 6.81079 10.235 6.70425C10.3392 6.53059 10.4601 6.3359 10.5963 6.12734C10.5955 6.12646 10.5948 6.12558 10.5941 6.12469C10.1265 5.54015 9.59817 4.99099 9.04376 4.59498C8.48637 4.19684 7.96885 4 7.5 4ZM11.8275 4.48033C11.3606 3.94052 10.8153 3.40259 10.2062 2.96752C9.45113 2.42816 8.53115 2 7.5 2C6.57174 2 5.6815 2.36875 5.02513 3.02513C4.36875 3.6815 4 4.57174 4 5.5C4 6.02384 4.11743 6.53557 4.33772 7H4C3.46957 7 2.96086 7.21071 2.58579 7.58579C2.21071 7.96086 2 8.46957 2 9V12C2 12.5523 2.44772 13 3 13H4V20C4 20.5304 4.21071 21.0391 4.58579 21.4142C4.96086 21.7893 5.46957 22 6 22H18C18.5304 22 19.0391 21.7893 19.4142 21.4142C19.7893 21.0391 20 20.5304 20 20V13H21C21.5523 13 22 12.5523 22 12V9C22 8.46957 21.7893 7.96086 21.4142 7.58579C21.0391 7.21071 20.5304 7 20 7H19.3173C19.5376 6.53557 19.655 6.02384 19.655 5.5C19.655 4.57174 19.2863 3.6815 18.6299 3.02513C17.9735 2.36875 17.0833 2 16.155 2C15.1239 2 14.2039 2.42816 13.4488 2.96752C12.8397 3.40259 12.2944 3.94052 11.8275 4.48033ZM16.155 7C16.5528 7 16.9344 6.84196 17.2157 6.56066C17.497 6.27936 17.655 5.89782 17.655 5.5C17.655 5.10218 17.497 4.72064 17.2157 4.43934C16.9344 4.15804 16.5528 4 16.155 4C15.6861 4 15.1686 4.19684 14.6112 4.59498C14.0568 4.99099 13.5285 5.54015 13.0609 6.12469C12.8233 6.42166 12.6075 6.72003 12.4178 7H16.155ZM18 13H15V20H18V13ZM13 20V13H11V20H13ZM9 20V13H6V20H9ZM20 11V9H4V11H20Z" fill="currentColor"/>
</svg>
