<svg width="24" height="24" viewBox="0 0 24 24" fill="none" xmlns="http://www.w3.org/2000/svg">
<path fill-rule="evenodd" clip-rule="evenodd" d="M4.64688 8.84336C4.23057 9.81183 4 10.879 4 12C4 16.1187 7.11253 19.5105 11.1138 19.9515C11.1397 19.4351 11.1599 18.8235 11.1003 18.0871C11.0053 16.9127 10.707 15.7132 9.97869 14.7898C9.54354 14.2381 9.15338 14.0083 8.64537 13.7107L8.64485 13.7104C8.09757 13.3898 7.43463 13.0014 6.77488 12.1305C6.50338 11.7722 6.29238 11.3419 6.1188 10.9772C6.08736 10.9111 6.05673 10.8463 6.0266 10.7825C5.87646 10.4647 5.73874 10.1732 5.57549 9.8892C5.30852 9.42483 5.02281 9.07085 4.64688 8.84336ZM5.6613 7.11869C6.43981 7.58306 6.94613 8.26055 7.30938 8.89239C7.51666 9.25293 7.69426 9.62954 7.84407 9.94722C7.87189 10.0062 7.89876 10.0632 7.92468 10.1177C8.10467 10.4958 8.23754 10.7492 8.36906 10.9228C8.78004 11.4653 9.15462 11.6911 9.65634 11.9851L9.68118 11.9996C10.2179 12.3139 10.8781 12.7006 11.549 13.5512C12.6262 14.9169 12.9841 16.57 13.0938 17.9258C13.1516 18.6399 13.1404 19.3625 13.1187 19.9224C13.4181 19.8805 13.7122 19.822 14 19.748V19C14 16.2386 16.2386 14 19 14H19.748C19.9125 13.3608 20 12.6906 20 12C20 10.9415 19.7944 9.93103 19.421 9.00631H18.1949C18.1224 9.00631 18.0632 9.01144 18.017 9.01877C18.0119 9.29788 17.9703 9.92252 17.6426 10.5239C17.4398 10.896 17.1255 11.2646 16.6553 11.5304C16.1896 11.7937 15.63 11.9229 14.9845 11.9141C14.3449 11.9129 13.793 11.7704 13.3368 11.4963C12.8784 11.2208 12.5758 10.848 12.3818 10.4801C12.019 9.79219 12.0196 9.08668 12.0198 8.9155C12.0198 8.91222 12.0198 8.90913 12.0198 8.90625C12.0198 8.53345 11.9484 8.38791 11.9174 8.33932C11.8913 8.29821 11.8416 8.24148 11.6767 8.16734C11.504 8.08969 11.3017 8.03241 10.9903 7.94425C10.9538 7.9339 10.9157 7.92313 10.8761 7.91186C10.531 7.81375 10.0974 7.68482 9.65884 7.46806C8.76695 7.02724 8.21177 6.42397 7.90535 5.73829C7.82966 5.56892 7.7718 5.40009 7.72761 5.23515C6.93328 5.73787 6.23359 6.37663 5.6613 7.11869ZM9.60051 4.36608C9.61876 4.57531 9.65752 4.75715 9.73131 4.92229C9.83192 5.14743 10.0344 5.42273 10.545 5.6751C10.8077 5.80493 11.0895 5.89327 11.423 5.98809C11.459 5.99833 11.4967 6.00889 11.5356 6.01982C11.8218 6.1001 12.179 6.2003 12.4969 6.34325C12.8861 6.51827 13.3029 6.79132 13.6047 7.26553C13.9018 7.73228 14.0198 8.28763 14.0198 8.90625C14.0198 9.02871 14.0275 9.31325 14.1508 9.54709C14.2034 9.64671 14.2707 9.72411 14.367 9.78199C14.4637 9.8401 14.6488 9.91406 14.9922 9.91406H14.9999L15.0076 9.91418C15.3715 9.9198 15.5689 9.84708 15.6711 9.78934C15.7705 9.73313 15.836 9.65953 15.8864 9.56699C16.0079 9.34391 16.0177 9.06269 16.0177 8.90625C16.0177 8.26426 16.302 7.72161 16.8032 7.38349C17.2465 7.08446 17.7668 7.00631 18.1949 7.00631H18.2504C16.7844 5.17377 14.5293 4 12 4C11.164 4 10.358 4.12823 9.60051 4.36608ZM16.0008 18.9293C16.0379 17.3286 17.3286 16.0379 18.9293 16.0008C18.2269 17.2147 17.2147 18.2269 16.0008 18.9293ZM2 12C2 6.47715 6.47715 2 12 2C17.5228 2 22 6.47715 22 12C22 17.5228 17.5228 22 12 22C6.47715 22 2 17.5228 2 12Z" fill="currentColor"/>
</svg>
