<svg width="24" height="24" viewBox="0 0 24 24" fill="none" xmlns="http://www.w3.org/2000/svg">
<path fill-rule="evenodd" clip-rule="evenodd" d="M2 6C2 4.89543 2.89543 4 4 4H20C21.1046 4 22 4.89543 22 6V11C22 11.5523 21.5523 12 21 12H13V18H13.5C14.0523 18 14.5 18.4477 14.5 19C14.5 19.5523 14.0523 20 13.5 20H4C2.89543 20 2 19.1046 2 18V6ZM9 18H11V16H9V18ZM7 16V18H4V16H7ZM9 14H11V12H9V14ZM7 12V14H4V12H7ZM20 10V6L4 6V10H20ZM18.3928 13.3928C18.7833 13.0023 19.4165 13.0023 19.807 13.3928L21.7071 15.2929C21.8946 15.4804 22 15.7348 22 16C22 16.2652 21.8946 16.5196 21.7071 16.7071L19.807 18.6072C19.4165 18.9977 18.7833 18.9977 18.3928 18.6072C18.0023 18.2167 18.0023 17.5835 18.3928 17.193L18.5858 17H16C15.4477 17 15 16.5523 15 16C15 15.4477 15.4477 15 16 15H18.5858L18.3928 14.807C18.0023 14.4165 18.0023 13.7833 18.3928 13.3928Z" fill="#101828"/>
</svg>
