<svg width="24" height="24" viewBox="0 0 24 24" fill="none" xmlns="http://www.w3.org/2000/svg">
<path fill-rule="evenodd" clip-rule="evenodd" d="M2 6.00003C2 4.89546 2.89543 4.00003 4 4.00003H20C21.1046 4.00003 22 4.89546 22 6.00003V11C22 11.5523 21.5523 12 21 12H13V18H13.5C14.0523 18 14.5 18.4477 14.5 19C14.5 19.5523 14.0523 20 13.5 20H4C2.89543 20 2 19.1046 2 18V6.00003ZM9 18H11V16H9V18ZM7 16V18H4V16H7ZM9 14H11V12H9V14ZM7 12V14H4V12H7ZM20 10V6.00003L4 6.00003V10H20ZM18.6072 13.3928C18.9977 13.7833 18.9977 14.4165 18.6072 14.807L18.4142 15H21C21.5523 15 22 15.4477 22 16C22 16.5523 21.5523 17 21 17H18.4142L18.6072 17.193C18.9977 17.5835 18.9977 18.2167 18.6072 18.6072C18.2167 18.9977 17.5835 18.9977 17.193 18.6072L15.2929 16.7071C15.1054 16.5196 15 16.2653 15 16C15 15.7348 15.1054 15.4805 15.2929 15.2929L17.193 13.3928C17.5835 13.0023 18.2167 13.0023 18.6072 13.3928Z" fill="currentColor"/>
</svg>
