<svg width="24" height="24" viewBox="0 0 24 24" fill="none" xmlns="http://www.w3.org/2000/svg">
<path fill-rule="evenodd" clip-rule="evenodd" d="M5 5V9H9V5H5ZM3 4.857C3 3.83141 3.83141 3 4.857 3H9.143C10.1686 3 11 3.83141 11 4.857V9.143C11 10.1686 10.1686 11 9.143 11H4.857C3.83141 11 3 10.1686 3 9.143V4.857ZM15 5V9H19V5H15ZM13 4.857C13 3.83141 13.8314 3 14.857 3H19.143C20.1686 3 21 3.83141 21 4.857V9.143C21 10.1686 20.1686 11 19.143 11H14.857C13.8314 11 13 10.1686 13 9.143V4.857ZM5 15V19H9V15H5ZM3 14.857C3 13.8314 3.83141 13 4.857 13H9.143C10.1686 13 11 13.8314 11 14.857V19.143C11 20.1686 10.1686 21 9.143 21H4.857C3.83141 21 3 20.1686 3 19.143V14.857ZM17 13C17.5523 13 18 13.4477 18 14V16H20C20.5523 16 21 16.4477 21 17C21 17.5523 20.5523 18 20 18H18V20C18 20.5523 17.5523 21 17 21C16.4477 21 16 20.5523 16 20V18H14C13.4477 18 13 17.5523 13 17C13 16.4477 13.4477 16 14 16H16V14C16 13.4477 16.4477 13 17 13Z" fill="#101828"/>
</svg>
