<svg width="24" height="24" viewBox="0 0 24 24" fill="none" xmlns="http://www.w3.org/2000/svg">
<path fill-rule="evenodd" clip-rule="evenodd" d="M9.30059 2.84712C10.4138 1.73388 12.3541 1.75008 13.6378 3.03369L14.7967 4.19261C15.1887 3.82481 15.8047 3.83233 16.1876 4.21518L20.2922 8.31976C20.4797 8.50729 20.5851 8.76165 20.5851 9.02686C20.5851 9.28126 20.4881 9.52566 20.3147 9.71068L21.6603 11.0563C21.8479 11.2438 21.9532 11.4982 21.9532 11.7634C21.9532 12.0286 21.8479 12.283 21.6603 12.4705L19.608 14.5228C19.2175 14.9133 18.5844 14.9133 18.1938 14.5228L16.8482 13.1772C16.4641 13.5374 15.865 13.5374 15.4809 13.1771L7.9784 20.6796C7.58788 21.0702 6.95471 21.0702 6.56419 20.6796L3.82781 17.9432C3.43728 17.5527 3.43728 16.9196 3.82781 16.529L11.3303 9.02653C11.1569 8.84152 11.06 8.59714 11.06 8.34277C11.06 8.08846 11.1569 7.84413 11.3302 7.65913L10.4822 6.81115C10.3029 6.63182 9.87558 6.48915 9.22413 6.56153C8.92613 6.59464 8.63777 6.66872 8.40017 6.76275C8.14859 6.86232 8.01726 6.95887 7.97842 6.99772C7.58789 7.38824 6.95473 7.38824 6.5642 6.99772C6.17368 6.60719 6.17368 5.97403 6.5642 5.5835L9.30059 2.84712ZM10.3586 4.61757C10.9093 4.7241 11.4571 4.95759 11.8964 5.39693L12.744 6.24454L13.3821 5.60646L12.2235 4.44791C11.6414 3.8658 10.9697 4.00638 10.7148 4.26133L10.3586 4.61757ZM18.1708 9.02686L15.4805 6.33655L13.4743 8.34282L16.1646 11.0331L18.1708 9.02686ZM12.7441 10.4412L5.94913 17.2361L7.2713 18.5583L14.0662 11.7634L12.7441 10.4412ZM18.2629 11.7634L18.9009 12.4015L19.539 11.7634L18.9009 11.1253L18.2629 11.7634Z" fill="currentColor"/>
</svg>
