<svg width="24" height="24" viewBox="0 0 24 24" fill="none" xmlns="http://www.w3.org/2000/svg">
<path fill-rule="evenodd" clip-rule="evenodd" d="M18.9765 13.6775L12.7577 20.6648C12.5679 20.878 12.2961 21 12.0107 21C11.7253 21 11.4534 20.878 11.2637 20.6648L5.04556 13.6783C2.34375 10.841 2.45399 7.27533 4.26994 5.10798C5.17347 4.02961 6.49102 3.32103 8.01456 3.28206C9.31684 3.24875 10.6866 3.70531 12.0095 4.70225C13.328 3.70549 14.6945 3.24873 15.9948 3.28206C17.5164 3.32107 18.8323 4.0302 19.7354 5.10798C21.5498 7.27357 21.6683 10.8387 18.9765 13.6775ZM15.9436 5.28141C15.0401 5.25825 13.9079 5.62545 12.6841 6.74035C12.303 7.08757 11.7204 7.08813 11.3386 6.74165C10.1095 5.62615 8.97272 5.25821 8.0657 5.28141C7.15752 5.30464 6.36563 5.72088 5.80296 6.39244C4.68934 7.72156 4.43761 10.1484 6.50383 12.3095C6.51205 12.3181 6.52012 12.3268 6.52802 12.3357L12.0107 18.4959L17.4933 12.3357C17.5007 12.3274 17.5083 12.3192 17.516 12.3111C19.5716 10.1514 19.3176 7.72353 18.2023 6.39244C17.6392 5.72029 16.8484 5.3046 15.9436 5.28141Z" fill="#101828"/>
</svg>
