<svg width="24" height="24" viewBox="0 0 24 24" fill="none" xmlns="http://www.w3.org/2000/svg">
<path fill-rule="evenodd" clip-rule="evenodd" d="M4.5 4C4.5 3.44772 4.94772 3 5.5 3H18.5C19.0523 3 19.5 3.44772 19.5 4C19.5 4.55228 19.0523 5 18.5 5H17V7.333C17 7.95949 16.8039 8.56967 16.4401 9.07831L14.8243 11.8973C14.8039 11.9329 14.7813 11.9672 14.7567 12C14.7813 12.0328 14.8039 12.0671 14.8243 12.1027L16.4401 14.9217C16.8039 15.4303 17 16.0405 17 16.667V19H18.5C19.0523 19 19.5 19.4477 19.5 20C19.5 20.5523 19.0523 21 18.5 21H5.5C4.94772 21 4.5 20.5523 4.5 20C4.5 19.4477 4.94772 19 5.5 19H7V16.667C7 16.0426 7.1948 15.4344 7.55627 14.9268L9.12678 12.1127C9.14863 12.0735 9.17309 12.0359 9.2 12C9.17309 11.9641 9.14863 11.9265 9.12678 11.8873L7.55627 9.07317C7.1948 8.56556 7 7.95738 7 7.333V5H5.5C4.94772 5 4.5 4.55228 4.5 4ZM9 5V7.333C9 7.54937 9.07018 7.7599 9.2 7.933C9.22691 7.96887 9.25137 8.00652 9.27322 8.04568L10.846 10.864C11.0762 11.1975 11.2 11.5936 11.2 12C11.2 12.4064 11.0762 12.8025 10.846 13.136L9.27322 15.9543C9.25137 15.9935 9.22691 16.0311 9.2 16.067C9.07018 16.2401 9 16.4506 9 16.667V19H15V16.667C15 16.4506 14.9298 16.2401 14.8 16.067C14.7754 16.0342 14.7528 15.9999 14.7324 15.9643L13.1145 13.1415C12.8819 12.8069 12.7567 12.4087 12.7567 12C12.7567 11.5913 12.8819 11.1931 13.1145 10.8585L14.7324 8.03572C14.7528 8.00013 14.7754 7.96582 14.8 7.933C14.9298 7.7599 15 7.54937 15 7.333V5H9Z" fill="#101828"/>
</svg>
