<svg width="24" height="24" viewBox="0 0 24 24" fill="none" xmlns="http://www.w3.org/2000/svg">
<path fill-rule="evenodd" clip-rule="evenodd" d="M2.00002 6C2.00002 4.89543 2.89545 4 4.00002 4H20C21.1046 4 22 4.89543 22 6V18C22 19.1046 21.1046 20 20 20H11.7259C11.7176 20.0001 11.7093 20.0001 11.701 20H4.00002C2.89545 20 2.00002 19.1046 2.00002 18V16.0116C1.99991 16.0033 1.99991 15.995 2.00002 15.9867V6ZM4.00002 16.3205V18H11.1997L12.8343 15.7115L8.09914 10.5817L4.00002 16.3205ZM14.0217 14.0492L8.73482 8.32172C8.53069 8.10058 8.23783 7.98314 7.93747 8.00196C7.63711 8.02078 7.36121 8.17387 7.18628 8.41876L4.00002 12.8795V6L20 6V15.9496L16.7433 12.331C16.5405 12.1057 16.2464 11.9845 15.9438 12.0016C15.6411 12.0186 15.3625 12.1721 15.1863 12.4188L14.0217 14.0492ZM19.1547 18L16.0899 14.5947L13.6575 18H19.1547ZM13 10C13 9.44772 13.4477 9 14 9H14.01C14.5623 9 15.01 9.44772 15.01 10C15.01 10.5523 14.5623 11 14.01 11H14C13.4477 11 13 10.5523 13 10Z" fill="currentColor"/>
</svg>
