<svg width="24" height="24" viewBox="0 0 24 24" fill="none" xmlns="http://www.w3.org/2000/svg">
<path fill-rule="evenodd" clip-rule="evenodd" d="M5.02381 3.78307C5.12549 3.32553 5.5313 3 6 3H18C18.4687 3 18.8745 3.32553 18.9762 3.78307L20.9762 12.7831C20.992 12.8543 21 12.927 21 13V19C21 19.5304 20.7893 20.0391 20.4142 20.4142C20.0391 20.7893 19.5304 21 19 21H5C4.46957 21 3.96086 20.7893 3.58579 20.4142C3.21071 20.0391 3 19.5304 3 19V13C3 12.927 3.00799 12.8543 3.02381 12.7831L5.02381 3.78307ZM6.80217 5L5.24662 12H7.44163C7.83015 12.001 8.20989 12.1157 8.53404 12.3299C8.85819 12.5441 9.11258 12.8484 9.26588 13.2055C9.49623 13.7391 9.87771 14.1936 10.3633 14.5131C10.8493 14.8328 11.4183 15.0032 12 15.0032C12.5817 15.0032 13.1507 14.8328 13.6367 14.5131C14.1225 14.1935 14.5041 13.7387 14.7344 13.2048C14.8877 12.8481 15.142 12.544 15.466 12.3299C15.7901 12.1157 16.1698 12.001 16.5584 12L16.561 12L18.7534 12L17.1978 5H6.80217ZM19 14H16.5695C16.1844 14.8912 15.547 15.6503 14.7359 16.1839C13.9235 16.7184 12.9724 17.0032 12 17.0032C11.0276 17.0032 10.0765 16.7184 9.2641 16.1839C8.45297 15.6503 7.81562 14.8912 7.43048 14H5V19H19V14ZM8 7C8 6.44772 8.44772 6 9 6H15C15.5523 6 16 6.44772 16 7C16 7.55228 15.5523 8 15 8H9C8.44772 8 8 7.55228 8 7ZM7 10C7 9.44772 7.44772 9 8 9H16C16.5523 9 17 9.44772 17 10C17 10.5523 16.5523 11 16 11H8C7.44772 11 7 10.5523 7 10Z" fill="#101828"/>
</svg>
