<svg width="24" height="24" viewBox="0 0 24 24" fill="none" xmlns="http://www.w3.org/2000/svg">
<path fill-rule="evenodd" clip-rule="evenodd" d="M12 4C7.58172 4 4 7.58172 4 12C4 16.4183 7.58172 20 12 20C16.4183 20 20 16.4183 20 12C20 7.58172 16.4183 4 12 4ZM2 12C2 6.47715 6.47715 2 12 2C17.5228 2 22 6.47715 22 12C22 17.5228 17.5228 22 12 22C6.47715 22 2 17.5228 2 12ZM10.4079 7.5C10.4079 6.94772 10.8556 6.5 11.4079 6.5H11.4179C11.9702 6.5 12.4179 6.94772 12.4179 7.5C12.4179 8.05228 11.9702 8.5 11.4179 8.5H11.4079C10.8556 8.5 10.4079 8.05228 10.4079 7.5ZM9 11C9 10.4477 9.44772 10 10 10H12C12.5523 10 13 10.4477 13 11V15H14C14.5523 15 15 15.4477 15 16C15 16.5523 14.5523 17 14 17H10C9.44772 17 9 16.5523 9 16C9 15.4477 9.44772 15 10 15H11V12H10C9.44772 12 9 11.5523 9 11Z" fill="currentColor"/>
</svg>
