<svg width="24" height="24" viewBox="0 0 24 24" fill="none" xmlns="http://www.w3.org/2000/svg">
<path fill-rule="evenodd" clip-rule="evenodd" d="M2 6C2 4.89543 2.89543 4 4 4H20C21.1046 4 22 4.89543 22 6V18C22 19.1046 21.1046 20 20 20H4C2.89543 20 2 19.1046 2 18V6ZM9 18H11V16H9V18ZM7 16V18H4V16H7ZM20 14V6L4 6V14H20ZM20 16H17V18H20V16ZM15 18V16H13V18H15ZM12 7C12.5523 7 13 7.44772 13 8V9H14C14.5523 9 15 9.44772 15 10C15 10.5523 14.5523 11 14 11H13V12C13 12.5523 12.5523 13 12 13C11.4477 13 11 12.5523 11 12V11H10C9.44772 11 9 10.5523 9 10C9 9.44772 9.44772 9 10 9H11V8C11 7.44772 11.4477 7 12 7Z" fill="currentColor"/>
</svg>
