<svg width="24" height="24" viewBox="0 0 24 24" fill="none" xmlns="http://www.w3.org/2000/svg">
<path fill-rule="evenodd" clip-rule="evenodd" d="M2 6C2 4.89543 2.89543 4 4 4H20C21.1046 4 22 4.89543 22 6V12C22 12.5523 21.5523 13 21 13C20.4477 13 20 12.5523 20 12H17V13C17 13.5523 16.5523 14 16 14C15.4477 14 15 13.5523 15 13V12H13V14H14C14.5523 14 15 14.4477 15 15C15 15.5523 14.5523 16 14 16H13V18H14.5C15.0523 18 15.5 18.4477 15.5 19C15.5 19.5523 15.0523 20 14.5 20H4C2.89543 20 2 19.1046 2 18V6ZM9 18H11V16H9V18ZM7 16V18H4V16H7ZM9 14H11V12H9V14ZM7 12V14H4V12H7ZM20 10V6L4 6V10H20ZM19 14C19.5523 14 20 14.4477 20 15V16H21C21.5523 16 22 16.4477 22 17C22 17.5523 21.5523 18 21 18H20V19C20 19.5523 19.5523 20 19 20C18.4477 20 18 19.5523 18 19V18H17C16.4477 18 16 17.5523 16 17C16 16.4477 16.4477 16 17 16H18V15C18 14.4477 18.4477 14 19 14Z" fill="#101828"/>
</svg>
