<svg width="24" height="24" viewBox="0 0 24 24" fill="none" xmlns="http://www.w3.org/2000/svg">
<path fill-rule="evenodd" clip-rule="evenodd" d="M2 6C2 4.89543 2.89543 4 4 4H20C21.1046 4 22 4.89543 22 6V18C22 19.1046 21.1046 20 20 20H4C2.89543 20 2 19.1046 2 18V6ZM15 6H13V8H15V6ZM17 8V6H20V8H17ZM4 10V18H20V10H4ZM4 8H7V6H4V8ZM9 6V8H11V6H9ZM12 11C12.5523 11 13 11.4477 13 12V13H14C14.5523 13 15 13.4477 15 14C15 14.5523 14.5523 15 14 15H13V16C13 16.5523 12.5523 17 12 17C11.4477 17 11 16.5523 11 16V15H10C9.44772 15 9 14.5523 9 14C9 13.4477 9.44772 13 10 13H11V12C11 11.4477 11.4477 11 12 11Z" fill="currentColor"/>
</svg>
