<svg width="24" height="24" viewBox="0 0 24 24" fill="none" xmlns="http://www.w3.org/2000/svg">
<path fill-rule="evenodd" clip-rule="evenodd" d="M2 7C2 5.89543 2.89543 5 4 5H20C21.1046 5 22 5.89543 22 7V17C22 18.1046 21.1046 19 20 19H4C2.89543 19 2 18.1046 2 17V7ZM20 7L4 7V17H20V7ZM5 8H7.01V10.01H5V8ZM8 8H10.01V10.01H8V8ZM11 8H13.01V10.01H11V8ZM14 8H16.01V10.01H14V8ZM17 8H19.01V10.01H17V8ZM5 11H7.01V13.01H5V11ZM8 11H10.01V13.01H8V11ZM11 11H13.01V13.01H11V11ZM14 11H16.01V13.01H14V11ZM17 11H19.01V13.01H17V11ZM5 14H7.01V16.01H5V14ZM16.01 16.01V14H8L7.99857 16L16.01 16.01ZM17 14H19.01V16.01H17V14Z" fill="currentColor"/>
</svg>
