<svg width="24" height="24" viewBox="0 0 24 24" fill="none" xmlns="http://www.w3.org/2000/svg">
<path fill-rule="evenodd" clip-rule="evenodd" d="M10.9152 2.34525C11.5756 1.91893 12.4244 1.91893 13.0848 2.34525L20.0848 6.86443C20.6553 7.23279 21 7.86554 21 8.54469V9.5C21 10.3284 20.3284 11 19.5 11H19L19 17H20C20.5523 17 21 17.4477 21 18C21 18.5523 20.5523 19 20 19H4C3.44772 19 3 18.5523 3 18C3 17.4477 3.44772 17 4 17H5L5 11H4.5C3.67157 11 3 10.3284 3 9.5V8.54469C3 7.86554 3.34465 7.23279 3.91523 6.86443L10.9152 2.34525ZM7 11L7 17H9L9 11H7ZM5 9V8.54469L12 4.02551L19 8.54469V9H5ZM11 11L11 17H13L13 11H11ZM15 11L15 17H17L17 11H15ZM2 21C2 20.4477 2.44772 20 3 20H21C21.5523 20 22 20.4477 22 21C22 21.5523 21.5523 22 21 22H3C2.44772 22 2 21.5523 2 21Z" fill="currentColor"/>
</svg>
