<svg width="24" height="24" viewBox="0 0 24 24" fill="none" xmlns="http://www.w3.org/2000/svg">
<path fill-rule="evenodd" clip-rule="evenodd" d="M11.5025 2.13407C11.8119 1.95531 12.1933 1.95531 12.5028 2.13407L19.5002 6.17584C19.8095 6.35449 20 6.68457 20 7.04176C20 7.39896 19.8095 7.72903 19.5002 7.90769L12.5028 11.9495C12.1933 12.1282 11.8119 12.1282 11.5025 11.9495L4.50508 7.90769C4.19577 7.72903 4.00525 7.39896 4.00525 7.04176C4.00525 6.68457 4.19577 6.35449 4.50508 6.17583L11.5025 2.13407ZM7.00457 7.04176L12.0026 9.92869L17.0007 7.04176L12.0026 4.15483L7.00457 7.04176ZM5.00525 10.1906C5.55753 10.1906 6.00525 10.6383 6.00525 11.1906V11.4228L12.0026 14.8869L18 11.4228V11.1906C18 10.6383 18.4477 10.1906 19 10.1906C19.5523 10.1906 20 10.6383 20 11.1906V12C20 12.3572 19.8095 12.6873 19.5002 12.8659L12.5028 16.9077C12.1933 17.0865 11.8119 17.0865 11.5025 16.9077L4.50508 12.8659C4.19577 12.6873 4.00525 12.3572 4.00525 12V11.1906C4.00525 10.6383 4.45296 10.1906 5.00525 10.1906ZM5 15.1489C5.55228 15.1489 6 15.5966 6 16.1489V16.381L11.9974 19.8452L17.9948 16.381V16.1489C17.9948 15.5966 18.4425 15.1489 18.9948 15.1489C19.547 15.1489 19.9948 15.5966 19.9948 16.1489V16.9582C19.9948 17.3154 19.8042 17.6455 19.4949 17.8242L12.4975 21.8659C12.1881 22.0447 11.8067 22.0447 11.4972 21.8659L4.49983 17.8242C4.19052 17.6455 4 17.3154 4 16.9582V16.1489C4 15.5966 4.44772 15.1489 5 15.1489Z" fill="currentColor"/>
</svg>
