<svg width="24" height="24" viewBox="0 0 24 24" fill="none" xmlns="http://www.w3.org/2000/svg">
<path fill-rule="evenodd" clip-rule="evenodd" d="M6.94569 3.37654C8.47376 2.47624 10.2191 1.9978 12.002 1.9978C13.7841 1.9978 15.5287 2.47581 17.0563 3.37533C17.1698 3.3052 17.2891 3.24411 17.4129 3.19278C17.7164 3.06705 18.0416 3.00233 18.37 3.00233C18.6985 3.00233 19.0237 3.06705 19.3271 3.19278C19.6304 3.31848 19.906 3.50269 20.1381 3.7349C20.138 3.73482 20.1382 3.73498 20.1381 3.7349L20.2649 3.86168C20.4972 4.09384 20.6815 4.36951 20.8072 4.67293C20.933 4.97635 20.9977 5.30157 20.9977 5.63001C20.9977 5.95845 20.933 6.28367 20.8072 6.58709C20.7556 6.71166 20.6941 6.83156 20.6235 6.94569C21.5238 8.47377 22.0022 10.2191 22.0022 12.002C22.0022 13.7841 21.5242 15.5287 20.6247 17.0563C20.6948 17.1698 20.7559 17.2891 20.8072 17.4129C20.933 17.7163 20.9977 18.0416 20.9977 18.37C20.9977 18.6985 20.933 19.0237 20.8072 19.3271C20.6815 19.6305 20.4972 19.9062 20.2649 20.1383L20.2623 20.1409L20.1383 20.2639C20.1378 20.2644 20.1373 20.265 20.1367 20.2655C19.9049 20.4971 19.6298 20.6808 19.3271 20.8062C19.0237 20.932 18.6985 20.9967 18.37 20.9967C18.0416 20.9967 17.7163 20.932 17.4129 20.8062C17.2887 20.7547 17.169 20.6934 17.0552 20.623C15.5269 21.5236 13.7813 22.0022 11.998 22.0022C10.2156 22.0022 8.47069 21.524 6.94291 20.6242C6.82961 20.6941 6.71065 20.755 6.58709 20.8062C6.28367 20.932 5.95845 20.9967 5.63001 20.9967C5.30157 20.9967 4.97635 20.932 4.67293 20.8062C4.37028 20.6808 4.09523 20.4971 3.86343 20.2656C3.86284 20.2651 3.86226 20.2645 3.86168 20.2639L3.7377 20.1409L3.73513 20.1383C3.50281 19.9062 3.31852 19.6305 3.19278 19.3271C3.06705 19.0237 3.00233 18.6985 3.00233 18.37C3.00233 18.0416 3.06705 17.7164 3.19278 17.4129C3.24441 17.2884 3.3059 17.1685 3.37654 17.0543C2.47624 15.5263 1.9978 13.7809 1.9978 11.998C1.9978 10.2159 2.47581 8.47132 3.37533 6.94374C3.3052 6.83019 3.24411 6.71095 3.19278 6.58709C3.06705 6.28367 3.00233 5.95845 3.00233 5.63001C3.00233 5.30157 3.06705 4.97635 3.19278 4.67293C3.31848 4.36961 3.50269 4.09402 3.7349 3.8619L3.86168 3.73513C3.8616 3.73521 3.86175 3.73505 3.86168 3.73513C4.0938 3.50292 4.36961 3.31848 4.67293 3.19278C4.97635 3.06705 5.30157 3.00233 5.63001 3.00233C5.95845 3.00233 6.28367 3.06705 6.58709 3.19278C6.71166 3.24441 6.83156 3.3059 6.94569 3.37654ZM8.90602 8.07199L5.98381 5.14902C5.93738 5.10256 5.88211 5.06557 5.82143 5.04042C5.76074 5.01527 5.6957 5.00233 5.63001 5.00233C5.56432 5.00233 5.49928 5.01527 5.43859 5.04042C5.37791 5.06557 5.32278 5.10243 5.27634 5.14889L5.14912 5.27612C5.10265 5.32255 5.06557 5.37791 5.04042 5.43859C5.01527 5.49928 5.00233 5.56432 5.00233 5.63001C5.00233 5.6957 5.01527 5.76074 5.04042 5.82143C5.06557 5.88211 5.10243 5.93724 5.14889 5.98368L5.29554 6.13029C5.3044 6.13852 5.31314 6.14693 5.32173 6.15552L8.07342 8.90421C8.31734 8.59526 8.59695 8.31578 8.90602 8.07199ZM4.81721 8.48015L7.14351 10.8058C7.04974 11.1885 7.00001 11.5884 7.00001 12C7.00001 12.4105 7.04947 12.8094 7.14274 13.1911L4.81745 15.5164C4.28061 14.4267 3.9978 13.2235 3.9978 11.998C3.9978 10.7727 4.28052 9.56969 4.81721 8.48015ZM8.07199 15.094L5.14902 18.0162C5.10256 18.0626 5.06557 18.1179 5.04042 18.1786C5.01527 18.2393 5.00233 18.3043 5.00233 18.37C5.00233 18.4357 5.01527 18.5007 5.04042 18.5614C5.06541 18.6217 5.10195 18.6765 5.14799 18.7228C5.14829 18.7231 5.14859 18.7234 5.14889 18.7237L5.27331 18.8471L5.27634 18.8501C5.32278 18.8966 5.37791 18.9334 5.43859 18.9586C5.49928 18.9837 5.56432 18.9967 5.63001 18.9967C5.6957 18.9967 5.76074 18.9837 5.82143 18.9586C5.88211 18.9334 5.93724 18.8966 5.98368 18.8501L8.90421 15.9266C8.59526 15.6827 8.31578 15.4031 8.07199 15.094ZM8.47967 19.1826C9.56934 19.7194 10.7726 20.0022 11.998 20.0022C13.2235 20.0022 14.4267 19.7194 15.5164 19.1826L13.1911 16.8573C12.8094 16.9506 12.4105 17 12 17C11.5884 17 11.1884 16.9503 10.8057 16.8565L8.47967 19.1826ZM11.0382 14.8425C11.3402 14.9446 11.6636 15 12 15C12.3732 15 12.7304 14.9319 13.06 14.8074C13.0729 14.8016 13.0859 14.796 13.099 14.7908C13.4797 14.6382 13.825 14.4092 14.1137 14.1179C14.4024 13.8267 14.6283 13.4793 14.7775 13.0973C14.7959 13.0502 14.8177 13.0049 14.8425 12.9618C14.9446 12.6599 15 12.3364 15 12C15 11.6268 14.9319 11.2696 14.8074 10.94C14.8016 10.9272 14.7961 10.9142 14.7908 10.9011C14.6382 10.5204 14.4091 10.175 14.1177 9.88629C13.8263 9.59758 13.4787 9.37171 13.0966 9.22263C13.0488 9.204 13.003 9.18191 12.9594 9.15668C12.6581 9.05508 12.3355 9.00001 12 9.00001C11.6268 9.00001 11.2696 9.06815 10.94 9.19266C10.9272 9.19844 10.9142 9.20397 10.901 9.20924C10.5203 9.3618 10.175 9.59079 9.88629 9.88207C9.59759 10.1733 9.37168 10.5207 9.22251 10.9027C9.20411 10.9499 9.18233 10.9951 9.15749 11.0382C9.05538 11.3402 9.00001 11.6636 9.00001 12C9.00001 12.3732 9.06815 12.7304 9.19266 13.06C9.19844 13.0729 9.20397 13.0859 9.20924 13.099C9.3618 13.4797 9.59079 13.825 9.88207 14.1137C10.1733 14.4024 10.5207 14.6283 10.9027 14.7775C10.9499 14.7959 10.9951 14.8177 11.0382 14.8425ZM10.809 7.14274C11.1907 7.04947 11.5896 7.00001 12 7.00001C12.4113 7.00001 12.811 7.04967 13.1935 7.14333L15.5197 4.81712C14.4302 4.28049 13.2272 3.9978 12.002 3.9978C10.7766 3.9978 9.57334 4.28061 8.48367 4.81745L10.809 7.14274ZM16.8573 10.809C16.9506 11.1907 17 11.5896 17 12C17 12.4116 16.9503 12.8115 16.8565 13.1942L19.1828 15.5199C19.7195 14.4303 20.0022 13.2273 20.0022 12.002C20.0022 10.7766 19.7194 9.57334 19.1826 8.48367L16.8573 10.809ZM15.928 8.90602L18.851 5.98381C18.8975 5.93738 18.9345 5.88211 18.9596 5.82143C18.9847 5.76074 18.9977 5.6957 18.9977 5.63001C18.9977 5.56432 18.9847 5.49928 18.9596 5.43859C18.9345 5.37791 18.8976 5.32278 18.8511 5.27634L18.7239 5.14912C18.6775 5.10266 18.6221 5.06557 18.5614 5.04042C18.5007 5.01527 18.4357 5.00233 18.37 5.00233C18.3043 5.00233 18.2393 5.01527 18.1786 5.04042C18.1179 5.06557 18.0628 5.10243 18.0163 5.14889L17.8702 5.29502C17.8617 5.30423 17.8529 5.3133 17.844 5.32221L15.0937 8.07177C15.4035 8.31608 15.6837 8.59625 15.928 8.90602ZM15.0941 15.9279L18.0161 18.8499C18.0625 18.8964 18.1179 18.9334 18.1786 18.9586C18.2393 18.9837 18.3043 18.9967 18.37 18.9967C18.4357 18.9967 18.5007 18.9837 18.5614 18.9586C18.6221 18.9334 18.6772 18.8966 18.7237 18.8501L18.7267 18.8471L18.8511 18.7237C18.8514 18.7234 18.8517 18.7231 18.852 18.7228C18.8981 18.6765 18.9346 18.6217 18.9596 18.5614C18.9847 18.5007 18.9977 18.4357 18.9977 18.37C18.9977 18.3043 18.9847 18.2393 18.9596 18.1786C18.9345 18.1179 18.8976 18.0628 18.8511 18.0163L18.7045 17.8697C18.6955 17.8614 18.6866 17.8528 18.6779 17.8441L15.9279 15.0941C15.6837 15.4037 15.4037 15.6837 15.0941 15.9279Z" fill="currentColor"/>
</svg>
