<svg width="24" height="24" viewBox="0 0 24 24" fill="none" xmlns="http://www.w3.org/2000/svg">
<path fill-rule="evenodd" clip-rule="evenodd" d="M7.05025 4.05025C8.36301 2.7375 10.1435 2 12 2C13.8565 2 15.637 2.7375 16.9497 4.05025C18.2625 5.36301 19 7.14349 19 9C19 11.4073 17.8026 12.8736 16.8141 14.0841C16.8009 14.1002 16.7878 14.1163 16.7747 14.1324C15.7705 15.3625 15 16.3394 15 18C15 18.5523 14.5523 19 14 19H10C9.44772 19 9 18.5523 9 18C9 16.3878 8.2294 15.3875 7.21913 14.1247C7.20432 14.1062 7.18945 14.0876 7.17453 14.069C6.19287 12.8424 5 11.352 5 9C5 7.14348 5.7375 5.36301 7.05025 4.05025ZM12 4C10.6739 4 9.40215 4.52678 8.46447 5.46447C7.52678 6.40215 7 7.67392 7 9C7 10.6122 7.7706 11.6125 8.78087 12.8753C8.79568 12.8938 8.81055 12.9124 8.82547 12.931C9.66024 13.974 10.6477 15.2078 10.9246 17H13.0727C13.3465 15.1684 14.3423 13.949 15.1859 12.9159C15.1991 12.8998 15.2122 12.8837 15.2253 12.8676C16.2295 11.6375 17 10.6606 17 9C17 7.67392 16.4732 6.40215 15.5355 5.46447C14.5979 4.52678 13.3261 4 12 4ZM12 7C11.4696 7 10.9609 7.21071 10.5858 7.58579C10.2107 7.96086 10 8.46957 10 9C10 9.55228 9.55228 10 9 10C8.44772 10 8 9.55228 8 9C8 7.93913 8.42143 6.92172 9.17157 6.17157C9.92172 5.42143 10.9391 5 12 5C12.5523 5 13 5.44772 13 6C13 6.55228 12.5523 7 12 7ZM9 21C9 20.4477 9.44772 20 10 20H14C14.5523 20 15 20.4477 15 21C15 21.5523 14.5523 22 14 22H10C9.44772 22 9 21.5523 9 21Z" fill="#101828"/>
</svg>
