<svg width="24" height="24" viewBox="0 0 24 24" fill="none" xmlns="http://www.w3.org/2000/svg">
<path fill-rule="evenodd" clip-rule="evenodd" d="M14.0429 5.6645L13.0208 6.61975C12.6173 6.99685 11.9845 6.97545 11.6074 6.57195C11.2303 6.16844 11.2517 5.53564 11.6552 5.15854L12.6883 4.19299L12.6937 4.18815C13.2037 3.72503 14.0724 3.17011 15.1597 3.00541C16.2947 2.83349 17.5864 3.10221 18.8168 4.17469L18.8426 4.19721L18.8669 4.22144C19.6902 5.04483 20.1527 6.16153 20.1527 7.32593C20.1527 8.49029 19.6902 9.60697 18.8669 10.4303C18.8669 10.4304 18.867 10.4303 18.8669 10.4303L15.4426 13.8556C14.6192 14.6789 13.5024 15.1416 12.338 15.1416C11.1736 15.1416 10.0569 14.6791 9.23348 13.8558C8.84293 13.4653 8.84291 12.8321 9.23341 12.4415C9.62392 12.051 10.2571 12.051 10.6476 12.4415C11.0959 12.8898 11.704 13.1416 12.338 13.1416C12.9719 13.1416 13.5799 12.8898 14.0282 12.4416L17.4525 9.01633C17.9008 8.56801 18.1527 7.95992 18.1527 7.32593C18.1527 6.70299 17.9096 6.10511 17.4759 5.65918C16.7002 4.99459 16.0086 4.89964 15.4592 4.98286C14.8591 5.07376 14.3417 5.39486 14.0429 5.6645ZM7.94682 8.78031C8.77021 7.957 9.88693 7.49447 11.0513 7.49447C12.2157 7.49447 13.3324 7.957 14.1558 8.78031C14.5464 9.17082 14.5464 9.80398 14.1559 10.1945C13.7654 10.5851 13.1322 10.5851 12.7417 10.1946C12.2933 9.74631 11.6853 9.49447 11.0513 9.49447C10.4174 9.49447 9.80941 9.74626 9.3611 10.1945L5.93676 13.6197C5.48848 14.0681 5.23657 14.6762 5.23657 15.3101C5.23657 15.9331 5.47971 16.531 5.91344 16.9769C6.68906 17.6415 7.38068 17.7364 7.93005 17.6532C8.53019 17.5623 9.04763 17.2412 9.34638 16.9716L10.3685 16.0163C10.772 15.6392 11.4048 15.6606 11.7819 16.0641C12.159 16.4676 12.1376 17.1004 11.7341 17.4775L10.701 18.4431L10.6956 18.4479C10.1855 18.911 9.31686 19.466 8.22958 19.6307C7.09457 19.8026 5.8029 19.5339 4.57249 18.4614L4.54666 18.4389L4.52243 18.4146C3.6991 17.5912 3.23657 16.4745 3.23657 15.3101C3.23657 14.1458 3.69908 13.0291 4.52236 12.2057C4.52233 12.2057 4.52238 12.2057 4.52236 12.2057L7.94682 8.78031Z" fill="#101828"/>
</svg>
