<svg width="24" height="24" viewBox="0 0 24 24" fill="none" xmlns="http://www.w3.org/2000/svg">
<path fill-rule="evenodd" clip-rule="evenodd" d="M14.1222 5.71022L13.0702 6.66661C12.6549 7.04416 12.0036 7.02273 11.6155 6.61875C11.2274 6.21476 11.2494 5.5812 11.6647 5.20365L12.728 4.23695L12.7335 4.2321C13.2585 3.76843 14.1526 3.21284 15.2717 3.04795C16.4399 2.87582 17.7693 3.14486 19.0357 4.21863L19.0623 4.24117L19.0872 4.26543C19.9346 5.0898 20.4106 6.20785 20.4106 7.37363C20.4106 8.53939 19.9346 9.6574 19.0873 10.4818C19.0872 10.4818 19.0873 10.4817 19.0873 10.4818L15.5628 13.9111C14.7154 14.7354 13.5659 15.1987 12.3674 15.1987C11.169 15.1987 10.0197 14.7356 9.1722 13.9113C8.77024 13.5203 8.77021 12.8864 9.17214 12.4954C9.57406 12.1044 10.2257 12.1043 10.6277 12.4953C11.0891 12.9441 11.7149 13.1963 12.3674 13.1963C13.0199 13.1963 13.6457 12.9442 14.1071 12.4954L17.6315 9.06605C18.0929 8.6172 18.3522 8.00838 18.3522 7.37363C18.3522 6.74995 18.1019 6.15136 17.6555 5.70489C16.8572 5.03951 16.1454 4.94445 15.58 5.02776C14.9623 5.11878 14.4297 5.44025 14.1222 5.71022ZM7.84794 8.82976C8.69539 8.00545 9.84475 7.54237 11.0432 7.54237C12.2416 7.54237 13.391 8.00546 14.2384 8.82976C14.6404 9.22073 14.6404 9.85465 14.2385 10.2457C13.8366 10.6367 13.1849 10.6367 12.7829 10.2457C12.3215 9.79691 11.6957 9.54477 11.0432 9.54477C10.3907 9.54477 9.76497 9.79686 9.30356 10.2456L5.77912 13.675C5.31773 14.1238 5.05846 14.7326 5.05846 15.3674C5.05846 15.9911 5.30871 16.5897 5.75511 17.0361C6.55341 17.7015 7.26525 17.7966 7.83067 17.7133C8.44835 17.6223 8.98092 17.3008 9.2884 17.0308L10.3404 16.0744C10.7557 15.6969 11.407 15.7183 11.7951 16.1223C12.1833 16.5263 12.1612 17.1598 11.7459 17.5374L10.6826 18.5041L10.6771 18.5089C10.1521 18.9726 9.25802 19.5282 8.13896 19.6931C6.97077 19.8652 5.64134 19.5962 4.37496 18.5224L4.34838 18.4999L4.32344 18.4756C3.47605 17.6512 3 16.5332 3 15.3674C3 14.2016 3.47603 13.0836 4.32337 12.2593C4.32334 12.2593 4.32339 12.2592 4.32337 12.2593L7.84794 8.82976ZM15.5659 15.714C15.9679 15.323 16.6195 15.323 17.0215 15.7139L18.1323 16.7945L19.243 15.714C19.6449 15.323 20.2966 15.323 20.6986 15.714C21.1005 16.105 21.1005 16.7389 20.6985 17.1299L19.5878 18.2104L20.6985 19.2908C21.1005 19.6818 21.1005 20.3157 20.6986 20.7067C20.2966 21.0977 19.6449 21.0977 19.243 20.7067L18.1323 19.6262L17.0215 20.7068C16.6195 21.0978 15.9679 21.0977 15.5659 20.7067C15.164 20.3158 15.164 19.6818 15.5659 19.2908L16.6767 18.2104L15.5659 17.1299C15.164 16.7389 15.164 16.105 15.5659 15.714Z" fill="currentColor"/>
</svg>
