<svg width="24" height="24" viewBox="0 0 24 24" fill="none" xmlns="http://www.w3.org/2000/svg">
<path fill-rule="evenodd" clip-rule="evenodd" d="M12 5C10.8954 5 10 5.89543 10 7V10H14V7C14 5.89543 13.1046 5 12 5ZM16 10V7C16 4.79086 14.2091 3 12 3C9.79086 3 8 4.79086 8 7V10H7C5.89543 10 5 10.8954 5 12V19C5 20.1046 5.89543 21 7 21H17C18.1046 21 19 20.1046 19 19V12C19 10.8954 18.1046 10 17 10H16ZM7 12V19H17V12H7ZM12 13C12.5523 13 13 13.4477 13 14V17C13 17.5523 12.5523 18 12 18C11.4477 18 11 17.5523 11 17V14C11 13.4477 11.4477 13 12 13Z" fill="currentColor"/>
</svg>
