<svg width="24" height="24" viewBox="0 0 24 24" fill="none" xmlns="http://www.w3.org/2000/svg">
<path fill-rule="evenodd" clip-rule="evenodd" d="M10 5C8.89543 5 8 5.89543 8 7V10H9.5C10.0523 10 10.5 10.4477 10.5 11C10.5 11.5523 10.0523 12 9.5 12H5V19H9.5C10.0523 19 10.5 19.4477 10.5 20C10.5 20.5523 10.0523 21 9.5 21H5C3.89543 21 3 20.1046 3 19V12C3 10.8954 3.89543 10 5 10H6V7C6 4.79086 7.79086 3 10 3C12.2091 3 14 4.79086 14 7V8.5C14 9.05228 13.5523 9.5 13 9.5C12.4477 9.5 12 9.05228 12 8.5V7C12 5.89543 11.1046 5 10 5ZM15.5 12C13.567 12 12 13.567 12 15.5C12 17.433 13.567 19 15.5 19C17.433 19 19 17.433 19 15.5C19 13.567 17.433 12 15.5 12ZM10 15.5C10 12.4624 12.4624 10 15.5 10C18.5376 10 21 12.4624 21 15.5C21 18.5376 18.5376 21 15.5 21C12.4624 21 10 18.5376 10 15.5ZM15.5 13C16.0523 13 16.5 13.4477 16.5 14V15.0858L17.2071 15.7929C17.5976 16.1834 17.5976 16.8166 17.2071 17.2071C16.8166 17.5976 16.1834 17.5976 15.7929 17.2071L14.7929 16.2071C14.6054 16.0196 14.5 15.7652 14.5 15.5V14C14.5 13.4477 14.9477 13 15.5 13Z" fill="currentColor"/>
</svg>
