<svg width="24" height="24" viewBox="0 0 24 24" fill="none" xmlns="http://www.w3.org/2000/svg">
<path fill-rule="evenodd" clip-rule="evenodd" d="M17 5C15.8954 5 15 5.89543 15 7V10C16.1046 10 17 10.8954 17 12V19C17 20.1046 16.1046 21 15 21H5C3.89543 21 3 20.1046 3 19V12C3 10.8954 3.89543 10 5 10H13V7C13 4.79086 14.7909 3 17 3C19.2091 3 21 4.79086 21 7V11C21 11.5523 20.5523 12 20 12C19.4477 12 19 11.5523 19 11V7C19 5.89543 18.1046 5 17 5ZM5 12V19H15V12H5ZM10 13C10.5523 13 11 13.4477 11 14V17C11 17.5523 10.5523 18 10 18C9.44772 18 9 17.5523 9 17V14C9 13.4477 9.44772 13 10 13Z" fill="#101828"/>
</svg>
