<svg width="24" height="24" viewBox="0 0 24 24" fill="none" xmlns="http://www.w3.org/2000/svg">
<path fill-rule="evenodd" clip-rule="evenodd" d="M13 4C13 3.44772 13.4477 3 14 3H16.5C17.0523 3 17.5 3.44772 17.5 4C17.5 4.55228 17.0523 5 16.5 5H15V10C15 10.5523 14.5523 11 14 11C13.4477 11 13 10.5523 13 10V8H11.2422C11.7209 8.71505 12 9.57493 12 10.5V15H19V10C19 8.89543 18.1046 8 17 8C16.4477 8 16 7.55228 16 7C16 6.44772 16.4477 6 17 6C19.2091 6 21 7.79086 21 10V16C21 16.5523 20.5523 17 20 17H16V20C16 20.5523 15.5523 21 15 21C14.4477 21 14 20.5523 14 20V17H12V20C12 20.5523 11.5523 21 11 21C10.4477 21 10 20.5523 10 20V17H4C3.44772 17 3 16.5523 3 16V10.5C3 8.01472 5.01472 6 7.5 6H13V4ZM10 15V10.5C10 9.11929 8.88071 8 7.5 8C6.11929 8 5 9.11929 5 10.5V15H10ZM6 13.5C6 12.9477 6.44772 12.5 7 12.5H8C8.55228 12.5 9 12.9477 9 13.5C9 14.0523 8.55228 14.5 8 14.5H7C6.44772 14.5 6 14.0523 6 13.5Z" fill="currentColor"/>
</svg>
