<svg width="24" height="24" viewBox="0 0 24 24" fill="none" xmlns="http://www.w3.org/2000/svg">
<path fill-rule="evenodd" clip-rule="evenodd" d="M11.906 1.99361C13.3697 1.97523 14.8103 2.35878 16.0711 3.10251C17.3319 3.84623 18.3645 4.92162 19.0564 6.21157C19.7483 7.50152 20.073 8.95658 19.9952 10.4183C19.92 11.8297 19.4724 13.1951 18.699 14.376C18.6637 14.4484 18.6193 14.5172 18.5661 14.5806L18.4583 14.7092C18.2803 14.9528 18.0888 15.1863 17.8847 15.4086L12.7728 21.6346C12.583 21.8657 12.2997 21.9998 12.0006 22C11.7015 22.0002 11.4181 21.8665 11.228 21.6356L5.98171 15.2642C5.98107 15.2634 5.98043 15.2627 5.9798 15.2619C5.87593 15.1372 5.77305 15.0097 5.67131 14.8806L5.53739 14.7182C5.48577 14.6556 5.44269 14.5879 5.40836 14.5168C4.61625 13.3615 4.14074 12.0174 4.03099 10.6188C3.91648 9.15952 4.20454 7.69677 4.86383 6.38984C5.52311 5.08292 6.52833 3.98194 7.77003 3.20678C9.01173 2.43162 10.4423 2.012 11.906 1.99361ZM7.18665 13.5746L7.22147 13.6168L7.23561 13.6344C7.33094 13.7554 7.42507 13.8721 7.51815 13.9838L7.52192 13.9883L7.52191 13.9884L11.9988 19.4255L16.3571 14.1174C16.3695 14.1022 16.3825 14.0874 16.3958 14.073C16.5617 13.8937 16.7166 13.7045 16.8599 13.5067C16.8738 13.4874 16.8884 13.4686 16.9037 13.4504L16.9459 13.4001C16.9514 13.3915 16.9571 13.3829 16.9629 13.3744C17.5816 12.4675 17.9396 11.4083 17.998 10.312C18.0564 9.21568 17.8128 8.12438 17.2939 7.15692C16.775 6.18946 16.0005 5.38292 15.055 4.82513C14.1094 4.26733 13.0289 3.97967 11.9311 3.99345C10.8334 4.00724 9.76042 4.32196 8.82914 4.90333C7.89787 5.4847 7.14395 6.31044 6.64949 7.29063C6.15503 8.27082 5.93898 9.36789 6.02486 10.4624C6.11075 11.5569 6.49528 12.6068 7.13658 13.4979C7.15454 13.5228 7.17124 13.5484 7.18665 13.5746ZM11.9999 8C10.8954 8 9.99993 8.89543 9.99993 10C9.99993 11.1046 10.8954 12 11.9999 12C13.1045 12 13.9999 11.1046 13.9999 10C13.9999 8.89543 13.1045 8 11.9999 8ZM7.99993 10C7.99993 7.79086 9.79079 6 11.9999 6C14.2091 6 15.9999 7.79086 15.9999 10C15.9999 12.2091 14.2091 14 11.9999 14C9.79079 14 7.99993 12.2091 7.99993 10Z" fill="#101828"/>
</svg>
