<svg width="24" height="24" viewBox="0 0 24 24" fill="none" xmlns="http://www.w3.org/2000/svg">
<path fill-rule="evenodd" clip-rule="evenodd" d="M9.99999 6L9.99999 18L14 18L14 6L9.99999 6ZM8.99999 4L15 4C15.2652 4 15.5196 4.10536 15.7071 4.29289C15.8946 4.48043 16 4.73478 16 5V11H18.5857L17.7974 10.2117C17.4069 9.82116 17.4069 9.18799 17.7974 8.79747C18.188 8.40694 18.8211 8.40694 19.2116 8.79747L21.7071 11.2929C22.0976 11.6834 22.0976 12.3166 21.7071 12.7071L19.2116 15.2025C18.8211 15.5931 18.188 15.5931 17.7974 15.2025C17.4069 14.812 17.4069 14.1788 17.7974 13.7883L18.5857 13H16V19C16 19.2652 15.8946 19.5196 15.7071 19.7071C15.5196 19.8946 15.2652 20 15 20H8.99999C8.4477 20 7.99999 19.5523 7.99999 19V13H5.41421L6.26103 13.8468C6.65155 14.2373 6.65155 14.8705 6.26103 15.261C5.8705 15.6516 5.23734 15.6516 4.84681 15.261L2.29289 12.7071C2.10536 12.5196 2 12.2652 2 12C2 11.7348 2.10536 11.4804 2.29289 11.2929L4.84681 8.73897C5.23734 8.34845 5.8705 8.34845 6.26103 8.73897C6.65155 9.1295 6.65155 9.76266 6.26103 10.1532L5.41421 11H7.99999V5C7.99999 4.44772 8.4477 4 8.99999 4Z" fill="currentColor"/>
</svg>
