<svg width="24" height="24" viewBox="0 0 24 24" fill="none" xmlns="http://www.w3.org/2000/svg">
<path fill-rule="evenodd" clip-rule="evenodd" d="M3.29289 3.29289C3.48043 3.10536 3.73478 3 4 3L10 3C10.5523 3 11 3.44772 11 4V6C11 6.55229 10.5523 7 10 7C9.44772 7 9 6.55229 9 6V5L5 5L5 11H7.58579L6.79747 10.2117C6.40694 9.82116 6.40694 9.18799 6.79747 8.79747C7.18799 8.40694 7.82116 8.40694 8.21168 8.79747L10.7071 11.2929C10.8946 11.4804 11 11.7348 11 12C11 12.2652 10.8946 12.5196 10.7071 12.7071L8.21168 15.2025C7.82116 15.5931 7.18799 15.5931 6.79747 15.2025C6.40694 14.812 6.40694 14.1788 6.79747 13.7883L7.58579 13H5L5 19L9 19V18C9 17.4477 9.44772 17 10 17C10.5523 17 11 17.4477 11 18V20C11 20.2652 10.8946 20.5196 10.7071 20.7071C10.5196 20.8946 10.2652 21 10 21L4 21C3.44772 21 3 20.5523 3 20L3 4C3 3.73478 3.10536 3.48043 3.29289 3.29289ZM14 3L20 3C20.2652 3 20.5196 3.10536 20.7071 3.29289C20.8946 3.48043 21 3.73478 21 4V20C21 20.5523 20.5523 21 20 21L14 21C13.7348 21 13.4804 20.8946 13.2929 20.7071C13.1054 20.5196 13 20.2652 13 20V18C13 17.4477 13.4477 17 14 17C14.5523 17 15 17.4477 15 18V19L19 19V13H16.4142L17.261 13.8468C17.6515 14.2373 17.6515 14.8705 17.261 15.261C16.8705 15.6516 16.2373 15.6516 15.8468 15.261L13.2929 12.7071C13.1054 12.5196 13 12.2652 13 12C13 11.7348 13.1054 11.4804 13.2929 11.2929L15.8468 8.73897C16.2373 8.34845 16.8705 8.34845 17.261 8.73897C17.6515 9.1295 17.6515 9.76266 17.261 10.1532L16.4142 11H19V5L15 5V6C15 6.55229 14.5523 7 14 7C13.4477 7 13 6.55229 13 6V4C13 3.44772 13.4477 3 14 3Z" fill="currentColor"/>
</svg>
