<svg width="24" height="24" viewBox="0 0 24 24" fill="none" xmlns="http://www.w3.org/2000/svg">
<path fill-rule="evenodd" clip-rule="evenodd" d="M3 6C3 4.89543 3.89543 4 5 4H19C20.1046 4 21 4.89543 21 6V15C21 16.1046 20.1046 17 19 17L12.3837 17L9.50345 19.5923C8.53816 20.461 7 19.776 7 18.4773V17H5C3.89543 17 3 16.1046 3 15V6ZM19 6L5 6V15H7C8.10457 15 9 15.8954 9 17V17.3546L11.0458 15.5134C11.4131 15.1829 11.8897 15 12.3837 15H19V6ZM6 9C6 8.44772 6.44772 8 7 8H12C12.5523 8 13 8.44772 13 9C13 9.55228 12.5523 10 12 10H7C6.44772 10 6 9.55228 6 9ZM14 9C14 8.44772 14.4477 8 15 8H17C17.5523 8 18 8.44772 18 9C18 9.55228 17.5523 10 17 10H15C14.4477 10 14 9.55228 14 9ZM6 12C6 11.4477 6.44772 11 7 11H9C9.55228 11 10 11.4477 10 12C10 12.5523 9.55228 13 9 13H7C6.44772 13 6 12.5523 6 12ZM11 12C11 11.4477 11.4477 11 12 11H17C17.5523 11 18 11.4477 18 12C18 12.5523 17.5523 13 17 13H12C11.4477 13 11 12.5523 11 12Z" fill="currentColor"/>
</svg>
