<svg width="24" height="24" viewBox="0 0 24 24" fill="none" xmlns="http://www.w3.org/2000/svg">
<path fill-rule="evenodd" clip-rule="evenodd" d="M3 4C3 3.44772 3.44772 3 4 3H15C15.5523 3 16 3.44772 16 4V12C16 12.5523 15.5523 13 15 13H9.41421L6.70711 15.7071C6.42111 15.9931 5.99099 16.0787 5.61732 15.9239C5.24364 15.7691 5 15.4045 5 15V13H4C3.44772 13 3 12.5523 3 12V4ZM5 11H6C6.55228 11 7 11.4477 7 12V12.5858L8.29289 11.2929C8.48043 11.1054 8.73478 11 9 11H14V5H5V11ZM17 9C17 8.44772 17.4477 8 18 8H20C20.5523 8 21 8.44772 21 9V17C21 17.5523 20.5523 18 20 18H19V20C19 20.4045 18.7564 20.7691 18.3827 20.9239C18.009 21.0787 17.5789 20.9931 17.2929 20.7071L14.5858 18H9C8.44772 18 8 17.5523 8 17C8 16.4477 8.44772 16 9 16H15C15.2652 16 15.5196 16.1054 15.7071 16.2929L17 17.5858V17C17 16.4477 17.4477 16 18 16H19V10H18C17.4477 10 17 9.55228 17 9Z" fill="currentColor"/>
</svg>
