<svg width="24" height="24" viewBox="0 0 24 24" fill="none" xmlns="http://www.w3.org/2000/svg">
<path fill-rule="evenodd" clip-rule="evenodd" d="M3 6C3 4.89543 3.89543 4 5 4H19C20.1046 4 21 4.89543 21 6V15C21 16.1046 20.1046 17 19 17L12.3993 17L9.53312 19.7228C8.57765 20.6305 7 19.9532 7 18.6353V17H5C3.89543 17 3 16.1046 3 15V6ZM19 6L5 6V15H7C8.10457 15 9 15.8954 9 17V17.4707L11.0218 15.55L11.7105 16.275L11.0218 15.55C11.3935 15.1969 11.8866 15 12.3993 15H19V6ZM7 10.5C7 9.94772 7.44772 9.5 8 9.5H8.01C8.56228 9.5 9.01 9.94772 9.01 10.5C9.01 11.0523 8.56228 11.5 8.01 11.5H8C7.44772 11.5 7 11.0523 7 10.5ZM11 10.5C11 9.94772 11.4477 9.5 12 9.5H12.01C12.5623 9.5 13.01 9.94772 13.01 10.5C13.01 11.0523 12.5623 11.5 12.01 11.5H12C11.4477 11.5 11 11.0523 11 10.5ZM15 10.5C15 9.94772 15.4477 9.5 16 9.5H16.01C16.5623 9.5 17.01 9.94772 17.01 10.5C17.01 11.0523 16.5623 11.5 16.01 11.5H16C15.4477 11.5 15 11.0523 15 10.5Z" fill="#101828"/>
</svg>
