<svg width="24" height="24" viewBox="0 0 24 24" fill="none" xmlns="http://www.w3.org/2000/svg">
<path fill-rule="evenodd" clip-rule="evenodd" d="M3 5C3 3.89543 3.89543 3 5 3H15C16.1046 3 17 3.89543 17 5V19H19V8C18.4477 8 18 7.55228 18 7C18 6.44772 18.4477 6 19 6H20C20.5523 6 21 6.44772 21 7V19C21 20.1046 20.1046 21 19 21H17C16.9003 21 16.8024 20.9927 16.7066 20.9786C16.6399 20.9926 16.5708 21 16.5 21H5C3.89543 21 3 20.1046 3 19V5ZM15 19V5H5V19H15ZM6 7C6 6.44772 6.44772 6 7 6H10C10.5523 6 11 6.44772 11 7V10C11 10.5523 10.5523 11 10 11H7C6.44772 11 6 10.5523 6 10V7ZM8 8V9H9V8H8ZM12 7C12 6.44772 12.4477 6 13 6H13.5C14.0523 6 14.5 6.44772 14.5 7C14.5 7.55228 14.0523 8 13.5 8H13C12.4477 8 12 7.55228 12 7ZM12 10C12 9.44772 12.4477 9 13 9H13.5C14.0523 9 14.5 9.44772 14.5 10C14.5 10.5523 14.0523 11 13.5 11H13C12.4477 11 12 10.5523 12 10ZM6 14C6 13.4477 6.44772 13 7 13H13C13.5523 13 14 13.4477 14 14C14 14.5523 13.5523 15 13 15H7C6.44772 15 6 14.5523 6 14ZM6 17C6 16.4477 6.44772 16 7 16H13C13.5523 16 14 16.4477 14 17C14 17.5523 13.5523 18 13 18H7C6.44772 18 6 17.5523 6 17Z" fill="#101828"/>
</svg>
