<svg width="24" height="24" viewBox="0 0 24 24" fill="none" xmlns="http://www.w3.org/2000/svg">
<path fill-rule="evenodd" clip-rule="evenodd" d="M19 5L15 5V11H19L19 5ZM15 3L19 3C20.1046 3 21 3.89543 21 5L21 11C21 12.1046 20.1046 13 19 13H15C13.8954 13 13 12.1046 13 11V5C13 3.89543 13.8954 3 15 3ZM3 5C3 3.89543 3.89543 3 5 3H9C10.1046 3 11 3.89543 11 5V7C11 8.10457 10.1046 9 9 9H5C3.89543 9 3 8.10457 3 7V5ZM9 5H5V7H9V5ZM3 13C3 11.8954 3.89543 11 5 11H9C10.1046 11 11 11.8954 11 13V19C11 20.1046 10.1046 21 9 21H5C3.89543 21 3 20.1046 3 19V13ZM9 13H5V19H9V13ZM19 17L15 17V19H19V17ZM15 15L19 15C20.1046 15 21 15.8954 21 17V19C21 20.1046 20.1046 21 19 21L15 21C13.8954 21 13 20.1046 13 19V17C13 15.8954 13.8954 15 15 15Z" fill="currentColor"/>
</svg>
