<svg width="24" height="24" viewBox="0 0 24 24" fill="none" xmlns="http://www.w3.org/2000/svg">
<path fill-rule="evenodd" clip-rule="evenodd" d="M13.6022 3.20166C13.8527 3.39062 14 3.68622 14 4.00001V5.00001H18C18.5523 5.00001 19 5.44772 19 6.00001V17H20C20.5523 17 21 17.4477 21 18C21 18.5523 20.5523 19 20 19H14V20C14 20.3138 13.8527 20.6094 13.6022 20.7984C13.3517 20.9873 13.027 21.0477 12.7253 20.9615L5.85994 19H4C3.44772 19 3 18.5523 3 18C3 17.4477 3.44772 17 4 17H5V6.00001C5 5.55353 5.29598 5.16114 5.72528 5.03848L12.7253 3.03848C13.027 2.95228 13.3517 3.0127 13.6022 3.20166ZM7.22335 17.3095C7.15783 17.2409 7.08266 17.1816 7 17.1338V6.75431L12 5.32574V18.6743L7.22335 17.3095ZM14 17H17V7.00001H14V17ZM10 11C10.5523 11 11 11.4477 11 12V12.5C11 13.0523 10.5523 13.5 10 13.5C9.44772 13.5 9 13.0523 9 12.5V12C9 11.4477 9.44772 11 10 11Z" fill="#101828"/>
</svg>
