<svg width="24" height="24" viewBox="0 0 24 24" fill="none" xmlns="http://www.w3.org/2000/svg">
<path fill-rule="evenodd" clip-rule="evenodd" d="M8.6484 2.56991C10.0455 2.07322 11.5356 1.89344 13.0108 2.0436C14.4859 2.19375 15.9092 2.67008 17.1776 3.43809C18.446 4.2061 19.5277 5.24657 20.3445 6.48416C21.1612 7.72175 21.6925 9.12547 21.8998 10.5937C22.1072 12.0619 21.9855 13.5578 21.5435 14.9732C21.5408 14.9816 21.5381 14.99 21.5353 14.9983C21.3333 15.5896 20.9493 16.1019 20.4382 16.4615C19.9295 16.8194 19.3209 17.0079 18.6991 17.0001H16.0088C15.8719 17.003 15.7369 17.0332 15.6116 17.0887C15.4845 17.1452 15.37 17.2267 15.275 17.3284C15.1801 17.4301 15.1067 17.5499 15.0592 17.6807C15.0116 17.8115 14.991 17.9505 14.9985 18.0894C14.9994 18.1073 14.9999 18.1252 14.9999 18.1431V19.006C14.9976 19.4025 14.917 19.7945 14.7628 20.1598C14.6086 20.525 14.3838 20.8562 14.1013 21.1343C13.8188 21.4125 13.4842 21.6321 13.1167 21.7807C12.7491 21.9293 12.3559 22.0038 11.9595 22.0001L11.9689 21.0001L11.9612 22.0001C11.9606 22.0001 11.96 22.0001 11.9595 22.0001C10.5033 21.9885 9.06871 21.6466 7.76392 21.0001C7.76691 21.0015 7.7699 21.0029 7.77289 21.0044L8.19992 20.1001L7.75503 20.9957C7.75799 20.9972 7.76095 20.9986 7.76392 21.0001C6.21049 20.2646 4.87039 19.1449 3.87052 17.7468C2.86873 16.346 2.24176 14.7123 2.04919 13.0009L2.04782 12.9888C1.90005 11.5134 2.08231 10.0236 2.58126 8.62725C3.0802 7.23093 3.88343 5.96305 4.93276 4.91541C5.9821 3.86777 7.25128 3.0666 8.6484 2.56991ZM12.8082 4.03331C11.6281 3.91319 10.436 4.05701 9.31834 4.45436C8.20064 4.85172 7.1853 5.49265 6.34583 6.33076C5.50636 7.16888 4.86379 8.18318 4.46463 9.30024C4.06615 10.4154 3.92022 11.605 4.03733 12.7834C4.19257 14.1536 4.69509 15.4616 5.49732 16.5834C6.30074 17.7068 7.37807 18.6061 8.62694 19.1959L8.64481 19.2045C9.68067 19.7191 10.8201 19.9912 11.9767 20.0001L11.9784 20.0002C12.1116 20.0014 12.2437 19.9764 12.3672 19.9265C12.4907 19.8765 12.6031 19.8027 12.698 19.7093C12.7929 19.6158 12.8685 19.5045 12.9203 19.3818C12.9718 19.2599 12.9988 19.129 12.9999 18.9966V18.1673C12.9824 17.7695 13.0434 17.372 13.1795 16.9976C13.3189 16.6139 13.5343 16.2623 13.8129 15.9638C14.0914 15.6653 14.4274 15.4262 14.8005 15.2606C15.1737 15.095 15.5764 15.0065 15.9846 15.0002L15.9999 15.0001H18.7059L18.7213 15.0002C18.9236 15.0033 19.1218 14.9423 19.2873 14.8258C19.4497 14.7115 19.5726 14.5496 19.6389 14.3626C19.9888 13.2345 20.0847 12.043 19.9195 10.8734C19.7536 9.69881 19.3286 8.57583 18.6752 7.58577C18.0218 6.5957 17.1564 5.76332 16.1417 5.14891C15.127 4.5345 13.9884 4.15344 12.8082 4.03331ZM10.9999 7C10.9999 6.44772 11.4477 6 11.9999 6H12.0099C12.5622 6 13.0099 6.44772 13.0099 7C13.0099 7.55228 12.5622 8 12.0099 8H11.9999C11.4477 8 10.9999 7.55228 10.9999 7ZM7.52837 8.51262C7.52837 7.96034 7.97608 7.51262 8.52837 7.51262H8.53837C9.09065 7.51262 9.53837 7.96034 9.53837 8.51262C9.53837 9.06491 9.09065 9.51262 8.53837 9.51262H8.52837C7.97608 9.51262 7.52837 9.06491 7.52837 8.51262ZM14.4966 8.51262C14.4966 7.96034 14.9443 7.51262 15.4966 7.51262H15.5066C16.0589 7.51262 16.5066 7.96034 16.5066 8.51262C16.5066 9.06491 16.0589 9.51262 15.5066 9.51262H15.4966C14.9443 9.51262 14.4966 9.06491 14.4966 8.51262ZM5.98994 12.0001C5.98994 11.4478 6.43766 11.0001 6.98994 11.0001H6.99994C7.55223 11.0001 7.99994 11.4478 7.99994 12.0001C7.99994 12.5524 7.55223 13.0001 6.99994 13.0001H6.98994C6.43766 13.0001 5.98994 12.5524 5.98994 12.0001Z" fill="#101828"/>
</svg>
