<svg width="24" height="24" viewBox="0 0 24 24" fill="none" xmlns="http://www.w3.org/2000/svg">
<path fill-rule="evenodd" clip-rule="evenodd" d="M10.318 3.31802C11.1619 2.47411 12.3065 2 13.5 2C14.6935 2 15.8381 2.47411 16.682 3.31802C17.5259 4.16193 18 5.30653 18 6.5V16C18 17.5913 17.3679 19.1174 16.2426 20.2426C15.1174 21.3679 13.5913 22 12 22C10.4087 22 8.88258 21.3679 7.75736 20.2426C6.63214 19.1174 6 17.5913 6 16V8C6 7.44772 6.44772 7 7 7C7.55228 7 8 7.44772 8 8V16C8 17.0609 8.42143 18.0783 9.17157 18.8284C9.92172 19.5786 10.9391 20 12 20C13.0609 20 14.0783 19.5786 14.8284 18.8284C15.5786 18.0783 16 17.0609 16 16V6.5C16 5.83696 15.7366 5.20107 15.2678 4.73223C14.7989 4.26339 14.163 4 13.5 4C12.837 4 12.2011 4.26339 11.7322 4.73223C11.2634 5.20107 11 5.83696 11 6.5V15C11 15.2652 11.1054 15.5196 11.2929 15.7071C11.4804 15.8946 11.7348 16 12 16C12.2652 16 12.5196 15.8946 12.7071 15.7071C12.8946 15.5196 13 15.2652 13 15V8C13 7.44772 13.4477 7 14 7C14.5523 7 15 7.44772 15 8V15C15 15.7957 14.6839 16.5587 14.1213 17.1213C13.5587 17.6839 12.7957 18 12 18C11.2043 18 10.4413 17.6839 9.87868 17.1213C9.31607 16.5587 9 15.7957 9 15V6.5C9 5.30653 9.47411 4.16193 10.318 3.31802Z" fill="currentColor"/>
</svg>
