<svg width="24" height="24" viewBox="0 0 24 24" fill="none" xmlns="http://www.w3.org/2000/svg">
<path fill-rule="evenodd" clip-rule="evenodd" d="M22 12C22 12.4124 21.7468 12.7826 21.3624 12.932L3.36245 19.932C2.98712 20.078 2.56085 19.9846 2.28098 19.695C2.0011 19.4055 1.92222 18.9763 2.08085 18.6061L4.91203 12L2.08085 5.39395C1.92222 5.0238 2.0011 4.59461 2.28098 4.30505C2.56085 4.01549 2.98712 3.92207 3.36245 4.06803L21.3624 11.068C21.7468 11.2175 22 11.5876 22 12ZM6.6594 13L4.85737 17.2048L18.241 12L4.85737 6.7953L6.6594 11H11C11.5523 11 12 11.4477 12 12C12 12.5523 11.5523 13 11 13L6.6594 13Z" fill="#101828"/>
</svg>
