<svg width="24" height="24" viewBox="0 0 24 24" fill="none" xmlns="http://www.w3.org/2000/svg">
<path fill-rule="evenodd" clip-rule="evenodd" d="M12 2C12.4124 2 12.7825 2.25318 12.932 2.63755L19.932 20.6376C20.0779 21.0129 19.9845 21.4391 19.695 21.719C19.4054 21.9989 18.9762 22.0778 18.6061 21.9191L12 19.088L5.39389 21.9191C5.02374 22.0778 4.59455 21.9989 4.30499 21.719C4.01543 21.4391 3.92201 21.0129 4.06797 20.6376L11.068 2.63755C11.2174 2.25318 11.5876 2 12 2ZM13 17.3406L17.2047 19.1426L12 5.75903L6.79524 19.1426L11 17.3406V13C11 12.4477 11.4477 12 12 12C12.5523 12 13 12.4477 13 13V17.3406Z" fill="currentColor"/>
</svg>
