<svg width="24" height="24" viewBox="0 0 24 24" fill="none" xmlns="http://www.w3.org/2000/svg">
<path fill-rule="evenodd" clip-rule="evenodd" d="M14.8065 3C15.0718 3 15.3261 3.10536 15.5137 3.2929L20.7071 8.48644C21.0977 8.87696 21.0977 9.51012 20.7071 9.90064L18.0975 12.5103C17.91 12.6978 17.6556 12.8032 17.3904 12.8032C17.3612 12.8032 17.3322 12.8019 17.3034 12.7994L15.7289 16.9966C15.6251 17.2732 15.4044 17.4898 15.1258 17.5883L5.63182 20.9429C5.26859 21.0712 4.86395 20.9795 4.59155 20.7071L3.29292 19.4085C3.02052 19.1361 2.92882 18.7314 3.05715 18.3682L6.41173 8.87413C6.51016 8.59555 6.72674 8.37476 7.00338 8.27099L11.2007 6.69647C11.1761 6.41244 11.2725 6.11991 11.4898 5.90255L14.0994 3.2929C14.287 3.10536 14.5413 3 14.8065 3ZM17.3904 10.389L18.5858 9.19354L14.8065 5.41422L13.6111 6.60965L17.3904 10.389ZM12.5125 8.34046L8.14221 9.97987L5.70327 16.8825L9.69008 12.8957C10.0806 12.5051 10.7138 12.5051 11.1043 12.8957C11.4948 13.2862 11.4948 13.9193 11.1043 14.3099L7.11746 18.2968L14.02 15.8578L15.6594 11.4874L12.5125 8.34046Z" fill="currentColor"/>
</svg>
