<svg width="24" height="24" viewBox="0 0 24 24" fill="none" xmlns="http://www.w3.org/2000/svg">
<path fill-rule="evenodd" clip-rule="evenodd" d="M15.5762 5.55906L14.1546 7.02802L15.5562 8.42619C15.5576 8.42762 15.5591 8.42905 15.5605 8.43049L17.0226 9.88909L18.4244 8.44059L18.4356 8.4292C18.8153 8.04911 19.0287 7.5338 19.0287 6.9965C19.0287 6.45933 18.8154 5.94413 18.4358 5.56406C18.0558 5.18452 17.5406 4.97133 17.0035 4.97133C16.4687 4.97133 15.9557 5.18265 15.5762 5.55906ZM15.6316 11.3265L14.869 10.5657L10.0377 15.6235L10.7673 16.3531L15.6316 11.3265ZM8.9277 17.3419L7.95901 16.3732C7.95541 16.3699 7.95182 16.3665 7.94826 16.3631C7.93336 16.3489 7.91901 16.3343 7.90519 16.3194L6.93706 15.3513L5.94198 18.337L8.9277 17.3419ZM7.9027 13.4885L8.6231 14.2089L13.4528 9.15287L12.7636 8.46541L7.9027 13.4885ZM12.0307 6.3468C12.0317 6.34572 12.0328 6.34465 12.0338 6.34357L14.1454 4.16159L14.1572 4.1496C14.9123 3.39513 15.936 2.97133 17.0035 2.97133C18.0709 2.97133 19.0947 3.39513 19.8498 4.1496L19.8504 4.1502C20.6049 4.90531 21.0287 5.92907 21.0287 6.9965C21.0287 8.06108 20.6071 9.08222 19.8564 9.83674L11.4976 18.4744C11.3858 18.59 11.2477 18.6769 11.0952 18.7277L4.67717 20.8667C4.31785 20.9865 3.9217 20.8929 3.65388 20.6251C3.38606 20.3573 3.29253 19.9611 3.41229 19.6018L5.55129 13.1838C5.59863 13.0418 5.67726 12.9122 5.78138 12.8046L12.0307 6.3468Z" fill="currentColor"/>
</svg>
