<svg width="24" height="24" viewBox="0 0 24 24" fill="none" xmlns="http://www.w3.org/2000/svg">
<path fill-rule="evenodd" clip-rule="evenodd" d="M5.80217 8.50176C7.48324 7.40295 9.71093 6.99505 12.0167 6.99524C14.3226 6.99542 16.5506 7.40433 18.2303 8.50514C19.9662 9.64283 21.0131 11.4546 21.0155 13.9633C21.0272 14.1473 21.0204 14.3797 21.0053 14.5798C20.9908 14.7726 20.9586 15.0917 20.8677 15.3419C20.5143 16.3154 19.5775 17.0181 18.3307 17.0177L16.6456 17.0171C15.9003 17.0164 15.2774 16.7082 14.7992 16.23C14.2959 15.7267 14.0127 15.0442 14.0121 14.3324L14.0118 13.6867C14.0118 13.2348 13.8898 13.132 13.8725 13.1175C13.8251 13.0774 13.6805 13.0006 13.3261 13.0006L10.6786 12.9997C10.6786 12.9997 10.6786 12.9997 10.6786 12.9997C10.4969 12.9997 10.3229 13.0718 10.1947 13.2C10.0665 13.3281 9.99443 13.5021 9.99444 13.6837C9.99444 13.6837 9.99444 13.6838 9.99444 13.6837L9.99474 14.3289C9.9946 15.0408 9.71186 15.7241 9.20845 16.2275C8.70505 16.7309 8.02235 17.0137 7.31048 17.0138L5.73167 17.0132C5.37569 17.0378 5.01833 16.9875 4.68264 16.8655C4.33133 16.7378 4.01229 16.5347 3.74798 16.2703C3.48367 16.006 3.2805 15.687 3.15281 15.3357C3.0618 15.0853 3.02951 14.7657 3.01499 14.5722C2.99992 14.3714 2.99322 14.1381 3.00513 13.9533C3.01418 11.4464 4.06495 9.63728 5.80217 8.50176ZM6.89642 10.1759C5.74304 10.9298 5.0039 12.1061 5.00508 13.9904C5.0051 14.0201 5.00379 14.0498 5.00118 14.0793C5.00119 14.0792 5.00112 14.08 5.00099 14.0818L5.00055 14.0893C5.0002 14.0959 4.99985 14.1047 4.99957 14.1159C4.999 14.1383 4.99881 14.1665 4.99927 14.1997C5.00017 14.2666 5.00352 14.3444 5.00938 14.4225C5.01531 14.5016 5.02314 14.5717 5.03148 14.6254C5.03497 14.6478 5.03781 14.6626 5.0395 14.6707C5.06749 14.74 5.10919 14.8031 5.16219 14.8561C5.21981 14.9137 5.28934 14.958 5.36585 14.9858C5.44237 15.0136 5.52398 15.0243 5.60492 15.0171C5.63437 15.0145 5.66394 15.0132 5.69351 15.0132L7.31008 15.0138C7.30999 15.0138 7.31017 15.0138 7.31008 15.0138C7.49176 15.0137 7.66602 14.9415 7.79424 14.8133C7.92244 14.6851 7.99461 14.5112 7.99474 14.3295C7.99474 14.3294 7.99474 14.3296 7.99474 14.3295L7.99444 13.6846C7.99423 12.9725 8.2769 12.2893 8.78048 11.7858C9.28406 11.2822 9.96709 10.9995 10.6792 10.9997L13.3261 11.0006C13.326 11.0006 13.3263 11.0006 13.3261 11.0006C13.9 11.0007 14.5992 11.1133 15.1624 11.5891C15.7585 12.0926 16.0117 12.8364 16.0118 13.6858C16.0118 13.6856 16.0118 13.686 16.0118 13.6858L16.0121 14.3305C16.0123 14.5124 16.0846 14.6869 16.2134 14.8158C16.3672 14.9696 16.4984 15.0169 16.6466 15.0171C16.6464 15.0171 16.6467 15.0171 16.6466 15.0171L18.3314 15.0177C18.5677 15.0178 18.7151 14.956 18.8033 14.8955C18.8884 14.8371 18.9468 14.7609 18.9809 14.6771C18.9826 14.669 18.9854 14.6544 18.9889 14.6322C18.9972 14.5787 19.005 14.5086 19.011 14.4296C19.0169 14.3516 19.0202 14.2739 19.0212 14.207C19.0216 14.1738 19.0215 14.1455 19.0209 14.1231C19.0208 14.1185 19.0207 14.1142 19.0205 14.1104C19.0203 14.105 19.0201 14.1003 19.0199 14.0965L19.0195 14.0889C19.0194 14.0871 19.0193 14.0863 19.0193 14.0863C19.0167 14.0562 19.0154 14.026 19.0155 13.9958C19.0218 12.1093 18.2851 10.9323 17.134 10.1779C15.9176 9.38073 14.1388 8.99541 12.0166 8.99524C9.89428 8.99507 8.1148 9.37948 6.89642 10.1759Z" fill="currentColor"/>
</svg>
