<svg width="24" height="24" viewBox="0 0 24 24" fill="none" xmlns="http://www.w3.org/2000/svg">
<path fill-rule="evenodd" clip-rule="evenodd" d="M7.38479 6.52228C6.04735 7.85141 5.73624 9.20426 6.01668 10.5513C6.3131 11.9751 7.29844 13.5054 8.79896 15.0061C10.2995 16.5069 11.8296 17.4934 13.2543 17.7918C14.6029 18.0743 15.9573 17.7651 17.289 16.4318C17.3099 16.4109 17.3318 16.3908 17.3546 16.3718C17.3549 16.3715 17.3557 16.3708 17.3564 16.3702L17.3621 16.3651C17.367 16.3607 17.3735 16.3547 17.3815 16.3471C17.3978 16.3316 17.4179 16.3118 17.4411 16.288C17.4877 16.24 17.5404 16.1827 17.5914 16.1233C17.6432 16.0632 17.6872 16.008 17.7193 15.9642C17.7327 15.9459 17.7411 15.9334 17.7457 15.9265C17.7749 15.8577 17.79 15.7836 17.79 15.7086C17.79 15.6271 17.7721 15.5467 17.7377 15.4729C17.7033 15.3991 17.6531 15.3339 17.5908 15.2817C17.5681 15.2627 17.5463 15.2427 17.5254 15.2218L16.3823 14.0779C16.1756 13.8711 16.0474 13.8162 15.999 13.8018C15.9666 13.7921 15.9403 13.7895 15.8832 13.8087C15.8066 13.8344 15.6892 13.8967 15.5164 14.0327C15.3453 14.1673 15.1677 14.3347 14.9502 14.543C14.4476 15.0413 13.7685 15.3212 13.0604 15.3212C12.3482 15.3212 11.6654 15.0381 11.162 14.5344L9.29095 12.6621C9.29087 12.662 9.29103 12.6622 9.29095 12.6621C8.88519 12.2563 8.4705 11.6822 8.40863 10.9476C8.34316 10.17 8.69011 9.46498 9.29062 8.86434C9.29052 8.86444 9.29073 8.86423 9.29062 8.86434L9.74632 8.40822C9.87457 8.27957 9.94704 8.1048 9.94704 7.92276C9.94704 7.70507 9.88769 7.57886 9.78291 7.47388L8.5922 6.28234C8.47424 6.16429 8.38154 6.12189 8.32057 6.10436C8.25739 6.0862 8.18262 6.08184 8.0868 6.10147C7.87358 6.14514 7.61129 6.29891 7.38479 6.52228ZM7.6855 4.14214C8.45997 3.98352 9.30422 4.16544 10.0069 4.86862L11.198 6.06056C11.7246 6.58806 11.947 7.24648 11.947 7.92276C11.947 8.63454 11.6647 9.31736 11.1618 9.82115L10.7055 10.2779C10.3859 10.5975 10.3995 10.7564 10.4015 10.7789C10.4015 10.7786 10.4015 10.7792 10.4015 10.7789C10.4067 10.8408 10.4546 10.9973 10.7052 11.2479L12.5766 13.1206C12.7051 13.2491 12.8791 13.3212 13.0604 13.3212C13.2417 13.3212 13.4157 13.2491 13.5442 13.1206L13.5597 13.1054C13.5757 13.0901 13.5921 13.0744 13.6088 13.0583C13.9926 12.6898 14.5634 12.1417 15.2475 11.9124C15.6492 11.7777 16.0994 11.7444 16.5715 11.8855C17.0277 12.0218 17.4322 12.2991 17.7971 12.6642L18.9126 13.7806C19.1817 14.015 19.3989 14.3032 19.5499 14.6269C19.7081 14.9656 19.79 15.3348 19.79 15.7086C19.79 16.0824 19.7081 16.4517 19.5499 16.7904C19.4372 17.0318 19.2341 17.2806 19.1075 17.4277C18.9762 17.5803 18.816 17.7501 18.6769 17.8722C16.8978 19.6385 14.8756 20.1748 12.8443 19.7493C10.8786 19.3376 9.01494 18.0508 7.38463 16.4202C5.75427 14.7896 4.46799 12.925 4.05866 10.9589C3.63342 8.9164 4.18217 6.8846 5.97638 5.10228L5.97847 5.10021C6.3788 4.70486 6.97281 4.28811 7.6855 4.14214Z" fill="currentColor"/>
</svg>
