<svg width="24" height="24" viewBox="0 0 24 24" fill="none" xmlns="http://www.w3.org/2000/svg">
<path fill-rule="evenodd" clip-rule="evenodd" d="M6 5C6 3.89543 6.89543 3 8 3H16C17.1046 3 18 3.89543 18 5V10H19C20.1046 10 21 10.8954 21 12V17C21 18.1046 20.1046 19 19 19H18C18 20.1046 17.1046 21 16 21H8C6.89543 21 6 20.1046 6 19H5C3.89543 19 3 18.1046 3 17V12C3 10.8954 3.89543 10 5 10H6V5ZM8 10H16V5H8V10ZM5 12V17H6V15C6 14.4477 6.44772 14 7 14H17C17.5523 14 18 14.4477 18 15V17H19V12H5ZM8 16V19H16V16H8Z" fill="#101828"/>
</svg>
