<svg width="24" height="24" viewBox="0 0 24 24" fill="none" xmlns="http://www.w3.org/2000/svg">
<path fill-rule="evenodd" clip-rule="evenodd" d="M3 4C3 3.44772 3.44772 3 4 3H10C10.5523 3 11 3.44772 11 4V10C11 10.5523 10.5523 11 10 11H4C3.44772 11 3 10.5523 3 10V4ZM5 5V9H9V5H5ZM13 4C13 3.44772 13.4477 3 14 3H20C20.5523 3 21 3.44772 21 4V10C21 10.5523 20.5523 11 20 11H14C13.4477 11 13 10.5523 13 10V4ZM15 5V9H19V5H15ZM6 7C6 6.44772 6.44772 6 7 6H7.01C7.56228 6 8.01 6.44772 8.01 7V7.01C8.01 7.56228 7.56228 8.01 7.01 8.01H7C6.44772 8.01 6 7.56228 6 7.01V7ZM3 14C3 13.4477 3.44772 13 4 13H4.01C4.56228 13 5.01 13.4477 5.01 14V14.01C5.01 14.5623 4.56228 15.01 4.01 15.01H4C3.44772 15.01 3 14.5623 3 14.01V14ZM9 14C9 13.4477 9.44772 13 10 13H10.01C10.5623 13 11.01 13.4477 11.01 14V14.01C11.01 14.5623 10.5623 15.01 10.01 15.01H10C9.44772 15.01 9 14.5623 9 14.01V14ZM13 14C13 13.4477 13.4477 13 14 13H20C20.5523 13 21 13.4477 21 14V20C21 20.5523 20.5523 21 20 21H14C13.4477 21 13 20.5523 13 20V14ZM15 15V19H19V15H15ZM6 16C6 15.4477 6.44772 15 7 15H7.01C7.56228 15 8.01 15.4477 8.01 16V16.01C8.01 16.5623 7.56228 17.01 7.01 17.01H7C6.44772 17.01 6 16.5623 6 16.01V16ZM16 17C16 16.4477 16.4477 16 17 16H17.01C17.5623 16 18.01 16.4477 18.01 17V17.01C18.01 17.5623 17.5623 18.01 17.01 18.01H17C16.4477 18.01 16 17.5623 16 17.01V17ZM3 18C3 17.4477 3.44772 17 4 17H4.01C4.56228 17 5.01 17.4477 5.01 18V18.01C5.01 18.5623 4.56228 19.01 4.01 19.01H4C3.44772 19.01 3 18.5623 3 18.01V18ZM9 18C9 17.4477 9.44772 17 10 17H10.01C10.5623 17 11.01 17.4477 11.01 18V18.01C11.01 18.5623 10.5623 19.01 10.01 19.01H10C9.44772 19.01 9 18.5623 9 18.01V18ZM6 20C6 19.4477 6.44772 19 7 19H7.01C7.56228 19 8.01 19.4477 8.01 20V20.01C8.01 20.5623 7.56228 21.01 7.01 21.01H7C6.44772 21.01 6 20.5623 6 20.01V20Z" fill="currentColor"/>
</svg>
