<svg width="24" height="24" viewBox="0 0 24 24" fill="none" xmlns="http://www.w3.org/2000/svg">
<path fill-rule="evenodd" clip-rule="evenodd" d="M12 4C7.58172 4 4 7.58172 4 12C4 16.4183 7.58172 20 12 20C16.4183 20 20 16.4183 20 12C20 7.58172 16.4183 4 12 4ZM2 12C2 6.47715 6.47715 2 12 2C17.5228 2 22 6.47715 22 12C22 17.5228 17.5228 22 12 22C6.47715 22 2 17.5228 2 12ZM12.0863 8.58277C11.6883 8.56757 11.3006 8.7111 11.0084 8.98179C10.7162 9.25248 10.5435 9.62815 10.5283 10.0262C10.5072 10.5781 10.0427 11.0084 9.49083 10.9873C8.93895 10.9662 8.50865 10.5017 8.52973 9.94983C8.56518 9.02176 8.96785 8.14579 9.64916 7.51462C10.3305 6.88345 11.2346 6.54878 12.1627 6.58423C13.0907 6.61968 13.9667 7.02235 14.5979 7.70366C15.2263 8.38203 15.5608 9.28132 15.5287 10.2052C15.5207 10.6592 15.4229 11.1073 15.2408 11.5234C15.0571 11.9432 14.7913 12.3221 14.4591 12.6377C14.1269 12.9534 13.7349 13.1994 13.3063 13.3615C13.2056 13.3995 13.1034 13.4328 13 13.4612V14C13 14.5523 12.5523 15 12 15C11.4477 15 11 14.5523 11 14V12.582C11 12.3104 11.1105 12.0504 11.3061 11.8619C11.5017 11.6734 11.7656 11.5726 12.037 11.5827C12.2286 11.5898 12.4197 11.5585 12.5991 11.4907C12.7784 11.4229 12.9424 11.3199 13.0814 11.1879C13.2205 11.0558 13.3317 10.8972 13.4085 10.7216C13.4854 10.5459 13.5264 10.3567 13.5291 10.1649L13.5297 10.1408C13.5449 9.74281 13.4014 9.35505 13.1307 9.06286C12.86 8.77067 12.4843 8.59798 12.0863 8.58277ZM10.99 17.0078C10.99 16.4555 11.4377 16.0078 11.99 16.0078H12C12.5523 16.0078 13 16.4555 13 17.0078C13 17.5601 12.5523 18.0078 12 18.0078H11.99C11.4377 18.0078 10.99 17.5601 10.99 17.0078Z" fill="currentColor"/>
</svg>
