<svg width="24" height="24" viewBox="0 0 24 24" fill="none" xmlns="http://www.w3.org/2000/svg">
<path fill-rule="evenodd" clip-rule="evenodd" d="M8 5C8 4.44772 8.44772 4 9 4H20C21.1046 4 22 4.89543 22 6V15C22 16.1046 21.1046 17 20 17H19C18.4477 17 18 16.5523 18 16C18 15.4477 18.4477 15 19 15H20V6H9C8.44772 6 8 5.55228 8 5ZM2 9C2 7.89543 2.89543 7 4 7H15C16.1046 7 17 7.89543 17 9V18C17 19.1046 16.1046 20 15 20H4C2.89543 20 2 19.1046 2 18V9ZM15 9H4V10.5H15V9ZM15 12.5H4V18H15V12.5Z" fill="#101828"/>
</svg>
