<svg width="24" height="24" viewBox="0 0 24 24" fill="none" xmlns="http://www.w3.org/2000/svg">
<path fill-rule="evenodd" clip-rule="evenodd" d="M15.3393 3.01607C16.6547 2.94679 17.9641 3.11543 18.8049 3.26021C19.2884 3.34236 19.7345 3.57281 20.0813 3.91969C20.4285 4.26702 20.659 4.71382 20.7409 5.19806C20.8856 6.03937 21.0534 7.34808 20.9837 8.66306C20.9163 9.93467 20.6165 11.4469 19.6078 12.4575L19.6066 12.4587C19.1165 12.9482 18.3382 13.5273 17.4726 14.1144C17.2734 14.2494 17.0667 14.3869 16.8542 14.5258L16.5742 17.8151C16.5542 18.05 16.4518 18.2703 16.2851 18.4371L14.2909 20.4327C14.0359 20.6873 13.715 20.8659 13.3642 20.9484C13.0134 21.031 12.6465 21.0141 12.3047 20.8999C11.9629 20.7856 11.6597 20.5784 11.4291 20.3015C11.1995 20.0259 11.0508 19.692 10.9995 19.337L10.8179 18.13C10.2259 18.4625 9.72248 18.7406 9.36005 18.9395C8.99172 19.1411 8.56699 19.2177 8.15148 19.1569C7.7373 19.0962 7.35407 18.9027 7.05939 18.6055L6.22551 17.7724L5.40003 16.9405C5.10368 16.646 4.91075 16.2632 4.85022 15.8497C4.78941 15.4343 4.86554 15.0103 5.06712 14.642C5.26922 14.2728 5.55362 13.7575 5.89372 13.1516L4.69556 13.011L4.67561 13.0085C4.31694 12.9591 3.97927 12.8103 3.70076 12.579C3.42225 12.3477 3.21401 12.0431 3.09955 11.6997C2.9851 11.3563 2.96898 10.9877 3.05303 10.6355C3.13685 10.2844 3.31697 9.96354 3.57314 9.70914L5.56617 7.7166C5.73297 7.54985 5.95333 7.44741 6.18833 7.4274L9.47808 7.1472C9.61744 6.93401 9.75526 6.72669 9.89074 6.52693C10.4779 5.66113 11.0573 4.88258 11.5473 4.39228M10.8858 8.65314C10.8911 8.64512 10.8963 8.63702 10.9014 8.62884C11.1213 8.28603 11.3372 7.95736 11.546 7.6495C12.1268 6.79303 12.6165 6.15171 12.962 5.80595C13.4273 5.34027 14.2975 5.07371 15.4445 5.0133C16.5469 4.95524 17.6904 5.09773 18.4655 5.2312L18.4693 5.23185C18.5441 5.24444 18.6132 5.28005 18.6669 5.33376C18.7206 5.38747 18.7563 5.45662 18.7689 5.53159L18.7695 5.53542C18.9029 6.3103 19.045 7.45412 18.9865 8.55721C18.9257 9.70419 18.6591 10.5764 18.1928 11.0442C17.8469 11.3894 17.2058 11.8787 16.35 12.4591C16.0511 12.6618 15.7327 12.8713 15.4007 13.0845C15.3734 13.1003 15.3468 13.1173 15.3212 13.1355C14.7425 13.5058 14.1248 13.8869 13.4997 14.2633C12.7025 14.7433 11.8982 15.2128 11.155 15.6392C11.1124 15.6597 11.0716 15.6831 11.0329 15.7091C9.964 16.321 9.03149 16.8382 8.44339 17.1611L7.64515 16.3636L7.64213 16.3606L6.84574 15.558C7.17472 14.9577 7.70684 13.9974 8.33574 12.8993C8.36574 12.8555 8.3924 12.8091 8.41531 12.7605C8.82836 12.041 9.28025 11.2674 9.74197 10.5003C10.1238 9.86592 10.5104 9.23917 10.8858 8.65314ZM8.1499 9.26756L6.72195 9.38919L5.06955 11.0412L6.96953 11.264C7.30705 10.6813 7.66455 10.0734 8.02841 9.46889C8.06882 9.40176 8.10932 9.33464 8.1499 9.26756ZM12.6806 17.0683L12.9613 18.9337L14.6124 17.2816L14.7339 15.8544C14.6664 15.8952 14.5989 15.936 14.5314 15.9766C13.9076 16.3523 13.2802 16.7211 12.6806 17.0683ZM15.3393 3.01607C14.0686 3.083 12.5564 3.38231 11.5473 4.39228L15.3393 3.01607ZM14.9139 8.2077C14.4282 8.2077 14.0341 8.60156 14.0341 9.08784C14.0341 9.57412 14.4282 9.96798 14.9139 9.96798C15.3995 9.96798 15.7936 9.57412 15.7936 9.08784C15.7936 8.60156 15.3995 8.2077 14.9139 8.2077ZM12.0341 9.08784C12.0341 7.49737 13.3232 6.2077 14.9139 6.2077C16.5045 6.2077 17.7936 7.49737 17.7936 9.08784C17.7936 10.6783 16.5045 11.968 14.9139 11.968C13.3232 11.968 12.0341 10.6783 12.0341 9.08784Z" fill="currentColor"/>
</svg>
