<svg width="24" height="24" viewBox="0 0 24 24" fill="none" xmlns="http://www.w3.org/2000/svg">
<path fill-rule="evenodd" clip-rule="evenodd" d="M3 5C3 3.89543 3.89543 3 5 3H8C9.10457 3 10 3.89543 10 5V14H19C20.1046 14 21 14.8954 21 16V19C21 20.1046 20.1046 21 19 21H5C3.89543 21 3 20.1046 3 19V5ZM16 16V17C16 17.5523 16.4477 18 17 18C17.5523 18 18 17.5523 18 17V16H19V19H5V5H8V6H7C6.44772 6 6 6.44772 6 7C6 7.55228 6.44772 8 7 8H8V9H7C6.44772 9 6 9.44772 6 10C6 10.5523 6.44772 11 7 11H8V12H7C6.44772 12 6 12.4477 6 13C6 13.5523 6.44772 14 7 14H8C8 15.1046 8.89543 16 10 16L10 17C10 17.5523 10.4477 18 11 18C11.5523 18 12 17.5523 12 17V16H13V17C13 17.5523 13.4477 18 14 18C14.5523 18 15 17.5523 15 17V16H16Z" fill="currentColor"/>
</svg>
