<svg width="24" height="24" viewBox="0 0 24 24" fill="none" xmlns="http://www.w3.org/2000/svg">
<path fill-rule="evenodd" clip-rule="evenodd" d="M3 7C3 5.89543 3.89543 5 5 5H19C20.1046 5 21 5.89543 21 7V11C21 11.3643 20.9026 11.7058 20.7324 12C20.9026 12.2942 21 12.6357 21 13V17C21 18.1046 20.1046 19 19 19H5C3.89543 19 3 18.1046 3 17V13C3 12.6357 3.09739 12.2942 3.26757 12C3.09739 11.7058 3 11.3643 3 11V7ZM5 11V7H19V11H5ZM13 9C13 8.44772 13.4477 8 14 8H14.01C14.5623 8 15.01 8.44772 15.01 9C15.01 9.55228 14.5623 10 14.01 10H14C13.4477 10 13 9.55228 13 9ZM16 9C16 8.44772 16.4477 8 17 8H17.01C17.5623 8 18.01 8.44772 18.01 9C18.01 9.55228 17.5623 10 17.01 10H17C16.4477 10 16 9.55228 16 9ZM19 13H5V17H19V13ZM13 15C13 14.4477 13.4477 14 14 14H14.01C14.5623 14 15.01 14.4477 15.01 15C15.01 15.5523 14.5623 16 14.01 16H14C13.4477 16 13 15.5523 13 15ZM16 15C16 14.4477 16.4477 14 17 14H17.01C17.5623 14 18.01 14.4477 18.01 15C18.01 15.5523 17.5623 16 17.01 16H17C16.4477 16 16 15.5523 16 15Z" fill="#101828"/>
</svg>
