<svg width="24" height="24" viewBox="0 0 24 24" fill="none" xmlns="http://www.w3.org/2000/svg">
<path fill-rule="evenodd" clip-rule="evenodd" d="M17.5 5C16.6716 5 16 5.67157 16 6.5C16 7.32843 16.6716 8 17.5 8C18.3284 8 19 7.32843 19 6.5C19 5.67157 18.3284 5 17.5 5ZM14 6.5C14 4.567 15.567 3 17.5 3C19.433 3 21 4.567 21 6.5C21 8.433 19.433 10 17.5 10C16.4765 10 15.5556 9.56068 14.9156 8.86032L8.9683 11.5269C8.9892 11.6816 9 11.8396 9 12C9 12.1655 8.98851 12.3284 8.96628 12.4878L14.9055 15.1508C15.5459 14.444 16.4711 14 17.5 14C19.433 14 21 15.567 21 17.5C21 19.433 19.433 21 17.5 21C15.567 21 14 19.433 14 17.5C14 17.3148 14.0144 17.1329 14.0421 16.9555L8.13299 14.306C7.49148 15.0379 6.5497 15.5 5.5 15.5C3.567 15.5 2 13.933 2 12C2 10.067 3.567 8.5 5.5 8.5C6.55506 8.5 7.50109 8.96684 8.14279 9.70522L14.0444 7.0591C14.0152 6.87705 14 6.6903 14 6.5ZM5.5 10.5C4.67157 10.5 4 11.1716 4 12C4 12.8284 4.67157 13.5 5.5 13.5C6.32843 13.5 7 12.8284 7 12C7 11.1716 6.32843 10.5 5.5 10.5ZM17.5 16C16.6716 16 16 16.6716 16 17.5C16 18.3284 16.6716 19 17.5 19C18.3284 19 19 18.3284 19 17.5C19 16.6716 18.3284 16 17.5 16Z" fill="#101828"/>
</svg>
