<svg width="24" height="24" viewBox="0 0 24 24" fill="none" xmlns="http://www.w3.org/2000/svg">
<path fill-rule="evenodd" clip-rule="evenodd" d="M11.644 3.06551C11.8733 2.97816 12.1267 2.97816 12.356 3.06551L19.356 5.73218C19.7484 5.88168 20.0057 6.26046 19.9999 6.68039C19.9617 9.46548 19.2686 12.2016 17.9775 14.6608C16.6864 17.12 14.8344 19.2316 12.5747 20.8184C12.2298 21.0605 11.7702 21.0605 11.4253 20.8184C9.16559 19.2316 7.31357 17.12 6.02248 14.6608C4.73143 12.2016 4.03831 9.46548 4.00009 6.68039C3.99433 6.26046 4.25156 5.88168 4.64401 5.73218L11.644 3.06551ZM6.02471 7.34641C6.15375 9.57725 6.75621 11.7557 7.79328 13.7311C8.82582 15.6979 10.2619 17.4113 12 18.7576C13.7381 17.4113 15.1742 15.6979 16.2067 13.7311C17.2438 11.7557 17.8463 9.57725 17.9753 7.34641L12 5.07011L6.02471 7.34641ZM15.7526 8.8415C16.1163 9.25713 16.0741 9.88889 15.6585 10.2526L11.6585 13.7526C11.2623 14.0993 10.6652 14.0794 10.2929 13.7071L8.79289 12.2071C8.40237 11.8166 8.40237 11.1834 8.79289 10.7929C9.18342 10.4024 9.81658 10.4024 10.2071 10.7929L11.0456 11.6314L14.3415 8.74742C14.7571 8.38374 15.3889 8.42586 15.7526 8.8415Z" fill="#101828"/>
</svg>
