<svg width="24" height="24" viewBox="0 0 24 24" fill="none" xmlns="http://www.w3.org/2000/svg">
<path fill-rule="evenodd" clip-rule="evenodd" d="M4 3L10 3C10.2652 3 10.5196 3.10536 10.7071 3.29289C10.8946 3.48043 11 3.73478 11 4L11 20C11 20.5523 10.5523 21 10 21L4 21C3.73479 21 3.48043 20.8946 3.29289 20.7071C3.10536 20.5196 3 20.2652 3 20L3 18C3 17.4477 3.44772 17 4 17C4.55229 17 5 17.4477 5 18L5 19L9 19V13H6.41424L7.20256 13.7883C7.59308 14.1788 7.59308 14.812 7.20256 15.2025C6.81204 15.5931 6.17887 15.5931 5.78835 15.2025L3.29292 12.7071C3.10538 12.5196 3.00003 12.2652 3.00003 12C3.00003 11.7348 3.10538 11.4804 3.29292 11.2929L5.78835 8.79747C6.17887 8.40694 6.81204 8.40694 7.20256 8.79747C7.59308 9.18799 7.59308 9.82116 7.20256 10.2117L6.41424 11H9V5L5 5V6C5 6.55229 4.55228 7 4 7C3.44772 7 3 6.55229 3 6L3 4C3 3.73478 3.10536 3.48043 3.29289 3.29289C3.48043 3.10536 3.73478 3 4 3ZM13.2929 3.29289C13.4804 3.10536 13.7348 3 14 3L20 3C20.5523 3 21 3.44772 21 4V6C21 6.55229 20.5523 7 20 7C19.4477 7 19 6.55229 19 6V5L15 5V11H17.5858L16.739 10.1532C16.3484 9.76266 16.3484 9.1295 16.739 8.73897C17.1295 8.34845 17.7626 8.34845 18.1532 8.73897L20.7071 11.2929C21.0976 11.6834 21.0976 12.3166 20.7071 12.7071L18.1532 15.261C17.7626 15.6516 17.1295 15.6516 16.739 15.261C16.3484 14.8705 16.3484 14.2373 16.739 13.8468L17.5858 13H15V19L19 19V18C19 17.4477 19.4477 17 20 17C20.5523 17 21 17.4477 21 18V20C21 20.2652 20.8946 20.5196 20.7071 20.7071C20.5196 20.8946 20.2652 21 20 21L14 21C13.4477 21 13 20.5523 13 20L13 4C13 3.73478 13.1054 3.48043 13.2929 3.29289Z" fill="currentColor"/>
</svg>
