<svg width="24" height="24" viewBox="0 0 24 24" fill="none" xmlns="http://www.w3.org/2000/svg">
<path fill-rule="evenodd" clip-rule="evenodd" d="M10.1538 3.2209C10.8395 1.59304 13.1606 1.59303 13.8463 3.22089L15.5991 7.38194C15.5999 7.38225 15.601 7.38255 15.6026 7.38268L20.1561 7.74311C21.9119 7.8821 22.6699 10.0769 21.2944 11.2402L17.8318 14.1689L18.8887 18.5438C19.3123 20.2973 17.3943 21.607 15.9041 20.7083L12.0057 18.3572C12.0048 18.3567 12.0031 18.3559 12.0001 18.3559C11.997 18.3559 11.9953 18.3567 11.9945 18.3572L8.09605 20.7083C6.60582 21.607 4.68776 20.2973 5.11138 18.5438L6.16831 14.1689L2.70566 11.2402C1.33021 10.0769 2.08815 7.8821 3.84402 7.74311L8.39749 7.38268C8.39908 7.38255 8.4002 7.38225 8.40096 7.38194L10.1538 3.2209ZM13.0001 6.36379L13.7575 8.16183C14.0487 8.8533 14.703 9.31772 15.4448 9.37644L19.9768 9.73518L16.5336 12.6474C15.9621 13.1308 15.708 13.8947 15.8847 14.6262L16.9409 18.9979C16.9397 18.9973 16.9384 18.9965 16.9369 18.9956L13.0385 16.6446C13.0258 16.6369 13.0129 16.6293 13.0001 16.622L13.0001 6.36379ZM11.0001 16.622L11.0001 6.36379L10.2426 8.16183C9.95136 8.8533 9.29712 9.31772 8.55531 9.37644L4.02326 9.73518L7.46647 12.6474C8.03805 13.1308 8.29209 13.8947 8.11536 14.6262L7.05921 18.9979C7.06036 18.9973 7.06168 18.9965 7.06318 18.9956L10.9616 16.6446C10.9743 16.6369 10.9872 16.6294 11.0001 16.622Z" fill="currentColor"/>
</svg>
