<svg width="24" height="24" viewBox="0 0 24 24" fill="none" xmlns="http://www.w3.org/2000/svg">
<path fill-rule="evenodd" clip-rule="evenodd" d="M10.1665 3.70449C10.8643 2.10304 13.1357 2.10304 13.8335 3.70449L15.5859 7.72623L20.048 8.0677C21.8474 8.2054 22.5585 10.4678 21.1614 11.6102L17.8316 14.3329L18.8608 18.4514C19.2898 20.1682 17.4419 21.5554 15.9131 20.664L12 18.3826L8.08682 20.664C6.55806 21.5554 4.71011 20.1682 5.13913 18.4514L6.16833 14.3329L2.83851 11.6102C1.44144 10.4678 2.15251 8.2054 3.95191 8.0677L8.41407 7.72623L10.1665 3.70449ZM12 4.5034L10.2476 8.52514C9.95176 9.20402 9.30505 9.66389 8.56667 9.7204L4.10451 10.0619L7.43433 12.7846C8.03369 13.2746 8.29637 14.0666 8.10866 14.8177L7.07947 18.9363L10.9926 16.6548C11.6151 16.2918 12.3848 16.2918 13.0073 16.6548L16.9205 18.9363L15.8913 14.8177C15.7036 14.0666 15.9662 13.2746 16.5656 12.7846L19.8954 10.0619L15.4332 9.7204C14.6949 9.66389 14.0482 9.20403 13.7523 8.52514L12 4.5034Z" fill="#101828"/>
</svg>
