<svg width="24" height="24" viewBox="0 0 24 24" fill="none" xmlns="http://www.w3.org/2000/svg">
<path fill-rule="evenodd" clip-rule="evenodd" d="M16 6.56546C15.6364 7.22397 15.2998 7.84438 15.0798 8.25205C14.755 8.85385 14.148 9.24605 13.468 9.29724L8.5989 9.66381L12.1762 12.5415C12.7862 13.0321 13.0538 13.8335 12.8611 14.5922L11.7521 18.9578L16 16.5214V6.56546ZM16 3.05312V3.0302C16 3.03084 16 3.03166 16 3.03285C16 3.03675 15.9999 3.04368 16 3.05312ZM18 3.02619C18 3.02771 18 3.02905 18 3.0302V16.522C18 17.2392 17.6161 17.9001 16.9951 18.2562L12.7472 20.6927C11.2149 21.5717 9.37879 20.1776 9.81371 18.4655L10.9226 14.0998L7.34532 11.2222C5.93215 10.0854 6.64022 7.80561 8.44875 7.66946L13.3179 7.30289C13.3187 7.30282 13.3193 7.30271 13.3195 7.30263C13.3194 7.30285 13.3196 7.30253 13.3195 7.30263C13.6893 6.61748 14.3942 5.32049 15.008 4.24352C15.3129 3.70851 15.6047 3.21123 15.8247 2.8684C15.9271 2.7089 16.0434 2.53592 16.1512 2.41033C16.1807 2.37601 16.2241 2.32796 16.2783 2.27898C16.3146 2.24624 16.4363 2.137 16.6226 2.06648C16.7236 2.02825 16.905 1.9777 17.1308 2.01057C17.3841 2.04744 17.6057 2.17714 17.7607 2.36218C18.0014 2.64957 18.0003 2.96801 18 3.02619Z" fill="currentColor"/>
</svg>
