<svg width="24" height="24" viewBox="0 0 24 24" fill="none" xmlns="http://www.w3.org/2000/svg">
<path fill-rule="evenodd" clip-rule="evenodd" d="M3 4.88889C3 3.84569 3.84568 3 4.88889 3H9.33333C10.3765 3 11.2222 3.84568 11.2222 4.88889V6.67728L13.0892 4.81032C13.8268 4.07266 15.0228 4.07266 15.7605 4.81032L18.9032 7.95302C19.6408 8.69068 19.6408 9.88665 18.9032 10.6243L16.7497 12.7778H19.1111C20.1543 12.7778 21 13.6235 21 14.6667V19.1111C21 20.1543 20.1543 21 19.1111 21H7.11111C4.84061 21 3 19.1594 3 16.8889V4.88889ZM10.6494 19H19V14.7778H14.7673L14.1134 15.4141L10.9047 18.6228C10.8208 18.754 10.736 18.8797 10.6494 19ZM8.93115 17.9592C9.11612 17.6454 9.22222 17.2795 9.22222 16.8889V5H5V16.8889C5 18.0278 5.9018 18.956 7.03027 18.9985C7.66637 18.8808 8.03792 18.7439 8.32877 18.5487C8.52142 18.4194 8.71441 18.2404 8.93115 17.9592ZM11.2222 15.4368L12.7088 13.9903L17.4104 9.28866L14.4248 6.3031L11.2222 9.50571V15.4368ZM6.11111 16.4444C6.11111 15.8922 6.55883 15.4444 7.11111 15.4444H7.12C7.67228 15.4444 8.12 15.8922 8.12 16.4444C8.12 16.9967 7.67228 17.4444 7.12 17.4444H7.11111C6.55883 17.4444 6.11111 16.9967 6.11111 16.4444Z" fill="currentColor"/>
</svg>
