<svg width="24" height="24" viewBox="0 0 24 24" fill="none" xmlns="http://www.w3.org/2000/svg">
<path fill-rule="evenodd" clip-rule="evenodd" d="M5.83329 5C6.69877 4.35089 7.75144 4 8.83329 4H15.1666C16.2485 4 17.3011 4.35089 18.1666 5L21.1 7.2C21.5034 7.50259 21.6184 8.05826 21.3682 8.49614L19.3682 11.9961C19.2348 12.2296 19.013 12.3995 18.7528 12.4675C18.4926 12.5355 18.216 12.4958 17.9855 12.3575L17 11.7662V19C17 19.5523 16.5522 20 16 20H7.99996C7.44767 20 6.99996 19.5523 6.99996 19V11.7662L6.01445 12.3575C5.78387 12.4958 5.50728 12.5355 5.24712 12.4675C4.98695 12.3995 4.76513 12.2296 4.63171 11.9961L2.63171 8.49614C2.3815 8.05826 2.4965 7.50259 2.89996 7.2L5.83329 5ZM8.17351 6.07345C7.76294 6.16601 7.37395 6.3445 7.03329 6.6L4.80618 8.27033L5.86139 10.1169L7.48546 9.14251C7.79439 8.95715 8.17915 8.95229 8.49265 9.1298C8.80616 9.30731 8.99996 9.63973 8.99996 10V18H15V10C15 9.63973 15.1937 9.30731 15.5073 9.1298C15.8208 8.95229 16.2055 8.95715 16.5145 9.14251L18.1385 10.1169L19.1937 8.27033L16.9666 6.6C16.626 6.3445 16.237 6.16601 15.8264 6.07345C15.6155 6.72436 15.2302 7.30898 14.7696 7.76961C14.0667 8.47245 13.0752 9 12 9C10.9247 9 9.9332 8.47245 9.23035 7.76961C8.76972 7.30898 8.38439 6.72436 8.17351 6.07345ZM10.3482 6C10.4323 6.12249 10.5312 6.24205 10.6446 6.35539C11.0667 6.77755 11.5752 7 12 7C12.4247 7 12.9332 6.77755 13.3553 6.35539C13.4687 6.24205 13.5676 6.12249 13.6517 6H10.3482Z" fill="#101828"/>
</svg>
