<svg width="24" height="24" viewBox="0 0 24 24" fill="none" xmlns="http://www.w3.org/2000/svg">
<path fill-rule="evenodd" clip-rule="evenodd" d="M8.03768 4C7.44691 4 7 4.46523 7 5C7 5.30393 7.19282 5.62398 7.50062 5.81666C7.79014 5.22113 8.19441 4.6917 8.68467 4.25712C8.50176 4.09554 8.27185 4 8.03768 4ZM10.4514 3.24443C9.91179 2.51379 9.0521 2 8.03768 2C6.37769 2 5 3.32563 5 5C5 6.31451 5.88028 7.35967 7.00447 7.78674C7.0015 7.85746 7 7.92855 7 8C7 8.46304 7.06294 8.91137 7.18073 9.33692L6.07985 9.65146C4.84876 10.0032 4 11.1284 4 12.4088C4 13.4269 4.51884 14.2894 5.2781 14.7956C4.49769 15.4375 4 16.4106 4 17.5C4 19.433 5.567 21 7.5 21C8.8962 21 10.1015 20.1825 10.6632 19H13.3368C13.8985 20.1825 15.1038 21 16.5 21C18.433 21 20 19.433 20 17.5C20 16.2876 19.3835 15.2192 18.447 14.5911C19.0815 14.0739 19.5 13.2862 19.5 12.3716C19.5 11.1194 18.687 10.0125 17.4925 9.63766L16.7968 9.41548C16.929 8.96668 17 8.49163 17 8C17 7.93166 16.9986 7.86363 16.9959 7.79596C18.128 7.36708 19 6.31144 19 5C19 3.31613 17.6032 2 15.9414 2C14.9364 2 14.0995 2.5545 13.5573 3.24727C13.0672 3.08679 12.5437 3 12 3C11.4595 3 10.939 3.08577 10.4514 3.24443ZM15.3287 4.26904C15.8148 4.70305 16.2156 5.23065 16.5027 5.82354C16.8091 5.63046 17 5.30939 17 5C17 4.47473 16.5535 4 15.9414 4C15.7517 4 15.5262 4.10003 15.3287 4.26904ZM14.5895 9.51564C14.5862 9.52124 14.5828 9.52687 14.5795 9.53255C14.0564 10.4113 13.0969 11 12 11C11.1946 11 10.4633 10.6826 9.92435 10.166C9.89782 10.1362 9.86939 10.1078 9.83915 10.081C9.31953 9.54163 9 8.80813 9 8C9 6.34315 10.3431 5 12 5C13.6569 5 15 6.34315 15 8C15 8.5529 14.8504 9.07087 14.5895 9.51564ZM7.9519 11.1966L6.62929 11.5745C6.2568 11.6809 6 12.0214 6 12.4088C6 12.9895 6.55789 13.4029 7.10929 13.2421L7.13333 13.2318L7.9519 11.1966ZM8.86841 14.2776L9.62351 12.4002C10.3304 12.7828 11.1398 13 12 13C12.7201 13 13.4046 12.8478 14.0232 12.5738L14.623 14.1748C14.6434 14.2813 14.6809 14.3837 14.7337 14.4777C13.8332 15.0051 13.1894 15.9236 13.0354 17H10.9646C10.7888 15.771 9.97443 14.7479 8.86841 14.2776ZM16.3947 13.203C16.943 13.3624 17.5 12.9515 17.5 12.3716C17.5 11.9931 17.254 11.6585 16.8928 11.5456L16.8868 11.5438L16.8868 11.5437L15.8354 11.208C15.7925 11.2592 15.7487 11.3095 15.7038 11.3589L16.3947 13.203ZM10.6221 6.48846C11.1744 6.48846 11.6221 6.93618 11.6221 7.48846V7.49846C11.6221 8.05075 11.1744 8.49846 10.6221 8.49846C10.0698 8.49846 9.62207 8.05075 9.62207 7.49846V7.48846C9.62207 6.93618 10.0698 6.48846 10.6221 6.48846ZM13.6558 6.48846C14.2081 6.48846 14.6558 6.93618 14.6558 7.48846V7.49846C14.6558 8.05075 14.2081 8.49846 13.6558 8.49846C13.1035 8.49846 12.6558 8.05075 12.6558 7.49846V7.48846C12.6558 6.93618 13.1035 6.48846 13.6558 6.48846ZM12 8.05243C12.5523 8.05243 13 8.50014 13 9.05243V9.06243C13 9.61471 12.5523 10.0624 12 10.0624C11.4477 10.0624 11 9.61471 11 9.06243V9.05243C11 8.50014 11.4477 8.05243 12 8.05243ZM7.5 16C6.67157 16 6 16.6716 6 17.5C6 18.3284 6.67157 19 7.5 19C8.32843 19 9 18.3284 9 17.5C9 16.6716 8.32843 16 7.5 16ZM16.5 16C15.6716 16 15 16.6716 15 17.5C15 18.3284 15.6716 19 16.5 19C17.3284 19 18 18.3284 18 17.5C18 16.6716 17.3284 16 16.5 16Z" fill="currentColor"/>
</svg>
