<svg width="24" height="24" viewBox="0 0 24 24" fill="none" xmlns="http://www.w3.org/2000/svg">
<path fill-rule="evenodd" clip-rule="evenodd" d="M6 4C6 3.44772 6.44771 3 7 3H17C17.5523 3 18 3.44772 18 4C18 4.55228 17.5523 5 17 5H16V9.99715C16.0021 10.0069 16.014 10.0438 16.0682 10.11C16.1484 10.2079 16.2806 10.3167 16.4457 10.4113C17.3932 10.9542 18.1585 11.9507 18.6369 12.8994C18.8825 13.3865 19.0741 13.9025 19.1784 14.4C19.279 14.8801 19.3169 15.4312 19.1607 15.9386C18.883 16.8404 17.9908 17 17.5858 17H13V20C13 20.5523 12.5523 21 12 21C11.4477 21 11 20.5523 11 20V17H6.41421C6.00916 17 5.11703 16.8404 4.83933 15.9386C4.6831 15.4313 4.72101 14.8801 4.8216 14.4001C4.92586 13.9025 5.11745 13.3865 5.36308 12.8994C5.84151 11.9507 6.60675 10.9542 7.5543 10.4113C7.71943 10.3167 7.85158 10.2079 7.93178 10.11C7.98603 10.0438 7.99785 10.0069 8 9.99715V5H7C6.44771 5 6 4.55228 6 4ZM10 5V10C10 10.5723 9.75522 11.0401 9.47902 11.3773C9.20472 11.7122 8.86256 11.9668 8.54848 12.1467C8.0617 12.4256 7.52626 13.0516 7.14886 13.8C6.96656 14.1614 6.84144 14.5127 6.77909 14.8102C6.76436 14.8805 6.75398 14.9437 6.74693 15H17.253C17.246 14.9437 17.2356 14.8805 17.2209 14.8102C17.1585 14.5126 17.0334 14.1614 16.8511 13.8C16.4737 13.0516 15.9383 12.4256 15.4515 12.1467C15.1374 11.9668 14.7953 11.7122 14.521 11.3773C14.2448 11.0401 14 10.5723 14 10V5H10ZM17.5903 14.9998C17.5903 14.9998 17.589 15 17.5864 15L17.5903 14.9998ZM6.40969 14.9998C6.40971 14.9997 6.41104 14.9997 6.41361 15L6.40969 14.9998ZM8.00041 9.99451C8.00046 9.99451 8.00029 9.99574 8 9.99715L8.00041 9.99451ZM15.9996 9.99451C15.9996 9.99451 15.9999 9.99574 16 9.99715L15.9996 9.99451Z" fill="#101828"/>
</svg>
