<svg width="24" height="24" viewBox="0 0 24 24" fill="none" xmlns="http://www.w3.org/2000/svg">
<path fill-rule="evenodd" clip-rule="evenodd" d="M2 6C2 4.89543 2.89543 4 4 4H20C21.1046 4 22 4.89543 22 6V9C22 9.55228 21.5523 10 21 10C20.4477 10 20 9.55228 20 9V6L4 6V10H11.3895C11.5584 9.86965 11.7702 9.79211 12 9.79211C12.2298 9.79211 12.4416 9.86965 12.6105 10H14C14.5523 10 15 10.4477 15 11C15 11.5523 14.5523 12 14 12H13V18H14C14.5523 18 15 18.4477 15 19C15 19.5523 14.5523 20 14 20H4C2.89543 20 2 19.1046 2 18V6ZM11 18V16H4V18H11ZM4 14H11V12H4V14ZM19 14C18.4477 14 18 14.4477 18 15C18 15.5523 18.4477 16 19 16C19.5523 16 20 15.5523 20 15C20 14.4477 19.5523 14 19 14ZM16.1707 14C16.5825 12.8348 17.6938 12 19 12C20.6569 12 22 13.3431 22 15C22 16.6569 20.6569 18 19 18C17.6938 18 16.5825 17.1652 16.1707 16H15C14.4477 16 14 15.5523 14 15C14 14.4477 14.4477 14 15 14H16.1707Z" fill="currentColor"/>
</svg>
