<svg width="24" height="24" viewBox="0 0 24 24" fill="none" xmlns="http://www.w3.org/2000/svg">
<path fill-rule="evenodd" clip-rule="evenodd" d="M2 6C2 4.89543 2.89543 4 4 4H20C21.1046 4 22 4.89543 22 6V18C22 19.1046 21.1046 20 20 20H4C2.89543 20 2 19.1046 2 18V6ZM16 18H20V16L16 16V18ZM14 15.0007V18H4V6L14 6V10.9989C14 10.9993 14 10.9996 14 11C14 11.0004 14 11.0007 14 11.0011L14 14.9993C14 14.9995 14 15.0005 14 15.0007C14 15.001 14 15.0005 14 15.0007ZM16 14L20 14V12L16 12V14ZM16 10L20 10V6H16V10ZM10 11C9.44772 11 9 11.4477 9 12C9 12.5523 9.44772 13 10 13C10.5523 13 11 12.5523 11 12C11 11.4477 10.5523 11 10 11ZM7.17071 11C7.58254 9.83481 8.69378 9 10 9C11.6569 9 13 10.3431 13 12C13 13.6569 11.6569 15 10 15C8.69378 15 7.58254 14.1652 7.17071 13H6C5.44772 13 5 12.5523 5 12C5 11.4477 5.44772 11 6 11H7.17071Z" fill="currentColor"/>
</svg>
