<svg width="24" height="24" viewBox="0 0 24 24" fill="none" xmlns="http://www.w3.org/2000/svg">
<path fill-rule="evenodd" clip-rule="evenodd" d="M2 6C2 4.89543 2.89543 4 4 4H20C21.1046 4 22 4.89543 22 6V18C22 19.1046 21.1046 20 20 20H4C2.89543 20 2 19.1046 2 18V6ZM9 18H11V16H9V18ZM7 16V18H4V16H7ZM20 14V6L4 6V14H20ZM20 16H17V18H20V16ZM15 18V16H13V18H15ZM13 9C12.4477 9 12 9.44772 12 10C12 10.5523 12.4477 11 13 11C13.5523 11 14 10.5523 14 10C14 9.44772 13.5523 9 13 9ZM10.1707 9C10.5825 7.83481 11.6938 7 13 7C14.6569 7 16 8.34315 16 10C16 11.6569 14.6569 13 13 13C11.6938 13 10.5825 12.1652 10.1707 11H9C8.44772 11 8 10.5523 8 10C8 9.44772 8.44772 9 9 9H10.1707Z" fill="currentColor"/>
</svg>
