<svg width="24" height="24" viewBox="0 0 24 24" fill="none" xmlns="http://www.w3.org/2000/svg">
<path fill-rule="evenodd" clip-rule="evenodd" d="M9.67346 8.22322C9.96418 7.81555 10.0938 7.30957 10.0285 6.80504L9.88429 5.69234C9.79959 5.03865 9.39824 4.46867 8.81135 4.1686L6.82953 3.1553C6.05715 2.76038 5.11824 2.90841 4.50483 3.52182L3.64163 4.38503C3.02822 4.99843 2.88019 5.93734 3.27511 6.70972L4.28841 8.69155C4.58848 9.27843 5.15846 9.67978 5.81214 9.76448L6.92484 9.90866C7.38871 9.96876 7.85381 9.864 8.2426 9.62079L9.10642 10.4846L7.82479 11.7662C6.59953 11.7088 5.35318 12.147 4.41496 13.0852C2.97513 14.525 2.71175 16.6898 3.61446 18.3962C3.83073 18.8051 4.17904 19.1214 4.59496 19.2995C4.7731 19.7154 5.08943 20.0638 5.49825 20.28C7.20466 21.1827 9.36945 20.9194 10.8093 19.4795C11.6739 18.6149 12.1139 17.4885 12.1326 16.3581C12.2624 16.5856 12.4244 16.7998 12.6186 16.994L15.7373 20.1126C16.9088 21.2842 18.8083 21.2842 19.9799 20.1126L20.1518 19.9407C21.3234 18.7691 21.3234 16.8696 20.1518 15.6981L17.0332 12.5794C16.7852 12.3314 16.5045 12.1359 16.2051 11.9929L16.2667 11.9313C17.492 11.9887 18.7383 11.5505 19.6765 10.6123C21.1164 9.17245 21.3797 7.00766 20.477 5.30125C20.2607 4.89244 19.9124 4.57611 19.4965 4.39796C19.3184 3.98205 19.0021 3.63374 18.5932 3.41747C16.8868 2.51476 14.722 2.77813 13.2822 4.21797C12.344 5.15618 11.9058 6.40254 11.9632 7.62779L10.5206 9.07037L9.67346 8.22322ZM14.1181 8.30133L8.49833 13.9211C7.83809 13.6738 7.09497 13.7128 6.46091 14.0383C6.23332 14.1551 6.01979 14.3088 5.82917 14.4994C5.746 14.5826 5.66985 14.6701 5.60073 14.7613C5.12043 15.3948 4.97932 16.2034 5.17742 16.9398C5.22564 17.119 5.29394 17.2939 5.38233 17.461L6.84139 16.002L7.89253 17.0531L6.43347 18.5122C6.60056 18.6005 6.7755 18.6689 6.95471 18.7171C7.69109 18.9152 8.49972 18.7741 9.13319 18.2938C9.22436 18.2246 9.31189 18.1485 9.39507 18.0653C9.58551 17.8749 9.73912 17.6615 9.85589 17.4342C10.1816 16.8 10.2208 16.0566 9.97338 15.3962L15.5932 9.77639C16.2534 10.0237 16.9965 9.98467 17.6306 9.65922C17.8582 9.5424 18.0717 9.38868 18.2623 9.19807C18.3455 9.1149 18.4216 9.02736 18.4908 8.9362C18.9711 8.30272 19.1122 7.4941 18.9141 6.75772C18.8658 6.5785 18.7975 6.40357 18.7092 6.23648L17.2501 7.69554L16.199 6.6444L17.658 5.18534C17.4909 5.09694 17.316 5.02864 17.1368 4.98043C16.4004 4.78233 15.5918 4.92343 14.9583 5.40374C14.8671 5.47286 14.7796 5.54901 14.6964 5.63218C14.506 5.82262 14.3524 6.03594 14.2356 6.2633C13.9098 6.8975 13.8707 7.64088 14.1181 8.30133ZM6.06914 7.78106L5.05584 5.79924L5.91904 4.93604L7.90087 5.94934L8.04504 7.06203L7.18184 7.92524L6.06914 7.78106ZM15.619 13.9936L18.7376 17.1123C19.1282 17.5028 19.1282 18.136 18.7376 18.5265L18.5657 18.6984C18.1752 19.089 17.542 19.089 17.1515 18.6984L14.0328 15.5798C13.6423 15.1893 13.6423 14.5561 14.0328 14.1656L14.2048 13.9936C14.5953 13.6031 15.2285 13.6031 15.619 13.9936Z" fill="#101828"/>
</svg>
