<svg width="24" height="24" viewBox="0 0 24 24" fill="none" xmlns="http://www.w3.org/2000/svg">
<path fill-rule="evenodd" clip-rule="evenodd" d="M12 1.84253L18.033 5.3257V12.292L12.6771 15.3843C12.59 15.4569 12.4902 15.515 12.3817 15.5549L12 15.7752L5.96697 12.292V5.3257L12 1.84253ZM13.0373 12.8669L16.033 11.1373V7.60227L13.0373 9.22911V12.8669ZM12.0782 7.47408L15.003 5.88573L12 4.15193L9.03571 5.86337L12.0782 7.47408ZM7.96697 7.56055V11.1373L11.0373 12.91V9.18602L7.96697 7.56055ZM12 18C11.4477 18 11 18.4477 11 19C11 19.5523 11.4477 20 12 20C12.5523 20 13 19.5523 13 19C13 18.4477 12.5523 18 12 18ZM9.1659 18.0137C9.57384 16.8414 10.6887 16 12 16C13.3113 16 14.4262 16.8414 14.8341 18.0137C14.8881 18.0047 14.9435 18 15 18H19C19.5523 18 20 18.4477 20 19C20 19.5523 19.5523 20 19 20H15C14.9435 20 14.8881 19.9953 14.8341 19.9863C14.4262 21.1587 13.3113 22 12 22C10.6887 22 9.57385 21.1587 9.1659 19.9863C9.11194 19.9953 9.05652 20 9 20H5C4.44772 20 4 19.5523 4 19C4 18.4477 4.44772 18 5 18H9C9.05652 18 9.11194 18.0047 9.1659 18.0137Z" fill="currentColor"/>
</svg>
