<svg width="24" height="24" viewBox="0 0 24 24" fill="none" xmlns="http://www.w3.org/2000/svg">
<path fill-rule="evenodd" clip-rule="evenodd" d="M8.58579 2.58579C8.96086 2.21071 9.46957 2 10 2H14C14.5304 2 15.0391 2.21071 15.4142 2.58579C15.7893 2.96086 16 3.46957 16 4V6H19C19.5523 6 20 6.44772 20 7C20 7.55228 19.5523 8 19 8V20C19 20.5304 18.7893 21.0391 18.4142 21.4142C18.0391 21.7893 17.5304 22 17 22H7C6.46957 22 5.96086 21.7893 5.58579 21.4142C5.21071 21.0391 5 20.5304 5 20V8C4.44772 8 4 7.55228 4 7C4 6.44772 4.44772 6 5 6H8V4C8 3.46957 8.21071 2.96086 8.58579 2.58579ZM10 6H14V4H10V6ZM7 8V20H17V8H7ZM10 9C10.5523 9 11 9.44772 11 10V18C11 18.5523 10.5523 19 10 19C9.44772 19 9 18.5523 9 18V10C9 9.44772 9.44772 9 10 9ZM14 9C14.5523 9 15 9.44772 15 10V18C15 18.5523 14.5523 19 14 19C13.4477 19 13 18.5523 13 18V10C13 9.44772 13.4477 9 14 9Z" fill="currentColor"/>
</svg>
