<svg width="24" height="24" viewBox="0 0 24 24" fill="none" xmlns="http://www.w3.org/2000/svg">
<path fill-rule="evenodd" clip-rule="evenodd" d="M2.58579 4.58579C2.96086 4.21071 3.46957 4 4 4H12C12.5304 4 13.0391 4.21071 13.4142 4.58579C13.7893 4.96086 14 5.46957 14 6H19C19.3788 6 19.725 6.214 19.8944 6.55279L21.8944 10.5528C21.9639 10.6916 22 10.8448 22 11V15C22 15.5523 21.5523 16 21 16H20.4646C20.4879 16.1633 20.5 16.3302 20.5 16.5C20.5 18.433 18.933 20 17 20C15.067 20 13.5 18.433 13.5 16.5C13.5 16.3302 13.5121 16.1633 13.5354 16H10.4646C10.4879 16.1633 10.5 16.3302 10.5 16.5C10.5 18.433 8.933 20 7 20C5.067 20 3.5 18.433 3.5 16.5C3.5 16.3302 3.51209 16.1633 3.53544 16H3C2.44772 16 2 15.5523 2 15V6C2 5.46957 2.21071 4.96086 2.58579 4.58579ZM5.792 15.6106C5.79741 15.6036 5.80273 15.5965 5.80796 15.5894C6.08207 15.2311 6.51405 15 7 15C7.48595 15 7.91793 15.2311 8.19204 15.5894C8.19727 15.5965 8.20259 15.6036 8.208 15.6106C8.39153 15.8595 8.5 16.1671 8.5 16.5C8.5 17.3284 7.82843 18 7 18C6.17157 18 5.5 17.3284 5.5 16.5C5.5 16.1671 5.60847 15.8595 5.792 15.6106ZM9.44949 14C8.81822 13.3814 7.95365 13 7 13C6.04635 13 5.18178 13.3814 4.55051 14H4V6H12V14H9.44949ZM14.5505 14H14V8H18.382L19.382 10H16C15.4477 10 15 10.4477 15 11C15 11.5523 15.4477 12 16 12H20V14H19.4495C18.8182 13.3814 17.9537 13 17 13C16.0463 13 15.1818 13.3814 14.5505 14ZM15.792 15.6106C15.7974 15.6036 15.8027 15.5965 15.808 15.5894C16.0821 15.2311 16.5141 15 17 15C17.4859 15 17.9179 15.2311 18.192 15.5894C18.1973 15.5965 18.2026 15.6036 18.208 15.6106C18.3915 15.8595 18.5 16.1671 18.5 16.5C18.5 17.3284 17.8284 18 17 18C16.1716 18 15.5 17.3284 15.5 16.5C15.5 16.1671 15.6085 15.8595 15.792 15.6106Z" fill="currentColor"/>
</svg>
