<svg width="24" height="24" viewBox="0 0 24 24" fill="none" xmlns="http://www.w3.org/2000/svg">
<path fill-rule="evenodd" clip-rule="evenodd" d="M12 3C12.3038 3 12.5911 3.13809 12.7809 3.3753L16.7809 8.37531C17.1259 8.80657 17.056 9.43586 16.6247 9.78087C16.1934 10.1259 15.5641 10.056 15.2191 9.62469L13 6.85078L13 14C13 14.5523 12.5523 15 12 15C11.4477 15 11 14.5523 11 14L11 6.85078L8.78087 9.62469C8.43586 10.056 7.80657 10.1259 7.37531 9.78087C6.94404 9.43586 6.87412 8.80657 7.21913 8.37531L11.2191 3.3753C11.4089 3.13809 11.6962 3 12 3ZM3 15C3 13.8954 3.89543 13 5 13H7C7.55228 13 8 13.4477 8 14C8 14.5523 7.55228 15 7 15H5V19H19V15H17C16.4477 15 16 14.5523 16 14C16 13.4477 16.4477 13 17 13H19C20.1046 13 21 13.8954 21 15V19C21 20.1046 20.1046 21 19 21H5C3.89543 21 3 20.1046 3 19V15ZM16 17C16 16.4477 16.4477 16 17 16H17.01C17.5623 16 18.01 16.4477 18.01 17C18.01 17.5523 17.5623 18 17.01 18H17C16.4477 18 16 17.5523 16 17Z" fill="currentColor"/>
</svg>
