<svg width="24" height="24" viewBox="0 0 24 24" fill="none" xmlns="http://www.w3.org/2000/svg">
<path fill-rule="evenodd" clip-rule="evenodd" d="M11.7196 4.5986C13.0223 3.51305 15 4.43937 15 6.13504V17.865C15 19.5606 13.0223 20.4869 11.7196 19.4014L7.63795 16H6C4.89543 16 4 15.1046 4 14V10C4 8.89543 4.89543 8 6 8H7.63795L11.7196 4.5986ZM13 6.13504L8.64018 9.76822C8.46047 9.91798 8.23394 10 8 10H6V14H8C8.23394 14 8.46047 14.082 8.64018 14.2318L13 17.865L13 6.13504ZM16.7859 7.72924C17.1725 7.33485 17.8057 7.32856 18.2 7.71518C19.3097 8.80297 20 10.3218 20 12C20 13.6349 19.3448 15.1188 18.2848 16.2C17.8982 16.5944 17.2651 16.6007 16.8707 16.2141C16.4763 15.8275 16.47 15.1943 16.8566 14.8C17.5649 14.0774 18 13.0905 18 12C18 10.8808 17.5417 9.87051 16.8 9.14338C16.4056 8.75676 16.3993 8.12363 16.7859 7.72924Z" fill="currentColor"/>
</svg>
