<svg width="24" height="24" viewBox="0 0 24 24" fill="none" xmlns="http://www.w3.org/2000/svg">
<path fill-rule="evenodd" clip-rule="evenodd" d="M9.71963 4.5986C11.0223 3.51305 13 4.43937 13 6.13504V17.865C13 19.5606 11.0223 20.4869 9.71963 19.4014L5.63795 16H4C2.89543 16 2 15.1046 2 14V10C2 8.89543 2.89543 8 4 8H5.63795L9.71963 4.5986ZM11 6.13504L6.64018 9.76822C6.46047 9.91798 6.23394 10 6 10H4V14H6C6.23394 14 6.46047 14.082 6.64018 14.2318L11 17.865L11 6.13504ZM17.6569 4.92893C18.0474 4.53841 18.6805 4.53841 19.0711 4.92893C20.8796 6.73748 22 9.23885 22 12C22 14.7611 20.8796 17.2625 19.0711 19.0711C18.6805 19.4616 18.0474 19.4616 17.6569 19.0711C17.2663 18.6805 17.2663 18.0474 17.6569 17.6569C19.1057 16.208 20 14.2094 20 12C20 9.79058 19.1057 7.79196 17.6569 6.34315C17.2663 5.95262 17.2663 5.31946 17.6569 4.92893ZM14.7859 7.72924C15.1725 7.33485 15.8057 7.32856 16.2 7.71518C17.3097 8.80297 18 10.3218 18 12C18 13.6349 17.3448 15.1188 16.2848 16.2C15.8982 16.5944 15.2651 16.6007 14.8707 16.2141C14.4763 15.8275 14.47 15.1943 14.8566 14.8C15.5649 14.0774 16 13.0905 16 12C16 10.8808 15.5417 9.87051 14.8 9.14338C14.4056 8.75676 14.3993 8.12363 14.7859 7.72924Z" fill="currentColor"/>
</svg>
