<svg width="24" height="24" viewBox="0 0 24 24" fill="none" xmlns="http://www.w3.org/2000/svg">
<path fill-rule="evenodd" clip-rule="evenodd" d="M7 4C7 3.44772 7.44772 3 8 3H8.01C8.56228 3 9.01 3.44772 9.01 4V4.01C9.01 4.56228 8.56228 5.01 8.01 5.01H8C7.44772 5.01 7 4.56228 7 4.01V4ZM11 4C11 3.44772 11.4477 3 12 3H12.01C12.5623 3 13.01 3.44772 13.01 4V4.01C13.01 4.56228 12.5623 5.01 12.01 5.01H12C11.4477 5.01 11 4.56228 11 4.01V4ZM17.44 3C17.7052 3 17.9596 3.10536 18.1471 3.29289L20.7071 5.85289C21.0976 6.24342 21.0976 6.87658 20.7071 7.26711L17.5796 10.3946L16.8725 9.68747L17.5796 10.3946L7.26711 20.7071C6.87658 21.0976 6.24342 21.0976 5.85289 20.7071L3.29289 18.1471C3.10536 17.9596 3 17.7052 3 17.44C3 17.1748 3.10536 16.9204 3.29289 16.7329L16.7329 3.29289C16.9204 3.10536 17.1748 3 17.44 3ZM16.8725 8.27325L18.5858 6.56L17.44 5.41421L15.7267 7.12746L16.8725 8.27325ZM14.3125 8.54168L15.4583 9.68747L6.56 18.5858L5.41421 17.44L14.3125 8.54168ZM9 6C9 5.44772 9.44772 5 10 5H10.01C10.5623 5 11.01 5.44772 11.01 6V6.01C11.01 6.56228 10.5623 7.01 10.01 7.01H10C9.44772 7.01 9 6.56228 9 6.01V6ZM6 6C6.55228 6 7 6.44772 7 7V8H8C8.55228 8 9 8.44772 9 9C9 9.55228 8.55228 10 8 10H7V11C7 11.5523 6.55228 12 6 12C5.44772 12 5 11.5523 5 11V10H4C3.44772 10 3 9.55228 3 9C3 8.44772 3.44772 8 4 8H5V7C5 6.44772 5.44772 6 6 6ZM19 12C19 11.4477 19.4477 11 20 11H20.01C20.5623 11 21.01 11.4477 21.01 12V12.01C21.01 12.5623 20.5623 13.01 20.01 13.01H20C19.4477 13.01 19 12.5623 19 12.01V12ZM17 14C17 13.4477 17.4477 13 18 13H18.01C18.5623 13 19.01 13.4477 19.01 14V14.01C19.01 14.5623 18.5623 15.01 18.01 15.01H18C17.4477 15.01 17 14.5623 17 14.01V14ZM15 15C15.5523 15 16 15.4477 16 16V17H17C17.5523 17 18 17.4477 18 18C18 18.5523 17.5523 19 17 19H16V20C16 20.5523 15.5523 21 15 21C14.4477 21 14 20.5523 14 20V19H13C12.4477 19 12 18.5523 12 18C12 17.4477 12.4477 17 13 17H14V16C14 15.4477 14.4477 15 15 15ZM19 16C19 15.4477 19.4477 15 20 15H20.01C20.5623 15 21.01 15.4477 21.01 16V16.01C21.01 16.5623 20.5623 17.01 20.01 17.01H20C19.4477 17.01 19 16.5623 19 16.01V16Z" fill="currentColor"/>
</svg>
