<svg width="24" height="24" viewBox="0 0 24 24" fill="none" xmlns="http://www.w3.org/2000/svg">
<path fill-rule="evenodd" clip-rule="evenodd" d="M2 6C2 4.89543 2.89543 4 4 4H20C21.1046 4 22 4.89543 22 6V18C22 19.1046 21.1046 20 20 20H4C2.89543 20 2 19.1046 2 18V6ZM20 6L4 6V10H20V6ZM20 12H4V18H20V12ZM5 8C5 7.44772 5.44772 7 6 7H6.01C6.56228 7 7.01 7.44772 7.01 8C7.01 8.55228 6.56228 9 6.01 9H6C5.44772 9 5 8.55228 5 8ZM8 8C8 7.44772 8.44772 7 9 7H9.01C9.56228 7 10.01 7.44772 10.01 8C10.01 8.55228 9.56228 9 9.01 9H9C8.44772 9 8 8.55228 8 8ZM11 8C11 7.44772 11.4477 7 12 7H12.01C12.5623 7 13.01 7.44772 13.01 8C13.01 8.55228 12.5623 9 12.01 9H12C11.4477 9 11 8.55228 11 8Z" fill="currentColor"/>
</svg>
