<svg width="24" height="24" viewBox="0 0 24 24" fill="none" xmlns="http://www.w3.org/2000/svg">
<path fill-rule="evenodd" clip-rule="evenodd" d="M10 4C6.68629 4 4 6.68629 4 10C4 13.3137 6.68629 16 10 16C13.3137 16 16 13.3137 16 10C16 6.68629 13.3137 4 10 4ZM2 10C2 5.58172 5.58172 2 10 2C14.4183 2 18 5.58172 18 10C18 14.4183 14.4183 18 10 18C5.58172 18 2 14.4183 2 10ZM6 10C6 9.44772 6.44771 9 7 9H13C13.5523 9 14 9.44772 14 10C14 10.5523 13.5523 11 13 11H7C6.44771 11 6 10.5523 6 10ZM16.7929 16.7929C17.1834 16.4024 17.8166 16.4024 18.2071 16.7929L21.7071 20.2929C22.0976 20.6834 22.0976 21.3166 21.7071 21.7071C21.3166 22.0976 20.6834 22.0976 20.2929 21.7071L16.7929 18.2071C16.4024 17.8166 16.4024 17.1834 16.7929 16.7929Z" fill="#101828"/>
</svg>
