<svg width="64" height="63" viewBox="0 0 64 63" fill="none" xmlns="http://www.w3.org/2000/svg">
<path d="M29.673 60.1738C15.5345 60.1738 4.07295 48.6824 4.07295 34.5071C4.07295 20.3318 15.5345 8.84045 29.673 8.84045C43.8114 8.84045 55.2729 20.3318 55.2729 34.5071C55.2729 48.6824 43.8114 60.1738 29.673 60.1738Z" fill="#FFB9B9"/>
<path d="M26.5889 22.9532C26.5889 22.9532 30.6745 22.464 30.5118 21.0986C30.5118 21.0986 44.7044 18.9572 51.2773 24.6231C57.8503 30.2891 55.3501 20.8945 55.3501 20.8945C55.3501 20.8945 69.517 12.274 56.4474 6.91461L55.2481 8.44301C55.2481 8.44301 52.0366 4.673 42.3412 4.44901L43.5403 2.92061C43.5403 2.92061 43.3778 1.55522 36.5686 2.37049C29.7594 3.18577 11.2425 -1.52137 11.6696 13.6608C11.6696 13.6608 0.287083 10.8692 1.91341 24.5229C3.53975 38.1767 5.71476 44.8405 5.71476 44.8405C5.71476 44.8405 7.62523 37.6875 13.5604 41.1314C19.4956 44.5753 26.5889 22.9532 26.5889 22.9532Z" fill="#2F2E41"/>
</svg>
