<svg width="72" height="60" viewBox="0 0 72 60" fill="none" xmlns="http://www.w3.org/2000/svg">
<path d="M62.3378 52.374V31.0505C62.3453 27.295 61.608 23.5748 60.1681 20.1028C58.7282 16.6308 56.614 13.475 53.9464 10.816C51.2787 8.15698 48.11 6.04686 44.6213 4.6063C41.1327 3.16573 37.3926 2.42301 33.615 2.4206C29.8374 2.41818 26.0964 3.15615 22.6059 4.59226C19.1154 6.02836 15.9439 8.13444 13.2728 10.7901C10.6017 13.4457 8.48345 16.5987 7.0391 20.0689C5.59474 23.539 4.85267 27.2582 4.8553 31.0137V31.0505C-0.210308 41.5447 2.95877 46.5339 4.8553 52.374C4.85701 53.391 5.26414 54.3658 5.98748 55.0849C6.71082 55.8041 7.69139 56.2088 8.71435 56.2105H58.4769C59.5001 56.2093 60.4812 55.8048 61.2049 55.0856C61.9287 54.3665 62.3361 53.3913 62.3378 52.374Z" fill="#2F2E41"/>
<path d="M43.0202 54.8248C54.902 54.8248 64.534 45.2491 64.534 33.4368C64.534 21.6245 54.902 12.0487 43.0202 12.0487C31.1384 12.0487 21.5063 21.6245 21.5063 33.4368C21.5063 45.2491 31.1384 54.8248 43.0202 54.8248Z" fill="#FFB7B7"/>
<path d="M20.5049 39.0438C20.6999 39.0132 20.8948 38.9723 21.0898 38.9417C24.4457 38.35 27.8015 37.7685 31.1471 37.1665L31.455 29.6269L35.5086 36.3808C44.7552 39.4314 53.4065 37.7072 61.5446 33.9017C64.229 32.6348 66.8336 31.2073 69.3441 29.6269C68.6605 25.457 67.0478 21.4918 64.6241 18.0213C62.2003 14.5508 59.0268 11.6629 55.3358 9.56881C55.0279 9.39531 54.7304 9.24239 54.4224 9.0892L54.4185 9.08846L54.4151 9.08624L54.4129 9.0829L54.4122 9.07898C53.8888 8.83414 53.3551 8.5995 52.8215 8.3853C48.6436 6.76212 44.0881 6.35104 39.6845 7.19987C35.281 8.0487 31.2101 10.1226 27.9452 13.1804C21.3772 19.4142 18.4216 29.7085 20.5049 39.0438Z" fill="#2F2E41"/>
</svg>
