<svg width="24" height="24" viewBox="0 0 24 24" fill="none" xmlns="http://www.w3.org/2000/svg">
<path fill-rule="evenodd" clip-rule="evenodd" d="M13 5C12.4477 5 12 4.55228 12 4C12 3.44772 12.4477 3 13 3H19C19.4045 3 19.7691 3.24364 19.9239 3.61732C20.0787 3.99099 19.9931 4.42111 19.7071 4.70711L15.4142 9H19C19.5523 9 20 9.44772 20 10C20 10.5523 19.5523 11 19 11H13C12.5955 11 12.2309 10.7564 12.0761 10.3827C11.9213 10.009 12.0069 9.57889 12.2929 9.29289L16.5858 5H13ZM6.29289 3.29289C6.68342 2.90237 7.31658 2.90237 7.70711 3.29289L10.7071 6.29289C11.0976 6.68342 11.0976 7.31658 10.7071 7.7071C10.3166 8.09763 9.68342 8.09763 9.29289 7.70711L8 6.41421L8 20C8 20.5523 7.55229 21 7 21C6.44772 21 6 20.5523 6 20L6 6.41421L4.70711 7.70711C4.31658 8.09763 3.68342 8.09763 3.29289 7.70711C2.90237 7.31658 2.90237 6.68342 3.29289 6.29289L6.29289 3.29289ZM16 12C16.3788 12 16.725 12.214 16.8944 12.5528L20.3944 19.5528C20.6414 20.0468 20.4412 20.6474 19.9472 20.8944C19.4532 21.1414 18.8526 20.9412 18.6056 20.4472L17.882 19H14.118L13.3944 20.4472C13.1474 20.9412 12.5468 21.1414 12.0528 20.8944C11.5588 20.6474 11.3586 20.0468 11.6056 19.5528L15.1056 12.5528C15.275 12.214 15.6212 12 16 12ZM15.118 17H16.882L16 15.2361L15.118 17Z" fill="currentColor"/>
</svg>
