<svg width="24" height="24" viewBox="0 0 24 24" fill="none" xmlns="http://www.w3.org/2000/svg">
<path fill-rule="evenodd" clip-rule="evenodd" d="M15.2929 3.29289C15.6834 2.90237 16.3166 2.90237 16.7071 3.29289L19.7071 6.29289C19.9931 6.57889 20.0787 7.00901 19.9239 7.38268C19.7691 7.75636 19.4045 8 19 8H6.00003V10C6.00003 10.5523 5.55231 11 5.00003 11C4.44774 11 4.00003 10.5523 4.00003 10V7C4.00003 6.44772 4.44774 6 5.00003 6H16.5858L15.2929 4.70711C14.9024 4.31658 14.9024 3.68342 15.2929 3.29289ZM12.4472 9.10557C12.786 9.27496 13 9.62123 13 10V14C13 14.5523 12.5523 15 12 15C11.4477 15 11 14.5523 11 14V12L10.6 12.3C10.1582 12.6314 9.5314 12.5418 9.20003 12.1C8.86866 11.6582 8.9582 11.0314 9.40003 10.7L11.4 9.2C11.703 8.97274 12.1085 8.93618 12.4472 9.10557ZM20 14V17C20 17.5523 19.5523 18 19 18H7.41424L8.70713 19.2929C9.09766 19.6834 9.09766 20.3166 8.70713 20.7071C8.31661 21.0976 7.68345 21.0976 7.29292 20.7071L4.29292 17.7071C4.00692 17.4211 3.92137 16.991 4.07615 16.6173C4.23093 16.2436 4.59557 16 5.00003 16H18V14C18 13.4477 18.4477 13 19 13C19.5523 13 20 13.4477 20 14Z" fill="currentColor"/>
</svg>
