<svg width="24" height="24" viewBox="0 0 24 24" fill="none" xmlns="http://www.w3.org/2000/svg">
<path fill-rule="evenodd" clip-rule="evenodd" d="M14 4C14 3.44772 14.4477 3 15 3H17C19.2091 3 21 4.79086 21 7V17C21 19.2091 19.2091 21 17 21H15C14.4477 21 14 20.5523 14 20C14 19.4477 14.4477 19 15 19H17C18.1046 19 19 18.1046 19 17V7C19 5.89543 18.1046 5 17 5H15C14.4477 5 14 4.55228 14 4ZM11.2929 7.29289C11.6834 6.90237 12.3166 6.90237 12.7071 7.29289L16.7071 11.2929C16.8946 11.4804 17 11.7348 17 12C17 12.2652 16.8946 12.5196 16.7071 12.7071L12.7071 16.7071C12.3166 17.0976 11.6834 17.0976 11.2929 16.7071C10.9024 16.3166 10.9024 15.6834 11.2929 15.2929L13.5858 13L4 13C3.44771 13 3 12.5523 3 12C3 11.4477 3.44772 11 4 11L13.5858 11L11.2929 8.70711C10.9024 8.31658 10.9024 7.68342 11.2929 7.29289Z" fill="#101828"/>
</svg>
