<svg width="24" height="24" viewBox="0 0 24 24" fill="none" xmlns="http://www.w3.org/2000/svg">
<path fill-rule="evenodd" clip-rule="evenodd" d="M2.11418 4.53597C2.28679 4.20647 2.62803 4 3 4H16.153C16.4811 4 16.7884 4.16096 16.9751 4.43072L21.8221 11.4307C22.0593 11.7732 22.0593 12.2268 21.8221 12.5693L16.9751 19.5693C16.7884 19.839 16.4811 20 16.153 20H3C2.62803 20 2.28679 19.7935 2.11418 19.464C1.94157 19.1345 1.96612 18.7364 2.17791 18.4306L6.63159 12L2.17791 5.56936C1.96612 5.26356 1.94157 4.86548 2.11418 4.53597ZM4.90898 6L8.67009 11.4306C8.90731 11.7732 8.90731 12.2268 8.67009 12.5694L4.90898 18H15.6291L19.7837 12L15.6291 6H4.90898Z" fill="#101828"/>
</svg>
