<svg width="24" height="24" viewBox="0 0 24 24" fill="none" xmlns="http://www.w3.org/2000/svg">
<path fill-rule="evenodd" clip-rule="evenodd" d="M3 7C3 4.79086 4.79086 3 7 3H9C9.55228 3 10 3.44772 10 4C10 4.55228 9.55228 5 9 5H7C5.89543 5 5 5.89543 5 7V17C5 18.1046 5.89543 19 7 19H9C9.55228 19 10 19.4477 10 20C10 20.5523 9.55228 21 9 21H7C4.79086 21 3 19.2091 3 17V7ZM15.2929 7.29289C15.6834 6.90237 16.3166 6.90237 16.7071 7.29289L20.7071 11.2929C20.8946 11.4804 21 11.7348 21 12C21 12.2652 20.8946 12.5196 20.7071 12.7071L16.7071 16.7071C16.3166 17.0976 15.6834 17.0976 15.2929 16.7071C14.9024 16.3166 14.9024 15.6834 15.2929 15.2929L17.5858 13L8 13C7.44771 13 7 12.5523 7 12C7 11.4477 7.44772 11 8 11L17.5858 11L15.2929 8.70711C14.9024 8.31658 14.9024 7.68342 15.2929 7.29289Z" fill="#101828"/>
</svg>
