<svg width="24" height="24" viewBox="0 0 24 24" fill="none" xmlns="http://www.w3.org/2000/svg">
<path fill-rule="evenodd" clip-rule="evenodd" d="M15.2929 3.29289C15.6834 2.90237 16.3166 2.90237 16.7071 3.29289L19.7071 6.29289C20.0976 6.68342 20.0976 7.31658 19.7071 7.70711L16.7071 10.7071C16.3166 11.0976 15.6834 11.0976 15.2929 10.7071C14.9024 10.3166 14.9024 9.68342 15.2929 9.29289L16.5858 8L6 8V10C6 10.5523 5.55228 11 5 11C4.44772 11 4 10.5523 4 10V7C4 6.44772 4.44772 6 5 6L16.5858 6L15.2929 4.70711C14.9024 4.31658 14.9024 3.68342 15.2929 3.29289ZM8.7071 13.2929C9.09763 13.6834 9.09763 14.3166 8.70711 14.7071L7.41421 16L18 16V14C18 13.4477 18.4477 13 19 13C19.5523 13 20 13.4477 20 14V17C20 17.5523 19.5523 18 19 18L7.41421 18L8.70711 19.2929C9.09763 19.6834 9.09763 20.3166 8.70711 20.7071C8.31658 21.0976 7.68342 21.0976 7.29289 20.7071L4.29289 17.7071C3.90237 17.3166 3.90237 16.6834 4.29289 16.2929L7.29289 13.2929C7.68342 12.9024 8.31658 12.9024 8.7071 13.2929Z" fill="#101828"/>
</svg>
