<svg width="24" height="24" viewBox="0 0 24 24" fill="none" xmlns="http://www.w3.org/2000/svg">
<path fill-rule="evenodd" clip-rule="evenodd" d="M15.2929 3.29289C15.6834 2.90237 16.3166 2.90237 16.7071 3.29289L20.7071 7.29289C21.0976 7.68342 21.0976 8.31658 20.7071 8.70711C20.3166 9.09763 19.6834 9.09763 19.2929 8.70711L17 6.41421L17 17C17 17.5523 16.5523 18 16 18C15.4477 18 15 17.5523 15 17L15 6.41421L12.7071 8.70711C12.3166 9.09763 11.6834 9.09763 11.2929 8.70711C10.9024 8.31658 10.9024 7.68342 11.2929 7.29289L15.2929 3.29289ZM8 6C8.55228 6 9 6.44772 9 7L9 17.5858L11.2929 15.2929C11.6834 14.9024 12.3166 14.9024 12.7071 15.2929C13.0976 15.6834 13.0976 16.3166 12.7071 16.7071L8.70711 20.7071C8.31658 21.0976 7.68342 21.0976 7.29289 20.7071L3.29289 16.7071C2.90237 16.3166 2.90237 15.6834 3.29289 15.2929C3.68342 14.9024 4.31658 14.9024 4.70711 15.2929L7 17.5858L7 7C7 6.44772 7.44771 6 8 6Z" fill="#101828"/>
</svg>
