<svg width="24" height="24" viewBox="0 0 24 24" fill="none" xmlns="http://www.w3.org/2000/svg">
<path fill-rule="evenodd" clip-rule="evenodd" d="M12 3C12.3344 3 12.6466 3.1671 12.8321 3.4453L16.8321 9.4453C17.0366 9.75216 17.0557 10.1467 16.8817 10.4719C16.7077 10.797 16.3688 11 16 11H8C7.63121 11 7.29235 10.797 7.11833 10.4719C6.94431 10.1467 6.96338 9.75216 7.16795 9.4453L11.168 3.4453C11.3534 3.1671 11.6656 3 12 3ZM12 5.80278L9.86852 9H14.1315L12 5.80278ZM9.86852 15L12 18.1972L14.1315 15L9.86852 15ZM8 13L16 13C16.3688 13 16.7077 13.203 16.8817 13.5281C17.0557 13.8533 17.0366 14.2478 16.8321 14.5547L12.8321 20.5547C12.6466 20.8329 12.3344 21 12 21C11.6656 21 11.3534 20.8329 11.168 20.5547L7.16795 14.5547C6.96338 14.2478 6.94431 13.8533 7.11833 13.5281C7.29235 13.203 7.63121 13 8 13Z" fill="#101828"/>
</svg>
