<svg width="24" height="24" viewBox="0 0 24 24" fill="none" xmlns="http://www.w3.org/2000/svg">
<path fill-rule="evenodd" clip-rule="evenodd" d="M8 3C8.55228 3 9 3.44772 9 4V8C9 8.55228 8.55228 9 8 9H4C3.44772 9 3 8.55228 3 8C3 7.44772 3.44772 7 4 7H7V4C7 3.44772 7.44772 3 8 3ZM16 3C16.5523 3 17 3.44772 17 4V7H20C20.5523 7 21 7.44772 21 8C21 8.55228 20.5523 9 20 9H16C15.4477 9 15 8.55228 15 8V4C15 3.44772 15.4477 3 16 3ZM3 16C3 15.4477 3.44772 15 4 15H8C8.55228 15 9 15.4477 9 16V20C9 20.5523 8.55228 21 8 21C7.44772 21 7 20.5523 7 20V17H4C3.44772 17 3 16.5523 3 16ZM15 16C15 15.4477 15.4477 15 16 15H20C20.5523 15 21 15.4477 21 16C21 16.5523 20.5523 17 20 17H17V20C17 20.5523 16.5523 21 16 21C15.4477 21 15 20.5523 15 20V16Z" fill="#101828"/>
</svg>
