<svg width="24" height="24" viewBox="0 0 24 24" fill="none" xmlns="http://www.w3.org/2000/svg">
<path fill-rule="evenodd" clip-rule="evenodd" d="M13.0282 5.34537C13.0278 5.35252 13.0276 5.36006 13.0276 5.36802V7.99987C13.0276 8.52249 12.6252 8.95696 12.1041 8.99694C9.62783 9.18693 7.6177 10.2135 6.39497 11.8415C5.7619 12.6844 5.31246 13.7251 5.12992 14.9589C5.69267 14.3088 6.33636 13.7381 6.9722 13.2596C7.88186 12.5751 8.84803 12.0226 9.70981 11.6377C10.5326 11.2702 11.3826 10.9999 12.0276 10.9999C12.5799 10.9999 13.0276 11.4476 13.0276 11.9999V14.3C13.0276 14.3076 13.0278 14.3148 13.0282 14.3217L17.9785 9.97035C17.9944 9.9534 18.0072 9.93378 18.0164 9.91236C18.0271 9.88745 18.0326 9.86062 18.0326 9.83352C18.0326 9.80641 18.0271 9.77959 18.0164 9.75467C18.0072 9.73326 17.9944 9.71364 17.9785 9.69668L13.0282 5.34537ZM14.2128 3.72374C13.5576 3.14529 12.7029 3.12371 12.0504 3.50564C11.4211 3.87407 11.0276 4.57607 11.0276 5.36802V7.1089C8.4749 7.50232 6.25334 8.6998 4.7958 10.6404C3.157 12.8223 2.58601 15.8072 3.42197 19.309C3.53971 19.8022 4.00795 20.1292 4.51153 20.0699C5.01512 20.0107 5.39463 19.5839 5.39463 19.0768C5.39463 17.5957 6.54212 16.0862 8.17475 14.8577C8.96078 14.2662 9.79658 13.7893 10.5254 13.4638C10.7064 13.383 10.8742 13.3145 11.0276 13.2569V14.3C11.0276 15.0912 11.4208 15.7936 12.0496 16.1626C12.7025 16.5456 13.5586 16.5239 14.2139 15.9423L19.3198 11.4541C19.3297 11.4455 19.3393 11.4366 19.3488 11.4276C19.5649 11.2221 19.7369 10.9748 19.8544 10.7008C19.972 10.4268 20.0326 10.1317 20.0326 9.83352C20.0326 9.53534 19.972 9.24027 19.8544 8.96624C19.7369 8.69221 19.5649 8.44493 19.3488 8.23943C19.3393 8.23041 19.3297 8.22158 19.3198 8.21294L14.2142 3.72502C14.2137 3.72459 14.2132 3.72417 14.2128 3.72374Z" fill="currentColor"/>
</svg>
