<svg width="24" height="24" viewBox="0 0 24 24" fill="none" xmlns="http://www.w3.org/2000/svg">
<path fill-rule="evenodd" clip-rule="evenodd" d="M17.9999 3C18.5522 3 18.9999 3.44772 18.9999 4V8C18.9999 8.55228 18.5522 9 17.9999 9H13.9999C13.4477 9 12.9999 8.55228 12.9999 8C12.9999 7.44772 13.4477 7 13.9999 7H15.5477C15.0804 6.66844 14.5665 6.40228 14.0198 6.21152C12.8945 5.81886 11.6792 5.76269 10.5225 6.0499C9.36585 6.3371 8.31796 6.95521 7.50705 7.82862C6.69615 8.70202 6.15739 9.79284 5.95671 10.9676C5.86371 11.512 5.347 11.878 4.8026 11.785C4.2582 11.692 3.89227 11.1753 3.98527 10.6309C4.25142 9.07282 4.96593 7.62615 6.04137 6.46782C7.11681 5.30948 8.50656 4.48973 10.0406 4.10883C11.5746 3.72794 13.1864 3.80243 14.6787 4.32319C15.5207 4.61698 16.304 5.04561 16.9999 5.58835V4C16.9999 3.44772 17.4477 3 17.9999 3ZM19.1972 12.215C19.7416 12.308 20.1076 12.8247 20.0146 13.3691C19.7484 14.9272 19.0339 16.3739 17.9585 17.5322C16.883 18.6905 15.4933 19.5103 13.9593 19.8912C12.4252 20.2721 10.8135 20.1976 9.3211 19.6768C8.4792 19.383 7.6959 18.9544 6.99995 18.4117V20C6.99995 20.5523 6.55223 21 5.99995 21C5.44766 21 4.99995 20.5523 4.99995 20V16C4.99995 15.4477 5.44766 15 5.99995 15H9.99995C10.5522 15 10.9999 15.4477 10.9999 16C10.9999 16.5523 10.5522 17 9.99995 17H8.45219C8.91947 17.3316 9.43337 17.5977 9.98003 17.7885C11.1053 18.1811 12.3206 18.2373 13.4773 17.9501C14.634 17.6629 15.6819 17.0448 16.4928 16.1714C17.3037 15.298 17.8424 14.2072 18.0431 13.0324C18.1361 12.488 18.6528 12.122 19.1972 12.215Z" fill="currentColor"/>
</svg>
