<svg width="24" height="24" viewBox="0 0 24 24" fill="none" xmlns="http://www.w3.org/2000/svg">
<path fill-rule="evenodd" clip-rule="evenodd" d="M10.9772 4.25662C11.6065 4.62504 12 5.32705 12 6.11899V7.04599H14.5L14.5164 7.04613C16.0912 7.07193 17.6047 7.66066 18.7831 8.70577C19.9614 9.75088 20.7267 11.1833 20.9404 12.7438C21.1541 14.3042 20.8021 15.8897 19.948 17.2131C19.094 18.5365 17.7945 19.5104 16.2845 19.9586C15.982 20.0485 15.6548 19.9902 15.4019 19.8014C15.149 19.6127 15 19.3156 15 19V16.1614C15.002 15.8957 14.9517 15.6322 14.8519 15.386C14.7521 15.1398 14.6048 14.9156 14.4184 14.7264C14.232 14.5371 14.0101 14.3864 13.7654 14.2828C13.5218 14.1797 13.2603 14.1254 12.9958 14.123H12V15.051C12 15.8422 11.6068 16.5446 10.978 16.9135C10.325 17.2966 9.46893 17.2749 8.81362 16.6932L3.70776 12.2051C3.69793 12.1964 3.68827 12.1876 3.67878 12.1786C3.46273 11.9731 3.2907 11.7258 3.17316 11.4518C3.05561 11.1777 2.995 10.8827 2.995 10.5845C2.995 10.2863 3.05561 9.99125 3.17316 9.71722C3.2907 9.44319 3.46273 9.19591 3.67878 8.99041C3.68827 8.98139 3.69793 8.97256 3.70776 8.96391L8.8134 4.476C8.81386 4.47559 8.81432 4.47518 8.81478 4.47477C9.46992 3.89626 10.3247 3.87468 10.9772 4.25662ZM9.99936 6.09634L5.04913 10.4477C5.03323 10.4646 5.02038 10.4842 5.01119 10.5057C5.00051 10.5306 4.995 10.5574 4.995 10.5845C4.995 10.6116 5.00051 10.6384 5.01119 10.6633C5.02038 10.6848 5.03323 10.7044 5.04913 10.7213L9.99941 15.0727C9.99977 15.0658 9.99997 15.0586 9.99997 15.051V13.123C9.99997 12.5707 10.4477 12.123 11 12.123H13.0076C13.5359 12.127 14.0582 12.2351 14.5448 12.4409C15.0313 12.6468 15.4726 12.9465 15.8433 13.3229C16.214 13.6994 16.507 14.1451 16.7055 14.6347C16.9034 15.1231 17.0035 15.6456 17 16.1725V17.4302C17.5011 17.0877 17.9333 16.6466 18.2676 16.1286C18.8625 15.2067 19.1077 14.1022 18.9589 13.0151C18.81 11.928 18.2769 10.9301 17.456 10.202C16.637 9.4757 15.5857 9.06577 14.4914 9.04599H11C10.4477 9.04599 9.99997 8.59828 9.99997 8.04599V6.11899C9.99997 6.11104 9.99976 6.10349 9.99936 6.09634Z" fill="#101828"/>
</svg>
