<svg width="24" height="24" viewBox="0 0 24 24" fill="none" xmlns="http://www.w3.org/2000/svg">
<path fill-rule="evenodd" clip-rule="evenodd" d="M9.50132 5.33219C9.13249 4.92111 8.50025 4.88686 8.08917 5.25569L2.56474 10.2124C2.35493 10.4044 2.18742 10.6381 2.0728 10.8984C1.95817 11.1587 1.89897 11.4401 1.89897 11.7245C1.89897 12.009 1.95817 12.2903 2.0728 12.5506C2.18742 12.8109 2.35497 13.0446 2.56478 13.2366L2.56826 13.2398L8.17926 18.3278C8.58838 18.6988 9.22079 18.6679 9.59178 18.2587C9.96278 17.8496 9.93186 17.2172 9.52273 16.8462L3.91521 11.7614C3.91543 11.7616 3.915 11.7612 3.91521 11.7614C3.9104 11.7568 3.90589 11.7507 3.90321 11.7447C3.90042 11.7383 3.89897 11.7314 3.89897 11.7245C3.89897 11.7176 3.90042 11.7107 3.90321 11.7044C3.90577 11.6986 3.9094 11.6933 3.9139 11.6889L9.42482 6.74433C9.8359 6.3755 9.87014 5.74326 9.50132 5.33219ZM14.5819 5.73363C14.2496 5.54911 13.8705 5.46578 13.4914 5.49389C13.1122 5.52199 12.7496 5.6603 12.448 5.89181C12.4376 5.89979 12.4274 5.90798 12.4173 5.91637L7.30931 10.1674C7.30127 10.1741 7.29333 10.1809 7.2855 10.1878C7.06331 10.3849 6.88545 10.6268 6.76364 10.8976C6.64182 11.1685 6.57884 11.462 6.57884 11.759C6.57884 12.056 6.64182 12.3496 6.76364 12.6204C6.88545 12.8912 7.06331 13.1332 7.2855 13.3302C7.29333 13.3371 7.30127 13.344 7.30931 13.3506L12.4173 17.6017C12.4268 17.6095 12.4364 17.6173 12.4462 17.6248C12.7476 17.8573 13.1103 17.9964 13.4898 18.0251C13.8693 18.0537 14.2489 17.9706 14.5817 17.7861C14.9145 17.6016 15.1861 17.3236 15.3628 16.9866C15.5305 16.6667 15.6058 16.3069 15.581 15.9474V15.5288C16.0198 15.6516 16.4379 15.846 16.8175 16.1064C17.4816 16.5619 17.9997 17.1999 18.3094 17.9432C18.4625 18.3259 18.7494 18.6401 19.1171 18.8272C19.4885 19.0161 19.9164 19.0621 20.3194 18.9563C20.7225 18.8505 21.0727 18.6003 21.3035 18.2533C21.5184 17.9302 21.6158 17.5439 21.581 17.1591V15.885C21.581 12.1125 19.0406 8.84219 15.581 8.30744V7.5711C15.6055 7.21168 15.5299 6.85208 15.3622 6.53242C15.1855 6.19579 14.9143 5.91814 14.5819 5.73363ZM14.6885 13.3788C14.5252 13.3611 14.3567 13.3835 14.1984 13.4491C13.8247 13.6039 13.581 13.9685 13.581 14.373V15.9681L8.60723 11.8288C8.59908 11.8204 8.59245 11.8107 8.58764 11.8C8.58184 11.7871 8.57884 11.7732 8.57884 11.759C8.57884 11.7449 8.58184 11.7309 8.58764 11.718C8.59245 11.7073 8.59908 11.6976 8.60723 11.6892L13.581 7.54992V9.23101C13.581 9.78329 14.0287 10.231 14.581 10.231C17.2461 10.231 19.581 12.6627 19.581 15.885V16.105C19.148 15.4606 18.5951 14.9004 17.9488 14.4571C16.9854 13.7963 15.8548 13.4227 14.6885 13.3788ZM20.1673 17.2027C20.1665 17.2008 20.1658 17.1989 20.165 17.1971L20.1673 17.2027Z" fill="currentColor"/>
</svg>
