<svg width="24" height="24" viewBox="0 0 24 24" fill="none" xmlns="http://www.w3.org/2000/svg">
<path fill-rule="evenodd" clip-rule="evenodd" d="M14.3966 5.33225C14.0278 5.74336 14.0621 6.3756 14.4732 6.74439L19.9851 11.6889C19.9896 11.6933 19.9932 11.6986 19.9958 11.7044C19.9986 11.7107 20 11.7176 20 11.7245C20 11.7314 19.9986 11.7383 19.9958 11.7447C19.9931 11.7507 19.9892 11.7562 19.9844 11.7608C19.9846 11.7606 19.9842 11.761 19.9844 11.7608L14.3753 16.8462C13.9661 17.2171 13.9352 17.8495 14.3061 18.2587C14.6771 18.6678 15.3095 18.6988 15.7187 18.3279L21.3342 13.2366C21.544 13.0446 21.7116 12.8109 21.8262 12.5506C21.9408 12.2903 22 12.009 22 11.7245C22 11.4401 21.9408 11.1587 21.8262 10.8984C21.7116 10.6381 21.544 10.4045 21.3342 10.2124L21.3268 10.2056L15.8087 5.25563C15.3976 4.88684 14.7654 4.92114 14.3966 5.33225ZM9.89304 7.54907L14.8678 11.6892C14.876 11.6976 14.8826 11.7073 14.8874 11.718C14.8932 11.7309 14.8962 11.7449 14.8962 11.759C14.8962 11.7731 14.8932 11.7871 14.8874 11.8C14.8826 11.8107 14.876 11.8204 14.8678 11.8288L9.89304 15.9689V14.373C9.89304 13.9942 9.67902 13.6479 9.34022 13.4785C9.16552 13.3912 8.9731 13.3586 8.78614 13.3787C7.61926 13.4223 6.48806 13.796 5.52425 14.4571C4.87842 14.9001 4.32594 15.4597 3.89304 16.1035V15.885C3.89304 12.6626 6.22796 10.231 8.89304 10.231C9.44533 10.231 9.89304 9.78328 9.89304 9.23099V7.54907ZM7.89304 15.5285V15.948C7.8686 16.3077 7.94433 16.6675 8.11235 16.9872C8.28926 17.3239 8.56077 17.6015 8.89345 17.7859C9.22614 17.9702 9.60546 18.0532 9.98473 18.0247C10.364 17.9962 10.7266 17.8574 11.028 17.6254C11.0381 17.6177 11.048 17.6097 11.0577 17.6016L16.1657 13.3506C16.1738 13.3439 16.1817 13.3371 16.1895 13.3302C16.4117 13.1331 16.5896 12.8912 16.7114 12.6204C16.8332 12.3496 16.8962 12.056 16.8962 11.759C16.8962 11.462 16.8332 11.1684 16.7114 10.8976C16.5896 10.6268 16.4117 10.3848 16.1895 10.1878C16.1817 10.1809 16.1738 10.174 16.1657 10.1674L11.0577 5.91635C11.048 5.90827 11.0381 5.90037 11.0281 5.89267C10.7266 5.66049 10.3638 5.52162 9.98427 5.49316C9.60478 5.46471 9.22527 5.54791 8.89249 5.73252C8.55972 5.91713 8.28823 6.19507 8.1115 6.53209C7.94375 6.85198 7.86832 7.21184 7.89304 7.57145V8.30742C4.4334 8.84217 1.89304 12.1124 1.89304 15.885V17.1613C1.8597 17.5458 1.9582 17.9311 2.1737 18.2533C2.40445 18.5982 2.75343 18.8469 3.15484 18.9523C3.55625 19.0577 3.98236 19.0127 4.35284 18.8256C4.72069 18.6399 5.00845 18.327 5.1628 17.9452C5.47239 17.201 5.99083 16.5623 6.65556 16.1064C7.03547 15.8458 7.45384 15.6512 7.89304 15.5285Z" fill="currentColor"/>
</svg>
