<svg width="24" height="24" viewBox="0 0 24 24" fill="none" xmlns="http://www.w3.org/2000/svg">
<path fill-rule="evenodd" clip-rule="evenodd" d="M15.2929 3.29289C15.6834 2.90237 16.3166 2.90237 16.7071 3.29289L19.7071 6.29289C20.0976 6.68341 20.0976 7.31658 19.7071 7.7071C19.3166 8.09763 18.6834 8.09763 18.2929 7.7071L17 6.41421L17 14C17 14.5523 16.5523 15 16 15C15.4477 15 15 14.5523 15 14L15 6.41421L13.7071 7.70711C13.3166 8.09763 12.6834 8.09763 12.2929 7.70711C11.9024 7.31658 11.9024 6.68342 12.2929 6.29289L15.2929 3.29289ZM8 9C8.55228 9 9 9.44771 9 10L9 17.5858L10.2929 16.2929C10.6834 15.9024 11.3166 15.9024 11.7071 16.2929C12.0976 16.6834 12.0976 17.3166 11.7071 17.7071L8.70711 20.7071C8.31658 21.0976 7.68342 21.0976 7.29289 20.7071L4.29289 17.7071C3.90237 17.3166 3.90237 16.6834 4.29289 16.2929C4.68342 15.9024 5.31658 15.9024 5.70711 16.2929L7 17.5858L7 10C7 9.44771 7.44771 9 8 9Z" fill="currentColor"/>
</svg>
