<svg width="24" height="24" viewBox="0 0 24 24" fill="none" xmlns="http://www.w3.org/2000/svg">
<path fill-rule="evenodd" clip-rule="evenodd" d="M15.2929 3.29289C15.6834 2.90237 16.3166 2.90237 16.7071 3.29289L20.7071 7.29289C20.8946 7.48043 21 7.73478 21 8C21 8.26522 20.8946 8.51957 20.7071 8.70711L16.7071 12.7071C16.3166 13.0976 15.6834 13.0976 15.2929 12.7071C14.9024 12.3166 14.9024 11.6834 15.2929 11.2929L17.5858 9L7 9C6.44772 9 6 8.55229 6 8C6 7.44772 6.44772 7 7 7L17.5858 7L15.2929 4.70711C14.9024 4.31658 14.9024 3.68342 15.2929 3.29289ZM8.70711 11.2929C9.09763 11.6834 9.09763 12.3166 8.70711 12.7071L6.41421 15L17 15C17.5523 15 18 15.4477 18 16C18 16.5523 17.5523 17 17 17L6.41421 17L8.70711 19.2929C9.09763 19.6834 9.09763 20.3166 8.70711 20.7071C8.31658 21.0976 7.68342 21.0976 7.29289 20.7071L3.29289 16.7071C2.90237 16.3166 2.90237 15.6834 3.29289 15.2929L7.29289 11.2929C7.68342 10.9024 8.31658 10.9024 8.70711 11.2929Z" fill="currentColor"/>
</svg>
