<svg width="513" height="342" viewBox="0 0 513 342" fill="none" xmlns="http://www.w3.org/2000/svg">
<g clip-path="url(#clip0_301_1711)">
<path d="M0 0H513V342H0V0Z" fill="#0052B4"/>
<path d="M440.1 181.1C440 220.3 433.7 262.5 382.7 282.6C331.6 262.5 325.4 220.3 325.3 181.1H440.1Z" fill="white"/>
<path d="M439.6 197.7C436.8 232.6 427.2 265.1 382.6 282.7C338.2 265.1 328.1 231.5 325.7 197.8" fill="#29DBFF"/>
<path d="M437.8 214.1C434.6 238.4 421.1 267.6 382.7 282.7C344.3 267.6 332.2 240.2 327.6 214.3" fill="white"/>
<path d="M434.2 230.3C428.5 248 414.9 269.7 382.9 283.1C350.9 270.5 337.7 249.3 331.5 230.1" fill="#29DBFF"/>
<path d="M426.7 246.9C420.2 258.2 409 272.3 382.7 282.8C355.2 271.3 345.3 257.5 338.7 246.7" fill="white"/>
<path d="M412.4 265.1C404.3 272.3 400.4 276.3 382.8 283C362.7 275.1 360.2 271.4 353.6 265.5" fill="#29DBFF"/>
<path d="M383.3 231.6C383.1 231.4 355.4 267.3 355.4 267.3C353.6 266 345.4 257.8 342.1 252.3L383.4 202.2L423.6 251.9C419.7 258.4 412.2 265.5 410.4 266.9L383.3 231.6ZM382.6 85.3L356.1 130.3H409.1L382.6 85.3Z" fill="#5CC85C"/>
<path d="M306.999 227.822C310.603 201.168 306.559 178.619 297.966 177.458C289.373 176.296 279.486 196.961 275.882 223.615C272.279 250.269 276.323 272.818 284.916 273.979C293.508 275.141 303.395 254.476 306.999 227.822Z" fill="#F7A226"/>
<path d="M309.8 167.355C312.21 161.359 311.173 155.297 307.484 153.814C303.794 152.33 298.85 155.988 296.439 161.983C294.029 167.979 295.066 174.042 298.756 175.525C302.445 177.008 307.39 173.35 309.8 167.355Z" fill="#DDC7AB"/>
<path d="M294.966 272.169C295.871 265.938 295.142 260.675 293.339 260.413C291.535 260.151 289.339 264.99 288.435 271.22C287.53 277.451 288.259 282.714 290.062 282.976C291.866 283.238 294.061 278.399 294.966 272.169Z" fill="#DDC7AB"/>
<path d="M300.198 280.394C302.018 280.296 303.23 275.299 302.905 269.233C302.58 263.166 300.841 258.327 299.021 258.425C297.201 258.522 295.989 263.519 296.314 269.586C296.639 275.653 298.378 280.491 300.198 280.394Z" fill="#DDC7AB"/>
<path d="M319.542 213.857C321.649 213.026 321.107 206.647 318.332 199.608C315.556 192.569 311.599 187.536 309.492 188.367C307.386 189.197 307.928 195.577 310.703 202.616C313.478 209.655 317.436 214.688 319.542 213.857Z" fill="#DDC7AB"/>
<path d="M319.013 181.917C326.052 179.141 331.085 175.184 330.254 173.077C329.424 170.971 323.044 171.513 316.005 174.288C308.966 177.063 303.934 181.021 304.764 183.127C305.595 185.234 311.974 184.692 319.013 181.917Z" fill="#DDC7AB"/>
<path d="M480.133 274.185C488.725 273.023 492.77 250.474 489.166 223.82C485.562 197.167 475.675 176.501 467.082 177.663C458.49 178.825 454.445 201.374 458.049 228.027C461.653 254.681 471.54 275.347 480.133 274.185Z" fill="#F7A226"/>
<path d="M466.381 175.774C470.07 174.291 471.107 168.229 468.697 162.233C466.287 156.238 461.342 152.58 457.653 154.063C453.963 155.546 452.926 161.609 455.336 167.604C457.747 173.6 462.692 177.258 466.381 175.774Z" fill="#DDC7AB"/>
<path d="M475.037 283.163C476.841 282.901 477.569 277.637 476.663 271.407C475.758 265.176 473.561 260.338 471.758 260.6C469.954 260.862 469.226 266.125 470.132 272.356C471.037 278.587 473.234 283.425 475.037 283.163Z" fill="#DDC7AB"/>
<path d="M468.776 269.758C469.101 263.691 467.89 258.694 466.07 258.597C464.25 258.499 462.511 263.338 462.185 269.405C461.86 275.471 463.072 280.468 464.892 280.566C466.712 280.664 468.451 275.825 468.776 269.758Z" fill="#DDC7AB"/>
<path d="M454.34 202.689C457.115 195.65 457.657 189.271 455.551 188.44C453.444 187.609 449.487 192.642 446.712 199.681C443.936 206.72 443.394 213.1 445.501 213.93C447.607 214.761 451.565 209.728 454.34 202.689Z" fill="#DDC7AB"/>
<path d="M460.365 183.284C461.196 181.178 456.163 177.22 449.124 174.445C442.085 171.67 435.705 171.128 434.875 173.234C434.044 175.341 439.077 179.298 446.116 182.073C453.155 184.849 459.534 185.391 460.365 183.284Z" fill="#DDC7AB"/>
<path d="M373.3 130.3L356.1 155L373.9 181.1H396L400.7 155.7L395.3 130.3H373.3Z" fill="#B0C6CC"/>
<path d="M256 0V117.4H209.9L256 148.1V170.7H233.4L160 121.8V170.7H96V121.8L22.6 170.7H0V148.1L46.1 117.4H0V53.4H46.1L0 22.7V0H22.6L96 48.9V0H160V48.9L233.4 0H256Z" fill="white"/>
<path d="M144 0H112V69.4H0V101.4H112V170.7H144V101.4H256V69.4H144V0Z" fill="#D80027"/>
<path d="M256 22.7V53.4H209.9L256 22.7Z" fill="#2E52B2"/>
<path d="M0 170.7V159.7L62.5 117.4H85.1L7.3 170.7H0Z" fill="#D80027"/>
<path d="M7.3 0.0999756L85.1 53.3H62.5L0 11.1V0.0999756H7.3ZM256 0.0999756V11.1L193.5 53.4H170.9L248.7 0.0999756H256ZM248.7 170.7L170.9 117.4H193.5L256 159.7V170.7H248.7Z" fill="#D80027"/>
</g>
<defs>
<clipPath id="clip0_301_1711">
<rect width="513" height="342" fill="white"/>
</clipPath>
</defs>
</svg>
