<svg width="513" height="342" viewBox="0 0 513 342" fill="none" xmlns="http://www.w3.org/2000/svg">
<g clip-path="url(#clip0_301_1698)">
<path d="M0 0H513V342H0V0Z" fill="#FFDA44"/>
<path d="M0 0H171V342H0V0Z" fill="#0052B4"/>
<path d="M342 0H513V342H342V0ZM198.9 113.6H256V178.4H198.9V113.6Z" fill="#D80027"/>
<path d="M267.6 113.6V178.3V113.6ZM284.2 113.6V178.3V113.6ZM300.8 113.6V178.3V113.6Z" fill="black"/>
<path fill-rule="evenodd" clip-rule="evenodd" d="M271.1 113.6V178.3H264.1V113.6H271.1ZM287.7 113.6V178.3H280.7V113.6H287.7ZM297.3 178.3V113.6H304.3V178.3H297.3Z" fill="#D80027"/>
<path d="M247.4 178.4V243.1V178.4ZM234.1 178.4V243.1V178.4ZM220.8 178.5V232.4V178.5ZM207.1 178.5V225.6V178.5Z" fill="black"/>
<path fill-rule="evenodd" clip-rule="evenodd" d="M236.6 178.4V243.1H231.6V178.4H236.6ZM249.9 178.4V243.1H244.9V178.4H249.9ZM204.6 225.6V178.5H209.6V225.6H204.6ZM223.3 178.5V232.4H218.3V178.5H223.3Z" fill="#D80027"/>
<path d="M199.9 146L227.5 113.6L256 145.9L227.9 178.3L199.9 146Z" fill="#FFDA44"/>
<path d="M182.2 95.9V188.1C182.2 222.4 209.5 242.3 230.8 252.6C230 254 255.9 260.9 255.9 260.9C255.9 260.9 281.8 254 281 252.6C302.4 242.3 329.6 222.5 329.6 188.1V95.9H182.2ZM312.1 188.1C312.1 205 302.1 217.5 279.3 232C270.7 237.5 261.8 241 256 243C250.2 241 241.3 237.5 232.7 232C209.9 217.5 199.9 204 199.9 188.1V113.6H312.1V188.1Z" fill="#BC8B00"/>
<path d="M264.4 188.9H293.9V197.5H264.4V188.9ZM264.4 206.5H293.9V215.1H264.4V206.5Z" fill="#D80027"/>
</g>
<defs>
<clipPath id="clip0_301_1698">
<rect width="513" height="342" fill="white"/>
</clipPath>
</defs>
</svg>
