<svg width="513" height="342" viewBox="0 0 513 342" fill="none" xmlns="http://www.w3.org/2000/svg">
<g clip-path="url(#clip0_301_1669)">
<path d="M0 0H513V342H0V0Z" fill="#00318B"/>
<path d="M454.8 265.38C462.74 254.45 468.04 241.11 468.04 224.96V104.89C457.658 112.703 445.013 116.919 432.02 116.9C412.38 116.9 394.95 107.47 383.99 92.8899C373.04 107.47 355.6 116.9 335.96 116.9C322.44 116.9 309.97 112.43 299.94 104.9V224.96C299.94 241.12 305.24 254.46 313.18 265.38H454.8Z" fill="white"/>
<path d="M310.23 260.98C332.65 296.96 384 309 384 309C384 309 435.35 296.96 457.77 260.98H310.23Z" fill="#8DCCFF"/>
<path d="M396.66 172.21C396.98 173.63 405.38 182.38 414.22 192.36C415.61 193.93 405.48 204.99 407.31 204.95C412.06 204.83 426.58 187.69 426.65 211.6C426.7 227.54 396.65 239.11 396.65 239.11H414.12L414.77 254.07C414.77 254.07 419.74 240.73 422.36 237.5C430.46 227.53 442.54 207.43 456.95 210.4C471.36 213.37 443.29 196.48 443.29 196.48C443.29 196.48 438.09 181.29 426.66 179.51C416.6 177.94 412.37 177 400.02 172.21C398.34 171.56 396.14 169.89 396.66 172.21Z" fill="#D87B00"/>
<path d="M359.69 198.69C360.76 197.7 364.15 186.06 368.38 173.41C369.05 171.42 383.69 174.68 382.73 173.11C380.26 169.05 358.15 165.03 378.83 153.03C392.62 145.03 417.65 165.3 417.65 165.3L408.93 150.16L421.57 142.13C421.57 142.13 407.52 144.48 403.43 143.82C390.75 141.78 367.3 141.34 362.68 127.37C358.06 113.4 357.43 146.16 357.43 146.16C357.43 146.16 346.87 158.24 351.03 169.04C354.69 178.54 355.99 182.68 358 195.77C358.29 197.56 357.94 200.3 359.69 198.69Z" fill="#D87B00"/>
<path d="M395.67 219.87C394.28 219.44 382.51 222.36 369.45 225.05C367.39 225.47 362.86 211.17 361.98 212.79C359.71 216.96 367.34 238.1 346.57 226.24C332.73 218.33 337.68 186.51 337.68 186.51L328.97 201.65L315.68 194.75C315.68 194.75 324.77 205.71 326.25 209.59C330.85 221.58 342.25 242.08 332.49 253.08C322.73 264.09 351.37 248.18 351.37 248.18C351.37 248.18 367.13 251.25 374.37 242.22C380.75 234.28 383.67 231.08 393.98 222.77C395.41 221.65 397.95 220.58 395.67 219.87Z" fill="#D87B00"/>
<path d="M256.5 0H233.4L160 48.9V0H96V48.9L22.6 0H0V22.7L46.1 53.4H0V117.4H46.1L0 148.1V171H22.6L96 121.8V171H160V121.8L233.4 171H256.5V148.1L209.9 117.4H256.5V53.4H209.9L256.5 22.7V0Z" fill="white"/>
<path d="M144 0H112V69.4H0V101.4H112V171H144V101.4H256.5V69.4H144V0Z" fill="#D80027"/>
<path d="M0 171V159.7L62.5 117.4H85.1L7.3 171H0ZM7.3 0.100098L85.1 53.3001H62.5L0 11.1001V0.100098H7.3ZM256.5 0.100098V11.1001L193.5 53.4001H170.9L248.7 0.100098H256.5ZM248.7 171L170.9 117.4H193.5L256.5 159.7V171H248.7Z" fill="#D80027"/>
</g>
<defs>
<clipPath id="clip0_301_1669">
<rect width="513" height="342" fill="white"/>
</clipPath>
</defs>
</svg>
