<svg width="513" height="342" viewBox="0 0 513 342" fill="none" xmlns="http://www.w3.org/2000/svg">
<g clip-path="url(#clip0_301_1661)">
<path d="M0 0H513V342H0V0Z" fill="#ED2024"/>
<path d="M185.25 69.5393V160.739L225.72 174.989L197.22 202.919L210.9 220.019L241.11 188.669L247.95 201.779L230.85 229.709L251.37 261.629L241.11 276.449L257.07 296.969L272.46 275.879L263.91 261.059L281.01 227.999L265.62 201.779L272.46 188.669L302.1 220.019L316.35 203.489L286.71 174.419L327.75 159.599V69.5393L298.11 80.3693L297.54 102.029L278.73 103.739V88.9193L288.42 75.8093L320.34 63.2693L307.23 60.9893L315.21 54.1493L320.34 56.4293L315.78 48.4493L307.8 51.2993L302.1 45.0293L270.75 51.2993L278.73 57.5693L257.07 85.4993L235.41 58.1393L242.82 51.8693L214.32 45.0293L206.34 51.2993L197.79 49.0193L193.23 56.9993L198.36 53.5793L207.48 59.8493L194.37 62.6993L225.72 74.0993L234.84 87.2093V103.739L216.03 102.029V81.5093L185.25 69.5393Z" fill="#212121"/>
<path d="M149.34 142.5H185.82V156.75H149.34V142.5ZM149.34 119.13H185.82V134.52H149.34V119.13ZM149.34 95.1897H185.82V110.01H149.34V95.1897ZM149.34 72.3896H185.82V86.6396H149.34V72.3896Z" fill="#212121"/>
<path d="M327.18 142.5H363.66V156.75H327.18V142.5ZM327.18 119.13H363.66V134.52H327.18V119.13ZM327.18 95.1897H363.66V110.01H327.18V95.1897ZM327.18 72.3896H363.66V86.6396H327.18V72.3896Z" fill="#212121"/>
<path d="M304.38 205.771H340.86V216.601H304.38V205.771ZM172.14 205.771H208.62V216.601H172.14V205.771Z" fill="#212121"/>
</g>
<defs>
<clipPath id="clip0_301_1661">
<rect width="513" height="342" fill="white"/>
</clipPath>
</defs>
</svg>
