<svg width="513" height="342" viewBox="0 0 513 342" fill="none" xmlns="http://www.w3.org/2000/svg">
<g clip-path="url(#clip0_301_1649)">
<path d="M0 171H513V342H0V171Z" fill="black"/>
<path d="M0 0H513V171H0V0Z" fill="#D80027"/>
<path d="M332.7 135.6L350.2 127L342.8 108L324.1 114.2L332.7 135.6ZM287.1 79.6001L292.6 60.8001L273.5 53.6001L265.5 71.6001L287.1 79.6001ZM316.5 102.8L328.7 87.5001L313.8 73.6001L299.6 87.2001L316.5 102.8ZM335.9 171.7L355.4 170.9V149.6L332.5 149.8L335.9 171.7ZM323.3 209.8L342.1 215.3L349.4 196.3L331.4 188.3L323.3 209.8ZM294.3 242.2L309.2 254.9L323.6 240.5L310.5 225.8L294.3 242.2ZM247.3 94.5001L257.1 114.4L279 117.7L263.1 133.2L266.7 155.1L247.1 144.7L227.4 154.9L231.2 133L215.4 117.5L237.4 114.4L247.3 94.5001Z" fill="#FFDA44"/>
<path d="M250.8 61.3003L248.1 79.6003C291.2 82.8003 325.1 118.8 325.1 162.7C325.1 208.7 287.8 245.6 241.7 246.1C212.5 246.4 190.4 231.3 174.7 212.4L160.8 224.7C175.8 243.7 201.6 264.6 241.7 264.6C298 264.6 343.6 219 343.6 162.7C343.7 109.5 302.9 65.8003 250.8 61.3003Z" fill="#FFDA44"/>
<path d="M291.9 223.4L280.1 237.4C280.1 237.4 332 276.3 333.7 277.8C335.4 279.3 338.9 279.8 342.8 275.1C346.5 270.6 345.6 267 343.7 265.4C341.7 263.9 291.9 223.4 291.9 223.4Z" fill="black"/>
<path d="M206.1 157.2C198.4 167.5 198.6 180.3 208.9 188.1C208.9 188.1 344.1 289.6 345.8 291.1C347.5 292.6 351 293.1 354.9 288.4C358.6 283.9 357.7 280.3 355.8 278.7C353.9 277.2 206.1 157.2 206.1 157.2ZM253.8 256.3L261.1 274.5L280.6 268.5L275.8 249.4L253.8 256.3ZM213.4 252.6L211.4 272.1L231.5 275.7L236 256.6L213.4 252.6ZM177.7 231.4L167.4 248L183.8 260.1L196.3 244.9L177.7 231.4Z" fill="#FFDA44"/>
</g>
<defs>
<clipPath id="clip0_301_1649">
<rect width="513" height="342" fill="white"/>
</clipPath>
</defs>
</svg>
