<svg width="513" height="342" viewBox="0 0 513 342" fill="none" xmlns="http://www.w3.org/2000/svg">
<g clip-path="url(#clip0_301_1641)">
<path d="M0 0H512V342H0V0Z" fill="white"/>
<path d="M0 0H512V114H0V0ZM0 228H512V342H0V228Z" fill="#338AF3"/>
<path d="M256.5 211C278.591 211 296.5 193.091 296.5 171C296.5 148.909 278.591 131 256.5 131C234.409 131 216.5 148.909 216.5 171C216.5 193.091 234.409 211 256.5 211Z" fill="#FFDA44"/>
<path fill-rule="evenodd" clip-rule="evenodd" d="M256.5 133.5C235.789 133.5 219 150.289 219 171C219 191.711 235.789 208.5 256.5 208.5C277.211 208.5 294 191.711 294 171C294 150.289 277.211 133.5 256.5 133.5ZM214 171C214 147.528 233.028 128.5 256.5 128.5C279.972 128.5 299 147.528 299 171C299 194.472 279.972 213.5 256.5 213.5C233.028 213.5 214 194.472 214 171Z" fill="#D6AB00"/>
</g>
<defs>
<clipPath id="clip0_301_1641">
<rect width="513" height="342" fill="white"/>
</clipPath>
</defs>
</svg>
