<svg width="513" height="342" viewBox="0 0 513 342" fill="none" xmlns="http://www.w3.org/2000/svg">
<g clip-path="url(#clip0_301_1634)">
<path d="M0 0H513V342H0V0Z" fill="#10338C"/>
<path d="M513 33L95.3 171L513 310.76V341.33L0 171L513 0V33Z" fill="#D80027"/>
<path d="M513 287.18V311.76L81.72 171L513 30V54.16" fill="white"/>
<path d="M476.98 140.21L455.09 150.89L451.91 135.57L483.1 105.8C483.1 105.8 473.68 65.1498 469.35 60.8198L357.03 116.64L350.19 153.4L318.29 181.99L317.89 216.19L352.18 193.43L419.41 190.77L417.9 228.88H440.13L452.03 184.24L483.58 159.63L476.98 140.21Z" fill="#A2001D"/>
<path d="M317.89 238.41L295.65 227.3L317.89 216.19H462.35V238.41H317.89Z" fill="#EFC100"/>
<path fill-rule="evenodd" clip-rule="evenodd" d="M317.772 215.69H462.85V238.91H317.772L294.531 227.3L317.772 215.69ZM318.008 216.69L296.769 227.3L318.008 237.91H461.85V216.69H318.008Z" fill="#231F20"/>
</g>
<defs>
<clipPath id="clip0_301_1634">
<rect width="513" height="342" fill="white"/>
</clipPath>
</defs>
</svg>
