<svg width="513" height="342" viewBox="0 0 513 342" fill="none" xmlns="http://www.w3.org/2000/svg">
<g clip-path="url(#clip0_301_1617)">
<path d="M0 0H513V342H0V0Z" fill="#10338C"/>
<path d="M222.2 170.7C222.5 170.4 222.7 170.1 223 169.8C222.8 170.1 222.5 170.4 222.2 170.7ZM188 212.6L199 235.5L223.7 229.8L212.7 252.6L232.6 268.4L207.8 274L207.9 299.4L188 283.5L168.2 299.4L168.3 274L143.5 268.4L163.4 252.6L152.3 229.8L177.1 235.5L188 212.6ZM385.9 241.1L391.1 252L402.9 249.3L397.6 260.2L407.1 267.7L395.3 270.3V282.5L385.9 274.9L376.4 282.5L376.5 270.3L364.7 267.7L374.2 260.2L368.9 249.3L380.7 252L385.9 241.1ZM337.3 125.1L342.5 136L354.3 133.3L349 144.2L358.5 151.7L346.7 154.4V166.5L337.3 158.9L327.8 166.5L327.9 154.4L316 151.7L325.5 144.2L320.2 133.3L332 136L337.3 125.1ZM385.9 58.9004L391.1 69.8004L402.9 67.1004L397.6 78.0004L407.1 85.5004L395.3 88.2004V100.3L385.9 92.7004L376.4 100.3L376.5 88.2004L364.7 85.5004L374.2 78.0004L368.9 67.1004L380.7 69.8004L385.9 58.9004ZM428.4 108.6L433.6 119.5L445.4 116.8L440.1 127.7L449.6 135.2L437.8 137.8V150L428.4 142.4L418.9 150V137.8L407.1 135.2L416.6 127.7L411.3 116.8L423.1 119.5L428.4 108.6ZM398 166.5L402.1 179.2H415.4L404.6 187L408.8 199.7L398 191.8L387.2 199.7L391.3 187L380.6 179.2H393.9L398 166.5Z" fill="white"/>
<path d="M254.8 0V30.6L209.7 55.7H254.8V115H195.7L254.8 147.8V170.7H228.1L154.6 129.8V170.7H99V122.1L11.6 170.7H-1.19995V140.1L44 115H-1.19995V55.7H57.9001L-1.19995 22.8V0H25.5L99 40.8V0H154.6V48.6L242.1 0H254.8Z" fill="white"/>
<path d="M142.8 0H110.8V69.3H-1.19995V101.3H110.8V170.7H142.8V101.3H254.8V69.3H142.8V0Z" fill="#D80027"/>
<path d="M154.6 115L254.8 170.7V154.9L183 115H154.6Z" fill="#0052B4"/>
<path d="M154.6 115L254.8 170.7V154.9L183 115H154.6Z" fill="white"/>
<path d="M154.6 115L254.8 170.7V154.9L183 115H154.6ZM70.7 115L-1.19995 154.9V170.7L99 115H70.7Z" fill="#D80027"/>
<path d="M99 55.7L-1.19995 0V15.7L70.7 55.7H99Z" fill="#0052B4"/>
<path d="M99 55.7L-1.19995 0V15.7L70.7 55.7H99Z" fill="white"/>
<path d="M99 55.7L-1.19995 0V15.7L70.7 55.7H99ZM183 55.7L254.8 15.7V0L154.6 55.7H183Z" fill="#D80027"/>
</g>
<defs>
<clipPath id="clip0_301_1617">
<rect width="513" height="342" fill="white"/>
</clipPath>
</defs>
</svg>
