<svg width="513" height="342" viewBox="0 0 513 342" fill="none" xmlns="http://www.w3.org/2000/svg">
<g clip-path="url(#clip0_301_1600)">
<path d="M0 0H513V342H0V0Z" fill="#EF3340"/>
<path d="M0 0H513V114H0V0Z" fill="#00B5E2"/>
<path d="M0 228H513V342H0V228Z" fill="#509E2F"/>
<path d="M265.6 212.6C242.6 212.6 224 194 224 171C224 148 242.6 129.4 265.6 129.4C272.8 129.4 279.5 131.2 285.4 134.4C276.2 125.4 263.5 119.8 249.6 119.8C221.3 119.8 198.4 142.7 198.4 171C198.4 199.3 221.3 222.2 249.6 222.2C263.5 222.2 276.2 216.6 285.4 207.6C279.5 210.8 272.8 212.6 265.6 212.6Z" fill="white"/>
<path d="M297.6 142.2L303.1 157.7L318 150.6L310.9 165.5L326.4 171L310.9 176.5L318 191.4L303.1 184.3L297.6 199.8L292.1 184.3L277.2 191.4L284.3 176.5L268.8 171L284.3 165.5L277.2 150.6L292.1 157.7L297.6 142.2Z" fill="white"/>
</g>
<defs>
<clipPath id="clip0_301_1600">
<rect width="513" height="342" fill="white"/>
</clipPath>
</defs>
</svg>
