<svg width="513" height="342" viewBox="0 0 513 342" fill="none" xmlns="http://www.w3.org/2000/svg">
<g clip-path="url(#clip0_301_1587)">
<path d="M0 0H513.1V342H0V0Z" fill="#10338C"/>
<path d="M99.9 0H441.9V342" fill="#F6C500"/>
<path d="M19.9 21.1L40.3 6.2L60.9 21L54 0H26.7L19.9 21.1Z" fill="white"/>
<path d="M92.3001 25.5L84.4001 1.30005L76.6 25.5H51.3L71.8001 40.3L64 64.3001L84.4001 49.5L105 64.3001L97.1 40.3L117.6 25.4L92.3001 25.5Z" fill="white"/>
<path d="M136.3 69.1999L128.5 45.2L120.7 69.1999H95.5L115.9 84.0999L108.1 108.1L128.5 93.3L149.1 108.1L141.3 84.0999L161.7 69.1999H136.3Z" fill="white"/>
<path d="M179.4 112.3L171.6 88.2L163.8 112.3H138.5L159 127.2L151.2 151.2L171.6 136.4L192.2 151.2L184.3 127.2L204.8 112.2L179.4 112.3Z" fill="white"/>
<path d="M222.5 155.3L214.7 131.3L206.9 155.3H181.5L202.1 170.3L194.3 194.3L214.7 179.4L235.1 194.3L227.3 170.3L247.9 155.3H222.5Z" fill="white"/>
<path d="M265.6 198.4L257.8 174.4L250 198.4H224.6L245.2 213.3L237.4 237.4L257.8 222.5L278.2 237.4L270.4 213.2L290.9 198.4H265.6Z" fill="white"/>
<path d="M308.7 241.5L300.8 217.5L293 241.5H267.7L288.2 256.3L280.3 280.5L300.9 265.6L321.3 280.4L313.5 256.3L334 241.5H308.7Z" fill="white"/>
<path d="M351.7 284.6L343.9 260.4L336.1 284.6H310.8L331.2 299.4L323.4 323.5L343.9 308.6L364.4 323.5L356.6 299.4L377 284.6H351.7Z" fill="white"/>
<path d="M387 303.5L379.1 327.6L353.8 327.7L373.6 342H400.2L420.1 327.6H394.8L387 303.5Z" fill="white"/>
</g>
<defs>
<clipPath id="clip0_301_1587">
<rect width="513" height="342" fill="white"/>
</clipPath>
</defs>
</svg>
