<svg width="513" height="342" viewBox="0 0 513 342" fill="none" xmlns="http://www.w3.org/2000/svg">
<g clip-path="url(#clip0_301_1582)">
<path d="M0 0H513V342H0V0Z" fill="#FFC726"/>
<path d="M0 0H171V342H0V0ZM342 0H513V342H342V0Z" fill="#00267F"/>
<path d="M325.74 101.02L293.77 113.42C293.09 114.77 287.98 120.96 285.59 166.48H268.54V106.06L256 78.6801L243.46 105.68V166.48H226.4C224.01 120.95 218.6 114 217.93 112.64L186.25 101.01C186.4 101.32 201.65 132.35 201.65 179.02V191.56H243.46V262.63H268.54V191.56H310.35V179.02C310.35 154.89 314.52 135 318.03 122.56C321.85 108.99 325.73 101.07 325.77 100.99L325.74 101.02Z" fill="black"/>
</g>
<defs>
<clipPath id="clip0_301_1582">
<rect width="513" height="342" fill="white"/>
</clipPath>
</defs>
</svg>
