<svg width="513" height="342" viewBox="0 0 513 342" fill="none" xmlns="http://www.w3.org/2000/svg">
<g clip-path="url(#clip0_301_1554)">
<path d="M0 0H513V342H0V0Z" fill="#D80027"/>
<path d="M215.9 170.7L0 314.6V26.7998L215.9 170.7ZM513 26.7998V314.6L297.1 170.7L513 26.7998Z" fill="#47A644"/>
<path d="M512 26.8L296.1 170.7L512 314.6V341.3H471.9L256 197.4L40.1 341.3H0V314.6L215.9 170.7L0 26.8V0H40.1L256 143.9L471.9 0H512V26.8Z" fill="#0052B4"/>
<path d="M513 26.8L297.1 170.7L513 314.6V342H473L256 197.4L39 342H0V314.6L215.9 170.7L0 26.8V0H40.1L256 143.9L471.9 0H513V26.8Z" fill="white"/>
<path d="M251.6 270.9C306.939 270.9 351.8 226.039 351.8 170.7C351.8 115.361 306.939 70.5 251.6 70.5C196.261 70.5 151.4 115.361 151.4 170.7C151.4 226.039 196.261 270.9 251.6 270.9Z" fill="white"/>
<path d="M251.4 103.6L258.8 116.5H273.6L266.2 129.3L273.6 142.1H258.8L251.4 155L244 142.1H229.2L236.6 129.3L229.2 116.5H244L251.4 103.6ZM290.2 170.3L297.6 183.2H312.4L305 196L312.4 208.8H297.6L290.2 221.7L282.8 208.8H267.9L275.3 196L267.9 183.2H282.8L290.2 170.3ZM213 170.3L220.4 183.2H235.3L227.9 196L235.3 208.8H220.4L213 221.7L205.6 208.8H190.8L198.2 196L190.8 183.2H205.6L213 170.3Z" fill="#D80027"/>
<path fill-rule="evenodd" clip-rule="evenodd" d="M251.4 100.585L259.669 115H276.2L267.933 129.3L276.2 143.6H259.669L251.4 158.015L243.131 143.6H226.6L234.867 129.3L226.6 115H243.131L251.4 100.585ZM251.4 106.615L244.869 118H231.8L238.333 129.3L231.8 140.6H244.869L251.4 151.985L257.931 140.6H271L264.467 129.3L271 118H257.931L251.4 106.615ZM213 167.285L221.269 181.7H237.9L229.633 196L237.9 210.3H221.269L213 224.715L204.731 210.3H188.2L196.467 196L188.2 181.7H204.731L213 167.285ZM290.2 167.285L298.469 181.7H315L306.733 196L315 210.3H298.469L290.2 224.715L281.931 210.3H265.3L273.567 196L265.3 181.7H281.931L290.2 167.285ZM290.2 173.315L283.669 184.7H270.5L277.033 196L270.5 207.3H283.669L290.2 218.685L296.731 207.3H309.8L303.267 196L309.8 184.7H296.731L290.2 173.315ZM213 173.315L206.469 184.7H193.4L199.933 196L193.4 207.3H206.469L213 218.685L219.531 207.3H232.7L226.167 196L232.7 184.7H219.531L213 173.315Z" fill="#47A644"/>
</g>
<defs>
<clipPath id="clip0_301_1554">
<rect width="513" height="342" fill="white"/>
</clipPath>
</defs>
</svg>
