<svg width="513" height="342" viewBox="0 0 513 342" fill="none" xmlns="http://www.w3.org/2000/svg">
<g clip-path="url(#clip0_301_1538)">
<path d="M0 0H513V341.997H0V0Z" fill="white"/>
<path d="M157.617 200.15C157.617 200.15 148.56 244.166 138.27 240.619C127.629 237.072 120.705 221.822 120.705 221.822L106.157 243.104C106.157 243.104 144.412 251.6 147.247 248.584C148.469 247.442 155.473 233.455 157.607 222.484V200.15H157.617ZM101.378 260.838C101.378 260.838 98.8928 281.058 100.316 283.543C101.558 285.847 139.873 294.895 139.873 294.895C139.873 294.895 114.864 311.387 110.075 315.475L91.9793 285.496L91.2679 260.838H101.378ZM112.73 94.8247C112.73 94.8247 152.457 136.506 153.169 140.414C153.88 144.141 148.91 143.61 148.91 143.61C148.91 143.61 104.033 106.007 98.8928 102.46C93.5724 98.9027 112.73 94.8247 112.73 94.8247Z" fill="#E6BC00"/>
<path d="M99.6042 104.935C99.6042 104.935 116.627 104.223 116.277 93.402C115.926 82.7613 105.105 78.503 97.1193 80.9878C89.1338 83.2923 74.0644 94.4641 83.4627 116.106C92.861 137.568 106.878 145.554 109.714 164C109.714 164 104.243 173.879 90.5565 164.35C73.6235 152.557 84.3444 126.036 80.0961 119.303C75.8378 112.209 39.0662 80.3065 39.0662 80.3065C39.0662 80.3065 8.7671 119.753 21.031 155.373C38.0141 204.679 72.8721 187.415 85.7672 192.205C85.7672 192.205 43.5549 254.286 36.1004 259.426C36.1004 259.426 60.2274 267.762 83.9937 240.629C83.9937 240.629 89.8451 250.388 91.0876 260.848H101.378C106.167 234.597 152.988 196.463 151.395 178.368C149.622 157.076 102.089 128.881 99.6042 104.935Z" fill="#ADADAD"/>
<path d="M359.872 201.663C359.872 201.663 368.849 244.176 379.139 240.629C389.78 237.082 396.703 221.832 396.703 221.832L411.252 243.114C411.252 243.114 374.179 251.61 371.344 248.594C370.132 247.452 362.006 234.778 359.801 223.886L359.872 201.663ZM416.031 260.838C416.031 260.838 418.516 281.058 417.093 283.543C415.851 285.847 377.536 294.895 377.536 294.895C377.536 294.895 402.545 311.387 407.334 315.475L425.429 285.496L426.141 260.838H416.031ZM404.679 94.8247C404.679 94.8247 364.951 136.506 364.24 140.414C363.529 144.141 368.498 143.61 368.498 143.61C368.498 143.61 413.376 106.007 418.516 102.46C423.666 98.9027 404.679 94.8247 404.679 94.8247Z" fill="#E6BC00"/>
<path d="M157.617 87.23H359.801V232.974C359.801 249.065 350.092 254.406 337.849 264.886L291.839 304.373C273.553 320.024 243.835 319.974 225.64 304.373L179.54 264.866C167.436 254.496 157.617 249.126 157.617 232.984V87.23Z" fill="#125ECC"/>
<path d="M200.942 147.998C192.966 147.998 186.504 141.536 186.504 133.56C186.504 125.585 192.966 119.122 200.942 119.122C208.917 119.122 215.38 125.585 215.38 133.56C215.38 141.536 208.917 147.998 200.942 147.998ZM258.704 144.993C250.729 144.993 244.266 138.53 244.266 130.554C244.266 122.579 250.729 116.116 258.704 116.116C266.68 116.116 273.142 122.579 273.142 130.554C273.142 138.53 266.68 144.993 258.704 144.993ZM316.467 147.998C308.491 147.998 302.029 141.536 302.029 133.56C302.029 125.585 308.491 119.122 316.467 119.122C324.442 119.122 330.905 125.585 330.905 133.56C330.905 141.536 324.442 147.998 316.467 147.998ZM215.38 274.966C207.404 274.966 200.942 268.503 200.942 260.528C200.942 252.552 207.404 246.09 215.38 246.09C223.355 246.09 229.818 252.552 229.818 260.528C229.828 268.503 223.355 274.966 215.38 274.966ZM258.704 289.414C250.729 289.414 244.266 282.951 244.266 274.976C244.266 267 250.729 260.538 258.704 260.538C266.68 260.538 273.142 267 273.142 274.976C273.142 282.941 266.68 289.414 258.704 289.414ZM302.029 274.966C294.053 274.966 287.591 268.503 287.591 260.528C287.591 252.552 294.053 246.09 302.029 246.09C310.004 246.09 316.467 252.552 316.467 260.528C316.467 268.503 310.004 274.966 302.029 274.966Z" fill="#FFE600"/>
<path d="M157.617 175.703H359.801V233.465H157.617V175.703Z" fill="#D60537"/>
<path d="M143.179 43.9054C143.179 43.9054 200.942 29.4673 258.714 29.4673C316.487 29.4673 374.249 43.9054 374.249 43.9054L359.811 101.668C359.811 101.668 309.263 87.2299 258.724 87.2299C208.186 87.2299 157.637 101.668 157.637 101.668L143.179 43.9054Z" fill="#EACE00"/>
<path d="M258.704 72.7918C250.729 72.7918 244.266 66.3292 244.266 58.3537C244.266 50.3781 250.729 43.9155 258.704 43.9155C266.68 43.9155 273.142 50.3781 273.142 58.3537C273.142 66.3292 266.68 72.7918 258.704 72.7918ZM316.467 77.8016C308.491 77.8016 302.029 71.339 302.029 63.3634C302.029 55.3879 308.491 48.9253 316.467 48.9253C324.442 48.9253 330.905 55.3879 330.905 63.3634C330.905 71.339 324.442 77.8016 316.467 77.8016ZM200.942 77.8016C192.966 77.8016 186.504 71.339 186.504 63.3634C186.504 55.3879 192.966 48.9253 200.942 48.9253C208.917 48.9253 215.38 55.3879 215.38 63.3634C215.38 71.339 208.917 77.8016 200.942 77.8016Z" fill="#7A6920"/>
<path d="M365.793 178.368C364.2 196.463 411.021 234.597 415.811 260.848H426.101C427.343 250.388 433.194 240.629 433.194 240.629C456.961 267.772 481.088 259.426 481.088 259.426C473.633 254.286 431.421 192.205 431.421 192.205C444.326 187.415 479.184 204.679 496.157 155.373C508.421 119.753 478.122 80.3065 478.122 80.3065C478.122 80.3065 441.35 112.209 437.092 119.303C432.834 126.046 443.565 152.567 426.632 164.35C412.945 173.879 407.474 164 407.474 164C410.31 145.554 424.327 137.568 433.725 116.106C443.124 94.4641 428.054 83.2923 420.069 80.9878C412.083 78.503 401.272 82.7613 400.911 93.402C400.561 104.223 417.584 104.935 417.584 104.935C415.099 128.881 367.566 157.076 365.793 178.368Z" fill="#ADADAD"/>
<path d="M258.704 221.552C268.073 221.552 275.667 213.957 275.667 204.589C275.667 195.221 268.073 187.626 258.704 187.626C249.336 187.626 241.741 195.221 241.741 204.589C241.741 213.957 249.336 221.552 258.704 221.552Z" fill="white"/>
</g>
<defs>
<clipPath id="clip0_301_1538">
<rect width="513" height="341.997" fill="white"/>
</clipPath>
</defs>
</svg>
