<svg width="513" height="342" viewBox="0 0 513 342" fill="none" xmlns="http://www.w3.org/2000/svg">
<g clip-path="url(#clip0_301_1525)">
<path d="M0 0H513V342H0V0Z" fill="#C8102E"/>
<path d="M0 0.0996094H256.5V171.1H0V0.0996094Z" fill="#012169"/>
<path d="M256 0H233.4L160 48.9V0H96V48.9L22.6 0H0V22.7L46.1 53.4H0V117.4H46.1L0 148.1V170.7H22.6L96 121.8V170.7H160V121.8L233.4 170.7H256V148.1L209.9 117.4H256V53.4H209.9L256 22.7V0Z" fill="white"/>
<path d="M144 0H112V69.4H0V101.4H112V170.7H144V101.4H256V69.4H144V0Z" fill="#C8102E"/>
<path d="M0 170.7V159.7L62.5 117.4H85.1L7.3 170.7H0ZM7.3 0.0996094L85.1 53.2996H62.5L0 11.0996V0.0996094H7.3ZM256 0.0996094V11.0996L193.5 53.3996H170.9L248.7 0.0996094H256ZM248.7 170.7L170.9 117.4H193.5L256 159.7V170.7H248.7Z" fill="#C8102E"/>
<path d="M316.9 99.9404V199.63C316.9 259.44 396.65 299.32 396.65 299.32C396.65 299.32 476.4 259.44 476.4 199.63V99.9404H316.9Z" fill="white"/>
<path d="M449.37 259.44H343.93C367.06 284.52 396.65 299.32 396.65 299.32C396.65 299.32 426.24 284.52 449.37 259.44Z" fill="#2F8F22"/>
<path d="M396.65 259.441C418.675 259.441 436.53 241.586 436.53 219.561C436.53 197.536 418.675 179.681 396.65 179.681C374.625 179.681 356.77 197.536 356.77 219.561C356.77 241.586 374.625 259.441 396.65 259.441Z" fill="#65B5D2"/>
<path d="M356.77 219.57C367.783 219.57 376.71 210.643 376.71 199.63C376.71 188.618 367.783 179.69 356.77 179.69C345.757 179.69 336.83 188.618 336.83 199.63C336.83 210.643 345.757 219.57 356.77 219.57Z" fill="#C8102E"/>
<path d="M436.52 219.57C447.533 219.57 456.46 210.643 456.46 199.63C456.46 188.618 447.533 179.69 436.52 179.69C425.507 179.69 416.58 188.618 416.58 199.63C416.58 210.643 425.507 219.57 436.52 219.57Z" fill="#C8102E"/>
<path d="M396.65 179.691C407.663 179.691 416.59 170.763 416.59 159.751C416.59 148.738 407.663 139.811 396.65 139.811C385.637 139.811 376.71 148.738 376.71 159.751C376.71 170.763 385.637 179.691 396.65 179.691Z" fill="#C8102E"/>
</g>
<defs>
<clipPath id="clip0_301_1525">
<rect width="513" height="342" fill="white"/>
</clipPath>
</defs>
</svg>
