<svg width="513" height="342" viewBox="0 0 513 342" fill="none" xmlns="http://www.w3.org/2000/svg">
<g clip-path="url(#clip0_301_1516)">
<path d="M0 0H513V341.997H0V0Z" fill="#FFDA44"/>
<path d="M0 194.118L513 321.557V214.678L0 97.2695V194.118Z" fill="black"/>
<path d="M513 234.717V147.878L0 20.4497V107.289" fill="white"/>
<path d="M306.998 134.272C311.001 141.661 313.092 149.935 313.08 158.339C313.08 179.931 299.544 198.357 280.497 205.621V145.994C286.208 144.802 290.516 139.612 290.516 133.38C297.43 133.38 303.041 127.619 303.041 120.505H302.62C309.533 120.505 315.555 114.744 315.555 107.63H280.497V76.7295L265.477 48.9653L250.448 76.7295V107.63H215.39C215.39 114.744 221.412 120.505 228.325 120.505H227.904C227.904 127.619 233.515 133.38 240.429 133.38C240.429 139.612 244.727 144.802 250.438 145.994V207.484C228.305 202.084 211.883 182.135 211.883 158.339C211.883 149.622 214.087 141.426 217.965 134.272C206.983 145.504 200.21 160.853 200.21 177.796C200.21 212.184 228.085 240.068 262.482 240.068C296.879 240.068 324.753 212.184 324.753 177.796C324.753 160.853 317.97 145.493 306.998 134.272Z" fill="#D80027"/>
<path fill-rule="evenodd" clip-rule="evenodd" d="M265.478 45.8135L281.997 76.3496V106.13H317.055V107.63C317.055 114.949 311.384 120.954 304.477 121.88C303.847 128.666 298.604 134.116 291.948 134.806C291.384 140.669 287.377 145.517 281.997 147.157V203.39C299.404 195.838 311.58 178.51 311.58 158.338V158.336C311.592 150.183 309.563 142.155 305.679 134.986L306.998 134.272L308.071 133.223C319.304 144.713 326.253 160.445 326.253 177.796C326.253 213.012 297.707 241.568 262.482 241.568C227.256 241.568 198.71 213.012 198.71 177.796C198.71 160.445 205.649 144.723 216.892 133.223L224.403 125.54L219.284 134.986C215.522 141.926 213.383 149.877 213.383 158.338C213.383 180.757 228.405 199.66 248.938 205.535V147.157C243.558 145.516 239.56 140.668 238.997 134.806C232.341 134.116 227.098 128.666 226.468 121.881C219.561 120.954 213.89 114.949 213.89 107.63V106.13H248.948V76.3494L265.478 45.8135ZM228.325 119.005V120.505H229.404C229.404 126.829 234.382 131.88 240.429 131.88H241.929V133.38C241.929 138.916 245.743 143.482 250.745 144.526L251.938 144.775V209.394L250.083 208.941C227.293 203.381 210.383 182.842 210.383 158.338C210.383 152.987 211.19 147.824 212.689 142.965C205.771 152.83 201.71 164.835 201.71 177.796C201.71 211.355 228.913 238.568 262.482 238.568C296.05 238.568 323.253 211.355 323.253 177.796C323.253 164.836 319.187 152.826 312.272 142.964C313.804 147.926 314.588 153.109 314.58 158.341C314.579 180.575 300.639 199.544 281.031 207.022L278.997 207.798V144.775L280.19 144.526C285.194 143.481 289.016 138.914 289.016 133.38V131.88H290.516C296.563 131.88 301.541 126.829 301.541 120.505H302.62V119.005C308.233 119.005 313.185 114.688 313.952 109.13H278.997V77.1091L265.477 52.117L251.948 77.1093V109.13H216.993C217.76 114.688 222.712 119.005 228.325 119.005Z" fill="#231F20"/>
<path d="M198.848 227.253C198.848 227.253 219.578 255.017 265.477 255.017C311.377 255.017 332.107 227.253 332.107 227.253L345.604 255.678C345.604 255.678 324.533 283.442 265.477 283.442C206.422 283.442 185.351 255.678 185.351 255.678L198.848 227.253ZM129.492 133.44H150.413L175.392 160.753V234.347H149.061V165.843L129.492 133.44ZM400.781 133.44H379.86L354.882 160.753V234.347H381.203V165.843L400.781 133.44Z" fill="#D80027"/>
<path fill-rule="evenodd" clip-rule="evenodd" d="M126.834 131.94H151.074L176.892 160.171V235.847H147.561V166.261L126.834 131.94ZM132.151 134.94L150.561 165.425V232.847H173.892V161.336L149.752 134.94H132.151ZM379.199 131.94H403.44L382.703 166.261V235.847H353.382V160.171L379.199 131.94ZM380.521 134.94L356.382 161.336V232.847H379.703V165.425L398.122 134.94H380.521ZM332.395 224.361L347.35 255.859L346.798 256.585L345.604 255.678C346.798 256.585 346.798 256.586 346.797 256.587L346.795 256.589L346.79 256.596L346.773 256.618C346.76 256.635 346.741 256.66 346.717 256.69C346.668 256.751 346.598 256.838 346.507 256.948C346.324 257.168 346.054 257.484 345.692 257.881C344.968 258.676 343.879 259.796 342.391 261.132C339.414 263.806 334.841 267.345 328.408 270.875C315.532 277.941 295.251 284.942 265.477 284.942C235.704 284.942 215.423 277.941 202.547 270.875C196.114 267.345 191.541 263.806 188.564 261.132C187.076 259.796 185.986 258.676 185.263 257.881C184.901 257.484 184.631 257.168 184.448 256.948C184.356 256.838 184.287 256.751 184.238 256.69C184.224 256.672 184.211 256.656 184.201 256.642C184.193 256.633 184.187 256.625 184.182 256.618L184.165 256.596L184.16 256.589L184.158 256.587C184.157 256.586 184.156 256.585 185.351 255.678L184.156 256.585L183.605 255.859L197.493 226.609L198.848 227.253C200.049 226.355 200.049 226.355 200.049 226.354L200.05 226.355L200.057 226.365C200.061 226.371 200.067 226.378 200.074 226.387C200.08 226.395 200.087 226.404 200.095 226.415C200.117 226.443 200.146 226.481 200.183 226.527C200.206 226.557 200.233 226.59 200.262 226.626C200.414 226.816 200.647 227.1 200.963 227.465C201.594 228.195 202.555 229.249 203.853 230.519C206.45 233.059 210.395 236.462 215.755 239.869C226.466 246.677 242.848 253.517 265.477 253.517C288.107 253.517 304.489 246.677 315.2 239.869C320.56 236.462 324.505 233.059 327.102 230.519C328.4 229.249 329.361 228.195 329.992 227.465C330.308 227.1 330.541 226.816 330.693 226.626C330.769 226.532 330.824 226.461 330.86 226.415C330.878 226.392 330.89 226.375 330.898 226.365L330.905 226.355L330.906 226.354L332.395 224.361ZM331.753 230.004C331.107 230.725 330.257 231.629 329.2 232.663C326.476 235.328 322.369 238.867 316.809 242.401C305.68 249.475 288.747 256.517 265.477 256.517C242.207 256.517 225.275 249.475 214.146 242.401C208.586 238.867 204.479 235.328 201.755 232.663C200.698 231.629 199.848 230.725 199.202 230.004L187.118 255.455C187.224 255.576 187.345 255.712 187.481 255.861C188.14 256.585 189.159 257.634 190.569 258.9C193.388 261.432 197.774 264.834 203.99 268.245C216.413 275.062 236.196 281.942 265.477 281.942C294.759 281.942 314.541 275.062 326.965 268.245C333.181 264.834 337.567 261.432 340.386 258.9C341.796 257.634 342.814 256.585 343.474 255.861C343.61 255.712 343.731 255.576 343.837 255.455L331.753 230.004Z" fill="#231F20"/>
</g>
<defs>
<clipPath id="clip0_301_1516">
<rect width="513" height="341.997" fill="white"/>
</clipPath>
</defs>
</svg>
