<svg width="513" height="342" viewBox="0 0 513 342" fill="none" xmlns="http://www.w3.org/2000/svg">
<g clip-path="url(#clip0_301_1501)">
<path d="M0 0H513V342H0V0Z" fill="#009B3A"/>
<path d="M256.5 19.2998L461.4 170.7L256.5 322L50.6 170.7L256.5 19.2998Z" fill="#FEDF00"/>
<path d="M256.5 251.4C300.904 251.4 336.9 215.404 336.9 171C336.9 126.596 300.904 90.6001 256.5 90.6001C212.096 90.6001 176.1 126.596 176.1 171C176.1 215.404 212.096 251.4 256.5 251.4Z" fill="white"/>
<path d="M215.9 165.7C202 165.7 188.5 167.8 175.8 171.7C176.4 215.6 212.1 251 256.1 251C283.3 251 307.4 237.4 321.9 216.7C297 185.7 258.7 165.7 215.9 165.7ZM334.9 186C335.8 181 336.4 175.9 336.4 170.6C336.4 126.2 300.4 90.2002 256 90.2002C222.9 90.2002 194.5 110.3 182.1 138.8C193 136.6 204.2 135.4 215.7 135.4C262.5 135.5 304.7 154.9 334.9 186Z" fill="#002776"/>
</g>
<defs>
<clipPath id="clip0_301_1501">
<rect width="513" height="342" fill="white"/>
</clipPath>
</defs>
</svg>
