<svg width="513" height="342" viewBox="0 0 513 342" fill="none" xmlns="http://www.w3.org/2000/svg">
<g clip-path="url(#clip0_301_1492)">
<path d="M0 0H513V341.967H0V0Z" fill="#FF7415"/>
<path d="M513 0H0V341.967" fill="#FFDA44"/>
<path fill-rule="evenodd" clip-rule="evenodd" d="M341.532 65.8581C338.921 65.188 336.748 65.2997 333.767 67.2763C329.727 69.9717 328.917 71.8494 328.705 72.4284C328.438 73.159 328.069 74.8397 328.895 78.4598C330.849 87.0213 337.026 97.4851 346.038 112.437C346.195 112.698 346.353 112.961 346.512 113.225C354.235 126.033 364.447 142.97 367.659 159.953C369.427 169.303 369.358 179.791 365.081 190.258C360.791 200.754 353.082 209.238 343.001 215.956C342.999 215.957 342.997 215.959 342.994 215.96C342.992 215.962 342.99 215.963 342.988 215.965C332.76 222.786 321.901 226.755 310.53 226.895C299.141 227.036 289.274 223.312 281.095 218.194C266.341 208.963 254.389 193.23 245.372 181.36C245.139 181.053 244.908 180.749 244.679 180.447C234.116 166.551 226.712 157.067 219.415 152.2C216.363 150.165 214.49 149.795 213.333 149.776C212.244 149.759 209.674 150.011 205.116 153.044C205.114 153.045 205.113 153.046 205.112 153.047C199.222 156.976 196.886 160.24 195.883 162.329C194.928 164.316 194.474 166.69 194.898 170.189C195.921 178.634 201.213 189.085 209.705 203.819C210.362 204.958 211.046 206.135 211.749 207.346C218.823 219.519 227.89 235.121 231.198 250.272C233.175 259.327 233.526 269.725 229.557 280.224C225.549 290.827 217.977 299.306 208.045 305.927C194.403 315.044 179.856 316.196 166.931 312.85C154.821 309.716 144.594 302.82 136.981 296.39C129.19 289.81 122.85 282.615 118.548 277.246C116.364 274.52 114.626 272.166 113.408 270.453C112.797 269.594 112.313 268.891 111.964 268.376C111.79 268.118 111.649 267.907 111.543 267.746C111.49 267.666 111.445 267.599 111.41 267.544L111.363 267.473L111.344 267.444L111.336 267.432C111.333 267.426 111.329 267.421 128.951 255.999C146.574 244.577 146.57 244.572 146.567 244.567L146.563 244.561C146.592 244.604 146.652 244.694 146.742 244.827C146.923 245.094 147.223 245.532 147.635 246.111C148.461 247.272 149.715 248.975 151.325 250.984C154.609 255.083 159.06 260.062 164.081 264.303C169.28 268.694 173.889 271.267 177.456 272.19C180.205 272.902 182.172 272.702 184.709 271.006L184.725 270.995L184.741 270.985C189.051 268.114 190.005 266.077 190.271 265.372C190.579 264.556 190.954 262.845 190.164 259.231C188.33 250.831 182.571 240.843 174.174 226.279C173.891 225.789 173.605 225.293 173.316 224.792C165.69 211.559 155.433 193.66 153.202 175.238C152 165.303 152.993 154.613 158.026 144.139C163.009 133.769 171.196 125.179 181.828 118.091L181.842 118.082C191.885 111.398 202.665 107.602 213.998 107.782C225.263 107.96 234.883 112.032 242.72 117.259C256.397 126.382 267.819 141.45 276.596 153.029C277.112 153.709 277.618 154.377 278.116 155.032C288.547 168.754 296.054 178.011 303.373 182.59C306.42 184.497 308.469 184.918 310.01 184.898C311.564 184.879 314.642 184.387 319.691 181.018L319.697 181.014L319.704 181.009C324.395 177.885 325.74 175.5 326.202 174.368C326.679 173.202 327.06 171.297 326.391 167.758C324.794 159.313 318.938 148.837 310.066 134.118C309.606 133.355 309.136 132.577 308.656 131.783C301.171 119.406 291.517 103.443 287.948 87.805C285.898 78.8239 285.431 68.471 289.261 58.0012C293.146 47.3803 300.625 38.8934 310.479 32.324L310.503 32.3079C324.248 23.1724 338.842 21.8077 351.97 25.1757C364.246 28.3254 374.485 35.362 382.05 41.9213C389.785 48.6284 396.011 55.9664 400.212 61.4335C402.346 64.2107 404.038 66.6113 405.223 68.3587C405.817 69.2347 406.288 69.9529 406.627 70.4797C406.797 70.7432 406.934 70.9594 407.038 71.1241C407.09 71.2064 407.133 71.276 407.168 71.3321L407.214 71.4063L407.24 71.4486C407.244 71.4545 407.247 71.4602 389.359 82.4608C371.471 93.4613 371.474 93.4666 371.477 93.4716L371.483 93.4807L371.484 93.4837C371.458 93.442 371.402 93.3526 371.316 93.2194C371.144 92.9527 370.857 92.513 370.462 91.9311C369.67 90.7627 368.463 89.0474 366.909 87.0246C363.733 82.8918 359.425 77.8933 354.536 73.654C349.476 69.267 344.999 66.7475 341.532 65.8581Z" fill="white"/>
</g>
<defs>
<clipPath id="clip0_301_1492">
<rect width="513" height="341.967" fill="white"/>
</clipPath>
</defs>
</svg>
