<svg width="513" height="342" viewBox="0 0 513 342" fill="none" xmlns="http://www.w3.org/2000/svg">
<g clip-path="url(#clip0_301_1475)">
<path d="M0 0H513V342H0V0Z" fill="#007C30"/>
<path d="M0 230H513V0H0" fill="#CE1720"/>
<path d="M100 230V0H0V342H513H100V230Z" fill="white"/>
<path d="M28 159.6L8.60001 128.2L28 97.3999L47.3 128.2L28 159.6ZM72.6 159.6L53.3 128.2L72.6 97.3999L92 128.2L72.6 159.6ZM28 241.2L8.60001 209.8L28 179L47.3 209.8L28 241.2ZM72.6 241.2L53.3 209.8L72.6 179L92 209.8L72.6 241.2Z" fill="#CE1720"/>
<path fill-rule="evenodd" clip-rule="evenodd" d="M28.0092 15.6108L48.1184 47.7855L28.0093 80.4629L7.77441 47.7855L28.0092 15.6108ZM72.5908 15.6108L92.8256 47.7855L72.5907 80.4629L52.4816 47.7855L72.5908 15.6108ZM16.0256 47.8142L27.9907 67.1368L39.8816 47.8141L27.9908 28.7889L16.0256 47.8142ZM72.6092 28.7889L60.7184 47.8141L72.6093 67.1368L84.5744 47.8142L72.6092 28.7889ZM28.0092 259.711L48.1162 291.882L28.0093 324.681L7.77663 291.882L28.0092 259.711ZM72.5908 259.711L92.8234 291.882L72.5907 324.681L52.4838 291.882L72.5908 259.711ZM16.0234 291.918L27.9907 311.318L39.8838 291.918L27.9908 272.889L16.0234 291.918ZM72.6092 272.889L60.7162 291.918L72.6093 311.318L84.5766 291.918L72.6092 272.889Z" fill="#CE1720"/>
</g>
<defs>
<clipPath id="clip0_301_1475">
<rect width="513" height="342" fill="white"/>
</clipPath>
</defs>
</svg>
