<svg width="513" height="342" viewBox="0 0 513 342" fill="none" xmlns="http://www.w3.org/2000/svg">
<g clip-path="url(#clip0_301_1464)">
<path d="M0 0H513V341.967H0V0Z" fill="#003E87"/>
<path d="M261.41 290.366C327.204 290.366 380.542 237.029 380.542 171.234C380.542 105.439 327.204 52.1016 261.41 52.1016C195.615 52.1016 142.277 105.439 142.277 171.234C142.277 237.029 195.615 290.366 261.41 290.366Z" fill="white"/>
<path fill-rule="evenodd" clip-rule="evenodd" d="M262.412 87.7534C215.089 87.7534 176.727 126.116 176.727 173.438C176.727 220.76 215.089 259.123 262.412 259.123C309.734 259.123 348.096 220.76 348.096 173.438C348.096 126.116 309.734 87.7534 262.412 87.7534ZM158.727 173.438C158.727 116.175 205.148 69.7534 262.412 69.7534C319.675 69.7534 366.096 116.175 366.096 173.438C366.096 230.701 319.675 277.123 262.412 277.123C205.148 277.123 158.727 230.701 158.727 173.438Z" fill="#6DA544"/>
<path d="M262.412 151.796L211.713 175.242V195.281C211.713 207.104 217.825 218.125 227.944 224.237L262.512 239.467L297.079 224.237C307.099 218.025 313.311 207.104 313.311 195.281V175.242L262.412 151.796Z" fill="#003E87"/>
<path fill-rule="evenodd" clip-rule="evenodd" d="M262.411 151.245L313.811 174.921V195.281C313.811 207.28 307.506 218.361 297.343 224.662L297.313 224.68L262.512 240.013L227.713 224.682L227.686 224.665C217.414 218.461 211.213 207.276 211.213 195.281V174.922L262.411 151.245ZM262.412 152.346L212.213 175.561V195.281C212.213 206.921 218.225 217.769 228.175 223.792L262.512 238.92L296.845 223.794C306.703 217.668 312.811 206.915 312.811 195.281V175.562L262.412 152.346Z" fill="black"/>
<path d="M211.713 128.35H313.211V175.141H211.713V128.35Z" fill="#FFDA44"/>
<path fill-rule="evenodd" clip-rule="evenodd" d="M211.213 127.85H313.711V175.641H211.213V127.85ZM212.213 128.85V174.641H312.711V128.85H212.213Z" fill="black"/>
<path d="M0 0H513V35.0684H0V0ZM0 306.598H513V341.666H0V306.598Z" fill="#CE1127"/>
</g>
<defs>
<clipPath id="clip0_301_1464">
<rect width="513" height="341.967" fill="white"/>
</clipPath>
</defs>
</svg>
