<svg width="513" height="342" viewBox="0 0 513 342" fill="none" xmlns="http://www.w3.org/2000/svg">
<g clip-path="url(#clip0_301_1454)">
<path d="M0 0H513V341.967H0V0Z" fill="#008000"/>
<path d="M423.526 252.893L429.738 265.718L443.565 262.512L437.353 275.337L448.574 284.154L434.647 287.36V301.588L423.526 292.67L412.404 301.588V287.36L398.577 284.154L409.699 275.337L403.487 262.512L417.414 265.718L423.526 252.893ZM376.835 116.327L383.047 129.252L396.874 126.046L390.662 138.871L401.883 147.688L387.956 150.794V165.122L376.835 156.204L365.713 165.122L365.813 150.794L351.886 147.688L363.008 138.871L356.796 126.046L370.723 129.252L376.835 116.327ZM413.907 38.3748L420.119 51.1998L433.946 47.9935L427.734 60.8185L438.956 69.7359L425.029 72.8419V87.0697L413.907 78.1523L402.785 87.0697L402.885 72.8419L388.958 69.7359L400.08 60.8185L393.868 47.9935L407.795 51.1998L413.907 38.3748ZM465.808 96.8888L472.02 109.714L485.947 106.508L479.635 119.333L490.857 128.25L476.93 131.356L477.03 145.584L465.808 136.666L454.686 145.584L454.787 131.356L440.859 128.25L452.081 119.333L445.769 106.508L459.696 109.714L465.808 96.8888ZM437.753 165.122L442.663 179.951H458.293L445.669 189.169L450.478 204.098L437.753 194.88L425.129 204.098L429.938 189.169L417.313 179.951H432.944L437.753 165.122Z" fill="#FFDA44"/>
<path d="M307.399 255.197C258.103 255.197 218.125 215.219 218.125 165.923C218.125 116.627 258.103 76.6493 307.399 76.6493C322.729 76.6493 337.257 80.5569 349.882 87.3702C330.043 68.0325 302.89 56.1093 273.032 56.1093C212.414 56.1093 163.218 105.305 163.218 165.923C163.218 226.542 212.414 275.838 273.032 275.838C302.89 275.838 330.043 263.914 349.782 244.476C337.157 251.29 322.729 255.197 307.399 255.197ZM140.674 59.6161C129.953 41.08 109.914 28.6558 86.9695 28.6558C64.0248 28.6558 44.0859 41.08 33.365 59.6161H140.674ZM140.875 60.0169L86.9695 113.922L33.1646 60.0169C28.0547 69.0345 25.0488 79.4548 25.0488 90.6767C25.0488 124.943 52.8029 152.698 87.0697 152.698C121.337 152.698 149.091 124.943 149.091 90.6767C148.99 79.4548 145.985 69.0345 140.875 60.0169Z" fill="#FFDA44"/>
<path d="M71.5395 98.3918V150.694C76.449 151.996 81.6592 152.598 87.0697 152.598C92.4803 152.598 97.5902 151.896 102.6 150.694V98.3918H71.5395Z" fill="#A2001D"/>
</g>
<defs>
<clipPath id="clip0_301_1454">
<rect width="513" height="341.967" fill="white"/>
</clipPath>
</defs>
</svg>
