<svg width="513" height="342" viewBox="0 0 513 342" fill="none" xmlns="http://www.w3.org/2000/svg">
<g clip-path="url(#clip0_301_1440)">
<path d="M0 0H513V341.967H0V0Z" fill="#D21034"/>
<path d="M0 171.033H211.913V256.5H0V171.033ZM301.087 171.033H513V256.5H301.087V171.033Z" fill="#3A9927"/>
<path d="M0 0V85.4666H211.913V0H301.087V85.4666H513V0H0Z" fill="#003082"/>
<path d="M301.087 85.4668H513V170.933H301.087V85.4668ZM0 85.4668H211.913V170.933H0V85.4668Z" fill="white"/>
<path d="M301.087 341.966H211.913V256.5H0V341.966H513V256.5H301.087V341.966ZM105.906 8.6167L114.523 34.8679H142.077L119.733 51.0995L128.35 77.3507L105.906 61.119L83.5629 77.3507L92.0795 51.0995L69.7359 34.8679H97.3898L105.906 8.6167Z" fill="#FFCE00"/>
</g>
<defs>
<clipPath id="clip0_301_1440">
<rect width="513" height="341.967" fill="white"/>
</clipPath>
</defs>
</svg>
