<svg width="513" height="342" viewBox="0 0 513 342" fill="none" xmlns="http://www.w3.org/2000/svg">
<g clip-path="url(#clip0_301_1422)">
<path d="M0 -0.000976562H513V341.999H0V-0.000976562Z" fill="#01237A"/>
<path d="M384 71.372L389.283 87.626H406.372L392.546 97.671L397.827 113.925L384 103.878L370.175 113.925L375.455 97.671L361.63 87.626H378.719L384 71.372ZM313.791 100.453L329.019 108.211L341.103 96.128L338.43 113.007L353.657 120.766L336.778 123.439L334.104 140.319L326.344 125.092L309.466 127.765L321.552 115.681L313.791 100.453ZM284.71 170.662L300.964 165.381L300.965 148.292L311.009 162.117L327.263 156.835L317.217 170.662L327.263 184.488L311.009 179.208L300.965 193.033V175.943L284.71 170.662ZM313.791 240.871L321.55 225.642L309.466 213.558L326.347 216.232L334.104 201.005L336.778 217.884L353.657 220.556L338.43 228.315L341.103 245.197L329.019 233.11L313.791 240.871ZM384 269.951L378.719 253.698H361.628L375.455 243.653L370.175 227.399L384 237.443L397.827 227.399L392.546 243.653L406.372 253.698H389.283L384 269.951ZM454.209 240.871L438.98 233.113L426.897 245.197L429.57 228.315L414.343 220.559L431.222 217.884L433.897 201.005L441.653 216.232L458.534 213.558L446.448 225.643L454.209 240.871ZM483.29 170.662L467.036 175.943V193.033L456.991 179.207L440.737 184.488L450.783 170.662L440.737 156.835L456.991 162.117L467.036 148.292V165.381L483.29 170.662ZM454.209 100.455L446.452 115.681L458.534 127.765L441.653 125.092L433.897 140.319L431.222 123.439L414.343 120.764L429.57 113.007L426.897 96.1291L438.981 108.211L454.209 100.455ZM0 101.332V117.332H46.069L0 148.044V155.583L57.377 117.331H80L0 170.665H112V101.331H0V101.332ZM96 170.663H22.628L96 121.75V170.663ZM176 53.332L256 -0.00195312H144V69.332H256V53.332H209.931L256 22.618V15.079L198.623 53.33H176V53.332ZM160 4.57764e-05H233.372L160 48.913V4.57764e-05ZM144 170.665H256L176 117.331H198.623L256 155.584V148.045L209.931 117.332H256V101.332H144V170.665ZM160 121.75L233.372 170.663H160V121.75ZM112 -0.00195312H0L80 53.332H57.377L0 15.08V22.619L46.069 53.331H0V69.331H112V-0.00195312ZM96 48.913L22.628 4.57764e-05H96V48.913Z" fill="white"/>
<path d="M144 -0.00195312H112V69.332H0V101.332H112V170.665H144V101.332H256V69.332H144V-0.00195312Z" fill="#D80027"/>
<path d="M80 53.332L0 -0.00195312V15.08L57.377 53.332H80ZM176 53.332H198.623L256 15.08V-0.00195312L176 53.332ZM57.377 117.332L0 155.584V170.665L80 117.332H57.377ZM176 117.332L256 170.665V155.584L198.623 117.332H176Z" fill="#D80027"/>
</g>
<defs>
<clipPath id="clip0_301_1422">
<rect width="513" height="342" fill="white"/>
</clipPath>
</defs>
</svg>
