<svg width="513" height="342" viewBox="0 0 513 342" fill="none" xmlns="http://www.w3.org/2000/svg">
<g clip-path="url(#clip0_301_1385)">
<path d="M0 0H513V342H0V0Z" fill="#003893"/>
<path d="M0 182.2H513V223.6H0V182.2Z" fill="#CF2027"/>
<path d="M0 140.8H513V182.2H0V140.8ZM0 223.6H513V265H0V223.6Z" fill="white"/>
<path d="M150.4 70L157.3 91.1H179.5L161.5 104.2L168.4 125.3L150.4 112.2L132.5 125.3L139.3 104.2L121.4 91.1H143.6L150.4 70ZM150.4 279.7L157.3 300.8H179.5L161.5 313.8L168.4 335L150.4 321.9L132.5 335L139.3 313.8L121.4 300.8H143.6L150.4 279.7ZM52.8 208.8L59.7 229.9H81.9L63.9 242.9L70.8 264.1L52.8 251L34.9 264.1L41.7 242.9L23.8 229.9H46L52.8 208.8ZM90.1 91L97 112.1H119.2L101.2 125.1L108.1 146.3L90.1 133.2L72.2 146.3L79 125.1L61 112.1H83.3L90.1 91ZM23.8 162H46L52.8 140.9L59.7 162H81.9L63.9 175.1L70.8 196.2L52.8 183.2L34.9 196.2L41.7 175.1L23.8 162ZM72.2 310.9L79 289.8L61 276.8H83.3L90.1 255.6L97 276.8H119.2L101.2 289.8L108.1 310.9L90.1 297.9L72.2 310.9ZM248 208.8L241.1 229.9H218.9L236.9 242.9L230 264.1L248 251L266 264.1L259.1 242.9L277.1 229.9H254.9L248 208.8ZM210.7 91L203.9 112.1H181.7L199.6 125.1L192.8 146.3L210.7 133.2L228.7 146.3L221.8 125.1L239.8 112.1H217.6L210.7 91ZM277.1 162H254.9L248 140.9L241.1 162H218.9L236.9 175.1L230 196.2L248 183.2L266 196.2L259.1 175.1L277.1 162ZM228.7 310.9L221.8 289.8L239.8 276.8H217.6L210.7 255.6L203.9 276.8H181.7L199.6 289.8L192.8 310.9L210.7 297.9L228.7 310.9Z" fill="#F7D116"/>
<path fill-rule="evenodd" clip-rule="evenodd" d="M150.397 68.3809L157.663 90.6001H181.037L162.088 104.39L169.356 126.614L150.401 112.819L131.551 126.614L138.713 104.39L119.87 90.6001H143.236L150.397 68.3809ZM150.403 71.6194L143.964 91.6001H122.93L139.887 104.01L133.449 123.986L150.399 111.581L167.444 123.986L160.912 104.01L177.963 91.6001H156.937L150.403 71.6194ZM90.0965 89.3809L97.3626 111.6H120.746L101.788 125.292L109.053 147.612L90.1008 133.819L71.2541 147.612L78.4131 125.293L59.4537 111.6H82.9358L90.0965 89.3809ZM210.697 89.3809L217.963 111.6H241.346L222.388 125.292L229.653 147.612L210.701 133.819L191.854 147.612L199.013 125.292L180.161 111.6H203.536L210.697 89.3809ZM90.1035 92.6194L83.6642 112.6H62.5463L79.587 124.907L73.1459 144.988L90.0992 132.581L107.147 144.988L100.612 124.908L117.654 112.6H96.6375L90.1035 92.6194ZM210.703 92.6194L204.264 112.6H183.239L200.187 124.908L193.746 144.988L210.699 132.581L227.747 144.988L221.212 124.908L238.254 112.6H217.237L210.703 92.6194ZM52.7965 139.281L60.0626 161.5H83.4367L64.4883 175.29L71.7528 197.505L52.8008 183.817L33.9542 197.505L41.1134 175.29L22.2702 161.5H45.6358L52.7965 139.281ZM248 139.291L255.263 161.5H278.637L259.688 175.29L266.953 197.505L248 183.817L229.047 197.505L236.312 175.29L217.363 161.5H240.737L248 139.291ZM52.8035 142.519L46.3642 162.5H25.3298L42.2867 174.91L35.8459 194.895L52.7992 182.583L69.8472 194.895L63.3117 174.91L80.3633 162.5H59.3375L52.8035 142.519ZM248 142.509L241.463 162.5H220.437L237.488 174.91L230.953 194.895L248 182.583L265.047 194.895L258.512 174.91L275.563 162.5H254.537L248 142.509ZM52.7965 207.181L60.0626 229.4H83.4463L64.4883 243.092L71.7528 265.412L52.8008 251.619L33.9542 265.412L41.1134 243.092L22.2607 229.4H45.6358L52.7965 207.181ZM248 207.191L255.263 229.4H278.646L259.688 243.092L266.953 265.412L248 251.619L229.047 265.412L236.312 243.092L217.354 229.4H240.737L248 207.191ZM52.8035 210.419L46.3642 230.4H25.3393L42.2867 242.708L35.8459 262.788L52.7992 250.381L69.8472 262.788L63.3117 242.708L80.3537 230.4H59.3375L52.8035 210.419ZM248 210.409L241.463 230.4H220.446L237.488 242.708L230.953 262.788L248 250.382L265.047 262.788L258.512 242.708L275.554 230.4H254.537L248 210.409ZM90.0965 253.974L97.3631 276.3H120.746L101.789 289.992L109.053 312.205L90.1008 298.517L71.2542 312.205L78.4126 289.993L59.4537 276.3H82.9353L90.0965 253.974ZM210.697 253.974L217.963 276.3H241.346L222.389 289.992L229.653 312.205L210.701 298.517L191.854 312.205L199.013 289.992L180.161 276.3H203.535L210.697 253.974ZM90.1035 257.226L83.6647 277.3H62.5463L79.5874 289.608L73.1459 309.595L90.0992 297.283L107.147 309.595L100.611 289.609L117.654 277.3H96.6369L90.1035 257.226ZM210.703 257.226L204.265 277.3H183.239L200.187 289.609L193.746 309.595L210.699 297.283L227.747 309.595L221.211 289.609L238.254 277.3H217.237L210.703 257.226ZM150.397 278.081L157.663 300.3H181.046L162.088 313.992L169.353 336.312L150.401 322.519L131.554 336.312L138.713 313.992L119.861 300.3H143.236L150.397 278.081ZM150.403 281.319L143.964 301.3H122.939L139.887 313.608L133.446 333.688L150.399 321.281L167.447 333.688L160.912 313.608L177.954 301.3H156.937L150.403 281.319Z" fill="black"/>
</g>
<defs>
<clipPath id="clip0_301_1385">
<rect width="513" height="342" fill="white"/>
</clipPath>
</defs>
</svg>
