<svg width="513" height="342" viewBox="0 0 513 342" fill="none" xmlns="http://www.w3.org/2000/svg">
<g clip-path="url(#clip0_301_1372)">
<path d="M0 0H513V341.967H0V0Z" fill="#0021AD"/>
<path d="M0 0H513V341.967" fill="#1C8A42"/>
<path d="M77.7516 272.531L83.4627 284.454L96.2877 281.448L90.5766 293.372L100.897 301.488L88.0717 304.393V317.619L77.7516 309.303L67.5316 317.619V304.393L54.7066 301.488L65.0268 293.372L59.2154 281.448L72.1406 284.454L77.7516 272.531ZM40.5791 173.438L46.2902 185.361L59.1152 182.355L53.4041 194.178L63.7242 202.394L50.799 205.3L50.8992 218.526L40.5791 210.21L30.259 218.526L30.3592 205.3L17.434 202.394L27.8543 194.178L22.043 182.355L34.868 185.361L40.5791 173.438ZM77.7516 92.3799L83.4627 104.203L96.2877 101.297L90.5766 113.12L100.897 121.336L88.0717 124.242V137.368L77.7516 129.152L67.5316 137.368V124.242L54.7066 121.336L65.0268 113.12L59.2154 101.297L72.1406 104.203L77.7516 92.3799ZM123.942 155.403L129.653 167.326L142.478 164.32L136.767 176.243L147.087 184.359L134.262 187.265V200.491L123.942 192.275L113.722 200.491V187.265L100.897 184.359L111.217 176.243L105.506 164.32L118.331 167.326L123.942 155.403ZM90.9773 209.508L95.3859 223.235H109.914L98.1914 231.752L102.7 245.478L90.9773 237.062L79.2545 245.478L83.7633 231.752L72.0404 223.235H86.4686L90.9773 209.508Z" fill="white"/>
<path d="M267.622 245.679C308.847 245.679 342.267 212.259 342.267 171.033C342.267 129.808 308.847 96.3877 267.622 96.3877C226.396 96.3877 192.976 129.808 192.976 171.033C192.976 212.259 226.396 245.679 267.622 245.679Z" fill="#FFC639"/>
<path d="M267.622 220.73H292.47C292.47 220.73 303.291 201.693 292.47 183.458L317.319 158.609L304.894 133.761H292.47C292.47 133.761 286.258 152.397 261.41 152.397C236.561 152.397 230.349 133.761 230.349 133.761H217.925L230.349 158.609L217.925 183.458L230.349 195.882C230.349 195.882 242.773 171.033 267.622 183.458C267.622 183.458 278.142 198.988 267.622 220.73Z" fill="#1C8A42"/>
<path d="M465.307 92.3803C465.908 89.4746 465.107 74.7459 465.107 71.6399C465.107 50.2982 451.18 32.1629 431.842 25.8506C437.753 37.874 441.06 51.3002 441.06 65.6281C441.06 70.4375 440.659 75.1467 439.958 79.7557C437.052 75.0465 433.345 70.8383 428.736 67.1311C411.602 53.5045 388.056 53.1037 370.723 64.6262C384.149 67.5318 397.074 73.5436 408.496 82.6613C417.514 89.7752 424.728 99.4941 430.239 108.812C430.239 108.812 412.404 119.734 399.178 123.942C385.952 128.15 356.796 131.857 356.796 131.857C428.936 143.881 489.053 95.7869 489.053 95.7869C482.541 82.3608 473.222 91.7791 465.307 92.3803Z" fill="#FFC639"/>
</g>
<defs>
<clipPath id="clip0_301_1372">
<rect width="513" height="341.967" fill="white"/>
</clipPath>
</defs>
</svg>
