<svg width="513" height="342" viewBox="0 0 513 342" fill="none" xmlns="http://www.w3.org/2000/svg">
<g clip-path="url(#clip0_301_1365)">
<path d="M0 0H513V342H0V0Z" fill="white"/>
<path d="M141.7 154.7C141.7 154.7 141.9 221.8 216.4 220L220.9 233.9H229.8C229.8 233.9 222.4 192.8 289.9 192.4C289.9 192.4 289.9 164.8 317.5 164.8H359C359 164.8 293 113 417.9 46.8002L419.7 33.7002C419.7 33.7002 289.8 104.7 220.8 90.9002C220.8 90.9002 231.5 133.4 210 133.4C199.2 133.4 200.3 125.3 177.7 125.3C159 125.3 160.4 145 151.4 144.8C142.5 144.6 132.6 132.5 131.8 134.6C131.1 136.7 141.7 154.7 141.7 154.7Z" fill="#DB7D00"/>
<path d="M237.2 308.1C244.1 303.1 250.2 301.5 259.6 299.8C269 298.1 279 295.4 284.2 294C289.4 292.6 266.5 300.6 260.7 302.3C254.9 303.9 237.2 308.1 237.2 308.1ZM275.1 293.4C273.2 281.5 277.9 269.1 288.6 264.1C291.1 272.7 283.4 287.3 275.1 293.4ZM293.3 287.2C287.5 277.4 297.3 264.6 304.4 258.4C307.7 264.4 301.9 282.1 293.3 287.2ZM310.2 279.6C304 271.2 311.3 256.4 319 250.6C322.1 258.8 319.1 273.8 310.2 279.6ZM327.1 269C321.5 261 325.4 248.6 333.4 240.6C339.2 247.2 334.3 261.6 327.1 269ZM340.6 258.3C335.9 250.8 341.7 232.9 349.2 227.9C352.5 234.5 350 253.3 340.6 258.3ZM351.4 255.5C350 244.7 368.8 232.8 376.6 233.1C375.7 242 367.7 251.7 351.4 255.5ZM340.9 267.7C349.7 258.6 366.9 258.6 373 260.5C371.3 265.8 351.1 277.4 340.9 267.7Z" fill="#006651"/>
<path d="M328.7 276.8C341.1 273.5 349.2 270.7 356.6 278.5C351.4 285.1 331.2 283.2 328.7 276.8ZM311 284.8C322.9 278.4 337.3 287.8 339.5 293.4C326.2 298.9 310.8 286.2 311 284.8ZM294.7 294C305.5 289.9 317.9 295.4 322.9 301.5C317.1 304.2 301.9 307.2 294.7 294ZM279.8 298.7C292.2 297.3 304.2 306.7 306.8 312.1C290.9 313.6 284.8 308.9 279.8 298.7ZM275.8 308.1C268.9 303.1 262.8 301.5 253.4 299.8C244 298.1 234 295.4 228.8 294C223.5 292.6 246.5 300.6 252.3 302.3C258.1 303.9 275.8 308.1 275.8 308.1ZM237.9 293.4C239.8 281.5 235.1 269.1 224.4 264.1C221.9 272.7 229.6 287.3 237.9 293.4ZM219.7 287.2C225.5 277.4 215.7 264.6 208.6 258.4C205.3 264.4 211.1 282.1 219.7 287.2ZM202.8 279.6C209 271.2 201.7 256.4 194 250.6C190.9 258.8 193.9 273.8 202.8 279.6ZM185.9 269C191.5 261 187.6 248.6 179.6 240.6C173.8 247.2 178.7 261.6 185.9 269ZM172.4 258.3C177.1 250.8 171.3 232.9 163.8 227.9C160.5 234.5 163 253.3 172.4 258.3ZM161.6 255.5C163 244.7 144.2 232.8 136.4 233.1C137.3 242 145.3 251.7 161.6 255.5ZM172.1 267.7C163.3 258.6 146.1 258.6 140 260.5C141.7 265.8 161.9 277.4 172.1 267.7Z" fill="#006651"/>
<path d="M184.3 276.8C171.9 273.5 163.8 270.7 156.4 278.5C161.6 285.1 181.8 283.2 184.3 276.8ZM202 284.8C190.1 278.4 175.7 287.8 173.5 293.4C186.8 298.9 202.2 286.2 202 284.8ZM218.3 294C207.5 289.9 195.1 295.4 190.1 301.5C195.9 304.2 211.1 307.2 218.3 294ZM233.2 298.7C220.8 297.3 208.8 306.7 206.2 312.1C222.1 313.6 228.2 308.9 233.2 298.7Z" fill="#006651"/>
</g>
<defs>
<clipPath id="clip0_301_1365">
<rect width="513" height="342" fill="white"/>
</clipPath>
</defs>
</svg>
