<svg width="513" height="342" viewBox="0 0 513 342" fill="none" xmlns="http://www.w3.org/2000/svg">
<g clip-path="url(#clip0_301_1322)">
<path d="M0 0H513V341.967H0V0Z" fill="white"/>
<path d="M0 215.62H211.913V341.967H0V215.62Z" fill="#D80027"/>
<path d="M0 0H211.913V126.446H0V0Z" fill="#0052B4"/>
<path d="M301.087 0H513V126.446H301.087V0Z" fill="#D80027"/>
<path d="M301.087 215.62H513V341.967H301.087V215.62Z" fill="#0052B4"/>
<path d="M256.5 130.254H206.503V179.75C206.503 179.75 226.041 185.762 256.5 185.762V130.254Z" fill="#0052B4"/>
<path fill-rule="evenodd" clip-rule="evenodd" d="M204.003 127.754H259V188.262H256.5C241.107 188.262 228.464 186.743 219.653 185.22C215.247 184.458 211.797 183.694 209.438 183.118C208.259 182.83 207.352 182.589 206.735 182.418C206.426 182.333 206.189 182.265 206.028 182.217C205.947 182.194 205.884 182.175 205.841 182.162L205.79 182.147L205.775 182.142L205.769 182.14C205.768 182.14 205.767 182.14 206.503 179.75L205.767 182.14L204.003 181.597V127.754ZM209.003 177.851C209.458 177.97 210 178.109 210.624 178.261C212.881 178.812 216.219 179.552 220.505 180.293C228.599 181.692 240.064 183.096 254 183.248V132.754H209.003V177.851Z" fill="white"/>
<path d="M206.503 179.75V185.762C206.503 213.316 228.846 235.76 256.5 235.76V185.762C226.041 185.762 206.503 179.75 206.503 179.75Z" fill="#D80027"/>
<path fill-rule="evenodd" clip-rule="evenodd" d="M209.003 183.011V185.762C209.003 211.103 228.896 231.893 254 233.195V188.249C239.736 188.096 227.982 186.66 219.653 185.22C215.247 184.458 211.797 183.694 209.438 183.118C209.289 183.082 209.143 183.046 209.003 183.011ZM207.238 177.361L207.244 177.363L207.278 177.373C207.311 177.383 207.362 177.398 207.431 177.418C207.57 177.459 207.784 177.52 208.069 177.599C208.639 177.757 209.496 177.986 210.624 178.261C212.881 178.812 216.219 179.552 220.505 180.293C229.078 181.775 241.433 183.262 256.5 183.262H259V238.26H256.5C227.462 238.26 204.003 214.693 204.003 185.762V176.365L207.238 177.361Z" fill="white"/>
<path d="M256.5 235.76C284.054 235.76 306.497 213.416 306.497 185.762V179.75C306.497 179.75 286.959 185.762 256.5 185.762V235.76Z" fill="#0052B4"/>
<path fill-rule="evenodd" clip-rule="evenodd" d="M308.997 176.365V185.762C308.997 214.8 285.431 238.26 256.5 238.26V235.76H254V183.262H256.5C271.567 183.262 283.922 181.775 292.495 180.293C296.781 179.552 300.119 178.812 302.376 178.261C303.504 177.986 304.361 177.757 304.931 177.599C305.216 177.52 305.43 177.459 305.569 177.418C305.638 177.398 305.689 177.383 305.722 177.373L305.756 177.363L305.762 177.361L305.763 177.361L308.997 176.365ZM259 233.195C284.02 231.894 303.997 211.191 303.997 185.762V183.011C303.857 183.046 303.711 183.082 303.562 183.118C301.203 183.694 297.753 184.458 293.347 185.22C285.018 186.66 273.264 188.096 259 188.249V233.195Z" fill="white"/>
<path d="M256.5 130.254V185.762C286.959 185.762 306.497 179.75 306.497 179.75V130.254H256.5Z" fill="#D80027"/>
<path fill-rule="evenodd" clip-rule="evenodd" d="M254 127.754H308.997V181.597L307.233 182.14L306.497 179.75C307.233 182.14 307.232 182.14 307.231 182.14L307.225 182.142L307.21 182.147L307.159 182.162C307.116 182.175 307.053 182.194 306.972 182.217C306.811 182.265 306.574 182.333 306.266 182.418C305.648 182.589 304.741 182.83 303.562 183.118C301.203 183.694 297.753 184.458 293.347 185.22C284.536 186.743 271.893 188.262 256.5 188.262H254V127.754ZM303.997 177.851V132.754H259V183.248C272.936 183.096 284.401 181.692 292.495 180.293C296.781 179.552 300.119 178.812 302.376 178.261C303 178.109 303.542 177.97 303.997 177.851Z" fill="white"/>
</g>
<defs>
<clipPath id="clip0_301_1322">
<rect width="513" height="341.967" fill="white"/>
</clipPath>
</defs>
</svg>
