<svg width="513" height="342" viewBox="0 0 513 342" fill="none" xmlns="http://www.w3.org/2000/svg">
<g clip-path="url(#clip0_301_1316)">
<path d="M0 0H513V341.967H0V0Z" fill="#41662E"/>
<path d="M256.5 0H513V341.967H256.5V0Z" fill="white"/>
<path d="M342.167 105.506L312.71 145.985L265.117 130.555L294.574 171.033L265.117 211.512L312.71 196.082L342.167 236.561V186.464L389.76 170.933L342.167 155.503V105.506Z" fill="#D80027"/>
<path d="M310.505 277.241C251.891 277.241 204.298 229.648 204.298 171.033C204.298 112.419 251.891 64.8264 310.505 64.8264C328.841 64.8264 345.974 69.4354 361.004 77.5512C337.458 54.5063 305.195 40.2786 269.626 40.2786C197.485 40.2786 138.971 98.7926 138.971 170.933C138.971 243.074 197.485 301.588 269.626 301.588C305.195 301.588 337.458 287.36 361.004 264.315C346.075 272.531 328.841 277.241 310.505 277.241Z" fill="#D80027"/>
</g>
<defs>
<clipPath id="clip0_301_1316">
<rect width="513" height="341.967" fill="white"/>
</clipPath>
</defs>
</svg>
