<svg width="513" height="342" viewBox="0 0 513 342" fill="none" xmlns="http://www.w3.org/2000/svg">
<g clip-path="url(#clip0_301_1308)">
<path d="M0 0H513V341.967H0V0Z" fill="#FFDA44"/>
<path d="M0 171.033H513V256.5H0V171.033Z" fill="#0052B4"/>
<path d="M0 256.5H513V341.967H0V256.5Z" fill="#D80027"/>
<path d="M256.5 230.549C289.37 230.549 316.016 203.903 316.016 171.033C316.016 138.164 289.37 111.517 256.5 111.517C223.63 111.517 196.984 138.164 196.984 171.033C196.984 203.903 223.63 230.549 256.5 230.549Z" fill="#FFDA44"/>
<path d="M369.921 80.056C369.921 80.056 342.668 66.2291 335.955 64.0248C329.242 61.8205 286.759 50.799 286.759 57.0111C286.759 67.3312 273.233 69.0345 271.229 69.0345C269.225 69.0345 269.225 63.7242 256.4 63.7242C243.575 63.7242 242.673 68.5336 240.569 68.5336C238.365 68.5336 226.041 67.5316 226.041 57.0111C226.041 51.8009 183.057 61.0189 176.845 64.0248C170.733 67.1308 142.879 80.056 142.879 80.056C142.879 80.056 188.768 82.7613 196.884 86.2681C205 89.775 240.769 102.8 240.769 102.8L237.964 116.126H275.838L272.03 102.8C272.03 102.8 307.199 90.0756 315.916 86.2681C324.633 82.4607 369.921 80.056 369.921 80.056Z" fill="#4C1F00"/>
<path d="M218.125 172.035C218.125 193.177 235.359 210.41 256.5 210.41C277.641 210.41 294.875 193.177 294.875 172.035V160.513H218.225V172.035H218.125Z" fill="#57BA17"/>
<path d="M256.5 110.716C235.359 110.716 218.125 127.949 218.125 149.091V160.613H294.775V149.091C294.875 127.949 277.641 110.716 256.5 110.716Z" fill="#338AF3"/>
</g>
<defs>
<clipPath id="clip0_301_1308">
<rect width="513" height="341.967" fill="white"/>
</clipPath>
</defs>
</svg>
