<svg width="513" height="342" viewBox="0 0 513 342" fill="none" xmlns="http://www.w3.org/2000/svg">
<g clip-path="url(#clip0_301_1299)">
<path d="M0 0H513V341.967H0V0Z" fill="white"/>
<path d="M0 0H513V114.022H0V0Z" fill="#D80027"/>
<path d="M0 228.044H513V342.067H0V228.044Z" fill="black"/>
<path d="M220.73 204.799C220.73 204.799 220.73 146.285 225.239 139.973C228.345 135.665 242.072 145.183 247.983 144.482C247.983 144.482 252.192 136.967 252.492 132.458C252.793 127.849 251.39 124.843 247.583 126.246C247.583 126.246 246.38 124.142 248.084 122.94C249.687 121.737 253.694 123.04 253.694 123.04C253.694 123.04 253.194 122.038 255.298 122.138C258.203 122.339 262.512 123.541 262.712 127.749C262.912 130.855 263.013 135.464 263.113 136.466C263.814 143.279 265.818 145.183 265.818 145.183C265.818 145.183 284.254 135.965 287.861 139.973C291.168 143.78 292.37 204.799 292.37 204.799L274.235 187.966L286.358 217.524C286.358 217.524 271.93 219.929 257.402 219.929C242.873 219.929 226.241 215.721 226.241 215.721L240.068 187.465L220.73 204.799Z" fill="#C09300"/>
</g>
<defs>
<clipPath id="clip0_301_1299">
<rect width="513" height="341.967" fill="white"/>
</clipPath>
</defs>
</svg>
