<svg width="513" height="342" viewBox="0 0 513 342" fill="none" xmlns="http://www.w3.org/2000/svg">
<g clip-path="url(#clip0_301_1292)">
<path d="M0 0H513V341.967H0V0Z" fill="white"/>
<path d="M0 0H513V114.022H0V0Z" fill="black"/>
<path d="M0 228.044H513V342.067H0V228.044Z" fill="#428823"/>
<path d="M256.5 171.033L0 341.967V0L256.5 171.033ZM309.704 171.033C309.704 148.089 322.829 128.851 344.371 124.142C341.065 123.441 337.658 123.04 334.051 123.04C307.6 123.04 286.058 144.482 286.058 171.033C286.058 197.585 307.499 219.027 334.051 219.027C337.558 219.027 341.065 218.626 344.371 217.925C322.829 213.115 309.704 193.978 309.704 171.033Z" fill="#D80027"/>
<path d="M365.713 129.452L376.033 161.214H409.398L382.345 180.853L392.665 212.614L365.713 192.976L338.66 212.614L348.98 180.853L321.927 161.214H355.393L365.713 129.452Z" fill="#D80027"/>
</g>
<defs>
<clipPath id="clip0_301_1292">
<rect width="513" height="341.967" fill="white"/>
</clipPath>
</defs>
</svg>
