<svg width="513" height="342" viewBox="0 0 513 342" fill="none" xmlns="http://www.w3.org/2000/svg">
<g clip-path="url(#clip0_301_1279)">
<path d="M0 0H513V341.967H0V0Z" fill="#338AF3"/>
<path d="M0 0H513V171.033H0V0Z" fill="#56AF35"/>
<path d="M0 341.967L513 170.933L0 0V341.967Z" fill="#D80027"/>
<path d="M134.963 231.952C168.629 231.952 195.882 204.699 195.882 171.033C195.882 137.368 168.629 110.115 134.963 110.115C101.297 110.115 74.0443 137.368 74.0443 171.033C74.0443 204.699 101.297 231.952 134.963 231.952ZM134.963 256.3C87.8713 256.3 49.5967 218.125 49.5967 170.933C49.5967 123.741 87.7711 85.5669 134.963 85.5669C182.155 85.5669 220.329 123.741 220.329 170.933C220.329 218.125 182.055 256.3 134.963 256.3Z" fill="#FFC945"/>
<path d="M119.733 166.124C129.417 166.124 137.268 158.274 137.268 148.59C137.268 138.906 129.417 131.056 119.733 131.056C110.05 131.056 102.199 138.906 102.199 148.59C102.199 158.274 110.05 166.124 119.733 166.124Z" fill="#FFC945"/>
<path d="M149.191 176.344C158.875 176.344 166.725 168.493 166.725 158.81C166.725 149.126 158.875 141.275 149.191 141.275C139.507 141.275 131.657 149.126 131.657 158.81C131.657 168.493 139.507 176.344 149.191 176.344Z" fill="#FFC945"/>
<path d="M134.963 152.999C144.647 152.999 152.497 145.148 152.497 135.464C152.497 125.78 144.647 117.93 134.963 117.93C125.279 117.93 117.429 125.78 117.429 135.464C117.429 145.148 125.279 152.999 134.963 152.999Z" fill="#FFC945"/>
<path d="M119.733 190.572C129.417 190.572 137.268 182.721 137.268 173.038C137.268 163.354 129.417 155.503 119.733 155.503C110.05 155.503 102.199 163.354 102.199 173.038C102.199 182.721 110.05 190.572 119.733 190.572Z" fill="#FFC945"/>
<path d="M150.193 200.691C159.877 200.691 167.727 192.841 167.727 183.157C167.727 173.473 159.877 165.623 150.193 165.623C140.509 165.623 132.659 173.473 132.659 183.157C132.659 192.841 140.509 200.691 150.193 200.691Z" fill="#FFC945"/>
<path d="M122.739 215.921C132.423 215.921 140.273 208.071 140.273 198.387C140.273 188.703 132.423 180.853 122.739 180.853C113.055 180.853 105.205 188.703 105.205 198.387C105.205 208.071 113.055 215.921 122.739 215.921Z" fill="#FFC945"/>
<path d="M146.185 223.135C155.869 223.135 163.719 215.285 163.719 205.601C163.719 195.917 155.869 188.067 146.185 188.067C136.501 188.067 128.651 195.917 128.651 205.601C128.651 215.285 136.501 223.135 146.185 223.135Z" fill="#FFC945"/>
</g>
<defs>
<clipPath id="clip0_301_1279">
<rect width="513" height="341.967" fill="white"/>
</clipPath>
</defs>
</svg>
