<svg width="513" height="342" viewBox="0 0 513 342" fill="none" xmlns="http://www.w3.org/2000/svg">
<g clip-path="url(#clip0_301_1272)">
<path d="M0 0.240234H512V342.24H0V0.240234Z" fill="white"/>
<path d="M0 0.240234H512V91.4402H0V0.240234ZM0 251.04H512V342.24H0V251.04Z" fill="#D03433"/>
<path d="M0 91.2402H512V251.24H0V91.2402Z" fill="#FBCA46"/>
<path d="M177.493 159.84H200.249V171.24H177.493V159.84Z" fill="white"/>
<path d="M163.84 194.04C163.84 200.88 170.667 205.44 177.493 205.44C184.32 205.44 191.147 200.88 191.147 194.04L193.422 159.84H161.564L163.84 194.04ZM150.187 159.84C150.187 153 154.738 148.44 159.289 148.44H193.422C200.249 148.44 204.8 153 204.8 157.56V159.84L202.524 194.04C200.249 207.72 191.147 216.84 177.493 216.84C163.84 216.84 154.738 207.72 152.462 194.04L150.187 159.84Z" fill="#A41517"/>
<path d="M154.738 171.24H200.249V182.64H188.871L177.493 205.44L166.116 182.64H154.738V171.24ZM120.604 137.04H143.36V216.84H120.604V137.04ZM211.627 137.04H234.382V216.84H211.627V137.04ZM154.738 125.64C154.738 118.8 159.289 114.24 166.116 114.24H188.871C195.698 114.24 200.249 118.8 200.249 125.64V130.2C200.249 134.76 197.973 137.04 193.422 137.04H159.289C157.013 137.04 154.738 134.76 154.738 132.48V125.64Z" fill="#A41517"/>
</g>
<defs>
<clipPath id="clip0_301_1272">
<rect width="513" height="342" fill="white"/>
</clipPath>
</defs>
</svg>
