<svg width="513" height="342" viewBox="0 0 513 342" fill="none" xmlns="http://www.w3.org/2000/svg">
<g clip-path="url(#clip0_301_1264)">
<path d="M0 0H513V114H0V0Z" fill="#20AA46"/>
<path d="M0 228H513V342H0V228Z" fill="#E92F3B"/>
<path d="M0 114H513V228H0V114Z" fill="#FADF50"/>
<path d="M257.631 289.556C323.11 289.556 376.191 236.474 376.191 170.996C376.191 105.517 323.11 52.4355 257.631 52.4355C192.152 52.4355 139.071 105.517 139.071 170.996C139.071 236.474 192.152 289.556 257.631 289.556Z" fill="#205CCA"/>
<path fill-rule="evenodd" clip-rule="evenodd" d="M257.64 76.126L279.932 140.216H352.947L294.019 182.308L316.47 249.663L257.64 207.641L198.809 249.663L221.293 182.211L165.3 140.216H235.292L236.272 137.274L236.361 137.303L257.64 76.126ZM231.492 151.616L225.093 170.811L199.5 151.616H231.492ZM231.014 189.1L220.71 220.01L246.889 201.311L231.014 189.1ZM267.47 200.653L294.569 220.01L284.268 189.105L267.47 200.653ZM291.025 170.437L317.373 151.616H283.706L291.025 170.437ZM267.862 140.216L257.64 110.827L247.417 140.216H267.862ZM243.508 151.616L234.83 177.653L256.526 194.342L281.431 177.22L271.474 151.616H243.508Z" fill="#FFDB3D"/>
<path fill-rule="evenodd" clip-rule="evenodd" d="M289.423 121.602L312.223 85.1216L317.057 88.1426L294.257 124.623L289.423 121.602ZM221.091 127.007L196.011 90.5267L200.708 87.2975L225.788 123.777L221.091 127.007ZM160.847 202.536L201.887 186.576L203.953 191.888L162.913 207.848L160.847 202.536ZM313.393 186.576L354.433 202.536L352.367 207.848L311.327 191.888L313.393 186.576ZM254.79 273.592V230.272H260.49V273.592H254.79Z" fill="#FFDB3D"/>
</g>
<defs>
<clipPath id="clip0_301_1264">
<rect width="513" height="342" fill="white"/>
</clipPath>
</defs>
</svg>
