<svg width="513" height="342" viewBox="0 0 513 342" fill="none" xmlns="http://www.w3.org/2000/svg">
<g clip-path="url(#clip0_301_1261)">
<path d="M0 0H513V342H0V0Z" fill="#003399"/>
<path d="M256.469 37.9146L260.734 51.0359H274.601L263.433 59.1502L267.637 72.2855L256.469 64.1713L245.301 72.2855L249.567 59.1572L238.399 51.0429H252.203L256.469 37.9146ZM199.469 53.1145L203.734 66.2359H217.601L206.433 74.3502L210.637 87.4855L199.469 79.3713L188.301 87.4855L192.567 74.3572L181.399 66.2429H195.203L199.469 53.1145ZM157.669 94.9145L161.934 108.036H175.801L164.633 116.15L168.837 129.286L157.669 121.171L146.501 129.286L150.767 116.157L139.599 108.043H153.403L157.669 94.9145ZM142.469 151.914L146.734 165.036H160.601L149.433 173.151L153.637 186.286L142.469 178.171L131.301 186.286L135.567 173.157L124.399 165.043H138.203L142.469 151.914ZM157.669 208.915L161.934 222.037H175.801L164.633 230.15L168.837 243.286L157.669 235.172L146.501 243.286L150.767 230.157L139.599 222.043H153.403L157.669 208.915ZM199.469 250.715L203.734 263.837H217.601L206.433 271.95L210.637 285.086L199.469 276.972L188.301 285.086L192.567 271.957L181.399 263.843H195.203L199.469 250.715ZM313.469 53.1145L317.734 66.2359H331.601L320.433 74.3502L324.636 87.4855L313.469 79.3713L302.3 87.4855L306.567 74.3572L295.399 66.2429H309.203L313.469 53.1145ZM355.269 94.9145L359.534 108.036H373.401L362.233 116.15L366.436 129.286L355.269 121.171L344.1 129.286L348.367 116.157L337.199 108.043H351.003L355.269 94.9145ZM370.469 151.915L374.734 165.036H388.601L377.433 173.151L381.637 186.286L370.469 178.171L359.301 186.286L363.567 173.157L352.399 165.043H366.203L370.469 151.915ZM355.269 208.915L359.534 222.037H373.401L362.233 230.15L366.437 243.286L355.269 235.172L344.101 243.286L348.367 230.157L337.199 222.043H351.003L355.269 208.915ZM256.469 265.915L260.734 279.037H274.601L263.433 287.15L267.637 300.286L256.469 292.172L245.301 300.286L249.567 287.157L238.399 279.043H252.203L256.469 265.915ZM313.469 250.714L317.734 263.836H331.601L320.433 271.95L324.638 285.086L313.469 276.971L302.301 285.086L306.567 271.957L295.399 263.843H309.204L313.469 250.714Z" fill="#FFCC00"/>
</g>
<defs>
<clipPath id="clip0_301_1261">
<rect width="513" height="342" fill="white"/>
</clipPath>
</defs>
</svg>
