<svg width="513" height="342" viewBox="0 0 513 342" fill="none" xmlns="http://www.w3.org/2000/svg">
<g clip-path="url(#clip0_301_1249)">
<path d="M0 0H513V341.967H0V0Z" fill="#2E52B2"/>
<path d="M256.5 0V22.6441L210.31 53.4041H256.5V117.529H210.31L256.5 148.289V171.033H233.856L160.312 121.938V171.033H96.1875V121.938L22.6441 171.033H0V148.289L46.19 117.529H0V53.4041H46.19L0 22.6441V0H22.6441L96.1875 48.9955V0H160.312V48.9955L233.856 0H256.5Z" fill="white"/>
<path d="M144.281 0H112.219V69.4354H0V101.498H112.219V171.033H144.281V101.498H256.5V69.4354H144.281V0Z" fill="#D80027"/>
<path d="M0 0V15.1295L57.5121 53.4041H80.1562L0 0ZM256.5 0V15.1295L198.988 53.4041H176.344L256.5 0Z" fill="#D80027"/>
<path d="M0 0V15.1295L57.5121 53.4041H80.1562L0 0ZM256.5 0V15.1295L198.988 53.4041H176.344L256.5 0ZM0 171.033V155.904L57.5121 117.529H80.1562L0 171.033ZM256.5 171.033V155.904L198.988 117.529H176.344L256.5 171.033Z" fill="#D80027"/>
<path d="M307.7 127.348V219.528C307.7 281.248 388.357 300.185 388.357 300.185C388.357 300.185 468.914 281.148 468.914 219.428V127.248L388.257 104.203L307.7 127.348Z" fill="#F3F3F3"/>
<path d="M468.914 133.06V98.4922H307.7V133.06H376.835V202.194H307.7V225.239H376.835V296.578C383.748 299.083 388.357 300.085 388.357 300.085C388.357 300.085 392.966 298.983 399.88 296.578V225.239H469.014V202.194H399.88V133.06H468.914Z" fill="#D80027"/>
</g>
<defs>
<clipPath id="clip0_301_1249">
<rect width="513" height="341.967" fill="white"/>
</clipPath>
</defs>
</svg>
