<svg width="513" height="342" viewBox="0 0 513 342" fill="none" xmlns="http://www.w3.org/2000/svg">
<g clip-path="url(#clip0_301_1233)">
<path d="M0 0H513V341.967H0V0Z" fill="#0052B4"/>
<path d="M256.5 0V30.6598L211.212 55.8088H256.5V115.225H197.285L256.5 148.089V171.033H229.748L156.104 130.054V171.033H100.396V122.338L12.7248 171.033H0V140.374L45.2883 115.225H0V55.8088H59.2154L0 22.8445V0H26.7521L100.396 40.8797V0H156.104V48.6949L243.775 0H256.5Z" fill="white"/>
<path d="M144.281 0H112.219V69.4354H0V101.498H112.219V171.033H144.281V101.498H256.5V69.4354H144.281V0Z" fill="#D80027"/>
<path d="M156.104 115.225L256.5 171.033V155.203L184.56 115.225H156.104Z" fill="#0052B4"/>
<path d="M156.104 115.225L256.5 171.033V155.203L184.56 115.225H156.104Z" fill="white"/>
<path d="M156.104 115.225L256.5 171.033V155.203L184.56 115.225H156.104ZM71.9402 115.225L0 155.203V171.033L100.396 115.225H71.9402Z" fill="#D80027"/>
<path d="M100.396 55.7086L0 0V15.7307L71.9402 55.7086H100.396Z" fill="#0052B4"/>
<path d="M100.396 55.7086L0 0V15.7307L71.9402 55.7086H100.396Z" fill="white"/>
<path d="M100.396 55.7086L0 0V15.7307L71.9402 55.7086H100.396ZM184.56 55.7086L256.5 15.7307V0L156.104 55.7086H184.56Z" fill="#D80027"/>
<path d="M312.81 194.579V104.403C312.81 95.8865 319.323 89.0732 327.839 89.0732H448.574C456.891 89.0732 463.604 95.8865 463.604 104.403V194.579C463.604 269.926 388.257 300.085 388.257 300.085C388.257 300.085 312.81 269.926 312.81 194.579Z" fill="#1F8BDE"/>
<path d="M312.81 194.579V104.403C312.81 95.8865 319.323 89.0732 327.839 89.0732H448.574C456.891 89.0732 463.604 95.8865 463.604 104.403V194.579C463.604 269.926 388.257 300.085 388.257 300.085C388.257 300.085 312.81 269.926 312.81 194.579ZM392.565 281.047C400.481 276.539 408.496 271.028 415.811 264.315C436.351 245.779 448.474 222.834 448.474 194.479V104.303C448.474 104.002 327.839 104.002 327.839 104.002V194.479C327.839 222.834 339.963 245.779 360.503 264.315C368.819 271.829 378.137 278.242 388.157 283.352C389.559 282.751 390.962 281.949 392.565 281.047Z" fill="white"/>
<path d="M347.778 193.778C345.173 185.863 349.481 179.45 357.898 179.45H418.516C426.732 179.45 431.341 185.762 428.635 193.778L423.125 210.31C420.52 218.226 414.207 219.528 407.294 214.318C407.294 214.318 409.899 209.509 388.157 209.509C366.414 209.509 369.019 214.318 369.019 214.318C362.907 220.029 355.894 218.326 353.188 210.31C353.289 210.411 347.778 193.778 347.778 193.778Z" fill="#187536"/>
<path d="M358.098 179.449C366.214 181.053 375.933 164.42 388.257 164.42C401.382 164.42 410.099 181.554 418.416 179.449C425.83 177.646 433.445 157.206 433.445 149.291C433.445 132.658 413.205 119.132 388.257 119.132C363.308 119.132 343.069 132.658 343.069 149.291C342.969 157.807 349.682 177.846 358.098 179.449ZM356.695 271.228C362.907 271.629 369.22 269.425 373.929 264.716L382.946 255.698C385.852 252.792 390.461 252.792 393.367 255.698L402.384 264.716C407.094 269.425 413.406 271.629 419.518 271.228C424.828 270.928 452.081 237.663 445.268 238.565C440.659 239.166 436.15 241.37 432.543 244.877L432.443 244.977L423.425 253.995C420.52 256.9 415.911 256.9 413.005 253.995L403.987 244.977C395.27 236.16 381.043 236.16 372.226 244.877L372.125 244.977L363.108 253.995C360.202 256.9 355.593 256.9 352.687 253.995L343.67 244.977C340.163 241.47 335.855 239.366 331.346 238.665C324.633 237.563 351.485 270.928 356.695 271.228ZM322.729 210.41C325.635 207.504 330.244 207.504 333.149 210.41L342.167 219.427C350.984 228.144 365.112 228.144 373.929 219.427L382.946 210.41C385.852 207.504 390.461 207.504 393.367 210.41L402.384 219.427C411.202 228.144 425.329 228.144 434.146 219.427L443.164 210.41C446.069 207.504 450.678 207.504 453.584 210.41C453.584 210.41 459.095 195.581 456.089 194.479C448.174 191.573 438.855 193.276 432.543 199.689L432.443 199.789L423.425 208.807C420.52 211.712 415.911 211.712 413.005 208.807L403.987 199.789C395.27 190.972 381.043 190.972 372.226 199.689L372.125 199.789L363.108 208.807C360.202 211.712 355.593 211.712 352.687 208.807L343.67 199.789C337.458 193.577 328.54 191.773 320.825 194.278C317.719 195.38 322.729 210.41 322.729 210.41Z" fill="white"/>
</g>
<defs>
<clipPath id="clip0_301_1233">
<rect width="513" height="341.967" fill="white"/>
</clipPath>
</defs>
</svg>
