<svg width="513" height="342" viewBox="0 0 513 342" fill="none" xmlns="http://www.w3.org/2000/svg">
<g clip-path="url(#clip0_301_1189)">
<path d="M0 0H513V341.967H0V0Z" fill="#C60A0A"/>
<path d="M256.5 171.033L44.5869 297.38V44.5869L256.5 171.033Z" fill="#3E8446"/>
<path d="M256.5 171.033L468.413 297.38H44.5869L256.5 171.033ZM468.413 44.5869L256.5 171.033L44.5869 44.5869H468.413Z" fill="#FFDA44"/>
<path d="M468.413 44.5869V297.38L256.5 171.033L468.413 44.5869Z" fill="#3E8446"/>
<path d="M256.5 10.4203L259.806 20.6402H270.527L261.91 26.9525L265.217 37.1724L256.5 30.8601L247.783 37.1724L251.089 26.9525L242.473 20.6402H253.193L256.5 10.4203ZM170.432 10.4203L173.739 20.6402H184.459L175.843 26.9525L179.149 37.1724L170.432 30.8601L161.715 37.1724L165.022 26.9525L156.405 20.6402H167.126L170.432 10.4203ZM342.568 10.4203L345.874 20.6402H356.695L347.978 26.9525L351.285 37.1724L342.568 30.8601L333.851 37.1724L337.157 26.9525L328.54 20.6402H339.261L342.568 10.4203ZM256.5 304.794L259.806 315.014H270.527L261.91 321.326L265.217 331.546L256.5 325.234L247.783 331.546L251.089 321.326L242.473 315.014H253.193L256.5 304.794ZM170.432 304.794L173.739 315.014H184.459L175.843 321.326L179.149 331.546L170.432 325.234L161.715 331.546L165.022 321.326L156.405 315.014H167.126L170.432 304.794ZM342.568 304.794L345.874 315.014H356.695L347.978 321.326L351.285 331.546L342.568 325.234L333.851 331.546L337.157 321.326L328.54 315.014H339.261L342.568 304.794Z" fill="#FFDA44"/>
<path d="M244.977 247.382C287.144 247.382 321.326 213.2 321.326 171.033C321.326 128.867 287.144 94.6846 244.977 94.6846C202.811 94.6846 168.629 128.867 168.629 171.033C168.629 213.2 202.811 247.382 244.977 247.382Z" fill="#C60A0A"/>
<path d="M244.978 110.315L258.604 152.197H302.69L267.021 178.047L280.647 219.929L244.978 194.078L209.408 219.929L223.035 178.047L187.365 152.197H231.451L244.978 110.315ZM107.91 168.128C112.319 175.041 110.215 184.259 103.301 188.668C96.388 193.076 87.17 190.972 82.7614 184.059C74.846 171.534 79.455 150.994 79.455 150.994C79.455 150.994 99.8948 155.603 107.91 168.128Z" fill="#FFDA44"/>
<path d="M99.2936 189.87C103.388 189.87 106.708 186.551 106.708 182.456C106.708 178.361 103.388 175.041 99.2936 175.041C95.1987 175.041 91.8792 178.361 91.8792 182.456C91.8792 186.551 95.1987 189.87 99.2936 189.87Z" fill="#A2001D"/>
</g>
<defs>
<clipPath id="clip0_301_1189">
<rect width="513" height="341.967" fill="white"/>
</clipPath>
</defs>
</svg>
