<svg width="513" height="342" viewBox="0 0 513 342" fill="none" xmlns="http://www.w3.org/2000/svg">
<g clip-path="url(#clip0_301_1172)">
<path d="M0 0H513V341.967H0V0Z" fill="white"/>
<path d="M0 0H513V48.8953H0V0ZM0 97.6904H513V146.586H0V97.6904ZM0 195.381H513V244.276H0V195.381ZM0 293.171H513V342.067H0V293.171Z" fill="#6DA544"/>
<path d="M0 0H256.5V146.586H0V0Z" fill="#D80027"/>
<path d="M117.128 114.623L109.614 99.7945V70.0365L128.25 59.1152L146.886 70.0365V92.3801L154.301 84.9656L158.509 87.9715L154.301 99.7945L139.372 114.623H117.128Z" fill="white"/>
<path d="M82.1601 88.3724C85.1482 88.3724 87.5706 85.95 87.5706 82.9618C87.5706 79.9737 85.1482 77.5513 82.1601 77.5513C79.1719 77.5513 76.7495 79.9737 76.7495 82.9618C76.7495 85.95 79.1719 88.3724 82.1601 88.3724Z" fill="white"/>
<path d="M90.9774 67.231C93.9656 67.231 96.388 64.8086 96.388 61.8205C96.388 58.8323 93.9656 56.4099 90.9774 56.4099C87.9893 56.4099 85.5669 58.8323 85.5669 61.8205C85.5669 64.8086 87.9893 67.231 90.9774 67.231Z" fill="white"/>
<path d="M106.808 51.7007C109.796 51.7007 112.219 49.2784 112.219 46.2902C112.219 43.302 109.796 40.8796 106.808 40.8796C103.82 40.8796 101.398 43.302 101.398 46.2902C101.398 49.2784 103.82 51.7007 106.808 51.7007Z" fill="white"/>
<path d="M128.25 46.2903C131.238 46.2903 133.66 43.8679 133.66 40.8798C133.66 37.8916 131.238 35.4692 128.25 35.4692C125.262 35.4692 122.839 37.8916 122.839 40.8798C122.839 43.8679 125.262 46.2903 128.25 46.2903Z" fill="white"/>
<path d="M149.692 51.7007C152.68 51.7007 155.102 49.2784 155.102 46.2902C155.102 43.302 152.68 40.8796 149.692 40.8796C146.704 40.8796 144.281 43.302 144.281 46.2902C144.281 49.2784 146.704 51.7007 149.692 51.7007Z" fill="white"/>
<path d="M165.523 67.231C168.511 67.231 170.933 64.8086 170.933 61.8205C170.933 58.8323 168.511 56.4099 165.523 56.4099C162.534 56.4099 160.112 58.8323 160.112 61.8205C160.112 64.8086 162.534 67.231 165.523 67.231Z" fill="white"/>
<path d="M174.34 88.3724C177.328 88.3724 179.75 85.95 179.75 82.9618C179.75 79.9737 177.328 77.5513 174.34 77.5513C171.352 77.5513 168.929 79.9737 168.929 82.9618C168.929 85.95 171.352 88.3724 174.34 88.3724Z" fill="white"/>
</g>
<defs>
<clipPath id="clip0_301_1172">
<rect width="513" height="341.967" fill="white"/>
</clipPath>
</defs>
</svg>
