<svg width="513" height="342" viewBox="0 0 513 342" fill="none" xmlns="http://www.w3.org/2000/svg">
<g clip-path="url(#clip0_301_1185)">
<path d="M0 0.107422H513V342.107H0V0.107422Z" fill="white"/>
<path d="M223.44 136.8H0V205.2H223.44V342H291.84V205.2H515.28V136.8H291.84V0H223.44V136.8Z" fill="#EB000E"/>
<path d="M394.44 61.5602L389.881 34.2002H412.681L408.12 61.5602L435.48 57.0002V79.8002L408.12 75.2402L412.681 102.6H389.881L394.44 75.2402L367.081 79.8002V57.0002L394.44 61.5602ZM104.881 61.5602L100.321 34.2002H123.121L118.561 61.5602L145.921 57.0002V79.8002L118.561 75.2402L123.121 102.6H100.321L104.881 75.2402L77.5205 79.8002V57.0002L104.881 61.5602ZM104.881 266.76L100.321 239.4H123.121L118.561 266.76L145.921 262.2V285L118.561 280.44L123.121 307.8H100.321L104.881 280.44L77.5205 285V262.2L104.881 266.76ZM394.44 266.76L389.881 239.4H412.681L408.12 266.76L435.48 262.2V285L408.12 280.44L412.681 307.8H389.881L394.44 280.44L367.081 285V262.2L394.44 266.76Z" fill="#EB000E"/>
</g>
<defs>
<clipPath id="clip0_301_1185">
<rect width="513" height="342" fill="white"/>
</clipPath>
</defs>
</svg>
