<svg width="513" height="342" viewBox="0 0 513 342" fill="none" xmlns="http://www.w3.org/2000/svg">
<g clip-path="url(#clip0_301_1146)">
<path d="M0 0H513V342H0V0Z" fill="white"/>
<path d="M0 230H513V342H0V230Z" fill="#D80027"/>
<path d="M363.1 131.8V99.1002H374V77.3002H352.1V88.2002H330.3V77.3002H308.5V99.1002H319.4V131.8H297.6V55.5002H308.5V33.7002H286.7V44.6002H275.8V33.7002H254V44.6002H243.1V33.7002H221.3V55.5002H232.2V131.8H210.4V99.1002H221.3V77.3002H199.5V88.2002H177.7V77.3002H155.9V99.1002H166.8V131.8H145V219H384.9V131.8H363.1Z" fill="#D80027"/>
<path fill-rule="evenodd" clip-rule="evenodd" d="M220.8 33.2002H243.6V44.1002H253.5V33.2002H276.3V44.1002H286.2V33.2002H309V56.0002H298.1V131.3H318.9V99.6002H308V76.8002H330.8V87.7002H351.6V76.8002H374.5V99.6002H363.6V131.3H385.4V219.5H144.5V131.3H166.3V99.6002H155.4V76.8002H178.2V87.7002H199V76.8002H221.8V99.6002H210.9V131.3H231.7V56.0002H220.8V33.2002ZM221.8 34.2002V55.0002H232.7V132.3H209.9V98.6002H220.8V77.8002H200V88.7002H177.2V77.8002H156.4V98.6002H167.3V132.3H145.5V218.5H384.4V132.3H362.6V98.6002H373.5V77.8002H352.6V88.7002H329.8V77.8002H309V98.6002H319.9V132.3H297.1V55.0002H308V34.2002H287.2V45.1002H275.3V34.2002H254.5V45.1002H242.6V34.2002H221.8Z" fill="black"/>
<path d="M264.9 235.5L240.7 253.7L259.8 268V299.3H236.6V308.3H259.6V316.2H236.6V325.5H270V268L289.1 253.7L264.9 235.5ZM264.9 260.8L254.8 253.7L264.9 246.6L275 253.7L264.9 260.8Z" fill="#FFDA44"/>
<path fill-rule="evenodd" clip-rule="evenodd" d="M265.201 235.101L289.933 253.701L270.5 268.25V326H236.1V315.7H259.1V308.8H236.1V298.8H259.3V268.25L239.867 253.701L264.6 235.101L264.9 235.5L265.201 235.101ZM264.9 236.126L241.533 253.699L260.3 267.75V299.8H237.1V307.8H260.1V316.7H237.1V325H269.5V267.75L288.267 253.699L264.9 236.126ZM264.9 245.989L275.87 253.7L264.9 261.411L253.931 253.7L264.9 245.989ZM255.67 253.7L264.9 260.189L274.131 253.7L264.9 247.211L255.67 253.7Z" fill="black"/>
<path d="M239.6 209.7V181.8C239.6 181.8 239.7 159.5 264.6 159.5C289.4 159.5 290.3 181.5 290.3 181.5V209.7H239.6ZM170.5 209.7V185.4C170.5 185.4 170.6 166.7 190.1 166.7C209.6 166.7 210.3 185.1 210.3 185.1V209.6H170.5V209.7Z" fill="black"/>
<path d="M169.1 209.7V185.4C169.1 185.4 169.2 166.7 188.7 166.7C208.2 166.7 208.9 185.1 208.9 185.1V209.6H169.1V209.7ZM320.9 209.7V185.4C320.9 185.4 321 166.7 340.5 166.7C360 166.7 360.7 185.1 360.7 185.1V209.6H320.9V209.7ZM329.3 132V116.3C329.3 116.3 329.4 104.2 340.6 104.2C351.9 104.2 352.3 116.1 352.3 116.1V132H329.3ZM250.5 132V108.3C250.5 108.3 250.6 90 264.8 90C279 90 279.5 108 279.5 108V132H250.5ZM177.5 132V116.3C177.5 116.3 177.6 104.2 188.8 104.2C200 104.2 200.5 116.1 200.5 116.1V132H177.5Z" fill="black"/>
</g>
<defs>
<clipPath id="clip0_301_1146">
<rect width="513" height="342" fill="white"/>
</clipPath>
</defs>
</svg>
