<svg width="513" height="342" viewBox="0 0 513 342" fill="none" xmlns="http://www.w3.org/2000/svg">
<g clip-path="url(#clip0_301_1117)">
<path d="M0 0H513V342H0V0Z" fill="white"/>
<path d="M0 0H513V113.8H0V0Z" fill="#6DA544"/>
<path d="M0 227.6H513V342H0V227.6Z" fill="#D80027"/>
<path d="M126 170.7L0 341.3V0L126 170.7Z" fill="#0070C8"/>
<path fill-rule="evenodd" clip-rule="evenodd" d="M233.8 138.9H305.5V179.8C305.5 188.787 303.252 195.561 299.854 200.659C296.457 205.753 291.933 209.142 287.424 211.397C282.916 213.651 278.415 214.775 275.045 215.337C273.358 215.618 271.952 215.759 270.965 215.829C270.472 215.864 270.083 215.882 269.817 215.891C269.683 215.895 269.58 215.898 269.51 215.899C269.475 215.899 269.448 215.9 269.43 215.9L269.408 215.9L269.403 215.9H269.401C269.4 215.9 269.4 215.9 269.4 215.4C269.4 215.9 269.4 215.9 269.399 215.9H269.397L269.392 215.9L269.37 215.9C269.352 215.9 269.325 215.899 269.29 215.899C269.22 215.898 269.117 215.895 268.984 215.891C268.717 215.882 268.328 215.864 267.835 215.829C266.848 215.759 265.442 215.618 263.755 215.337C260.385 214.775 255.884 213.651 251.376 211.397C246.867 209.142 242.343 205.753 238.947 200.659C235.548 195.561 233.3 188.787 233.3 179.8V139.4H233.8V138.9ZM234.3 139.9V179.8C234.3 188.612 236.502 195.189 239.779 200.104C243.057 205.022 247.433 208.307 251.824 210.503C256.216 212.699 260.615 213.8 263.92 214.35C265.571 214.626 266.946 214.763 267.906 214.832C268.386 214.866 268.762 214.883 269.017 214.891C269.144 214.896 269.241 214.898 269.306 214.899C269.338 214.899 269.362 214.9 269.378 214.9L269.396 214.9L269.399 214.9H269.401L269.405 214.9L269.422 214.9C269.438 214.9 269.462 214.899 269.494 214.899C269.559 214.898 269.656 214.896 269.783 214.891C270.038 214.883 270.414 214.866 270.894 214.832C271.854 214.763 273.229 214.626 274.88 214.35C278.185 213.8 282.584 212.699 286.976 210.503C291.367 208.307 295.743 205.022 299.022 200.104C302.298 195.189 304.5 188.612 304.5 179.8V139.9H234.3Z" fill="black"/>
<path d="M264.5 179.8H274.3L278.3 205.6H260.5L264.5 179.8Z" fill="#786145"/>
<path d="M287.2 162C287.2 152.2 279.2 147.2 269.4 147.2C259.6 147.2 251.6 152.2 251.6 162C246.7 162 242.7 166 242.7 170.9C242.7 175.8 246.7 179.8 251.6 179.8H287.2C292.1 179.8 296.1 175.8 296.1 170.9C296.1 166 292.1 162 287.2 162Z" fill="#6DA544"/>
<path d="M230.7 120L232.6 123.3H236.4L234.5 126.6L236.4 129.8H232.6L230.7 133.1L228.8 129.8H225L226.9 126.6L225 123.3H228.8L230.7 120ZM246 120L247.9 123.3H251.6L249.7 126.6L251.6 129.8H247.9L246 133.1L244.1 129.8H240.3L242.2 126.6L240.3 123.3H244.1L246 120ZM261.3 120L263.2 123.3H266.9L265 126.6L266.9 129.8H263.2L261.3 133.1L259.4 129.8H255.6L257.5 126.6L255.6 123.3H259.4L261.3 120ZM277.1 120L279 123.3H282.8L280.9 126.6L282.8 129.8H279L277.1 133.1L275.2 129.8H271.5L273.3 126.6L271.5 123.3H275.2L277.1 120ZM293.1 120L295 123.3H298.8L296.9 126.6L298.8 129.8H295L293.1 133.1L291.2 129.8H287.5L289.3 126.6L287.5 123.3H291.2L293.1 120ZM308.1 120L310 123.3H313.7L311.8 126.6L313.7 129.8H310L308.1 133.1L306.2 129.8H302.4L304.3 126.6L302.4 123.3H306.2L308.1 120Z" fill="#FFDA00"/>
<path fill-rule="evenodd" clip-rule="evenodd" d="M246 118.998L248.189 122.8H252.465L250.279 126.596L252.478 130.3H248.189L246 134.102L243.811 130.3H239.422L241.621 126.596L239.435 122.8H243.811L246 118.998ZM277.1 118.998L279.289 122.8H283.665L281.479 126.596L283.678 130.3H279.289L277.1 134.102L274.911 130.3H270.645L272.728 126.596L270.658 122.8H274.911L277.1 118.998ZM293.1 118.998L295.289 122.8H299.665L297.479 126.596L299.678 130.3H295.289L293.1 134.102L290.911 130.3H286.645L288.728 126.596L286.658 122.8H290.911L293.1 118.998ZM308.1 118.998L310.289 122.8H314.565L312.379 126.596L314.578 130.3H310.289L308.1 134.102L305.911 130.3H301.522L303.721 126.596L301.535 122.8H305.911L308.1 118.998ZM230.7 118.998L232.889 122.8H237.265L235.079 126.596L237.278 130.3H232.889L230.7 134.102L228.511 130.3H224.122L226.321 126.596L224.135 122.8H228.511L230.7 118.998ZM261.3 118.998L263.489 122.8H267.765L265.579 126.596L267.778 130.3H263.489L261.3 134.102L259.111 130.3H254.722L256.921 126.596L254.735 122.8H259.111L261.3 118.998ZM261.3 121.002L259.689 123.8H256.465L258.079 126.604L256.478 129.3H259.689L261.3 132.098L262.911 129.3H266.022L264.421 126.604L266.035 123.8H262.911L261.3 121.002ZM230.7 121.002L229.089 123.8H225.865L227.479 126.604L225.878 129.3H229.089L230.7 132.098L232.311 129.3H235.522L233.921 126.604L235.535 123.8H232.311L230.7 121.002ZM246 121.002L244.389 123.8H241.165L242.779 126.604L241.178 129.3H244.389L246 132.098L247.611 129.3H250.722L249.121 126.604L250.735 123.8H247.611L246 121.002ZM277.1 121.002L275.489 123.8H272.342L273.872 126.604L272.355 129.3H275.489L277.1 132.098L278.711 129.3H281.922L280.321 126.604L281.935 123.8H278.711L277.1 121.002ZM293.1 121.002L291.489 123.8H288.342L289.872 126.604L288.355 129.3H291.489L293.1 132.098L294.711 129.3H297.922L296.321 126.604L297.935 123.8H294.711L293.1 121.002ZM308.1 121.002L306.489 123.8H303.265L304.879 126.604L303.278 129.3H306.489L308.1 132.098L309.711 129.3H312.822L311.221 126.604L312.835 123.8H309.711L308.1 121.002Z" fill="black"/>
</g>
<defs>
<clipPath id="clip0_301_1117">
<rect width="513" height="342" fill="white"/>
</clipPath>
</defs>
</svg>
