<svg width="513" height="342" viewBox="0 0 513 342" fill="none" xmlns="http://www.w3.org/2000/svg">
<g clip-path="url(#clip0_301_1086)">
<path d="M0 0H513V341.967H0V0Z" fill="#0052B4"/>
<path d="M256.5 0V117.629H210.31L256.5 148.389V171.033H233.856L160.312 122.038V171.033H96.1875V122.038L22.6441 171.033H0V148.389L46.19 117.629H0V53.5043H46.19L0 22.7443V0H22.6441L96.1875 48.9955V0H160.312V48.9955L233.856 0H256.5Z" fill="white"/>
<path d="M144.281 0H112.219V69.5355H0V101.598H112.219V171.033H144.281V101.598H256.5V69.5355H144.281V0Z" fill="#D80027"/>
<path d="M256.5 22.7444V53.5043H210.31L256.5 22.7444Z" fill="#2E52B2"/>
<path d="M0 171.033V160.012L62.6221 117.629H85.2662L7.31426 171.033H0ZM7.31426 0.0999756L85.2662 53.4039H62.6221L0 11.1215V0.0999756H7.31426ZM256.5 0.0999756V11.1215L193.878 53.5041H171.234L249.186 0.0999756H256.5ZM249.186 171.033L171.234 117.629H193.878L256.5 160.012V171.033H249.186Z" fill="#D80027"/>
<path d="M444.266 277.641C460.314 277.641 473.323 258.128 473.323 234.056C473.323 209.985 460.314 190.471 444.266 190.471C428.219 190.471 415.209 209.985 415.209 234.056C415.209 258.128 428.219 277.641 444.266 277.641Z" fill="white"/>
<path d="M407.695 327.639C419.869 327.639 429.738 323.467 429.738 318.321C429.738 313.174 419.869 309.002 407.695 309.002C395.521 309.002 385.652 313.174 385.652 318.321C385.652 323.467 395.521 327.639 407.695 327.639Z" fill="#FFCE00"/>
<path d="M364.711 327.639C376.885 327.639 386.754 323.467 386.754 318.321C386.754 313.174 376.885 309.002 364.711 309.002C352.537 309.002 342.668 313.174 342.668 318.321C342.668 323.467 352.537 327.639 364.711 327.639Z" fill="#FFCE00"/>
<path d="M342.668 190.471L386.153 277.541L429.738 190.471H342.668Z" fill="#39B200"/>
<path d="M328.14 277.641C344.187 277.641 357.196 258.128 357.196 234.056C357.196 209.985 344.187 190.471 328.14 190.471C312.092 190.471 299.083 209.985 299.083 234.056C299.083 258.128 312.092 277.641 328.14 277.641Z" fill="#9B9B9B"/>
<path d="M371.725 175.943L357.196 190.471H415.209L400.681 175.943L415.209 132.358C415.209 132.358 402.184 103.301 386.153 103.301C370.122 103.301 357.096 132.358 357.096 132.358L371.725 175.943Z" fill="#757575"/>
<path d="M386.153 96.1875C402.2 96.1875 415.209 83.1784 415.209 67.1309C415.209 51.0833 402.2 38.0742 386.153 38.0742C370.105 38.0742 357.096 51.0833 357.096 67.1309C357.096 83.1784 370.105 96.1875 386.153 96.1875Z" fill="#C6B56F"/>
<path d="M386.754 117.93C402.801 117.93 415.811 104.921 415.811 88.8733C415.811 72.8257 402.801 59.8167 386.754 59.8167C370.706 59.8167 357.697 72.8257 357.697 88.8733C357.697 104.921 370.706 117.93 386.754 117.93Z" fill="#A54A00"/>
<path d="M444.266 146.987C460.314 146.987 473.323 133.977 473.323 117.93C473.323 101.882 460.314 88.8733 444.266 88.8733C428.219 88.8733 415.209 101.882 415.209 117.93C415.209 133.977 428.219 146.987 444.266 146.987Z" fill="white"/>
<path d="M342.868 176.043C358.916 176.043 371.925 163.034 371.925 146.987C371.925 130.939 358.916 117.93 342.868 117.93C326.821 117.93 313.812 130.939 313.812 146.987C313.812 163.034 326.821 176.043 342.868 176.043Z" fill="#0049FF"/>
<path d="M430.639 176.043C446.687 176.043 459.696 163.034 459.696 146.987C459.696 130.939 446.687 117.93 430.639 117.93C414.592 117.93 401.583 130.939 401.583 146.987C401.583 163.034 414.592 176.043 430.639 176.043Z" fill="#0041F9"/>
<path d="M386.754 263.113C402.801 263.113 415.811 250.104 415.811 234.056C415.811 218.009 402.801 205 386.754 205C370.706 205 357.697 218.009 357.697 234.056C357.697 250.104 370.706 263.113 386.754 263.113Z" fill="#F7D71E"/>
<path d="M458.794 219.528C474.842 219.528 487.851 206.519 487.851 190.471C487.851 174.424 474.842 161.415 458.794 161.415C442.747 161.415 429.738 174.424 429.738 190.471C429.738 206.519 442.747 219.528 458.794 219.528Z" fill="#CEC851"/>
<path d="M386.153 319.122C402.2 319.122 415.209 306.113 415.209 290.065C415.209 274.018 402.2 261.009 386.153 261.009C370.105 261.009 357.096 274.018 357.096 290.065C357.096 306.113 370.105 319.122 386.153 319.122Z" fill="white"/>
<path d="M371.725 135.965L386.253 132.458L400.781 135.965C400.781 143.48 386.253 146.987 386.253 146.987C386.253 146.987 371.725 143.48 371.725 135.965Z" fill="#7C0B29"/>
<path d="M328.14 146.686C344.187 146.686 357.196 133.677 357.196 117.629C357.196 101.582 344.187 88.5726 328.14 88.5726C312.092 88.5726 299.083 101.582 299.083 117.629C299.083 133.677 312.092 146.686 328.14 146.686Z" fill="white"/>
</g>
<defs>
<clipPath id="clip0_301_1086">
<rect width="513" height="341.967" fill="white"/>
</clipPath>
</defs>
</svg>
