<svg width="513" height="342" viewBox="0 0 513 342" fill="none" xmlns="http://www.w3.org/2000/svg">
<g clip-path="url(#clip0_301_1080)">
<path d="M0 0H513V342H0V0Z" fill="white"/>
<path d="M0 0H171V342H0V0ZM342 0H513V342H342V0Z" fill="#338AF3"/>
<path d="M256 181.3C270.083 181.3 281.5 169.883 281.5 155.8C281.5 141.717 270.083 130.3 256 130.3C241.917 130.3 230.5 141.717 230.5 155.8C230.5 169.883 241.917 181.3 256 181.3Z" fill="#DCC26D"/>
<path d="M194.2 155.9C194.2 178 206 198.4 225 209.4C230.9 212.8 238.5 210.8 241.9 204.9C245.3 199 243.3 191.4 237.4 188C225.9 181.4 218.9 169.1 218.9 155.9C218.9 149.1 213.4 143.5 206.5 143.5C199.6 143.5 194.2 149 194.2 155.9ZM289.3 208C307.1 196.6 317.9 177 317.8 155.9C317.8 149.1 312.3 143.5 305.4 143.5C298.6 143.5 293 149 293 155.9C293 168.6 286.5 180.4 275.9 187.2C270.1 190.8 268.2 198.4 271.8 204.2C275.4 210 283 211.9 288.8 208.3C289 208.2 289.1 208.1 289.3 208Z" fill="#628A40"/>
</g>
<defs>
<clipPath id="clip0_301_1080">
<rect width="513" height="342" fill="white"/>
</clipPath>
</defs>
</svg>
