<svg width="513" height="342" viewBox="0 0 513 342" fill="none" xmlns="http://www.w3.org/2000/svg">
<g clip-path="url(#clip0_301_1070)">
<path d="M0 0H512V341.3H0V0Z" fill="#D80027"/>
<path d="M11.1001 11.1001H500.8V330.2H11.1001V11.1001Z" fill="#0052B4"/>
<path d="M256 285.3C256 285.3 332.4 234 332.4 170.7C332.4 107.4 256 56 256 56C256 56 179.6 107.3 179.6 170.6C179.6 233.9 256 285.3 256 285.3Z" fill="#7DBEF1"/>
<path d="M179.8 180.7H332.4L303.1 245.6H207.9L179.8 180.7Z" fill="#1C8AE6"/>
<path d="M192.3 205.9C192.3 205.9 232.8 244.1 243.3 244.1C255.7 244.1 255.9 225.7 268.8 218.6C289 207.5 319.8 205.9 319.8 205.9L297 248.7L256 285.3L209.2 245.6L192.3 205.9Z" fill="#FFF042"/>
<path d="M256 157.5L233.5 173.1L241.4 146.9L219.6 130.4L247 129.9L256 104L265 129.9L292.4 130.4L270.6 147L278.5 173.2L256 157.5Z" fill="#259C7B"/>
<path d="M249.7 144.6C248.8 153.8 248.2 163 248 172.2C247.7 184.1 248.3 192.9 250 198.2C252.2 204.8 257.2 211.1 264.2 217.1C269.5 221.7 274.8 225.2 278.4 227.2C281.5 228.9 285.4 227.8 287.1 224.8C288.8 221.7 287.7 217.8 284.7 216.1C280.4 213.6 276.3 210.7 272.5 207.4C267.1 202.8 263.4 198.2 262.1 194.1C261 190.7 260.5 182.8 260.7 172.4C260.9 163.5 261.5 154.6 262.4 145.8C262.8 142.3 260.2 139.2 256.7 138.8C253.1 138.5 250 141.1 249.7 144.6Z" fill="#8E5715"/>
<path d="M217.8 170.7L243.3 208.9H217.8V170.7Z" fill="white"/>
<path fill-rule="evenodd" clip-rule="evenodd" d="M259.349 51.0218L256 56.0001L252.655 51.0188L256.003 48.7708L259.349 51.0218ZM256 285.3C252.651 290.278 252.649 290.277 252.647 290.276L252.626 290.261L252.573 290.226C252.529 290.196 252.466 290.153 252.386 290.098C252.277 290.023 252.134 289.924 251.959 289.803C251.88 289.747 251.793 289.687 251.7 289.622C251.108 289.207 250.253 288.6 249.173 287.809C247.014 286.229 243.95 283.913 240.284 280.94C232.959 275.001 223.181 266.399 213.384 255.75C193.988 234.665 173.6 204.56 173.6 170.6C173.6 136.639 193.99 106.558 213.387 85.4977C223.184 74.8606 232.963 66.2711 240.287 60.3413C243.954 57.3728 247.018 55.0612 249.178 53.4834C250.258 52.6942 251.112 52.0879 251.704 51.6741C252 51.4672 252.231 51.3083 252.391 51.1987C252.471 51.1439 252.533 51.1014 252.578 51.0714L252.63 51.0357L252.652 51.0213C252.654 51.0199 252.655 51.0188 256 56.0001C259.349 51.0218 259.351 51.023 259.353 51.0243L259.358 51.0279L259.374 51.0387L259.427 51.0745C259.471 51.1046 259.534 51.1471 259.614 51.202C259.774 51.3118 260.004 51.471 260.3 51.6783C260.892 52.0928 261.747 52.7002 262.827 53.4907C264.986 55.0713 268.05 57.3867 271.717 60.36C279.041 66.299 288.819 74.9009 298.616 85.5504C318.012 106.635 338.4 136.74 338.4 170.7C338.4 204.661 318.011 234.742 298.613 255.802C288.816 266.44 279.038 275.029 271.713 280.959C268.046 283.927 264.982 286.239 262.823 287.817C261.743 288.606 260.888 289.212 260.296 289.626C260 289.833 259.769 289.992 259.609 290.101C259.529 290.156 259.467 290.199 259.423 290.229L259.37 290.264L259.354 290.275L259.348 290.279C259.347 290.28 259.345 290.281 256 285.3ZM256 285.3L252.651 290.278L255.997 292.529L259.345 290.281L256 285.3ZM256.003 277.937C258.008 276.467 260.814 274.342 264.162 271.632C271.163 265.965 280.484 257.773 289.787 247.673C308.59 227.258 326.4 200.039 326.4 170.7C326.4 141.36 308.588 114.115 289.784 93.6747C280.481 83.5617 271.159 75.3573 264.159 69.6808C260.809 66.9647 258.002 64.8362 255.997 63.363C253.992 64.8334 251.186 66.9576 247.838 69.6681C240.838 75.3353 231.516 83.5271 222.213 93.6274C203.411 114.042 185.6 141.261 185.6 170.6C185.6 199.94 203.412 227.185 222.216 247.625C231.519 257.738 240.841 265.943 247.842 271.619C251.191 274.335 253.998 276.464 256.003 277.937Z" fill="#D80027"/>
</g>
<defs>
<clipPath id="clip0_301_1070">
<rect width="513" height="342" fill="white"/>
</clipPath>
</defs>
</svg>
