<svg width="513" height="342" viewBox="0 0 513 342" fill="none" xmlns="http://www.w3.org/2000/svg">
<g clip-path="url(#clip0_301_1055)">
<path d="M0 0H513V342H0V0Z" fill="#D80027"/>
<path d="M274.2 119.8C269.1 140.9 260.1 136.9 255.7 155.3C229.6 149 213.6 122.8 219.8 96.6999C226.1 70.5999 252.3 54.5999 278.3 60.7999C269.6 97.6999 278.8 100.9 274.2 119.8ZM206.6 135.4C225.1 146.7 218.5 154.1 234.6 164C220.6 186.9 190.7 194 167.8 180C144.9 166 137.8 136.1 151.8 113.2C184.1 133 190 125.3 206.6 135.4ZM200.6 204.6C217.1 190.5 222 199.1 236.4 186.8C253.8 207.2 251.4 237.8 231 255.2C210.6 272.6 180 270.2 162.6 249.8C191.3 225.2 185.8 217.2 200.6 204.6ZM264.5 231.7C256.2 211.6 265.9 209.6 258.6 192.1C283.4 181.8 311.8 193.6 322 218.4C332.3 243.2 320.5 271.6 295.7 281.8C281.2 246.8 271.9 249.6 264.5 231.7ZM310 179.3C288.4 181 289.4 171.2 270.5 172.7C268.4 146 288.4 122.6 315.1 120.5C341.8 118.4 365.2 138.4 367.3 165.1C329.6 168 329.4 177.8 310 179.3Z" fill="white"/>
</g>
<defs>
<clipPath id="clip0_301_1055">
<rect width="513" height="342" fill="white"/>
</clipPath>
</defs>
</svg>
