<svg width="513" height="342" viewBox="0 0 513 342" fill="none" xmlns="http://www.w3.org/2000/svg">
<g clip-path="url(#clip0_301_1041)">
<path d="M0 0H513V342.004H0V0Z" fill="#0052B4"/>
<path d="M223.833 170.996C224.107 170.692 224.377 170.386 224.648 170.079C224.377 170.387 224.101 170.69 223.826 170.996H223.833ZM189.586 213.005L200.566 235.963L225.361 230.234L214.257 253.131L234.195 268.943L209.371 274.539L209.44 299.987L189.586 284.066L169.734 299.987L169.803 274.539L144.979 268.943L164.917 253.131L153.813 230.234L178.607 235.963L189.586 213.005ZM387.832 241.525L393.069 252.475L404.895 249.742L399.599 260.663L409.109 268.206L397.268 270.874L397.3 283.012L387.832 275.419L378.363 283.012L378.396 270.874L366.555 268.206L376.065 260.663L370.77 249.742L382.596 252.475L387.832 241.525ZM339.114 125.359L344.351 136.311L356.177 133.576L350.881 144.499L360.39 152.041L348.55 154.71L348.582 166.848L339.114 159.253L329.645 166.848L329.678 154.71L317.836 152.041L327.346 144.499L322.052 133.576L333.877 136.311L339.114 125.359ZM387.832 58.98L393.069 69.9313L404.895 67.196L399.599 78.1193L409.108 85.661L397.268 88.3302L397.3 100.468L387.832 92.873L378.363 100.468L378.396 88.3302L366.555 85.661L376.065 78.1193L370.77 67.196L382.596 69.9313L387.832 58.98ZM430.386 108.765L435.623 119.715L447.448 116.982L442.154 127.903L451.663 135.445L439.822 138.114L439.855 150.252L430.386 142.659L420.917 150.252L420.949 138.114L409.109 135.445L418.619 127.903L413.323 116.982L425.149 119.715L430.386 108.765ZM399.959 166.848L404.077 179.525H417.407L406.623 187.36L410.743 200.037L399.959 192.203L389.173 200.037L393.293 187.36L382.509 179.525H395.839L399.959 166.848Z" fill="white"/>
<path d="M256.5 0V30.6127L211.245 55.7607H256.5V115.236H197.282L256.5 148.135V170.996H229.768L156.13 130.091V170.996H100.37V122.328L12.7689 170.996H0V140.384L45.2552 115.236H0V55.7607H59.2184L0 22.8505V0H26.7321L100.37 40.9067V0H156.13V48.6679L243.731 0H256.5Z" fill="white"/>
<path d="M144.281 -0.00292969H112.219V69.4645H0V101.527H112.219V170.996H144.281V101.527H256.5V69.4645H144.281V-0.00292969Z" fill="#D80027"/>
<path d="M156.13 115.236L256.5 170.996V155.229L184.513 115.236H156.13Z" fill="#0052B4"/>
<path d="M156.13 115.236L256.5 170.996V155.229L184.513 115.236H156.13Z" fill="white"/>
<path d="M156.13 115.236L256.5 170.996V155.229L184.513 115.236H156.13ZM71.9863 115.236L0 155.229V170.996L100.37 115.236H71.9863Z" fill="#D80027"/>
<path d="M100.37 55.7578L0 -0.00292969V15.7648L71.9873 55.7578H100.37Z" fill="#0052B4"/>
<path d="M100.37 55.7578L0 -0.00292969V15.7648L71.9873 55.7578H100.37Z" fill="white"/>
<path d="M100.37 55.7578L0 -0.00292969V15.7648L71.9873 55.7578H100.37ZM184.514 55.7578L256.5 15.7648V-0.00292969L156.13 55.7578H184.514Z" fill="#D80027"/>
</g>
<defs>
<clipPath id="clip0_301_1041">
<rect width="513" height="342" fill="white"/>
</clipPath>
</defs>
</svg>
