<svg width="513" height="342" viewBox="0 0 513 342" fill="none" xmlns="http://www.w3.org/2000/svg">
<g clip-path="url(#clip0_301_1025)">
<path d="M0 0H513V342H0V0Z" fill="white"/>
<path d="M0 0H513V114H0V0Z" fill="#D80027"/>
<path d="M0 228H513V342H0V228Z" fill="#0052B4"/>
<path d="M309.3 113.2V69.1998L326.8 54.7998L344.5 69.1998V113.2H309.3ZM203.7 113.2V69.1998L186.4 54.7998L168.5 69.1998V113.2H203.7ZM238.9 113.2V69.1998L256.5 54.7998L274.1 69.1998V113.2H238.9Z" fill="#338AF3"/>
<path d="M309.3 113.2H274.1V69.1998L291.6 54.7998L309.3 69.1998V113.2ZM238.9 113.2H203.7V69.1998L221.2 54.7998L238.9 69.1998V113.2Z" fill="#0052B4"/>
<path d="M168.5 113.2V215.1C168.5 239.4 182.9 261.3 203.9 274.5C225.2 287.9 246 289.2 256.5 289.2C267 289.2 287.9 287.5 309.1 274.4C330.1 261.4 344.5 239.3 344.5 215.1V113.2H168.5Z" fill="white"/>
<path fill-rule="evenodd" clip-rule="evenodd" d="M168 112.7H345V215.1C345 239.503 330.483 261.751 309.363 274.825C288.055 287.992 267.05 289.7 256.5 289.7C245.957 289.7 225.048 288.395 203.634 274.924C182.518 261.651 168 239.605 168 215.1V112.7ZM169 113.7V215.1C169 239.196 183.282 260.95 204.166 274.077C225.352 287.405 246.043 288.7 256.5 288.7C266.95 288.7 287.746 287.008 308.837 273.975C329.717 261.049 344 239.097 344 215.1V113.7H169Z" fill="#D80027"/>
<path d="M168.5 113.2H203.7V148.4H168.5V113.2ZM238.9 113.2H274.1V148.4H238.9V113.2ZM309.3 113.2H344.5V148.4H309.3V113.2ZM203.7 148.4H238.9V183.6H203.7V148.4ZM274.1 148.4H309.3V183.6H274.1V148.4ZM168.5 183.6H203.7V218.8H168.5V183.6ZM203.7 218.8H238.9V254H203.7V218.8ZM238.9 183.6H274.1V218.8H238.9V183.6ZM309.3 183.6H344.5V218.8H309.3V183.6ZM274.1 218.8H309.3V254H274.1V218.8ZM309.3 274.3C317.9 268.9 325.5 262 331.3 254H309.3V274.3ZM181.7 254C187.5 262 195 268.9 203.7 274.4V254H181.7ZM238.9 254V287.7C246.1 288.9 252.2 289.2 256.5 289.2C260.8 289.2 266.9 288.9 274.1 287.6V254H238.9Z" fill="#D80027"/>
</g>
<defs>
<clipPath id="clip0_301_1025">
<rect width="513" height="342" fill="white"/>
</clipPath>
</defs>
</svg>
