<svg width="513" height="342" viewBox="0 0 513 342" fill="none" xmlns="http://www.w3.org/2000/svg">
<g clip-path="url(#clip0_301_1016)">
<path d="M0 0H513V172H0V0Z" fill="#A2001D"/>
<path d="M0 172H513V344H0V172Z" fill="#0052B4"/>
<path d="M381.4 251.5L270.7 237.7L159.9 251.5V85.4H381.4V251.5Z" fill="white"/>
<path d="M270.7 237.7C301.297 237.7 326.1 212.897 326.1 182.3C326.1 151.703 301.297 126.9 270.7 126.9C240.103 126.9 215.3 151.703 215.3 182.3C215.3 212.897 240.103 237.7 270.7 237.7Z" fill="#0052B4"/>
<path d="M270.7 210C285.998 210 298.4 197.598 298.4 182.3C298.4 167.002 285.998 154.6 270.7 154.6C255.402 154.6 243 167.002 243 182.3C243 197.598 255.402 210 270.7 210Z" fill="#A2001D"/>
<path d="M229.1 113.1H312.2L270.7 154.6L229.1 113.1Z" fill="#6DA544"/>
<path d="M256.8 140.8H284.5V223.8H256.8V140.8Z" fill="#FFDA44"/>
<path d="M314.9 215.5H226.4L159.9 251.5H381.4L314.9 215.5Z" fill="#6DA544"/>
</g>
<defs>
<clipPath id="clip0_301_1016">
<rect width="513" height="342" fill="white"/>
</clipPath>
</defs>
</svg>
