<svg width="513" height="342" viewBox="0 0 513 342" fill="none" xmlns="http://www.w3.org/2000/svg">
<g clip-path="url(#clip0_301_1001)">
<path d="M0 0H513V342H0V0Z" fill="white"/>
<path d="M340.6 122.4H284.5L256.5 73.8001L228.5 122.4H172.4L200.4 171L172.4 219.6H228.5L256.5 268.2L284.5 219.6H340.6L312.6 171L340.6 122.4ZM293.2 171L276 204.2H237.1L219.8 171L237 137.8H275.9L293.2 171ZM256.5 99.2L268.4 122.5H244.5L256.5 99.2ZM198.2 137.8H222.1L211.3 158.8L198.2 137.8ZM198.2 204.2L211.2 182.1L223.1 204.2H198.2ZM256.5 241.7L244.6 219.6H268.5L256.5 241.7ZM315.9 204.2H290.9L302.8 182.1L315.9 204.2ZM289.8 137.8H315.9L302.9 159.9L289.8 137.8ZM0 21.3H512V64H0V21.3ZM0 277.3H512V320H0V277.3Z" fill="#2E52B2"/>
</g>
<defs>
<clipPath id="clip0_301_1001">
<rect width="513" height="342" fill="white"/>
</clipPath>
</defs>
</svg>
