<svg width="513" height="342" viewBox="0 0 513 342" fill="none" xmlns="http://www.w3.org/2000/svg">
<g clip-path="url(#clip0_301_997)">
<path d="M0 0H513V342H0V0Z" fill="#E52D42"/>
<path d="M393.3 68.2H347.5L313.7 148.4L279.3 125.5C279.3 125.5 254.6 66.4 244.9 57.3C235.2 47.6 226.2 56.7 196 65.1C166.4 73.5 165.2 83.8 153.8 83.8C149 83.8 133.9 66.3 126.1 61.5C114 53.7 109.2 57.3 112.2 68.7C113.4 73.5 123.1 79.6 129.1 88.6C136.9 100.1 141.8 114.5 141.8 114.5C141.8 114.5 152.7 104.2 158.7 102.4C167.7 100 178 104.2 190.1 102.4C205.2 100 221.5 91.5 221.5 91.5L225.7 134.9C225.7 134.9 171.4 185.6 176.2 205.5C181 225.4 232.3 250.1 244.4 268.2C256.5 285.7 237.2 292.3 237.2 300.8C237.2 309.3 235.4 320.7 244.4 317.1C253.4 313.5 254.7 299 263.1 285.7C269.1 276.7 273.4 271.8 274.6 268.2C276.4 259.2 251.1 236.2 237.2 219.3C230.6 211.5 217.3 200.6 217.3 200.6L256.5 171C256.5 171 324.1 198.7 339.1 189.7C354.2 180.7 358.4 91.4 358.4 91.4L405.4 79.9L393.3 68.2Z" fill="white"/>
<path d="M279.3 262.4C273.3 262.4 267.8 257.6 267.8 250.9C267.8 244.2 272.6 239.4 279.3 239.4C285.3 239.4 290.8 244.2 290.8 250.9C290.8 257.6 285.3 262.4 279.3 262.4ZM325.1 79.6C319.1 79.6 313.6 74.8 313.6 68.1C313.6 61.4 318.4 56.6 325.1 56.6C331.1 56.6 336.6 61.4 336.6 68.1C336.6 74.8 331.1 79.6 325.1 79.6ZM325.1 170.7C319.1 170.7 313.6 165.9 313.6 159.2C313.6 153.2 318.4 147.7 325.1 147.7C331.1 147.7 336.6 152.5 336.6 159.2C336 165.9 331.1 170.7 325.1 170.7ZM188.2 216.5C182.2 216.5 176.7 211.7 176.7 205C176.7 199 181.5 193.5 188.2 193.5C194.8 193.5 199.7 198.3 199.7 205C199.7 211.7 194.2 216.5 188.2 216.5ZM233.4 79.6C227.4 79.6 221.9 74.8 221.9 68.1C221.9 61.4 226.7 56.6 233.4 56.6C239.4 56.6 244.9 61.4 244.9 68.1C244.9 74.8 240.1 79.6 233.4 79.6ZM256.3 170.7C250.3 170.7 244.8 160.4 244.8 147.8C244.8 135.2 249.6 124.9 256.3 124.9C262.3 124.9 267.8 135.2 267.8 147.8C267.8 160.4 263 170.7 256.3 170.7ZM142.3 125.5C136.3 125.5 130.8 120.7 130.8 114C130.8 107.4 135.6 102.5 142.3 102.5C148.9 102.5 153.8 107.3 153.8 114C153.8 120.6 149 125.5 142.3 125.5Z" fill="#F8DD4E"/>
</g>
<defs>
<clipPath id="clip0_301_997">
<rect width="513" height="342" fill="white"/>
</clipPath>
</defs>
</svg>
