<svg width="513" height="342" viewBox="0 0 513 342" fill="none" xmlns="http://www.w3.org/2000/svg">
<g clip-path="url(#clip0_301_973)">
<path d="M0 -0.300049H513V342H0V-0.300049Z" fill="white"/>
<path d="M462.9 198.1C458.9 198.1 448.9 193.1 441.9 189.1C430.9 183.1 420.9 177.1 410.8 177.1C400.7 177.1 390.8 183.1 379.7 189.1C372.7 193.1 363.7 198.1 359.7 198.1C355.7 198.1 345.7 193.1 339.7 189.1C328.7 183.1 317.7 177.1 307.6 177.1C298.6 177.1 287.6 183.1 276.5 189.1C269.5 193.1 260.5 198.1 256.5 198.1C252.5 198.1 243.5 193.1 236.5 189.1C225.5 183.1 214.5 177.1 205.4 177.1C195.4 177.1 184.4 183.1 173.3 189.1C167.3 193.1 157.3 198.1 153.3 198.1C149.3 198.1 140.3 193.1 133.3 189.1C122.3 183.1 112.3 177.1 102.2 177.1C92.1 177.1 82.2 183.1 71.1 189.1C64.1 193.1 54.1 198.1 50.1 198.1C46.1 198.1 37.1 193.1 30.1 189.1C20.1 183.1 10.1 177.1 0 177.1V199.1L19 209.1C30 215.1 40 221.1 50.1 221.1C60.2 221.1 71.1 215.1 82.2 209.1C88.2 205.1 98.2 199.1 102.2 199.1C106.2 199.1 115.2 205.1 122.2 209.1C133.2 215.1 143.2 221.1 153.3 221.1C163.4 221.1 173.3 215.1 184.4 209.1C191.4 205.1 201.4 199.1 205.4 199.1C209.4 199.1 218.4 205.1 225.4 209.1C236.4 215.1 246.4 221.1 256.5 221.1C266.6 221.1 276.5 215.1 287.6 209.1C294.6 205.1 303.6 199.1 307.6 199.1C311.6 199.1 321.6 205.1 328.6 209.1C339.6 215.1 349.6 221.1 359.7 221.1C369.8 221.1 379.7 215.1 390.8 209.1C397.8 205.1 406.8 199.1 410.8 199.1C414.8 199.1 424.8 205.1 430.8 209.1C441.8 215.1 452.8 221.1 462.9 221.1C473 221.1 482.9 215.1 494 209.1L513 199.1V177.1C503 177.1 493 183.1 482.9 189.1C475.9 193.1 466.9 198.1 462.9 198.1ZM0 31.7L19 41.7C30 47.7 40 53.7 50.1 53.7C60.2 53.7 71.1 47.7 82.2 41.7C88.2 37.7 98.2 31.7 102.2 31.7C106.2 31.7 115.2 37.7 122.2 41.7C133.2 47.7 143.2 53.7 153.3 53.7C163.4 53.7 173.3 47.7 184.4 41.7C191.4 37.7 201.4 31.7 205.4 31.7C209.4 31.7 218.4 37.7 225.4 41.7C236.4 47.7 246.4 53.7 256.5 53.7C266.6 53.7 276.5 47.7 287.6 41.7C294.6 37.7 303.6 31.7 307.6 31.7C311.6 31.7 321.6 37.7 328.6 41.7C339.6 47.7 349.6 53.7 359.7 53.7C369.8 53.7 379.7 47.7 390.8 41.7C397.8 37.7 406.8 31.7 410.8 31.7C414.8 31.7 424.8 37.7 430.8 41.7C441.8 47.7 452.8 53.7 462.9 53.7C473 53.7 482.9 47.7 494 41.7L513 31.7V9.69995C503 10.7 493 15.7 482.9 21.7C475.9 25.7 466.9 30.7 462.9 30.7C458.9 30.7 448.9 25.7 441.9 21.7C430.9 15.7 420.9 9.69995 410.8 9.69995C400.7 9.69995 390.8 15.7 379.7 21.7C372.7 25.7 363.7 30.7 359.7 30.7C355.7 30.7 345.7 25.7 339.7 21.7C328.7 15.7 317.7 9.69995 307.6 9.69995C297.5 9.69995 287.6 15.7 276.5 21.7C269.5 25.7 260.5 30.7 256.5 30.7C252.5 30.7 243.5 25.7 236.5 21.7C225.5 15.7 214.5 9.69995 205.4 9.69995C196.3 9.69995 184.4 15.7 173.3 21.7C167.3 25.7 157.3 30.7 153.3 30.7C149.3 30.7 140.3 25.7 133.3 21.7C122.3 15.7 112.3 9.69995 102.2 9.69995C92.1 9.69995 82.2 15.7 71.1 21.7C64.1 25.7 54.1 30.7 50.1 30.7C46.1 30.7 37.1 25.7 30.1 21.7C20.1 15.7 10.1 10.7 0 9.69995V31.7H0ZM462.9 86.9C458.9 86.9 448.9 81.9 441.9 77.9C430.9 71.9 420.9 65.9 410.8 65.9C400.7 65.9 390.8 71.9 379.7 77.9C372.7 81.9 363.7 86.9 359.7 86.9C355.7 86.9 345.7 81.9 339.7 77.9C328.7 71.9 317.7 65.9 307.6 65.9C298.6 65.9 287.6 71.9 276.5 77.9C269.5 81.9 260.5 86.9 256.5 86.9C252.5 86.9 243.5 81.9 236.5 77.9C225.5 71.9 214.5 65.9 205.4 65.9C195.4 65.9 184.4 71.9 173.3 77.9C167.3 81.9 157.3 86.9 153.3 86.9C149.3 86.9 140.3 81.9 133.3 77.9C122.3 71.9 112.3 65.9 102.2 65.9C92.1 65.9 82.2 71.9 71.1 77.9C64.1 81.9 54.1 86.9 50.1 86.9C46.1 86.9 37.1 81.9 30.1 77.9C20.1 71.9 10.1 65.9 0 65.9V87.9L19 96.9C30 102.9 40 108.9 50.1 108.9C60.2 108.9 71.1 102.9 82.2 96.9C88.2 92.9 98.2 87.9 102.2 87.9C106.2 87.9 115.2 92.9 122.2 96.9C133.2 102.9 143.2 108.9 153.3 108.9C163.4 108.9 173.3 102.9 184.4 96.9C191.4 92.9 201.4 87.9 205.4 87.9C209.4 87.9 218.4 92.9 225.4 96.9C236.4 102.9 246.4 108.9 256.5 108.9C266.6 108.9 276.5 102.9 287.6 96.9C294.6 92.9 303.6 87.9 307.6 87.9C311.6 87.9 321.6 92.9 328.6 96.9C339.6 102.9 349.6 108.9 359.7 108.9C369.8 108.9 379.7 102.9 390.8 96.9C397.8 92.9 406.8 87.9 410.8 87.9C414.8 87.9 424.8 92.9 430.8 96.9C441.8 102.9 452.8 108.9 462.9 108.9C473 108.9 482.9 102.9 494 96.9L513 87.9V65.9C503 65.9 493 71.9 482.9 77.9C475.9 81.8 466.9 86.9 462.9 86.9ZM513 120.9C503 121.9 493 126.9 482.9 132.9C475.9 136.9 466.9 142.9 462.9 142.9C458.9 142.9 448.9 136.9 441.9 132.9C430.9 126.9 420.9 120.9 410.8 120.9C400.7 120.9 390.8 126.9 379.7 132.9C372.7 136.9 363.7 142.9 359.7 142.9C355.7 142.9 345.7 136.9 339.7 132.9C328.7 126.9 317.7 120.9 307.6 120.9C297.5 120.9 287.6 126.9 276.5 132.9C269.5 136.9 260.5 142.9 256.5 142.9C252.5 142.9 243.5 136.9 236.5 132.9C225.5 126.9 214.5 120.9 205.4 120.9C196.3 120.9 184.4 126.9 173.3 132.9C167.3 136.9 157.3 142.9 153.3 142.9C149.3 142.9 140.3 136.9 133.3 132.9C122.3 126.9 112.3 120.9 102.2 120.9C92.1 120.9 82.2 126.9 71.1 132.9C64.1 136.9 54.1 142.9 50.1 142.9C46.1 142.9 37.1 136.9 30.1 132.9C20.1 126.9 10.1 121.9 0 120.9V143.9C4 144.9 13 148.9 19 152.9C30 158.9 40 164.9 50.1 164.9C60.2 164.9 71.1 158.9 82.2 152.9C88.2 148.9 98.2 143.9 102.2 143.9C106.2 143.9 115.2 148.9 122.2 152.9C133.2 158.9 143.2 164.9 153.3 164.9C163.4 164.9 173.3 158.9 184.4 152.9C191.4 148.9 201.4 143.9 205.4 143.9C209.4 143.9 218.4 148.9 225.4 152.9C236.4 158.9 246.4 164.9 256.5 164.9C266.6 164.9 276.5 158.9 287.6 152.9C294.6 148.9 303.6 143.9 307.6 143.9C311.6 143.9 321.6 148.9 328.6 152.9C339.6 158.9 349.6 164.9 359.7 164.9C369.8 164.9 379.7 158.9 390.8 152.9C397.8 148.9 406.8 143.9 410.8 143.9C414.8 143.9 424.8 148.9 430.8 152.9C441.8 158.9 452.8 164.9 462.9 164.9C473 164.9 482.9 158.9 494 152.9C500 148.9 509 144.9 513 143.9V120.9ZM462.9 254.2C458.9 254.2 448.9 249.2 441.9 245.2C430.9 239.2 420.9 233.2 410.8 233.2C400.7 233.2 390.8 239.2 379.7 245.2C372.7 249.2 363.7 254.2 359.7 254.2C355.7 254.2 345.7 249.2 339.7 245.2C328.7 239.2 317.7 233.2 307.6 233.2C298.6 233.2 287.6 239.2 276.5 245.2C269.5 249.2 260.5 254.2 256.5 254.2C252.5 254.2 243.5 249.2 236.5 245.2C225.5 239.2 214.5 233.2 205.4 233.2C195.4 233.2 184.4 239.2 173.3 245.2C167.3 249.2 157.3 254.2 153.3 254.2C149.3 254.2 140.3 249.2 133.3 245.2C122.3 239.2 112.3 233.2 102.2 233.2C92.1 233.2 82.2 239.2 71.1 245.2C64.1 249.2 54.1 254.2 50.1 254.2C46.1 254.2 37.1 249.2 30.1 245.2C20.1 239.2 10.1 233.2 0 233.2V255.2L19 264.2C30 270.2 40 276.2 50.1 276.2C60.2 276.2 71.1 270.2 82.2 264.2C88.2 260.2 98.2 255.2 102.2 255.2C106.2 255.2 115.2 260.2 122.2 264.2C133.2 270.2 143.2 276.2 153.3 276.2C163.4 276.2 173.3 270.2 184.4 264.2C191.4 260.2 201.4 255.2 205.4 255.2C209.4 255.2 218.4 260.2 225.4 264.2C236.4 270.2 246.4 276.2 256.5 276.2C266.6 276.2 276.5 270.2 287.6 264.2C294.6 260.2 303.6 255.2 307.6 255.2C311.6 255.2 321.6 260.2 328.6 264.2C339.6 270.2 349.6 276.2 359.7 276.2C369.8 276.2 379.7 270.2 390.8 264.2C397.8 260.2 406.8 255.2 410.8 255.2C414.8 255.2 424.8 260.2 430.8 264.2C441.8 270.2 452.8 276.2 462.9 276.2C473 276.2 482.9 270.2 494 264.2L513 255.2V233.2C503 233.2 493 239.2 482.9 245.2C475.9 249.2 466.9 254.2 462.9 254.2ZM513 288.2C503 289.2 493 294.2 482.9 300.2C475.9 304.2 466.9 310.2 462.9 310.2C458.9 310.2 448.9 304.2 441.9 300.2C430.9 294.2 420.9 288.2 410.8 288.2C400.7 288.2 390.8 294.2 379.7 300.2C372.7 304.2 363.7 310.2 359.7 310.2C355.7 310.2 345.7 304.2 339.7 300.2C328.7 294.2 317.7 288.2 307.6 288.2C297.5 288.2 287.6 294.2 276.5 300.2C269.5 304.2 260.5 310.2 256.5 310.2C252.5 310.2 243.5 304.2 236.5 300.2C225.5 294.2 214.5 288.2 205.4 288.2C196.3 288.2 184.4 294.2 173.3 300.2C167.3 304.2 157.3 310.2 153.3 310.2C149.3 310.2 140.3 304.2 133.3 300.2C122.3 294.2 112.3 288.2 102.2 288.2C92.1 288.2 82.2 294.2 71.1 300.2C64.1 304.2 54.1 310.2 50.1 310.2C46.1 310.2 37.1 304.2 30.1 300.2C20.1 294.2 10.1 289.2 0 288.2V311.2C4 311.2 13 316.2 19 320.2C30 326.2 40 332.2 50.1 332.2C60.2 332.2 71.1 326.2 82.2 320.2C88.2 316.2 98.2 311.2 102.2 311.2C106.2 311.2 115.2 316.2 122.2 320.2C133.2 326.2 143.2 332.2 153.3 332.2C163.4 332.2 173.3 326.2 184.4 320.2C191.4 316.2 201.4 311.2 205.4 311.2C209.4 311.2 218.4 316.2 225.4 320.2C236.4 326.2 246.4 332.2 256.5 332.2C266.6 332.2 276.5 326.2 287.6 320.2C294.6 316.2 303.6 311.2 307.6 311.2C311.6 311.2 321.6 316.2 328.6 320.2C339.6 326.2 349.6 332.2 359.7 332.2C369.8 332.2 379.7 326.2 390.8 320.2C397.8 316.2 406.8 311.2 410.8 311.2C414.8 311.2 424.8 316.2 430.8 320.2C441.8 326.2 452.8 332.2 462.9 332.2C473 332.2 482.9 326.2 494 320.2C500 316.2 509 311.2 513 311.2V288.2Z" fill="#0052B4"/>
<path d="M0 -0.300049H256V170.7H0V-0.300049Z" fill="white"/>
<path d="M389.8 119.9H408V198.7H389.7L389.8 119.9ZM389.8 237.7H408V312.8H389.7L389.8 237.7Z" fill="#A2001D"/>
<path d="M144 -0.300049H112V69.7H0V101.7H112V170.7H144V101.7H256V69.7H144V-0.300049Z" fill="#D80027"/>
<path d="M0 -0.300049V14.7L57 53.7H80L0 -0.300049ZM256 -0.300049V14.7L199 53.7H176L256 -0.300049Z" fill="#D80027"/>
<path d="M0 -0.300049V14.7L57 53.7H80L0 -0.300049ZM256 -0.300049V14.7L199 53.7H176L256 -0.300049ZM0 170.7V155.7L57 117.7H80L0 170.7ZM256 170.7V155.7L199 117.7H176L256 170.7Z" fill="#D80027"/>
<path d="M0 22.7V53.7H46L0 22.7ZM96 -0.300049V48.7L23 -0.300049H96ZM256 22.7V53.7H210L256 22.7ZM160 -0.300049V48.7L233 -0.300049H160Z" fill="#2E52B2"/>
<path d="M0 22.7V53.7H46L0 22.7ZM96 -0.300049V48.7L23 -0.300049H96ZM256 22.7V53.7H210L256 22.7ZM160 -0.300049V48.7L233 -0.300049H160ZM0 147.7V117.7H46L0 147.7ZM96 170.7V121.7L23 170.7H96ZM256 147.7V117.7H210L256 147.7ZM160 170.7V121.7L233 170.7H160Z" fill="#2E52B2"/>
<path d="M462.8 91.5001H433.7L459.4 65.8001C463.9 61.4001 463.9 54.4001 459.4 50.0001L456 46.6001C451.6 42.2001 444.6 42.2001 440.2 46.6001L414.3 72.5001V37.4001C414.3 31.2001 409.2 26.1001 403 26.1001H398.3C392.1 26.1001 387 31.2001 387 37.4001V69.1001L363.5 45.3001C358.8 40.6001 351.3 40.6001 346.6 45.3001L343 48.9001C338.3 53.6001 338.3 61.3001 343 66.1001L368 91.5001H337.4C331.4 91.5001 326.5 96.4001 326.5 102.4V107C326.5 113 331.4 117.9 337.4 117.9H369L348.3 138.6C343.9 143 343.9 150 348.3 154.4L351.7 157.8C356.1 162.2 363.1 162.2 367.5 157.8L387.1 138.2V167C387.1 173.1 392.2 178.1 398.4 178.3H403.1C409.3 178.3 414.4 173.2 414.4 167V138.7L436.6 161.3C441.3 166 449 166 453.7 161.3L457.3 157.7C462 153 462 145.3 457.3 140.5L435.2 118H462.8C468.7 118 473.5 113.1 473.7 107.1V102.5C473.7 96.4001 468.8 91.5001 462.8 91.5001Z" fill="#5DA51E"/>
<path fill-rule="evenodd" clip-rule="evenodd" d="M385 37.4001C385 30.0955 390.995 24.1001 398.3 24.1001H403C410.305 24.1001 416.3 30.0955 416.3 37.4001V67.6717L438.786 45.1859C443.967 40.0048 452.233 40.0048 457.414 45.1859L460.798 48.5701C460.801 48.5727 460.804 48.5754 460.806 48.578C466.098 53.7604 466.098 62.0397 460.806 67.2221C460.804 67.2248 460.801 67.2274 460.798 67.2301L438.528 89.5001H462.8C469.916 89.5001 475.7 95.3074 475.7 102.5V107.133L475.699 107.167C475.465 114.17 469.851 120 462.8 120H439.968L458.729 139.101C464.182 144.67 464.203 153.625 458.714 159.114L455.114 162.714C449.633 168.195 440.667 168.195 435.186 162.714L435.179 162.708L416.4 143.59V167C416.4 174.305 410.405 180.3 403.1 180.3H398.368L398.336 180.299C391.128 180.067 385.1 174.25 385.1 167V143.029L368.914 159.214C363.733 164.395 355.467 164.395 350.286 159.214L346.886 155.814C341.705 150.633 341.705 142.367 346.886 137.186L364.172 119.9H337.4C330.295 119.9 324.5 114.105 324.5 107V102.4C324.5 95.2955 330.295 89.5001 337.4 89.5001H363.225L341.575 67.503L341.571 67.4993C336.118 61.9301 336.097 52.975 341.586 47.4859L345.186 43.8859C350.667 38.4048 359.433 38.4048 364.914 43.8859L364.923 43.8949L385 64.228V37.4001ZM398.3 28.1001C393.205 28.1001 389 32.3047 389 37.4001V73.9722L362.086 46.7143C362.084 46.7129 362.083 46.7116 362.082 46.7102C358.162 42.7954 351.932 42.7967 348.014 46.7143L344.414 50.3143C340.504 54.2246 340.482 60.6683 344.427 64.6992C344.428 64.6998 344.428 64.7003 344.429 64.7008L372.775 93.5001H337.4C332.505 93.5001 328.5 97.5047 328.5 102.4V107C328.5 111.896 332.505 115.9 337.4 115.9H373.828L349.714 140.014C346.095 143.633 346.095 149.367 349.714 152.986L353.114 156.386C356.733 160.005 362.467 160.005 366.086 156.386L389.1 133.372V167C389.1 171.94 393.255 176.117 398.434 176.3H403.1C408.195 176.3 412.4 172.096 412.4 167V133.81L438.014 159.886C438.016 159.888 438.018 159.89 438.02 159.892C441.94 163.805 448.369 163.803 452.286 159.886L455.886 156.286C459.796 152.376 459.818 145.932 455.873 141.901C455.872 141.901 455.872 141.9 455.871 141.899L430.432 116H462.8C467.538 116 471.518 112.047 471.7 107.065V102.5C471.7 97.4928 467.684 93.5001 462.8 93.5001H428.872L457.994 64.3779L458.002 64.3701C461.699 60.7546 461.699 55.0456 458.002 51.4301L457.994 51.4223L454.586 48.0143C450.967 44.3954 445.233 44.3954 441.614 48.0143L412.3 77.3285V37.4001C412.3 32.3047 408.095 28.1001 403 28.1001H398.3Z" fill="#45602C"/>
<path d="M439.2 249.1H359.4C359.4 249.1 358.5 235.7 353.4 227.3C347.2 216.9 339.5 199.2 352 190.6C367.9 179.7 385.7 191.4 400.2 191.4C412 191.5 427.1 177.4 445.2 190.6C457.4 199.5 449.1 218.8 443.9 227.3C436.9 238.8 439.2 249.1 439.2 249.1Z" fill="#E2DD24"/>
<path fill-rule="evenodd" clip-rule="evenodd" d="M400.192 193.4C396.326 193.399 392.31 192.621 388.331 191.689C387.018 191.382 385.718 191.06 384.421 190.739C381.706 190.067 379.009 189.4 376.253 188.878C368.203 187.353 360.431 187.246 353.132 192.249C347.765 195.942 346.594 201.573 347.66 207.945C348.735 214.373 352.057 221.14 355.114 226.269C357.846 230.772 359.399 236.495 360.275 240.965C360.718 243.225 360.997 245.214 361.166 246.64C361.185 246.801 361.202 246.954 361.219 247.1H436.925C436.831 245.892 436.787 244.278 436.931 242.363C437.25 238.097 438.498 232.328 442.192 226.26L442.194 226.256C444.72 222.126 447.962 215.421 449.104 208.762C450.247 202.092 449.226 196.013 444.022 192.216C435.593 186.069 427.955 186.259 420.819 188.029C418.142 188.692 415.602 189.56 413.074 190.422C412.146 190.739 411.219 191.056 410.287 191.361C406.923 192.465 403.496 193.426 400.192 193.4ZM439.2 249.1V251.1H357.53L357.405 249.235L357.404 249.23L357.402 249.206C357.401 249.184 357.398 249.15 357.395 249.103C357.387 249.011 357.376 248.871 357.359 248.688C357.326 248.321 357.273 247.784 357.194 247.11C357.034 245.761 356.769 243.875 356.35 241.735C355.502 237.408 354.056 232.234 351.69 228.338L351.686 228.331L351.682 228.324C348.541 223.054 344.914 215.774 343.715 208.605C342.506 201.377 343.735 193.859 350.866 188.952L350.869 188.95C359.471 183.054 368.548 183.347 376.997 184.947C379.862 185.49 382.747 186.204 385.519 186.889C386.788 187.203 388.034 187.512 389.244 187.795C393.174 188.715 396.818 189.4 400.2 189.4H400.208L400.217 189.4C402.81 189.422 405.693 188.659 409.041 187.561C409.878 187.286 410.747 186.989 411.641 186.684C414.215 185.805 416.998 184.855 419.856 184.146C427.745 182.191 436.707 181.931 446.378 188.984C453.373 194.087 454.303 202.108 453.046 209.438C451.788 216.778 448.28 223.972 445.607 228.343C442.302 233.774 441.2 238.904 440.919 242.662C440.779 244.542 440.844 246.076 440.941 247.126C440.99 247.651 441.047 248.053 441.089 248.315C441.11 248.447 441.128 248.543 441.139 248.602C441.143 248.619 441.146 248.633 441.148 248.644C441.149 248.651 441.151 248.657 441.151 248.662L441.152 248.666C441.152 248.665 441.152 248.664 439.2 249.1Z" fill="#525625"/>
</g>
<defs>
<clipPath id="clip0_301_973">
<rect width="513" height="342" fill="white"/>
</clipPath>
</defs>
</svg>
