<svg width="513" height="342" viewBox="0 0 513 342" fill="none" xmlns="http://www.w3.org/2000/svg">
<g clip-path="url(#clip0_301_960)">
<path d="M0 0H512V342H0V0Z" fill="white"/>
<path d="M0 0H513V114H0V0Z" fill="#6DA544"/>
<path d="M0 227.9H513V341.9H0V227.9ZM278.8 134.8C278.9 136.8 287.5 161 283.2 174.2C276.6 194.5 267.4 196 263.4 198.7V134L256.5 129.8L249.6 134V198.7C245.6 196 237.2 196.3 229.8 174.2C225.5 161.5 235.5 136.9 235.6 135C235.6 135 226.1 143.1 219.8 159C213.9 173.8 221.7 208.6 249.3 213.8C251.6 214.2 254 219.4 256.5 219.4C258.6 219.4 260.6 214.2 262.5 213.9C290.9 209.3 297.5 172.2 292.4 158.3C287 143.7 278.8 134.8 278.8 134.8Z" fill="#D80027"/>
<g opacity="0.5">
<path opacity="0.5" d="M44.6 98.9004H66.9V123.3H44.6V98.9004ZM0 98.9004H22.3V123.3H0V98.9004ZM89.2 98.9004H111.5V123.3H89.2V98.9004ZM133.8 98.9004H156.1V123.3H133.8V98.9004ZM178.4 98.9004H200.7V123.3H178.4V98.9004ZM223 98.9004H245.3V123.3H223V98.9004ZM267.7 98.9004H290V123.3H267.7V98.9004ZM312.3 98.9004H334.6V123.3H312.3V98.9004ZM356.9 98.9004H379.2V123.3H356.9V98.9004ZM401.5 98.9004H423.8V123.3H401.5V98.9004ZM446.1 98.9004H468.4V123.3H446.1V98.9004ZM490.7 98.9004H513V123.3H490.7V98.9004ZM44.6 216.9H66.9V242.4H44.6V216.9ZM0 216.9H22.3V242.4H0V216.9ZM89.2 216.9H111.5V242.4H89.2V216.9ZM133.8 216.9H156.1V242.4H133.8V216.9ZM178.4 216.9H200.7V242.4H178.4V216.9ZM223 216.9H245.3V242.4H223V216.9ZM267.7 216.9H290V242.4H267.7V216.9ZM312.3 216.9H334.6V242.4H312.3V216.9ZM356.9 216.9H379.2V242.4H356.9V216.9ZM401.5 216.9H423.8V242.4H401.5V216.9ZM446.1 216.9H468.4V242.4H446.1V216.9ZM490.7 216.9H513V242.4H490.7V216.9Z" fill="white"/>
</g>
</g>
<defs>
<clipPath id="clip0_301_960">
<rect width="513" height="342" fill="white"/>
</clipPath>
</defs>
</svg>
