<svg width="513" height="342" viewBox="0 0 513 342" fill="none" xmlns="http://www.w3.org/2000/svg">
<g clip-path="url(#clip0_301_947)">
<path d="M0 0H513V342H0V0Z" fill="white"/>
<path d="M301.8 171L513 30.2V0H467.7L256.5 140.8L45.3 0H0V30.2L211.2 171L0 311.8V342H45.3L256.5 201.2L467.7 342H513V311.8L301.8 171Z" fill="#D80027"/>
<path d="M233.7 44.5998L256 50.1998L278.3 44.5998L282.3 23.6998L267.4 30.1998L256 14.7998L244.6 30.1998L229.7 23.6998L233.7 44.5998Z" fill="#FFDA44"/>
<path d="M233.7 44.5996C233.7 44.5996 229.7 57.4996 229.7 74.4996C229.7 102.4 256 115.8 256 115.8C256 115.8 282.3 100.3 282.3 74.4996C282.3 59.0996 278.3 44.5996 278.3 44.5996C278.3 44.5996 270.2 39.5996 256 39.5996C241.8 39.5996 233.7 44.5996 233.7 44.5996Z" fill="#D80027"/>
</g>
<defs>
<clipPath id="clip0_301_947">
<rect width="513" height="342" fill="white"/>
</clipPath>
</defs>
</svg>
