<svg width="513" height="342" viewBox="0 0 513 342" fill="none" xmlns="http://www.w3.org/2000/svg">
<g clip-path="url(#clip0_301_901)">
<path d="M0 0H513V342H0V0Z" fill="#CE1126"/>
<path d="M259.464 247.836C294.848 247.836 323.532 219.151 323.532 183.768C323.532 148.384 294.848 119.7 259.464 119.7C224.08 119.7 195.396 148.384 195.396 183.768C195.396 219.151 224.08 247.836 259.464 247.836Z" fill="#FCD116"/>
<path d="M289.674 83.6758L262.656 113.316L295.26 120.726L289.674 83.6758ZM230.964 83.9038L225.492 121.638L257.982 112.518L230.964 83.9038ZM338.466 114.342L298.908 124.032L321.822 151.05L338.466 114.342ZM180.804 112.29L198.474 149.568L221.502 123.69L180.804 112.29ZM362.064 163.932L322.848 152.646L329.232 186.276L362.064 163.932ZM154.584 160.968L190.95 183.54L196.878 151.962L154.584 160.968Z" fill="#FCD116"/>
<path d="M0 199.5H513V342H0V199.5Z" fill="#003F87"/>
<path d="M0 304.38C17.1 304.38 34.2 319.2 51.3 319.2C68.4 319.2 85.5 304.38 102.6 304.38C119.7 304.38 136.8 319.2 153.9 319.2C171 319.2 188.1 304.38 205.2 304.38C222.3 304.38 239.4 319.2 256.5 319.2C273.6 319.2 290.7 304.38 307.8 304.38C324.9 304.38 342 319.2 359.1 319.2C376.2 319.2 393.3 304.38 410.4 304.38C427.5 304.38 444.6 319.2 461.7 319.2C478.8 319.2 495.9 304.38 513 304.38V280.44C495.9 280.44 478.8 295.26 461.7 295.26C444.6 295.26 427.5 280.44 410.4 280.44C393.3 280.44 376.2 295.26 359.1 295.26C342 295.26 324.9 280.44 307.8 280.44C290.7 280.44 273.6 295.26 256.5 295.26C239.4 295.26 222.3 280.44 205.2 280.44C188.1 280.44 171 295.26 153.9 295.26C136.8 295.26 119.7 280.44 102.6 280.44C85.5 280.44 68.4 295.26 51.3 295.26C34.2 295.26 17.1 280.44 0 280.44V304.38ZM0 255.36C17.1 255.36 34.2 270.18 51.3 270.18C68.4 270.18 85.5 255.36 102.6 255.36C119.7 255.36 136.8 270.18 153.9 270.18C171 270.18 188.1 255.36 205.2 255.36C222.3 255.36 239.4 270.18 256.5 270.18C273.6 270.18 290.7 255.36 307.8 255.36C324.9 255.36 342 270.18 359.1 270.18C376.2 270.18 393.3 255.36 410.4 255.36C427.5 255.36 444.6 270.18 461.7 270.18C478.8 270.18 495.9 255.36 513 255.36V231.42C495.9 231.42 478.8 246.24 461.7 246.24C444.6 246.24 427.5 231.42 410.4 231.42C393.3 231.42 376.2 246.24 359.1 246.24C342 246.24 324.9 231.42 307.8 231.42C290.7 231.42 273.6 246.24 256.5 246.24C239.4 246.24 222.3 231.42 205.2 231.42C188.1 231.42 171 246.24 153.9 246.24C136.8 246.24 119.7 231.42 102.6 231.42C85.5 231.42 68.4 246.24 51.3 246.24C34.2 246.24 17.1 231.42 0 231.42V255.36ZM0 206.34C17.1 206.34 34.2 221.16 51.3 221.16C68.4 221.16 85.5 206.34 102.6 206.34C119.7 206.34 136.8 221.16 153.9 221.16C171 221.16 188.1 206.34 205.2 206.34C222.3 206.34 239.4 221.16 256.5 221.16C273.6 221.16 290.7 206.34 307.8 206.34C324.9 206.34 342 221.16 359.1 221.16C376.2 221.16 393.3 206.34 410.4 206.34C427.5 206.34 444.6 221.16 461.7 221.16C478.8 221.16 495.9 206.34 513 206.34V182.4C495.9 182.4 478.8 197.22 461.7 197.22C444.6 197.22 427.5 182.4 410.4 182.4C393.3 182.4 376.2 197.22 359.1 197.22C342 197.22 324.9 182.4 307.8 182.4C290.7 182.4 273.6 197.22 256.5 197.22C239.4 197.22 222.3 182.4 205.2 182.4C188.1 182.4 171 197.22 153.9 197.22C136.8 197.22 119.7 182.4 102.6 182.4C85.5 182.4 68.4 197.22 51.3 197.22C34.2 197.22 17.1 182.4 0 182.4V206.34Z" fill="white"/>
<path fill-rule="evenodd" clip-rule="evenodd" d="M208.848 55.0618L207.594 49.0198L233.13 44.8018C233.13 44.8018 198.816 36.7078 187.53 32.6038C171.228 26.7898 168.948 18.8098 168.948 18.8098C168.948 18.8098 219.906 31.3498 242.82 31.3498C247.722 31.3498 257.412 43.5478 257.412 43.5478C257.412 43.5478 274.284 26.5618 282.378 25.9918C318.972 23.3698 358.302 18.6958 358.302 18.6958C358.302 18.6958 346.902 26.3338 340.062 28.3858C321.594 33.9718 282.378 41.7238 282.378 41.7238L276.906 50.2738H315.78L299.364 55.1758L307.8 63.0418C307.8 63.0418 298.908 58.3678 287.166 60.6478C279.072 62.1298 269.61 67.4878 261.06 69.7678C239.742 75.2398 226.974 55.1758 226.974 55.1758L208.848 55.0618Z" fill="#FCD116"/>
</g>
<defs>
<clipPath id="clip0_301_901">
<rect width="513" height="342" fill="white"/>
</clipPath>
</defs>
</svg>
