<svg width="513" height="342" viewBox="0 0 513 342" fill="none" xmlns="http://www.w3.org/2000/svg">
<g clip-path="url(#clip0_301_877)">
<path d="M0 -0.00195312H513V342.002H0V-0.00195312Z" fill="#91DC5A"/>
<path d="M0 -0.00195312H513V342.002H0V-0.00195312Z" fill="white"/>
<path d="M0 -0.00195312H513V57.2977H0V-0.00195312ZM0 284.702H513V341.991H0V284.702Z" fill="#0052B4"/>
<path d="M0 80.0381H513V261.975H0V80.0381Z" fill="#D80027"/>
<path d="M190.702 236.79C227.04 236.79 256.498 207.333 256.498 170.994C256.498 134.656 227.04 105.198 190.702 105.198C154.363 105.198 124.905 134.656 124.905 170.994C124.905 207.333 154.363 236.79 190.702 236.79Z" fill="white"/>
<path d="M190.704 105.204L205.467 150.639H253.317L214.592 178.721L229.47 224.291L190.704 196.076L151.998 224.238L166.816 178.721L128.125 150.639H175.94L190.704 105.204Z" fill="#D80027"/>
</g>
<defs>
<clipPath id="clip0_301_877">
<rect width="513" height="342" fill="white"/>
</clipPath>
</defs>
</svg>
