<svg width="513" height="342" viewBox="0 0 513 342" fill="none" xmlns="http://www.w3.org/2000/svg">
<g clip-path="url(#clip0_301_848)">
<path d="M0 0.000976562H513V342.005H0V0.000976562Z" fill="#0052B4"/>
<path d="M384.75 126.385C401.175 126.385 414.49 113.07 414.49 96.6454C414.49 80.2204 401.175 66.9054 384.75 66.9054C368.325 66.9054 355.01 80.2204 355.01 96.6454C355.01 113.07 368.325 126.385 384.75 126.385Z" fill="#6DA544"/>
<path d="M332.703 89.2179H436.786V133.827H332.703V89.2179Z" fill="#D80027"/>
<path d="M332.707 200.736V230.476H348.353C357.735 239.67 370.576 245.345 384.75 245.345C398.925 245.345 411.765 239.67 421.147 230.476H436.793V200.736H332.707Z" fill="#FFDA44"/>
<path d="M332.707 126.388V170.997C332.707 210.834 384.75 223.041 384.75 223.041C384.75 223.041 436.793 210.835 436.793 170.997V126.388H332.707Z" fill="#338AF3"/>
<path d="M384.747 150.216C371.737 150.216 371.737 162.112 358.726 162.112C345.716 162.112 345.716 150.216 332.706 150.216V171.033C345.716 171.033 345.716 182.93 358.726 182.93C371.737 182.93 371.737 171.033 384.747 171.033C397.758 171.033 397.758 182.93 410.771 182.93C423.782 182.93 423.782 171.033 436.794 171.033V150.216C423.783 150.216 423.783 162.112 410.771 162.112C397.759 162.111 397.759 150.216 384.747 150.216ZM384.747 108.545C371.737 108.545 371.737 120.441 358.726 120.441C345.716 120.441 345.716 108.545 332.706 108.545V129.362C345.716 129.362 345.716 141.258 358.726 141.258C371.737 141.258 371.737 129.362 384.747 129.362C397.758 129.362 397.758 141.258 410.771 141.258C423.782 141.258 423.782 129.362 436.794 129.362V108.545C423.783 108.545 423.783 120.441 410.771 120.441C397.759 120.441 397.759 108.545 384.747 108.545Z" fill="#F3F3F3"/>
<path d="M256.5 0.000976562V22.6621L210.341 53.4311H256.5V117.556H210.341L256.5 148.336V170.997H233.828L160.312 121.983V170.997H96.1875V121.983L22.6722 170.997H0V148.336L46.159 117.556H0V53.4311H46.159L0 22.6621V0.000976562H22.6722L96.1875 49.0035V0.000976562H160.312V49.0035L233.828 0.000976562H256.5Z" fill="white"/>
<path d="M144.281 -0.00402832H112.219V69.4654H0V101.528H112.219V170.997H144.281V101.528H256.5V69.4654H144.281V-0.00402832Z" fill="#D80027"/>
<path d="M0 -0.00402832V15.1074L57.4891 53.4341H80.1562L0 -0.00402832ZM256.5 -0.00402832V15.1074L199.011 53.4341H176.344L256.5 -0.00402832Z" fill="#D80027"/>
<path d="M0 -0.00402832V15.1074L57.4891 53.4341H80.1562L0 -0.00402832ZM256.5 -0.00402832V15.1074L199.011 53.4341H176.344L256.5 -0.00402832ZM0 170.997V155.886L57.4891 117.559H80.1562L0 170.997ZM256.5 170.997V155.886L199.011 117.559H176.344L256.5 170.997Z" fill="#D80027"/>
</g>
<defs>
<clipPath id="clip0_301_848">
<rect width="513" height="342" fill="white"/>
</clipPath>
</defs>
</svg>
