<svg width="513" height="342" viewBox="0 0 513 342" fill="none" xmlns="http://www.w3.org/2000/svg">
<g clip-path="url(#clip0_301_844)">
<path d="M0 0H513V342H0V0Z" fill="#36B6CC"/>
<path d="M256.5 239.3C294.276 239.3 324.9 208.676 324.9 170.9C324.9 133.124 294.276 102.5 256.5 102.5C218.724 102.5 188.1 133.124 188.1 170.9C188.1 208.676 218.724 239.3 256.5 239.3Z" fill="#FFD400"/>
<path d="M256.5 251.5L228.6 293.2L221.5 243.5L178.3 269L193.5 221.2L143.5 225.4L177.9 188.9L131 170.9L177.8 152.9L143.4 116.4L193.4 120.6L178.2 72.8001L221.4 98.2001L228.5 48.5001L256.4 90.2001L284.3 48.5001L291.4 98.2001L334.6 72.8001L319.4 120.6L369.4 116.4L335.1 153L381.9 170.9L335.1 188.9L369.5 225.4L319.5 221.2L334.7 269L291.5 243.6L284.4 293.3C284.4 293.2 256.5 251.5 256.5 251.5ZM256.5 250.7C300.6 250.7 336.4 214.9 336.4 170.8C336.4 126.7 300.6 91.0001 256.5 91.0001C212.4 91.0001 176.6 126.8 176.6 170.9C176.6 215 212.4 250.7 256.5 250.7ZM22.7998 28.3001C22.7998 25.1001 25.1998 22.6001 28.4998 22.6001H39.7998C42.9998 22.6001 45.4998 25.0001 45.4998 28.3001V39.6001C45.5998 42.7001 43.0998 45.3001 39.8998 45.3001H28.4998C25.3998 45.3001 22.7998 42.8001 22.7998 39.7001V28.3001ZM22.7998 74.0001C22.7998 70.8001 25.1998 68.3001 28.4998 68.3001H39.7998C42.9998 68.3001 45.4998 70.7001 45.4998 74.0001V85.3001C45.5998 88.4001 43.0998 91.0001 39.8998 91.0001H28.4998C25.3998 91.0001 22.7998 88.5001 22.7998 85.4001V74.0001ZM22.7998 119.6C22.7998 116.4 25.1998 113.9 28.4998 113.9H39.7998C42.9998 113.9 45.4998 116.3 45.4998 119.6V130.9C45.5998 134 43.0998 136.6 39.8998 136.6H28.4998C25.3998 136.6 22.7998 134.1 22.7998 131V119.6ZM22.7998 165.2C22.7998 162 25.1998 159.5 28.4998 159.5H39.7998C42.9998 159.5 45.4998 161.9 45.4998 165.2V176.5C45.5998 179.6 43.0998 182.2 39.8998 182.2H28.4998C25.3998 182.2 22.7998 179.7 22.7998 176.6V165.2ZM22.7998 210.9C22.7998 207.7 25.1998 205.2 28.4998 205.2H39.7998C42.9998 205.2 45.4998 207.6 45.4998 210.9V222.2C45.5998 225.3 43.0998 227.9 39.8998 227.9H28.4998C25.3998 227.9 22.7998 225.4 22.7998 222.3V210.9ZM22.7998 256.5C22.7998 253.3 25.1998 250.8 28.4998 250.8H39.7998C42.9998 250.8 45.4998 253.2 45.4998 256.5V267.8C45.5998 270.9 43.0998 273.5 39.8998 273.5H28.4998C25.3998 273.5 22.7998 271 22.7998 267.9V256.5ZM22.7998 302.1C22.7998 298.9 25.1998 296.4 28.4998 296.4H39.7998C42.9998 296.4 45.4998 298.8 45.4998 302.1V313.4C45.5998 316.5 43.0998 319.1 39.8998 319.1H28.4998C25.3998 319.1 22.7998 316.6 22.7998 313.5V302.1ZM45.5998 279.3C45.5998 276.1 47.9998 273.6 51.2998 273.6H62.5998C65.7998 273.6 68.2998 276 68.2998 279.3V290.6C68.3998 293.7 65.8998 296.3 62.6998 296.3H51.2998C48.1998 296.3 45.5998 293.8 45.5998 290.7V279.3ZM45.5998 233.7C45.5998 230.5 47.9998 228 51.2998 228H62.5998C65.7998 228 68.2998 230.4 68.2998 233.7V245C68.3998 248.1 65.8998 250.7 62.6998 250.7H51.2998C48.1998 250.7 45.5998 248.2 45.5998 245.1V233.7ZM45.5998 188C45.5998 184.8 47.9998 182.3 51.2998 182.3H62.5998C65.7998 182.3 68.2998 184.7 68.2998 188V199.3C68.3998 202.4 65.8998 205 62.6998 205H51.2998C48.1998 205 45.5998 202.5 45.5998 199.4V188ZM45.5998 142.4C45.5998 139.2 47.9998 136.7 51.2998 136.7H62.5998C65.7998 136.7 68.2998 139.1 68.2998 142.4V153.7C68.3998 156.8 65.8998 159.4 62.6998 159.4H51.2998C48.1998 159.4 45.5998 156.9 45.5998 153.8V142.4ZM45.5998 96.8001C45.5998 93.6001 47.9998 91.1001 51.2998 91.1001H62.5998C65.7998 91.1001 68.2998 93.5001 68.2998 96.8001V108.1C68.3998 111.2 65.8998 113.8 62.6998 113.8H51.2998C48.1998 113.8 45.5998 111.3 45.5998 108.2V96.8001ZM45.5998 51.2001C45.5998 48.0001 47.9998 45.5001 51.2998 45.5001H62.5998C65.7998 45.5001 68.2998 47.9001 68.2998 51.2001V62.5001C68.3998 65.6001 65.8998 68.2001 62.6998 68.2001H51.2998C48.1998 68.2001 45.5998 65.7001 45.5998 62.6001V51.2001Z" fill="#FFD400"/>
</g>
<defs>
<clipPath id="clip0_301_844">
<rect width="513" height="342" fill="white"/>
</clipPath>
</defs>
</svg>
