<svg width="513" height="342" viewBox="0 0 513 342" fill="none" xmlns="http://www.w3.org/2000/svg">
<g clip-path="url(#clip0_301_833)">
<path d="M0 0H513V342H0V0Z" fill="white"/>
<path d="M0 0.200195H513V90.9002H0V0.200195ZM0.5 251.3H513V342H0.5V251.3Z" fill="#D80027"/>
<path d="M290.3 193.5L256 130.7L221.7 193.5H247.4V210.7H264.6V193.5H290.3Z" fill="#6DA544"/>
<path d="M241.3 213.1C245.7 208.7 245.7 201.5 241.2 197.1L245.9 201.8C240.7 197.1 233.7 195.2 226.8 196.5L203.3 202.4C197.2 203.9 196.5 202 201.5 198.2L228.6 177.9C233.7 174.1 232.8 171 226.3 171H215.3C208.9 171 208.3 168.7 213.8 165.9L239.1 153.2C244.7 150.4 244.2 148.1 237.6 148.1H226.6C220.2 148.1 219.2 145 224.3 141.2L251.4 120.9C257 117.1 264.3 117.1 269.9 120.9L297 141.2C302.1 145 301.2 148.1 294.7 148.1H283.7C277.3 148.1 276.7 150.4 282.2 153.2L307.5 165.9C313.1 168.7 312.6 171 306 171H295C288.6 171 287.6 174.1 292.7 177.9L319.8 198.2C324.9 202 324.2 203.9 318 202.4L294.5 196.5C287.7 195.2 280.6 197.1 275.4 201.8L280.1 197.1C275.7 201.5 275.6 208.6 280 213.1L286.8 219.9C291.2 224.3 289.9 227.9 283.5 227.9H237.7C231.5 227.9 230 224.3 234.4 219.9C234.5 220 241.3 213.1 241.3 213.1Z" fill="#14AF5A"/>
</g>
<defs>
<clipPath id="clip0_301_833">
<rect width="513" height="342" fill="white"/>
</clipPath>
</defs>
</svg>
