<svg width="513" height="342" viewBox="0 0 513 342" fill="none" xmlns="http://www.w3.org/2000/svg">
<g clip-path="url(#clip0_301_824)">
<path d="M0 0H513V342H0V0Z" fill="#D80027"/>
<path d="M0 0H513V171H0V0Z" fill="#0052B4"/>
<path d="M149.3 98.1C149.3 84.1 138 72.8 124 72.8C117.5 72.8 111.6 75.2 107.1 79.2V64.4H115.5V47.5H107.1V39.1H90.3001V47.5H81.9001V64.4H90.3001V79.3C85.8001 75.3 79.9001 72.9 73.4001 72.9C59.4001 72.9 48.1001 84.2 48.1001 98.2C48.1001 105.7 51.4001 112.4 56.5001 117V131.9H140.8V117C146.1 112.3 149.3 105.5 149.3 98.1Z" fill="#FFDA44"/>
</g>
<defs>
<clipPath id="clip0_301_824">
<rect width="513" height="342" fill="white"/>
</clipPath>
</defs>
</svg>
