<svg width="513" height="342" viewBox="0 0 513 342" fill="none" xmlns="http://www.w3.org/2000/svg">
<g clip-path="url(#clip0_301_810)">
<path d="M0 0H512V31.1H0V0ZM0 62.2H512V93.3H0V62.2ZM0 124.5H512V155.6H0V124.5ZM0 186.8H512V217.9H0V186.8ZM0 249.3H512V280.4H0V249.3ZM0 310.9H512V342H0V310.9Z" fill="#BF0A30"/>
<path d="M0 0H155.6V155.6H0V0Z" fill="#002868"/>
<path d="M77.8 30.2L88.5 63.0999H123.1L95.1 83.5L105.8 116.4L77.8 96.0999L49.8 116.4L60.5 83.5L32.5 63.0999H67.1L77.8 30.2Z" fill="white"/>
</g>
<defs>
<clipPath id="clip0_301_810">
<rect width="513" height="342" fill="white"/>
</clipPath>
</defs>
</svg>
