<svg width="513" height="342" viewBox="0 0 513 342" fill="none" xmlns="http://www.w3.org/2000/svg">
<g clip-path="url(#clip0_301_804)">
<path d="M0 0H513V342H0V0Z" fill="white"/>
<path d="M0 0H513V114H0V0Z" fill="#0052B4"/>
<path d="M0 227.6H513V341.6H0V227.6Z" fill="#6DA544"/>
<path d="M245.2 171L252.9 147.9C254.9 142 258 141.9 260 147.9L267.7 171L287.1 200.1C288.8 202.7 288.4 206.4 285.9 208.1C285.9 208.1 279 216.1 256.4 216.1C233.8 216.1 226.9 208.1 226.9 208.1C224.5 206.1 224 202.7 225.7 200.1L245.2 171Z" fill="black"/>
<path d="M256.5 171C244 171 233.9 160.9 233.9 148.4C233.9 135.9 244 125.8 256.5 125.8C269 125.8 279.1 135.9 279.1 148.4C279.1 160.9 268.9 171 256.5 171ZM256.5 171C262.7 171 267.8 154.7 267.8 148.4C267.8 142.2 262.7 137.1 256.5 137.1C250.3 137.1 245.2 142.2 245.2 148.4C245.2 154.7 250.2 171 256.5 171Z" fill="black"/>
</g>
<defs>
<clipPath id="clip0_301_804">
<rect width="513" height="342" fill="white"/>
</clipPath>
</defs>
</svg>
