<svg width="513" height="342" viewBox="0 0 513 342" fill="none" xmlns="http://www.w3.org/2000/svg">
<g clip-path="url(#clip0_301_785)">
<path d="M0 0.00390625H513V341.997H0V0.00390625Z" fill="black"/>
<path d="M0 0.00390625H513V114.001H0V0.00390625Z" fill="#D80027"/>
<path d="M0 227.999H513V341.996H0V227.999Z" fill="#496E2D"/>
<path d="M281.974 150.987L290.953 163.361L305.495 158.646L296.502 171.009L305.481 183.382L290.943 178.649L281.95 191.013L281.96 175.726L267.421 170.991L281.964 166.276L281.974 150.987Z" fill="white"/>
<path d="M257.467 201.929C240.385 201.929 226.538 188.081 226.538 171.001C226.538 153.92 240.386 140.072 257.467 140.072C262.604 140.065 267.662 141.343 272.179 143.79C265.315 137.079 255.93 132.936 245.572 132.936C224.549 132.936 207.505 149.979 207.505 171.002C207.505 192.025 224.549 209.068 245.572 209.068C255.93 209.068 265.316 204.925 272.179 198.214C267.662 200.66 262.604 201.937 257.467 201.929Z" fill="white"/>
</g>
<defs>
<clipPath id="clip0_301_785">
<rect width="513" height="342" fill="white"/>
</clipPath>
</defs>
</svg>
