<svg width="513" height="342" viewBox="0 0 513 342" fill="none" xmlns="http://www.w3.org/2000/svg">
<g clip-path="url(#clip0_301_769)">
<path d="M0 0H513V342H0V0Z" fill="#E6BE53"/>
<path d="M20 20H493V322H20V20Z" fill="#E01D24"/>
<path d="M248.5 112.9C252.9 117.3 260.1 117.3 264.5 112.9L259.8 117.6L282.5 94.9C287.4 90.4 294.6 89.3 300.7 92.1L302.8 93.1C308.5 96 309.5 101.8 305.1 106.2L309.8 101.5L287 124.3C282.5 129.2 281.4 136.4 284.2 142.5L285.2 144.6C288.1 150.3 290.3 160 290.3 166.2V154.9C290.3 161.1 294.7 164 300.5 161.1L302.6 160.1C308.3 157.2 309.3 151.4 304.9 147L309.6 151.7C305.2 147.3 305.2 140.1 309.6 135.7L304.9 140.4C310.1 134.9 314.5 128.8 318 122.2L319 120.1C321.9 114.4 325.3 105 326.9 98.9L332.7 75.6C334.2 69.6 338.6 68.8 342.3 73.8L362.5 100.7C366.3 105.8 369.4 114.7 369.4 121.3V143.7C369.4 150 367.2 159.5 364.3 165.4L363.3 167.5C359.8 174.1 355.4 180.2 350.2 185.7L343.4 192.5C338 197.7 331.9 202.1 325.2 205.6L323.1 206.6C317.4 209.5 307.6 211.7 301.5 211.7C295.3 211.7 294.6 213.9 300.4 216.8L302.5 217.8C308.2 220.7 316.3 226.5 320.7 230.9L316 226.2C320.4 230.6 327.6 230.6 332 226.2L327.3 230.9C331.7 226.5 338.9 226.5 343.3 230.9L339 226C343.6 230.9 344.7 238.1 341.9 244.2L340.9 246.3C338 252 330.5 256.5 324.5 256.5C317 256.2 309.7 254.5 302.9 251.4L300.8 250.4C294.3 246.8 289 241.5 285.4 235L284.4 232.9C281.5 227.2 275.7 226.2 271.3 230.6L276 225.9C271.6 230.6 270.8 237.7 274.2 243.2L284.5 258.6C287.9 263.7 286.5 270.7 281.4 274.1L266 284.4C260.3 287.8 253.2 287.8 247.4 284.4L232 274.1C226.9 270.7 225.5 263.8 228.9 258.6L239.2 243.2C242.6 237.7 241.8 230.6 237.4 225.9L242.1 230.6C237.7 226.2 231.9 227 229 232.9L228 235C225.1 240.7 218.5 247.4 212.6 250.4L210.5 251.4C204.8 254.3 195 256.5 188.9 256.5C182 256.2 175.8 252.3 172.5 246.3L171.5 244.2C168.7 238.1 169.9 230.9 174.4 226L169.7 230.7C174.1 226.3 181.3 226.3 185.7 230.7L181 226C185.4 230.4 192.6 230.4 197 226L192.3 230.7C197.8 225.5 203.9 221.1 210.5 217.6L212.6 216.6C218.3 213.7 217.6 211.5 211.5 211.5C204 211.2 196.7 209.5 189.9 206.4L187.8 205.4C181.2 201.9 175.1 197.5 169.6 192.3L162.8 185.5C157.6 180.1 153.2 174 149.7 167.3L148.7 165.2C145.6 158.4 143.8 151 143.6 143.5V121C143.6 114.7 146.7 105.4 150.5 100.4L170.7 73.5C174.5 68.4 178.8 69.2 180.3 75.3L186.1 98.6C188.1 105.9 190.7 113 194 119.8L195 121.9C197.9 127.6 203.7 135.7 208.1 140.1L203.4 135.4C207.8 139.8 207.8 147 203.4 151.4L208.1 146.7C203.7 151.1 204.5 156.9 210.4 159.8L212.5 160.8C218.2 163.7 222.7 160.8 222.7 154.6V165.9C222.7 159.7 224.9 150.2 227.8 144.3L228.8 142.2C231.6 136.1 230.5 129 226 124L203.3 101.3L208 106C203.6 101.6 204.4 95.8 210.3 92.9L212.4 91.9C218.5 89.1 225.6 90.2 230.6 94.7L253.3 117.4L248.5 112.9ZM230.5 72.2C226.1 67.8 227.3 62.7 233.3 60.7L245.7 56.5C251.7 54.5 261.2 54.5 267.2 56.5L279.6 60.7C285.6 62.7 286.8 67.8 282.4 72.2L275.6 79C270.3 83.7 263.5 86.5 256.4 86.9C250.2 86.9 241.6 83.4 237.2 79C237.3 79 230.5 72.2 230.5 72.2Z" fill="#E6BE53"/>
<path d="M233.9 200.2C233.9 206.4 235.6 206.6 238.1 200.7C238.1 200.7 245.2 177.5 256.5 177.5C267.8 177.5 275.1 201.1 275.1 201.1C277.3 206.8 279.1 206.4 279.1 200V188.8C279.1 170.1 269 154.9 256.5 154.9C244 154.9 233.9 170.1 233.9 188.8V200.2Z" fill="#215F90"/>
</g>
<defs>
<clipPath id="clip0_301_769">
<rect width="513" height="342" fill="white"/>
</clipPath>
</defs>
</svg>
