<svg width="513" height="342" viewBox="0 0 513 342" fill="none" xmlns="http://www.w3.org/2000/svg">
<g clip-path="url(#clip0_301_754)">
<path d="M0 0H513V342H0V0Z" fill="#1E509C"/>
<path d="M513 176.1V81.2998L0 342L513 176.1Z" fill="white"/>
<path d="M513 0V81.3L0 342L513 0Z" fill="#F18D36"/>
<path d="M126.7 99.3002L118.9 45.2002L111.2 99.3002L90.4001 75.6002L101.1 107.2L69.6001 96.5002L93.2001 117.3L39.1001 125L93.2001 132.7L69.6001 153.5L101.1 142.8L90.4001 174.4L111.2 150.7L118.9 204.8L126.7 150.7L147.4 174.4L136.8 142.8L168.3 153.5L144.7 132.7L198.7 125L144.7 117.3L168.3 96.5002L136.8 107.2L147.4 75.6002L126.7 99.3002Z" fill="white"/>
</g>
<defs>
<clipPath id="clip0_301_754">
<rect width="513" height="342" fill="white"/>
</clipPath>
</defs>
</svg>
