<svg width="513" height="342" viewBox="0 0 513 342" fill="none" xmlns="http://www.w3.org/2000/svg">
<g clip-path="url(#clip0_301_748)">
<path d="M0 0H513V342.004H0V0Z" fill="#FFDA44"/>
<path d="M384.625 341.996L256.5 167.279L283.379 341.996H384.625ZM133.826 -0.00292969L256.5 167.279L230.764 -0.00292969H133.826ZM229.619 341.996L256.5 167.279L128.374 341.996H229.619ZM0 -0.00292969V127.816L256.5 167.279L28.3883 -0.00292969H0ZM0 341.996H18.2476L256.5 167.279L0 206.74V341.996ZM256.5 167.279L513 127.816V-0.00292969H484.614L256.5 167.279ZM282.236 -0.00292969L256.5 167.279L379.173 -0.00292969H282.236ZM513 341.996V206.741L256.5 167.279L494.751 341.996H513Z" fill="#D80027"/>
<path d="M256.5 226.758C289.347 226.758 315.975 200.13 315.975 167.283C315.975 134.436 289.347 107.808 256.5 107.808C223.653 107.808 197.025 134.436 197.025 167.283C197.025 200.13 223.653 226.758 256.5 226.758Z" fill="#D80027"/>
<path d="M256.5 211.892C281.137 211.892 301.109 191.92 301.109 167.283C301.109 142.646 281.137 122.674 256.5 122.674C231.863 122.674 211.891 142.646 211.891 167.283C211.891 191.92 231.863 211.892 256.5 211.892Z" fill="#FFDA44"/>
</g>
<defs>
<clipPath id="clip0_301_748">
<rect width="513" height="342" fill="white"/>
</clipPath>
</defs>
</svg>
