<svg width="513" height="342" viewBox="0 0 513 342" fill="none" xmlns="http://www.w3.org/2000/svg">
<g clip-path="url(#clip0_301_729)">
<path d="M0 0H513V342H0V0Z" fill="#095FAD"/>
<path d="M342 0H513V342H342V0ZM0 0H171V342H0V0Z" fill="#BE1229"/>
<path d="M108.3 166.3H123.1V240.5H108.3V166.3ZM48.8999 166.3H63.6999V240.5H48.8999V166.3Z" fill="#FFDA44"/>
<path d="M85.9997 218.2C94.1735 218.2 100.8 211.574 100.8 203.4C100.8 195.226 94.1735 188.6 85.9997 188.6C77.8259 188.6 71.1997 195.226 71.1997 203.4C71.1997 211.574 77.8259 218.2 85.9997 218.2Z" fill="#FFDA44"/>
<path d="M71.1997 225.7H100.9V240.5H71.1997V225.7ZM71.1997 166.3H100.9V181.1H71.1997V166.3Z" fill="#FFDA44"/>
<path d="M85.9997 158.8C94.1735 158.8 100.8 152.174 100.8 144C100.8 135.826 94.1735 129.2 85.9997 129.2C77.8259 129.2 71.1997 135.826 71.1997 144C71.1997 152.174 77.8259 158.8 85.9997 158.8Z" fill="#FFDA44"/>
<path d="M76.2998 123.9H95.7998L85.9998 108.3L76.2998 123.9Z" fill="#FFDA44"/>
</g>
<defs>
<clipPath id="clip0_301_729">
<rect width="513" height="342" fill="white"/>
</clipPath>
</defs>
</svg>
