<svg width="513" height="342" viewBox="0 0 513 342" fill="none" xmlns="http://www.w3.org/2000/svg">
<g clip-path="url(#clip0_301_722)">
<path d="M0 -0.00195312H513V342.002H0V-0.00195312Z" fill="#00745A"/>
<path d="M286.24 163.864C282.042 163.864 278.058 164.702 274.356 166.033C276.383 161.515 277.741 156.487 277.741 151.119C277.741 129.876 256.499 113.945 256.499 113.945C256.499 113.945 235.257 129.877 235.257 151.119C235.257 156.486 236.615 161.514 238.642 166.033C234.942 164.702 230.956 163.864 226.758 163.864C205.516 163.864 189.584 185.107 189.584 185.107C189.584 185.107 205.517 206.349 226.758 206.349C239.211 206.349 249.834 199.049 256.498 193.008C263.161 199.05 273.783 206.349 286.238 206.349C307.48 206.349 323.411 185.107 323.411 185.107C323.411 185.107 307.481 163.864 286.24 163.864Z" fill="white"/>
<path d="M256.5 66.9084L260.888 80.4108H275.087L263.601 88.7591L267.985 102.261L256.5 93.9151L245.014 102.261L249.399 88.7591L237.913 80.4108H252.111L256.5 66.9084ZM202.507 90.5265L210.948 98.1263L220.785 92.4482L216.166 102.823L224.606 110.426L213.31 109.239L208.69 119.614L206.327 108.505L195.03 107.317L204.867 101.637L202.507 90.5265ZM162.979 130.053L174.091 132.415L179.77 122.578L180.959 133.874L192.069 136.237L181.692 140.856L182.88 152.152L175.278 143.712L164.901 148.331L170.581 138.494L162.979 130.053ZM310.494 90.5265L302.053 98.1263L292.215 92.4482L296.835 102.823L288.394 110.426L299.691 109.239L304.31 119.614L306.674 108.505L317.971 107.317L308.133 101.637L310.494 90.5265ZM350.02 130.053L338.909 132.415L333.229 122.578L332.041 133.874L320.931 136.237L331.309 140.856L330.121 152.152L337.722 143.712L348.099 148.331L342.419 138.494L350.02 130.053Z" fill="#FFDA44"/>
<path d="M256.5 265.827C273.373 265.827 288.926 260.197 301.404 250.725H211.599C224.074 260.197 239.627 265.827 256.5 265.827ZM188.344 221.218C190.694 226.584 193.671 231.654 197.212 236.321H315.788C319.329 231.654 322.305 226.584 324.655 221.218H188.344Z" fill="white"/>
</g>
<defs>
<clipPath id="clip0_301_722">
<rect width="513" height="342" fill="white"/>
</clipPath>
</defs>
</svg>
