<svg width="513" height="342" viewBox="0 0 513 342" fill="none" xmlns="http://www.w3.org/2000/svg">
<g clip-path="url(#clip0_301_710)">
<path d="M0 0H513V342H0V0Z" fill="#0071BC"/>
<path d="M256.5 321.48C341.497 321.48 410.4 252.577 410.4 167.58C410.4 82.5834 341.497 13.68 256.5 13.68C171.503 13.68 102.6 82.5834 102.6 167.58C102.6 252.577 171.503 321.48 256.5 321.48Z" fill="white"/>
<path fill-rule="evenodd" clip-rule="evenodd" d="M256.5 14.63C172.028 14.63 103.55 83.108 103.55 167.58C103.55 252.052 172.028 320.53 256.5 320.53C340.972 320.53 409.45 252.052 409.45 167.58C409.45 83.108 340.972 14.63 256.5 14.63ZM101.65 167.58C101.65 82.0587 170.979 12.73 256.5 12.73C342.021 12.73 411.35 82.0587 411.35 167.58C411.35 253.101 342.021 322.43 256.5 322.43C170.979 322.43 101.65 253.101 101.65 167.58Z" fill="black"/>
<path d="M256.5 280.44C318.831 280.44 369.36 229.911 369.36 167.58C369.36 105.249 318.831 54.72 256.5 54.72C194.169 54.72 143.64 105.249 143.64 167.58C143.64 229.911 194.169 280.44 256.5 280.44Z" fill="#0071BC"/>
<path fill-rule="evenodd" clip-rule="evenodd" d="M256.5 55.67C194.694 55.67 144.59 105.774 144.59 167.58C144.59 229.386 194.694 279.49 256.5 279.49C318.306 279.49 368.41 229.386 368.41 167.58C368.41 105.774 318.306 55.67 256.5 55.67ZM142.69 167.58C142.69 104.724 193.644 53.77 256.5 53.77C319.355 53.77 370.31 104.724 370.31 167.58C370.31 230.435 319.355 281.39 256.5 281.39C193.644 281.39 142.69 230.435 142.69 167.58Z" fill="black"/>
<path d="M304.175 307.8C304.654 315.324 298.84 321.48 291.316 321.48H221.343C213.819 321.48 208.005 315.324 208.347 307.8L219.77 85.5C220.18 77.976 226.61 71.82 234.134 71.82H276.131C283.655 71.82 290.153 77.976 290.632 85.5L304.175 307.8Z" fill="#8C8A8C"/>
<path fill-rule="evenodd" clip-rule="evenodd" d="M220.718 85.55C220.718 85.5506 220.718 85.5512 220.718 85.5517L209.296 307.843C209.296 307.844 209.296 307.845 209.296 307.846C208.979 314.835 214.368 320.53 221.343 320.53H291.316C298.294 320.53 303.671 314.834 303.227 307.86L303.227 307.858L289.684 85.5603C289.684 85.5598 289.684 85.5593 289.684 85.5588C289.236 78.53 283.148 72.77 276.131 72.77H234.133C227.121 72.77 221.102 78.5242 220.718 85.55ZM218.821 85.4483C219.258 77.4269 226.098 70.87 234.133 70.87H276.131C284.162 70.87 291.07 77.4212 291.58 85.4397L291.58 85.4422L305.123 307.74C305.123 307.74 305.123 307.741 305.123 307.741C305.636 315.815 299.385 322.43 291.316 322.43H221.343C213.27 322.43 207.031 315.815 207.398 307.757L207.398 307.751H207.398L218.821 85.4512L218.821 85.4483Z" fill="black"/>
<path d="M255.132 77.976L275.652 141.588H342L288.648 179.892L308.484 242.82L255.132 204.516L201.78 243.504L222.3 179.892L168.264 140.904H234.612L255.132 77.976Z" fill="white"/>
<path fill-rule="evenodd" clip-rule="evenodd" d="M255.134 76.976C255.567 76.9767 255.951 77.2565 256.084 77.669L276.38 140.588H342C342.434 140.588 342.819 140.868 342.952 141.282C343.085 141.695 342.936 142.147 342.583 142.4L289.82 180.282L309.438 242.519C309.567 242.93 309.419 243.377 309.071 243.63C308.722 243.882 308.251 243.883 307.901 243.632L255.137 205.751L202.37 244.311C202.02 244.567 201.546 244.568 201.194 244.314C200.843 244.061 200.695 243.609 200.829 243.197L221.125 180.277L167.679 141.715C167.327 141.461 167.179 141.009 167.313 140.597C167.446 140.184 167.83 139.904 168.264 139.904H233.886L254.181 77.666C254.316 77.2539 254.7 76.9753 255.134 76.976ZM255.127 81.2174L235.563 141.214C235.429 141.626 235.045 141.904 234.612 141.904H171.359L222.885 179.081C223.237 179.335 223.385 179.786 223.252 180.199L203.678 240.879L254.542 203.709C254.891 203.454 255.364 203.452 255.715 203.704L306.627 240.256L287.694 180.193C287.565 179.781 287.714 179.332 288.065 179.08L338.893 142.588H275.652C275.218 142.588 274.834 142.308 274.701 141.895L255.127 81.2174Z" fill="black"/>
</g>
<defs>
<clipPath id="clip0_301_710">
<rect width="513" height="342" fill="white"/>
</clipPath>
</defs>
</svg>
