<svg width="513" height="342" viewBox="0 0 513 342" fill="none" xmlns="http://www.w3.org/2000/svg">
<g clip-path="url(#clip0_301_705)">
<path d="M0 0H513V342H0V0Z" fill="#0052B4"/>
<path d="M512 148.4V192.9H278.3V341.3H233.7V192.9H0V148.4H233.7V0H278.3V148.4H512Z" fill="white"/>
<path d="M101 36.1002C105.2 35.9002 109.3 36.0002 113.5 36.3002C119 36.7002 122.9 37.9002 122.6 36.8002C122.1 35.0002 122.5 34.6002 121.8 35.0002C120.5 36.0002 122.5 34.8002 114.4 39.4002C102.6 46.1002 97.4998 51.2002 100.1 60.4002C102.4 68.5002 108.3 70.7002 122.4 72.9002L124.3 73.2002C129.9 74.1002 132.4 74.6002 134.1 75.4002C134.5 75.6002 133.8 74.4002 134 73.7002C133.8 74.3002 130.1 75.8002 120.7 77.6002L116 78.5002C97.8998 82.2002 88.8998 87.0002 87.4998 99.5002C85.9998 113.2 100.2 122.8 118.1 125.1C136.3 127.5 152.2 121.5 153.8 106.7C154.8 97.3002 148.3 91.7002 137.9 89.6002C130.9 88.2002 121.6 88.2002 110.5 89.3002C98.0998 90.6002 85.7998 92.7002 73.5998 95.6002C69.9998 96.3002 67.6998 99.8002 68.3998 103.4C69.0998 107 72.5998 109.3 76.1998 108.6C76.3998 108.6 76.4998 108.5 76.6998 108.5C88.2998 105.8 99.9998 103.8 111.8 102.6C121.7 101.6 129.8 101.6 135.2 102.7C139.6 103.6 140.5 104.4 140.4 105.3C139.9 110.4 131.5 113.5 119.7 112C108.1 110.5 100.2 105.2 100.6 101C101.1 96.7002 105.9 94.2002 118.5 91.6002L123.1 90.7002C138.6 87.7002 144.2 85.4002 146.6 77.5002C148.5 71.0002 145.3 65.9002 139.4 63.3002C136.2 61.9002 133.1 61.2002 126.2 60.2002L124.4 59.9002C116.4 58.6002 113 57.3002 112.9 56.9002C112.8 56.5002 114.7 54.6002 121 51.0002L125.4 48.5002C126.9 47.7002 128.3 46.7002 129.7 45.8002C134.3 42.4002 136.9 38.7002 135.5 33.5002C133.6 26.2002 126.5 24.0002 114.6 23.1002C109.9 22.8002 105.3 22.7002 100.6 22.8002L98.5998 22.9002C94.8998 23.1002 92.0998 26.3002 92.2998 29.9002C92.4998 33.6002 95.6998 36.4002 99.2998 36.2002L101 36.1002ZM385 36.1002C389.2 35.9002 393.3 36.0002 397.5 36.3002C403 36.7002 406.9 37.9002 406.6 36.8002C406.1 35.0002 406.5 34.6002 405.8 35.0002C404.5 36.0002 406.5 34.8002 398.4 39.4002C386.6 46.1002 381.5 51.2002 384.1 60.4002C386.4 68.5002 392.3 70.7002 406.4 72.9002L408.3 73.2002C413.9 74.1002 416.4 74.6002 418.1 75.4002C418.5 75.6002 417.8 74.4002 418 73.7002C417.8 74.3002 414.1 75.8002 404.7 77.6002L400 78.5002C381.9 82.2002 372.9 87.0002 371.5 99.5002C370 113.2 384.2 122.8 402.1 125.1C420.3 127.5 436.2 121.5 437.8 106.7C438.8 97.3002 432.3 91.7002 421.9 89.6002C414.9 88.2002 405.6 88.2002 394.5 89.3002C382.1 90.6002 369.8 92.7002 357.6 95.6002C354 96.3002 351.7 99.8002 352.4 103.4C353.1 107 356.6 109.3 360.2 108.6C360.4 108.6 360.5 108.5 360.7 108.5C372.3 105.8 384 103.8 395.8 102.6C405.7 101.6 413.8 101.6 419.2 102.7C423.6 103.6 424.5 104.4 424.4 105.3C423.9 110.4 415.5 113.5 403.7 112C392.1 110.5 384.2 105.2 384.6 101C385.1 96.7002 389.9 94.2002 402.5 91.6002L407.1 90.7002C422.6 87.7002 428.2 85.4002 430.6 77.5002C432.5 71.0002 429.3 65.9002 423.4 63.3002C420.2 61.9002 417.1 61.2002 410.2 60.2002L408.4 59.9002C400.4 58.6002 397 57.3002 396.9 56.9002C396.8 56.5002 398.7 54.6002 405 51.0002L409.4 48.5002C410.9 47.7002 412.3 46.7002 413.7 45.8002C418.3 42.4002 420.9 38.7002 419.5 33.5002C417.6 26.2002 410.5 24.0002 398.6 23.1002C393.9 22.8002 389.3 22.7002 384.6 22.8002L382.6 22.9002C378.9 23.1002 376.1 26.3002 376.3 29.9002C376.5 33.6002 379.7 36.4002 383.3 36.2002L385 36.1002ZM379.6 235.1C383.8 234.9 387.9 235 392.1 235.3C397.6 235.7 401.5 236.9 401.2 235.8C400.7 234 401.1 233.6 400.4 234C399.1 235 401.1 233.8 393 238.4C381.2 245.1 376.1 250.2 378.7 259.4C381 267.5 386.9 269.7 401 271.9L402.9 272.2C408.5 273.1 411 273.6 412.7 274.4C413.1 274.6 412.4 273.4 412.6 272.7C412.4 273.3 408.7 274.8 399.3 276.6L394.6 277.5C376.5 281.2 367.5 286 366.1 298.5C364.6 312.2 378.8 321.8 396.7 324.1C414.9 326.5 430.8 320.5 432.4 305.7C433.4 296.3 426.9 290.7 416.5 288.6C409.5 287.2 400.2 287.2 389.1 288.3C376.7 289.6 364.4 291.7 352.2 294.6C348.6 295.3 346.3 298.8 347 302.4C347.7 306 351.2 308.3 354.8 307.6C355 307.6 355.1 307.5 355.3 307.5C366.9 304.8 378.6 302.8 390.4 301.6C400.3 300.6 408.4 300.6 413.8 301.7C418.2 302.6 419.1 303.4 419 304.3C418.5 309.4 410.1 312.5 398.3 311C386.7 309.5 378.8 304.2 379.2 300C379.7 295.7 384.5 293.2 397.1 290.6L401.7 289.7C417.2 286.7 422.8 284.4 425.2 276.5C427.1 270 423.9 264.9 418 262.3C414.8 260.9 411.7 260.2 404.8 259.2L403 258.9C395 257.6 391.6 256.3 391.5 255.9C391.4 255.5 393.3 253.6 399.6 250L404 247.5C405.5 246.7 406.9 245.7 408.3 244.8C412.9 241.4 415.5 237.7 414.1 232.5C412.2 225.2 405.1 223 393.2 222.1C388.5 221.8 383.9 221.7 379.2 221.8L377.2 221.9C373.5 222.1 370.7 225.3 370.9 228.9C371.1 232.5 374.3 235.4 377.9 235.2L379.6 235.1ZM101 235.1C105.2 234.9 109.3 235 113.5 235.3C119 235.7 122.9 236.9 122.6 235.8C122.1 234 122.5 233.6 121.8 234C120.5 235 122.5 233.8 114.4 238.4C102.6 245.1 97.4998 250.2 100.1 259.4C102.4 267.5 108.3 269.7 122.4 271.9L124.3 272.2C129.9 273.1 132.4 273.6 134.1 274.4C134.5 274.6 133.8 273.4 134 272.7C133.8 273.3 130.1 274.8 120.7 276.6L116 277.5C97.8998 281.2 88.8998 286 87.4998 298.5C85.9998 312.2 100.2 321.8 118.1 324.1C136.3 326.5 152.2 320.5 153.8 305.7C154.8 296.3 148.3 290.7 137.9 288.6C130.9 287.2 121.6 287.2 110.5 288.3C98.0998 289.6 85.7998 291.7 73.5998 294.6C69.9998 295.3 67.6998 298.8 68.3998 302.4C69.0998 306 72.5998 308.3 76.1998 307.6C76.3998 307.6 76.4998 307.5 76.6998 307.5C88.2998 304.8 99.9998 302.8 111.8 301.6C121.7 300.6 129.8 300.6 135.2 301.7C139.6 302.6 140.5 303.4 140.4 304.3C139.9 309.4 131.5 312.5 119.7 311C108.1 309.5 100.2 304.2 100.6 300C101.1 295.7 105.9 293.2 118.5 290.6L123.1 289.7C138.6 286.7 144.2 284.4 146.6 276.5C148.5 270 145.3 264.9 139.4 262.3C136.2 260.9 133.1 260.2 126.2 259.2L124.4 258.9C116.4 257.6 113 256.3 112.9 255.9C112.8 255.5 114.7 253.6 121 250L125.4 247.5C126.9 246.7 128.3 245.7 129.7 244.8C134.3 241.4 136.9 237.7 135.5 232.5C133.6 225.2 126.5 223 114.6 222.1C109.9 221.8 105.3 221.7 100.6 221.8L98.5998 221.9C94.8998 222.1 92.0998 225.3 92.2998 228.9C92.4998 232.6 95.6998 235.4 99.2998 235.2L101 235.1Z" fill="white"/>
</g>
<defs>
<clipPath id="clip0_301_705">
<rect width="513" height="342" fill="white"/>
</clipPath>
</defs>
</svg>
