<svg width="513" height="342" viewBox="0 0 513 342" fill="none" xmlns="http://www.w3.org/2000/svg">
<g clip-path="url(#clip0_301_700)">
<path d="M0 -0.00195312H513V342.002H0V-0.00195312Z" fill="#496E2D"/>
<path d="M256.5 213.935C210.454 213.935 171.987 181.574 162.55 138.359C161.066 145.129 160.316 152.04 160.312 158.971C160.312 212.095 203.375 255.158 256.5 255.158C309.625 255.158 352.688 212.095 352.688 158.971C352.688 151.891 351.901 145.002 350.45 138.359C341.013 181.574 302.546 213.935 256.5 213.935Z" fill="#FFDA44"/>
<path d="M256.499 86.8302L265.452 114.386H294.426L270.986 131.415L279.94 158.972L256.499 141.941L233.059 158.972L242.014 131.415L218.574 114.386H247.546L256.499 86.8302Z" fill="#FFDA44"/>
</g>
<defs>
<clipPath id="clip0_301_700">
<rect width="513" height="342" fill="white"/>
</clipPath>
</defs>
</svg>
