<svg width="513" height="342" viewBox="0 0 513 342" fill="none" xmlns="http://www.w3.org/2000/svg">
<g clip-path="url(#clip0_301_686)">
<path d="M0 0H513V342H0V0Z" fill="#1B4991"/>
<path d="M318.2 106.7V213.2C318.2 265.1 386 281 386 281C386 281 453.8 265.1 453.8 213.2V106.7H318.2Z" fill="#00A2B8"/>
<path fill-rule="evenodd" clip-rule="evenodd" d="M316.7 105.2H455.3V213.2C455.3 239.91 437.829 257.259 420.688 267.839C412.101 273.14 403.526 276.79 397.105 279.115C393.892 280.279 391.211 281.113 389.33 281.657C388.389 281.929 387.648 282.128 387.139 282.261C386.885 282.327 386.688 282.376 386.554 282.409C386.487 282.426 386.436 282.438 386.4 282.447L386.359 282.457L386.344 282.46C386.343 282.46 386.343 282.461 386 281C385.658 282.461 385.657 282.46 385.656 282.46L385.641 282.457L385.6 282.447C385.565 282.438 385.513 282.426 385.446 282.409C385.312 282.376 385.116 282.327 384.861 282.261C384.352 282.128 383.611 281.929 382.67 281.657C380.789 281.113 378.109 280.279 374.896 279.115C368.475 276.79 359.9 273.14 351.312 267.839C334.172 257.259 316.7 239.91 316.7 213.2V105.2ZM386 281L385.658 282.461L386 282.541L386.343 282.461L386 281ZM386 279.456C386.105 279.429 386.233 279.396 386.384 279.357C386.868 279.231 387.584 279.039 388.497 278.775C390.323 278.246 392.94 277.433 396.083 276.294C402.375 274.016 410.75 270.448 419.112 265.286C435.872 254.941 452.3 238.39 452.3 213.2V108.2H319.7V213.2C319.7 238.39 336.129 254.941 352.888 265.286C361.251 270.448 369.626 274.016 375.917 276.294C379.06 277.433 381.677 278.246 383.504 278.775C384.417 279.039 385.132 279.231 385.616 279.357C385.767 279.396 385.895 279.429 386 279.456Z" fill="white"/>
<path d="M319.7 212.7C319.7 263.5 386 279 386 279C386 279 452.3 263.4 452.3 212.7H319.7Z" fill="#A35023"/>
<path d="M415.1 155.1H395.7V135.7H376.3V155.1H357V174.5H376.3V232.6H395.7V174.5H415.1V155.1Z" fill="black"/>
<path d="M256 0V30.6L210.8 55.7H256V115H196.9L256 147.8V170.7H229.3L155.8 129.8V170.7H100.2V122.1L12.7 170.7H0V140.1L45.2 115H0V55.7H59.1L0 22.8V0H26.7L100.2 40.8V0H155.8V48.6L243.3 0H256Z" fill="white"/>
<path d="M144 0H112V69.3H0V101.3H112V170.7H144V101.3H256V69.3H144V0Z" fill="#D80027"/>
<path d="M155.8 115L256 170.7V154.9L184.2 115H155.8Z" fill="#0052B4"/>
<path d="M155.8 115L256 170.7V154.9L184.2 115H155.8Z" fill="white"/>
<path d="M155.8 115L256 170.7V154.9L184.2 115H155.8ZM71.8 115L0 154.9V170.7L100.2 115H71.8Z" fill="#D80027"/>
<path d="M100.2 55.6L0 0V15.7L71.8 55.6H100.2Z" fill="#0052B4"/>
<path d="M100.2 55.6L0 0V15.7L71.8 55.6H100.2Z" fill="white"/>
<path d="M100.2 55.6L0 0V15.7L71.8 55.6H100.2ZM184.2 55.6L256 15.7V0L155.8 55.6H184.2Z" fill="#D80027"/>
</g>
<defs>
<clipPath id="clip0_301_686">
<rect width="513" height="342" fill="white"/>
</clipPath>
</defs>
</svg>
