<svg width="513" height="342" viewBox="0 0 513 342" fill="none" xmlns="http://www.w3.org/2000/svg">
<g clip-path="url(#clip0_301_672)">
<path d="M0 -0.00195312H513V341.998H0V-0.00195312Z" fill="#D01920"/>
<path d="M144.979 89.2158H368.022V252.785H144.979V89.2158Z" fill="#017C3B"/>
<path d="M284.038 219.32C257.349 219.32 235.712 197.684 235.712 170.994C235.712 144.304 257.348 122.668 284.038 122.668C292.36 122.668 300.189 124.772 307.026 128.476C296.302 117.989 281.635 111.516 265.451 111.516C232.603 111.516 205.973 138.145 205.973 170.994C205.973 203.843 232.603 230.472 265.451 230.472C281.636 230.472 296.302 223.999 307.026 213.512C300.19 217.217 292.361 219.32 284.038 219.32Z" fill="white"/>
</g>
<defs>
<clipPath id="clip0_301_672">
<rect width="513" height="342" fill="white"/>
</clipPath>
</defs>
</svg>
