<svg width="513" height="342" viewBox="0 0 513 342" fill="none" xmlns="http://www.w3.org/2000/svg">
<g clip-path="url(#clip0_301_661)">
<path d="M342 0H0V341.3H513V0H342Z" fill="#DC2339"/>
<path d="M0 0H171V342H0V0Z" fill="#11865D"/>
<path d="M171 0H342V342H171V0Z" fill="white"/>
<path d="M195.8 171.2C195.8 192.8 207.3 212.9 226.1 223.7C231.9 227.1 239.3 225.1 242.7 219.3C246.1 213.5 244.1 206.1 238.3 202.7C227 196.2 220.1 184.2 220.1 171.2C220.1 164.5 214.7 159.1 208 159.1C201.3 159.1 195.8 164.5 195.8 171.2ZM289.2 222.3C306.7 211.2 317.2 191.9 317.2 171.2C317.2 164.5 311.8 159.1 305.1 159.1C298.4 159.1 293 164.5 293 171.2C293 183.6 286.7 195.2 276.2 201.9C270.5 205.4 268.7 212.8 272.1 218.6C275.5 224.4 283 226.1 288.8 222.7C288.8 222.5 289 222.4 289.2 222.3Z" fill="#8C9157"/>
<path d="M256.5 195.5C269.921 195.5 280.8 179.203 280.8 159.1C280.8 138.997 269.921 122.7 256.5 122.7C243.08 122.7 232.2 138.997 232.2 159.1C232.2 179.203 243.08 195.5 256.5 195.5Z" fill="#C59262"/>
</g>
<defs>
<clipPath id="clip0_301_661">
<rect width="513" height="342" fill="white"/>
</clipPath>
</defs>
</svg>
