<svg width="513" height="342" viewBox="0 0 513 342" fill="none" xmlns="http://www.w3.org/2000/svg">
<g clip-path="url(#clip0_301_655)">
<path d="M0 0H513V342H0V0Z" fill="white"/>
<path d="M0 0H513V24.4H0V0ZM0 48.9H513V73.3H0V48.9ZM0 97.7H513V122.1H0V97.7ZM0 146.6H513V171H0V146.6ZM0 195.4H513V219.8H0V195.4ZM0 244.3H513V268.7H0V244.3ZM0 293.1H513V317.5H0V293.1Z" fill="#CC0000"/>
<path d="M0 0H256.5V195.4H0V0Z" fill="#000066"/>
<path d="M153.3 42.1C122.6 30.7 88.4999 46.3 77.0999 77C65.6999 107.7 81.2999 141.8 112 153.2C125.3 158.2 140 158.2 153.4 153.2C122.7 177.7 77.9999 172.8 53.3999 142.1C28.7999 111.4 33.7999 66.7 64.4999 42.1C90.4999 21.4 127.4 21.4 153.3 42.1ZM180 117.1L159.4 140.4L164.8 109.8L133.8 108.2L161.1 93.3L143 68L171.6 80L180 50.1L188.4 80L217 68L199 93.4L226.3 108.3L195.3 109.9L200.7 140.5L180 117.1Z" fill="#FFCC00"/>
</g>
<defs>
<clipPath id="clip0_301_655">
<rect width="513" height="342" fill="white"/>
</clipPath>
</defs>
</svg>
