<svg width="512" height="342" viewBox="0 0 512 342" fill="none" xmlns="http://www.w3.org/2000/svg">
<g clip-path="url(#clip0_301_642)">
<path d="M0 0.00390625H512V341.33H0V0.00390625Z" fill="#496E2D"/>
<path d="M0 341.33V0.00390625H512" fill="#0052B4"/>
<path d="M512 66.8889V0.00390625H411.67L0 274.445V341.33H100.33L512 66.8889Z" fill="white"/>
<path d="M512 0.00390625V40.1289L60.193 341.33H0V301.205L451.807 0.00390625H512Z" fill="#A2001D"/>
<path d="M187.737 103.879L164.996 114.575L177.106 136.599L152.413 131.875L149.284 156.82L132.085 138.473L114.885 156.82L111.756 131.875L87.0631 136.598L99.1721 114.575L76.4331 103.879L99.1731 93.182L87.0631 71.16L111.756 75.882L114.886 50.938L132.085 69.285L149.285 50.938L152.413 75.882L177.106 71.16L164.998 93.184L187.737 103.879Z" fill="#FFDA44"/>
</g>
<defs>
<clipPath id="clip0_301_642">
<rect width="512" height="341.333" fill="white"/>
</clipPath>
</defs>
</svg>
