<svg width="513" height="343" viewBox="0 0 513 343" fill="none" xmlns="http://www.w3.org/2000/svg">
<g clip-path="url(#clip0_301_630)">
<path d="M0 234.858H513V342.027H0V234.858Z" fill="#009543"/>
<path d="M0 105.806H513V235.098H0V105.806Z" fill="#ED4135"/>
<path d="M0 0H513V106.848H0V0Z" fill="#0035AD"/>
<path d="M192.375 297.059C262.01 297.059 318.461 240.609 318.461 170.973C318.461 101.338 262.01 44.8877 192.375 44.8877C122.74 44.8877 66.2891 101.338 66.2891 170.973C66.2891 240.609 122.74 297.059 192.375 297.059Z" fill="#FAE600"/>
<path fill-rule="evenodd" clip-rule="evenodd" d="M192.375 47.5373C124.203 47.5373 68.9392 102.801 68.9392 170.973C68.9392 239.145 124.203 294.409 192.375 294.409C260.547 294.409 315.811 239.145 315.811 170.973C315.811 102.801 260.547 47.5373 192.375 47.5373ZM63.6392 170.973C63.6392 99.8743 121.276 42.2373 192.375 42.2373C263.474 42.2373 321.111 99.8743 321.111 170.973C321.111 242.072 263.474 299.709 192.375 299.709C121.276 299.709 63.6392 242.072 63.6392 170.973Z" fill="black"/>
<path d="M246.801 284.154L221.311 293.773L192.375 297.139L162.076 295.216L133.3 282.791C133.3 282.791 156.224 259.306 165.923 255.939C172.817 253.534 183.878 252.973 183.878 252.973V97.7908L183.638 44.8877H197.184L196.784 98.9932V252.653C196.784 252.653 209.047 253.615 214.498 255.939C223.556 259.867 246.801 284.154 246.801 284.154Z" fill="black"/>
<path d="M170.514 82.06L204.945 64.8921L209.416 73.8592L174.984 91.0262L170.514 82.06Z" fill="black"/>
<path d="M190.612 246.079C198.049 246.079 204.078 236.569 204.078 224.838C204.078 213.107 198.049 203.597 190.612 203.597C183.175 203.597 177.146 213.107 177.146 224.838C177.146 236.569 183.175 246.079 190.612 246.079Z" fill="black"/>
<path d="M190.291 131.697C199.543 131.697 207.043 124.196 207.043 114.944C207.043 105.692 199.543 98.1914 190.291 98.1914C181.038 98.1914 173.538 105.692 173.538 114.944C173.538 124.196 181.038 131.697 190.291 131.697Z" fill="black"/>
<path d="M191.093 178.909C199.902 178.909 207.044 174.566 207.044 169.21C207.044 163.853 199.902 159.511 191.093 159.511C182.283 159.511 175.142 163.853 175.142 169.21C175.142 174.566 182.283 178.909 191.093 178.909Z" fill="black"/>
<path d="M171.374 141.876H209.047V149.892H171.374V141.876ZM171.374 187.566H209.047V195.581H171.374V187.566Z" fill="black"/>
</g>
<defs>
<clipPath id="clip0_301_630">
<rect width="513" height="342.027" fill="white"/>
</clipPath>
</defs>
</svg>
