<svg width="513" height="342" viewBox="0 0 513 342" fill="none" xmlns="http://www.w3.org/2000/svg">
<g clip-path="url(#clip0_301_609)">
<path d="M0 0.00390625H513V341.997H0V0.00390625Z" fill="white"/>
<path d="M0 0.00390625H513V114.001H0V0.00390625ZM0 227.999H513V341.997H0V227.999Z" fill="#338AF3"/>
<path d="M256.5 129.366C233.506 129.366 214.866 148.006 214.866 171C214.866 193.995 233.505 212.635 256.5 212.635C279.494 212.635 298.134 193.995 298.134 171C298.134 148.006 279.494 129.366 256.5 129.366ZM256.5 194.792C243.36 194.792 232.708 184.14 232.708 171C232.708 157.861 243.36 147.209 256.5 147.209C269.639 147.209 280.291 157.861 280.291 171C280.291 184.14 269.639 194.792 256.5 194.792Z" fill="#FFDA44"/>
<path d="M277.103 176.948L256.5 171L235.897 176.948L229.028 188.844H283.971L277.103 176.948Z" fill="#0052B4"/>
<path d="M256.5 141.263L242.764 165.053L256.5 171.001L270.236 165.053L256.5 141.263Z" fill="#338AF3"/>
<path d="M235.897 176.948H277.103L270.236 165.053H242.764L235.897 176.948Z" fill="#6DA544"/>
</g>
<defs>
<clipPath id="clip0_301_609">
<rect width="513" height="342" fill="white"/>
</clipPath>
</defs>
</svg>
