<svg width="513" height="342" viewBox="0 0 513 342" fill="none" xmlns="http://www.w3.org/2000/svg">
<g clip-path="url(#clip0_301_594)">
<path d="M0 0.00390625H513V341.997H0V0.00390625Z" fill="white"/>
<path d="M0 341.997V0.00390625L280.967 175.095H87.7811L271.716 341.997H0Z" fill="#0052B4"/>
<path d="M245.247 164.877L10.2188 18.4131V331.778H245.247L61.3123 164.877H245.247Z" fill="#D80027"/>
<path d="M98.1946 239.567L83.5771 232.69L91.3623 218.533L75.4873 221.569L73.4754 205.532L62.4189 217.327L51.3613 205.532L49.3494 221.569L33.4754 218.532L41.2606 232.69L26.6411 239.567L41.2606 246.442L33.4754 260.6L49.3504 257.565L51.3613 273.6L62.4189 261.805L73.4754 273.6L75.4873 257.565L91.3613 260.601L83.5771 246.443L98.1946 239.567ZM88.4406 106.536L77.8078 101.536L83.4699 91.2376L71.9244 93.4469L70.4605 81.7832L62.4189 90.3609L54.3772 81.7832L52.9143 93.4469L41.3668 91.2376L47.0299 101.536L36.3961 106.536L62.4189 111.741L88.4406 106.536Z" fill="white"/>
<path d="M93.6446 106.537C93.6446 123.782 79.6644 137.762 62.4187 137.762C45.1731 137.762 31.1929 123.782 31.1929 106.537" fill="white"/>
</g>
<defs>
<clipPath id="clip0_301_594">
<rect width="513" height="342" fill="white"/>
</clipPath>
</defs>
</svg>
