<svg width="513" height="342" viewBox="0 0 513 342" fill="none" xmlns="http://www.w3.org/2000/svg">
<g clip-path="url(#clip0_301_550)">
<path d="M0 0.000976562H513V342.005H0V0.000976562Z" fill="#0052B4"/>
<path d="M426.132 148.702L429.526 159.15H440.511L431.623 165.607L435.018 176.054L426.132 169.598L417.243 176.054L420.638 165.607L411.751 159.15H422.735L426.132 148.702ZM386.861 223.92L391.954 239.593H408.431L395.1 249.279L400.192 264.949L386.861 255.264L373.53 264.949L378.623 249.279L365.292 239.593H381.769L386.861 223.92ZM388.345 100.834L392.589 113.896H406.32L395.21 121.966L399.454 135.025L388.345 126.953L377.235 135.025L381.479 121.966L370.37 113.896H384.101L388.345 100.834ZM350.559 148.247L355.651 163.918H372.129L358.797 173.603L363.891 189.275L350.559 179.59L337.228 189.275L342.32 173.603L328.989 163.918H345.466L350.559 148.247Z" fill="#D80027"/>
<path d="M256.503 -0.00390625V30.6198L211.237 55.7568H256.503V115.232H197.274L256.503 148.142V170.992H229.761L156.133 130.087V170.992H100.373V122.325L12.7728 170.992H0.00292969V140.38L45.2592 115.232H0.00292969V55.7568H59.2214L0.00292969 22.8587V-0.00390625H26.735L100.373 40.9138V-0.00390625H156.133V48.6639L243.734 -0.00390625H256.503Z" fill="white"/>
<path d="M144.281 -0.00292969H112.219V69.4665H0V101.529H112.219V170.998H144.281V101.529H256.5V69.4665H144.281V-0.00292969Z" fill="#D80027"/>
<path d="M156.13 115.236L256.5 170.999V155.229L184.513 115.236H156.13Z" fill="#0052B4"/>
<path d="M156.13 115.236L256.5 170.999V155.229L184.513 115.236H156.13Z" fill="white"/>
<path d="M156.13 115.236L256.5 170.999V155.229L184.513 115.236H156.13ZM71.9863 115.236L0 155.229V170.999L100.37 115.236H71.9863Z" fill="#D80027"/>
<path d="M100.37 55.7588L0 -0.00292969V15.7658L71.9873 55.7588H100.37Z" fill="#0052B4"/>
<path d="M100.37 55.7588L0 -0.00292969V15.7658L71.9873 55.7588H100.37Z" fill="white"/>
<path d="M100.37 55.7588L0 -0.00292969V15.7658L71.9873 55.7588H100.37ZM184.514 55.7588L256.5 15.7658V-0.00292969L156.13 55.7588H184.514Z" fill="#D80027"/>
</g>
<defs>
<clipPath id="clip0_301_550">
<rect width="513" height="342" fill="white"/>
</clipPath>
</defs>
</svg>
