<svg width="513" height="342" viewBox="0 0 513 342" fill="none" xmlns="http://www.w3.org/2000/svg">
<g clip-path="url(#clip0_301_543)">
<path d="M0 0H513V342H0V0Z" fill="#D80027"/>
<path d="M138 0H515V114H138V0Z" fill="white"/>
<path d="M138 230H515V344H138V230Z" fill="#4A7C3A"/>
<path fill-rule="evenodd" clip-rule="evenodd" d="M36.3447 38.2589C36.3443 38.2583 36.344 38.2579 40.3 35.2002C44.2561 32.1425 44.2561 32.1424 44.2562 32.1426L44.3574 32.2732C44.4261 32.3617 44.5291 32.4944 44.6646 32.6683C44.9356 33.0163 45.3365 33.5295 45.8525 34.1863C46.8847 35.4999 48.3767 37.3868 50.2108 39.6726C53.8812 44.247 58.9105 50.4055 64.358 56.7578C69.8152 63.1214 75.6444 69.6237 80.9214 74.9099C86.3858 80.3838 90.7097 83.9807 93.2433 85.1828C99.9034 88.3427 103.837 89.6197 105.95 90.1247C106.998 90.3752 107.54 90.4217 107.704 90.4298C107.738 90.4315 107.752 90.4314 107.749 90.4314C107.744 90.4314 107.708 90.4316 107.645 90.4365C107.589 90.4408 107.51 90.4488 107.411 90.4638C107.361 90.4713 107.307 90.4805 107.247 90.4919C107.217 90.4976 107.187 90.5039 107.154 90.5107L107.106 90.5214L107.08 90.5271L107.068 90.5301C107.061 90.5316 107.055 90.5331 108.2 95.4002C109.345 100.267 109.339 100.269 109.332 100.27L109.319 100.273L109.293 100.279L109.241 100.291C109.205 100.298 109.169 100.306 109.133 100.313C109.059 100.327 108.984 100.34 108.906 100.351C108.751 100.375 108.585 100.394 108.409 100.407C108.058 100.434 107.66 100.44 107.206 100.417C106.303 100.372 105.139 100.213 103.625 99.8507C100.613 99.1307 95.9966 97.5576 88.9568 94.2175C84.6404 92.1696 79.1892 87.3291 73.8443 81.9748C68.3119 76.4329 62.2973 69.7164 56.767 63.2675C51.227 56.8074 46.1252 50.5596 42.4112 45.9309C40.553 43.6151 39.0396 41.7012 37.9893 40.3645C37.4641 39.696 37.0546 39.1717 36.7754 38.8133C36.6359 38.6341 36.5289 38.4964 36.4564 38.403L36.3447 38.2589Z" fill="white"/>
<path fill-rule="evenodd" clip-rule="evenodd" d="M34.6001 95.4002L35.038 100.381L31.2139 91.7215L54.4854 70.3002H51.7001V60.3002H65.3492L65.7001 59.9773V35.2002H75.7001V50.7724L96.6139 31.5215L103.872 38.3641L100 35.2002C103.872 38.3641 103.872 38.3637 103.872 38.3641L103.447 38.8822C103.171 39.2188 102.766 39.7124 102.247 40.3425C101.21 41.6027 99.7183 43.4096 97.8986 45.5991C94.6033 49.5643 90.2281 54.7899 85.5249 60.3002H89.6001V70.3002H76.881C73.9318 73.6621 71.0222 76.9191 68.3243 79.8475C63.5692 85.0088 59.1164 89.5473 56.246 91.6403C50.9134 95.5286 45.7154 97.6992 41.8278 98.9019C39.881 99.5042 38.25 99.8677 37.0759 100.083C36.4883 100.191 36.0133 100.263 35.6683 100.309C35.4958 100.332 35.3556 100.348 35.2499 100.36C35.197 100.366 35.1527 100.37 35.1173 100.374L35.0709 100.378L35.0528 100.38L35.0414 100.381C35.0397 100.381 35.038 100.381 34.6001 95.4002Z" fill="white"/>
</g>
<defs>
<clipPath id="clip0_301_543">
<rect width="513" height="342" fill="white"/>
</clipPath>
</defs>
</svg>
