<svg width="513" height="342" viewBox="0 0 513 342" fill="none" xmlns="http://www.w3.org/2000/svg">
<g clip-path="url(#clip0_301_525)">
<path d="M0 0.00390625H513V341.997H0V0.00390625Z" fill="white"/>
<path d="M0 0.00390625H513V114.001H0V0.00390625ZM0 227.999H513V341.997H0V227.999Z" fill="#D80027"/>
<path d="M294.565 171.001C294.565 192.024 277.522 204.309 256.499 204.309C235.476 204.309 218.434 192.024 218.434 171.001C218.434 149.978 235.477 132.935 256.5 132.935C277.523 132.935 294.565 149.978 294.565 171.001Z" fill="#FFDA44"/>
<path d="M294.565 171C294.565 192.023 277.522 209.066 256.499 209.066C235.476 209.066 218.433 192.023 218.433 171" fill="#0052B4"/>
<path d="M232.712 161.488H242.229V180.525H232.712V161.488ZM270.775 161.488H280.291V180.525H270.775V161.488ZM251.737 147.213H261.254V180.521H251.737V147.213Z" fill="#D80027"/>
</g>
<defs>
<clipPath id="clip0_301_525">
<rect width="513" height="342" fill="white"/>
</clipPath>
</defs>
</svg>
