<svg width="513" height="342" viewBox="0 0 513 342" fill="none" xmlns="http://www.w3.org/2000/svg">
<g clip-path="url(#clip0_301_519)">
<path d="M0 0H513V342.004H0V0Z" fill="black"/>
<path d="M0 -0.00292969H513V341.996" fill="#A2001D"/>
<path d="M205.031 241.626L207.798 250.147H216.757L209.51 255.412L212.278 263.931L205.031 258.666L197.784 263.931L200.551 255.412L193.304 250.147H202.261L205.031 241.626ZM182.152 159.845L186.766 174.044H201.696L189.617 182.819L194.231 197.018L182.152 188.242L170.074 197.018L174.689 182.819L162.609 174.044H177.539L182.152 159.845ZM182.152 263.931L186.765 278.131H201.696L189.616 286.905L194.231 301.106L182.152 292.33L170.074 301.106L174.687 286.905L162.609 278.131H177.537L182.152 263.931ZM225.803 197.018L230.418 211.218H245.348L233.269 219.993L237.883 234.193L225.803 225.417L213.726 234.193L218.341 219.993L206.261 211.218H221.191L225.803 197.018ZM138.5 197.018L143.115 211.218H158.043L145.966 219.993L150.578 234.193L138.5 225.417L126.422 234.193L131.036 219.993L118.957 211.218H133.886L138.5 197.018Z" fill="white"/>
<path d="M377.261 119.062C369.619 111.419 359.689 106.905 349.017 106.129L380.96 81.2851C368.237 68.5623 351.188 62.8181 334.55 64.0335C332.497 56.6399 328.563 49.9045 323.132 44.4844L310.514 69.7196C309.668 68.1749 308.606 66.7589 307.36 65.5144C300.101 58.2552 288.332 58.2562 281.075 65.5144C273.818 72.7725 273.816 84.5415 281.075 91.7996C282.32 93.045 283.736 94.1071 285.28 94.9538L260.045 107.571C265.467 113.005 272.205 116.941 279.602 118.993C278.383 135.631 284.122 152.677 296.845 165.4L324.753 129.519C326.834 127.457 329.646 126.304 332.575 126.311C335.554 126.311 338.355 127.471 340.461 129.577C341.5 130.61 342.323 131.839 342.884 133.193C343.445 134.546 343.731 135.998 343.727 137.463C343.727 140.442 342.567 143.242 340.461 145.348L350.975 155.862C355.89 150.948 358.597 144.412 358.597 137.463C358.597 131.777 356.783 126.37 353.434 121.898C358.471 123.238 363.065 125.887 366.748 129.575C378.344 141.17 378.344 160.038 366.748 171.632L377.262 182.147C385.688 173.721 390.327 162.518 390.327 150.604C390.326 138.689 385.686 127.487 377.261 119.062Z" fill="#FFDA44"/>
</g>
<defs>
<clipPath id="clip0_301_519">
<rect width="513" height="342" fill="white"/>
</clipPath>
</defs>
</svg>
