<svg width="513" height="342" viewBox="0 0 513 342" fill="none" xmlns="http://www.w3.org/2000/svg">
<g clip-path="url(#clip0_301_513)">
<path d="M0 0.00390625H513V341.997H0V0.00390625Z" fill="white"/>
<path d="M513 0.00390625V171H256.5L0 0.00390625H513Z" fill="#0052B4"/>
<path d="M513 171V341.997H0L256.5 171H513Z" fill="#D80027"/>
<path d="M162.224 171L134.883 158.14L149.443 131.661L119.753 137.34L115.991 107.348L95.3107 129.406L74.6314 107.348L70.869 137.34L41.1802 131.66L55.7395 158.139L28.3982 171L55.7395 183.861L41.1802 210.34L70.871 204.661L74.6314 234.653L95.3107 212.595L115.991 234.653L119.753 204.661L149.442 210.341L134.882 183.863L162.224 171ZM21.8314 32.3372L30.9302 45.0579L45.8382 40.3347L36.5521 52.9193L45.6509 65.6381L30.8129 60.6964L21.5268 73.28L21.6441 57.6415L6.80615 52.6978L21.7152 47.9766L21.8314 32.3372ZM21.8314 268.721L30.9302 281.442L45.8382 276.719L36.5521 289.303L45.6509 302.023L30.8129 297.08L21.5268 309.663L21.6441 294.025L6.80615 289.082L21.7152 284.36L21.8314 268.721ZM210.806 150.53L201.707 163.249L186.799 158.527L196.085 171.111L186.986 183.831L201.824 178.889L211.11 191.471L210.993 175.834L225.831 170.89L210.922 166.168L210.806 150.53Z" fill="#FFDA44"/>
</g>
<defs>
<clipPath id="clip0_301_513">
<rect width="513" height="342" fill="white"/>
</clipPath>
</defs>
</svg>
