<svg width="513" height="342" viewBox="0 0 513 342" fill="none" xmlns="http://www.w3.org/2000/svg">
<g clip-path="url(#clip0_301_506)">
<path d="M394.276 85.3494L411.823 104.261L435.231 93.4191L422.666 115.95L440.213 134.863L414.901 129.875L402.337 152.407L399.258 126.793L373.946 121.805L397.354 110.964L394.276 85.3494Z" fill="white"/>
<path d="M0 0.0100098H513V342.003H0V0.0100098Z" fill="white"/>
<path d="M128.25 -0.00195312H513V342.002H128.25V-0.00195312Z" fill="#01411C"/>
<path d="M362.616 213.877C331.518 236.347 288.092 229.353 265.623 198.254C243.152 167.156 250.147 123.73 281.246 101.261C290.942 94.2557 301.836 90.1146 312.921 88.6738C291.596 85.4846 269.058 90.29 250.201 103.915C211.926 131.57 203.317 185.017 230.972 223.292C258.627 261.566 312.074 270.176 350.35 242.519C369.207 228.894 380.845 209.005 384.512 187.757C379.664 197.827 372.313 206.87 362.616 213.877ZM361.284 87.727L378.802 106.606L402.17 95.7827L389.626 118.274L407.144 137.154L381.875 132.177L369.332 154.67L366.259 129.1L340.99 124.121L364.358 113.298L361.284 87.727Z" fill="white"/>
</g>
<defs>
<clipPath id="clip0_301_506">
<rect width="513" height="342" fill="white"/>
</clipPath>
</defs>
</svg>
