<svg width="513" height="342" viewBox="0 0 513 342" fill="none" xmlns="http://www.w3.org/2000/svg">
<g clip-path="url(#clip0_301_480)">
<path d="M0 0H513V342.004H0V0Z" fill="#0052B4"/>
<path d="M401.478 134.752L384.75 140.328L368.021 134.752L362.445 120.812L368.021 106.871H401.478L395.902 120.812L401.478 134.752Z" fill="#ACABB1"/>
<path d="M345.717 134.752V196.088C345.717 225.967 384.75 235.121 384.75 235.121C384.75 235.121 423.783 225.966 423.783 196.088V134.752H345.717Z" fill="#338AF3"/>
<path d="M349.236 210.618C358.831 229.04 384.75 235.121 384.75 235.121C384.75 235.121 410.67 229.04 420.264 210.618L384.75 151.48L349.236 210.618Z" fill="#6DA544"/>
<path d="M423.783 195.469L384.75 134.752L345.717 195.469V196.088C345.717 201.617 347.056 206.436 349.236 210.62L384.75 155.375L420.264 210.62C422.443 206.436 423.783 201.619 423.783 196.088V195.469Z" fill="#FFDA44"/>
<path d="M256.5 0V30.6127L211.245 55.7607H256.5V115.236H197.282L256.5 148.135V170.996H229.768L156.13 130.091V170.996H100.37V122.328L12.7689 170.996H0V140.383L45.2552 115.236H0V55.7607H59.2184L0 22.8505V0H26.7321L100.37 40.9047V0H156.13V48.6669L243.731 0H256.5Z" fill="white"/>
<path d="M144.281 -0.00292969H112.219V69.4645H0V101.527H112.219V170.996H144.281V101.527H256.5V69.4645H144.281V-0.00292969Z" fill="#D80027"/>
<path d="M156.13 115.236L256.5 170.996V155.229L184.513 115.236H156.13Z" fill="#0052B4"/>
<path d="M156.13 115.236L256.5 170.996V155.229L184.513 115.236H156.13Z" fill="white"/>
<path d="M156.13 115.236L256.5 170.996V155.229L184.513 115.236H156.13ZM71.9863 115.236L0 155.229V170.996L100.37 115.236H71.9863Z" fill="#D80027"/>
<path d="M100.37 55.7578L0 -0.00292969V15.7648L71.9873 55.7578H100.37Z" fill="#0052B4"/>
<path d="M100.37 55.7578L0 -0.00292969V15.7648L71.9873 55.7578H100.37Z" fill="white"/>
<path d="M100.37 55.7578L0 -0.00292969V15.7648L71.9873 55.7578H100.37ZM184.514 55.7578L256.5 15.7648V-0.00292969L156.13 55.7578H184.514Z" fill="#D80027"/>
</g>
<defs>
<clipPath id="clip0_301_480">
<rect width="513" height="342" fill="white"/>
</clipPath>
</defs>
</svg>
