<svg width="513" height="342" viewBox="0 0 513 342" fill="none" xmlns="http://www.w3.org/2000/svg">
<g clip-path="url(#clip0_301_463)">
<path d="M0 0.00390625H513V341.997H0V0.00390625Z" fill="#D80027"/>
<path d="M197.025 0.00390625V341.997H0V0.00390625H197.025Z" fill="#6DA544"/>
<path d="M197.025 235.125C232.44 235.125 261.15 206.416 261.15 171C261.15 135.585 232.44 106.875 197.025 106.875C161.61 106.875 132.9 135.585 132.9 171C132.9 206.416 161.61 235.125 197.025 235.125Z" fill="#FFDA44"/>
<path d="M160.952 138.938V179.017C160.952 198.938 177.101 215.087 197.022 215.087C216.943 215.087 233.092 198.938 233.092 179.017V138.938H160.952Z" fill="#D80027"/>
<path d="M197.022 191.04C190.392 191.04 184.999 185.646 184.999 179.016V162.985H209.046V179.016C209.045 185.645 203.651 191.04 197.022 191.04Z" fill="white"/>
</g>
<defs>
<clipPath id="clip0_301_463">
<rect width="513" height="342" fill="white"/>
</clipPath>
</defs>
</svg>
