<svg width="513" height="342" viewBox="0 0 513 342" fill="none" xmlns="http://www.w3.org/2000/svg">
<g clip-path="url(#clip0_301_454)">
<path d="M0 0.00390625H513V341.997H0V0.00390625Z" fill="white"/>
<path d="M0 0.00390625H513V114.001H0V0.00390625Z" fill="#D80027"/>
<path d="M0 228H513V341.997H0V228Z" fill="#0052B4"/>
<path d="M290.145 131.662L277.528 144.278C282.909 149.661 286.238 157.095 286.238 165.307C286.238 181.731 272.923 195.045 256.5 195.045C240.076 195.045 226.762 181.73 226.762 165.307C226.762 157.096 230.091 149.661 235.472 144.278L222.856 131.662C214.245 140.272 208.918 152.168 208.918 165.306C208.918 191.585 230.221 212.888 256.5 212.888C282.779 212.888 304.082 191.585 304.082 165.306C304.082 152.169 298.756 140.272 290.145 131.662Z" fill="#6DA544"/>
<path d="M256.5 147.464L260.929 161.096H275.261L263.666 169.52L268.095 183.151L256.5 174.726L244.904 183.151L249.334 169.52L237.738 161.096H252.07L256.5 147.464Z" fill="#FFDA44"/>
</g>
<defs>
<clipPath id="clip0_301_454">
<rect width="513" height="342" fill="white"/>
</clipPath>
</defs>
</svg>
