<svg width="513" height="342" viewBox="0 0 513 342" fill="none" xmlns="http://www.w3.org/2000/svg">
<g clip-path="url(#clip0_301_424)">
<path d="M0 -0.00195312H513V342.002H0V-0.00195312Z" fill="#338AF3"/>
<path d="M0 170.994H513V252.773H0V170.994Z" fill="#FFDA44"/>
<path d="M0 252.773H513V341.99H0V252.773Z" fill="#496E2D"/>
<path d="M278.805 100.071L299.689 109.894L288.569 130.12L311.245 125.781L314.119 148.691L329.914 131.842L345.711 148.691L348.584 125.781L371.261 130.12L360.14 109.894L381.024 100.071L360.139 90.2468L371.261 70.0224L348.584 74.3598L345.71 51.4512L329.914 68.3L314.118 51.4512L311.245 74.3598L288.567 70.0224L299.688 90.2488L278.805 100.071Z" fill="#FFDA44"/>
</g>
<defs>
<clipPath id="clip0_301_424">
<rect width="513" height="342" fill="white"/>
</clipPath>
</defs>
</svg>
