<svg width="513" height="342" viewBox="0 0 513 342" fill="none" xmlns="http://www.w3.org/2000/svg">
<g clip-path="url(#clip0_301_412)">
<path d="M0 0.000976562H513V342.005H0V0.000976562Z" fill="#496E2D"/>
<path d="M0 341.997V-0.00402832H513" fill="#0052B4"/>
<path d="M0 311.769V341.997H45.3434L513 30.2249V-0.00402832H467.657L0 311.769Z" fill="#FFDA44"/>
<path d="M85.8554 23.4998L90.9854 39.2865H107.584L94.1545 49.0425L99.2845 64.8303L85.8554 55.0733L72.4242 64.8303L77.5542 49.0425L64.125 39.2865H80.7244L85.8554 23.4998ZM170.645 23.4998L175.776 39.2865H192.375L178.946 49.0425L184.076 64.8303L170.645 55.0733L157.215 64.8303L162.345 49.0425L148.916 39.2865H165.515L170.645 23.4998ZM85.8554 106.163L90.9854 121.95H107.584L94.1545 131.707L99.2845 147.494L85.8554 137.736L72.4242 147.494L77.5542 131.707L64.125 121.95H80.7244L85.8554 106.163ZM170.645 106.163L175.776 121.95H192.375L178.946 131.707L184.076 147.494L170.645 137.736L157.215 147.494L162.345 131.707L148.916 121.95H165.515L170.645 106.163ZM128.25 64.8303L133.38 80.6171H149.98L136.549 90.3741L141.679 106.163L128.25 96.4049L114.821 106.163L119.951 90.3741L106.52 80.6171H123.12L128.25 64.8303Z" fill="white"/>
</g>
<defs>
<clipPath id="clip0_301_412">
<rect width="513" height="342" fill="white"/>
</clipPath>
</defs>
</svg>
