<svg width="513" height="342" viewBox="0 0 513 342" fill="none" xmlns="http://www.w3.org/2000/svg">
<g clip-path="url(#clip0_301_376)">
<path d="M0 0H513V341.967H0V0Z" fill="#0052B4"/>
<path d="M256.5 0V117.629H210.31L256.5 148.389V171.033H233.856L160.312 122.038V171.033H96.1875V122.038L22.6441 171.033H0V148.389L46.19 117.629H0V53.5043H46.19L0 22.7443V0H22.6441L96.1875 48.9955V0H160.312V48.9955L233.856 0H256.5Z" fill="white"/>
<path d="M144.281 0H112.219V69.5355H0V101.598H112.219V171.033H144.281V101.598H256.5V69.5355H144.281V0Z" fill="#D80027"/>
<path d="M0 0V15.1295L57.5121 53.5043H80.1562L0 0ZM256.5 0V15.1295L198.988 53.5043H176.344L256.5 0Z" fill="#D80027"/>
<path d="M256.5 22.7444V53.5043H210.31L256.5 22.7444Z" fill="#2E52B2"/>
<path d="M0 0V15.1295L57.5121 53.5043H80.1562L0 0ZM256.5 0V15.1295L198.988 53.5043H176.344L256.5 0Z" fill="#D80027"/>
<path d="M256.5 22.7444V53.5043H210.31L256.5 22.7444Z" fill="#2E52B2"/>
<path d="M0 171.033V155.904L57.5121 117.629H80.1562L0 171.033ZM256.5 171.033V155.904L198.988 117.629H176.344L256.5 171.033Z" fill="#D80027"/>
<path d="M449.877 139.973C449.777 184.46 442.663 232.253 384.75 255.097C326.837 232.253 319.723 184.46 319.623 139.973H449.877Z" fill="#29DBFF"/>
<path d="M449.877 139.973C449.877 123.24 448.975 107.009 449.376 92.7809C427.734 83.1621 399.178 81.1582 384.65 81.1582C370.122 81.1582 341.666 83.1621 319.924 92.7809C320.325 107.009 319.423 123.24 319.423 139.973H449.877Z" fill="#FFDA44"/>
<path d="M370.221 204.9L370.522 215.22L357.697 215.42L362.607 228.646H345.273C327.238 208.406 321.827 186.163 320.324 160.413L329.442 150.694L337.758 165.022L348.579 152.197L355.593 160.012L356.395 175.743L370.221 204.9Z" fill="#BF521B"/>
<path d="M437.453 192.876L428.836 211.212H381.744L352.487 191.674L378.238 202.194H403.387L407.094 195.681L414.308 195.882L416.312 192.876H437.453Z" fill="#474747"/>
</g>
<defs>
<clipPath id="clip0_301_376">
<rect width="513" height="341.967" fill="white"/>
</clipPath>
</defs>
</svg>
