<svg width="513" height="342" viewBox="0 0 513 342" fill="none" xmlns="http://www.w3.org/2000/svg">
<g clip-path="url(#clip0_301_369)">
<path d="M0 0.00390625H513V341.997H0V0.00390625Z" fill="white"/>
<path d="M0 114.001H513V227.999H0V114.001Z" fill="#0052B4"/>
<path d="M0 228H513V341.997H0V228Z" fill="#D80027"/>
<path d="M234.062 111.523V126.389C234.062 160.537 189.453 170.998 189.453 170.998C189.453 170.998 144.844 160.538 144.844 126.389V111.523L144.699 67.2489L233.916 66.9824L234.062 111.523Z" fill="white"/>
<path d="M234.062 111.523V126.389C234.062 160.537 189.453 170.998 189.453 170.998C189.453 170.998 144.844 160.538 144.844 126.389V111.523L144.699 67.2489L233.916 66.9824L234.062 111.523Z" fill="#0052B4"/>
<path d="M234.063 111.523V126.389C234.063 160.537 189.454 170.998 189.454 170.998C189.454 170.998 144.845 160.538 144.845 126.389V111.523L159.722 126.389L189.454 104.085L219.197 126.389L234.063 111.523Z" fill="white"/>
</g>
<defs>
<clipPath id="clip0_301_369">
<rect width="513" height="342" fill="white"/>
</clipPath>
</defs>
</svg>
