<svg width="513" height="342" viewBox="0 0 513 342" fill="none" xmlns="http://www.w3.org/2000/svg">
<g clip-path="url(#clip0_301_357)">
<path d="M0 0.00390625H513V341.997H0V0.00390625Z" fill="white"/>
<path d="M0 111.525H513V230.474H0V111.525Z" fill="#0052B4"/>
<path d="M0 230.475H513V341.996H0V230.475Z" fill="#D80027"/>
<path d="M129.721 96.6543V181.957C129.721 230.48 193.111 245.347 193.111 245.347C193.111 245.347 256.5 230.478 256.5 181.957V96.6543H129.721Z" fill="white"/>
<path d="M146.411 99.1543V181.255C146.411 186.738 147.628 191.916 150.041 196.771H236.179C238.592 191.917 239.809 186.739 239.809 181.255V99.1543H146.411Z" fill="#D80027"/>
<path d="M221.733 156.399H200.266V142.088H214.578V127.777H200.266V113.465H185.955V127.777H171.645V142.088H185.955V156.399H164.487V170.711H185.955V185.022H200.266V170.711H221.733V156.399Z" fill="white"/>
<path d="M169.563 216.747C178.785 222.542 188.259 225.908 193.111 227.404C197.962 225.907 207.437 222.543 216.659 216.747C225.959 210.903 232.48 204.217 236.181 196.77C231.959 193.776 226.91 192.171 221.735 192.178C219.775 192.178 217.871 192.41 216.042 192.836C212.163 184.023 203.359 177.867 193.113 177.867C182.866 177.867 174.063 184.023 170.184 192.836C168.318 192.4 166.408 192.179 164.491 192.178C159.316 192.172 154.267 193.776 150.045 196.77C153.743 204.217 160.263 210.903 169.563 216.747Z" fill="#0052B4"/>
</g>
<defs>
<clipPath id="clip0_301_357">
<rect width="513" height="342" fill="white"/>
</clipPath>
</defs>
</svg>
