<svg width="513" height="342" viewBox="0 0 513 342" fill="none" xmlns="http://www.w3.org/2000/svg">
<g clip-path="url(#clip0_301_345)">
<path d="M0 0.00683594H513V341.999H0V0.00683594Z" fill="#338AF3"/>
<path d="M513 0.000976562V167.017L0 171.176V0.000976562H513Z" fill="white"/>
<path d="M324.377 117.996L256.5 185.872L188.624 117.996C179.542 131.457 174.699 147.33 174.718 163.568V185.872C174.718 221.686 197.86 252.195 229.974 263.236C225.688 271.638 226.411 282.121 232.691 289.959L256.996 270.482L281.302 289.959C287.656 282.029 288.326 271.389 283.871 262.939C315.546 251.656 338.285 221.373 338.285 185.872V163.568C338.302 147.33 333.458 131.458 324.377 117.996Z" fill="#6DA544"/>
<path d="M256.5 245.351C223.704 245.351 197.022 218.669 197.022 185.873V163.569C197.022 130.772 223.704 104.09 256.5 104.09C289.296 104.09 315.978 130.772 315.978 163.568V185.872C315.978 218.669 289.296 245.351 256.5 245.351Z" fill="#FFDA44"/>
<path d="M293.673 185.872V163.568C293.673 143.07 276.998 126.395 256.5 126.395C236.002 126.395 219.326 143.07 219.326 163.568V185.872L256.5 193.308L293.673 185.872Z" fill="#338AF3"/>
<path d="M219.326 185.872C219.326 206.37 236.002 223.046 256.5 223.046C276.998 223.046 293.673 206.37 293.673 185.872H219.326Z" fill="#6DA544"/>
<path d="M301.109 104.09C301.109 91.7713 291.123 81.7859 278.804 81.7859C273.316 81.7786 268.019 83.8031 263.935 87.469V74.3504H271.371V59.4814H263.935V52.0459H249.066V59.4814H241.631V74.3504H249.066V87.469C244.981 83.8032 239.685 81.7788 234.196 81.7859C221.877 81.7859 211.892 91.7713 211.892 104.09C211.892 110.694 214.764 116.627 219.327 120.712V133.83H293.675V120.712C298.236 116.627 301.109 110.695 301.109 104.09Z" fill="#FFDA44"/>
</g>
<defs>
<clipPath id="clip0_301_345">
<rect width="513" height="342" fill="white"/>
</clipPath>
</defs>
</svg>
