<svg width="513" height="342" viewBox="0 0 513 342" fill="none" xmlns="http://www.w3.org/2000/svg">
<g clip-path="url(#clip0_301_318)">
<path d="M0 0.00402832H513V341.997H0V0.00402832Z" fill="#FFDA44"/>
<path d="M0 0.00402832H513V114.001H0V0.00402832ZM0 227.999H513V341.997H0V227.999Z" fill="#6DA544"/>
<path d="M256.5 171.006L0 342.002V-0.00195312L256.5 171.006Z" fill="#D80027"/>
<path d="M302.639 141.26L310.021 163.979H333.91L314.584 178.022L321.965 200.74L302.639 186.698L283.314 200.74L290.695 178.022L271.369 163.979H295.258L302.639 141.26ZM376.987 141.26L384.368 163.979H408.257L388.931 178.022L396.313 200.74L376.987 186.698L357.661 200.74L365.043 178.022L345.717 163.979H369.606L376.987 141.26Z" fill="black"/>
</g>
<defs>
<clipPath id="clip0_301_318">
<rect width="513" height="342" fill="white"/>
</clipPath>
</defs>
</svg>
