<svg width="513" height="342" viewBox="0 0 513 342" fill="none" xmlns="http://www.w3.org/2000/svg">
<g clip-path="url(#clip0_301_311)">
<path d="M0 0.00390625H513V341.997H0V0.00390625Z" fill="white"/>
<path d="M0 0.00390625H513V114.001H0V0.00390625ZM0 227.999H513V341.997H0V227.999Z" fill="#0052B4"/>
<path d="M229.028 176.948L256.5 129.366L283.971 176.948H229.028Z" fill="#FFDA44"/>
<path d="M292.186 192.659L256.5 210.502L220.814 192.659V168.868H292.186V192.659Z" fill="#6DA544"/>
<path d="M290.144 131.408L277.528 144.025C282.908 149.407 286.238 156.841 286.238 165.054C286.238 181.478 272.923 194.792 256.5 194.792C240.076 194.792 226.762 181.477 226.762 165.054C226.762 156.843 230.09 149.407 235.472 144.025L222.855 131.408C214.244 140.019 208.918 151.914 208.918 165.053C208.918 191.332 230.22 212.635 256.5 212.635C282.779 212.635 304.081 191.332 304.081 165.053C304.081 151.913 298.755 140.017 290.144 131.408Z" fill="#FFDA44"/>
</g>
<defs>
<clipPath id="clip0_301_311">
<rect width="513" height="342" fill="white"/>
</clipPath>
</defs>
</svg>
