<svg width="513" height="342" viewBox="0 0 513 342" fill="none" xmlns="http://www.w3.org/2000/svg">
<g clip-path="url(#clip0_301_295)">
<path d="M0 -0.00195312H513V342.002H0V-0.00195312Z" fill="white"/>
<path d="M0 -0.00195312H513V113.995H0V-0.00195312Z" fill="#D80027"/>
<path d="M0 227.993H513V341.991H0V227.993Z" fill="black"/>
<path d="M187.676 130.105L196.902 158.501H226.762L202.605 176.053L211.832 204.451L187.676 186.9L163.519 204.451L172.746 176.053L148.59 158.501H178.449L187.676 130.105ZM325.324 130.105L334.551 158.501H364.411L340.254 176.053L349.481 204.451L325.324 186.9L301.168 204.451L310.395 176.053L286.238 158.501H316.098L325.324 130.105Z" fill="#6DA544"/>
</g>
<defs>
<clipPath id="clip0_301_295">
<rect width="513" height="342" fill="white"/>
</clipPath>
</defs>
</svg>
