<svg width="513" height="342" viewBox="0 0 513 342" fill="none" xmlns="http://www.w3.org/2000/svg">
<g clip-path="url(#clip0_301_267)">
<path d="M0 0H513V341.967H0V0Z" fill="#0052B4"/>
<path d="M256.5 0V117.629H210.31L256.5 148.389V171.033H233.856L160.312 122.038V171.033H96.1875V122.038L22.6441 171.033H0V148.389L46.19 117.629H0V53.5043H46.19L0 22.7443V0H22.6441L96.1875 48.9955V0H160.312V48.9955L233.856 0H256.5Z" fill="white"/>
<path d="M144.281 0H112.219V69.5355H0V101.598H112.219V171.033H144.281V101.598H256.5V69.5355H144.281V0Z" fill="#D80027"/>
<path d="M0 0V15.1295L57.5121 53.5043H80.1562L0 0ZM256.5 0V15.1295L198.988 53.5043H176.344L256.5 0Z" fill="#D80027"/>
<path d="M256.5 22.7444V53.5043H210.31L256.5 22.7444Z" fill="#2E52B2"/>
<path d="M0 0V15.1295L57.5121 53.5043H80.1562L0 0ZM256.5 0V15.1295L198.988 53.5043H176.344L256.5 0Z" fill="#D80027"/>
<path d="M256.5 22.7444V53.5043H210.31L256.5 22.7444Z" fill="#2E52B2"/>
<path d="M0 171.033V155.904L57.5121 117.629H80.1562L0 171.033ZM256.5 171.033V155.904L198.988 117.629H176.344L256.5 171.033Z" fill="#D80027"/>
<path d="M449.777 169.831C449.777 179.45 449.476 199.489 448.374 209.108C444.266 244.076 424.828 278.042 386.153 295.175C340.764 277.24 325.234 244.076 321.126 209.108C320.024 199.489 319.623 189.67 319.623 180.051L319.924 132.859H449.376L449.777 169.831Z" fill="#29DBFF"/>
<path d="M448.374 209.108C448.174 210.711 447.974 212.414 447.773 214.017C442.964 247.182 424.829 279.545 386.153 295.175C342.869 278.142 326.637 247.182 321.828 214.017C321.627 212.414 321.427 210.811 321.227 209.108" fill="white"/>
<path d="M386.153 252.192L363.208 209.108H409.097L386.153 252.192Z" fill="#29DBFF"/>
<path d="M386.153 166.124L363.208 209.108H409.097L386.153 166.124Z" fill="white"/>
<path d="M475.727 280.647C485.024 280.647 492.56 261.223 492.56 237.263C492.56 213.302 485.024 193.878 475.727 193.878C466.431 193.878 458.895 213.302 458.895 237.263C458.895 261.223 466.431 280.647 475.727 280.647Z" fill="#FFBE57"/>
<path d="M295.877 280.647C305.173 280.647 312.71 261.223 312.71 237.263C312.71 213.302 305.173 193.878 295.877 193.878C286.58 193.878 279.044 213.302 279.044 237.263C279.044 261.223 286.58 280.647 295.877 280.647Z" fill="#FFBE57"/>
<path d="M386.153 31.5615L352.688 75.6475H421.321L386.153 31.5615ZM316.116 280.547C316.116 280.547 349.982 310.104 386.153 310.104C422.323 310.104 453.384 280.547 453.384 280.547L461.9 295.175C461.9 295.175 440.058 326.637 386.153 326.637C332.248 326.637 307.6 295.175 307.6 295.175L316.116 280.547Z" fill="white"/>
<path d="M387.054 127.849C406.035 127.849 421.421 117.397 421.421 104.504C421.421 91.6103 406.035 81.1582 387.054 81.1582C368.074 81.1582 352.688 91.6103 352.688 104.504C352.688 117.397 368.074 127.849 387.054 127.849Z" fill="#A5A5A5"/>
</g>
<defs>
<clipPath id="clip0_301_267">
<rect width="513" height="341.967" fill="white"/>
</clipPath>
</defs>
</svg>
