<svg width="512" height="342" viewBox="0 0 512 342" fill="none" xmlns="http://www.w3.org/2000/svg">
<g clip-path="url(#clip0_301_250)">
<path d="M0 0H512V341.337H0V0Z" fill="#0052B4"/>
<path d="M332.058 106.663V184.884C332.058 222.987 384 234.663 384 234.663C384 234.663 435.942 222.988 435.942 184.884V106.663H332.058Z" fill="#FFDA44"/>
<path d="M376.579 135.107C376.579 142.962 369.935 163.552 361.739 163.552C353.543 163.552 346.899 142.963 346.899 135.107C346.899 127.251 361.739 120.885 361.739 120.885C361.739 120.885 376.579 127.252 376.579 135.107Z" fill="#FF9811"/>
<path d="M415.961 150.597C418.355 144.997 420.218 136.812 420.218 132.737C420.218 126.191 411.314 120.885 411.314 120.885C411.314 120.885 402.41 126.191 402.41 132.737C402.41 136.812 404.272 144.997 406.667 150.597L401.526 161.72C404.647 162.934 407.966 163.555 411.314 163.551C414.777 163.551 418.08 162.897 421.102 161.72L415.961 150.597Z" fill="#A2001D"/>
<path d="M372.87 184.884C372.87 184.884 365.449 199.106 365.449 213.329H402.55C402.55 199.107 395.129 184.884 395.129 184.884L383.999 177.773L372.87 184.884Z" fill="#6DA544"/>
<path d="M395.13 184.884V181.329C395.13 175.438 390.147 170.663 384 170.663C377.853 170.663 372.87 175.439 372.87 181.329V184.884H395.13Z" fill="#D80027"/>
<path d="M256 0V30.553L210.833 55.652H256V115.011H196.897L256 147.846V170.663H229.32L155.826 129.837V170.663H100.174V122.09L12.744 170.663H0V140.109L45.167 115.011H0V55.652H59.103L0 22.806V0H26.68L100.174 40.825V0H155.826V48.572L243.256 0H256Z" fill="white"/>
<path d="M144 -0.00292969H112V69.3291H0V101.329H112V170.663H144V101.329H256V69.3291H144V-0.00292969Z" fill="#D80027"/>
<path d="M155.826 115.011L256 170.663V154.926L184.153 115.011H155.826Z" fill="#0052B4"/>
<path d="M155.826 115.011L256 170.663V154.926L184.153 115.011H155.826Z" fill="white"/>
<path d="M155.826 115.011L256 170.663V154.926L184.153 115.011H155.826ZM71.846 115.011L0 154.926V170.663L100.174 115.011H71.846Z" fill="#D80027"/>
<path d="M100.174 55.6491L0 -0.00292969V15.7341L71.847 55.6491H100.174Z" fill="#0052B4"/>
<path d="M100.174 55.6491L0 -0.00292969V15.7341L71.847 55.6491H100.174Z" fill="white"/>
<path d="M100.174 55.6491L0 -0.00292969V15.7341L71.847 55.6491H100.174ZM184.154 55.6491L256 15.7341V-0.00292969L155.826 55.6491H184.154Z" fill="#D80027"/>
</g>
<defs>
<clipPath id="clip0_301_250">
<rect width="512" height="341.333" fill="white"/>
</clipPath>
</defs>
</svg>
