<svg width="513" height="342" viewBox="0 0 513 342" fill="none" xmlns="http://www.w3.org/2000/svg">
<g clip-path="url(#clip0_301_239)">
<path d="M0 0H478.8V342H0V0Z" fill="white"/>
<path d="M0 0H513V342H0V0Z" fill="#073AB6"/>
<path d="M0 0H257.64V171H0V0Z" fill="white"/>
<path d="M161.88 0H243.96V159.6H161.88V0Z" fill="#F44653"/>
<path d="M0 0H82.08V159.6H0V0Z" fill="#1035BB"/>
<path d="M82.0791 0H164.159V159.6H82.0791V0ZM330.599 136.8H444.599L433.199 159.6H398.999V171H421.799L410.399 193.8H398.999V228H376.199V159.6H341.999L330.599 136.8ZM421.799 193.8L444.599 228H398.999L421.799 193.8ZM353.399 193.8L376.199 228H330.599L353.399 193.8ZM387.599 262.2L364.799 228H410.399L387.599 262.2ZM455.999 182.4C449.159 182.4 444.599 177.84 444.599 171C444.599 164.16 449.159 159.6 455.999 159.6C462.839 159.6 467.399 164.16 467.399 171C467.399 177.84 462.839 182.4 455.999 182.4ZM319.199 182.4C312.359 182.4 307.799 177.84 307.799 171C307.799 164.16 312.359 159.6 319.199 159.6C326.039 159.6 330.599 164.16 330.599 171C330.599 177.84 326.039 182.4 319.199 182.4ZM341.999 273.6C335.159 273.6 330.599 269.04 330.599 262.2C330.599 255.36 335.159 250.8 341.999 250.8C348.839 250.8 353.399 255.36 353.399 262.2C353.399 269.04 348.839 273.6 341.999 273.6ZM433.199 273.6C426.359 273.6 421.799 269.04 421.799 262.2C421.799 255.36 426.359 250.8 433.199 250.8C440.039 250.8 444.599 255.36 444.599 262.2C444.599 269.04 440.039 273.6 433.199 273.6ZM387.599 296.4C380.759 296.4 376.199 291.84 376.199 285C376.199 278.16 380.759 273.6 387.599 273.6C394.439 273.6 398.999 278.16 398.999 285C398.999 291.84 394.439 296.4 387.599 296.4Z" fill="white"/>
</g>
<defs>
<clipPath id="clip0_301_239">
<rect width="513" height="342" fill="white"/>
</clipPath>
</defs>
</svg>
