<svg width="513" height="342" viewBox="0 0 513 342" fill="none" xmlns="http://www.w3.org/2000/svg">
<g clip-path="url(#clip0_301_216)">
<path d="M0 0.00390625H513V341.997H0V0.00390625Z" fill="#0052B4"/>
<path d="M211.127 89.2179L214.818 100.578H226.76L217.098 107.598L220.79 118.957L211.127 111.936L201.464 118.957L205.155 107.598L195.491 100.578H207.435L211.127 89.2179ZM117.044 197.022L121.658 211.222H136.587L124.509 219.996L129.124 234.197L117.044 225.419L104.966 234.197L109.579 219.996L97.5012 211.222H112.429L117.044 197.022ZM144.979 34.4131L149.592 48.6128H164.522L152.442 57.3879L157.057 71.5865L144.979 62.8104L132.899 71.5865L137.514 57.3879L125.436 48.6128H140.365L144.979 34.4131ZM69.6749 90.1738L74.2879 104.373H89.217L77.1385 113.149L81.7535 127.347L69.6749 118.572L57.5954 127.347L62.2104 113.149L50.1318 104.373H65.0609L69.6749 90.1738Z" fill="white"/>
<path d="M484.33 269.696H118.031C118.031 269.696 227.478 180.961 429.231 48.3262C429.232 48.3262 340.615 177.513 484.33 269.696ZM118.031 281.304C106.832 281.304 106.814 298.708 118.031 298.708H484.33C495.529 298.708 495.547 281.304 484.33 281.304H118.031Z" fill="#FFDA44"/>
</g>
<defs>
<clipPath id="clip0_301_216">
<rect width="513" height="342" fill="white"/>
</clipPath>
</defs>
</svg>
