<svg width="513" height="342" viewBox="0 0 513 342" fill="none" xmlns="http://www.w3.org/2000/svg">
<g clip-path="url(#clip0_301_193)">
<path d="M0 0.00402832H513V341.997H0V0.00402832Z" fill="#496E2D"/>
<path d="M357.906 98.5381C366.319 75.0884 356.868 49.5847 336.583 36.8819C340.302 37.3633 343.958 38.2437 347.488 39.508C374.543 49.215 388.607 79.013 378.9 106.069C369.193 133.125 339.395 147.187 312.339 137.48C308.81 136.212 305.428 134.567 302.25 132.575C325.983 135.665 349.492 121.989 357.906 98.5381ZM311.244 30.4554L303.933 39.9008L292.691 35.8669L299.416 45.7382L292.105 55.1836L303.571 51.8391L310.296 61.7103L310.658 49.773L322.124 46.4275L310.881 42.3947L311.244 30.4554Z" fill="white"/>
<path d="M330.983 61.2344L323.673 70.6798L312.43 66.6459L319.155 76.5172L311.845 85.9626L323.31 82.6171L330.035 92.4893L330.396 80.5511L341.863 77.2045L330.621 73.1727L330.983 61.2344ZM276.439 41.6642L269.129 51.1097L257.888 47.0778L264.612 56.948L257.302 66.3924L268.767 63.0479L275.492 72.9192L275.854 60.9809L287.32 57.6374L276.077 53.6025L276.439 41.6642ZM275.638 76.922L268.328 86.3674L257.085 82.3335L263.81 92.2048L256.5 101.65L267.966 98.3057L274.69 108.177L275.053 96.2386L286.519 92.8941L275.277 88.8602L275.638 76.922ZM309.188 88.9584L301.877 98.4038L290.636 94.37L297.361 104.242L290.049 113.687L301.516 110.342L308.241 120.213L308.602 108.275L320.067 104.931L308.826 100.898L309.188 88.9584Z" fill="white"/>
<path d="M83.6406 0.00402832H172.858V341.997H83.6406V0.00402832Z" fill="#D80027"/>
<path d="M117.687 90.0335L102.75 78.9068V63.1711L117.687 52.0444H138.812L153.749 63.1711V78.9068L138.812 90.0335H117.687Z" fill="white"/>
<path d="M128.25 52.0444H117.687L102.75 63.1711V70.8641H128.25V52.0444ZM128.25 90.0335H138.812L153.749 78.9068V70.8792H128.25V90.0335Z" fill="#FF9811"/>
<path d="M117.687 289.957L102.75 278.829V263.095L117.687 251.968H138.812L153.749 263.095V278.829L138.812 289.957H117.687Z" fill="white"/>
<path d="M128.25 251.968H117.687L102.75 263.095V270.788H128.25V251.968ZM128.25 289.957H138.812L153.749 278.829V270.803H128.25V289.957Z" fill="#FF9811"/>
<path d="M117.688 189.994L102.751 178.868V163.134L117.688 152.006H138.813L153.75 163.134V178.868L138.813 189.994H117.688ZM154.272 214.476H147.766V207.97H136.333L128.249 199.887L120.166 207.97H108.734V214.476H102.229V227.487H108.734V233.992H120.166L128.25 242.077L136.334 233.992H147.766V227.487H154.272V214.476ZM154.272 114.513H147.766V108.009H136.333L128.249 99.9238L120.166 108.009H108.734V114.513H102.229V127.525H108.734V134.029H120.166L128.25 142.115L136.334 134.029H147.766V127.525H154.272V114.513Z" fill="#496E2D"/>
<path d="M120.812 163.562H135.681V178.431H120.812V163.562Z" fill="#D80027"/>
<path d="M128.25 128.451C132.356 128.451 135.685 125.122 135.685 121.016C135.685 116.909 132.356 113.58 128.25 113.58C124.143 113.58 120.814 116.909 120.814 121.016C120.814 125.122 124.143 128.451 128.25 128.451Z" fill="#D80027"/>
<path d="M128.25 228.42C132.356 228.42 135.685 225.091 135.685 220.985C135.685 216.878 132.356 213.549 128.25 213.549C124.143 213.549 120.814 216.878 120.814 220.985C120.814 225.091 124.143 228.42 128.25 228.42Z" fill="#D80027"/>
</g>
<defs>
<clipPath id="clip0_301_193">
<rect width="513" height="342" fill="white"/>
</clipPath>
</defs>
</svg>
