<svg width="513" height="342" viewBox="0 0 513 342" fill="none" xmlns="http://www.w3.org/2000/svg">
<g clip-path="url(#clip0_301_187)">
<path d="M0 -0.00195312H513V342.002H0V-0.00195312Z" fill="#D80027"/>
<path d="M256.5 267.182C309.623 267.182 352.688 224.117 352.688 170.994C352.688 117.871 309.623 74.8069 256.5 74.8069C203.377 74.8069 160.312 117.871 160.312 170.994C160.312 224.117 203.377 267.182 256.5 267.182Z" fill="white"/>
<path d="M268.35 134.22L284.852 156.959L311.577 148.293L295.049 171.013L311.549 193.753L284.833 185.055L268.306 207.775L268.323 179.68L241.606 170.981L268.333 162.316L268.35 134.22Z" fill="#D80027"/>
<path d="M278.361 227.835C246.97 227.835 221.523 202.388 221.523 170.997C221.523 139.606 246.97 114.16 278.361 114.16C288.149 114.16 297.358 116.634 305.399 120.992C292.785 108.658 275.536 101.044 256.5 101.044C217.867 101.044 186.546 132.364 186.546 170.998C186.546 209.633 217.867 240.953 256.5 240.953C275.536 240.953 292.786 233.339 305.399 221.005C297.357 225.36 288.149 227.835 278.361 227.835Z" fill="#D80027"/>
</g>
<defs>
<clipPath id="clip0_301_187">
<rect width="513" height="342" fill="white"/>
</clipPath>
</defs>
</svg>
