<svg width="513" height="342" viewBox="0 0 513 342" fill="none" xmlns="http://www.w3.org/2000/svg">
<g clip-path="url(#clip0_301_180)">
<path d="M0 0H513V342H0V0Z" fill="#E30A17"/>
<path d="M259.7 118.6C246.6 109.1 230.7 104 214.4 104.1C173.6 104.1 140.6 134.9 140.6 173C140.6 211.1 173.7 241.9 214.4 241.9C231.5 241.9 247.3 236.5 259.7 227.4C229.7 266 174 273 135.4 242.9C96.7996 212.8 89.7996 157.2 119.9 118.6C150 80 205.6 73 244.2 103.1C250 107.6 255.2 112.9 259.7 118.6ZM299.6 184.4L281.5 206.3L282.7 177.9L256.3 167.5L283.6 159.9L285.4 131.6L301 155.3L328.5 148.2L311 170.2L326.3 194.1L299.6 184.4Z" fill="white"/>
</g>
<defs>
<clipPath id="clip0_301_180">
<rect width="513" height="342" fill="white"/>
</clipPath>
</defs>
</svg>
