<svg width="513" height="342" viewBox="0 0 513 342" fill="none" xmlns="http://www.w3.org/2000/svg">
<g clip-path="url(#clip0_301_167)">
<path d="M0 0H513V342H0V0Z" fill="#0052B4"/>
<path d="M0 171H256.5V0H513V342H0V171Z" fill="#00B2EE"/>
<path d="M196.821 274.113L213.579 325.755L169.632 293.835H224.01L180.063 325.755L196.821 274.113ZM402.648 193.8L419.406 245.442L375.459 213.522H429.78L385.833 245.442L402.648 193.8ZM463.296 149.055L480.054 200.697L436.107 168.777H490.428L446.481 200.697L463.296 149.055ZM463.296 21.3181L480.054 72.9601L436.107 41.0401H490.428L446.481 72.9601L463.296 21.3181Z" fill="#FFDA44"/>
<path d="M256.443 0V117.591H210.273L256.443 148.371V171H233.814L160.284 122.037V171H96.159V122.037L22.629 171H0V148.371L46.17 117.591H0V53.466H46.17L0 22.743V0H22.629L96.159 48.963V0H160.284V48.963L233.814 0H256.443Z" fill="white"/>
<path d="M144.267 0H112.176V69.54H0V101.574H112.176V171H144.267V101.574H256.443V69.54H144.267V0Z" fill="#D80027"/>
<path d="M256.443 22.7432V53.4662H210.273L256.443 22.7432Z" fill="#2E52B2"/>
<path d="M0 171V159.999L62.643 117.591H85.272L7.296 171H0ZM7.296 0.0568848L85.272 53.4659H62.643L0 11.0579V0.0568848H7.296ZM256.443 0.113885V11.1149L193.8 53.4659H171.171L249.147 0.113885H256.443ZM249.147 171L171.171 117.591H193.8L256.443 159.999V171H249.147Z" fill="#D80027"/>
<path d="M410.343 75.012L427.101 126.654L383.154 94.734H437.475L393.528 126.654L410.343 75.012ZM332.88 106.989L349.638 158.631L305.691 126.711H360.012L316.065 158.631L332.88 106.989ZM349.98 245.442L366.738 297.084L322.791 265.164H377.112L333.165 297.084L349.98 245.442ZM278.16 189.24L294.918 240.882L250.971 208.962H305.292L261.345 240.882L278.16 189.24ZM278.16 264.48L294.918 316.122L250.971 284.202H305.292L261.345 316.122L278.16 264.48Z" fill="#FFDA44"/>
</g>
<defs>
<clipPath id="clip0_301_167">
<rect width="513" height="342" fill="white"/>
</clipPath>
</defs>
</svg>
