<svg width="513" height="342" viewBox="0 0 513 342" fill="none" xmlns="http://www.w3.org/2000/svg">
<g clip-path="url(#clip0_301_161)">
<path d="M0 0.00390625H513V341.997H0V0.00390625Z" fill="#D80027"/>
<path d="M0 0.00390625H256.5V171H0V0.00390625Z" fill="#0052B4"/>
<path d="M186.799 85.5027L162.876 96.7556L175.615 119.926L149.637 114.955L146.345 141.198L128.25 121.898L110.155 141.198L106.864 114.955L80.886 119.925L93.6248 96.7546L69.7012 85.5027L93.6248 74.2498L80.886 51.0796L106.864 56.0493L110.156 29.8062L128.25 49.1068L146.346 29.8062L149.637 56.0493L175.616 51.0796L162.876 74.2498L186.799 85.5027Z" fill="white"/>
<path d="M128.25 114.57C144.301 114.57 157.313 101.558 157.313 85.5075C157.313 69.4566 144.301 56.4448 128.25 56.4448C112.199 56.4448 99.1875 69.4566 99.1875 85.5075C99.1875 101.558 112.199 114.57 128.25 114.57Z" fill="#0052B4"/>
<path d="M128.25 104.931C117.537 104.931 108.821 96.2145 108.821 85.5026C108.821 74.7897 117.538 66.0737 128.25 66.0737C138.963 66.0737 147.679 74.7907 147.679 85.5026C147.679 96.2145 138.963 104.931 128.25 104.931Z" fill="white"/>
</g>
<defs>
<clipPath id="clip0_301_161">
<rect width="513" height="342" fill="white"/>
</clipPath>
</defs>
</svg>
