<svg width="513" height="342" viewBox="0 0 513 342" fill="none" xmlns="http://www.w3.org/2000/svg">
<g clip-path="url(#clip0_301_145)">
<path d="M0 0H513V341.967H0V0Z" fill="#232323"/>
<path d="M0 57.0112H513V114.022H0V57.0112Z" fill="#FFDA44"/>
<path d="M0 114.022H513V171.034H0V114.022Z" fill="#D32300"/>
<path d="M0 228.044H513V285.056H0V228.044Z" fill="#FFDA44"/>
<path d="M0 284.956H513V341.967H0V284.956Z" fill="#D32300"/>
<path d="M256.5 251.891C301.157 251.891 337.358 215.69 337.358 171.033C337.358 126.377 301.157 90.1758 256.5 90.1758C211.844 90.1758 175.643 126.377 175.643 171.033C175.643 215.69 211.844 251.891 256.5 251.891Z" fill="white"/>
<path d="M234.958 127.749C235.86 126.346 215.32 125.745 215.32 125.745C217.023 123.24 233.756 115.225 233.756 115.225C233.756 115.225 232.854 109.213 236.461 105.405L231.952 95.5863C231.952 95.5863 238.966 92.1797 250.388 92.1797C261.81 92.1797 270.327 99.1934 271.429 105.305L265.016 108.712C264.916 113.421 266.72 120.335 260.708 126.046C254.797 131.757 252.392 132.959 252.191 144.882C252.191 148.79 254.496 153.098 261.009 156.605C278.443 165.923 299.684 184.86 305.696 190.571C311.808 196.283 310.806 209.809 308.301 215.821C305.796 221.832 296.177 230.149 293.973 229.447C291.769 228.846 295.175 220.229 290.466 217.825C290.466 217.825 281.549 210.21 273.633 218.426C265.718 226.642 273.433 243.675 277.541 246.48C281.649 249.286 279.244 251.49 275.637 251.49H247.482C243.675 251.49 242.072 249.186 245.579 246.48C253.193 242.673 258.003 231.151 252.993 226.141C248.083 221.231 234.657 227.644 231.451 232.453C228.646 235.259 222.634 236.06 218.526 231.05C214.418 226.041 214.418 220.63 217.424 218.526C224.437 213.717 217.424 218.526 217.524 218.426C217.524 218.426 229.447 209.809 247.482 209.408C251.39 209.408 252.292 207.204 249.687 204.599C249.687 204.599 218.726 177.145 221.532 160.312C224.538 141.977 241.571 133.961 234.958 127.749C234.958 127.749 233.655 125.946 234.958 127.749Z" fill="black"/>
</g>
<defs>
<clipPath id="clip0_301_145">
<rect width="513" height="341.967" fill="white"/>
</clipPath>
</defs>
</svg>
