<svg width="513" height="342" viewBox="0 0 513 342" fill="none" xmlns="http://www.w3.org/2000/svg">
<g clip-path="url(#clip0_301_131)">
<path d="M0 0H513V342H0V0Z" fill="white"/>
<path d="M0 0H513V26.3H0V0ZM0 52.6H513V78.9H0V52.6ZM0 105.2H513V131.5H0V105.2ZM0 157.8H513V184.1H0V157.8ZM0 210.5H513V236.8H0V210.5ZM0 263.1H513V289.4H0V263.1ZM0 315.7H513V342H0V315.7Z" fill="#D80027"/>
<path d="M0 0H256.5V184.1H0V0Z" fill="#2E52B2"/>
<path d="M47.8002 138.9L43.8002 126.1L39.4002 138.9H26.2002L36.9002 146.6L32.9002 159.4L43.8002 151.5L54.4002 159.4L50.3002 146.6L61.2002 138.9H47.8002ZM104.1 138.9L100 126.1L95.8002 138.9H82.6002L93.3002 146.6L89.3002 159.4L100 151.5L110.8 159.4L106.8 146.6L117.5 138.9H104.1ZM160.6 138.9L156.3 126.1L152.3 138.9H138.8L149.8 146.6L145.6 159.4L156.3 151.5L167.3 159.4L163.1 146.6L173.8 138.9H160.6ZM216.8 138.9L212.8 126.1L208.6 138.9H195.3L206.1 146.6L202.1 159.4L212.8 151.5L223.6 159.4L219.3 146.6L230.3 138.9H216.8ZM100 75.3002L95.8002 88.1002H82.6002L93.3002 96.0002L89.3002 108.6L100 100.8L110.8 108.6L106.8 96.0002L117.5 88.1002H104.1L100 75.3002ZM43.8002 75.3002L39.4002 88.1002H26.2002L36.9002 96.0002L32.9002 108.6L43.8002 100.8L54.4002 108.6L50.3002 96.0002L61.2002 88.1002H47.8002L43.8002 75.3002ZM156.3 75.3002L152.3 88.1002H138.8L149.8 96.0002L145.6 108.6L156.3 100.8L167.3 108.6L163.1 96.0002L173.8 88.1002H160.6L156.3 75.3002ZM212.8 75.3002L208.6 88.1002H195.3L206.1 96.0002L202.1 108.6L212.8 100.8L223.6 108.6L219.3 96.0002L230.3 88.1002H216.8L212.8 75.3002ZM43.8002 24.7002L39.4002 37.3002H26.2002L36.9002 45.2002L32.9002 57.9002L43.8002 50.0002L54.4002 57.9002L50.3002 45.2002L61.2002 37.3002H47.8002L43.8002 24.7002ZM100 24.7002L95.8002 37.3002H82.6002L93.3002 45.2002L89.3002 57.9002L100 50.0002L110.8 57.9002L106.8 45.2002L117.5 37.3002H104.1L100 24.7002ZM156.3 24.7002L152.3 37.3002H138.8L149.8 45.2002L145.6 57.9002L156.3 50.0002L167.3 57.9002L163.1 45.2002L173.8 37.3002H160.6L156.3 24.7002ZM212.8 24.7002L208.6 37.3002H195.3L206.1 45.2002L202.1 57.9002L212.8 50.0002L223.6 57.9002L219.3 45.2002L230.3 37.3002H216.8L212.8 24.7002Z" fill="white"/>
</g>
<defs>
<clipPath id="clip0_301_131">
<rect width="513" height="342" fill="white"/>
</clipPath>
</defs>
</svg>
