<svg width="513" height="342" viewBox="0 0 513 342" fill="none" xmlns="http://www.w3.org/2000/svg">
<g clip-path="url(#clip0_301_125)">
<path d="M0 0H513V342H0V0Z" fill="white"/>
<path d="M0 38H513V76H0V38ZM0 114H513V152H0V114ZM0 190H513V228H0V190ZM0 266H513V304H0V266Z" fill="#0038A8"/>
<path d="M0 0H256.5V190H0V0Z" fill="white"/>
<path d="M128.3 138.7L113.2 161.3L109.4 134.4L85.9998 148.2L94.1998 122.3L66.9998 124.5L85.5998 104.7L60.2998 94.9998L85.6998 85.2998L66.9998 65.4998L94.0998 67.7998L85.8998 41.8998L109.3 55.6998L113.2 28.7998L128.3 51.3998L143.4 28.7998L147.2 55.6998L170.6 41.8998L162.4 67.7998L189.5 65.5998L170.9 85.3998L196.3 95.0998L170.9 104.8L189.5 124.6L162.4 122.4L170.6 148.3L147.2 134.5L143.3 161.4L128.3 138.7ZM128.3 138.2C152.2 139.1 172.3 120.6 173.2 96.6998C174.1 72.7998 155.6 52.6998 131.7 51.7998H128.3C104.4 52.5998 85.6998 72.5998 86.4998 96.3998C87.0998 119.2 105.5 137.5 128.3 138.2ZM128.3 127.6C109.5 127.6 94.2998 112.4 94.2998 93.5998C94.2998 74.7998 109.5 59.5998 128.3 59.5998C147.1 59.5998 162.3 74.7998 162.3 93.5998C162.3 112.4 147 127.6 128.3 127.6Z" fill="#FED443"/>
</g>
<defs>
<clipPath id="clip0_301_125">
<rect width="513" height="342" fill="white"/>
</clipPath>
</defs>
</svg>
