<svg width="513" height="342" viewBox="0 0 513 342" fill="none" xmlns="http://www.w3.org/2000/svg">
<g clip-path="url(#clip0_301_117)">
<path d="M0 0.00390625H513V341.997H0V0.00390625Z" fill="#D80027"/>
<path d="M0 237.914H513V341.996H0V237.914Z" fill="#6DA544"/>
<path d="M0 0.00390625H513V104.723H0V0.00390625Z" fill="#338AF3"/>
<path d="M0 125.789H513V215.62H0V125.789Z" fill="white"/>
<path d="M0 0.00390625H513V104.723H0V0.00390625Z" fill="#338AF3"/>
<path d="M189.057 52.3581C189.057 36.3429 200.313 22.9618 215.344 19.6804C212.989 19.1644 210.586 18.9034 208.175 18.9019C189.697 18.9019 174.719 33.8801 174.719 52.3581C174.719 70.8361 189.697 85.8143 208.175 85.8143C210.638 85.8143 213.034 85.5408 215.344 85.0358C200.313 81.7544 189.057 68.3733 189.057 52.3581ZM235.116 67.5647L237.382 74.5353H244.711L238.782 78.8447L241.047 85.8143L235.116 81.5059L229.187 85.8143L231.452 78.8447L225.523 74.5353H232.852L235.116 67.5647ZM258.51 67.5647L260.774 74.5353H268.104L262.174 78.8447L264.44 85.8143L258.51 81.5059L252.581 85.8143L254.845 78.8447L248.916 74.5353H256.245L258.51 67.5647ZM281.903 67.5647L284.167 74.5353H291.496L285.568 78.8447L287.832 85.8143L281.903 81.5059L275.973 85.8143L278.238 78.8447L272.308 74.5353H279.637L281.903 67.5647ZM305.295 67.5647L307.562 74.5353H314.891L308.96 78.8447L311.226 85.8143L305.295 81.5059L299.366 85.8143L301.632 78.8447L295.702 74.5353H303.03L305.295 67.5647ZM328.689 67.5647L330.953 74.5353H338.283L332.353 78.8447L334.618 85.8143L328.689 81.5059L322.759 85.8143L325.024 78.8447L319.095 74.5353H326.423L328.689 67.5647ZM258.51 43.2333L260.774 50.2029H268.104L262.174 54.5113L264.44 61.4819L258.51 57.1745L252.581 61.4819L254.845 54.5113L248.916 50.2029H256.245L258.51 43.2333ZM281.903 43.2333L284.167 50.2029H291.496L285.568 54.5113L287.832 61.4819L281.903 57.1745L275.973 61.4819L278.238 54.5113L272.308 50.2029H279.637L281.903 43.2333ZM305.295 43.2333L307.562 50.2029H314.891L308.96 54.5113L311.226 61.4819L305.295 57.1745L299.366 61.4819L301.632 54.5113L295.702 50.2029H303.03L305.295 43.2333ZM328.689 43.2333L330.953 50.2029H338.283L332.353 54.5113L334.618 61.4819L328.689 57.1745L322.759 61.4819L325.024 54.5113L319.095 50.2029H326.423L328.689 43.2333ZM281.903 18.9019L284.167 25.8714H291.496L285.568 30.1798L287.832 37.1504L281.903 32.842L275.973 37.1504L278.238 30.1798L272.308 25.8714H279.637L281.903 18.9019ZM305.295 18.9019L307.562 25.8714H314.891L308.96 30.1798L311.226 37.1504L305.295 32.842L299.366 37.1504L301.632 30.1798L295.702 25.8714H303.03L305.295 18.9019ZM328.689 18.9019L330.953 25.8714H338.283L332.353 30.1798L334.618 37.1504L328.689 32.842L322.759 37.1504L325.024 30.1798L319.095 25.8714H326.423L328.689 18.9019Z" fill="white"/>
</g>
<defs>
<clipPath id="clip0_301_117">
<rect width="513" height="342" fill="white"/>
</clipPath>
</defs>
</svg>
