<svg width="513" height="342" viewBox="0 0 513 342" fill="none" xmlns="http://www.w3.org/2000/svg">
<g clip-path="url(#clip0_301_112)">
<path d="M0 -0.00195312H513V341.991H0V-0.00195312Z" fill="#FFDA44"/>
<path d="M256.5 -0.00195312H513V342.002H256.5V-0.00195312Z" fill="white"/>
<path d="M321.981 148.794L354.117 191.307C349.054 198.973 349.081 209.303 354.935 217.049C362.364 226.875 376.351 228.82 386.178 221.393C396.004 213.964 397.949 199.977 390.521 190.15C384.666 182.404 374.734 179.561 365.978 182.339L315.892 116.081L304.031 125.048L286.237 138.498L304.171 162.221L321.981 148.794ZM368.246 197.669C369.025 197.081 369.912 196.651 370.857 196.405C371.802 196.159 372.787 196.102 373.754 196.236C374.721 196.371 375.652 196.694 376.494 197.189C377.336 197.683 378.073 198.338 378.662 199.117C379.25 199.896 379.68 200.783 379.926 201.728C380.172 202.673 380.229 203.658 380.095 204.625C379.96 205.592 379.637 206.523 379.142 207.365C378.648 208.207 377.993 208.944 377.214 209.532C375.641 210.722 373.659 211.237 371.706 210.966C369.753 210.694 367.988 209.658 366.798 208.085C365.609 206.511 365.094 204.53 365.365 202.577C365.637 200.624 366.673 198.859 368.246 197.669Z" fill="#ACABB1"/>
<path d="M377.102 162.223L395.036 138.5L377.243 125.05L365.382 116.083L315.296 182.341C306.539 179.561 296.609 182.405 290.753 190.152C283.325 199.979 285.269 213.966 295.096 221.395C304.923 228.823 318.91 226.878 326.339 217.051C332.195 209.305 332.221 198.975 327.157 191.309L359.293 148.796L377.102 162.223ZM314.476 208.084C313.287 209.657 311.522 210.693 309.569 210.965C307.615 211.236 305.634 210.721 304.061 209.531C302.488 208.342 301.452 206.577 301.18 204.624C300.909 202.67 301.424 200.689 302.613 199.116C303.202 198.337 303.939 197.682 304.781 197.187C305.623 196.693 306.554 196.37 307.521 196.235C308.488 196.101 309.472 196.158 310.417 196.404C311.362 196.65 312.25 197.079 313.029 197.668C313.808 198.257 314.463 198.994 314.957 199.836C315.451 200.678 315.775 201.609 315.91 202.576C316.044 203.543 315.987 204.527 315.741 205.472C315.495 206.417 315.065 207.305 314.476 208.084Z" fill="#FFDA44"/>
</g>
<defs>
<clipPath id="clip0_301_112">
<rect width="513" height="342" fill="white"/>
</clipPath>
</defs>
</svg>
