<svg width="513" height="342" viewBox="0 0 513 342" fill="none" xmlns="http://www.w3.org/2000/svg">
<g clip-path="url(#clip0_301_102)">
<path d="M0 0H513V114H0V0Z" fill="#FFCE00"/>
<path d="M0 114H513V228H0V114Z" fill="#203899"/>
<path d="M0 228H513V342H0V228Z" fill="#D82B2B"/>
<path d="M276.564 122.662L279.756 133.15L290.016 136.342L281.124 142.498L281.352 153.442L272.688 146.83L262.428 150.25L265.848 140.218L259.464 131.554H270.18L276.564 122.662ZM236.208 122.662L242.364 131.554H253.08L246.696 140.218L250.116 150.478L239.856 146.83L231.192 153.214L231.42 142.498L222.528 136.114L232.788 133.15L236.208 122.662ZM314.64 135.43L314.412 146.374L323.304 152.53L312.816 155.722L309.624 165.982L303.468 157.318H292.524L299.136 148.654L295.716 138.394L305.976 142.042L314.64 135.43ZM198.132 135.886L207.252 142.042L217.284 137.938L214.32 148.426L221.16 156.634L210.444 157.09L204.516 166.21L200.868 156.178L190.38 153.442L198.816 146.602L198.132 135.886ZM347.472 162.562L342.912 172.594L348.612 181.714L337.896 180.574L330.828 188.782L328.548 178.294L318.744 174.19L328.092 168.718L328.776 158.002L336.756 165.07L347.472 162.562ZM351.804 188.098L356.592 197.902L367.308 199.498L359.556 207.022L361.38 217.51L351.804 212.494L342.228 217.51L344.052 207.022L336.3 199.498L347.016 197.902L351.804 188.098ZM159.6 186.958L164.388 196.762L175.104 198.13L167.352 205.654L169.176 216.37L159.6 211.354L150.024 216.37L151.848 205.654L144.096 198.13L154.812 196.762L159.6 186.958ZM166.668 160.738L176.928 163.93L185.592 157.318V168.262L194.484 174.19L184.224 177.61L181.26 188.098L174.876 179.434L164.16 179.662L170.316 170.998L166.668 160.738Z" fill="white"/>
</g>
<defs>
<clipPath id="clip0_301_102">
<rect width="513" height="342" fill="white"/>
</clipPath>
</defs>
</svg>
