<svg width="513" height="342" viewBox="0 0 513 342" fill="none" xmlns="http://www.w3.org/2000/svg">
<g clip-path="url(#clip0_301_84)">
<path d="M0 0.000976562H513V342.005H0V0.000976562Z" fill="#0052B4"/>
<path d="M256.5 0.000976562V117.556H210.341L256.5 148.336V170.997H233.828L160.312 121.983V170.997H96.1875V121.983L22.6722 170.997H0V148.336L46.159 117.556H0V53.4311H46.159L0 22.6621V0.000976562H22.6722L96.1875 49.0035V0.000976562H160.312V49.0035L233.828 0.000976562H256.5Z" fill="white"/>
<path d="M144.281 -0.00292969H112.219V69.4655H0V101.528H112.219V170.997H144.281V101.528H256.5V69.4655H144.281V-0.00292969Z" fill="#D80027"/>
<path d="M0 -0.00390625V15.1086L57.4891 53.4343H80.1562L0 -0.00390625ZM256.5 -0.00390625V15.1086L199.011 53.4343H176.344L256.5 -0.00390625Z" fill="#D80027"/>
<path d="M256.5 22.6621V53.4341H210.341L256.5 22.6621Z" fill="#2E52B2"/>
<path d="M0 -0.00390625V15.1086L57.4891 53.4343H80.1562L0 -0.00390625ZM256.5 -0.00390625V15.1086L199.011 53.4343H176.344L256.5 -0.00390625Z" fill="#D80027"/>
<path d="M256.5 22.6621V53.4341H210.341L256.5 22.6621Z" fill="#2E52B2"/>
<path d="M0 170.997V155.886L57.4891 117.559H80.1562L0 170.997ZM256.5 170.997V155.886L199.011 117.559H176.344L256.5 170.997Z" fill="#D80027"/>
<path d="M384.75 174.714L338.531 220.933C347.193 237.64 364.633 249.062 384.75 249.062C404.868 249.062 422.308 237.639 430.969 220.933L384.75 174.714Z" fill="#FFDA44"/>
<path d="M332.707 92.9321V174.716C332.708 214.552 384.75 226.758 384.75 226.758C384.75 226.758 436.793 214.552 436.794 174.715V92.9321H332.707Z" fill="#6DA544"/>
<path d="M373.599 130.102H395.903V189.577H373.599V130.102Z" fill="white"/>
<path d="M384.75 141.253C390.909 141.253 395.902 136.261 395.902 130.102C395.902 123.943 390.909 118.95 384.75 118.95C378.591 118.95 373.599 123.943 373.599 130.102C373.599 136.261 378.591 141.253 384.75 141.253Z" fill="#A2001D"/>
<path d="M347.579 107.797H362.448V122.666H347.579V107.797ZM347.579 141.254H362.448V156.123H347.579V141.254ZM347.579 174.711H362.448V189.58H347.579V174.711ZM407.054 107.797H421.923V122.666H407.054V107.797ZM407.054 141.254H421.923V156.123H407.054V141.254ZM407.054 174.711H421.923V189.58H407.054V174.711Z" fill="#FFDA44"/>
</g>
<defs>
<clipPath id="clip0_301_84">
<rect width="513" height="342" fill="white"/>
</clipPath>
</defs>
</svg>
