<svg width="513" height="342" viewBox="0 0 513 342" fill="none" xmlns="http://www.w3.org/2000/svg">
<g clip-path="url(#clip0_301_67)">
<path d="M0 0H513V341.967H0V0Z" fill="white"/>
<path d="M398.477 166.625L347.377 264.516C346.275 266.519 347.076 269.024 349.181 270.127C351.184 271.229 353.689 270.427 354.792 268.323L405.891 170.432C406.893 168.328 405.991 165.823 403.887 164.921C401.883 164.02 399.579 164.721 398.477 166.625Z" fill="#1583C4"/>
<path d="M405.691 188.367L347.778 263.914C346.476 265.818 346.977 268.423 348.881 269.726C350.584 270.928 352.989 270.628 354.391 269.024L412.304 193.477C413.707 191.674 413.406 189.069 411.503 187.666C409.699 186.163 407.094 186.564 405.691 188.367Z" fill="#1583C4"/>
<path d="M379.74 181.654L347.177 264.916C346.375 267.021 347.377 269.525 349.581 270.327C351.685 271.129 354.19 270.127 354.992 267.922L387.555 184.66C388.257 182.456 387.154 180.151 384.95 179.35C382.846 178.748 380.642 179.75 379.74 181.654Z" fill="#1583C4"/>
<path d="M122.339 172.236C122.74 173.939 123.541 176.945 124.543 180.752C126.246 187.165 128.15 193.577 130.154 199.489C132.459 206.402 144.883 230.95 150.394 238.665C157.307 248.384 164.521 258.003 171.936 267.321C173.539 269.225 176.444 269.425 178.348 267.822C180.152 266.219 180.452 263.514 179.049 261.61C171.735 252.392 164.621 242.974 157.808 233.355C153.6 227.544 140.574 202.194 138.771 196.583C135.865 187.866 133.36 178.949 131.156 170.031C130.655 167.627 128.25 166.024 125.846 166.525C123.441 167.026 121.838 169.43 122.339 171.835C122.239 172.035 122.339 172.136 122.339 172.236Z" fill="#409347"/>
<path d="M297.68 115.124C297.68 115.124 280.046 42.8836 261.51 42.8836C254.596 42.8836 249.587 42.2824 246.08 49.2961C245.178 50.9994 225.339 47.693 226.942 70.1367C227.443 77.0502 228.045 60.3176 241.871 66.7301C248.184 69.7359 225.439 115.024 225.439 115.024H297.68V115.124Z" fill="#FFD836"/>
<path fill-rule="evenodd" clip-rule="evenodd" d="M260.01 42.3767C260.502 42.3801 261.002 42.3836 261.51 42.3836C263.995 42.3836 266.411 43.5936 268.715 45.6115C271.022 47.6313 273.262 50.4978 275.405 53.905C279.692 60.7209 283.648 69.7886 287.015 78.8295C290.384 87.8757 293.171 96.919 295.116 103.699C296.089 107.089 296.851 109.915 297.37 111.893C297.63 112.883 297.829 113.66 297.963 114.191C297.994 114.316 298.022 114.427 298.046 114.524H298.18V119.281L297.263 115.524H224.629L224.993 114.8L225.44 115.024C224.993 114.8 224.993 114.8 224.993 114.8L224.994 114.798L225.057 114.671C225.1 114.585 225.163 114.458 225.246 114.293C225.41 113.961 225.651 113.474 225.955 112.852C226.564 111.61 227.427 109.831 228.443 107.687C230.475 103.398 233.117 97.6506 235.561 91.8113C238.008 85.9673 240.248 80.0499 241.484 75.4153C242.103 73.0935 242.461 71.1256 242.478 69.6624C242.486 68.9302 242.409 68.3564 242.257 67.9382C242.109 67.5287 241.902 67.2991 241.659 67.1824C238.281 65.6164 235.775 65.492 233.91 66.011C232.041 66.5312 230.737 67.7193 229.806 68.9266C229.34 69.5301 228.972 70.1334 228.675 70.6541C228.585 70.8107 228.499 70.966 228.417 71.1139C228.24 71.4335 228.082 71.718 227.953 71.9035C227.903 71.9766 227.845 72.0532 227.779 72.1195C227.721 72.179 227.617 72.272 227.469 72.3178C227.283 72.3752 227.084 72.3407 226.927 72.218C226.801 72.1198 226.736 71.991 226.7 71.9066C226.626 71.7322 226.581 71.4966 226.545 71.2349C226.508 70.9604 226.475 70.6083 226.444 70.1728C226.038 64.4903 226.986 60.3828 228.696 57.4026C230.408 54.4192 232.857 52.6118 235.367 51.4827C237.869 50.357 240.44 49.9017 242.413 49.6199C242.747 49.5722 243.06 49.5298 243.352 49.4904C243.936 49.4117 244.433 49.3445 244.841 49.2685C245.146 49.2119 245.368 49.1557 245.519 49.0976C245.598 49.0674 245.636 49.0443 245.652 49.034C247.457 45.4433 249.684 43.7453 252.381 42.9788C254.629 42.3396 257.194 42.3573 260.01 42.3767ZM226.247 114.524H297.015C297.008 114.495 297.001 114.466 296.993 114.436C296.86 113.908 296.662 113.133 296.403 112.147C295.885 110.175 295.125 107.357 294.155 103.975C292.214 97.2093 289.434 88.1924 286.078 79.1785C282.719 70.1592 278.791 61.1667 274.558 54.4374C272.441 51.072 270.262 48.2947 268.057 46.3639C265.849 44.4311 263.659 43.3836 261.51 43.3836C260.985 43.3836 260.473 43.3803 259.976 43.3772C257.15 43.3592 254.753 43.344 252.654 43.9406C250.25 44.6242 248.225 46.123 246.527 49.5197L246.522 49.5301C246.376 49.806 246.094 49.9478 245.878 50.0309C245.64 50.1225 245.346 50.1918 245.024 50.2516C244.592 50.3321 244.053 50.405 243.452 50.4862C243.165 50.5249 242.864 50.5656 242.554 50.6098C240.604 50.8885 238.147 51.3287 235.777 52.3947C233.415 53.4574 231.148 55.1381 229.563 57.9003C227.976 60.6656 227.046 64.5616 227.441 70.1009C227.458 70.3362 227.475 70.541 227.493 70.7181C227.497 70.7104 227.501 70.7027 227.505 70.6949C227.592 70.5381 227.691 70.3595 227.806 70.1582C228.114 69.6187 228.509 68.9711 229.014 68.3159C230.024 67.0058 231.494 65.6452 233.642 65.0476C235.794 64.4489 238.548 64.6374 242.082 66.2765L242.087 66.2786C242.631 66.538 242.986 67.0143 243.197 67.5973C243.406 68.1728 243.487 68.8802 243.478 69.674C243.459 71.2629 243.076 73.3263 242.45 75.6729C241.197 80.3753 238.934 86.3435 236.484 92.1974C234.031 98.0559 231.382 103.818 229.347 108.115C228.329 110.264 227.464 112.046 226.853 113.292C226.608 113.794 226.404 114.208 226.247 114.524ZM227.066 71.4184C227.062 71.4225 227.062 71.4229 227.066 71.4184V71.4184Z" fill="#231F20"/>
<path d="M467.011 48.4945L375.933 70.5375C300.486 88.8732 333.751 115.024 333.751 115.024L261.51 127.048L189.269 115.024C189.269 115.024 222.534 88.8732 147.087 70.5375L56.0095 48.4945C43.1845 45.3885 38.1747 51.9012 45.3888 63.123C45.3888 63.123 152.197 167.326 172.436 175.342C192.676 183.458 213.316 175.342 213.316 175.342C213.316 175.342 198.387 184.059 189.269 199.389C180.051 214.719 184.66 234.156 150.293 239.667C144.783 246.28 145.284 253.695 153.199 259.606C161.114 265.417 225.44 211.412 225.44 211.412C225.44 211.412 201.393 235.86 201.393 247.583C201.393 252.693 245.579 301.488 261.61 301.488C277.642 301.488 321.828 252.693 321.828 247.583C321.828 235.86 297.781 211.412 297.781 211.412C297.781 211.412 362.106 265.417 370.022 259.606C377.937 253.795 381.444 240.268 372.827 239.667C344.772 237.864 343.069 214.719 333.851 199.389C324.633 184.059 309.804 175.342 309.804 175.342C309.804 175.342 330.444 183.458 350.684 175.342C370.923 167.226 477.631 63.123 477.631 63.123C484.845 51.9012 479.936 45.3885 467.011 48.4945Z" fill="#FFD836"/>
<path fill-rule="evenodd" clip-rule="evenodd" d="M56.1271 48.0086C56.127 48.0086 56.1271 48.0086 56.1271 48.0086L147.205 70.0515C166.093 74.6419 178.225 79.7319 185.786 84.8088C193.353 89.8897 196.386 94.9902 196.967 99.5941C197.546 104.183 195.672 108.151 193.696 110.941C192.705 112.339 191.68 113.455 190.902 114.221C190.718 114.402 190.548 114.563 190.396 114.705L261.51 126.541L332.624 114.705C332.471 114.563 332.302 114.402 332.118 114.221C331.34 113.455 330.315 112.339 329.324 110.941C327.348 108.151 325.474 104.183 326.053 99.5941C326.634 94.9902 329.667 89.8897 337.234 84.8088C344.795 79.7319 356.927 74.642 375.815 70.0516L466.893 48.0085C470.165 47.2223 472.966 47.0352 475.217 47.3982C477.471 47.7616 479.206 48.6835 480.276 50.1398C481.347 51.5977 481.694 53.5136 481.326 55.7475C480.959 57.9768 479.878 60.5526 478.052 63.3934L478.021 63.4412L477.98 63.4809L477.631 63.123C477.98 63.4809 477.98 63.4813 477.979 63.4821L477.976 63.4857L477.673 63.7801C477.471 63.9774 477.17 64.2703 476.776 64.6527C475.99 65.4174 474.833 66.5399 473.354 67.9713C470.397 70.8342 466.149 74.9331 460.988 79.877C450.666 89.7646 436.693 103.033 422.087 116.556C407.482 130.078 392.24 143.857 379.381 154.765C372.953 160.219 367.115 164.958 362.249 168.59C357.396 172.212 353.468 174.764 350.87 175.806C340.644 179.906 330.33 179.902 322.589 178.881C318.716 178.37 315.48 177.604 313.21 176.964C313.188 176.958 313.165 176.952 313.143 176.946C314.626 177.99 316.548 179.427 318.693 181.234C323.578 185.351 329.633 191.404 334.28 199.131C336.458 202.755 338.219 206.807 339.987 210.877C340.106 211.15 340.224 211.423 340.343 211.696C342.239 216.053 344.178 220.405 346.696 224.33C349.21 228.25 352.293 231.731 356.463 234.345C360.632 236.958 365.916 238.722 372.859 239.168L372.862 239.168C375.168 239.329 376.73 240.372 377.579 241.986C378.411 243.567 378.521 245.624 378.115 247.775C377.303 252.08 374.38 257.027 370.317 260.009C369.682 260.475 368.824 260.602 367.864 260.521C366.896 260.439 365.752 260.141 364.473 259.673C361.913 258.737 358.72 257.085 355.139 254.957C347.972 250.698 339.172 244.479 330.633 238.089C322.091 231.696 313.798 225.123 307.641 220.149C306.034 218.851 304.573 217.661 303.291 216.612C305.327 218.894 307.761 221.722 310.196 224.791C313.209 228.589 316.232 232.766 318.504 236.737C320.765 240.689 322.328 244.512 322.328 247.583C322.328 248.035 322.1 248.621 321.772 249.258C321.432 249.922 320.937 250.727 320.311 251.647C319.059 253.489 317.259 255.828 315.058 258.48C310.653 263.788 304.617 270.378 298.081 276.808C291.547 283.236 284.501 289.514 278.076 294.188C274.865 296.525 271.798 298.469 269.02 299.83C266.252 301.187 263.727 301.988 261.61 301.988C259.493 301.988 256.968 301.187 254.2 299.83C251.422 298.469 248.356 296.525 245.144 294.188C238.719 289.514 231.674 283.236 225.139 276.808C218.603 270.378 212.567 263.788 208.163 258.48C205.961 255.828 204.161 253.489 202.909 251.647C202.284 250.727 201.789 249.922 201.448 249.258C201.121 248.621 200.893 248.035 200.893 247.583C200.893 244.512 202.455 240.689 204.716 236.737C206.988 232.766 210.011 228.589 213.024 224.791C215.459 221.722 217.893 218.894 219.93 216.612C218.647 217.661 217.186 218.85 215.579 220.149C209.422 225.123 201.129 231.696 192.587 238.089C184.048 244.479 175.248 250.698 168.081 254.957C164.5 257.085 161.307 258.737 158.747 259.673C157.468 260.141 156.325 260.439 155.357 260.521C154.396 260.602 153.538 260.475 152.903 260.009L152.9 260.007C148.868 256.995 146.662 253.553 146.215 249.961C145.768 246.369 147.091 242.728 149.909 239.347L150.029 239.203L150.214 239.173C158.761 237.803 164.848 235.572 169.321 232.78C173.787 229.992 176.666 226.631 178.779 222.961C180.831 219.394 182.159 215.539 183.517 211.599C183.561 211.47 183.606 211.341 183.65 211.212C185.05 207.152 186.505 203.016 188.84 199.133C188.84 199.132 188.84 199.132 188.841 199.131L189.268 199.388L188.84 199.133C188.84 199.133 188.84 199.133 188.84 199.133C193.436 191.404 199.492 185.351 204.39 181.234C206.535 179.431 208.46 177.997 209.948 176.954C211.065 176.638 211.946 176.354 212.551 176.148C212.857 176.043 213.092 175.959 213.252 175.9C213.332 175.871 213.393 175.848 213.434 175.832L213.481 175.814L213.494 175.809L213.497 175.808L213.498 175.807C213.499 175.807 213.499 175.807 213.316 175.342C213.064 174.91 213.064 174.91 213.063 174.91L213.06 174.912L213.051 174.917L213.017 174.937C212.988 174.955 212.944 174.981 212.887 175.016C212.773 175.085 212.606 175.187 212.39 175.323C211.959 175.595 211.335 175.999 210.558 176.531C210.364 176.664 210.161 176.805 209.948 176.954C209.936 176.957 209.923 176.961 209.91 176.964C207.641 177.604 204.404 178.37 200.531 178.881C192.791 179.902 182.477 179.906 172.252 175.806C172.252 175.806 172.252 175.807 172.252 175.806L172.436 175.342L172.25 175.806C172.251 175.806 172.251 175.806 172.252 175.806C169.653 174.777 165.722 172.234 160.868 168.62C155.998 164.994 150.157 160.259 143.723 154.807C130.856 143.904 115.601 130.122 100.983 116.594C86.3643 103.065 72.3786 89.7866 62.0478 79.8911C56.8824 74.9433 52.6305 70.8409 49.6699 67.9754C48.1896 66.5427 47.0321 65.4192 46.2446 64.6538C45.8509 64.2711 45.5497 63.9779 45.3468 63.7804L45.0407 63.4821C45.0399 63.4813 45.0395 63.4809 45.3887 63.123L45.8092 62.8527C45.799 62.8367 45.7888 62.8208 45.7786 62.8049L46.0445 63.064C46.2471 63.2613 46.5481 63.5542 46.9416 63.9367C47.7286 64.7016 48.8856 65.8247 50.3653 67.2569C53.3249 70.1213 57.5755 74.2225 62.7395 79.1689C73.0678 89.062 87.0491 102.336 101.662 115.86C116.276 129.384 131.519 143.155 144.37 154.045C150.796 159.489 156.619 164.21 161.465 167.817C166.325 171.436 170.159 173.902 172.62 174.877L172.622 174.878C182.636 178.893 192.762 178.897 200.401 177.889C204.218 177.386 207.406 176.631 209.639 176.002C210.755 175.687 211.632 175.405 212.228 175.201C212.526 175.1 212.754 175.018 212.907 174.962C212.983 174.934 213.04 174.912 213.078 174.898L213.12 174.881L213.133 174.877L213.568 175.773L213.566 175.775L213.559 175.779L213.528 175.797C213.511 175.808 213.487 175.822 213.457 175.84C213.441 175.849 213.424 175.86 213.405 175.871C213.296 175.937 213.134 176.037 212.923 176.169C212.502 176.434 211.889 176.831 211.123 177.356C209.593 178.405 207.455 179.964 205.033 181.999C200.188 186.073 194.22 192.043 189.699 199.644L189.698 199.646C187.424 203.428 185.998 207.469 184.596 211.537L184.451 211.957C183.103 215.872 181.747 219.808 179.645 223.459C177.462 227.254 174.473 230.743 169.85 233.629C165.267 236.49 159.099 238.743 150.559 240.131C150.598 240.083 150.637 240.035 150.677 239.987L150.293 239.667L150.372 240.161C150.435 240.151 150.497 240.141 150.559 240.131C147.95 243.318 146.809 246.64 147.207 249.838C147.612 253.084 149.614 256.304 153.495 259.203C153.495 259.203 153.496 259.204 153.495 259.203L153.199 259.606L153.498 259.205C153.497 259.205 153.496 259.204 153.495 259.203C153.85 259.463 154.421 259.596 155.273 259.524C156.116 259.453 157.166 259.187 158.404 258.734C160.877 257.829 164.007 256.215 167.57 254.098C174.691 249.866 183.456 243.673 191.988 237.288C200.517 230.906 208.799 224.341 214.951 219.371C218.026 216.886 220.569 214.8 222.342 213.336C223.228 212.604 223.923 212.027 224.395 211.633C224.632 211.436 224.812 211.285 224.934 211.183L225.107 211.039L225.115 211.032L225.117 211.03C225.118 211.029 225.118 211.029 225.44 211.412C225.796 211.763 225.796 211.763 225.796 211.763L225.779 211.78L225.728 211.832C225.683 211.878 225.616 211.947 225.529 212.037C225.354 212.218 225.096 212.485 224.769 212.83C224.113 213.519 223.176 214.517 222.052 215.752C219.803 218.222 216.805 221.635 213.808 225.412C210.81 229.191 207.821 233.324 205.584 237.234C203.336 241.163 201.893 244.791 201.893 247.583C201.893 247.769 202.01 248.163 202.338 248.802C202.652 249.414 203.122 250.182 203.736 251.085C204.963 252.89 206.741 255.201 208.932 257.842C213.313 263.121 219.326 269.687 225.84 276.095C232.356 282.504 239.363 288.745 245.732 293.379C248.917 295.697 251.933 297.605 254.64 298.932C257.357 300.264 259.719 300.988 261.61 300.988C263.501 300.988 265.863 300.264 268.58 298.932C271.288 297.605 274.303 295.697 277.488 293.379C283.857 288.745 290.864 282.504 297.38 276.095C303.894 269.687 309.907 263.121 314.288 257.842C316.48 255.201 318.257 252.89 319.484 251.085C320.098 250.182 320.568 249.414 320.883 248.802C321.21 248.163 321.328 247.769 321.328 247.583C321.328 244.791 319.884 241.163 317.636 237.234C315.399 233.324 312.411 229.191 309.412 225.412C306.416 221.635 303.418 218.222 301.168 215.752C300.044 214.517 299.107 213.519 298.452 212.83C298.331 212.704 298.22 212.587 298.12 212.482C297.946 212.301 297.802 212.152 297.691 212.037C297.604 211.947 297.537 211.878 297.492 211.832L297.441 211.78L297.424 211.763C297.424 211.763 297.424 211.763 297.476 211.712L297.424 211.763L298.102 211.029L298.08 211.057C298.103 211.029 298.102 211.029 298.102 211.029L298.105 211.032L298.114 211.039L298.286 211.183C298.408 211.285 298.589 211.436 298.825 211.633C299.298 212.027 299.992 212.604 300.879 213.336C302.652 214.8 305.194 216.886 308.269 219.371C314.421 224.341 322.704 230.906 331.232 237.288C339.764 243.673 348.53 249.866 355.65 254.098C359.213 256.215 362.344 257.829 364.817 258.734C366.054 259.187 367.104 259.453 367.948 259.524C368.8 259.596 369.371 259.463 369.726 259.203C373.579 256.374 376.366 251.652 377.132 247.59C377.516 245.559 377.381 243.758 376.694 242.452C376.025 241.18 374.795 240.306 372.794 240.166C365.71 239.71 360.261 237.905 355.932 235.192C351.605 232.48 348.425 228.878 345.854 224.87C343.287 220.868 341.319 216.446 339.426 212.095C339.31 211.827 339.193 211.56 339.077 211.292C337.302 207.206 335.566 203.211 333.422 199.646C328.851 192.044 322.882 186.073 318.049 181.999C315.633 179.963 313.505 178.404 311.982 177.355C311.22 176.831 310.61 176.434 310.192 176.169C310.07 176.091 309.964 176.025 309.876 175.971C309.813 175.931 309.758 175.898 309.713 175.87C309.658 175.837 309.617 175.813 309.59 175.796L309.56 175.778L309.553 175.774L309.551 175.773L309.987 174.877L309.99 174.877L310 174.881L310.042 174.898C310.08 174.912 310.137 174.934 310.214 174.962C310.366 175.018 310.594 175.1 310.892 175.201C311.488 175.405 312.365 175.687 313.481 176.002C315.714 176.631 318.902 177.386 322.72 177.889C330.358 178.897 340.484 178.893 350.498 174.878C352.96 173.89 356.793 171.414 361.65 167.789C366.493 164.175 372.313 159.45 378.734 154.002C391.576 143.108 406.806 129.34 421.408 115.822C436.008 102.305 449.977 89.0401 460.296 79.1549C465.455 74.2123 469.702 70.1147 472.659 67.2528C474.137 65.8218 475.293 64.6998 476.079 63.9356C476.473 63.5535 476.773 63.2608 476.976 63.0637L477.241 62.8049C479.003 60.0544 480.004 57.6242 480.339 55.5851C480.676 53.5388 480.34 51.9165 479.47 50.7318C478.599 49.5454 477.134 48.7202 475.058 48.3854C472.979 48.0502 470.319 48.2138 467.128 48.9805M467.128 48.9805L376.051 71.0233C357.216 75.6008 345.213 80.6557 337.792 85.639C330.376 90.6184 327.579 95.4935 327.045 99.7194C326.51 103.96 328.237 107.676 330.14 110.363C331.089 111.702 332.073 112.773 332.82 113.509C333.193 113.876 333.506 114.159 333.724 114.349C333.833 114.444 333.918 114.516 333.976 114.563C334.005 114.587 334.026 114.604 334.04 114.616L334.056 114.628L334.059 114.631L334.951 115.331L261.51 127.555L188.069 115.331L188.96 114.631L188.964 114.628L188.979 114.616C188.994 114.604 189.015 114.587 189.044 114.563C189.101 114.516 189.187 114.444 189.296 114.349C189.514 114.159 189.827 113.876 190.2 113.509C190.947 112.773 191.931 111.702 192.88 110.363C194.783 107.676 196.51 103.96 195.975 99.7194C195.441 95.4935 192.644 90.6184 185.228 85.639C177.807 80.6558 165.804 75.6009 146.969 71.0235M146.969 71.0235L55.8917 48.9805C52.7264 48.2139 50.079 48.0502 48.0046 48.3854C45.933 48.7201 44.4645 49.5454 43.5864 50.733C42.7098 51.9188 42.3657 53.5415 42.6948 55.5869C43.0229 57.6253 44.0172 60.0549 45.7786 62.8049L45.739 62.7663C45.7382 62.7655 45.7378 62.7651 45.3887 63.123L45.0395 63.4809L44.9988 63.4412L44.9681 63.3934C43.1415 60.5521 42.0664 57.9758 41.7075 55.7458C41.3479 53.5109 41.7052 51.5955 42.7823 50.1386C43.8581 48.6835 45.5958 47.7617 47.8451 47.3982C50.0917 47.0352 52.8799 47.2222 56.1271 48.0086M225.44 211.412L225.796 211.763L225.117 211.03L225.44 211.412Z" fill="#231F20"/>
<path d="M201.693 112.018V192.475C201.693 238.264 261.51 252.292 261.51 252.292C261.51 252.292 321.327 238.264 321.327 192.475V112.018H201.693Z" fill="white"/>
<path fill-rule="evenodd" clip-rule="evenodd" d="M201.693 111.518H321.827V192.475C321.827 215.623 306.699 230.71 291.681 239.98C284.166 244.618 276.656 247.816 271.027 249.855C268.211 250.874 265.864 251.604 264.219 252.08C263.397 252.318 262.75 252.492 262.308 252.607C262.086 252.665 261.917 252.707 261.801 252.736C261.744 252.75 261.7 252.76 261.67 252.768L261.636 252.776L261.628 252.778L261.625 252.778C261.625 252.779 261.624 252.779 261.51 252.292C261.396 252.779 261.395 252.779 261.395 252.778L261.392 252.778L261.384 252.776L261.35 252.768C261.32 252.76 261.276 252.75 261.219 252.736C261.103 252.707 260.933 252.665 260.712 252.607C260.27 252.492 259.623 252.318 258.801 252.08C257.156 251.604 254.809 250.874 251.993 249.855C246.364 247.816 238.854 244.618 231.339 239.98C216.321 230.71 201.193 215.623 201.193 192.475V112.018H201.693V111.518ZM202.193 112.518V192.475C202.193 215.117 216.974 229.938 231.864 239.129C239.304 243.721 246.748 246.892 252.334 248.914C255.126 249.925 257.452 250.649 259.079 251.119C259.892 251.354 260.53 251.526 260.964 251.639C261.181 251.696 261.347 251.737 261.458 251.765C261.477 251.769 261.494 251.774 261.51 251.777C261.526 251.774 261.543 251.769 261.562 251.765C261.673 251.737 261.839 251.696 262.056 251.639C262.49 251.526 263.128 251.354 263.941 251.119C265.568 250.649 267.894 249.925 270.686 248.914C276.272 246.892 283.716 243.721 291.156 239.129C306.046 229.938 320.827 215.117 320.827 192.475V112.518H202.193ZM261.51 252.292L261.396 252.779L261.51 252.805L261.624 252.779L261.51 252.292Z" fill="#231F20"/>
<path d="M225.64 137.969V235.459C233.856 241.471 242.673 245.679 249.586 248.384V137.969H225.64ZM297.379 137.969V235.459C289.163 241.471 280.346 245.679 273.433 248.384V137.969H297.379Z" fill="#D80027"/>
<path d="M201.693 112.018H321.327V149.992H201.693V112.018Z" fill="#0052B4"/>
<path d="M60.2172 210.911L38.2744 152.698H15.7305L47.5926 233.655H72.8418L104.403 152.698H81.8594L60.2172 210.911ZM452.382 152.197H471.319V234.056H452.382V152.197Z" fill="#1583C4"/>
</g>
<defs>
<clipPath id="clip0_301_67">
<rect width="513" height="341.967" fill="white"/>
</clipPath>
</defs>
</svg>
