<svg width="513" height="342" viewBox="0 0 513 342" fill="none" xmlns="http://www.w3.org/2000/svg">
<g clip-path="url(#clip0_301_56)">
<path d="M0 0.00390625H513V341.997H0V0.00390625Z" fill="black"/>
<path d="M513 171V341.997H0L215.605 171H513Z" fill="#6DA544"/>
<path d="M513 0.00390625V171H215.605L0 0.00390625H513Z" fill="#D80027"/>
<path d="M221.433 154.272L26.9205 0.00390625H8.97349L217.548 165.424H513V154.272H221.433ZM8.97349 341.997H26.9205L221.433 187.729H513V176.576H217.548L8.97349 341.997ZM0 7.12078V21.3545L188.685 171L0 320.646V334.879L206.632 171L0 7.12078Z" fill="black"/>
<path d="M8.97349 0.00390625H0V7.12078L206.632 171L0 334.879V341.997H8.97349L217.548 176.576H513V165.424H217.548L8.97349 0.00390625Z" fill="#FFDA44"/>
<path d="M63.8429 207.453V193.131C78.1358 193.131 89.7634 181.502 89.7634 167.211C89.7634 157.099 81.5364 148.872 71.4237 148.872C64.5352 148.872 58.9303 154.476 58.9303 161.366C58.9303 165.771 62.5143 169.355 66.9199 169.355C68.1173 169.354 69.2653 168.877 70.112 168.03C70.9587 167.184 71.4351 166.036 71.4367 164.838H85.7596C85.7596 175.227 77.3081 183.679 66.9209 183.679C54.6179 183.677 44.6084 173.667 44.6084 161.365C44.6084 146.578 56.6379 134.548 71.4247 134.548C89.4348 134.548 104.087 149.2 104.087 167.211C104.087 189.399 86.0341 207.453 63.8429 207.453Z" fill="#FFDA44"/>
</g>
<defs>
<clipPath id="clip0_301_56">
<rect width="513" height="342" fill="white"/>
</clipPath>
</defs>
</svg>
