<svg width="513" height="342" viewBox="0 0 513 342" fill="none" xmlns="http://www.w3.org/2000/svg">
<g clip-path="url(#clip0_301_45)">
<path d="M0 -0.00195312H513V342.002H0V-0.00195312Z" fill="#D80027"/>
<path d="M0 -0.00195312H256.5V170.994H0V-0.00195312Z" fill="#0052B4"/>
<path d="M165.806 96.6453L168.575 105.166H177.532L170.286 110.43L173.054 118.95L165.806 113.685L158.559 118.95L161.327 110.43L154.08 105.166H163.038L165.806 96.6453ZM120.814 29.7319L125.429 43.9326H140.358L128.28 52.7067L132.894 66.9054L120.814 58.1303L108.737 66.9054L113.351 52.7067L101.271 43.9326H116.201L120.814 29.7319ZM165.423 44.6019L170.038 58.8016H184.967L172.889 67.5757L177.502 81.7764L165.423 72.9993L153.346 81.7764L157.959 67.5757L145.88 58.8016H160.809L165.423 44.6019ZM130.163 104.081L134.778 118.281H149.707L137.628 127.056L142.241 141.254L130.163 132.478L118.085 141.254L122.698 127.056L110.619 118.281H125.549L130.163 104.081ZM91.0763 66.9054L95.6903 81.1061H110.619L98.5409 89.8802L103.154 104.081L91.0763 95.3037L78.9978 104.081L83.6108 89.8802L71.5322 81.1061H86.4613L91.0763 66.9054Z" fill="white"/>
</g>
<defs>
<clipPath id="clip0_301_45">
<rect width="513" height="342" fill="white"/>
</clipPath>
</defs>
</svg>
