<svg width="513" height="342" viewBox="0 0 513 342" fill="none" xmlns="http://www.w3.org/2000/svg">
<g clip-path="url(#clip0_301_40)">
<path d="M0 0H513V342.007H0V0Z" fill="#0052B4"/>
<path d="M221.151 42.7133L229.117 58.8548L246.922 61.4398L234.037 74.0043L237.082 91.7389L221.151 83.3626L205.22 91.7389L208.256 74.0043L195.371 61.4398L213.186 58.8548L221.151 42.7133ZM291.849 42.6532L299.815 58.7846L317.63 61.3797L304.744 73.9342L307.78 91.6788L291.849 83.3024L275.918 91.6788L278.964 73.9342L266.079 61.3797L283.884 58.7846L291.849 42.6532ZM354.05 54.0354L362.016 70.1769L379.821 72.7619L366.936 85.3264L369.982 103.061L354.05 94.6946L338.119 103.061L341.165 85.3264L328.27 72.7619L346.085 70.1769L354.05 54.0354ZM417.184 72.3711L425.149 88.5126L442.954 91.1077L430.069 103.662L433.115 121.407L417.184 113.03L401.253 121.407L404.288 103.662L391.403 91.1077L409.218 88.5126L417.184 72.3711ZM158.95 54.0354L166.916 70.1769L184.73 72.7619L171.835 85.3264L174.881 103.061L158.95 94.6946L143.019 103.061L146.065 85.3264L133.18 72.7619L150.985 70.1769L158.95 54.0354ZM95.8171 72.3711L103.783 88.5126L121.597 91.1077L108.712 103.662L111.748 121.407L95.8171 113.03L79.8861 121.407L82.932 103.662L70.0469 91.1077L87.8516 88.5126L95.8171 72.3711Z" fill="white"/>
<path d="M217.955 259.836L190.681 246.2L163.408 191.664H190.681L217.955 164.39L231.591 137.117L258.864 123.481L272.501 137.117L299.774 150.754V164.39L313.411 178.027L354.32 205.3L340.664 246.21L299.754 287.12L286.117 259.847L245.208 287.12V314.393L231.571 300.756L217.955 259.836Z" fill="#FFDA44"/>
</g>
<defs>
<clipPath id="clip0_301_40">
<rect width="513" height="341.997" fill="white"/>
</clipPath>
</defs>
</svg>
