<svg width="513" height="342" viewBox="0 0 513 342" fill="none" xmlns="http://www.w3.org/2000/svg">
<g clip-path="url(#clip0_301_27)">
<path d="M0 0H513V342H0V0Z" fill="white"/>
<path d="M430.92 225.719C424.65 229.709 430.92 235.979 427.5 236.549C424.08 237.119 418.95 228.569 426.36 222.299C435.48 213.749 459.42 222.299 459.99 246.809C459.99 259.349 454.86 285.569 418.95 285.569C375.63 285.569 353.97 253.079 353.97 220.589C353.97 193.229 375.06 143.639 391.02 137.369C408.69 130.529 429.21 117.419 429.78 108.869C429.78 106.019 421.8 108.299 410.97 113.999C393.3 123.689 373.35 128.249 373.35 121.979C373.35 115.709 389.88 104.309 396.15 95.7592C402.99 86.6392 401.28 64.4092 413.25 64.4092C456.57 64.4092 469.68 108.299 453.15 131.099C442.32 145.919 477.66 136.799 477.66 136.799C477.66 136.799 477.66 167.009 459.42 178.409C442.32 188.669 432.06 200.639 432.06 200.639C432.06 200.639 433.2 174.419 429.21 178.409C425.79 182.399 365.94 204.059 370.5 246.809C372.21 263.909 396.15 277.589 418.95 276.449C441.75 275.309 451.44 262.769 452.01 248.519C452.58 226.289 434.91 223.439 430.92 225.719ZM60.9898 248.519C61.5598 262.769 71.2498 275.309 94.0498 276.449C116.85 277.589 140.79 263.909 142.5 246.809C147.06 204.059 87.2098 182.399 83.7898 178.409C79.7998 174.419 80.9398 200.639 80.9398 200.639C80.9398 200.639 70.6798 188.669 53.5798 178.409C35.3398 167.009 35.3398 136.799 35.3398 136.799C35.3398 136.799 70.6798 145.919 59.8498 131.099C43.3198 108.299 56.4298 64.4092 99.7498 64.4092C111.72 64.4092 110.01 86.6392 116.85 95.7592C123.12 104.309 139.65 115.709 139.65 121.979C139.65 128.249 119.7 123.689 102.03 113.999C91.1998 108.299 83.2198 106.019 83.2198 108.869C83.7898 117.419 104.31 130.529 121.98 137.369C137.94 143.639 159.03 193.229 159.03 220.589C159.03 253.079 137.37 285.569 94.0498 285.569C58.1398 285.569 53.0098 259.349 53.0098 246.809C53.5798 222.299 77.5198 213.749 86.6398 222.299C93.4798 228.569 88.9198 237.689 85.4998 236.549C82.0798 235.979 88.9198 229.709 82.0798 225.719C78.6598 223.439 60.9898 226.289 60.9898 248.519Z" fill="#ABABAB"/>
<path fill-rule="evenodd" clip-rule="evenodd" d="M57.4688 89.2582C50.8596 103.045 51.7166 119.668 59.951 131.026C61.3098 132.885 61.9586 134.387 62.0309 135.592C62.1039 136.808 61.5875 137.708 60.6598 138.345C59.7403 138.976 58.4186 139.349 56.8692 139.539C55.3172 139.73 53.5234 139.739 51.649 139.631C47.8999 139.417 43.8144 138.739 40.6682 138.115C39.0946 137.803 37.7551 137.505 36.8088 137.284C36.3357 137.173 35.9608 137.083 35.7042 137.019C35.6079 136.996 35.5282 136.976 35.4663 136.96C35.4669 137.009 35.4679 137.069 35.4693 137.139C35.4737 137.362 35.4826 137.691 35.5004 138.114C35.5359 138.961 35.607 140.183 35.7493 141.686C36.0339 144.692 36.603 148.817 37.741 153.298C40.0183 162.265 44.567 172.628 53.645 178.302C62.2033 183.438 69.0496 189 73.7564 193.279C76.11 195.419 77.929 197.238 79.1598 198.522C79.7752 199.164 80.2436 199.673 80.5583 200.021C80.6532 200.126 80.7341 200.216 80.8008 200.291C80.7937 200.103 80.7843 199.844 80.7737 199.524C80.7503 198.815 80.7214 197.806 80.6991 196.607C80.6545 194.21 80.6367 191.055 80.7437 188.024C80.8506 184.995 81.0823 182.081 81.5397 180.17C81.6542 179.692 81.7836 179.273 81.9302 178.93C82.0762 178.588 82.2427 178.313 82.4355 178.128C82.6314 177.941 82.8597 177.844 83.1163 177.877C83.366 177.909 83.6195 178.062 83.8782 178.321L83.885 178.328C84.0847 178.56 84.5028 178.87 85.1288 179.259C85.7506 179.645 86.5639 180.102 87.541 180.63C88.4052 181.098 89.3957 181.621 90.4929 182.2C90.6358 182.275 90.7805 182.352 90.927 182.429C92.1979 183.1 93.6011 183.843 95.1069 184.658C101.13 187.919 108.796 192.34 116.213 197.975C131.042 209.239 144.911 225.379 142.624 246.822M35.3398 136.799L35.3711 136.678L35.2148 136.638L35.2148 136.799H35.3398ZM101.971 114.109C110.814 118.959 120.23 122.526 127.439 124.096C131.042 124.881 134.106 125.17 136.274 124.864C137.358 124.711 138.231 124.408 138.835 123.932C139.445 123.452 139.775 122.802 139.775 121.979C139.775 121.169 139.508 120.285 139.039 119.347C138.57 118.408 137.894 117.408 137.067 116.362C135.414 114.271 133.146 111.985 130.688 109.634C129.652 108.644 128.583 107.642 127.511 106.637C123.485 102.863 119.42 99.0523 116.951 95.6852L116.95 95.6842C115.254 93.423 114.083 90.3419 113.096 86.978C112.602 85.2973 112.155 83.5493 111.711 81.8012L111.65 81.5623C111.226 79.8948 110.803 78.2299 110.344 76.6297C109.381 73.279 108.254 70.1969 106.611 67.9513C104.962 65.6993 102.79 64.2842 99.7498 64.2842C78.0413 64.2842 63.8902 75.2847 57.2434 89.1501C50.6001 103.008 51.4531 119.73 59.7486 131.173C61.0972 133.018 61.7133 134.473 61.7813 135.607C61.8486 136.728 61.3808 137.547 60.5183 138.139C59.6477 138.737 58.3732 139.103 56.8388 139.291C55.307 139.479 53.5294 139.489 51.6632 139.382C47.931 139.169 43.8584 138.493 40.7168 137.87C39.1465 137.559 37.8097 137.261 36.8656 137.04C36.3936 136.93 36.0197 136.84 35.764 136.777C35.6362 136.745 35.5378 136.72 35.4715 136.704L35.3963 136.685L35.3774 136.68L35.3726 136.679L35.3711 136.678C35.3708 136.678 35.3711 136.678 35.3398 136.799M116.749 95.8336C115.025 93.5348 113.845 90.4174 112.856 87.0485C112.361 85.3626 111.913 83.6104 111.468 81.8628L111.408 81.6248C110.984 79.9563 110.562 78.2949 110.103 76.6987C109.142 73.3518 108.025 70.3065 106.409 68.0989C104.798 65.8978 102.695 64.5342 99.7498 64.5342C78.1384 64.5342 64.0745 75.4786 57.4688 89.2582M396.251 95.8331C397.974 93.5343 399.155 90.4171 400.144 87.0485L396.251 95.8331ZM411.029 114.109C402.186 118.959 392.77 122.526 385.56 124.096C381.957 124.881 378.894 125.17 376.726 124.864C375.642 124.711 374.769 124.408 374.164 123.932C373.554 123.452 373.225 122.802 373.225 121.979C373.225 121.169 373.492 120.285 373.961 119.347C374.43 118.408 375.106 117.408 375.933 116.362C377.586 114.271 379.854 111.985 382.312 109.634C383.347 108.644 384.416 107.642 385.488 106.637C389.514 102.863 393.58 99.0523 396.049 95.6852L396.05 95.6842C397.746 93.423 398.916 90.3419 399.904 86.978C400.398 85.2973 400.845 83.5493 401.289 81.8012L401.35 81.5629C401.773 79.8951 402.196 78.23 402.656 76.6297C403.618 73.279 404.745 70.1969 406.389 67.9513C408.038 65.6993 410.21 64.2842 413.25 64.2842C434.958 64.2842 449.11 75.2847 455.756 89.1501C462.4 103.008 461.547 119.73 453.251 131.173C451.903 133.018 451.286 134.473 451.218 135.607C451.151 136.728 451.619 137.547 452.481 138.139C453.352 138.737 454.627 139.103 456.161 139.291C457.693 139.479 459.47 139.489 461.337 139.382C465.069 139.169 469.141 138.493 472.283 137.87C473.853 137.559 475.19 137.261 476.134 137.04C476.606 136.93 476.98 136.84 477.236 136.777C477.364 136.745 477.462 136.72 477.528 136.704L477.603 136.685L477.628 136.678C477.629 136.678 477.629 136.678 477.66 136.799C477.785 136.799 477.785 136.799 477.785 136.8V136.801L477.785 136.805L477.785 136.822L477.784 136.887C477.784 136.945 477.783 137.031 477.78 137.144C477.776 137.369 477.767 137.7 477.749 138.125C477.713 138.975 477.642 140.202 477.499 141.709C477.214 144.724 476.643 148.863 475.501 153.36C473.218 162.348 468.647 172.789 459.486 178.515L459.484 178.516C450.943 183.641 444.109 189.193 439.411 193.464C437.063 195.6 435.248 197.414 434.02 198.695C433.407 199.335 432.94 199.842 432.627 200.189C432.47 200.362 432.352 200.495 432.273 200.585C432.234 200.63 432.204 200.664 432.184 200.686L432.162 200.712L432.157 200.718L432.155 200.72C432.155 200.72 432.155 200.721 432.06 200.639C431.935 200.634 431.935 200.634 431.935 200.633L431.936 200.615L431.938 200.559C431.94 200.51 431.943 200.436 431.947 200.341C431.954 200.15 431.964 199.871 431.976 199.516C432 198.808 432.028 197.8 432.051 196.602C432.095 194.208 432.113 191.057 432.006 188.032C431.899 185.004 431.668 182.112 431.217 180.228C431.104 179.758 430.979 179.354 430.84 179.028C430.7 178.701 430.549 178.46 430.392 178.309C430.237 178.161 430.081 178.104 429.915 178.125C429.744 178.147 429.54 178.257 429.302 178.494C429.073 178.759 428.624 179.086 428.003 179.471C427.374 179.862 426.556 180.321 425.578 180.85C424.712 181.319 423.719 181.843 422.622 182.422L422.189 182.65C420.919 183.321 419.516 184.064 418.012 184.878C411.993 188.137 404.341 192.551 396.938 198.174C382.128 209.424 368.351 225.489 370.624 246.796C371.474 255.291 377.849 262.957 386.88 268.362C395.908 273.765 407.569 276.893 418.944 276.324C430.322 275.755 438.413 272.343 443.73 267.31C449.046 262.277 451.601 255.612 451.885 248.515C452.169 237.439 447.911 231.212 443.106 228.032C440.7 226.44 438.153 225.609 435.962 225.318C433.766 225.025 431.948 225.277 430.984 225.826M432.06 200.639L431.935 200.633L431.919 200.995L432.155 200.72L432.06 200.639ZM432.199 200.291C432.203 200.286 432.208 200.281 432.213 200.276C432.277 200.204 432.353 200.119 432.441 200.021C432.756 199.673 433.225 199.164 433.84 198.522C435.071 197.238 436.89 195.419 439.243 193.279C443.95 189 450.797 183.437 459.355 178.302C468.433 172.628 472.981 162.265 475.259 153.298C476.397 148.817 476.966 144.692 477.25 141.686C477.393 140.183 477.464 138.961 477.499 138.114C477.517 137.691 477.526 137.362 477.53 137.139C477.532 137.069 477.533 137.009 477.533 136.96L477.501 136.968C477.445 136.982 477.376 137 477.296 137.019C477.039 137.083 476.664 137.173 476.191 137.284C475.245 137.505 473.905 137.803 472.332 138.115C469.185 138.739 465.1 139.417 461.351 139.631C459.476 139.739 457.683 139.73 456.13 139.539C454.581 139.349 453.259 138.976 452.34 138.345C451.412 137.708 450.896 136.808 450.969 135.592C451.041 134.387 451.69 132.885 453.049 131.025C461.283 119.668 462.14 103.045 455.531 89.2582C448.925 75.4786 434.861 64.5342 413.25 64.5342C410.305 64.5342 408.202 65.8978 406.591 68.0989C404.975 70.3065 403.858 73.3518 402.896 76.6987C402.438 78.2946 402.016 79.9556 401.592 81.6237L401.531 81.8628C401.087 83.6104 400.639 85.3626 400.144 87.0485M432.199 200.291C432.202 200.199 432.207 200.089 432.211 199.963C432.216 199.833 432.221 199.687 432.226 199.524C432.249 198.815 432.278 197.806 432.301 196.607C432.345 194.21 432.363 191.055 432.256 188.024C432.149 184.995 431.917 182.081 431.46 180.17C431.346 179.692 431.216 179.273 431.07 178.93C430.924 178.588 430.757 178.313 430.564 178.128C430.368 177.941 430.14 177.844 429.883 177.877C429.634 177.909 429.38 178.062 429.122 178.321L429.115 178.328C428.915 178.561 428.497 178.87 427.871 179.259C427.249 179.645 426.436 180.102 425.459 180.63C424.594 181.098 423.603 181.621 422.505 182.201L422.073 182.429C420.802 183.1 419.399 183.843 417.893 184.658C411.87 187.919 404.204 192.34 396.787 197.975C381.957 209.239 368.088 225.38 370.376 246.822C371.236 255.427 377.686 263.151 386.752 268.576C395.821 274.004 407.531 277.145 418.956 276.574C430.378 276.003 438.531 272.575 443.902 267.491C449.273 262.407 451.849 255.676 452.135 248.524L452.135 248.522C452.421 237.369 448.129 231.056 443.244 227.824C440.805 226.209 438.221 225.366 435.995 225.07C433.775 224.774 431.89 225.021 430.858 225.611M477.66 136.799L477.785 136.8V136.638L477.628 136.678L477.66 136.799Z" fill="#7F7F7F"/>
<path d="M176.7 164.161V243.961C176.7 254.791 188.67 253.081 188.67 253.081H241.68C248.52 253.081 256.5 266.191 256.5 266.191C256.5 266.191 264.48 253.081 270.75 253.081H325.47C325.47 253.081 336.87 254.221 336.87 242.821V163.591H176.7V164.161Z" fill="#DE393A"/>
<path d="M176.7 74.6709H336.3V164.161H176.7V74.6709Z" fill="#3951A3"/>
<path d="M285.57 94.0498C283.29 107.73 271.32 117.99 256.5 117.99C242.25 117.99 230.28 107.73 227.43 94.0498C224.58 99.1798 222.87 104.88 222.87 111.15C222.87 129.96 237.69 144.78 256.5 144.78C275.31 144.78 290.13 129.96 290.13 111.15C290.13 104.88 288.42 99.1798 285.57 94.0498Z" fill="white"/>
<path d="M222.87 225.15C232.314 225.15 239.97 217.494 239.97 208.05C239.97 198.606 232.314 190.95 222.87 190.95C213.425 190.95 205.77 198.606 205.77 208.05C205.77 217.494 213.425 225.15 222.87 225.15Z" fill="#FEE05F"/>
<path d="M290.13 225.15C299.574 225.15 307.23 217.494 307.23 208.05C307.23 198.606 299.574 190.95 290.13 190.95C280.686 190.95 273.03 198.606 273.03 208.05C273.03 217.494 280.686 225.15 290.13 225.15Z" fill="#FEE05F"/>
</g>
<defs>
<clipPath id="clip0_301_27">
<rect width="513" height="342" fill="white"/>
</clipPath>
</defs>
</svg>
