<svg width="513" height="342" viewBox="0 0 513 342" fill="none" xmlns="http://www.w3.org/2000/svg">
<g clip-path="url(#clip0_301_20)">
<path d="M0 0.00390625H513V341.997H0V0.00390625Z" fill="white"/>
<path d="M114.247 171.001L0 56.7036V285.319L114.247 171.001Z" fill="black"/>
<path d="M161.507 171L0 9.38525V56.7035L114.247 171.001L0 285.319V332.549L161.507 171Z" fill="#FFB915"/>
<path d="M510.829 204.456C510.887 204.016 511.634 203.577 513 203.136V137.544H223.037L85.4967 0.00390625H0V9.38519L161.507 171L0 332.549V341.997H85.4967L223.037 204.456H510.829Z" fill="#007847"/>
<path d="M504.163 237.914H236.894L132.811 341.996H513V237.914H504.163Z" fill="#000C8A"/>
<path d="M504.163 104.087H513V0.00390625H132.811L236.894 104.087H504.163Z" fill="#E1392D"/>
</g>
<defs>
<clipPath id="clip0_301_20">
<rect width="513" height="342" fill="white"/>
</clipPath>
</defs>
</svg>
