<svg width="513" height="342" viewBox="0 0 513 342" fill="none" xmlns="http://www.w3.org/2000/svg">
<g clip-path="url(#clip0_301_14)">
<path d="M0 -0.00195312H513V342.002H0V-0.00195312Z" fill="#496E2D"/>
<path d="M491.626 110.358H443.532C443.532 101.505 436.354 94.3271 427.501 94.3271C418.648 94.3271 411.47 101.505 411.47 110.358H363.376C363.376 119.212 371.088 126.39 379.941 126.39H379.407C379.407 135.243 386.583 142.421 395.438 142.421C395.438 151.274 402.614 158.452 411.47 158.452H443.532C452.385 158.452 459.563 151.274 459.563 142.421C468.417 142.421 475.595 135.243 475.595 126.39H475.061C483.915 126.39 491.626 119.212 491.626 110.358Z" fill="#FF9811"/>
<path d="M342.004 170.994H399.003V341.99H342.004V170.994Z" fill="#D80027"/>
<path d="M456.001 170.994H513V341.99H456.001V170.994Z" fill="#FF9811"/>
<path d="M399.003 170.994H456.002V341.99H399.003V170.994Z" fill="black"/>
</g>
<defs>
<clipPath id="clip0_301_14">
<rect width="513" height="342" fill="white"/>
</clipPath>
</defs>
</svg>
