<svg width="513" height="342" viewBox="0 0 513 342" fill="none" xmlns="http://www.w3.org/2000/svg">
<g clip-path="url(#clip0_301_2)">
<path d="M0 0H513V342.004H0V0Z" fill="black"/>
<path d="M0 48.958H513V97.9214H0V48.958ZM0 244.812H513V293.775H0V244.812Z" fill="#FFDA44"/>
<path d="M0 0H513V48.9634H0V0Z" fill="#057F44"/>
<path d="M0 97.9268H513V146.89H0V97.9268ZM0 195.855H513V244.818H0V195.855Z" fill="#D80027"/>
<path d="M0 293.781H513V342.003H0V293.781Z" fill="#057F44"/>
<path d="M277.533 170.996L106.537 341.993H0V0H106.537L277.533 170.996Z" fill="white"/>
<path d="M256.5 170.996L85.501 341.996H106.529L277.529 170.996L106.529 -0.00292969H85.501L256.5 170.996Z" fill="black"/>
<path d="M102.666 117.466L115.95 158.358H158.951L124.166 183.633L137.451 224.527L102.666 199.253L67.8778 224.527L81.1657 183.633L46.3799 158.358H89.3787L102.666 117.466Z" fill="#D80027"/>
<path d="M139.212 174.342L104.585 162.075C104.585 162.075 102.027 138.073 101.872 137.261C100.697 131.069 95.2559 126.389 88.7232 126.389C81.3328 126.389 75.3401 132.38 75.3401 139.772C75.3401 140.997 75.5185 142.178 75.8271 143.307L66.1191 153.081H83.3818C83.3818 170.998 70.0117 170.998 70.0117 188.841L77.4282 206.685H122.037L129.474 188.841H129.47C130.195 187.175 130.662 185.408 130.853 183.6C137.263 181.006 139.212 174.342 139.212 174.342Z" fill="#FFDA44"/>
</g>
<defs>
<clipPath id="clip0_301_2">
<rect width="513" height="342" fill="white"/>
</clipPath>
</defs>
</svg>
