<svg width="24" height="24" viewBox="0 0 24 24" fill="none" xmlns="http://www.w3.org/2000/svg">
<path fill-rule="evenodd" clip-rule="evenodd" d="M19 6C19 5.44772 18.5523 5 18 5H10C9.44771 5 9 5.44772 9 6C9 6.55228 9.44771 7 10 7H18C18.5523 7 19 6.55228 19 6ZM19 10C19 9.44772 18.5523 9 18 9H6C5.44771 9 5 9.44772 5 10C5 10.5523 5.44771 11 6 11H18C18.5523 11 19 10.5523 19 10ZM19 14C19 13.4477 18.5523 13 18 13H10C9.44771 13 9 13.4477 9 14C9 14.5523 9.44771 15 10 15H18C18.5523 15 19 14.5523 19 14ZM19 18C19 17.4477 18.5523 17 18 17H6C5.44771 17 5 17.4477 5 18C5 18.5523 5.44771 19 6 19H18C18.5523 19 19 18.5523 19 18Z" fill="currentColor"/>
</svg>
