<svg width="24" height="24" viewBox="0 0 24 24" fill="none" xmlns="http://www.w3.org/2000/svg">
<path fill-rule="evenodd" clip-rule="evenodd" d="M12 5.69263L10.677 9.00005H13.323L12 5.69263ZM14.1201 10.9929C14.0807 10.9976 14.0406 11.0001 14 11.0001H10C9.95935 11.0001 9.91927 10.9976 9.87989 10.9929L9.47703 12.0001H9.5C10.0523 12.0001 10.5 12.4478 10.5 13.0001C10.5 13.5523 10.0523 14.0001 9.5 14.0001H7C6.44772 14.0001 6 13.5523 6 13.0001C6 12.4478 6.44772 12.0001 7 12.0001H7.32297L10.9787 2.86078C11.3475 1.93883 12.6525 1.93881 13.0213 2.86078L16.677 12.0001H17C17.5523 12.0001 18 12.4478 18 13.0001C18 13.5523 17.5523 14.0001 17 14.0001H14.5C13.9477 14.0001 13.5 13.5523 13.5 13.0001C13.5 12.4478 13.9477 12.0001 14.5 12.0001H14.523L14.1201 10.9929ZM4 16.5001C4 15.6716 4.67157 15.0001 5.5 15.0001H18.5C19.3284 15.0001 20 15.6716 20 16.5001V19.5001C20 20.3285 19.3284 21.0001 18.5 21.0001H18C17.4477 21.0001 17 20.5523 17 20.0001C17 19.4478 17.4477 19.0001 18 19.0001V17.0001H6V19.0001H9C9.55228 19.0001 10 19.4478 10 20.0001C10 20.5523 9.55228 21.0001 9 21.0001H5.5C4.67157 21.0001 4 20.3285 4 19.5001V16.5001ZM11.4 18.2001C11.8418 17.8687 12.4686 17.9582 12.8 18.4001L13.5 19.3334L14.2 18.4001C14.5314 17.9582 15.1582 17.8687 15.6 18.2001C16.0418 18.5314 16.1314 19.1582 15.8 19.6001L14.38 21.4934C13.94 22.0801 13.06 22.0801 12.62 21.4934L11.2 19.6001C10.8686 19.1582 10.9582 18.5314 11.4 18.2001Z" fill="currentColor"/>
</svg>
