<svg width="24" height="24" viewBox="0 0 24 24" fill="none" xmlns="http://www.w3.org/2000/svg">
<path fill-rule="evenodd" clip-rule="evenodd" d="M10.4818 7.52489L9.1225 10.9817H11.8411L10.4818 7.52489ZM12.6276 12.9817L12.9952 13.9166C13.1973 14.4306 13.7778 14.6834 14.2918 14.4813C14.8058 14.2792 15.0586 13.6987 14.8565 13.1847L11.5146 4.68607C11.1453 3.74689 9.81836 3.7469 9.44905 4.68607L6.76281 11.5173C6.72949 11.5807 6.70277 11.6482 6.68359 11.7187L5.4005 14.9817H4.98181C4.42953 14.9817 3.98181 15.4294 3.98181 15.9817C3.98181 16.534 4.42953 16.9817 4.98181 16.9817H7.73181C8.2841 16.9817 8.73181 16.534 8.73181 15.9817C8.73181 15.4294 8.2841 14.9817 7.73181 14.9817H7.54958L8.33604 12.9817H12.6276ZM17.974 13.3427L17.1282 13.8762L16.2824 13.3427L17.1282 12.0017L17.974 13.3427ZM17.1282 15.8639C17.1044 15.9079 17.0804 15.9524 17.0565 15.9972C16.8258 16.4297 16.6049 16.8774 16.4444 17.2712C16.3641 17.468 16.3044 17.638 16.2659 17.7769C16.2469 17.8456 16.2348 17.9004 16.2277 17.9422C16.2205 17.9852 16.2203 18.0042 16.2203 18.0037C16.2203 18.5971 16.669 19 17.1282 19C17.5875 19 18.0362 18.5971 18.0362 18.0037C18.0362 18.0042 18.036 17.9852 18.0287 17.9422C18.0217 17.9004 18.0096 17.8456 17.9905 17.7769C17.952 17.638 17.8923 17.468 17.8121 17.2712C17.6515 16.8774 17.4306 16.4297 17.1999 15.9972C17.176 15.9524 17.1521 15.9079 17.1282 15.8639ZM17.1282 13.8762C16.2824 13.3427 16.2825 13.3426 16.2824 13.3427L16.2803 13.346L16.2755 13.3536L16.2581 13.3815C16.2431 13.4056 16.2215 13.4403 16.1943 13.4846C16.1399 13.5731 16.0628 13.6998 15.9706 13.855C15.7865 14.1645 15.5399 14.5911 15.292 15.0558C15.0457 15.5174 14.7896 16.0326 14.5924 16.516C14.4117 16.9591 14.2203 17.5148 14.2203 18.0037C14.2203 19.6154 15.48 21 17.1282 21C18.7764 21 20.0362 19.6154 20.0362 18.0037C20.0362 17.5148 19.8447 16.9591 19.664 16.516C19.4669 16.0326 19.2108 15.5174 18.9645 15.0558C18.7166 14.5911 18.4699 14.1645 18.2859 13.855C18.1936 13.6998 18.1165 13.5731 18.0621 13.4846C18.0349 13.4403 18.0133 13.4056 17.9983 13.3815L17.9809 13.3536L17.9761 13.346L17.974 13.3427C17.974 13.3426 17.974 13.3427 17.1282 13.8762Z" fill="#101828"/>
</svg>
