<svg width="24" height="24" viewBox="0 0 24 24" fill="none" xmlns="http://www.w3.org/2000/svg">
<path fill-rule="evenodd" clip-rule="evenodd" d="M7.36381 7.6353L6.03464 11.0154H8.58231L7.36381 7.6353ZM5.24818 13.0154H10.0058C10.3315 13.0154 10.6368 12.8568 10.8241 12.5903C11.0113 12.3237 11.057 11.9827 10.9465 11.6763L8.4429 4.73121C8.43966 4.72222 8.43629 4.71328 8.43279 4.70438C8.06347 3.7652 6.73657 3.76521 6.36726 4.70438L2.06939 15.634C1.86728 16.148 2.1201 16.7285 2.63407 16.9306C3.14805 17.1327 3.72855 16.8799 3.93066 16.366L5.24818 13.0154ZM14.9785 10.5432L13.6132 14.0154H16.3439L14.9785 10.5432ZM17.1304 16.0154H12.8267L12.0463 18H12.2285C12.7808 18 13.2285 18.4477 13.2285 19C13.2285 19.5523 12.7808 20 12.2285 20H9.47853C8.92625 20 8.47853 19.5523 8.47853 19C8.47853 18.4477 8.92625 18 9.47853 18H9.89722L13.9458 7.70439C14.3151 6.76522 15.642 6.7652 16.0113 7.70438L20.0598 18H20.4785C21.0308 18 21.4785 18.4477 21.4785 19C21.4785 19.5523 21.0308 20 20.4785 20H17.7285C17.1762 20 16.7285 19.5523 16.7285 19C16.7285 18.4477 17.1762 18 17.7285 18H17.9108L17.1304 16.0154Z" fill="currentColor"/>
</svg>
