<svg width="24" height="24" viewBox="0 0 24 24" fill="none" xmlns="http://www.w3.org/2000/svg">
<path d="M18 18C18.2761 18 18.5 18.2239 18.5 18.5C18.5 18.7761 18.2761 19 18 19H6C5.72386 19 5.5 18.7761 5.5 18.5C5.5 18.2239 5.72386 18 6 18H18ZM18 16C18.2761 16 18.5 16.2239 18.5 16.5C18.5 16.7761 18.2761 17 18 17H6C5.72386 17 5.5 16.7761 5.5 16.5C5.5 16.2239 5.72386 16 6 16H18ZM18 14C18.2761 14 18.5 14.2239 18.5 14.5C18.5 14.7761 18.2761 15 18 15H6C5.72386 15 5.5 14.7761 5.5 14.5C5.5 14.2239 5.72386 14 6 14H18ZM19 11C19.5523 11 20 11.4477 20 12C20 12.5523 19.5523 13 19 13H5C4.44772 13 4 12.5523 4 12C4 11.4477 4.44772 11 5 11H19ZM18 9C18.2761 9 18.5 9.22386 18.5 9.5C18.5 9.77614 18.2761 10 18 10H6C5.72386 10 5.5 9.77614 5.5 9.5C5.5 9.22386 5.72386 9 6 9H18ZM18 7C18.2761 7 18.5 7.22386 18.5 7.5C18.5 7.77614 18.2761 8 18 8H6C5.72386 8 5.5 7.77614 5.5 7.5C5.5 7.22386 5.72386 7 6 7H18ZM18 5C18.2761 5 18.5 5.22386 18.5 5.5C18.5 5.77614 18.2761 6 18 6H6C5.72386 6 5.5 5.77614 5.5 5.5C5.5 5.22386 5.72386 5 6 5H18Z" fill="currentColor"/>
</svg>
