<svg width="24" height="24" viewBox="0 0 24 24" fill="none" xmlns="http://www.w3.org/2000/svg">
<path fill-rule="evenodd" clip-rule="evenodd" d="M5 6C5 5.44772 5.44772 5 6 5H18C18.5523 5 19 5.44772 19 6C19 6.55228 18.5523 7 18 7H6C5.44772 7 5 6.55228 5 6ZM5.58214 8.09149C5.93694 7.9283 6.35428 7.98659 6.65079 8.24074L10.1508 11.2407C10.3724 11.4307 10.5 11.7081 10.5 12C10.5 12.2919 10.3724 12.5693 10.1508 12.7593L6.65079 15.7593C6.35428 16.0134 5.93694 16.0717 5.58214 15.9085C5.22734 15.7453 5 15.3905 5 15V9C5 8.60947 5.22734 8.25467 5.58214 8.09149ZM7 11.1742V12.8258L7.96341 12L7 11.1742ZM12 10C12 9.44772 12.4477 9 13 9H18C18.5523 9 19 9.44772 19 10C19 10.5523 18.5523 11 18 11H13C12.4477 11 12 10.5523 12 10ZM12 14C12 13.4477 12.4477 13 13 13H18C18.5523 13 19 13.4477 19 14C19 14.5523 18.5523 15 18 15H13C12.4477 15 12 14.5523 12 14ZM5 18C5 17.4477 5.44772 17 6 17H18C18.5523 17 19 17.4477 19 18C19 18.5523 18.5523 19 18 19H6C5.44772 19 5 18.5523 5 18Z" fill="#101828"/>
</svg>
