<svg width="24" height="24" viewBox="0 0 24 24" fill="none" xmlns="http://www.w3.org/2000/svg">
<path fill-rule="evenodd" clip-rule="evenodd" d="M7.5 4C8.05228 4 8.5 4.44772 8.5 5V6H12C12.5523 6 13 6.44772 13 7C13 7.55228 12.5523 8 12 8H10.9253C10.718 9.45536 10.0847 11.1194 9.09552 12.5507L10.8931 14.2792C11.2912 14.662 11.3036 15.295 10.9208 15.6931C10.538 16.0912 9.905 16.1036 9.50689 15.7208L7.79731 14.077C6.82053 15.0036 5.60873 15.726 4.17751 15.9841C3.634 16.0822 3.11392 15.721 3.01588 15.1775C2.91784 14.634 3.27898 14.1139 3.82249 14.0159C4.76427 13.846 5.61622 13.3702 6.35388 12.6891L4.30689 10.7208C3.90879 10.338 3.89637 9.705 4.27917 9.30689C4.66196 8.90879 5.295 8.89637 5.69311 9.27917L7.63074 11.1423C8.28746 10.1133 8.71613 8.97803 8.89895 8H3C2.44772 8 2 7.55228 2 7C2 6.44772 2.44772 6 3 6H6.5V5C6.5 4.44772 6.94772 4 7.5 4ZM16.5 9C16.9124 9 17.2825 9.25318 17.432 9.63755L20.932 18.6376C21.1322 19.1523 20.8772 19.7318 20.3624 19.932C19.8477 20.1322 19.2682 19.8772 19.068 19.3624L18.5382 18H14.4618L13.932 19.3624C13.7318 19.8772 13.1523 20.1322 12.6376 19.932C12.1228 19.7318 11.8678 19.1523 12.068 18.6376L15.568 9.63755C15.7175 9.25318 16.0876 9 16.5 9ZM15.2396 16H17.7604L16.5 12.759L15.2396 16Z" fill="currentColor"/>
</svg>
