<svg width="24" height="24" viewBox="0 0 24 24" fill="none" xmlns="http://www.w3.org/2000/svg">
<path fill-rule="evenodd" clip-rule="evenodd" d="M5 5C5 4.44772 5.44772 4 6 4H10C10.5523 4 11 4.44772 11 5C11 5.55228 10.5523 6 10 6H9V14C9 15.6569 10.3431 17 12 17C13.6569 17 15 15.6569 15 14V6H14C13.4477 6 13 5.55228 13 5C13 4.44772 13.4477 4 14 4H18C18.5523 4 19 4.44772 19 5C19 5.55228 18.5523 6 18 6H17V14C17 15.6356 16.2147 17.0878 15.0005 18H18C18.5523 18 19 18.4477 19 19C19 19.5523 18.5523 20 18 20H6C5.44772 20 5 19.5523 5 19C5 18.4477 5.44772 18 6 18H8.99951C7.78534 17.0878 7 15.6356 7 14V6H6C5.44772 6 5 5.55228 5 5Z" fill="currentColor"/>
</svg>
