<svg width="24" height="24" viewBox="0 0 24 24" fill="none" xmlns="http://www.w3.org/2000/svg">
<path fill-rule="evenodd" clip-rule="evenodd" d="M5 5C5 4.44772 5.44772 4 6 4H12.5C13.6935 4 14.8381 4.47411 15.682 5.31802C16.5259 6.16193 17 7.30653 17 8.5C17 9.51034 16.6602 10.4856 16.044 11.2732C16.6538 11.4959 17.2141 11.8501 17.682 12.318C18.5259 13.1619 19 14.3065 19 15.5C19 16.6935 18.5259 17.8381 17.682 18.682C16.8381 19.5259 15.6935 20 14.5 20H6C5.44772 20 5 19.5523 5 19C5 18.4477 5.44772 18 6 18H7V6H6C5.44772 6 5 5.55228 5 5ZM9 6V11H12.5C13.163 11 13.7989 10.7366 14.2678 10.2678C14.7366 9.79893 15 9.16304 15 8.5C15 7.83696 14.7366 7.20107 14.2678 6.73223C13.7989 6.26339 13.163 6 12.5 6H9ZM9 13V18H14.5C15.163 18 15.7989 17.7366 16.2678 17.2678C16.7366 16.7989 17 16.163 17 15.5C17 14.837 16.7366 14.2011 16.2678 13.7322C15.7989 13.2634 15.163 13 14.5 13H9Z" fill="currentColor"/>
</svg>
