<svg width="24" height="24" viewBox="0 0 24 24" fill="none" xmlns="http://www.w3.org/2000/svg">
<path fill-rule="evenodd" clip-rule="evenodd" d="M3.98998 8C3.98998 7.44772 4.4377 7 4.98998 7H4.99998C5.55227 7 5.99998 7.44772 5.99998 8C5.99998 8.55228 5.55227 9 4.99998 9H4.98998C4.4377 9 3.98998 8.55228 3.98998 8ZM7.99998 8C7.99998 7.44772 8.4477 7 8.99998 7H19C19.5523 7 20 7.44772 20 8C20 8.55228 19.5523 9 19 9H8.99998C8.4477 9 7.99998 8.55228 7.99998 8ZM3.97998 12C3.97998 11.4477 4.4277 11 4.97998 11H4.98998C5.54227 11 5.98998 11.4477 5.98998 12C5.98998 12.5523 5.54227 13 4.98998 13H4.97998C4.4277 13 3.97998 12.5523 3.97998 12ZM7.99998 12C7.99998 11.4477 8.4477 11 8.99998 11H19C19.5523 11 20 11.4477 20 12C20 12.5523 19.5523 13 19 13H8.99998C8.4477 13 7.99998 12.5523 7.99998 12ZM3.98998 16C3.98998 15.4477 4.4377 15 4.98998 15H4.99998C5.55227 15 5.99998 15.4477 5.99998 16C5.99998 16.5523 5.55227 17 4.99998 17H4.98998C4.4377 17 3.98998 16.5523 3.98998 16ZM7.99998 16C7.99998 15.4477 8.4477 15 8.99998 15H19C19.5523 15 20 15.4477 20 16C20 16.5523 19.5523 17 19 17H8.99998C8.4477 17 7.99998 16.5523 7.99998 16Z" fill="#101828"/>
</svg>
