<svg width="24" height="24" viewBox="0 0 24 24" fill="none" xmlns="http://www.w3.org/2000/svg">
<path fill-rule="evenodd" clip-rule="evenodd" d="M6.52571 3.14935C6.82052 3.33156 6.99997 3.65342 6.99997 4V9H7.99997C8.55226 9 8.99997 9.44772 8.99997 10C8.99997 10.5523 8.55226 11 7.99997 11H3.99997C3.44769 11 2.99997 10.5523 2.99997 10C2.99997 9.44772 3.44769 9 3.99997 9H4.99997V5.61804L4.44719 5.89443C3.95321 6.14142 3.35254 5.94119 3.10555 5.44721C2.85856 4.95324 3.05878 4.35256 3.55276 4.10557L5.55276 3.10557C5.86275 2.95058 6.23089 2.96714 6.52571 3.14935ZM11 6C11 5.44772 11.4477 5 12 5H20C20.5523 5 21 5.44772 21 6C21 6.55229 20.5523 7 20 7H12C11.4477 7 11 6.55229 11 6ZM11 12C11 11.4477 11.4477 11 12 11H20C20.5523 11 21 11.4477 21 12C21 12.5523 20.5523 13 20 13H12C11.4477 13 11 12.5523 11 12ZM6.4116 15.087C6.25924 15.0182 6.09204 14.9887 5.92532 15.0011C5.7586 15.0136 5.59766 15.0677 5.45724 15.1584C5.31682 15.2492 5.20138 15.3737 5.1215 15.5206C5.04162 15.6674 4.99984 15.832 4.99997 15.9992C5.00043 16.5515 4.55309 16.9995 4.0008 17C3.44852 17.0005 3.00043 16.5531 2.99998 16.0008C2.99956 15.4993 3.12491 15.0056 3.36456 14.565C3.6042 14.1244 3.9505 13.7509 4.37177 13.4786C4.79304 13.2064 5.27584 13.0442 5.77601 13.0067C6.27618 12.9693 6.77776 13.0578 7.23487 13.2643C7.69197 13.4708 8.09002 13.7885 8.3926 14.1886C8.69518 14.5886 8.89263 15.0581 8.9669 15.5541C9.04117 16.0502 8.98989 16.5569 8.81774 17.028C8.64559 17.4991 8.35807 17.9195 7.98148 18.2508C7.9624 18.2676 7.94269 18.2837 7.9224 18.2989L6.9911 19H8.99997C9.55226 19 9.99997 19.4477 9.99997 20C9.99997 20.5523 9.55226 21 8.99997 21H3.99997C3.56987 21 3.18795 20.725 3.05157 20.3171C2.9152 19.9092 3.05493 19.4597 3.39855 19.2011L6.68386 16.7279C6.79794 16.621 6.88546 16.4887 6.93923 16.3416C6.99661 16.1845 7.01371 16.0156 6.98895 15.8503C6.96419 15.6849 6.89838 15.5284 6.79752 15.3951C6.69666 15.2617 6.56397 15.1558 6.4116 15.087ZM11 18C11 17.4477 11.4477 17 12 17H20C20.5523 17 21 17.4477 21 18C21 18.5523 20.5523 19 20 19H12C11.4477 19 11 18.5523 11 18Z" fill="currentColor"/>
</svg>
