<svg width="24" height="24" viewBox="0 0 24 24" fill="none" xmlns="http://www.w3.org/2000/svg">
<path fill-rule="evenodd" clip-rule="evenodd" d="M5 6C5 5.44772 5.44772 5 6 5H18C18.5523 5 19 5.44772 19 6C19 6.55228 18.5523 7 18 7H6C5.44772 7 5 6.55228 5 6ZM9.91786 8.09149C10.2727 8.25467 10.5 8.60947 10.5 9V15C10.5 15.3905 10.2727 15.7453 9.91786 15.9085C9.56306 16.0717 9.14572 16.0134 8.84921 15.7593L5.34921 12.7593C5.12756 12.5693 5 12.2919 5 12C5 11.7081 5.12756 11.4307 5.34921 11.2407L8.84921 8.24074C9.14572 7.98659 9.56306 7.9283 9.91786 8.09149ZM7.53659 12L8.5 12.8258V11.1742L7.53659 12ZM12 10C12 9.44772 12.4477 9 13 9H18C18.5523 9 19 9.44772 19 10C19 10.5523 18.5523 11 18 11H13C12.4477 11 12 10.5523 12 10ZM12 14C12 13.4477 12.4477 13 13 13H18C18.5523 13 19 13.4477 19 14C19 14.5523 18.5523 15 18 15H13C12.4477 15 12 14.5523 12 14ZM5 18C5 17.4477 5.44772 17 6 17H18C18.5523 17 19 17.4477 19 18C19 18.5523 18.5523 19 18 19H6C5.44772 19 5 18.5523 5 18Z" fill="currentColor"/>
</svg>
