<svg width="24" height="24" viewBox="0 0 24 24" fill="none" xmlns="http://www.w3.org/2000/svg">
<path fill-rule="evenodd" clip-rule="evenodd" d="M4 8C4 6.89543 4.89543 6 6 6H9C10.1046 6 11 6.89543 11 8V13C11 14.3261 10.4732 15.5979 9.53553 16.5355C8.59785 17.4732 7.32608 18 6 18H5C4.44772 18 4 17.5523 4 17C4 16.4477 4.44772 16 5 16H6C6.79565 16 7.55871 15.6839 8.12132 15.1213C8.68393 14.5587 9 13.7956 9 13H6C4.89543 13 4 12.1046 4 11V8ZM9 8H6V11H9V8ZM13 8C13 6.89543 13.8954 6 15 6H18C19.1046 6 20 6.89543 20 8V13C20 14.3261 19.4732 15.5979 18.5355 16.5355C17.5979 17.4732 16.3261 18 15 18H14C13.4477 18 13 17.5523 13 17C13 16.4477 13.4477 16 14 16H15C15.7956 16 16.5587 15.6839 17.1213 15.1213C17.6839 14.5587 18 13.7956 18 13H15C13.8954 13 13 12.1046 13 11V8ZM18 8H15V11H18V8Z" fill="#101828"/>
</svg>
