<svg width="24" height="24" viewBox="0 0 24 24" fill="none" xmlns="http://www.w3.org/2000/svg">
<path fill-rule="evenodd" clip-rule="evenodd" d="M3.37494 3.21942C3.80606 2.87424 4.43538 2.9439 4.78057 3.37503L8.56099 8.09664L12.3414 3.37503C12.6866 2.9439 13.3159 2.87424 13.747 3.21942C14.1782 3.5646 14.2478 4.19392 13.9026 4.62505L9.84202 9.69661L13.9027 14.7682C14.2479 15.1993 14.1782 15.8287 13.7471 16.1739C13.3159 16.519 12.6866 16.4494 12.3414 16.0182L8.56099 11.2966L4.78053 16.0182C4.43535 16.4494 3.80603 16.519 3.3749 16.1739C2.94378 15.8287 2.87411 15.1993 3.2193 14.7682L7.27995 9.69661L3.21933 4.62505C2.87415 4.19392 2.94382 3.5646 3.37494 3.21942ZM15 15C15 13.8955 15.8954 13 17 13H18.75C19.8544 13 20.75 13.8952 20.75 14.9999V16C20.75 16.6506 20.3485 17.175 20.0608 17.4937C19.7339 17.8557 19.3111 18.2088 18.9001 18.5277C18.6975 18.685 18.4836 18.8445 18.2726 19H20C20.5522 19 21 19.4478 21 20C21 20.5523 20.5522 21 20 21H16C15.4477 21 15 20.5523 15 20L14.9999 19.5C14.9999 19.2241 15.114 18.9604 15.3151 18.7714C15.6375 18.4683 16.053 18.1516 16.4545 17.8543C16.5802 17.7613 16.705 17.6697 16.8286 17.5791C17.1185 17.3666 17.4017 17.1589 17.674 16.9477C18.0631 16.6457 18.3717 16.38 18.5763 16.1534C18.6865 16.0313 18.7326 15.9575 18.75 15.9272V15H17C17 15.5523 16.5522 16 16 16C15.4477 16 15 15.5523 15 15Z" fill="#101828"/>
</svg>
