<svg width="24" height="24" viewBox="0 0 24 24" fill="none" xmlns="http://www.w3.org/2000/svg">
<path fill-rule="evenodd" clip-rule="evenodd" d="M15 5C15 3.89543 15.8955 3 17 3H18.75C19.8545 3 20.75 3.89519 20.75 4.99989V6C20.75 6.65059 20.3486 7.175 20.0609 7.49363C19.734 7.85567 19.3112 8.20879 18.9002 8.52771C18.6975 8.68495 18.4837 8.84448 18.2727 9H20C20.5523 9 21 9.44772 21 10C21 10.5523 20.5523 11 20 11H16C15.4478 11 15.0001 10.5523 15 10L15 9.50001C15 9.22405 15.1141 8.96035 15.3152 8.77135C15.6376 8.46823 16.0531 8.15152 16.4545 7.85429C16.5803 7.76122 16.7051 7.66969 16.8287 7.57905C17.1186 7.36654 17.4018 7.1589 17.6741 6.94762C18.0632 6.64565 18.3718 6.37994 18.5764 6.15337C18.6866 6.03127 18.7327 5.95744 18.75 5.92712V5H17C17 5.55228 16.5523 6 16 6C15.4478 6 15 5.55228 15 5ZM3.37503 6.52279C3.80615 6.17761 4.43547 6.24727 4.78065 6.6784L8.56109 11.4L12.3415 6.6784C12.6867 6.24727 13.316 6.17761 13.7472 6.52279C14.1783 6.86797 14.2479 7.49729 13.9028 7.92842L9.84213 13L13.9028 18.0716C14.2479 18.5027 14.1783 19.132 13.7472 19.4772C13.316 19.8224 12.6867 19.7527 12.3415 19.3216L8.56109 14.6L4.78065 19.3216C4.43547 19.7527 3.80615 19.8224 3.37503 19.4772C2.9439 19.132 2.87424 18.5027 3.21942 18.0716L7.28005 13L3.21942 7.92842C2.87424 7.49729 2.94391 6.86797 3.37503 6.52279Z" fill="#101828"/>
</svg>
