<svg width="24" height="24" viewBox="0 0 24 24" fill="none" xmlns="http://www.w3.org/2000/svg">
<path fill-rule="evenodd" clip-rule="evenodd" d="M13.1774 4H7C6.57119 4 6.20542 4.2699 6.0633 4.64909L5.70711 4.29289C5.31658 3.90237 4.68342 3.90237 4.29289 4.29289C3.90237 4.68341 3.90237 5.31658 4.29289 5.7071L18.2929 19.7071C18.6834 20.0976 19.3166 20.0976 19.7071 19.7071C20.0976 19.3166 20.0976 18.6834 19.7071 18.2929L12.6333 11.2191L13.9754 6H18V6.2C18 6.75228 18.4477 7.2 19 7.2C19.5523 7.2 20 6.75228 20 6.2V5C20 4.44771 19.5523 4 19 4H13.2212C13.2066 3.99967 13.192 3.99968 13.1774 4ZM10.9907 9.57646L11.9103 6H8V6.2C8 6.31565 7.98037 6.42671 7.94426 6.53004L10.9907 9.57646ZM10.8776 14.0315C11.4125 14.169 11.7346 14.7142 11.5971 15.249L10.8897 18H13C13.5523 18 14 18.4477 14 19C14 19.5523 13.5523 20 13 20H9.62259C9.60805 20.0003 9.59346 20.0003 9.57884 20H7C6.44772 20 6 19.5523 6 19C6 18.4477 6.44772 18 7 18H8.82462L9.66009 14.751C9.79763 14.2161 10.3427 13.894 10.8776 14.0315Z" fill="currentColor"/>
</svg>
