<svg width="24" height="24" viewBox="0 0 24 24" fill="none" xmlns="http://www.w3.org/2000/svg">
<path fill-rule="evenodd" clip-rule="evenodd" d="M2 5C2 4.44772 2.44772 4 3 4H14C14.5523 4 15 4.44772 15 5V6.2C15 6.75229 14.5523 7.2 14 7.2C13.4477 7.2 13 6.75229 13 6.2V6H9V18H11C11.5523 18 12 18.4477 12 19C12 19.5523 11.5523 20 11 20H5C4.44772 20 4 19.5523 4 19C4 18.4477 4.44772 18 5 18H7V6H4V6.2C4 6.75229 3.55228 7.2 3 7.2C2.44772 7.2 2 6.75229 2 6.2V5ZM12 11C12 10.4477 12.4477 10 13 10H21C21.5523 10 22 10.4477 22 11V12.2C22 12.7523 21.5523 13.2 21 13.2C20.4477 13.2 20 12.7523 20 12.2V12H18V18H18.5C19.0523 18 19.5 18.4477 19.5 19C19.5 19.5523 19.0523 20 18.5 20H15.5C14.9477 20 14.5 19.5523 14.5 19C14.5 18.4477 14.9477 18 15.5 18H16L16 12H14V12.2C14 12.7523 13.5523 13.2 13 13.2C12.4477 13.2 12 12.7523 12 12.2V11Z" fill="#101828"/>
</svg>
