<svg width="24" height="24" viewBox="0 0 24 24" fill="none" xmlns="http://www.w3.org/2000/svg">
<path d="M20.7516 15.9516C18.9738 16.7557 16.9932 16.9991 15.0737 16.6492C13.154 16.2992 11.3867 15.3727 10.007 13.9931C8.62731 12.6133 7.7008 10.846 7.35088 8.9264C7.00097 7.00684 7.24428 5.02623 8.0484 3.24844C6.63308 3.88806 5.39405 4.86148 4.43761 6.0852C3.48117 7.30891 2.83587 8.74639 2.55709 10.2743C2.27831 11.8022 2.37435 13.375 2.83699 14.8576C3.29963 16.3403 4.11505 17.6885 5.21329 18.7867C6.31152 19.885 7.6598 20.7004 9.14244 21.1631C10.6251 21.6257 12.1979 21.7217 13.7257 21.4429C15.2537 21.1642 16.6911 20.5189 17.9149 19.5624C19.1385 18.606 20.112 17.367 20.7516 15.9516Z" fill="currentColor"/>
</svg>
