<svg width="24" height="24" viewBox="0 0 24 24" fill="none" xmlns="http://www.w3.org/2000/svg">
<path fill-rule="evenodd" clip-rule="evenodd" d="M11.6749 2.01538C12.1522 2.10016 12.5 2.51515 12.5 2.99997V3.01365C12.5 3.16669 12.4655 3.31205 12.4037 3.44213C12.121 4.2481 12 5.04788 12 5.99999C12 10.4183 15.5817 14 20 14C20.1166 14 20.2053 14.0041 20.2544 14.0063C20.2658 14.0068 20.275 14.0072 20.2819 14.0075L20.2832 14.0075C20.3055 14.0083 20.3302 14.0092 20.4102 14.003C20.7475 13.9767 21.0753 14.1228 21.2813 14.3913C21.4873 14.6598 21.5435 15.0142 21.4307 15.3332C20.0584 19.2159 16.3556 22 12 22C6.47715 22 2 17.5228 2 12C2 6.72178 6.08881 2.39922 11.2725 2.02609C11.4013 1.99594 11.5377 1.99103 11.6749 2.01538ZM10.143 4.21651C6.62051 5.05368 4 8.22107 4 12C4 16.4183 7.58172 20 12 20C14.982 20 17.5847 18.3681 18.9606 15.9466C13.9262 15.4267 10 11.1719 10 5.99999C10 5.37896 10.0438 4.79176 10.143 4.21651Z" fill="currentColor"/>
</svg>
