<svg width="24" height="24" viewBox="0 0 24 24" fill="none" xmlns="http://www.w3.org/2000/svg">
<path fill-rule="evenodd" clip-rule="evenodd" d="M12.4818 3.53616C12.6799 3.91448 12.6159 4.37686 12.3224 4.68714C11.5484 5.50558 11.0414 6.51953 10.8579 7.60395C10.6743 8.68816 10.8211 9.8013 11.2822 10.8091C11.7434 11.8172 12.5011 12.6796 13.4678 13.2869C14.4072 13.8771 15.1551 14.0914 16.6444 14.0914C17.9867 14.0914 18.733 13.9563 19.541 13.5389C19.9181 13.3441 20.3771 13.4085 20.686 13.6997C20.9948 13.9908 21.0862 14.4452 20.9139 14.8332C20.3059 16.2024 19.3404 17.3906 18.1167 18.2831C16.8932 19.1754 15.4528 19.7422 13.9383 19.9305C12.4239 20.1189 10.884 19.9229 9.47 19.3606C8.0558 18.7982 6.81377 17.8879 5.86897 16.7156C4.92395 15.5431 4.30952 14.1496 4.09002 12.672C3.87051 11.1943 4.05422 9.68746 4.62166 8.30127C5.18899 6.91535 6.11914 5.70053 7.31631 4.77425C8.51325 3.84814 9.93654 3.2417 11.445 3.01149C11.8672 2.94706 12.2837 3.15784 12.4818 3.53616ZM9.26694 5.86516C9.01451 6.01304 8.7717 6.17693 8.54019 6.35606C7.61582 7.07126 6.90453 8.00375 6.47258 9.05896C6.04073 10.1139 5.90186 11.2576 6.06832 12.3781C6.23479 13.4988 6.70153 14.5615 7.42616 15.4606C8.15099 16.3599 9.10934 17.0649 10.209 17.5021C11.3088 17.9395 12.5095 18.0929 13.6915 17.9458C14.8734 17.7988 15.9923 17.357 16.9382 16.6672C17.1937 16.4808 17.4342 16.2782 17.6582 16.061C17.3384 16.0827 17.0027 16.0914 16.6444 16.0914C14.8559 16.0914 13.7216 15.8083 12.4039 14.9805C11.1137 14.1699 10.0903 13.0111 9.46347 11.6412C8.8365 10.2708 8.63514 8.75167 8.88593 7.27015C8.96744 6.78862 9.09547 6.31839 9.26694 5.86516ZM17 4.00005C17.5523 4.00005 18 4.44776 18 5.00005V7.00005L20 7.00005C20.5523 7.00005 21 7.44776 21 8.00005C21 8.55233 20.5523 9.00005 20 9.00005L18 9.00005V11C18 11.5523 17.5523 12 17 12C16.4477 12 16 11.5523 16 11V9.00005H14C13.4477 9.00005 13 8.55233 13 8.00005C13 7.44776 13.4477 7.00005 14 7.00005H16V5.00005C16 4.44776 16.4477 4.00005 17 4.00005Z" fill="currentColor"/>
</svg>
