<svg width="24" height="24" viewBox="0 0 24 24" fill="none" xmlns="http://www.w3.org/2000/svg">
<path fill-rule="evenodd" clip-rule="evenodd" d="M12 2C12.5523 2 13 2.44772 13 3V5C13 5.55228 12.5523 6 12 6C11.4477 6 11 5.55228 11 5V3C11 2.44772 11.4477 2 12 2ZM4.92889 4.92889C5.31942 4.53837 5.95258 4.53837 6.34311 4.92889L7.75711 6.34289C8.14763 6.73342 8.14763 7.36658 7.75711 7.75711C7.36658 8.14763 6.73342 8.14763 6.34289 7.75711L4.92889 6.34311C4.53837 5.95258 4.53837 5.31942 4.92889 4.92889ZM19.0711 4.92889C19.4616 5.31942 19.4616 5.95258 19.0711 6.34311L17.6571 7.75711C17.2666 8.14763 16.6334 8.14763 16.2429 7.75711C15.8524 7.36658 15.8524 6.73342 16.2429 6.34289L17.6569 4.92889C18.0474 4.53837 18.6806 4.53837 19.0711 4.92889ZM12 9C10.3431 9 9 10.3431 9 12C9 13.6569 10.3431 15 12 15C13.6569 15 15 13.6569 15 12C15 10.3431 13.6569 9 12 9ZM7 12C7 9.23858 9.23858 7 12 7C14.7614 7 17 9.23858 17 12C17 14.7614 14.7614 17 12 17C9.23858 17 7 14.7614 7 12ZM2 12C2 11.4477 2.44772 11 3 11H5C5.55228 11 6 11.4477 6 12C6 12.5523 5.55228 13 5 13H3C2.44772 13 2 12.5523 2 12ZM18 12C18 11.4477 18.4477 11 19 11H21C21.5523 11 22 11.4477 22 12C22 12.5523 21.5523 13 21 13H19C18.4477 13 18 12.5523 18 12ZM7.75711 16.2429C8.14763 16.6334 8.14763 17.2666 7.75711 17.6571L6.34311 19.0711C5.95258 19.4616 5.31942 19.4616 4.92889 19.0711C4.53837 18.6806 4.53837 18.0474 4.92889 17.6569L6.34289 16.2429C6.73342 15.8524 7.36658 15.8524 7.75711 16.2429ZM16.2429 16.2429C16.6334 15.8524 17.2666 15.8524 17.6571 16.2429L19.0711 17.6569C19.4616 18.0474 19.4616 18.6806 19.0711 19.0711C18.6806 19.4616 18.0474 19.4616 17.6569 19.0711L16.2429 17.6571C15.8524 17.2666 15.8524 16.6334 16.2429 16.2429ZM12 18C12.5523 18 13 18.4477 13 19V21C13 21.5523 12.5523 22 12 22C11.4477 22 11 21.5523 11 21V19C11 18.4477 11.4477 18 12 18Z" fill="currentColor"/>
</svg>
