<svg width="24" height="24" viewBox="0 0 24 24" fill="none" xmlns="http://www.w3.org/2000/svg">
<path fill-rule="evenodd" clip-rule="evenodd" d="M4 4C4 3.44772 4.44772 3 5 3H6.5C6.97368 3 7.38237 3.33233 7.47898 3.79605L7.93814 6H19C19.301 6 19.586 6.13558 19.7759 6.36911C19.9658 6.60264 20.0404 6.90929 19.979 7.20395L18.729 13.204C18.6324 13.6677 18.2237 14 17.75 14H9.6048L9.81314 15H17C18.6569 15 20 16.3431 20 18C20 19.6569 18.6569 21 17 21C15.3431 21 14 19.6569 14 18C14 17.6494 14.0602 17.3128 14.1707 17H11.8293C11.9398 17.3128 12 17.6494 12 18C12 19.6569 10.6569 21 9 21C7.34315 21 6 19.6569 6 18C6 16.7619 6.74996 15.699 7.82037 15.2408L5.68686 5H5C4.44772 5 4 4.55228 4 4ZM9 17C8.44772 17 8 17.4477 8 18C8 18.5523 8.44772 19 9 19C9.55228 19 10 18.5523 10 18C10 17.4477 9.55228 17 9 17ZM17 17C16.4477 17 16 17.4477 16 18C16 18.5523 16.4477 19 17 19C17.5523 19 18 18.5523 18 18C18 17.4477 17.5523 17 17 17ZM9.18814 12H16.9369L17.7702 8H8.3548L9.18814 12Z" fill="currentColor"/>
</svg>
