<svg width="24" height="24" viewBox="0 0 24 24" fill="none" xmlns="http://www.w3.org/2000/svg">
<path fill-rule="evenodd" clip-rule="evenodd" d="M3 4C3 3.44772 3.44772 3 4 3H5.5C5.97368 3 6.38237 3.33233 6.47898 3.79605L6.93814 6H11C11.5523 6 12 6.44772 12 7C12 7.55228 11.5523 8 11 8H7.3548L8.18814 12H16.75C17.3023 12 17.75 12.4477 17.75 13C17.75 13.5523 17.3023 14 16.75 14H8.6048L8.81314 15H16C17.6569 15 19 16.3431 19 18C19 19.6569 17.6569 21 16 21C14.3431 21 13 19.6569 13 18C13 17.6494 13.0602 17.3128 13.1707 17H10.8293C10.9398 17.3128 11 17.6494 11 18C11 19.6569 9.65685 21 8 21C6.34315 21 5 19.6569 5 18C5 16.7619 5.74996 15.699 6.82037 15.2408L4.68686 5H4C3.44772 5 3 4.55228 3 4ZM8 17C7.44772 17 7 17.4477 7 18C7 18.5523 7.44772 19 8 19C8.55228 19 9 18.5523 9 18C9 17.4477 8.55228 17 8 17ZM16 17C15.4477 17 15 17.4477 15 18C15 18.5523 15.4477 19 16 19C16.5523 19 17 18.5523 17 18C17 17.4477 16.5523 17 16 17ZM17 3C17.5523 3 18 3.44772 18 4V6L20 6C20.5523 6 21 6.44772 21 7C21 7.55228 20.5523 8 20 8H18V10C18 10.5523 17.5523 11 17 11C16.4477 11 16 10.5523 16 10V8H14C13.4477 8 13 7.55228 13 7C13 6.44772 13.4477 6 14 6H16V4C16 3.44772 16.4477 3 17 3Z" fill="currentColor"/>
</svg>
