<svg width="24" height="24" viewBox="0 0 24 24" fill="none" xmlns="http://www.w3.org/2000/svg">
<path fill-rule="evenodd" clip-rule="evenodd" d="M9 3C9 2.44772 9.44772 2 10 2H18C18.5523 2 19 2.44772 19 3V6C19 6.55228 18.5523 7 18 7H17V8H18C18.5095 8 18.9376 8.38314 18.9939 8.88957L19.9939 17.8896C19.998 17.9262 20 17.9631 20 18V21C20 21.5523 19.5523 22 19 22H5C4.44772 22 4 21.5523 4 21V18C4 17.9631 4.00204 17.9262 4.00612 17.8896L5.00612 8.88957C5.06239 8.38314 5.49045 8 6 8H11V7H10C9.44772 7 9 6.55228 9 6V3ZM13 7V8H15V7H13ZM11 5V4H17V5H11ZM6.89504 10L6.11726 17H17.8827L17.105 10H6.89504ZM18 19H6V20H18V19ZM8 12C8 11.4477 8.44772 11 9 11H9.01C9.56228 11 10.01 11.4477 10.01 12V12.01C10.01 12.5623 9.56228 13.01 9.01 13.01H9C8.44772 13.01 8 12.5623 8 12.01V12ZM11 12C11 11.4477 11.4477 11 12 11H12.01C12.5623 11 13.01 11.4477 13.01 12V12.01C13.01 12.5623 12.5623 13.01 12.01 13.01H12C11.4477 13.01 11 12.5623 11 12.01V12ZM14 12C14 11.4477 14.4477 11 15 11H15.01C15.5623 11 16.01 11.4477 16.01 12V12.01C16.01 12.5623 15.5623 13.01 15.01 13.01H15C14.4477 13.01 14 12.5623 14 12.01V12ZM8 15C8 14.4477 8.44772 14 9 14H9.01C9.56228 14 10.01 14.4477 10.01 15V15.01C10.01 15.5623 9.56228 16.01 9.01 16.01H9C8.44772 16.01 8 15.5623 8 15.01V15ZM11 15C11 14.4477 11.4477 14 12 14H12.01C12.5623 14 13.01 14.4477 13.01 15V15.01C13.01 15.5623 12.5623 16.01 12.01 16.01H12C11.4477 16.01 11 15.5623 11 15.01V15ZM14 15C14 14.4477 14.4477 14 15 14H15.01C15.5623 14 16.01 14.4477 16.01 15V15.01C16.01 15.5623 15.5623 16.01 15.01 16.01H15C14.4477 16.01 14 15.5623 14 15.01V15Z" fill="#101828"/>
</svg>
