<svg width="24" height="24" viewBox="0 0 24 24" fill="none" xmlns="http://www.w3.org/2000/svg">
<path fill-rule="evenodd" clip-rule="evenodd" d="M7 6C7 4.89543 7.89543 4 9 4H20C21.1046 4 22 4.89543 22 6V13C22 14.1046 21.1046 15 20 15H19C18.4477 15 18 14.5523 18 14C18 13.4477 18.4477 13 19 13H20V6H9V7C9 7.55228 8.55228 8 8 8C7.44772 8 7 7.55228 7 7V6ZM2 11C2 9.89543 2.89543 9 4 9H15C16.1046 9 17 9.89543 17 11V18C17 19.1046 16.1046 20 15 20H4C2.89543 20 2 19.1046 2 18V11ZM15 11H4V18H15V11ZM9.5 14C9.22386 14 9 14.2239 9 14.5C9 14.7761 9.22386 15 9.5 15C9.77614 15 10 14.7761 10 14.5C10 14.2239 9.77614 14 9.5 14ZM7 14.5C7 13.1193 8.11929 12 9.5 12C10.8807 12 12 13.1193 12 14.5C12 15.8807 10.8807 17 9.5 17C8.11929 17 7 15.8807 7 14.5Z" fill="#101828"/>
</svg>
