<svg width="24" height="24" viewBox="0 0 24 24" fill="none" xmlns="http://www.w3.org/2000/svg">
<path fill-rule="evenodd" clip-rule="evenodd" d="M2 7C2 5.89543 2.89543 5 4 5H20C21.1046 5 22 5.89543 22 7V17C22 18.1046 21.1046 19 20 19H4C2.89543 19 2 18.1046 2 17V7ZM4 11V17H20V11H4ZM20 9H4V7H20V9ZM5 14C5 13.4477 5.44772 13 6 13H8C8.55228 13 9 13.4477 9 14C9 14.5523 8.55228 15 8 15H6C5.44772 15 5 14.5523 5 14ZM10 14C10 13.4477 10.4477 13 11 13H16C16.5523 13 17 13.4477 17 14C17 14.5523 16.5523 15 16 15H11C10.4477 15 10 14.5523 10 14Z" fill="currentColor"/>
</svg>
