<svg width="24" height="24" viewBox="0 0 24 24" fill="none" xmlns="http://www.w3.org/2000/svg">
<path fill-rule="evenodd" clip-rule="evenodd" d="M2 7C2 5.89543 2.89543 5 4 5H20C21.1046 5 22 5.89543 22 7V11C22 11.5523 21.5523 12 21 12C20.4477 12 20 11.5523 20 11H4V17H14C14.5523 17 15 17.4477 15 18C15 18.5523 14.5523 19 14 19H4C2.89543 19 2 18.1046 2 17V7ZM4 9H20V7H4V9ZM5 14C5 13.4477 5.44772 13 6 13H8C8.55228 13 9 13.4477 9 14C9 14.5523 8.55228 15 8 15H6C5.44772 15 5 14.5523 5 14ZM10 14C10 13.4477 10.4477 13 11 13H15C15.5523 13 16 13.4477 16 14C16 14.5523 15.5523 15 15 15H11C10.4477 15 10 14.5523 10 14ZM19 13C19.5523 13 20 13.4477 20 14V15H21C21.5523 15 22 15.4477 22 16C22 16.5523 21.5523 17 21 17H20V18C20 18.5523 19.5523 19 19 19C18.4477 19 18 18.5523 18 18V17H17C16.4477 17 16 16.5523 16 16C16 15.4477 16.4477 15 17 15H18V14C18 13.4477 18.4477 13 19 13Z" fill="currentColor"/>
</svg>
