<svg width="24" height="24" viewBox="0 0 24 24" fill="none" xmlns="http://www.w3.org/2000/svg">
<path fill-rule="evenodd" clip-rule="evenodd" d="M2 6C2 4.89543 2.89543 4 4 4H18C19.1046 4 20 4.89543 20 6V11H18V10H4V15H10V17H4C2.89543 17 2 16.1046 2 15V6ZM4 8H18V6H4V8ZM5 11H10V13H5V11ZM16.5 13C14.567 13 13 14.567 13 16.5C13 18.433 14.567 20 16.5 20C18.433 20 20 18.433 20 16.5C20 14.567 18.433 13 16.5 13ZM11 16.5C11 13.4624 13.4624 11 16.5 11C19.5376 11 22 13.4624 22 16.5C22 19.5376 19.5376 22 16.5 22C13.4624 22 11 19.5376 11 16.5ZM17.5 14V15.5H19V17.5H17.5V19H15.5V17.5H14V15.5H15.5V14H17.5Z" fill="#101828"/>
</svg>
