<svg width="24" height="24" viewBox="0 0 24 24" fill="none" xmlns="http://www.w3.org/2000/svg">
<path fill-rule="evenodd" clip-rule="evenodd" d="M12.1212 2C12.6735 2 13.1212 2.44772 13.1212 3V4.27479C13.3167 4.30493 13.5115 4.34478 13.7047 4.39447C14.8987 4.68396 15.9676 5.35961 16.767 6.31528C17.1214 6.7389 17.0653 7.36957 16.6417 7.72393C16.218 8.07829 15.5874 8.02215 15.233 7.59854C14.6977 6.95859 13.9948 6.52152 13.2282 6.33688L13.2118 6.33281C12.8627 6.24248 12.526 6.19908 12.2069 6.19547C12.1786 6.19786 12.1501 6.19909 12.1212 6.19909C12.0984 6.19909 12.0758 6.19832 12.0533 6.19681C10.687 6.23642 9.67046 7.01055 9.43112 7.92743C9.29106 8.46399 9.45061 9.1181 9.97781 9.76587C10.5022 10.4102 11.3244 10.9521 12.2621 11.1957C13.5974 11.5425 14.792 12.3126 15.5944 13.2989C16.394 14.2818 16.8711 15.5767 16.5245 16.9048C16.094 18.5537 14.7336 19.6125 13.1212 19.9797V21C13.1212 21.5523 12.6735 22 12.1212 22C11.569 22 11.1212 21.5523 11.1212 21V20.0834C10.8515 20.0519 10.5822 20.0022 10.316 19.9337C9.1081 19.6415 8.02882 18.9533 7.22785 17.9799C6.87692 17.5534 6.93816 16.9232 7.36463 16.5723C7.79109 16.2214 8.42129 16.2826 8.77221 16.7091C9.30821 17.3604 10.0173 17.8051 10.7917 17.9911L10.8086 17.9953C12.736 18.494 14.2861 17.5612 14.5893 16.3997C14.7294 15.8629 14.5699 15.2088 14.043 14.5611C13.5189 13.9169 12.697 13.375 11.7593 13.1314C10.4241 12.7846 9.22929 12.0146 8.42661 11.0283C7.62678 10.0456 7.14924 8.75053 7.49597 7.42228C7.94607 5.698 9.41292 4.61967 11.1212 4.30223V3C11.1212 2.44772 11.569 2 12.1212 2Z" fill="#101828"/>
</svg>
