<svg width="24" height="24" viewBox="0 0 24 24" fill="none" xmlns="http://www.w3.org/2000/svg">
<path fill-rule="evenodd" clip-rule="evenodd" d="M7.2917 9C8.33965 5.57364 11.1361 3 14.615 3H14.622V3.00002C16.0385 3.00999 17.4181 3.45261 18.576 4.26858C19.0275 4.58671 19.1356 5.21059 18.8174 5.66204C18.4993 6.11349 17.8754 6.22156 17.424 5.90342C16.6003 5.32298 15.6191 5.00781 14.6115 5C12.3985 5.00167 10.3467 6.58216 9.39814 9H15.231C15.7833 9 16.231 9.44772 16.231 10C16.231 10.5523 15.7833 11 15.231 11H8.90337C8.86562 11.325 8.846 11.6587 8.846 12C8.846 12.3413 8.86562 12.675 8.90337 13H15.231C15.7833 13 16.231 13.4477 16.231 14C16.231 14.5523 15.7833 15 15.231 15H9.39814C10.3468 17.418 12.3988 18.9985 14.6119 19C15.6193 18.9933 16.6005 18.6787 17.4241 18.0985C17.8755 17.7804 18.4994 17.8886 18.8175 18.3401C19.1356 18.7915 19.0274 19.4154 18.5759 19.7335C17.4178 20.5494 16.0377 20.9914 14.6211 21L14.615 21C11.1361 21 8.33965 18.4264 7.2917 15H6C5.44772 15 5 14.5523 5 14C5 13.4477 5.44772 13 6 13H6.89424C6.86234 12.6705 6.846 12.3368 6.846 12C6.846 11.6632 6.86234 11.3295 6.89424 11H6C5.44772 11 5 10.5523 5 10C5 9.44772 5.44772 9 6 9H7.2917Z" fill="currentColor"/>
</svg>
