<svg width="24" height="24" viewBox="0 0 24 24" fill="none" xmlns="http://www.w3.org/2000/svg">
<path fill-rule="evenodd" clip-rule="evenodd" d="M3.69863 6.31701C2.56711 5.02384 3.48547 3 5.20378 3H18.7547C20.4862 3 21.3996 5.05088 20.2412 6.33793L17.2433 9.66896C16.8738 10.0795 16.2416 10.1128 15.8311 9.74329C15.4205 9.37384 15.3873 8.74155 15.7567 8.33104L18.7547 5H5.20378L10.5052 11.0587C10.8242 11.4233 11 11.8913 11 12.3757V16.5858L11.7071 17.2929C12.0976 17.6834 12.0976 18.3166 11.7071 18.7071C11.3166 19.0976 10.6834 19.0976 10.2929 18.7071L9.43935 17.8536C9.15805 17.5722 9.00001 17.1907 9.00001 16.7929V12.3757L3.69863 6.31701ZM16.0603 11C16.6126 11 17.0603 11.4477 17.0603 12V12.1013C17.697 12.2604 18.2787 12.595 18.7283 13.0728C19.1068 13.475 19.0875 14.1079 18.6853 14.4863C18.2831 14.8648 17.6502 14.8455 17.2717 14.4433C17.0816 14.2412 16.8212 14.0929 16.523 14.0294C16.4866 14.0217 16.4508 14.012 16.4155 14.0002C16.3613 13.9822 16.3058 13.9685 16.2497 13.9592C16.1884 13.9709 16.1251 13.9771 16.0603 13.9771C15.9974 13.9771 15.9358 13.9713 15.8761 13.9601C15.7976 13.9737 15.7206 13.9956 15.6469 14.0259C15.4492 14.1071 15.2956 14.2391 15.1965 14.3932C15.1971 14.3952 15.1977 14.3974 15.1984 14.3996C15.2123 14.4427 15.2501 14.5191 15.338 14.615C15.5186 14.8121 15.8363 15.0084 16.2287 15.0985C16.9748 15.2697 17.6656 15.6557 18.1479 16.1823C18.6239 16.702 18.994 17.4877 18.7371 18.3527C18.7234 18.3986 18.7065 18.4434 18.6865 18.4869C18.3742 19.1637 17.8097 19.6877 17.1229 19.9699C17.1021 19.9784 17.0812 19.9867 17.0603 19.9947V20C17.0603 20.5523 16.6126 21 16.0603 21C15.5333 21 15.1015 20.5923 15.0631 20.0751C15.0477 20.0705 15.0322 20.0658 15.0168 20.061C14.3462 19.9069 13.7331 19.559 13.2662 19.0548C12.891 18.6495 12.9154 18.0168 13.3206 17.6416C13.7259 17.2664 14.3586 17.2908 14.7338 17.696C14.924 17.9015 15.1865 18.0526 15.4878 18.1169C15.5236 18.1246 15.559 18.1342 15.5938 18.1458C15.6692 18.1708 15.747 18.1874 15.8254 18.1957C15.9007 18.1776 15.9794 18.168 16.0603 18.168C16.1025 18.168 16.144 18.1706 16.1847 18.1756C16.2455 18.1622 16.3052 18.1436 16.3628 18.1199C16.5608 18.0386 16.7147 17.9064 16.8139 17.7519C16.8136 17.7509 16.8132 17.7498 16.8129 17.7487C16.7993 17.7063 16.7616 17.6298 16.673 17.5331C16.4913 17.3347 16.1724 17.1376 15.7812 17.0477C15.0363 16.8767 14.346 16.4928 13.8636 15.9663C13.3859 15.4452 13.0203 14.6623 13.2711 13.7993C13.285 13.7516 13.3024 13.705 13.3232 13.6599C13.6352 12.9826 14.1998 12.4582 14.8868 12.176C14.9441 12.1524 15.002 12.1307 15.0603 12.1107V12C15.0603 11.4477 15.508 11 16.0603 11Z" fill="#101828"/>
</svg>
