<svg width="24" height="24" viewBox="0 0 24 24" fill="none" xmlns="http://www.w3.org/2000/svg">
<path fill-rule="evenodd" clip-rule="evenodd" d="M5.61732 2.07615C5.99099 1.92137 6.42111 2.00692 6.70711 2.29292L8 3.58582L9.29289 2.29292C9.68342 1.9024 10.3166 1.9024 10.7071 2.29292L12 3.58582L13.2929 2.29292C13.6834 1.9024 14.3166 1.9024 14.7071 2.29292L16 3.58582L17.2929 2.29292C17.5789 2.00692 18.009 1.92137 18.3827 2.07615C18.7564 2.23093 19 2.59557 19 3.00003V21C19 21.4045 18.7564 21.7691 18.3827 21.9239C18.009 22.0787 17.5789 21.9931 17.2929 21.7071L16 20.4142L14.7071 21.7071C14.3166 22.0977 13.6834 22.0977 13.2929 21.7071L12 20.4142L10.7071 21.7071C10.3166 22.0977 9.68342 22.0977 9.29289 21.7071L8 20.4142L6.70711 21.7071C6.42111 21.9931 5.99099 22.0787 5.61732 21.9239C5.24364 21.7691 5 21.4045 5 21V3.00003C5 2.59557 5.24364 2.23093 5.61732 2.07615ZM7 5.41424V18.5858L7.29289 18.2929C7.68342 17.9024 8.31658 17.9024 8.70711 18.2929L10 19.5858L11.2929 18.2929C11.6834 17.9024 12.3166 17.9024 12.7071 18.2929L14 19.5858L15.2929 18.2929C15.6834 17.9024 16.3166 17.9024 16.7071 18.2929L17 18.5858V5.41424L16.7071 5.70714C16.3166 6.09766 15.6834 6.09766 15.2929 5.70714L14 4.41424L12.7071 5.70714C12.3166 6.09766 11.6834 6.09766 11.2929 5.70714L10 4.41424L8.70711 5.70714C8.31658 6.09766 7.68342 6.09766 7.29289 5.70714L7 5.41424ZM8 8.00003C8 7.44774 8.44772 7.00003 9 7.00003H15C15.5523 7.00003 16 7.44774 16 8.00003C16 8.55231 15.5523 9.00003 15 9.00003H9C8.44772 9.00003 8 8.55231 8 8.00003ZM8 12C8 11.4477 8.44772 11 9 11H15C15.5523 11 16 11.4477 16 12C16 12.5523 15.5523 13 15 13H9C8.44772 13 8 12.5523 8 12ZM8 16C8 15.4477 8.44772 15 9 15H15C15.5523 15 16 15.4477 16 16C16 16.5523 15.5523 17 15 17H9C8.44772 17 8 16.5523 8 16Z" fill="#101828"/>
</svg>
