<svg width="24" height="24" viewBox="0 0 24 24" fill="none" xmlns="http://www.w3.org/2000/svg">
<path fill-rule="evenodd" clip-rule="evenodd" d="M12.6884 4.32215C12.2365 3.86793 11.6457 3.9541 11.3146 4.30403C11.3089 4.31014 11.303 4.31618 11.2971 4.32215L10.4044 5.21946C10.4043 5.2195 10.4044 5.21942 10.4044 5.21946C9.84492 5.78191 9.08602 6.09809 8.29475 6.09826H7.03271C6.7717 6.09826 6.52139 6.20248 6.33683 6.38799C6.15227 6.5735 6.04859 6.82511 6.04859 7.08746V8.35581C6.04842 9.15116 5.73398 9.91409 5.17441 10.4764C5.17438 10.4765 5.17445 10.4764 5.17441 10.4764L4.28161 11.3739C4.271 11.3845 4.26015 11.3949 4.24907 11.4051C3.94469 11.6847 3.87803 12.3667 4.28161 12.7724L5.17431 13.6697C5.73394 14.232 6.04842 14.9948 6.04859 15.7902V17.0588C6.04859 17.3211 6.15227 17.5727 6.33683 17.7582C6.52139 17.9437 6.7717 18.048 7.03271 18.048H8.29454C9.08586 18.0481 9.84491 18.3642 10.4044 18.9268L11.2971 19.8241C11.2969 19.8239 11.297 19.824 11.2971 19.8241C11.3008 19.8272 11.3532 19.8709 11.489 19.9149C11.6236 19.9584 11.7954 19.9873 11.981 19.9897C12.3981 19.9952 12.637 19.8734 12.6921 19.8204C12.6925 19.82 12.6929 19.8196 12.6932 19.8192L13.5811 18.9268C13.5811 18.9268 13.5811 18.9267 13.5811 18.9268C14.1405 18.3643 14.8994 18.0481 15.6907 18.048H16.9528C17.2138 18.048 17.4641 17.9437 17.6486 17.7582C17.8332 17.5727 17.9369 17.3211 17.9369 17.0588V15.7904C17.937 14.9951 18.2515 14.2321 18.811 13.6698C18.811 13.6698 18.8111 13.6697 18.811 13.6698L19.7038 12.7724C20.107 12.3671 20.0862 11.7431 19.7184 11.3881L19.7038 11.3739L18.8112 10.4765C18.8111 10.4765 18.8112 10.4766 18.8112 10.4765C18.2516 9.9142 17.937 9.15138 17.9369 8.35602V7.08746C17.9369 6.56683 17.7849 6.3767 17.6934 6.29741C17.5751 6.19482 17.3461 6.09826 16.9528 6.09826H15.6909C14.8996 6.09809 14.1406 5.78198 13.5811 5.21946L12.6884 4.32215ZM9.87508 2.90875C10.8955 1.84078 12.7729 1.56439 14.1025 2.90078L14.9953 3.7982C15.1797 3.98367 15.43 4.08803 15.6909 4.08814C15.6909 4.08814 15.691 4.08814 15.6909 4.08814H16.9528C17.6306 4.08814 18.3936 4.24996 18.9994 4.77514C19.6322 5.3236 19.9367 6.1306 19.9367 7.08746V8.35559C19.9367 8.35552 19.9367 8.35567 19.9367 8.35559C19.9368 8.61785 20.0405 8.86954 20.225 9.05496L21.1115 9.946C22.3075 11.109 22.2827 13.0229 21.1179 14.1937L20.2251 15.0912C20.0406 15.2766 19.9368 15.5282 19.9367 15.7904C19.9367 15.7903 19.9367 15.7905 19.9367 15.7904V17.0588C19.9367 17.8542 19.6223 18.6171 19.0627 19.1796C18.5031 19.7421 17.7441 20.0581 16.9528 20.0581H15.6911C15.6911 20.0581 15.6912 20.0581 15.6911 20.0581C15.4302 20.0582 15.1798 20.1624 14.9954 20.3479L14.0976 21.2503C13.5029 21.84 12.6301 22.0086 11.9547 21.9997C11.2861 21.9908 10.4375 21.8028 9.88301 21.2454L8.9902 20.348C8.80574 20.1625 8.55544 20.0582 8.29454 20.0581C8.29447 20.0581 8.29461 20.0581 8.29454 20.0581H7.03271C6.24133 20.0581 5.48236 19.7421 4.92277 19.1796C4.36318 18.6171 4.0488 17.8542 4.0488 17.0588V15.7906C4.0488 15.7906 4.0488 15.7907 4.0488 15.7906C4.04869 15.5284 3.94498 15.2767 3.76046 15.0913L2.86755 14.1937C1.68814 13.0082 1.72915 11.0175 2.88156 9.9384L3.76035 9.05507C3.94487 8.86965 4.04869 8.61806 4.0488 8.35581C4.0488 8.35574 4.0488 8.35588 4.0488 8.35581V7.08746C4.0488 6.29199 4.36318 5.5291 4.92277 4.96662C5.48236 4.40414 6.24133 4.08814 7.03271 4.08814H8.29432C8.29425 4.08814 8.29439 4.08814 8.29432 4.08814C8.55523 4.08803 8.80563 3.98378 8.99009 3.7983L9.87508 2.90875ZM8.42056 8.42621C8.42056 7.87113 8.86823 7.42115 9.42046 7.42115H9.43082C9.98305 7.42115 10.4307 7.87113 10.4307 8.42621C10.4307 8.98129 9.98305 9.43127 9.43082 9.43127H9.42046C8.86823 9.43127 8.42056 8.98129 8.42056 8.42621ZM15.3083 8.23629C15.6988 8.62879 15.6988 9.26516 15.3083 9.65766L9.09132 15.9068C8.70084 16.2993 8.06774 16.2993 7.67726 15.9068C7.28677 15.5143 7.28677 14.8779 7.67726 14.4854L13.8943 8.23629C14.2848 7.84379 14.9179 7.84379 15.3083 8.23629ZM11.5187 15.7169C11.5187 15.1618 11.9664 14.7118 12.5186 14.7118H12.529C13.0812 14.7118 13.5289 15.1618 13.5289 15.7169C13.5289 16.2719 13.0812 16.7219 12.529 16.7219H12.5186C11.9664 16.7219 11.5187 16.2719 11.5187 15.7169Z" fill="currentColor"/>
</svg>
