<svg width="24" height="24" viewBox="0 0 24 24" fill="none" xmlns="http://www.w3.org/2000/svg">
<path fill-rule="evenodd" clip-rule="evenodd" d="M12 4C11.4477 4 11 4.44772 11 5C11 5.02246 11.0007 5.04475 11.0022 5.06684C11.0058 5.09214 11.0084 5.1174 11.0101 5.14256C11.0793 5.62732 11.4961 6 12 6C12.5523 6 13 5.55228 13 5C13 4.44772 12.5523 4 12 4ZM9.04806 4.46226C9.30146 3.06202 10.5267 2 12 2C13.4592 2 14.675 3.04176 14.9444 4.4221C15.4833 4.60294 15.924 4.83471 16.299 5.09996C16.8044 5.45749 17.1591 5.85647 17.426 6.15662C17.4339 6.16557 17.4418 6.17442 17.4496 6.18319C17.738 6.50732 17.9019 6.67967 18.1011 6.80059C18.2688 6.90238 18.5204 7 19 7C19.5523 7 20 7.44772 20 8C20 8.55228 19.5523 9 19 9C18.6333 9 18.3023 8.96314 18 8.8914V9.34359L19.8642 13.5435C19.872 13.561 19.8792 13.5786 19.886 13.5964C19.9876 13.866 20.0221 14.1562 19.9863 14.4421C19.9506 14.7281 19.8457 15.0008 19.6812 15.2369C19.5167 15.473 19.2975 15.6653 19.0428 15.798C18.7882 15.9307 18.5053 15.9999 18.2184 16H15.782C15.4951 15.9999 15.2119 15.9307 14.9572 15.798C14.7025 15.6653 14.4833 15.473 14.3188 15.2369C14.1543 15.0008 14.0494 14.7281 14.0137 14.4421C13.978 14.1562 14.0125 13.866 14.1141 13.5964C14.1208 13.5786 14.128 13.561 14.1358 13.5435L16 9.34359V7.56277C15.9932 7.55512 15.9865 7.54754 15.9798 7.54002C15.9716 7.53076 15.9634 7.52161 15.9554 7.51256C15.6756 7.19808 15.4533 6.95154 15.144 6.73276C15.0029 6.63299 14.8361 6.53417 14.6308 6.44302C14.2784 7.08404 13.6986 7.58238 13 7.82929V20H18.5C19.0523 20 19.5 20.4477 19.5 21C19.5 21.5523 19.0523 22 18.5 22H5.5C4.94772 22 4.5 21.5523 4.5 21C4.5 20.4477 4.94772 20 5.5 20H11V7.82929C10.3254 7.59087 9.76162 7.11805 9.4064 6.5087C9.3121 6.56729 9.23359 6.62711 9.16555 6.68593C8.97422 6.85134 8.84784 7.01625 8.6635 7.25677C8.6127 7.32305 8.5575 7.39508 8.49532 7.47445C8.35994 7.64726 8.20074 7.83934 8.00002 8.02675V9.34359L9.86425 13.5435C9.87199 13.561 9.87922 13.5786 9.88595 13.5964C9.98757 13.866 10.0221 14.1562 9.98633 14.4421C9.95059 14.7281 9.84575 15.0008 9.68122 15.2369C9.51671 15.473 9.29753 15.6653 9.04283 15.798C8.78815 15.9307 8.5053 15.9999 8.2184 16H5.782C5.49511 15.9999 5.21188 15.9307 4.95721 15.798C4.7025 15.6653 4.48332 15.473 4.31881 15.2369C4.15428 15.0008 4.04944 14.7281 4.01371 14.4421C3.97797 14.1562 4.01247 13.866 4.11408 13.5964C4.12081 13.5786 4.12805 13.561 4.13578 13.5435L6.00002 9.34359V8.93332C5.69552 8.97795 5.36368 9 5 9C4.44772 9 4 8.55228 4 8C4 7.44772 4.44772 7 5 7C5.73909 7 6.12528 6.88307 6.34707 6.76925C6.5609 6.65952 6.71036 6.50983 6.92093 6.24105C6.953 6.20011 6.98827 6.15366 7.02679 6.10292C7.2199 5.84857 7.4947 5.48663 7.85755 5.17294C8.17979 4.89436 8.56465 4.65249 9.04806 4.46226ZM7.00002 12.0204L6.12133 14H7.8787L7.00002 12.0204ZM17 12.0204L16.1213 14H17.8787L17 12.0204Z" fill="#101828"/>
</svg>
