<svg width="24" height="24" viewBox="0 0 24 24" fill="none" xmlns="http://www.w3.org/2000/svg">
<path fill-rule="evenodd" clip-rule="evenodd" d="M12 4C10.8954 4 9.99995 4.89543 9.99995 6V7H14V6C14 4.89543 13.1045 4 12 4ZM16 7V6C16 3.79086 14.2091 2 12 2C9.79081 2 7.99995 3.79086 7.99995 6V7H5.99995C5.47742 7 5.04298 7.40231 5.0029 7.9233L4.08572 19.8466C3.99637 21.0082 4.91481 22 6.07983 22H17.9201C19.0851 22 20.0035 21.0082 19.9142 19.8466L18.997 7.9233C18.9569 7.40231 18.5225 7 18 7H16ZM14 9V10C14 10.5523 14.4477 11 15 11C15.5522 11 16 10.5523 16 10V9H17.0739L17.9201 20H6.07983L6.92598 9H7.99995V10C7.99995 10.5523 8.44767 11 8.99995 11C9.55224 11 9.99995 10.5523 9.99995 10V9H14Z" fill="#101828"/>
</svg>
