<svg width="24" height="24" viewBox="0 0 24 24" fill="none" xmlns="http://www.w3.org/2000/svg">
<path fill-rule="evenodd" clip-rule="evenodd" d="M6.46146 5C6.22167 5.65421 5.84796 6.6978 5.53467 7.67699C5.37689 8.17016 5.23803 8.63588 5.13964 9.0218C5.09043 9.21481 5.05368 9.37885 5.02976 9.51081C5.01787 9.57638 5.01003 9.62926 5.0053 9.67036C5.00297 9.69063 5.00159 9.70642 5.00082 9.71812L5.00052 9.72368C5.02085 10.0862 5.15727 10.4107 5.36054 10.6408C5.39352 10.6781 5.42768 10.7124 5.46278 10.7437C5.47719 10.7553 5.49136 10.7673 5.50528 10.7798C5.66907 10.9122 5.8505 10.983 6.02646 10.9993C6.13148 10.9949 6.23802 10.9693 6.34186 10.9205C6.45604 10.8669 6.56785 10.7846 6.66734 10.6719C6.66932 10.6697 6.67129 10.6674 6.67326 10.6652C6.71811 10.6131 6.76006 10.5549 6.79807 10.4907C6.80497 10.4791 6.81208 10.4676 6.81941 10.4563C6.85396 10.3944 6.88452 10.328 6.91028 10.2574C6.96872 10.0973 6.99988 9.92263 7.00001 9.7441C7 9.7414 7 9.7387 7 9.736C7 9.18425 7.44687 8.73676 7.99862 8.736C8.55036 8.73524 8.99847 9.1815 9 9.73324C9 9.73595 9.00001 9.73865 9.00001 9.74136C9.00127 10.1063 9.13167 10.4359 9.3332 10.6626C9.5323 10.8866 9.77534 10.986 10 10.986C10.2247 10.986 10.4677 10.8866 10.6668 10.6626C10.8693 10.4348 11 10.1031 11 9.736C11 9.18372 11.4477 8.736 12 8.736C12.5523 8.736 13 9.18372 13 9.736C13 10.1031 13.1307 10.4348 13.3332 10.6626C13.5323 10.8866 13.7753 10.986 14 10.986C14.2247 10.986 14.4677 10.8866 14.6668 10.6626C14.8693 10.4348 15 10.1031 15 9.736C15 9.18372 15.4477 8.736 16 8.736C16.5523 8.736 17 9.18372 17 9.736C17 9.91546 17.0315 10.0909 17.0907 10.2515C17.1498 10.4121 17.2339 10.5509 17.3332 10.6626C17.4323 10.7741 17.5436 10.8554 17.657 10.9083C17.77 10.961 17.8862 10.986 18 10.986C18.1138 10.986 18.23 10.961 18.343 10.9083C18.4564 10.8554 18.5677 10.7741 18.6668 10.6626C18.7661 10.5509 18.8502 10.4121 18.9093 10.2515C18.9685 10.0909 19 9.91546 19 9.736C19 9.63168 18.9618 9.37729 18.8516 8.95712C18.7482 8.56301 18.602 8.09747 18.4356 7.60909C18.1053 6.64046 17.7115 5.62973 17.4591 5H6.46146ZM7.9995 12.1714C7.8357 12.3306 7.65421 12.4716 7.45712 12.5904C7.01686 12.8558 6.5161 12.9997 6.00054 13L6 13V19H7V15C7 14.4477 7.44772 14 8 14H11C11.5523 14 12 14.4477 12 15V19H18V13L17.9992 13C17.4837 12.9996 16.983 12.8557 16.5428 12.5904C16.3455 12.4715 16.1638 12.3305 15.9998 12.1711C15.8359 12.3306 15.6542 12.4717 15.4568 12.5907C15.0164 12.8561 14.5153 12.9999 13.9996 12.9999C13.4838 12.9999 12.9827 12.8561 12.5423 12.5907C12.345 12.4718 12.1634 12.3307 11.9996 12.1714C11.8357 12.3307 11.6541 12.4718 11.4568 12.5907C11.0164 12.8561 10.5153 12.9999 9.99956 12.9999C9.48378 12.9999 8.98275 12.8561 8.54227 12.5907C8.34502 12.4718 8.1634 12.3307 7.9995 12.1714ZM20 12.16C20.0559 12.1059 20.1098 12.0497 20.1616 11.9914C20.4337 11.6852 20.6443 11.328 20.7862 10.9426C20.9281 10.5572 21 10.1475 21 9.736C21 9.35314 20.8997 8.88258 20.7861 8.44968C20.6657 7.99072 20.5029 7.47507 20.3286 6.96375C19.9795 5.93965 19.5675 4.88425 19.3103 4.24272C19.0049 3.48111 18.2688 3 17.4656 3H6.45631C5.62886 3 4.87766 3.50982 4.58767 4.30068C4.34453 4.96376 3.95736 6.04369 3.62979 7.06755C3.46629 7.5786 3.31403 8.0868 3.20163 8.52772C3.09767 8.93549 3 9.38742 3 9.736C3 9.74923 3.00026 9.76247 3.00079 9.77569C3.03279 10.5813 3.33041 11.3635 3.86164 11.9649C3.90635 12.0155 3.9525 12.0646 4 12.112V19C4 20.1046 4.89543 21 6 21H8C8.55228 21 9 20.5523 9 20V16H10V20C10 20.5523 10.4477 21 11 21H18C19.1046 21 20 20.1046 20 19V12.16ZM13 15C13 14.4477 13.4477 14 14 14H16C16.5523 14 17 14.4477 17 15V17C17 17.5523 16.5523 18 16 18H14C13.4477 18 13 17.5523 13 17V15Z" fill="#101828"/>
</svg>
