<svg width="24" height="24" viewBox="0 0 24 24" fill="none" xmlns="http://www.w3.org/2000/svg">
<path fill-rule="evenodd" clip-rule="evenodd" d="M12.3074 5C12.3074 5 12.3075 5 12.3074 5V5ZM12.3163 5.00001L18.0379 5.00698C18.0386 5.00699 18.0392 5.00699 18.0399 5.007C18.2956 5.00908 18.54 5.11223 18.72 5.29398C18.9003 5.47619 19.001 5.72253 19 5.97892L19 11.4805C18.9912 11.4888 18.9825 11.4972 18.974 11.5058L11.552 18.9886L5.00115 12.38L12.3163 5.00001ZM12.3125 3C12.3123 3 12.3128 3.00001 12.3125 3L18.0501 3.00701C18.8362 3.01179 19.5883 3.32828 20.1413 3.88697C20.6939 4.44519 21.0027 5.19965 21 5.98504C21 5.98572 21 5.9864 21 5.98708L20 5.983H21V5.98504V11.4829C21 11.7564 20.9437 12.0271 20.8347 12.278C20.7287 12.5219 20.575 12.7421 20.3827 12.9256L20.394 12.9142L19.684 12.21L20.3661 12.9413C20.3716 12.9361 20.3772 12.9309 20.3827 12.9256L12.9557 20.4134L12.2451 19.7101L12.955 20.4142C12.7716 20.5992 12.5535 20.7462 12.3132 20.8466C12.0725 20.9471 11.8143 20.999 11.5534 20.9992C11.2926 20.9993 11.0343 20.9479 10.7934 20.8477C10.5526 20.7475 10.334 20.6006 10.1502 20.4155L3.57771 13.7849L4.28698 13.08L3.57678 13.784C3.20624 13.4107 2.99829 12.906 2.99829 12.38C2.99829 11.8538 3.20641 11.3489 3.57723 10.9756L10.9096 3.57813C11.0939 3.39421 11.3127 3.24849 11.5535 3.14928C11.794 3.05017 12.0524 2.99945 12.3125 3ZM14.583 8.44483C14.583 7.89254 15.0307 7.44483 15.583 7.44483H15.593C16.1453 7.44483 16.593 7.89254 16.593 8.44483C16.593 8.99711 16.1453 9.44483 15.593 9.44483H15.583C15.0307 9.44483 14.583 8.99711 14.583 8.44483Z" fill="#101828"/>
</svg>
