<svg width="24" height="24" viewBox="0 0 24 24" fill="none" xmlns="http://www.w3.org/2000/svg">
<path fill-rule="evenodd" clip-rule="evenodd" d="M7.05025 4.05025C8.36301 2.7375 10.1435 2 12 2C13.8565 2 15.637 2.7375 16.9497 4.05025C18.2625 5.36301 19 7.14349 19 9C19.7957 9 20.5587 9.31607 21.1213 9.87868C21.6839 10.4413 22 11.2043 22 12V14C22 14.7957 21.6839 15.5587 21.1213 16.1213C20.5587 16.6839 19.7957 17 19 17H18.9137C18.8511 17.3298 18.7548 17.6531 18.6257 17.9647C18.3786 18.5612 18.0164 19.1033 17.5598 19.5598C17.1033 20.0164 16.5612 20.3786 15.9647 20.6257C15.3681 20.8728 14.7287 21 14.083 21H13.7324C13.3866 21.5978 12.7403 22 12 22H11C9.89543 22 9 21.1046 9 20V19C9 17.8954 9.89543 17 11 17H12C13.1046 17 14 17.8954 14 19H14.083C14.4661 19 14.8454 18.9245 15.1993 18.778C15.5532 18.6314 15.8748 18.4165 16.1456 18.1456C16.4165 17.8748 16.6314 17.5532 16.778 17.1993C16.9245 16.8454 17 16.4661 17 16.083V9C17 7.67392 16.4732 6.40215 15.5355 5.46447C14.5979 4.52678 13.3261 4 12 4C10.6739 4 9.40215 4.52678 8.46447 5.46447C7.52678 6.40215 7 7.67392 7 9V16C7 16.5523 6.55228 17 6 17H5C4.20435 17 3.44129 16.6839 2.87868 16.1213C2.31607 15.5587 2 14.7956 2 14V12C2 11.2044 2.31607 10.4413 2.87868 9.87868C3.44129 9.31607 4.20435 9 5 9C5 7.14348 5.7375 5.36301 7.05025 4.05025ZM19 15C19.2652 15 19.5196 14.8946 19.7071 14.7071C19.8946 14.5196 20 14.2652 20 14V12C20 11.7348 19.8946 11.4804 19.7071 11.2929C19.5196 11.1054 19.2652 11 19 11V15ZM11.9072 5.00405C12.4345 4.99166 12.959 5.08367 13.4506 5.2748C13.9422 5.46592 14.3912 5.75238 14.7716 6.11768C15.17 6.5002 15.1828 7.13323 14.8003 7.53161C14.4178 7.92998 13.7848 7.94283 13.3864 7.56032C13.1962 7.37766 12.9717 7.23443 12.7259 7.13887C12.4801 7.04331 12.2178 6.9973 11.9542 7.0035C11.6905 7.0097 11.4307 7.06797 11.1897 7.17498C10.9487 7.28198 10.7312 7.43559 10.5497 7.62698C10.1698 8.02779 9.53683 8.04469 9.13602 7.66473C8.73521 7.28476 8.71831 6.65183 9.09827 6.25102C9.46114 5.86824 9.89613 5.56101 10.3782 5.347C10.8603 5.133 11.3799 5.01644 11.9072 5.00405ZM5 11C4.73478 11 4.48043 11.1054 4.29289 11.2929C4.10536 11.4804 4 11.7348 4 12V14C4 14.2652 4.10536 14.5196 4.29289 14.7071C4.48043 14.8946 4.73478 15 5 15V11ZM12 19H11V20H12V19Z" fill="currentColor"/>
</svg>
