<svg width="24" height="24" viewBox="0 0 24 24" fill="none" xmlns="http://www.w3.org/2000/svg">
<path fill-rule="evenodd" clip-rule="evenodd" d="M9 3C9.26522 3 9.51957 3.10536 9.70711 3.29289L13.4142 7H14.5858L12.2929 4.70711C11.9024 4.31658 11.9024 3.68342 12.2929 3.29289C12.6834 2.90237 13.3166 2.90237 13.7071 3.29289L17.4697 7.05546C18.3476 7.26675 19 8.05719 19 9V11C20.1046 11 21 11.8954 21 13V15C21 16.1046 20.1046 17 19 17V19C19 20.1046 18.1046 21 17 21H5C3.89543 21 3 20.1046 3 19V9C3 8.05719 3.65237 7.26675 4.53033 7.05546L8.29289 3.29289C8.48043 3.10536 8.73478 3 9 3ZM7.41421 7H10.5858L9 5.41421L7.41421 7ZM17 17H15C13.3431 17 12 15.6569 12 14C12 12.3431 13.3431 11 15 11H17V9H5V19H17V17ZM15 13C14.4477 13 14 13.4477 14 14C14 14.5523 14.4477 15 15 15H19V13H15Z" fill="currentColor"/>
</svg>
