<svg width="24" height="24" viewBox="0 0 24 24" fill="none" xmlns="http://www.w3.org/2000/svg">
<path fill-rule="evenodd" clip-rule="evenodd" d="M5 4C5 2.89543 5.89543 2 7 2H18C19.1046 2 20 2.89543 20 4V20C20 21.1046 19.1046 22 18 22H7C5.89543 22 5 21.1046 5 20V19C4.44772 19 4 18.5523 4 18C4 17.4477 4.44772 17 5 17V16C4.44772 16 4 15.5523 4 15C4 14.4477 4.44772 14 5 14V13C4.44772 13 4 12.5523 4 12C4 11.4477 4.44772 11 5 11V10C4.44772 10 4 9.55228 4 9C4 8.44772 4.44772 8 5 8V7C4.44772 7 4 6.55228 4 6C4 5.44772 4.44772 5 5 5V4ZM7 7C7.55228 7 8 6.55228 8 6C8 5.44772 7.55228 5 7 5V4L18 4V20H7V19C7.55228 19 8 18.5523 8 18C8 17.4477 7.55228 17 7 17V16C7.55228 16 8 15.5523 8 15C8 14.4477 7.55228 14 7 14V13C7.55228 13 8 12.5523 8 12C8 11.4477 7.55228 11 7 11V10C7.55228 10 8 9.55228 8 9C8 8.44772 7.55228 8 7 8V7ZM13 9C12.4477 9 12 9.44772 12 10C12 10.5523 12.4477 11 13 11C13.5523 11 14 10.5523 14 10C14 9.44772 13.5523 9 13 9ZM10 10C10 8.34315 11.3431 7 13 7C14.6569 7 16 8.34315 16 10C16 11.6569 14.6569 13 13 13C11.3431 13 10 11.6569 10 10ZM12 16C11.4477 16 11 16.4477 11 17C11 17.5523 10.5523 18 10 18C9.44772 18 9 17.5523 9 17C9 15.3431 10.3431 14 12 14H14C15.6569 14 17 15.3431 17 17C17 17.5523 16.5523 18 16 18C15.4477 18 15 17.5523 15 17C15 16.4477 14.5523 16 14 16H12Z" fill="#101828"/>
</svg>
