<svg width="24" height="24" viewBox="0 0 24 24" fill="none" xmlns="http://www.w3.org/2000/svg">
<path fill-rule="evenodd" clip-rule="evenodd" d="M9 6C7.89543 6 7 6.89543 7 8C7 9.10457 7.89543 10 9 10C10.1046 10 11 9.10457 11 8C11 6.89543 10.1046 6 9 6ZM5 8C5 5.79086 6.79086 4 9 4C11.2091 4 13 5.79086 13 8C13 10.2091 11.2091 12 9 12C6.79086 12 5 10.2091 5 8ZM18 9C18.5523 9 19 9.44772 19 10V11H20C20.5523 11 21 11.4477 21 12C21 12.5523 20.5523 13 20 13H19V14C19 14.5523 18.5523 15 18 15C17.4477 15 17 14.5523 17 14V13H16C15.4477 13 15 12.5523 15 12C15 11.4477 15.4477 11 16 11H17V10C17 9.44772 17.4477 9 18 9ZM7 15C5.89543 15 5 15.8954 5 17V18H13V17C13 15.8954 12.1046 15 11 15H7ZM3 17C3 14.7909 4.79086 13 7 13H11C13.2091 13 15 14.7909 15 17V18C15 19.1046 14.1046 20 13 20H5C3.89543 20 3 19.1046 3 18V17Z" fill="#101828"/>
</svg>
