<svg width="24" height="24" viewBox="0 0 24 24" fill="none" xmlns="http://www.w3.org/2000/svg">
<path fill-rule="evenodd" clip-rule="evenodd" d="M8 6C6.89543 6 6 6.89543 6 8C6 9.10457 6.89543 10 8 10C9.10457 10 10 9.10457 10 8C10 6.89543 9.10457 6 8 6ZM4 8C4 5.79086 5.79086 4 8 4C10.2091 4 12 5.79086 12 8C12 10.2091 10.2091 12 8 12C5.79086 12 4 10.2091 4 8ZM16 6C15.4078 6 14.8767 6.25615 14.509 6.66691C14.1407 7.07844 13.5085 7.11346 13.097 6.74513C12.6855 6.37681 12.6504 5.74461 13.0188 5.33309C13.7498 4.51635 14.8152 4 16 4C18.2091 4 20 5.79086 20 8C20 10.2091 18.2091 12 16 12C14.8152 12 13.7498 11.4836 13.0188 10.6669C12.6504 10.2554 12.6855 9.62319 13.097 9.25487C13.5085 8.88654 14.1407 8.92156 14.509 9.33309C14.8767 9.74385 15.4078 10 16 10C17.1046 10 18 9.10457 18 8C18 6.89543 17.1046 6 16 6ZM6 15C4.89543 15 4 15.8954 4 17V18H12V17C12 15.8954 11.1046 15 10 15H6ZM2 17C2 14.7909 3.79086 13 6 13H10C12.2091 13 14 14.7909 14 17V18C14 19.1046 13.1046 20 12 20H4C2.89543 20 2 19.1046 2 18V17ZM15 14C15 13.4477 15.4477 13 16 13H18C20.2091 13 22 14.7909 22 17V18C22 19.1046 21.1046 20 20 20H16C15.4477 20 15 19.5523 15 19C15 18.4477 15.4477 18 16 18H20V17C20 15.8954 19.1046 15 18 15H16C15.4477 15 15 14.5523 15 14Z" fill="#101828"/>
</svg>
