<svg width="24" height="24" viewBox="0 0 24 24" fill="none" xmlns="http://www.w3.org/2000/svg">
<path fill-rule="evenodd" clip-rule="evenodd" d="M9 6C7.89543 6 7 6.89543 7 8C7 9.10457 7.89543 10 9 10C10.1046 10 11 9.10457 11 8C11 6.89543 10.1046 6 9 6ZM5 8C5 5.79086 6.79086 4 9 4C11.2091 4 13 5.79086 13 8C13 10.2091 11.2091 12 9 12C6.79086 12 5 10.2091 5 8ZM17 10V11.126C17.367 11.2205 17.7136 11.3657 18.032 11.5538L18.8284 10.7574L20.2426 12.1716L19.4462 12.968C19.6343 13.2863 19.7795 13.633 19.874 14L21 14.0001L20.9999 16.0001L19.874 16C19.7795 16.367 19.6343 16.7137 19.4462 17.032L20.2426 17.8284L18.8284 19.2426L18.032 18.4462C17.7137 18.6343 17.367 18.7795 17 18.874V20H15V18.874C14.633 18.7795 14.2863 18.6343 13.968 18.4462L13.1716 19.2426L11.7574 17.8284L12.5538 17.032C12.3657 16.7137 12.2205 16.367 12.126 16L11 16.0001L10.9999 14.0001L12.126 14C12.2205 13.633 12.3657 13.2864 12.5538 12.968L11.7574 12.1716L13.1716 10.7574L13.968 11.5538C14.2863 11.3657 14.633 11.2205 15 11.126V10H17ZM14.583 16.4114C14.5849 16.4133 14.5867 16.4151 14.5886 16.417C14.9503 16.7773 15.4491 17 16 17C17.1046 17 18 16.1046 18 15C18 14.4514 17.7791 13.9544 17.4214 13.5931L17.4069 13.5786C17.0456 13.2209 16.5486 13 16 13C14.8954 13 14 13.8954 14 15C14 15.5509 14.2227 16.0497 14.583 16.4114ZM7 15C5.89543 15 5 15.8954 5 17V18H11V20H5C3.89543 20 3 19.1046 3 18V17C3 14.7909 4.79086 13 7 13H10V15H7Z" fill="#101828"/>
</svg>
