<svg width="24" height="24" viewBox="0 0 24 24" fill="none" xmlns="http://www.w3.org/2000/svg">
<path fill-rule="evenodd" clip-rule="evenodd" d="M8.99551 6C7.89177 6 6.99701 6.89543 6.99701 8C6.99701 9.10456 7.89177 9.99999 8.99551 9.99999C10.0993 9.99999 10.994 9.10456 10.994 8C10.994 6.89543 10.0993 6 8.99551 6ZM4.9985 8C4.9985 5.79086 6.78802 4 8.99551 4C11.203 4 12.9925 5.79086 12.9925 8C12.9925 10.2091 11.203 12 8.99551 12C6.78802 12 4.9985 10.2091 4.9985 8ZM17.4111 10.2945L11.589 16.1209L11.2685 17.7253L12.8717 17.4045L18.7222 11.5497C19.069 11.2026 19.1106 10.6415 18.7347 10.2783C18.5211 10.0719 18.2968 10.011 18.0761 10.0244C17.8415 10.0385 17.5973 10.1407 17.4111 10.2945ZM16.0772 8.80439C17.0273 7.97729 18.7877 7.54944 20.1229 8.83949C21.4582 10.1297 21.1103 11.9882 20.1354 12.9639L14.0709 19.0329C13.9314 19.1725 13.7537 19.2676 13.5602 19.3063L10.1907 19.9806C9.86308 20.0461 9.52442 19.9435 9.28818 19.7071C9.05195 19.4707 8.9494 19.1318 9.0149 18.8039L9.68863 15.4318C9.72731 15.2382 9.8224 15.0604 9.96191 14.9208L16.0264 8.85179C16.0427 8.83541 16.0597 8.8196 16.0772 8.80439ZM6.99701 15C5.89326 15 4.9985 15.8954 4.9985 17V18H7.99626V20H4.9985C3.89476 20 3 19.1046 3 18V17C3 14.7909 4.78952 13 6.99701 13H8.99551V15H6.99701Z" fill="currentColor"/>
</svg>
