<svg width="24" height="24" viewBox="0 0 24 24" fill="none" xmlns="http://www.w3.org/2000/svg">
<path fill-rule="evenodd" clip-rule="evenodd" d="M12 4C7.58172 4 4 7.58172 4 12C4 14.295 4.96641 16.3643 6.51449 17.8232C6.79829 17.2339 7.19756 16.7013 7.69442 16.2597C8.60485 15.4504 9.77998 15.0023 10.9981 15L11 15L13.0019 15C14.22 15.0023 15.3952 15.4504 16.3056 16.2597C16.8024 16.7013 17.2017 17.2339 17.4855 17.8232C19.0336 16.3643 20 14.295 20 12C20 7.58172 16.4183 4 12 4ZM12.9821 21.9524C18.044 21.459 22 17.1915 22 12C22 6.47715 17.5228 2 12 2C6.47715 2 2 6.47715 2 12C2 17.1915 5.95601 21.459 11.0179 21.9524C11.3433 21.9843 11.671 22.0003 12 22M11.9989 20C11.9993 20 11.9996 20 12 20C12.0004 20 12.0007 20 12.0011 20C12.3335 20 12.6611 19.9796 12.9829 19.9402C13.9771 19.8176 14.9402 19.5079 15.8208 19.0267C15.6556 18.54 15.3663 18.1006 14.9769 17.7545C14.4318 17.27 13.7283 17.0016 12.999 17H11.001C10.2717 17.0016 9.56823 17.27 9.02315 17.7545C8.63374 18.1006 8.34441 18.54 8.17916 19.0267C9.0598 19.5079 10.0229 19.8176 11.0171 19.9402C11.3389 19.9796 11.6665 20 11.9989 20ZM12 22C12.329 22.0003 12.6567 21.9843 12.9821 21.9524L12 22ZM12 8C10.8954 8 10 8.89543 10 10C10 11.1046 10.8954 12 12 12C13.1046 12 14 11.1046 14 10C14 8.89543 13.1046 8 12 8ZM8 10C8 7.79086 9.79086 6 12 6C14.2091 6 16 7.79086 16 10C16 12.2091 14.2091 14 12 14C9.79086 14 8 12.2091 8 10Z" fill="currentColor"/>
</svg>
