<svg width="24" height="24" viewBox="0 0 24 24" fill="none" xmlns="http://www.w3.org/2000/svg">
<path fill-rule="evenodd" clip-rule="evenodd" d="M7.5 6C6.67157 6 6 6.67157 6 7.5C6 8.22452 6.51468 8.83108 7.19893 8.96998C7.74018 9.07984 8.08988 9.60768 7.98001 10.1489C7.87015 10.6902 7.34231 11.0399 6.80107 10.93C5.20308 10.6056 4 9.19443 4 7.5C4 5.567 5.567 4 7.5 4C8.28693 4 9.0158 4.2609 9.60092 4.70051C10.0425 5.03225 10.1315 5.65913 9.79974 6.10067C9.46799 6.54222 8.84112 6.63124 8.39957 6.29949C8.14894 6.11119 7.8389 6 7.5 6ZM14.3993 4.70051C14.9844 4.2609 15.7133 4 16.5002 4C18.4332 4 20.0002 5.567 20.0002 7.5C20.0002 9.19443 18.7972 10.6056 17.1992 10.93C16.6579 11.0399 16.1301 10.6902 16.0202 10.1489C15.9104 9.60768 16.2601 9.07984 16.8013 8.96998C17.4856 8.83108 18.0002 8.22452 18.0002 7.5C18.0002 6.67157 17.3287 6 16.5002 6C16.1613 6 15.8513 6.11119 15.6007 6.29949C15.1591 6.63124 14.5323 6.54222 14.2005 6.10067C13.8688 5.65913 13.9578 5.03225 14.3993 4.70051ZM12 8C11.1716 8 10.5 8.67157 10.5 9.5C10.5 10.3284 11.1716 11 12 11C12.8284 11 13.5 10.3284 13.5 9.5C13.5 8.67157 12.8284 8 12 8ZM8.5 9.5C8.5 7.567 10.067 6 12 6C13.933 6 15.5 7.567 15.5 9.5C15.5 11.433 13.933 13 12 13C10.067 13 8.5 11.433 8.5 9.5ZM6 14C4.89543 14 4 14.8954 4 16H4.5C5.05228 16 5.5 16.4477 5.5 17C5.5 17.5523 5.05228 18 4.5 18H4C2.89543 18 2 17.1046 2 16C2 13.7909 3.79086 12 6 12H7C7.55228 12 8 12.4477 8 13C8 13.5523 7.55228 14 7 14H6ZM16.0002 13C16.0002 12.4477 16.448 12 17.0002 12H18.0002C20.2094 12 22.0002 13.7909 22.0002 16C22.0002 17.1046 21.1048 18 20.0002 18H19.5002C18.948 18 18.5002 17.5523 18.5002 17C18.5002 16.4477 18.948 16 19.5002 16H20.0002C20.0002 14.8954 19.1048 14 18.0002 14H17.0002C16.448 14 16.0002 13.5523 16.0002 13ZM10.5 16C9.39543 16 8.5 16.8954 8.5 18H15.5C15.5 16.8954 14.6046 16 13.5 16H10.5ZM6.5 18C6.5 15.7909 8.29086 14 10.5 14H13.5C15.7091 14 17.5 15.7909 17.5 18C17.5 19.1046 16.6046 20 15.5 20H8.5C7.39543 20 6.5 19.1046 6.5 18Z" fill="#101828"/>
</svg>
