<svg width="24" height="24" viewBox="0 0 24 24" fill="none" xmlns="http://www.w3.org/2000/svg">
<path fill-rule="evenodd" clip-rule="evenodd" d="M12 6C10.8954 6 10 6.89543 10 8C10 9.10457 10.8954 10 12 10C13.1046 10 14 9.10457 14 8C14 6.89543 13.1046 6 12 6ZM8 8C8 5.79086 9.79086 4 12 4C14.2091 4 16 5.79086 16 8C16 10.2091 14.2091 12 12 12C9.79086 12 8 10.2091 8 8ZM10 15C8.89543 15 8 15.8954 8 17V18H16V17C16 15.8954 15.1046 15 14 15H10ZM6 17C6 14.7909 7.79086 13 10 13H14C16.2091 13 18 14.7909 18 17V18C18 19.1046 17.1046 20 16 20H8C6.89543 20 6 19.1046 6 18V17Z" fill="#101828"/>
</svg>
