<svg width="24" height="24" viewBox="0 0 24 24" fill="none" xmlns="http://www.w3.org/2000/svg">
<path d="M19.4279 15.428C19.1487 15.1488 18.7931 14.9584 18.4059 14.881L16.0189 14.404C14.7105 14.1424 13.3523 14.3243 12.1589 14.921L11.8409 15.079C10.6475 15.6757 9.28926 15.8576 7.98089 15.596L6.04989 15.21C5.7271 15.1455 5.39337 15.1617 5.07833 15.2571C4.76328 15.3525 4.47666 15.5242 4.24389 15.757M7.99989 4H15.9999L14.9999 5V10.172C15 10.7024 15.2108 11.211 15.5859 11.586L20.5859 16.586C21.8459 17.846 20.9529 20 19.1709 20H4.82789C3.04589 20 2.15389 17.846 3.41389 16.586L8.41389 11.586C8.78899 11.211 8.99978 10.7024 8.99989 10.172V5L7.99989 4Z" stroke="currentColor" stroke-width="2" stroke-linecap="round" stroke-linejoin="round"/>
</svg>
