<svg width="24" height="24" viewBox="0 0 24 24" fill="none" xmlns="http://www.w3.org/2000/svg">
<path d="M7.00007 16C6.01509 16.0011 5.06433 15.6387 4.32994 14.9823C3.59556 14.3259 3.12919 13.4216 3.02018 12.4427C2.91118 11.4637 3.1672 10.479 3.73921 9.67711C4.31121 8.87523 5.15897 8.3126 6.12007 8.097C5.84199 6.80009 6.0905 5.44583 6.81092 4.33215C7.53134 3.21846 8.66467 2.43658 9.96157 2.1585C11.2585 1.88042 12.6127 2.12892 13.7264 2.84934C14.8401 3.56976 15.622 4.70309 15.9001 6H16.0001C17.24 5.99875 18.4362 6.45828 19.3564 7.28937C20.2766 8.12046 20.8552 9.26383 20.9798 10.4975C21.1044 11.7312 20.7662 12.9671 20.0308 13.9655C19.2954 14.9638 18.2152 15.6533 17.0001 15.9M9.00007 19L12.0001 22M12.0001 22L15.0001 19M12.0001 22V10" stroke="currentColor" stroke-width="2" stroke-linecap="round" stroke-linejoin="round"/>
</svg>
