<svg width="24" height="24" viewBox="0 0 24 24" fill="none" xmlns="http://www.w3.org/2000/svg">
<path d="M3.34255 7.77789C3.5687 7.23192 3.90017 6.73584 4.31804 6.31798C4.7359 5.90011 5.23198 5.56864 5.77795 5.34249C6.32392 5.11634 6.90909 4.99994 7.50004 4.99994C8.09099 4.99994 8.67616 5.11634 9.22213 5.34249C9.7681 5.56864 10.2642 5.90011 10.682 6.31798L12 7.63598L13.318 6.31798C14.162 5.47406 15.3066 4.99995 16.5 4.99995C17.6935 4.99995 18.8381 5.47406 19.682 6.31798C20.526 7.1619 21.0001 8.3065 21.0001 9.49998C21.0001 10.6935 20.526 11.8381 19.682 12.682L12 20.364L4.31804 12.682C3.90017 12.2641 3.5687 11.768 3.34255 11.2221C3.1164 10.6761 3 10.0909 3 9.49998C3 8.90902 3.1164 8.32386 3.34255 7.77789Z" stroke="currentColor" stroke-width="2" stroke-linecap="round" stroke-linejoin="round"/>
</svg>
