<svg width="24" height="24" viewBox="0 0 24 24" fill="none" xmlns="http://www.w3.org/2000/svg">
<path d="M12.9511 2.92696C12.6521 2.00596 11.3491 2.00596 11.0491 2.92696L9.5301 7.60096C9.46467 7.80161 9.33744 7.97641 9.16662 8.10035C8.9958 8.22429 8.79014 8.29101 8.5791 8.29096H3.6651C2.6971 8.29096 2.2931 9.53096 3.0771 10.101L7.0531 12.989C7.22389 13.1131 7.351 13.2882 7.4162 13.489C7.48141 13.6898 7.48137 13.9061 7.4161 14.107L5.8981 18.781C5.5981 19.702 6.6531 20.469 7.4361 19.899L11.4121 17.011C11.583 16.8867 11.7888 16.8198 12.0001 16.8198C12.2114 16.8198 12.4172 16.8867 12.5881 17.011L16.5641 19.899C17.3471 20.469 18.4021 19.703 18.1021 18.781L16.5841 14.107C16.5188 13.9061 16.5188 13.6898 16.584 13.489C16.6492 13.2882 16.7763 13.1131 16.9471 12.989L20.9231 10.101C21.7061 9.53096 21.3041 8.29096 20.3351 8.29096H15.4201C15.2092 8.2908 15.0038 8.22399 14.8332 8.10006C14.6625 7.97614 14.5355 7.80144 14.4701 7.60096L12.9511 2.92696Z" stroke="black" stroke-width="2" stroke-linecap="round" stroke-linejoin="round"/>
</svg>
