<svg width="24" height="24" viewBox="0 0 24 24" fill="none" xmlns="http://www.w3.org/2000/svg">
<path fill-rule="evenodd" clip-rule="evenodd" d="M14.0936 4.07043C13.7018 4.13957 13.4099 4.27092 13.2262 4.46578C13.0014 4.70409 12.8447 5.05139 12.7495 5.46482C12.747 5.47585 12.7445 5.48688 12.7421 5.4979C13.1049 5.4412 13.4141 5.32137 13.7111 5.06822C13.8867 4.91856 14.0228 4.64197 14.0927 4.20554C14.1001 4.15909 14.1065 4.11298 14.112 4.06724C14.1059 4.06828 14.0998 4.06934 14.0936 4.07043ZM15.0526 2.01277C15.0866 2.01306 15.1166 2.01331 15.142 2.01331H16.142V3.01331C16.142 3.04883 16.1426 3.09269 16.1433 3.14369C16.1473 3.44014 16.1546 3.97782 16.0675 4.52166C15.9657 5.15751 15.7108 5.99166 15.0085 6.59028C13.8737 7.55765 12.5882 7.55247 11.771 7.54918C11.725 7.549 11.6806 7.54882 11.6377 7.54882H10.6377V6.54882C10.6377 6.19891 10.6592 5.63 10.8005 5.01612C10.9404 4.40868 11.2141 3.68431 11.7711 3.09364C12.3691 2.45951 13.1408 2.20766 13.7461 2.10085C14.2819 2.00631 14.7891 2.01056 15.0526 2.01277ZM9.97349 10.38C9.60076 10.1885 9.06502 9.96561 7.82483 10.0044C7.40397 10.0175 6.89368 10.2921 6.49758 11.0087C6.10421 11.7205 5.87502 12.8064 6.07169 14.1702C6.19499 15.0253 6.63905 16.5987 7.28912 17.943C7.61384 18.6145 7.96363 19.173 8.30936 19.5484C8.67018 19.9401 8.90009 20 8.99175 20C9.81868 20 10.1712 19.8334 10.4134 19.6995C10.4455 19.6817 10.4844 19.6579 10.5299 19.63C10.8035 19.4622 11.314 19.1491 12 19.1491C12.7011 19.1491 13.2052 19.4835 13.4496 19.6456C13.4902 19.6726 13.5237 19.6948 13.5497 19.7099C13.75 19.8263 14.0923 20 15.0083 20C15.1556 20 15.4061 19.9192 15.7583 19.5426C16.1044 19.1728 16.4472 18.6209 16.7618 17.9525C17.3904 16.617 17.8027 15.0415 17.9284 14.1702C18.1251 12.8064 17.8959 11.7205 17.5025 11.0087C17.1064 10.2921 16.5961 10.0175 16.1752 10.0044C14.935 9.96561 14.3993 10.1885 14.0266 10.38C13.9667 10.4107 13.9005 10.448 13.8278 10.4891C13.4348 10.7109 12.8482 11.0419 12 11.0419C11.1519 11.0419 10.5653 10.7109 10.1723 10.4891C10.0995 10.448 10.0334 10.4107 9.97349 10.38ZM11.2738 8.80634C11.6026 8.98529 11.7067 9.04189 12 9.04189C12.2934 9.04189 12.3974 8.98529 12.7263 8.80634C12.829 8.75045 12.9537 8.68262 13.1129 8.60086C13.7926 8.25179 14.665 7.95619 16.2377 8.00534C17.5474 8.04627 18.6149 8.88684 19.2529 10.0413C19.8937 11.2006 20.1551 12.7417 19.9079 14.4557C19.7559 15.5095 19.29 17.2775 18.5714 18.8042C18.2124 19.5669 17.7644 20.3258 17.2188 20.909C16.6795 21.4855 15.9377 22 15.0083 22C13.7712 22 13.0767 21.7482 12.5449 21.4392C12.1327 21.1997 12.098 21.1562 12.0573 21.1495C12.0437 21.1472 12.0294 21.1491 12 21.1491C11.9693 21.1491 11.9487 21.1491 11.9287 21.1526C11.8612 21.1647 11.8011 21.2175 11.3815 21.4496C10.8546 21.741 10.1704 22 8.99175 22C8.08065 22 7.35515 21.4645 6.83823 20.9033C6.30622 20.3256 5.85595 19.5733 5.4886 18.8137C4.75455 17.2958 4.24646 15.5257 4.09216 14.4557C3.845 12.7417 4.10637 11.2006 4.74715 10.0413C5.38521 8.88684 6.45268 8.04627 7.76237 8.00534C9.33511 7.95619 10.2075 8.25179 10.8872 8.60086C11.0464 8.68262 11.171 8.75045 11.2738 8.80634Z" fill="currentColor"/>
</svg>
