<svg width="24" height="24" viewBox="0 0 24 24" fill="none" xmlns="http://www.w3.org/2000/svg">
<path fill-rule="evenodd" clip-rule="evenodd" d="M12.2639 3.28797C12.5413 2.82411 13.137 2.66457 13.6091 2.92772L17.0173 4.82765C17.0258 4.83223 17.0343 4.83694 17.0427 4.8418L20.4519 6.74227C20.6882 6.87397 20.861 7.09576 20.931 7.35703C21.0009 7.61831 20.9621 7.89678 20.8233 8.12893C20.0398 9.43918 19.2405 9.92364 18.5554 10.3359L18.5445 10.3424C17.968 10.6892 17.5031 10.9689 16.973 11.8554C16.4466 12.7357 16.4285 13.2557 16.4061 13.9002L16.4054 13.9185C16.378 14.7057 16.3412 15.6245 15.5557 16.9382C14.7722 18.2485 13.9729 18.733 13.2878 19.1452L13.2769 19.1517C12.7004 19.4985 12.2355 19.7782 11.7054 20.6648C11.428 21.1286 10.8323 21.2882 10.3602 21.025L3.51737 17.2105C3.28111 17.0788 3.10829 16.857 3.03832 16.5957C2.96834 16.3344 3.0072 16.0559 3.14601 15.8238C3.92948 14.5136 4.72875 14.0291 5.4139 13.6169L5.42476 13.6103C6.00128 13.2635 6.46621 12.9838 6.99631 12.0973C7.52269 11.217 7.54078 10.697 7.5632 10.0525L7.56384 10.0343C7.59128 9.247 7.62806 8.32821 8.41362 7.01449C9.19709 5.70424 9.99635 5.21978 10.6815 4.80756L10.6924 4.80103C11.2689 4.4542 11.7338 4.17449 12.2639 3.28797ZM15.056 6.02406L13.4244 5.11451C12.8258 5.84945 12.2359 6.20646 11.7126 6.52131L11.7017 6.52784C11.1252 6.87467 10.6603 7.15438 10.1301 8.0409C9.60377 8.92119 9.58568 9.44117 9.56326 10.0856L9.56262 10.1039C9.53518 10.8912 9.4984 11.81 8.71284 13.1237C7.92937 14.4339 7.13011 14.9184 6.44495 15.3306L6.43409 15.3372C6.09318 15.5423 5.79128 15.7239 5.49185 16.0214L7.12347 16.9309C7.72208 16.1959 8.312 15.8389 8.83535 15.5241L8.84621 15.5175C9.42272 15.1707 9.88766 14.891 10.4178 14.0045C10.9441 13.1242 10.9622 12.6042 10.9846 11.9597L10.9853 11.9414C11.0127 11.1542 11.0495 10.2354 11.8351 8.92167C12.6185 7.61143 13.4178 7.12696 14.103 6.71475L14.1138 6.70822C14.4547 6.50314 14.7566 6.32153 15.056 6.02406ZM8.91323 17.9286C9.21268 17.6311 9.5146 17.4495 9.85554 17.2443L9.8664 17.2378C10.5516 16.8256 11.3508 16.3411 12.1343 15.0309C12.9198 13.7172 12.9566 12.7984 12.9841 12.0111L12.9847 11.9928C13.0071 11.3484 13.0252 10.8284 13.5516 9.94809C14.0817 9.06156 14.5466 8.78186 15.1232 8.43503L15.134 8.42849C15.6573 8.11365 16.2472 7.75666 16.8458 7.02177L18.4774 7.93135C18.178 8.22886 17.8761 8.41048 17.5352 8.61558L17.5243 8.62211C16.8392 9.03432 16.0399 9.51879 15.2564 10.829C14.4709 12.1428 14.4341 13.0615 14.4067 13.8488L14.406 13.8671C14.3836 14.5116 14.3655 15.0315 13.8391 15.9118C13.309 16.7984 12.8441 17.0781 12.2676 17.4249L12.2567 17.4314C11.7334 17.7463 11.1435 18.1033 10.5449 18.8382L8.91323 17.9286Z" fill="currentColor"/>
</svg>
