<svg width="24" height="24" viewBox="0 0 24 24" fill="none" xmlns="http://www.w3.org/2000/svg">
<path fill-rule="evenodd" clip-rule="evenodd" d="M3.94337 4.87524C4.00925 3.82117 4.88334 3 5.93947 3H15.0606C16.1167 3 16.9908 3.82117 17.0567 4.87524L17.0645 5H20C20.5523 5 21 5.44772 21 6V9.85927C21 11.531 20.1645 13.0922 18.7735 14.0195L18.7714 14.021L17.6738 14.7486L17.81 16.9284C17.8104 16.9339 17.8107 16.9394 17.811 16.9449L17.9317 18.8752C18.0036 20.0266 17.0892 21 15.9356 21H5.06447C3.91083 21 2.9964 20.0266 3.06837 18.8752L3.18901 16.9449C3.18931 16.9394 3.18966 16.9339 3.19004 16.9284L3.94337 4.87524ZM5.12697 18L5.06447 19H15.9356L15.8731 18H5.12697ZM15.7481 16H5.25197L5.93947 5H15.0606L15.1265 6.05507C15.1268 6.06059 15.1272 6.0661 15.1275 6.07159L15.6405 14.2794C15.6411 14.2915 15.6418 14.3037 15.6428 14.3159L15.7481 16ZM17.5298 12.4445L17.6641 12.3554C17.6645 12.3552 17.6649 12.3549 17.6652 12.3547C18.4992 11.7982 19 10.8619 19 9.85927V7H17.1895L17.5298 12.4445ZM9.00002 6C9.55231 6 10 6.44772 10 7V14C10 14.5523 9.55231 15 9.00002 15C8.44774 15 8.00002 14.5523 8.00002 14V7C8.00002 6.44772 8.44774 6 9.00002 6ZM12 6C12.5523 6 13 6.44772 13 7V14C13 14.5523 12.5523 15 12 15C11.4477 15 11 14.5523 11 14V7C11 6.44772 11.4477 6 12 6Z" fill="currentColor"/>
</svg>
