<svg width="24" height="24" viewBox="0 0 24 24" fill="none" xmlns="http://www.w3.org/2000/svg">
<path fill-rule="evenodd" clip-rule="evenodd" d="M4.13979 16.8797C2.73591 15.4758 2.73591 13.2928 4.13979 11.8889C5.29691 10.7318 6.98332 10.5284 8.32651 11.2787L11.2788 8.32642C10.5285 6.98324 10.7319 5.29682 11.889 4.13971C13.2929 2.73583 15.4759 2.73583 16.8797 4.13971C17.4009 4.66084 17.7706 5.36217 17.8945 6.1054C18.6377 6.22927 19.3391 6.59903 19.8602 7.12016C21.2641 8.52404 21.2641 10.707 19.8602 12.1109C18.7031 13.268 17.0167 13.4714 15.6735 12.7211L12.7212 15.6734C13.4715 17.0166 13.2681 18.703 12.111 19.8601C10.7071 21.264 8.52413 21.264 7.12025 19.8601C6.59912 19.339 6.22936 18.6377 6.10548 17.8944C5.36225 17.7706 4.66092 17.4008 4.13979 16.8797ZM5.554 13.3031C4.93117 13.9259 4.93117 14.8426 5.554 15.4654C5.94074 15.8522 6.4931 16.0044 6.88719 15.9135C7.22315 15.8359 7.57535 15.937 7.81915 16.1808C8.06296 16.4246 8.16397 16.7768 8.08644 17.1127C7.99549 17.5068 8.14773 18.0592 8.53446 18.4459C9.15729 19.0687 10.074 19.0687 10.6968 18.4459C11.3196 17.8231 11.3196 16.9064 10.6968 16.2836C10.3063 15.893 10.3063 15.2599 10.6968 14.8694L14.8694 10.6967C15.26 10.3062 15.8931 10.3062 16.2837 10.6967C16.9065 11.3195 17.8232 11.3195 18.446 10.6967C19.0688 10.0739 19.0688 9.15721 18.446 8.53438C18.0593 8.14764 17.5069 7.99541 17.1128 8.08635C16.7768 8.16388 16.4246 8.06287 16.1808 7.81907C15.937 7.57526 15.836 7.22306 15.9136 6.8871C16.0045 6.49302 15.8523 5.94065 15.4655 5.55392C14.8427 4.93109 13.926 4.93109 13.3032 5.55392C12.6804 6.17675 12.6804 7.09342 13.3032 7.71626C13.6937 8.10678 13.6937 8.73994 13.3032 9.13047L9.13055 13.3031C8.74003 13.6936 8.10686 13.6936 7.71634 13.3031C7.09351 12.6803 6.17684 12.6803 5.554 13.3031Z" fill="#101828"/>
</svg>
