<svg width="24" height="24" viewBox="0 0 24 24" fill="none" xmlns="http://www.w3.org/2000/svg">
<path fill-rule="evenodd" clip-rule="evenodd" d="M12.2605 3.79374C11.9795 3.57021 11.663 3.40394 11.3432 3.28754C10.6408 3.03187 9.84402 2.98186 9.10226 3.10093C7.94408 3.28685 6.58613 3.98286 6.12752 5.32857C5.7231 5.36964 5.34808 5.47277 5.00557 5.63874C4.40614 5.9292 3.97859 6.37715 3.68283 6.86873C3.11436 7.81355 3.00001 8.9702 3.00001 9.78574C3.00001 10.5896 3.20147 11.4018 3.573 12.0958C3.4487 12.1545 3.33641 12.2388 3.24431 12.3451C3.05437 12.5643 2.96893 12.8551 3.01016 13.1422C3.40606 15.8987 5.36311 18.1519 7.97661 19.2963V20C7.97661 20.5523 8.42433 21 8.97661 21H15.0234C15.5757 21 16.0234 20.5523 16.0234 20L16.0234 19.2963C18.6369 18.1519 20.594 15.8987 20.9898 13.1422C21.0311 12.8551 20.9456 12.5643 20.7557 12.3451C20.6636 12.2388 20.5513 12.1545 20.427 12.0958C20.7906 11.4167 20.9913 10.6243 20.9997 9.8374C21.1232 8.51011 20.6963 7.36713 19.9027 6.55833C19.3009 5.94513 18.5198 5.55529 17.6834 5.40441C17.2524 4.21006 16.2394 3.30232 14.7861 3.14187C13.8726 3.041 12.9671 3.33289 12.2605 3.79374ZM17.5 14C17.5014 14 17.5029 14 17.5043 14H18.709C18.0746 15.6314 16.6245 16.9935 14.6918 17.6728C14.2914 17.8135 14.0234 18.1917 14.0234 18.6162V19H9.97661V18.6162C9.97661 18.1917 9.70864 17.8135 9.30818 17.6728C7.37547 16.9935 5.92538 15.6314 5.29103 14H6.49569C6.49713 14 6.49857 14 6.50001 14C6.50081 14 6.50162 14 6.50242 14H17.4976C17.4984 14 17.4992 14 17.5 14ZM17.5021 12C18.1111 11.9983 19 11.2554 19 9.78574C19 9.75143 19.0018 9.71713 19.0053 9.683C19.0865 8.89636 18.8412 8.33217 18.4751 7.95911C18.095 7.57169 17.5269 7.33346 16.8868 7.33346C16.3872 7.33346 15.9642 6.9647 15.8962 6.46974C15.7919 5.712 15.3234 5.21334 14.5666 5.12979C13.9673 5.06362 13.2442 5.43601 12.9253 5.84613C12.7056 6.12862 12.3516 6.27216 11.9972 6.22253C11.6428 6.17289 11.3419 5.93764 11.2083 5.60567C11.1498 5.46047 10.9975 5.29005 10.6592 5.16692C10.3198 5.04338 9.8728 5.00284 9.41926 5.07565C8.44655 5.23179 7.96706 5.75312 7.96706 6.33346C7.96706 6.61846 7.84545 6.88993 7.63277 7.07966C7.42009 7.2694 7.13656 7.35937 6.8534 7.32698C6.37474 7.27222 6.07187 7.34448 5.87771 7.43856C5.68485 7.53202 5.52794 7.68145 5.39655 7.89982C5.11072 8.37489 5.00001 9.08835 5.00001 9.78574C5.00001 11.2554 5.88888 11.9983 6.49794 12H17.5021ZM9.00001 8.00003C9.00001 7.44774 9.44772 7.00003 10 7.00003H10.01C10.5623 7.00003 11.01 7.44774 11.01 8.00003C11.01 8.55231 10.5623 9.00003 10.01 9.00003H10C9.44772 9.00003 9.00001 8.55231 9.00001 8.00003ZM13 8.00003C13 7.44774 13.4477 7.00003 14 7.00003H14.01C14.5623 7.00003 15.01 7.44774 15.01 8.00003C15.01 8.55231 14.5623 9.00003 14.01 9.00003H14C13.4477 9.00003 13 8.55231 13 8.00003ZM6.00001 10C6.00001 9.44774 6.44772 9.00003 7.00001 9.00003H7.01001C7.56229 9.00003 8.01001 9.44774 8.01001 10C8.01001 10.5523 7.56229 11 7.01001 11H7.00001C6.44772 11 6.00001 10.5523 6.00001 10ZM11 10C11 9.44774 11.4477 9.00003 12 9.00003H12.01C12.5623 9.00003 13.01 9.44774 13.01 10C13.01 10.5523 12.5623 11 12.01 11H12C11.4477 11 11 10.5523 11 10ZM16 10C16 9.44774 16.4477 9.00003 17 9.00003H17.01C17.5623 9.00003 18.01 9.44774 18.01 10C18.01 10.5523 17.5623 11 17.01 11H17C16.4477 11 16 10.5523 16 10Z" fill="#101828"/>
</svg>
