<svg width="24" height="24" viewBox="0 0 24 24" fill="none" xmlns="http://www.w3.org/2000/svg">
<path fill-rule="evenodd" clip-rule="evenodd" d="M13.3763 5.24848C13.0226 5.05968 12.5234 4.98078 11.9597 5.09073C10.9994 5.27806 10.3728 6.20839 10.5602 7.16868C10.6558 7.65897 10.375 8.14464 9.90233 8.30632C9.42969 8.468 8.91023 8.25611 8.68553 7.80997C8.47044 7.3829 8.1299 7.0364 7.76306 6.86262C7.42674 6.7033 7.04482 6.67253 6.60445 6.89433C6.12842 7.13408 5.82542 7.6808 5.80039 8.22689C5.81507 8.22697 5.82985 8.22717 5.84473 8.22749C6.41726 8.2398 7.06559 8.42963 7.71034 8.93422C8.14527 9.27459 8.22192 9.9031 7.88154 10.338C7.54116 10.773 6.91266 10.8496 6.47773 10.5092C6.17368 10.2713 5.94283 10.2301 5.80175 10.227C5.64384 10.2236 5.51847 10.2674 5.43608 10.302C5.20565 10.3987 5.00001 10.6484 5.00001 11.1173C5.00001 11.6047 5.39517 11.9999 5.88264 11.9999C5.88431 11.9999 5.88599 11.9999 5.88767 11.9999H18.0078C18.5565 11.9958 19 11.5496 19 10.9999C19 10.5697 18.7278 10.2004 18.3429 10.06C18.2373 10.0214 18.1223 9.99993 18 9.99993C17.4477 9.99993 17 9.55221 17 8.99993C17 8.44764 17.4477 7.99993 18 7.99993C18.0579 7.99993 18.1155 8.00158 18.1727 8.00484C18.3674 7.41361 18.2057 6.73853 17.7762 6.39084C17.172 5.90163 16.2856 5.9949 15.7964 6.59916C15.5519 6.90113 15.1546 7.03416 14.7776 6.94032C14.4006 6.84647 14.112 6.54274 14.0376 6.16139C13.9509 5.71659 13.7092 5.42619 13.3763 5.24848ZM20.0161 8.77853C20.6201 9.32688 21 10.1184 21 10.9999C21 11.4631 20.8951 11.9017 20.7077 12.2933C20.7242 12.3099 20.7402 12.3271 20.7557 12.345C20.9456 12.5642 21.0311 12.855 20.9898 13.1421C20.594 15.8986 18.6369 18.1518 16.0234 19.2962L16.0234 19.9999C16.0234 20.5522 15.5757 20.9999 15.0234 20.9999H8.97661C8.42433 20.9999 7.97661 20.5522 7.97661 19.9999V19.2962C5.36311 18.1518 3.40606 15.8986 3.01016 13.1421C2.96893 12.855 3.05437 12.5642 3.24431 12.345C3.25066 12.3376 3.25711 12.3304 3.26366 12.3233C3.09441 11.9564 3.00001 11.5478 3.00001 11.1173C3.00001 10.3244 3.28129 9.53266 3.86442 8.97683C3.56861 7.47411 4.29303 5.81913 5.70481 5.10809C6.72802 4.59275 7.75903 4.64764 8.61929 5.05517C8.7142 5.10013 8.80661 5.14912 8.89644 5.20178C9.39424 4.16331 10.3596 3.36517 11.5768 3.12773C12.5155 2.94461 13.4952 3.04487 14.3181 3.4841C14.7444 3.71166 15.1168 4.02505 15.4076 4.41589C16.5586 3.86072 17.9757 3.979 19.0347 4.8364C20.2337 5.80709 20.5191 7.44007 20.0161 8.77853ZM5.29103 13.9999C5.92538 15.6313 7.37547 16.9934 9.30818 17.6726C9.70864 17.8134 9.97661 18.1916 9.97661 18.6161V18.9999H14.0234V18.6161C14.0234 18.1916 14.2914 17.8134 14.6918 17.6726C16.6245 16.9934 18.0746 15.6313 18.709 13.9999H18.011L18 13.9999C17.9974 13.9999 17.9948 13.9999 17.9923 13.9999H5.29103ZM14.1096 10.2346C13.8801 9.73222 13.2868 9.51098 12.7845 9.74043C12.2821 9.96988 11.6889 9.74863 11.4594 9.24627C11.23 8.7439 11.4512 8.15065 11.9536 7.9212C13.4607 7.23285 15.2404 7.89657 15.9288 9.40367C16.1582 9.90603 15.937 10.4993 15.4346 10.7287C14.9323 10.9582 14.339 10.7369 14.1096 10.2346Z" fill="currentColor"/>
</svg>
