<svg width="24" height="24" viewBox="0 0 24 24" fill="none" xmlns="http://www.w3.org/2000/svg">
<path fill-rule="evenodd" clip-rule="evenodd" d="M5.73745 4.03509C8.14062 3.38118 10.0711 3.02538 11.9925 3.01099H12.0075C13.9289 3.02538 15.8594 3.38118 18.2626 4.03509C18.2806 4.04 18.2985 4.04541 18.3162 4.05133C19.2287 4.35549 19.9195 4.84183 20.3762 5.48131C20.8313 6.11847 21 6.83188 21 7.50003C21 8.137 20.846 8.95814 20.4105 9.65501C20.0962 10.1578 19.6285 10.5979 19 10.8286V19C19 20.1046 18.1046 21 17 21H7C5.89543 21 5 20.1046 5 19V10.8286C4.37153 10.5979 3.90375 10.1578 3.5895 9.65501C3.15395 8.95814 3 8.137 3 7.50003C3 6.83188 3.16866 6.11847 3.62376 5.48131C4.08053 4.84183 4.77132 4.35549 5.68376 4.05133C5.7015 4.04541 5.7194 4.04 5.73745 4.03509ZM6.29111 5.95716C5.71983 6.15211 5.41706 6.41162 5.25124 6.64377C5.08134 6.88163 5 7.16822 5 7.50003C5 7.86304 5.09605 8.29189 5.2855 8.59501C5.44767 8.85447 5.6518 9 6 9C6.55228 9 7 9.44772 7 10V19H17V10C17 9.44772 17.4477 9 18 9C18.3482 9 18.5523 8.85447 18.7145 8.59501C18.904 8.29189 19 7.86304 19 7.50003C19 7.16822 18.9187 6.88163 18.7488 6.64377C18.5829 6.41162 18.2802 6.15211 17.7089 5.95716C15.4015 5.33066 13.6676 5.02436 12 5.01099C10.3324 5.02436 8.59853 5.33066 6.29111 5.95716Z" fill="#101828"/>
</svg>
