<svg width="24" height="24" viewBox="0 0 24 24" fill="none" xmlns="http://www.w3.org/2000/svg">
<path fill-rule="evenodd" clip-rule="evenodd" d="M9.00003 3L15 3C17.7614 3 20 5.23857 20 8V9C20 9.55228 19.5523 10 19 10L5.00003 10C4.44774 10 4.00003 9.55228 4.00003 9V8C4.00003 5.23858 6.2386 3 9.00003 3ZM15 5L9.00003 5C7.34317 5 6.00003 6.34315 6.00003 8L18 8C18 6.34315 16.6569 5 15 5ZM6.66669 12.068L4.35115 12.9363C3.83403 13.1302 3.25762 12.8682 3.0637 12.3511C2.86978 11.834 3.13178 11.2576 3.6489 11.0637L6.31557 10.0637C6.54196 9.97878 6.79143 9.97878 7.01782 10.0637L9.33336 10.932L11.6489 10.0637C11.8753 9.97878 12.1248 9.97878 12.3512 10.0637L14.6667 10.932L16.9822 10.0637C17.2086 9.97878 17.4581 9.97878 17.6845 10.0637L20.3512 11.0637C20.8683 11.2576 21.1303 11.834 20.9364 12.3511C20.7424 12.8682 20.166 13.1302 19.6489 12.9363L17.3334 12.068L15.0178 12.9363C14.7914 13.0212 14.542 13.0212 14.3156 12.9363L12 12.068L9.68448 12.9363C9.4581 13.0212 9.20862 13.0212 8.98224 12.9363L6.66669 12.068ZM19 15.5C19 15.2239 18.7762 15 18.5 15L5.50003 15C5.22388 15 5.00003 15.2239 5.00003 15.5C5.00003 15.7761 5.22388 16 5.50003 16L18.5 16C18.7762 16 19 15.7761 19 15.5ZM20 17.5002C20.6073 17.0441 21 16.3179 21 15.5C21 14.1193 19.8807 13 18.5 13L5.50003 13C4.11931 13 3.00003 14.1193 3.00003 15.5C3.00003 16.3179 3.3928 17.0441 4.00003 17.5002V18C4.00003 19.6569 5.34317 21 7.00003 21H17C18.6569 21 20 19.6569 20 18V17.5002ZM18 18L6.00003 18C6.00003 18.5523 6.44774 19 7.00003 19L17 19C17.5523 19 18 18.5523 18 18Z" fill="#101828"/>
</svg>
