<svg width="24" height="24" viewBox="0 0 24 24" fill="none" xmlns="http://www.w3.org/2000/svg">
<path fill-rule="evenodd" clip-rule="evenodd" d="M11.6449 4.46591C11.2009 4.87714 11 5.24932 11 5.5C11 5.7531 11.2007 6.12585 11.6412 6.53524C11.7634 6.64876 11.8875 6.74948 12.0009 6.83372C12.1141 6.74962 12.2379 6.64901 12.3599 6.53558C12.7994 6.12675 13 5.75383 13 5.5C13 5.24932 12.7991 4.87714 12.3551 4.46591C12.2346 4.35432 12.1122 4.25496 12 4.1713C11.8878 4.25496 11.7654 4.35432 11.6449 4.46591ZM11.6643 2.05645C11.684 2.04946 11.8232 2 12 2C12.1768 2 12.316 2.04946 12.3357 2.05645C12.3366 2.05676 12.3372 2.05698 12.3376 2.05712C12.3837 2.07289 12.4222 2.08941 12.4468 2.10044C12.4982 2.12347 12.5483 2.14942 12.5917 2.17312C12.6813 2.2221 12.7874 2.28614 12.9019 2.36167C13.131 2.51276 13.4229 2.72892 13.714 2.99856C14.247 3.49215 15 4.36997 15 5.5C15 6.62688 14.2553 7.50396 13.7221 7.99995C13.469 8.23536 13.2146 8.43038 13 8.57737V10H18C18.5523 10 19 10.4477 19 11V14C19.5523 14 20 14.4477 20 15V17.4269C20 17.4288 20 17.4307 20 17.4327V21C20 21.5523 19.5523 22 19 22H5C4.44772 22 4 21.5523 4 21V15C4 14.4477 4.44772 14 5 14V11C5 10.4477 5.44772 10 6 10H11V8.57619C10.7861 8.42953 10.5324 8.23504 10.2798 8.0003C9.74664 7.50486 9 6.62761 9 5.5C9 4.36997 9.753 3.49215 10.286 2.99856C10.5771 2.72892 10.869 2.51276 11.0981 2.36167C11.2126 2.28614 11.3187 2.2221 11.4083 2.17312C11.4517 2.14942 11.5018 2.12347 11.5532 2.10044C11.5778 2.08941 11.6163 2.07289 11.6624 2.05712C11.6628 2.05698 11.6634 2.05676 11.6643 2.05645ZM7 12V14H17V12H7ZM18 16H15.8745C15.8869 16.0314 15.9 16.0627 15.9138 16.0939C16.0322 16.3603 16.1893 16.5795 16.3917 16.7312C16.5817 16.8738 16.8677 17 17.3333 17C17.6131 17 17.8294 16.9545 18 16.8856V16ZM18 18.9475C17.7893 18.9819 17.5671 19 17.3333 19C16.4656 19 15.7516 18.7512 15.1917 18.3312C14.9902 18.1802 14.8165 18.0129 14.6667 17.8377C14.5168 18.0129 14.3431 18.1802 14.1417 18.3312C13.5817 18.7512 12.8677 19 12 19C11.1323 19 10.4183 18.7512 9.85832 18.3312C9.65689 18.1802 9.48317 18.0129 9.33332 17.8376C9.18347 18.0129 9.00974 18.1802 8.80831 18.3312C8.24833 18.7512 7.53433 19 6.66666 19C6.4329 19 6.21071 18.9819 6 18.9475V20H18V18.9475ZM6 16.8856C6.17062 16.9545 6.38693 17 6.66666 17C7.1323 17 7.4183 16.8738 7.60831 16.7313C7.81065 16.5795 7.96776 16.3603 8.08617 16.0939C8.10001 16.0627 8.11311 16.0314 8.12551 16H6V16.8856ZM10.5411 16C10.5535 16.0314 10.5666 16.0627 10.5805 16.0939C10.6989 16.3603 10.856 16.5795 11.0583 16.7312C11.2483 16.8738 11.5343 17 12 17C12.4656 17 12.7516 16.8738 12.9417 16.7312C13.144 16.5795 13.3011 16.3603 13.4195 16.0939C13.4334 16.0627 13.4465 16.0314 13.4589 16H10.5411Z" fill="currentColor"/>
</svg>
