<svg width="24" height="24" viewBox="0 0 24 24" fill="none" xmlns="http://www.w3.org/2000/svg">
<path fill-rule="evenodd" clip-rule="evenodd" d="M7.91298 3.56243C9.01887 2.6037 10.4972 2 12 2C13.5028 2 14.9811 2.6037 16.087 3.56243C17.1952 4.52311 18 5.90687 18 7.5V19.5C18 20.8807 16.8807 22 15.5 22C14.1193 22 13 20.8807 13 19.5V8C13 7.76229 12.9235 7.49406 12.7772 7.30839C12.6608 7.1608 12.4544 7 12 7C11.5456 7 11.3392 7.1608 11.2228 7.30839C11.0765 7.49406 11 7.76229 11 8V10.5C11 11.8807 9.88071 13 8.5 13C7.11929 13 6 11.8807 6 10.5V7.5C6 5.90687 6.80483 4.52311 7.91298 3.56243ZM15 13V15H16V13H15ZM16 11H15V9H16V11ZM15.9528 7C15.8183 6.28869 15.4024 5.61584 14.7769 5.07361C14.2657 4.63043 13.6456 4.30378 13 4.13342V5.1462C13.5641 5.32299 14.0165 5.64989 14.3478 6.07029C14.5773 6.36133 14.7366 6.68098 14.8403 7H15.9528ZM11 5.1462V4.13342C10.3544 4.30378 9.73427 4.63043 9.22306 5.07361C8.69394 5.53232 8.31477 6.08452 8.12912 6.67439L9.21087 6.85468C9.31344 6.58453 9.45758 6.31712 9.65215 6.07029C9.98353 5.64989 10.4359 5.32299 11 5.1462ZM9 8.84713L8 8.68046V10.5C8 10.7761 8.22386 11 8.5 11C8.77614 11 9 10.7761 9 10.5V8.84713ZM16 17H15V19.5C15 19.7761 15.2239 20 15.5 20C15.7761 20 16 19.7761 16 19.5V17Z" fill="currentColor"/>
</svg>
