<svg width="24" height="24" viewBox="0 0 24 24" fill="none" xmlns="http://www.w3.org/2000/svg">
<path fill-rule="evenodd" clip-rule="evenodd" d="M16.0001 3C16.5523 3 17.0001 3.44772 17.0001 4V5.64215L18.5645 4.12961C18.9615 3.74572 19.5946 3.75639 19.9785 4.15344C20.3624 4.55049 20.3517 5.18357 19.9546 5.56745L18.473 6.99998L20.0001 6.99999C20.5523 6.99999 21.0001 7.44771 21 7.99999C21 8.55228 20.5523 8.99999 20 8.99999L17.8952 8.99998C18.1582 9.59 18.3106 10.2271 18.3244 10.8922C18.3497 12.1059 17.9113 13.32 16.993 14.4145C16.975 14.4377 16.9558 14.4603 16.9355 14.4822C16.8193 14.6172 16.6957 14.7503 16.5647 14.8813C15.6074 15.8385 13.7421 17.2364 11.7668 18.4423C11.7536 18.4508 11.7403 18.4589 11.7269 18.4666C11.298 18.7277 10.8643 18.9795 10.4337 19.2156C9.21667 19.883 7.9663 20.4583 6.8807 20.7568C6.33973 20.9055 5.78799 21.0004 5.27503 20.9775C4.76261 20.9547 4.18629 20.8076 3.74339 20.3647C3.30048 19.9218 3.1534 19.3455 3.13058 18.8331C3.10774 18.3201 3.20257 17.7684 3.35132 17.2274C3.64983 16.1418 4.22508 14.8914 4.8925 13.6744C5.66495 12.2659 6.60537 10.8228 7.48762 9.6306C7.49429 9.62125 7.50115 9.61199 7.50819 9.60282C8.13954 8.75156 8.74014 8.03014 9.22684 7.54343C10.4504 6.31985 11.8029 5.69654 13.1724 5.70235C13.8188 5.70508 14.432 5.84785 15.0001 6.09919V4C15.0001 3.44772 15.4478 3 16.0001 3ZM8.43514 11.7461L9.67217 12.9653C10.0655 13.353 10.6987 13.3484 11.0863 12.955C11.474 12.5617 11.4694 11.9285 11.0761 11.5409L9.63224 10.1178C10.0101 9.64072 10.3557 9.24299 10.6411 8.95765C11.5829 8.01578 12.4491 7.6993 13.1639 7.70233C13.8853 7.70538 14.6202 8.03436 15.293 8.70708C15.9552 9.36931 16.3087 10.1532 16.3249 10.9337C16.3333 11.3375 16.2522 11.7733 16.0448 12.2242L14.7119 10.882C14.3228 10.4901 13.6896 10.4879 13.2977 10.877C12.9058 11.2662 12.9036 11.8993 13.2928 12.2912L14.7939 13.803C14.0115 14.5046 12.7635 15.4384 11.38 16.3253L9.83093 14.7384C9.44514 14.3432 8.81202 14.3356 8.41682 14.7214C8.02162 15.1072 8.01399 15.7403 8.39978 16.1355L9.61671 17.3821C9.56847 17.4089 9.52024 17.4356 9.47202 17.462C8.31158 18.0984 7.21803 18.5898 6.35043 18.8284C5.9148 18.9481 5.58763 18.9895 5.36401 18.9795C5.24878 18.9744 5.18805 18.9574 5.16109 18.947C5.15068 18.9201 5.13374 18.8593 5.1286 18.7441C5.11865 18.5205 5.15996 18.1933 5.27975 17.7577C5.51831 16.8901 6.00973 15.7965 6.64611 14.6361C7.19113 13.6423 7.81815 12.6427 8.43514 11.7461ZM5.14329 18.9386C5.14333 18.9385 5.14414 18.939 5.14561 18.94C5.14398 18.9391 5.14325 18.9386 5.14329 18.9386ZM5.16804 18.9625C5.1691 18.964 5.16957 18.9648 5.16953 18.9648C5.16949 18.9649 5.16896 18.9641 5.16804 18.9625Z" fill="currentColor"/>
</svg>
