<svg width="24" height="24" viewBox="0 0 24 24" fill="none" xmlns="http://www.w3.org/2000/svg">
<path fill-rule="evenodd" clip-rule="evenodd" d="M17.1697 3.11055C17.4056 3.23176 17.5836 3.44172 17.6647 3.69423L19.4994 9.40686C20.0693 11.1814 19.3344 13.0623 17.8276 14.0126L18.7834 16.9889L19.7356 16.6831C20.2614 16.5143 20.8246 16.8036 20.9934 17.3295C21.1623 17.8553 20.8729 18.4185 20.3471 18.5873L18.4436 19.1987C18.4434 19.1987 18.4439 19.1986 18.4436 19.1987C18.4434 19.1987 18.4424 19.199 18.4422 19.1991L16.5387 19.8104C16.0128 19.9793 15.4497 19.6899 15.2808 19.1641C15.1119 18.6383 15.4013 18.0751 15.9271 17.9062L16.8792 17.6005L15.9234 14.6242C14.145 14.7289 12.4524 13.6276 11.8825 11.853L11 9.10505V12C11 13.8638 9.72523 15.4299 8 15.874V19H9C9.55228 19 10 19.4477 10 20C10 20.5523 9.55228 21 9 21H5C4.44772 21 4 20.5523 4 20C4 19.4477 4.44772 19 5 19H6V15.874C4.27477 15.4299 3 13.8638 3 12V6C3 5.44772 3.44772 5 4 5H10C10.1266 5 10.2478 5.02354 10.3593 5.06649C10.4553 4.98641 10.5679 4.92309 10.6942 4.88252L16.4069 3.0479C16.6594 2.9668 16.9338 2.98934 17.1697 3.11055ZM9 8V7H5V8H9ZM5 10V12C5 13.1046 5.89543 14 7 14C8.10457 14 9 13.1046 9 12V10H5ZM13.1752 9.33728L13.7867 11.2415C14.1245 12.2932 15.2508 12.8719 16.3025 12.5342C17.3542 12.1964 17.9329 11.0701 17.5952 10.0184L16.9836 8.11419L13.1752 9.33728ZM16.3721 6.20998L16.0663 5.25788L12.2579 6.48096L12.5636 7.43307L16.3721 6.20998Z" fill="#101828"/>
</svg>
