<svg width="24" height="24" viewBox="0 0 24 24" fill="none" xmlns="http://www.w3.org/2000/svg">
<path fill-rule="evenodd" clip-rule="evenodd" d="M14.9624 5.23006C15.1708 5.75033 15.2156 6.29126 15.0889 6.82155C14.9018 7.60492 14.3771 8.21391 13.7948 8.62771C12.7359 9.38016 11.3479 9.34454 10.3377 8.64042L7.08306 11H18.962C18.7581 8.39948 17.7682 6.93893 16.8613 6.1153C16.3383 5.64042 15.8152 5.35231 15.4244 5.18446C15.328 5.14306 15.2403 5.10928 15.1636 5.08203C15.1001 5.12782 15.0318 5.17802 14.9624 5.23006ZM19 13H5V19H19V13ZM14.6523 3.06086C14.6852 3.04901 14.8214 3 15 3C15.0741 3 15.1359 3.00892 15.1425 3.00988L15.143 3.00995C15.1637 3.01278 15.1822 3.01586 15.1963 3.01834C15.2253 3.02347 15.2559 3.02969 15.2867 3.03649C15.3491 3.0503 15.4266 3.06965 15.5165 3.09548C15.6968 3.14724 15.9358 3.22746 16.2136 3.34679C16.7687 3.58519 17.4899 3.98458 18.2058 4.6347C19.6662 5.96093 21 8.23595 21 12V20C21 20.5523 20.5523 21 20 21H4C3.44772 21 3 20.5523 3 20V12C3 11.6795 3.15359 11.3785 3.41304 11.1904L9.83977 6.53114C10.0558 6.37451 10.3255 6.31073 10.5889 6.35399C10.8522 6.39726 11.0873 6.54398 11.2419 6.76151C11.5591 7.20798 12.1898 7.31467 12.6363 6.99741C12.9506 6.77403 13.1005 6.53734 13.1436 6.35695C13.177 6.21727 13.1797 5.98517 12.9005 5.63368C12.5936 5.24719 12.6899 4.83382 12.7253 4.71615C12.7682 4.57303 12.8334 4.47241 12.8583 4.43515C12.9159 4.34904 12.9773 4.28438 13.0039 4.25686C13.0685 4.1899 13.1441 4.12296 13.2077 4.06864C13.3427 3.95341 13.5172 3.81579 13.6864 3.68741C13.8569 3.55806 14.0359 3.42746 14.1832 3.32609C14.2552 3.27656 14.3305 3.22645 14.3983 3.18546C14.4304 3.16603 14.4768 3.13889 14.5286 3.11338C14.5538 3.10098 14.5968 3.08075 14.6504 3.06153L14.6523 3.06086ZM7 15C7 14.4477 7.44772 14 8 14H8.01C8.56228 14 9.01 14.4477 9.01 15C9.01 15.5523 8.56228 16 8.01 16H8C7.44772 16 7 15.5523 7 15ZM15 15C15 14.4477 15.4477 14 16 14H16.01C16.5623 14 17.01 14.4477 17.01 15C17.01 15.5523 16.5623 16 16.01 16H16C15.4477 16 15 15.5523 15 15ZM11 17C11 16.4477 11.4477 16 12 16H12.01C12.5623 16 13.01 16.4477 13.01 17C13.01 17.5523 12.5623 18 12.01 18H12C11.4477 18 11 17.5523 11 17Z" fill="currentColor"/>
</svg>
