<svg width="24" height="24" viewBox="0 0 24 24" fill="none" xmlns="http://www.w3.org/2000/svg">
<path fill-rule="evenodd" clip-rule="evenodd" d="M9.21869 3.9621C10.4071 3.18401 11.8367 2.86169 13.244 3.05454C14.6513 3.24739 15.9414 3.9424 16.8767 5.0115C17.7198 5.97525 18.2233 7.18443 18.3173 8.45394C18.9202 8.62191 19.4757 8.94302 19.9261 9.3934C20.6137 10.081 21 11.0137 21 11.9861C21 12.931 20.6323 13.9435 19.9261 14.6497L19.219 13.9426L19.9261 14.6497C19.1922 15.3836 18.2324 15.6528 17.3333 15.6528C16.781 15.6528 16.3333 15.2051 16.3333 14.6528C16.3333 14.1005 16.781 13.6528 17.3333 13.6528C17.8488 13.6528 18.2455 13.5019 18.5118 13.2355C18.8058 12.9416 19 12.4557 19 11.9861C19 11.5441 18.8244 11.1202 18.5118 10.8076C18.1993 10.495 17.7754 10.3195 17.3333 10.3195H17.3111C17.0302 10.3195 16.7623 10.2013 16.5729 9.99399C16.3834 9.78665 16.2899 9.50919 16.3152 9.22946C16.3267 9.1018 16.3333 8.98542 16.3333 8.87647C16.3303 7.93893 15.9887 7.03402 15.3714 6.32835C14.7538 5.62235 13.9018 5.16337 12.9724 5.03602C12.0431 4.90867 11.099 5.12152 10.3142 5.63535C9.52945 6.14918 8.95683 6.92936 8.70192 7.83209C8.5745 8.28335 8.15064 8.58547 7.68251 8.55871C7.6363 8.55607 7.59669 8.55164 7.56862 8.54811C7.55274 8.54611 7.53449 8.54358 7.52244 8.54188C6.83098 8.55044 6.141 8.82635 5.68578 9.28156C5.23921 9.72813 5 10.3693 5 11.0972C5 11.775 5.26925 12.425 5.7485 12.9043C6.07402 13.2298 6.47832 13.4585 6.91669 13.5717C7.45144 13.7097 7.77299 14.2552 7.63491 14.7899C7.49682 15.3247 6.95138 15.6462 6.41664 15.5081C5.63541 15.3064 4.91463 14.8988 4.33429 14.3185C3.47996 13.4642 3 12.3054 3 11.0972C3 9.93913 3.38455 8.75437 4.27157 7.86735L4.97867 8.57445L4.27157 7.86735C5.01436 7.12456 6.01764 6.68463 7.03085 6.57115C7.48509 5.51017 8.24378 4.60041 9.21869 3.9621ZM12 13C12.5523 13 13 13.4477 13 14V14.5857L13.4142 14.1715C13.8047 13.781 14.4379 13.781 14.8284 14.1715C15.2189 14.5621 15.2189 15.1952 14.8284 15.5857L14.4142 16L15 16C15.5523 16 16 16.4477 16 17C16 17.5523 15.5523 18 15 18L14.4142 18L14.8284 18.4143C15.2189 18.8048 15.2189 19.438 14.8284 19.8285C14.4379 20.219 13.8047 20.219 13.4142 19.8285L13 19.4143V20C13 20.5523 12.5523 21 12 21C11.4477 21 11 20.5523 11 20V19.4142L10.5858 19.8284C10.1952 20.2189 9.56208 20.2189 9.17156 19.8284C8.78103 19.4379 8.78103 18.8047 9.17156 18.4142L9.58574 18L9.00002 18C8.44774 18 8.00001 17.5523 8 17C7.99999 16.4477 8.44769 16 8.99998 16L9.58574 16L9.17158 15.5859C8.78104 15.1953 8.78102 14.5622 9.17154 14.1716C9.56205 13.7811 10.1952 13.7811 10.5857 14.1716L11 14.5858V14C11 13.4477 11.4477 13 12 13ZM5 18C5 17.4477 5.44772 17 6 17H6.01C6.56228 17 7.01 17.4477 7.01 18C7.01 18.5523 6.56228 19 6.01 19H6C5.44772 19 5 18.5523 5 18ZM17 18C17 17.4477 17.4477 17 18 17H18.01C18.5623 17 19.01 17.4477 19.01 18C19.01 18.5523 18.5623 19 18.01 19H18C17.4477 19 17 18.5523 17 18Z" fill="#101828"/>
</svg>
