<svg width="24" height="24" viewBox="0 0 24 24" fill="none" xmlns="http://www.w3.org/2000/svg">
<path fill-rule="evenodd" clip-rule="evenodd" d="M6.44507 17.555C3.32088 14.4308 3.32088 9.3655 6.44507 6.24131C7.46731 5.21907 8.69591 4.53176 9.99683 4.17848C10.0023 4.2793 10.0114 4.37597 10.0233 4.46704C10.1129 5.15341 10.4222 5.81818 10.9487 6.34471C11.3335 6.72949 11.7904 6.99753 12.2756 7.14916C11.8856 8.39776 12.1851 9.8153 13.1742 10.8044C14.2142 11.8445 15.728 12.1221 17.021 11.6372C17.1768 12.0477 17.42 12.4327 17.7498 12.7625C18.3457 13.3584 19.119 13.6698 19.8982 13.6976C19.5735 15.1113 18.8607 16.4531 17.7588 17.555C14.6346 20.6792 9.56927 20.6792 6.44507 17.555ZM15.0972 5.67688C15.1329 5.75487 15.1577 5.83506 15.1724 5.91576C15.2445 6.2846 15.1047 6.67887 14.7813 6.91545C14.7143 6.96446 14.6498 7.01954 14.5884 7.08092C13.9507 7.71861 13.9507 8.7525 14.5884 9.39019C15.2261 10.0279 16.26 10.0279 16.8977 9.39019C17.0081 9.27973 17.0985 9.15871 17.1699 9.03101C17.4347 8.55685 18.0296 8.38079 18.5099 8.63441C18.9901 8.88804 19.1802 9.47863 18.9379 9.96472C18.8311 10.179 18.792 10.4209 18.8228 10.6568C18.8558 10.9099 18.9688 11.153 19.164 11.3483C19.4291 11.6133 19.7861 11.7289 20.1349 11.6935C20.1822 11.6887 20.2299 11.6873 20.2775 11.6892C20.3884 11.6939 20.8027 11.6821 21.0308 11.6734C21.3173 11.6626 21.5947 11.7752 21.7925 11.9827C21.9903 12.1902 22.0896 12.4726 22.0651 12.7583C21.8706 15.023 20.9059 17.2363 19.173 18.9692C15.2678 22.8745 8.9361 22.8745 5.03086 18.9692C1.12562 15.064 1.12562 8.73234 5.03086 4.8271C6.72712 3.13084 8.88374 2.17056 11.0984 1.94837C11.4609 1.91201 11.8144 2.0756 12.0213 2.37541C12.2282 2.67522 12.2557 3.06381 12.0931 3.38976C12.0096 3.55704 11.9645 3.88622 12.0065 4.20815C12.041 4.47258 12.159 4.7266 12.3629 4.9305C12.7427 5.31024 13.3075 5.39672 13.7716 5.18416C14.2737 4.95416 14.8672 5.17476 15.0972 5.67688ZM7.65697 9.41501C7.65697 8.86272 8.10468 8.41501 8.65697 8.41501H8.66697C9.21925 8.41501 9.66697 8.86272 9.66697 9.41501C9.66697 9.96729 9.21925 10.415 8.66697 10.415H8.65697C8.10468 10.415 7.65697 9.96729 7.65697 9.41501ZM6.27098 13C6.27098 12.4477 6.71869 12 7.27098 12H7.28098C7.83326 12 8.28098 12.4477 8.28098 13C8.28098 13.5523 7.83326 14 7.28098 14H7.27098C6.71869 14 6.27098 13.5523 6.27098 13ZM14.9585 13.9155C14.4062 13.9155 13.9585 14.3632 13.9585 14.9155C13.9585 15.4678 14.4062 15.9155 14.9585 15.9155H14.9685C15.5208 15.9155 15.9685 15.4678 15.9685 14.9155C15.9685 14.3632 15.5208 13.9155 14.9685 13.9155H14.9585ZM9.99998 17C9.99998 16.4477 10.4477 16 11 16H11.01C11.5623 16 12.01 16.4477 12.01 17C12.01 17.5523 11.5623 18 11.01 18H11C10.4477 18 9.99998 17.5523 9.99998 17Z" fill="currentColor"/>
</svg>
