<svg width="24" height="24" viewBox="0 0 24 24" fill="none" xmlns="http://www.w3.org/2000/svg">
<path fill-rule="evenodd" clip-rule="evenodd" d="M12.0212 2.37541C12.2281 2.67522 12.2556 3.06381 12.093 3.38977C12.0095 3.55704 11.9644 3.88622 12.0064 4.20815C12.0409 4.47258 12.1589 4.7266 12.3628 4.9305C12.7426 5.31024 13.3074 5.39672 13.7714 5.18416C14.2736 4.95416 14.8671 5.17476 15.097 5.67688C15.1328 5.75486 15.1576 5.83504 15.1722 5.91573C15.2444 6.28458 15.1046 6.67887 14.7812 6.91545C14.7142 6.96446 14.6497 7.01954 14.5883 7.08092C13.9506 7.71861 13.9506 8.7525 14.5883 9.39019C15.226 10.0279 16.2599 10.0279 16.8976 9.39019C17.008 9.27973 17.0984 9.15872 17.1697 9.03101C17.4346 8.55685 18.0295 8.38078 18.5098 8.63441C18.99 8.88804 19.18 9.47863 18.9378 9.96472C18.831 10.179 18.7919 10.4209 18.8227 10.6568C18.8557 10.9099 18.9687 11.153 19.1639 11.3483C19.4289 11.6133 19.7859 11.7289 20.1348 11.6935C20.1821 11.6887 20.2298 11.6873 20.2773 11.6892C20.3883 11.6939 20.8025 11.6821 21.0307 11.6734C21.3172 11.6626 21.5946 11.7752 21.7924 11.9827C21.9902 12.1902 22.0895 12.4726 22.065 12.7583C21.8705 15.023 20.9058 17.2363 19.1729 18.9692C15.2676 22.8745 8.93598 22.8745 5.03074 18.9692C1.1255 15.064 1.1255 8.73234 5.03074 4.8271C6.727 3.13084 8.88362 2.17056 11.0983 1.94837C11.4607 1.91201 11.8143 2.0756 12.0212 2.37541ZM12.2755 7.14916C11.7903 6.99753 11.3334 6.72949 10.9486 6.34471C10.4221 5.81818 10.1128 5.15341 10.0232 4.46704C10.0113 4.37597 10.0022 4.2793 9.99671 4.17848C8.69578 4.53176 7.46719 5.21907 6.44495 6.24131C3.32076 9.36551 3.32076 14.4308 6.44495 17.555C9.56915 20.6792 14.6345 20.6792 17.7587 17.555C18.8606 16.4531 19.5734 15.1113 19.8981 13.6976C19.1189 13.6698 18.3456 13.3584 17.7497 12.7625C17.4199 12.4327 17.1767 12.0477 17.0209 11.6372C15.7279 12.1221 14.2141 11.8445 13.1741 10.8044C12.185 9.8153 11.8854 8.39776 12.2755 7.14916ZM7.65692 9.41497C7.65692 8.86269 8.10464 8.41497 8.65692 8.41497H8.66692C9.21921 8.41497 9.66692 8.86269 9.66692 9.41497C9.66692 9.96725 9.21921 10.415 8.66692 10.415H8.65692C8.10464 10.415 7.65692 9.96725 7.65692 9.41497ZM6.27103 13C6.27103 12.4477 6.71875 12 7.27103 12H7.28103C7.83332 12 8.28103 12.4477 8.28103 13C8.28103 13.5523 7.83332 14 7.28103 14H7.27103C6.71875 14 6.27103 13.5523 6.27103 13ZM13.9584 14.9157C13.9584 14.3634 14.4062 13.9157 14.9584 13.9157H14.9684C15.5207 13.9157 15.9684 14.3634 15.9684 14.9157C15.9684 15.4679 15.5207 15.9157 14.9684 15.9157H14.9584C14.4062 15.9157 13.9584 15.4679 13.9584 14.9157ZM9.99994 17C9.99994 16.4477 10.4477 16 10.9999 16H11.0099C11.5622 16 12.0099 16.4477 12.0099 17C12.0099 17.5523 11.5622 18 11.0099 18H10.9999C10.4477 18 9.99994 17.5523 9.99994 17Z" fill="currentColor"/>
</svg>
