<svg width="24" height="24" viewBox="0 0 24 24" fill="none" xmlns="http://www.w3.org/2000/svg">
<path fill-rule="evenodd" clip-rule="evenodd" d="M11.5039 3.13176C11.8113 2.95608 12.1887 2.95608 12.4962 3.13176L16.4961 5.41747C16.8077 5.59551 17 5.92686 17 6.28571V10.2768L20.4961 12.2746C20.8077 12.4527 21 12.784 21 13.1429V17.7143C21 18.0731 20.8077 18.4045 20.4961 18.5825L16.4961 20.8682C16.1887 21.0439 15.8113 21.0439 15.5039 20.8682L12 18.866L8.49613 20.8682C8.1887 21.0439 7.81128 21.0439 7.50385 20.8682L3.50386 18.5825C3.19229 18.4045 3 18.0731 3 17.7143V13.1428C3 12.784 3.19229 12.4526 3.50386 12.2746L7 10.2768L7.00003 6.28571C7.00003 5.92685 7.19231 5.59551 7.50389 5.41747L11.5039 3.13176ZM7.99999 12.0089L6.01556 13.1428L7.99999 14.2768L9.98442 13.1428L7.99999 12.0089ZM11 14.866L8.99999 16.0089L8.99999 18.2768L11 17.1339V14.866ZM13 17.1339L15 18.2768V16.0089L13 14.866V17.1339ZM14.0156 13.1428L16 14.2768L17.9844 13.1429L16 12.0089L14.0156 13.1428ZM15 10.2768V8.0089L13 9.15175L13 11.4197L15 10.2768ZM11 11.4197L11 9.15175L9.00001 8.00889L9 10.2768L11 11.4197ZM10.0156 6.28571L12 7.41968L13.9844 6.28571L12 5.15175L10.0156 6.28571ZM19 14.866L17 16.0089V18.2768L19 17.134V14.866ZM6.99999 18.2768L6.99999 16.0089L5 14.866V17.1339L6.99999 18.2768Z" fill="currentColor"/>
</svg>
