<svg width="24" height="24" viewBox="0 0 24 24" fill="none" xmlns="http://www.w3.org/2000/svg">
<path fill-rule="evenodd" clip-rule="evenodd" d="M9 3C9 2.44772 9.44772 2 10 2H14C14.5523 2 15 2.44772 15 3V5C15.5523 5 16 5.44772 16 6C16 6.55228 15.5523 7 15 7V8.51594C16.9611 10.1474 18 12.2926 18 14.5V19C18 20.6569 16.6569 22 15 22H9C7.34314 22 6 20.6568 6 19V14.5C6 12.2926 7.03885 10.1474 9 8.51594V7C8.44772 7 8 6.55228 8 6C8 5.44772 8.44772 5 9 5V3ZM11 7V9C11 9.31476 10.8518 9.61115 10.6 9.8C8.81961 11.1353 8 12.8529 8 14.5V19C8 19.5523 8.44772 20 9 20H15C15.5523 20 16 19.5523 16 19V14.5C16 12.8529 15.1804 11.1353 13.4 9.8C13.1482 9.61115 13 9.31476 13 9V7H11ZM13 5H11V4H13V5ZM11.001 15.9852C11 15.9953 11 16.0001 11 16.0001V16C11 16.5523 11.4477 17 12 17C12.5523 17 13 16.5523 13 16.0001C13 16.0001 13 15.9953 12.999 15.9852C12.998 15.9745 12.9961 15.9594 12.9928 15.9396C12.986 15.8994 12.9743 15.8466 12.9558 15.7806C12.9184 15.6471 12.8601 15.4837 12.7811 15.2949C12.623 14.9168 12.4038 14.4883 12.1719 14.0766C12.1145 13.9747 12.0569 13.8749 12 13.7783C11.9431 13.8749 11.8855 13.9747 11.8281 14.0766C11.5962 14.4883 11.377 14.9168 11.2189 15.2949C11.1399 15.4837 11.0816 15.6471 11.0442 15.7806C11.0257 15.8466 11.014 15.8994 11.0072 15.9396C11.0039 15.9594 11.002 15.9745 11.001 15.9852ZM11.5271 11.1174C11.5872 11.0858 11.7603 11 12 11C12.2397 11 12.4128 11.0858 12.4729 11.1174C12.5502 11.1582 12.607 11.2008 12.6377 11.2252C12.7001 11.2747 12.7469 11.3232 12.7711 11.3489C12.824 11.4054 12.873 11.4667 12.9116 11.5169C12.9932 11.6229 13.09 11.7606 13.1925 11.9141C13.3999 12.2244 13.6595 12.6425 13.9144 13.0949C14.1681 13.5453 14.4274 14.0477 14.6262 14.5231C14.8093 14.9607 15 15.5086 15 16C15 17.6569 13.6569 19 12 19C10.3431 19 9 17.6569 9 16C9 15.5086 9.19074 14.9607 9.37376 14.5231C9.57263 14.0477 9.83188 13.5453 10.0856 13.0949C10.3405 12.6425 10.6001 12.2244 10.8075 11.9141C10.91 11.7606 11.0068 11.6229 11.0884 11.5169C11.127 11.4667 11.176 11.4054 11.2289 11.3489C11.2531 11.3232 11.2999 11.2747 11.3623 11.2252C11.393 11.2008 11.4498 11.1582 11.5271 11.1174Z" fill="currentColor"/>
</svg>
