<svg width="24" height="24" viewBox="0 0 24 24" fill="none" xmlns="http://www.w3.org/2000/svg">
<path fill-rule="evenodd" clip-rule="evenodd" d="M7.99998 3C7.99998 2.44772 8.4477 2 8.99998 2H15C15.5523 2 16 2.44772 16 3V6C16 6.55228 15.5523 7 15 7V8.09419C15.058 8.1304 15.1296 8.17365 15.2108 8.22268C15.4513 8.36779 15.7757 8.56359 16.078 8.77773C16.8954 9.35671 18 10.3674 18 12V19C18 19.0221 18.0001 19.0456 18.0002 19.0705C18.002 19.4862 18.0055 20.2759 17.5515 20.9249C17.0067 21.7034 16.0584 22 14.8571 22H9.14284C7.94156 22 6.99323 21.7034 6.44849 20.9249C5.99442 20.2759 5.99792 19.4862 5.99977 19.0705C5.99988 19.0456 5.99998 19.0221 5.99998 19V12C5.99998 10.3674 7.10458 9.35671 7.92196 8.77773C8.22427 8.56359 8.54868 8.36779 8.78912 8.22268C8.87036 8.17365 8.94201 8.1304 8.99998 8.09419V7C8.4477 7 7.99998 6.55228 7.99998 6V3ZM11 7V8.5C11 9.03707 10.6297 9.36552 10.535 9.44944C10.3849 9.58261 10.2044 9.69994 10.0612 9.7894C9.95815 9.85383 9.85777 9.91438 9.75808 9.97451C9.53541 10.1088 9.31618 10.2411 9.078 10.4098C8.39538 10.8933 7.99998 11.3826 7.99998 12V19C7.99998 19.2478 8.00176 19.4169 8.02316 19.5648C8.04314 19.7029 8.0727 19.7576 8.08718 19.7783C8.0942 19.7884 8.12593 19.834 8.25854 19.8843C8.40987 19.9417 8.68152 20 9.14284 20H14.8571C15.3184 20 15.5901 19.9417 15.7414 19.8843C15.874 19.834 15.9054 19.7889 15.9124 19.7788C15.9269 19.7582 15.9568 19.7029 15.9768 19.5648C15.9982 19.4169 16 19.2478 16 19V12C16 11.3826 15.6046 10.8933 14.922 10.4098C14.6838 10.2411 14.4646 10.1088 14.2419 9.97451C14.1422 9.91438 14.0418 9.85383 13.9387 9.7894C13.7956 9.69994 13.6155 9.58297 13.4654 9.44981C13.3707 9.36588 13 9.03707 13 8.5V7H11ZM9.99998 4V5H14V4H9.99998ZM11.2162 15.1005C11.0645 15.4958 11 15.8014 11 16C11 16.5523 11.4477 17 12 17C12.5523 17 13 16.5523 13 16C13 15.8014 12.9355 15.4958 12.7838 15.1005C12.6373 14.7187 12.4337 14.3151 12.2157 13.9409C12.1434 13.8169 12.0709 13.6984 12 13.5872C11.9291 13.6984 11.8566 13.8169 11.7843 13.9409C11.5663 14.3151 11.3627 14.7187 11.2162 15.1005ZM11.5307 11.1116C11.5996 11.0774 11.7701 11 12 11C12.2299 11 12.4003 11.0774 12.4692 11.1116C12.5532 11.1533 12.6184 11.1989 12.6595 11.23C12.7426 11.2926 12.8131 11.3609 12.8644 11.4137C12.9715 11.524 13.0852 11.6613 13.1961 11.806C13.4215 12.1004 13.688 12.4951 13.9437 12.9341C14.1992 13.3724 14.4557 13.875 14.651 14.3839C14.8411 14.8792 15 15.4486 15 16C15 17.6569 13.6568 19 12 19C10.3431 19 8.99998 17.6569 8.99998 16C8.99998 15.4486 9.1589 14.8792 9.34897 14.3839C9.54426 13.875 9.8008 13.3724 10.0562 12.9341C10.312 12.4951 10.5784 12.1004 10.8039 11.806C10.9147 11.6613 11.0285 11.524 11.1356 11.4137C11.1869 11.3609 11.2574 11.2926 11.3404 11.23C11.3816 11.1989 11.4468 11.1533 11.5307 11.1116Z" fill="currentColor"/>
</svg>
