<svg width="24" height="24" viewBox="0 0 24 24" fill="none" xmlns="http://www.w3.org/2000/svg">
<path fill-rule="evenodd" clip-rule="evenodd" d="M6.31313 3.88695C7.52753 2.67255 9.41531 2.70027 10.6225 3.90741C11.5755 4.86041 11.7934 6.23762 11.2453 7.37281L12.7519 8.80022C13.3252 8.70771 13.9146 8.70875 14.4931 8.78896C16.0314 9.00225 17.5689 9.77778 18.7485 10.9574C19.909 12.1179 20.6355 13.4919 20.7222 14.9446C20.81 16.4179 20.2305 17.8314 19.0463 19.0156C17.9058 20.1561 16.5844 20.9043 15.1474 20.9596C14.8032 20.9728 14.4764 20.808 14.2825 20.5233C14.0886 20.2386 14.0548 19.8742 14.1931 19.5587C14.6078 18.6131 14.3326 17.9062 13.7407 17.5107C13.4237 17.2988 13.0698 17.178 12.6934 17.179C12.3215 17.1799 11.8603 17.2996 11.3227 17.6768C11.0886 17.8411 10.7954 17.8972 10.5172 17.8311C10.239 17.765 10.0024 17.5829 9.86718 17.3309C9.25001 16.1805 8.87258 14.8647 8.85805 13.6047C8.85396 13.2502 8.87891 12.8933 8.93803 12.5424L7.45908 11.1871C6.31353 11.7697 4.90667 11.5604 3.93805 10.5918C2.73091 9.38467 2.70319 7.49689 3.91759 6.28249C4.33254 5.86754 4.88176 5.5655 5.47191 5.44127C5.59614 4.85112 5.89818 4.3019 6.31313 3.88695ZM10.993 12.5098C10.9977 12.4957 11.002 12.4815 11.0059 12.4672C11.124 12.0879 11.3101 11.7712 11.556 11.5253C12.1994 10.882 13.1403 10.6205 14.2184 10.77C15.3018 10.9202 16.4455 11.4828 17.3343 12.3716C18.2422 13.2794 18.6752 14.2168 18.7257 15.0637C18.775 15.89 18.4692 16.7643 17.6321 17.6014C17.204 18.0295 16.7871 18.3464 16.3868 18.5663C16.3472 17.4786 15.8194 16.4943 14.852 15.8478C14.251 15.4462 13.5145 15.1769 12.6883 15.179C12.2038 15.1802 11.7115 15.2747 11.2207 15.4687C10.991 14.832 10.8648 14.1826 10.8579 13.5817C10.8533 13.1851 10.8999 12.8263 10.993 12.5098ZM9.74657 10.5706L8.21587 9.1679C7.82119 8.80623 7.21169 8.81952 6.83316 9.19806C6.41859 9.61263 5.79728 9.62261 5.35227 9.1776C4.90726 8.73259 4.91724 8.11127 5.3318 7.6967C5.59705 7.43146 5.97374 7.33726 6.22315 7.39648C6.5608 7.47666 6.91588 7.37604 7.16128 7.13064C7.40668 6.88524 7.5073 6.53016 7.42712 6.19251C7.3679 5.9431 7.4621 5.56641 7.72734 5.30117C8.14191 4.8866 8.76323 4.87662 9.20824 5.32163C9.65325 5.76664 9.64327 6.38795 9.2287 6.80252C9.03786 6.99336 8.93226 7.25324 8.9359 7.52311C8.93953 7.79298 9.0521 8.04991 9.24802 8.23554L10.7144 9.62485C10.5146 9.76805 10.3231 9.92982 10.1418 10.1111C9.99628 10.2567 9.86481 10.4103 9.74657 10.5706Z" fill="currentColor"/>
</svg>
