<svg width="24" height="24" viewBox="0 0 24 24" fill="none" xmlns="http://www.w3.org/2000/svg">
<path fill-rule="evenodd" clip-rule="evenodd" d="M8.69442 8.21911C7.66197 10.2024 7.05005 12.5438 7.05005 14C7.05005 16.7614 9.28862 19 12.05 19C14.8115 19 17.05 16.7614 17.05 14C17.05 12.5438 16.4381 10.2024 15.4057 8.21911C14.894 7.23619 14.3087 6.40005 13.6985 5.82319C13.0838 5.24202 12.5283 5 12.05 5C11.5718 5 11.0163 5.24202 10.4016 5.82319C9.79136 6.40005 9.20609 7.23619 8.69442 8.21911ZM9.0276 4.36983C9.84851 3.59377 10.8715 3 12.05 3C13.2286 3 14.2516 3.59377 15.0725 4.36983C15.898 5.15021 16.6056 6.19275 17.1797 7.29561C18.3188 9.48385 19.05 12.1425 19.05 14C19.05 17.866 15.916 21 12.05 21C8.18406 21 5.05005 17.866 5.05005 14C5.05005 12.1425 5.78128 9.48385 6.9204 7.29561C7.49451 6.19275 8.20213 5.15021 9.0276 4.36983ZM11.5581 8.89854C12.0164 9.20672 12.1381 9.82808 11.8299 10.2864C11.6069 10.6181 11.3931 11.1102 11.2352 11.6467C11.077 12.1844 11.0001 12.6811 11.0001 13C11.0001 13.5523 10.5523 14 10.0001 14C9.44778 14 9.00006 13.5523 9.00006 13C9.00006 12.4306 9.12421 11.7359 9.31655 11.0822C9.50924 10.4272 9.79547 9.72768 10.1702 9.17036C10.4784 8.71206 11.0998 8.59036 11.5581 8.89854Z" fill="currentColor"/>
</svg>
