<svg width="24" height="24" viewBox="0 0 24 24" fill="none" xmlns="http://www.w3.org/2000/svg">
<path fill-rule="evenodd" clip-rule="evenodd" d="M13.8749 7.00773C13.7511 7.00259 13.6262 6.99996 13.5 6.99996C11.2429 6.99996 9.19349 7.65163 7.68891 8.53848C6.93738 8.98146 6.29335 9.49988 5.82496 10.0553C5.77102 10.1192 5.71822 10.1851 5.66706 10.2528L3.70711 8.29285C3.31658 7.90233 2.68342 7.90233 2.29289 8.29285C1.90237 8.68338 1.90237 9.31654 2.29289 9.70707L4.58579 12L2.29289 14.2929C1.90237 14.6834 1.90237 15.3165 2.29289 15.7071C2.68342 16.0976 3.31658 16.0976 3.70711 15.7071L5.66706 13.7471C5.71822 13.8148 5.77102 13.8807 5.82496 13.9447C6.29335 14.5 6.93738 15.0185 7.68891 15.4614C9.19349 16.3483 11.2429 17 13.5 17C13.6262 17 13.7513 16.9973 13.8751 16.9922C13.9982 17.0078 14.1248 17.0006 14.2482 16.9689C16.2494 16.8025 17.9159 15.9908 19.1606 15.1191C20.5524 14.1443 21.4688 13.0595 21.8111 12.5849C22.063 12.2356 22.063 11.7643 21.8111 11.415C21.4688 10.9404 20.5524 9.8556 19.1606 8.88085C17.9159 8.00914 16.2493 7.19734 14.248 7.03097C14.1243 6.99919 13.9978 6.99213 13.8749 7.00773ZM14.5451 14.9217C13.9593 13.809 13.7128 12.96 13.7114 12.1325C13.71 11.2869 13.9639 10.356 14.5749 9.08282C15.9194 9.29086 17.0802 9.86559 18.0133 10.5191C18.7464 11.0324 19.3185 11.5806 19.7027 12C19.3185 12.4193 18.7464 12.9675 18.0133 13.4809C17.0733 14.1392 15.9022 14.7176 14.5451 14.9217ZM12.3336 14.9302C11.935 13.9942 11.713 13.0899 11.7114 12.1359C11.7097 11.1312 11.9529 10.138 12.394 9.06264C10.9546 9.22579 9.6725 9.69086 8.70449 10.2614C8.09879 10.6185 7.64447 11 7.35382 11.3447C7.04738 11.708 7 11.9348 7 12C7 12.0651 7.04738 12.2919 7.35382 12.6553C7.64447 12.9999 8.09879 13.3815 8.70449 13.7385C9.65893 14.3011 10.9187 14.7611 12.3336 14.9302ZM14.9866 11.6277C14.9866 11.0754 15.4344 10.6277 15.9866 10.6277H15.9966C16.5489 10.6277 16.9966 11.0754 16.9966 11.6277C16.9966 12.18 16.5489 12.6277 15.9966 12.6277H15.9866C15.4344 12.6277 14.9866 12.18 14.9866 11.6277Z" fill="#101828"/>
</svg>
