<svg width="24" height="24" viewBox="0 0 24 24" fill="none" xmlns="http://www.w3.org/2000/svg">
<path fill-rule="evenodd" clip-rule="evenodd" d="M8.29761 4.2882C8.69073 3.90029 9.32388 3.9045 9.7118 4.29761L12.4268 7.04899C12.7782 7.01691 13.1364 7 13.5 7C13.6817 7 13.8609 7.00546 14.0376 7.016C14.0523 7.01658 14.0669 7.01749 14.0815 7.01872C16.1569 7.15261 17.8815 7.98511 19.1606 8.88089C20.5524 9.85564 21.4688 10.9405 21.8111 11.4151C22.063 11.7644 22.063 12.2356 21.8111 12.5849C21.4688 13.0595 20.5524 14.1444 19.1606 15.1191C17.8809 16.0153 16.1553 16.8482 14.0785 16.9815C14.065 16.9826 14.0514 16.9834 14.0378 16.984C13.8611 16.9945 13.6818 17 13.5 17C13.4338 17 13.3678 16.9994 13.3019 16.9983C13.1139 17.2934 12.8522 17.6873 12.5553 18.0852C12.2582 18.4834 11.9031 18.9165 11.5333 19.26C11.3484 19.4317 11.1362 19.6033 10.9044 19.7367C10.6811 19.8652 10.3679 20 10 20H8.50004C6.85201 20 5.91111 18.1185 6.9 16.8L6.90466 16.7938L6.90469 16.7938L7.84959 15.5541C7.79537 15.5235 7.7418 15.4927 7.68891 15.4615C6.93738 15.0185 6.29335 14.5001 5.82496 13.9447C5.77102 13.8808 5.71822 13.8149 5.66706 13.7472L3.70711 15.7071C3.31658 16.0976 2.68342 16.0976 2.29289 15.7071C1.90237 15.3166 1.90237 14.6834 2.29289 14.2929L4.58579 12L2.29289 9.70711C1.90237 9.31658 1.90237 8.68342 2.29289 8.29289C2.68342 7.90237 3.31658 7.90237 3.70711 8.29289L5.66706 10.2528C5.71822 10.1851 5.77102 10.1192 5.82496 10.0553C6.29335 9.49992 6.93738 8.9815 7.68891 8.53852C8.37866 8.13196 9.18292 7.77482 10.0692 7.50724L8.2882 5.70239C7.90029 5.30927 7.9045 4.67612 8.29761 4.2882ZM12.1807 9.0892C10.828 9.27229 9.62442 9.71924 8.70449 10.2615C8.09879 10.6185 7.64447 11.0001 7.35382 11.3447C7.04738 11.7081 7 11.9349 7 12C7 12.0651 7.04738 12.2919 7.35382 12.6553C7.64447 12.9999 8.09879 13.3815 8.70449 13.7385C9.02019 13.9246 9.36931 14.0995 9.74639 14.2563C9.75983 14.2615 9.77319 14.267 9.78647 14.2729C10.5403 14.5822 11.404 14.8193 12.3348 14.9304C11.9332 13.9932 11.7091 13.0897 11.7078 12.1357C11.7063 11.1316 11.9522 10.1393 12.3966 9.06238C12.3305 9.06986 12.2648 9.07797 12.1994 9.08669C12.1931 9.08759 12.1869 9.08843 12.1807 9.0892ZM14.5789 9.08348C13.962 10.364 13.7066 11.2916 13.7078 12.1329C13.7089 12.9562 13.9564 13.8018 14.5483 14.9212C15.9041 14.7167 17.0741 14.1387 18.0133 13.4809C18.7464 12.9675 19.3185 12.4193 19.7027 12C19.3185 11.5807 18.7464 11.0325 18.0133 10.5191C17.0811 9.86628 15.9217 9.29204 14.5789 9.08348ZM9.73099 16.385L8.50004 18H9.91242C9.96842 17.9669 10.0557 17.9027 10.1722 17.7945C10.4132 17.5707 10.685 17.2474 10.9523 16.8892C10.9881 16.8412 11.0234 16.7932 11.0581 16.7453C10.5976 16.6486 10.154 16.5269 9.73099 16.385ZM9.87619 18.0189C9.87621 18.0188 9.87781 18.0181 9.88095 18.0169C9.87774 18.0184 9.87617 18.019 9.87619 18.0189ZM14.9866 11.6277C14.9866 11.0754 15.4344 10.6277 15.9866 10.6277H15.9966C16.5489 10.6277 16.9966 11.0754 16.9966 11.6277C16.9966 12.18 16.5489 12.6277 15.9966 12.6277H15.9866C15.4344 12.6277 14.9866 12.18 14.9866 11.6277Z" fill="currentColor"/>
</svg>
