<svg width="24" height="24" viewBox="0 0 24 24" fill="none" xmlns="http://www.w3.org/2000/svg">
<path fill-rule="evenodd" clip-rule="evenodd" d="M7.05005 3C7.05005 2.44772 7.49776 2 8.05005 2H16.05C16.6023 2 17.05 2.44772 17.05 3C17.05 3.55228 16.6023 4 16.05 4H15.05V7.31532C17.7486 8.47866 20.05 10.9457 20.05 14.2C20.05 18.5349 16.4408 22 12.05 22C7.65929 22 4.05005 18.5349 4.05005 14.2C4.05005 10.9457 6.35147 8.47866 9.05005 7.31532V4H8.05005C7.49776 4 7.05005 3.55228 7.05005 3ZM11.05 4V8C11.05 8.42712 10.7788 8.8071 10.3748 8.9458C7.98415 9.76663 6.15469 11.69 6.05438 14H18.0457C17.9454 11.69 16.1159 9.76663 13.7253 8.9458C13.3213 8.8071 13.05 8.42712 13.05 8V4H11.05ZM17.7546 16H6.34552C7.12606 18.3096 9.36822 20 12.05 20C14.7319 20 16.974 18.3096 17.7546 16Z" fill="#101828"/>
</svg>
