<svg width="24" height="24" viewBox="0 0 24 24" fill="none" xmlns="http://www.w3.org/2000/svg">
<path fill-rule="evenodd" clip-rule="evenodd" d="M5.26976 2.31682C5.45884 2.11471 5.72323 2 6 2H18C18.2768 2 18.5412 2.11471 18.7302 2.31682C18.9193 2.51893 19.0162 2.79036 18.9978 3.06652L17.9223 19.1996C17.8172 20.7754 16.5083 22 14.9289 22H9.07111C7.49172 22 6.18281 20.7755 6.07775 19.1996L5.00222 3.06652C4.98381 2.79036 5.08067 2.51893 5.26976 2.31682ZM7.06889 4L7.86889 16H16.1311L16.9311 4H7.06889ZM15.9978 18H8.00222L8.07332 19.0665C8.10834 19.5918 8.54464 20 9.07111 20H14.9289C15.4554 20 15.8917 19.5918 15.9267 19.0665L15.9978 18ZM11.2113 10.2813C11.0456 10.6943 11 10.9294 11 11C11 11.5523 11.4477 12 12 12C12.5523 12 13 11.5523 13 11C13 10.9294 12.9544 10.6943 12.7887 10.2813C12.6372 9.90357 12.4266 9.476 12.202 9.06758C12.1344 8.94465 12.0666 8.82531 12 8.71149C11.9334 8.82531 11.8656 8.94465 11.798 9.06758C11.5734 9.476 11.3628 9.90357 11.2113 10.2813ZM11.4746 6.14309C11.5398 6.10529 11.732 6 12 6C12.268 6 12.4602 6.10529 12.5255 6.14309C12.6112 6.19279 12.676 6.24584 12.7147 6.27961C12.7937 6.34857 12.8605 6.42311 12.9086 6.47983C13.0097 6.59906 13.119 6.74849 13.2262 6.90547C13.4447 7.22509 13.7048 7.6497 13.9546 8.104C14.2039 8.5575 14.4541 9.0609 14.645 9.53673C14.8217 9.97724 15 10.5183 15 11C15 12.6569 13.6569 14 12 14C10.3431 14 9 12.6569 9 11C9 10.5183 9.17832 9.97724 9.35502 9.53673C9.54588 9.0609 9.79607 8.5575 10.0454 8.104C10.2952 7.6497 10.5554 7.22509 10.7738 6.90547C10.881 6.74849 10.9903 6.59906 11.0914 6.47983C11.1395 6.42311 11.2064 6.34857 11.2853 6.27961C11.324 6.24584 11.3888 6.19279 11.4746 6.14309Z" fill="#101828"/>
</svg>
