<svg width="24" height="24" viewBox="0 0 24 24" fill="none" xmlns="http://www.w3.org/2000/svg">
<path fill-rule="evenodd" clip-rule="evenodd" d="M5.26976 2.31682C5.45884 2.11471 5.72323 2 6 2H18C18.2768 2 18.5412 2.11471 18.7302 2.31682C18.9193 2.51893 19.0162 2.79036 18.9978 3.06652L17.9223 19.1996C17.8172 20.7754 16.5083 22 14.9289 22H9.07111C7.49172 22 6.18281 20.7755 6.07775 19.1996L5.00222 3.06652C4.98381 2.79036 5.08067 2.51893 5.26976 2.31682ZM7.06889 4L7.2124 6.15264C7.80532 6.36873 8.18134 6.76721 8.43323 7.03414C8.44245 7.04391 8.4515 7.0535 8.46039 7.0629C8.81291 7.43567 8.90507 7.5 9.15235 7.5C9.39962 7.5 9.49178 7.43567 9.8443 7.0629C9.85319 7.0535 9.86224 7.04391 9.87146 7.03414C10.2321 6.65192 10.8473 6 11.9894 6C13.1314 6 13.7466 6.65192 14.1073 7.03414C14.1165 7.04391 14.1256 7.0535 14.1345 7.0629C14.487 7.43567 14.5791 7.5 14.8264 7.5C15.2184 7.5 15.7154 7.27477 16.2007 6.93268C16.4255 6.77421 16.6151 6.614 16.7481 6.49344C16.7542 6.48791 16.7601 6.48248 16.766 6.47714L16.9311 4H7.06889ZM16.5959 9.02852C16.0893 9.28787 15.4791 9.5 14.8264 9.5C13.6844 9.5 13.0692 8.84808 12.7085 8.46586C12.6993 8.45609 12.6902 8.4465 12.6813 8.4371C12.3288 8.06433 12.2367 8 11.9894 8C11.7421 8 11.6499 8.06433 11.2974 8.4371C11.2885 8.4465 11.2795 8.45609 11.2703 8.46586C10.9096 8.84808 10.2944 9.5 9.15235 9.5C8.3205 9.5 7.76818 9.15414 7.39013 8.81855L8.07332 19.0665C8.10834 19.5918 8.54464 20 9.07111 20H14.9289C15.4554 20 15.8917 19.5918 15.9267 19.0665L16.5959 9.02852Z" fill="#101828"/>
</svg>
