<svg width="24" height="24" viewBox="0 0 24 24" fill="none" xmlns="http://www.w3.org/2000/svg">
<path fill-rule="evenodd" clip-rule="evenodd" d="M9.30237 3.04653C10.0136 2.39651 10.9605 2 12 2C13.0395 2 13.9864 2.39651 14.6976 3.04653C14.793 3.0163 14.8946 3 15 3H15.5C17.9853 3 20 5.01472 20 7.5L20 16.5C20 18.9853 17.9853 21 15.5 21H15C14.8965 21 14.7947 20.984 14.6979 20.9533C13.9866 21.6034 13.0396 22 12 22C10.9604 22 10.0134 21.6034 9.30214 20.9533C9.2053 20.984 9.10348 21 9 21H8.5C6.01472 21 4 18.9853 4 16.5L4 7.5C4 5.01472 6.01472 3 8.5 3H9C9.10539 3 9.20698 3.0163 9.30237 3.04653ZM10 6L10 18C10 19.1046 10.8954 20 12 20C13.1046 20 14 19.1046 14 18L14 6C14 4.89543 13.1046 4 12 4C10.8954 4 10 4.89543 10 6ZM8 5.05001C6.85888 5.28164 6 6.29052 6 7.5L6 16.5C6 17.7095 6.85888 18.7184 8 18.95L8 5.05001ZM16 18.95C17.1411 18.7184 18 17.7095 18 16.5L18 7.5C18 6.29052 17.1411 5.28164 16 5.05001L16 18.95ZM11.7929 6.29289C12.1834 5.90237 12.8166 5.90237 13.2071 6.29289C13.5976 6.68342 13.5976 7.31658 13.2071 7.70711L12.2071 8.70711C11.8166 9.09763 11.1834 9.09763 10.7929 8.70711C10.4024 8.31658 10.4024 7.68342 10.7929 7.29289L11.7929 6.29289ZM11.7929 10.7929C12.1834 10.4024 12.8166 10.4024 13.2071 10.7929C13.5976 11.1834 13.5976 11.8166 13.2071 12.2071L12.2071 13.2071C11.8166 13.5976 11.1834 13.5976 10.7929 13.2071C10.4024 12.8166 10.4024 12.1834 10.7929 11.7929L11.7929 10.7929ZM11.7929 15.2929C12.1834 14.9024 12.8166 14.9024 13.2071 15.2929C13.5976 15.6834 13.5976 16.3166 13.2071 16.7071L12.2071 17.7071C11.8166 18.0976 11.1834 18.0976 10.7929 17.7071C10.4024 17.3166 10.4024 16.6834 10.7929 16.2929L11.7929 15.2929Z" fill="currentColor"/>
</svg>
