<svg width="24" height="24" viewBox="0 0 24 24" fill="none" xmlns="http://www.w3.org/2000/svg">
<path fill-rule="evenodd" clip-rule="evenodd" d="M12 4C10.8954 4 10 4.89543 10 6C10 6.69469 10.3533 7.30728 10.8948 7.66727C11.3547 7.97305 11.4796 8.59377 11.1738 9.05367C10.8681 9.51358 10.2473 9.63852 9.78743 9.33273C9.02858 8.82818 8.45058 8.06934 8.17612 7.17704C7.48254 7.491 7 8.18915 7 9C7 10.1046 7.89543 11 9 11H15.3893C16.4938 11 17.3893 10.1046 17.3893 9C17.3893 7.89543 16.4938 7 15.3893 7C14.9789 7 14.6002 7.1225 14.2841 7.33273C13.8241 7.63852 13.2034 7.51358 12.8976 7.05367C12.5919 6.59377 12.7168 5.97305 13.1767 5.66727C13.3947 5.5223 13.6279 5.39814 13.8732 5.29761C13.5888 4.53953 12.8574 4 12 4ZM15.8816 5.02999C15.4481 3.28957 13.8746 2 12 2C10.0998 2 8.50915 3.32493 8.10135 5.10135C6.32493 5.50915 5 7.09985 5 9C5 10.5411 5.87155 11.8787 7.14866 12.5467L11.0862 21.4061C11.2467 21.7673 11.6048 22 12 22C12.3952 22 12.7533 21.7673 12.9138 21.4061L16.7564 12.7603C18.2923 12.2017 19.3893 10.729 19.3893 9C19.3893 6.95754 17.8585 5.27262 15.8816 5.02999ZM14.4612 13H9.53876L12 18.5378L14.4612 13Z" fill="currentColor"/>
</svg>
