<svg width="24" height="24" viewBox="0 0 24 24" fill="none" xmlns="http://www.w3.org/2000/svg">
<path fill-rule="evenodd" clip-rule="evenodd" d="M8.12602 7H9C10.6569 7 12 8.34315 12 10V10.5C12 10.7761 12.2239 11 12.5 11C12.7761 11 13 10.7761 13 10.5C13 9.11929 14.1193 8 15.5 8H16C16 5.79086 14.2091 4 12 4C10.1362 4 8.57006 5.27477 8.12602 7ZM18 8C18 4.68629 15.3137 2 12 2C8.68629 2 6 4.68629 6 8V14C6 15.1046 6.89543 16 8 16H11V21C11 21.5523 11.4477 22 12 22C12.5523 22 13 21.5523 13 21V16H16C17.1046 16 18 15.1046 18 14V8ZM16 10H15.5C15.2239 10 15 10.2239 15 10.5C15 11.8807 13.8807 13 12.5 13C11.1193 13 10 11.8807 10 10.5V10C10 9.44772 9.55228 9 9 9H8V14H16V10Z" fill="#101828"/>
</svg>
