<svg width="24" height="24" viewBox="0 0 24 24" fill="none" xmlns="http://www.w3.org/2000/svg">
<path fill-rule="evenodd" clip-rule="evenodd" d="M7 3C7 2.44772 7.44772 2 8 2H16C16.5523 2 17 2.44772 17 3V5H18C18.5523 5 19 5.44772 19 6C19 6.44954 18.7034 6.8298 18.2952 6.95572C19.0719 7.93035 20 9.40184 20 11V19.002C20 21.2121 18.2083 23 16 23H8C5.79175 23 4 21.2121 4 19.002V11C4 9.40184 4.92812 7.93035 5.70483 6.95572C5.29662 6.82979 5 6.44954 5 6C5 5.44772 5.44772 5 6 5H7V3ZM9 5H15V4H9V5ZM15.6179 7H8.38213C8.33568 7.04343 8.28411 7.09245 8.22833 7.14668C7.96841 7.39938 7.62341 7.75901 7.28087 8.18719C6.56044 9.08773 6 10.108 6 11V19.002C6 20.1057 6.89454 21 8 21H16C17.1055 21 18 20.1057 18 19.002V11C18 10.108 17.4396 9.08773 16.7191 8.18719C16.3766 7.75901 16.0316 7.39938 15.7717 7.14668C15.7159 7.09245 15.6643 7.04343 15.6179 7ZM12 8C12.5523 8 13 8.44772 13 9V10.703C13.194 10.5989 13.3946 10.5057 13.5475 10.4376C13.7123 10.3642 13.8751 10.2967 14.0064 10.2478C14.0686 10.2245 14.1421 10.1985 14.2122 10.1786C14.242 10.1701 14.306 10.1525 14.3826 10.1416C14.4159 10.1368 14.5009 10.1257 14.6078 10.1335C14.6618 10.1375 14.7586 10.1486 14.8724 10.1889C14.9833 10.2282 15.1751 10.3185 15.3319 10.5215C15.4779 10.7104 15.5185 10.9008 15.532 10.9985C15.5465 11.1035 15.5413 11.1889 15.5366 11.237C15.5271 11.3326 15.506 11.4067 15.4967 11.4377C15.4757 11.5076 15.4507 11.5653 15.4377 11.5945C15.4078 11.6616 15.3714 11.7312 15.3378 11.7924C15.2676 11.9199 15.1728 12.0768 15.067 12.2361C14.9618 12.3943 14.8349 12.5713 14.6995 12.7318C14.5822 12.8708 14.3902 13.0816 14.1485 13.2241C13.931 13.3523 13.5579 13.5415 13.2447 13.6878C13.1631 13.7259 13.08 13.7637 13 13.7986V14.6749C13.194 14.5709 13.3946 14.4776 13.5475 14.4095C13.7123 14.3361 13.8751 14.2687 14.0064 14.2197C14.0686 14.1964 14.1421 14.1704 14.2122 14.1505C14.242 14.1421 14.306 14.1244 14.3826 14.1135C14.4159 14.1088 14.5009 14.0976 14.6078 14.1054C14.6618 14.1094 14.7586 14.1205 14.8724 14.1608C14.9833 14.2001 15.1751 14.2904 15.3319 14.4934C15.4779 14.6824 15.5185 14.8727 15.532 14.9704C15.5465 15.0754 15.5413 15.1608 15.5366 15.209C15.5271 15.3045 15.506 15.3786 15.4967 15.4096C15.4757 15.4795 15.4507 15.5373 15.4377 15.5664C15.4078 15.6335 15.3714 15.7032 15.3378 15.7643C15.2676 15.8918 15.1728 16.0487 15.067 16.208C14.9618 16.3662 14.8349 16.5432 14.6995 16.7037C14.5822 16.8427 14.3902 17.0535 14.1485 17.196C13.931 17.3242 13.5579 17.5134 13.2447 17.6597C13.1631 17.6978 13.08 17.7356 13 17.7705V19C13 19.5523 12.5523 20 12 20C11.4477 20 11 19.5523 11 19V17.7706C10.92 17.7356 10.8368 17.6978 10.7553 17.6597C10.4421 17.5134 10.0689 17.3242 9.85143 17.196C9.60977 17.0535 9.41771 16.8427 9.30049 16.7037C9.1651 16.5432 9.03816 16.3662 8.93298 16.208C8.82712 16.0487 8.73231 15.8918 8.6622 15.7643C8.62857 15.7032 8.59219 15.6335 8.56228 15.5664C8.54926 15.5373 8.52426 15.4795 8.5033 15.4096C8.49397 15.3786 8.47281 15.3045 8.46338 15.209C8.45864 15.1608 8.45345 15.0754 8.46794 14.9704C8.48142 14.8727 8.52208 14.6824 8.66803 14.4934C8.82485 14.2904 9.0166 14.2001 9.1276 14.1608C9.24134 14.1205 9.33814 14.1094 9.39215 14.1054C9.49903 14.0976 9.58403 14.1088 9.61739 14.1135C9.69396 14.1244 9.75799 14.1421 9.78773 14.1505C9.85783 14.1704 9.93132 14.1964 9.99359 14.2197C10.1248 14.2687 10.2876 14.3361 10.4524 14.4095C10.6053 14.4776 10.806 14.5709 11 14.6749V13.7986C10.92 13.7637 10.8368 13.7259 10.7553 13.6878C10.4421 13.5415 10.0689 13.3523 9.85143 13.2241C9.60977 13.0816 9.41771 12.8708 9.30049 12.7318C9.1651 12.5713 9.03816 12.3943 8.93298 12.2361C8.82712 12.0768 8.73231 11.9199 8.6622 11.7924C8.62857 11.7312 8.59219 11.6616 8.56228 11.5945C8.54926 11.5653 8.52426 11.5076 8.5033 11.4377C8.49397 11.4067 8.47281 11.3326 8.46338 11.237C8.45864 11.1889 8.45345 11.1034 8.46794 10.9985C8.48142 10.9008 8.52208 10.7104 8.66803 10.5215C8.82485 10.3185 9.0166 10.2282 9.1276 10.1889C9.24134 10.1486 9.33814 10.1375 9.39215 10.1335C9.49903 10.1257 9.58403 10.1368 9.61739 10.1416C9.69396 10.1525 9.75799 10.1701 9.78773 10.1786C9.85783 10.1985 9.93132 10.2245 9.99359 10.2478C10.1248 10.2967 10.2876 10.3642 10.4524 10.4376C10.6053 10.5057 10.806 10.599 11 10.703V9C11 8.44772 11.4477 8 12 8Z" fill="currentColor"/>
</svg>
