<svg width="24" height="24" viewBox="0 0 24 24" fill="none" xmlns="http://www.w3.org/2000/svg">
<path fill-rule="evenodd" clip-rule="evenodd" d="M7 3C7 2.44772 7.44772 2 8 2H16C16.5523 2 17 2.44772 17 3V5H18C18.5523 5 19 5.44772 19 6C19 6.44954 18.7034 6.8298 18.2952 6.95572C19.0719 7.93035 20 9.40184 20 11V19.002C20 21.2121 18.2083 23 16 23H8C5.79175 23 4 21.2121 4 19.002V11C4 9.40184 4.92812 7.93035 5.70483 6.95572C5.29662 6.82979 5 6.44954 5 6C5 5.44772 5.44772 5 6 5H7V3ZM9 5H15V4H9V5ZM15.6179 7H8.38213C8.33568 7.04343 8.28411 7.09245 8.22833 7.14668C7.96841 7.39938 7.62341 7.75901 7.28087 8.18719C6.56044 9.08773 6 10.108 6 11V19.002C6 20.1057 6.89454 21 8 21H16C17.1055 21 18 20.1057 18 19.002V19H11C10.4477 19 10 18.5523 10 18V11C10 10.4477 10.4477 10 11 10H17.8014C17.5765 9.39006 17.1806 8.76406 16.7191 8.18719C16.3766 7.75901 16.0316 7.39938 15.7717 7.14668C15.7159 7.09245 15.6643 7.04343 15.6179 7ZM18 12H12V17H18V12Z" fill="#101828"/>
</svg>
