<svg width="24" height="24" viewBox="0 0 24 24" fill="none" xmlns="http://www.w3.org/2000/svg">
<path fill-rule="evenodd" clip-rule="evenodd" d="M16.307 5.80832C16.255 5.17844 15.6171 4.83515 15.098 5.08319L14.0078 5.60418L13.9729 5.61774C13.6925 5.72682 13.2093 5.82094 12.8687 5.88043C12.677 5.91391 12.4884 5.94334 12.3316 5.96476C12.2315 5.97844 12.0993 5.99551 11.9848 6.00225C7.84419 6.58456 5.32162 10.9996 6.93974 14.9671L7.39034 16.072C7.45991 16.2425 7.50634 16.4308 7.53364 16.556C7.56042 16.6789 7.58653 16.8243 7.59529 16.9278C7.60196 17.0065 7.69215 18.1011 7.69297 18.1111C7.69297 18.1111 7.69297 18.1111 7.69297 18.1111C7.74497 18.7399 8.3811 19.0832 8.89947 18.8373L8.90151 18.8363C8.93756 18.8189 9.18219 18.7003 9.4279 18.5822L9.4322 18.5801C9.64532 18.4776 9.93965 18.3361 10.0221 18.3035L10.0255 18.3022C10.0971 18.2739 10.4789 18.1229 10.8041 18.0793L11.9721 17.923C16.1382 17.3653 18.6839 12.9335 17.0602 8.95221L16.6096 7.84736C16.4979 7.57352 16.4288 7.28415 16.4045 6.98945L16.307 5.80832ZM14.2357 3.27863C16.0552 2.40918 18.1364 3.65931 18.3002 5.64379L18.3977 6.82492C18.4053 6.91708 18.4269 7.00721 18.4615 7.09208L18.9121 8.19692C21.0167 13.3574 17.7355 19.1694 12.2375 19.9053L11.0713 20.0614C11.0713 20.0615 11.0594 20.0635 11.0339 20.0701C11.0051 20.0776 10.9706 20.0878 10.9326 20.1002C10.8562 20.1252 10.7874 20.1516 10.7571 20.1636C10.7688 20.1589 10.7642 20.1611 10.7358 20.1744C10.7148 20.1842 10.6809 20.2 10.631 20.2237C10.5368 20.2684 10.4163 20.3261 10.2946 20.3846C10.0517 20.5014 9.80922 20.6189 9.77366 20.6361L9.75652 20.6444C7.93875 21.5065 5.86347 20.2573 5.69976 18.2758C5.69849 18.2603 5.61541 17.252 5.60349 17.1092C5.60269 17.1037 5.60139 17.0954 5.5995 17.0843C5.59487 17.057 5.58805 17.0211 5.57953 16.982C5.57095 16.9426 5.56175 16.9052 5.55282 16.8735C5.54471 16.8447 5.53949 16.8302 5.53852 16.8275C5.53834 16.827 5.5384 16.8272 5.53852 16.8275L5.08783 15.7224C2.9832 10.562 6.26445 4.74996 11.7625 4.01402L11.8285 4.00518H11.8952C11.8798 4.00518 11.8805 4.00511 11.9021 4.00277C11.9263 4.00014 11.9769 3.99464 12.0608 3.98318C12.1902 3.9655 12.3543 3.94001 12.5246 3.91025C12.6955 3.8804 12.865 3.84762 13.007 3.81588C13.0779 3.80001 13.1371 3.78549 13.1834 3.77288C13.2032 3.76747 13.2181 3.76312 13.2285 3.75994L14.2357 3.27863ZM13.2356 7.9274C13.4387 8.44098 13.187 9.02197 12.6734 9.22507C11.46 9.70491 10.8021 10.3082 10.4353 10.99C10.056 11.6951 9.91467 12.619 9.99953 13.8719C10.0369 14.4229 9.62042 14.8998 9.06939 14.9372C8.51837 14.9745 8.04142 14.558 8.0041 14.007C7.90678 12.5702 8.04299 11.2154 8.67395 10.0425C9.31741 8.84641 10.4025 7.9724 11.9379 7.36521C12.4515 7.16211 13.0325 7.41381 13.2356 7.9274Z" fill="#101828"/>
</svg>
