<svg width="24" height="24" viewBox="0 0 24 24" fill="none" xmlns="http://www.w3.org/2000/svg">
<path fill-rule="evenodd" clip-rule="evenodd" d="M12.0275 7H4.00003C3.59557 7 3.23093 7.24364 3.07615 7.61732C2.92137 7.99099 3.00692 8.42111 3.29292 8.70711L9.00003 14.4142V19H6.99999C6.44771 19 5.99999 19.4477 5.99999 20C5.99999 20.5523 6.44771 21 6.99999 21H13C13.5523 21 14 20.5523 14 20C14 19.4477 13.5523 19 13 19H11V14.4142L14.1044 11.3098C14.798 11.7467 15.6199 12 16.5 12C18.9853 12 21 9.98528 21 7.5C21 5.01472 18.9853 3 16.5 3C14.1837 3 12.2762 4.75002 12.0275 7ZM14.05 7H16C16.4045 7 16.7691 7.24364 16.9239 7.61732C17.0787 7.99099 16.9931 8.42111 16.7071 8.70711L15.5862 9.82802C15.8692 9.93914 16.1772 10 16.5 10C17.8807 10 19 8.88071 19 7.5C19 6.11929 17.8807 5 16.5 5C15.2905 5 14.2816 5.85888 14.05 7ZM10 12.5858L13.5858 9H6.41424L10 12.5858Z" fill="currentColor"/>
</svg>
