<svg width="24" height="24" viewBox="0 0 24 24" fill="none" xmlns="http://www.w3.org/2000/svg">
<path fill-rule="evenodd" clip-rule="evenodd" d="M4.08938 3.58678C4.25152 3.22947 4.60764 3 5.00002 3H19C19.3924 3 19.7485 3.22947 19.9106 3.58678C20.0728 3.9441 20.011 4.36321 19.7526 4.6585L13 12.3757V19H15C15.5523 19 16 19.4477 16 20C16 20.5523 15.5523 21 15 21H9.00002C8.44773 21 8.00002 20.5523 8.00002 20C8.00002 19.4477 8.44773 19 9.00002 19H11V12.3757L4.24744 4.6585C3.98906 4.36321 3.92725 3.9441 4.08938 3.58678ZM12 10.4814L16.7962 5H7.20378L12 10.4814Z" fill="#101828"/>
</svg>
