<svg width="24" height="24" viewBox="0 0 24 24" fill="none" xmlns="http://www.w3.org/2000/svg">
<path fill-rule="evenodd" clip-rule="evenodd" d="M10 2C10.5523 2 11 2.44772 11 3C11 3.84222 10.7237 4.49014 10.2608 4.98394C9.86435 5.40681 9.36109 5.67457 9.01595 5.8582C9.00051 5.86642 8.98538 5.87447 8.97059 5.88235C8.56583 6.09822 8.34661 6.22573 8.19829 6.38394C8.09873 6.49014 8 6.64222 8 7C8 7.55228 7.55229 8 7 8C6.44772 8 6 7.55228 6 7C6 6.15778 6.27628 5.50986 6.73922 5.01606C7.13566 4.59319 7.63892 4.32543 7.98405 4.1418C7.9995 4.13358 8.01463 4.12553 8.02942 4.11765C8.43418 3.90178 8.6534 3.77427 8.80172 3.61606C8.90128 3.50986 9 3.35778 9 3C9 2.44772 9.44772 2 10 2ZM15 2C15.5523 2 16 2.44772 16 3C16 3.84222 15.7237 4.49014 15.2608 4.98394C14.8644 5.40681 14.3611 5.67457 14.016 5.8582C14.0005 5.86642 13.9854 5.87447 13.9706 5.88235C13.5658 6.09822 13.3466 6.22573 13.1983 6.38394C13.0987 6.49014 13 6.64222 13 7C13 7.55228 12.5523 8 12 8C11.4477 8 11 7.55228 11 7C11 6.15778 11.2763 5.50986 11.7392 5.01606C12.1357 4.59319 12.6389 4.32543 12.9841 4.1418C12.9995 4.13358 13.0146 4.12553 13.0294 4.11765C13.4342 3.90178 13.6534 3.77427 13.8017 3.61606C13.9013 3.50986 14 3.35778 14 3C14 2.44772 14.4477 2 15 2ZM4.25855 10.329C4.44813 10.1195 4.71748 10 5 10H15C15.2825 10 15.5519 10.1195 15.7415 10.329C15.931 10.5385 16.0232 10.8184 15.995 11.0995L15.905 12H17C18.6569 12 20 13.3431 20 15C20 16.6569 18.6569 18 17 18H15.2793C14.8111 20.3043 12.7776 22 10.3801 22H9.61995C7.0512 22 4.90037 20.0535 4.64477 17.4975L4.00497 11.0995C3.97685 10.8184 4.06897 10.5385 4.25855 10.329ZM15.505 16H17C17.5523 16 18 15.5523 18 15C18 14.4477 17.5523 14 17 14H15.705L15.505 16ZM13.895 12H6.10499L6.63484 17.2985C6.7882 18.8321 8.0787 20 9.61995 20H10.3801C11.9213 20 13.2118 18.8321 13.3652 17.2985L13.895 12Z" fill="#101828"/>
</svg>
