<svg width="24" height="24" viewBox="0 0 24 24" fill="none" xmlns="http://www.w3.org/2000/svg">
<path fill-rule="evenodd" clip-rule="evenodd" d="M4.25855 5.32899C4.44813 5.11951 4.71748 5 5 5H15C15.2825 5 15.5519 5.11951 15.7415 5.32899C15.931 5.53848 16.0232 5.81838 15.995 6.0995L15.905 7H17C18.6569 7 20 8.34315 20 10C20 11.6569 18.6569 13 17 13H15.2793C14.8111 15.3043 12.7776 17 10.3801 17H9.61995C7.0512 17 4.90037 15.0535 4.64477 12.4975L4.00497 6.0995C3.97685 5.81838 4.06897 5.53848 4.25855 5.32899ZM15.505 11H17C17.5523 11 18 10.5523 18 10C18 9.44772 17.5523 9 17 9H15.705L15.505 11ZM13.895 7H6.10499L6.63484 12.2985C6.7882 13.8321 8.0787 15 9.61995 15H10.3801C11.9213 15 13.2118 13.8321 13.3652 12.2985L13.895 7ZM4 19C4 18.4477 4.44772 18 5 18H16C16.5523 18 17 18.4477 17 19C17 19.5523 16.5523 20 16 20H5C4.44772 20 4 19.5523 4 19Z" fill="#101828"/>
</svg>
