<svg width="24" height="24" viewBox="0 0 24 24" fill="none" xmlns="http://www.w3.org/2000/svg">
<path fill-rule="evenodd" clip-rule="evenodd" d="M15.1076 3.11218C15.8404 2.19329 17.2266 1.68566 18.4231 2.47566C19.4527 3.15542 20.0867 4.63464 19.2668 5.90669L18.1323 7.83093C18.6223 8.36884 18.95 9.04777 19.1495 9.87146L19.1521 9.88216L19.1544 9.8929C19.4786 11.3735 18.8385 12.9201 17.7771 14.3807C16.695 15.8699 15.0402 17.4583 12.9598 19.0998L12.9519 19.1061L12.9439 19.1121C11.6314 20.1057 9.2405 21.2512 7.6905 21.9303L7.67795 21.9358L7.67791 21.9357C6.53228 22.4191 5.14878 22.0133 4.38576 20.9761C3.57341 19.8719 3.76459 18.3966 4.7208 17.4838C5.14372 17.0115 5.53155 16.6707 5.87954 16.3649L5.88371 16.3612C7.41978 14.9643 8.65934 13.4777 10.1036 10.5568C10.8927 8.96078 11.7606 7.83773 12.7109 7.16595C13.6945 6.47055 14.7408 6.2811 15.741 6.52952C15.982 6.58937 16.2197 6.65946 16.4513 6.74416L17.5553 4.87167C17.5639 4.85709 17.5729 4.84272 17.5822 4.82858C17.6365 4.74638 17.6536 4.65136 17.6191 4.53067C17.5813 4.3987 17.4815 4.25054 17.3211 4.14468C17.2389 4.09041 17.1439 4.07331 17.0232 4.10784C16.8912 4.14559 16.7431 4.24547 16.6372 4.40579C16.5517 4.53535 16.4372 4.6432 16.3027 4.72083L16.2215 4.76775C15.7432 5.04389 15.1316 4.88002 14.8554 4.40172C14.6025 3.96364 14.7187 3.41373 15.1076 3.11218ZM12.7369 10.0001L14 10.0001C14.2652 10.0001 14.5196 10.1054 14.7071 10.2929C14.8946 10.4805 15 10.7348 15 11.0001V12.0001H16.8905C17.2202 11.3007 17.2916 10.7496 17.2028 10.3305C17.0422 9.67439 16.8059 9.30659 16.5426 9.06662C16.2669 8.81538 15.8731 8.62309 15.259 8.47055C14.8614 8.3718 14.4074 8.41589 13.8654 8.79906C13.5219 9.04189 13.1401 9.42502 12.7369 10.0001ZM15.5282 14.0001H14C13.4477 14.0001 13 13.5523 13 13.0001V12.0001L11.615 12.0001C10.173 14.7894 8.84778 16.37 7.2227 17.8469L7.21653 17.8525L7.21027 17.858C6.85071 18.174 6.53386 18.4535 6.18575 18.8461L6.15152 18.8847L6.1135 18.9195C5.82978 19.1798 5.81347 19.5418 5.99679 19.791C6.23934 20.1207 6.64685 20.1969 6.89579 20.095C8.45488 19.4115 10.6281 18.354 11.729 17.5233C13.3329 16.2572 14.6074 15.0747 15.5282 14.0001Z" fill="currentColor"/>
</svg>
