<svg width="24" height="24" viewBox="0 0 24 24" fill="none" xmlns="http://www.w3.org/2000/svg">
<g clip-path="url(#clip0_1146_29094)">
<path fill-rule="evenodd" clip-rule="evenodd" d="M15.8159 8.44848C13.8674 6.50006 11.3788 5.42204 8.82461 5.21215C8.67496 5.19985 8.48194 5.30064 8.41712 5.5513C8.37416 5.71742 8.40868 5.89792 8.53754 6.06888C8.671 6.24594 8.88543 6.37965 9.12774 6.41393C11.2614 6.71579 13.205 7.5737 14.9478 9.31653C16.695 11.0637 17.4862 12.9467 17.7528 15.046C17.8239 15.6063 18.3031 15.8817 18.6453 15.8089C18.9373 15.7468 19.0602 15.5239 19.0443 15.3478C18.8163 12.8259 17.7409 10.3736 15.8159 8.44848ZM8.9884 3.21886C11.9959 3.46601 14.9334 4.7376 17.2301 7.03427C19.4991 9.30333 20.7677 12.198 21.0361 15.1677C21.1542 16.4741 20.2191 17.519 19.0613 17.7652L18.8533 16.7871L19.0613 17.7652C18.2751 17.9324 17.5482 17.7353 16.9766 17.3247L4.6757 20.8741C4.32661 20.9748 3.95036 20.8783 3.69289 20.6219C3.43542 20.3656 3.33725 19.9897 3.43646 19.6402L6.94524 7.27899C6.48296 6.67861 6.26295 5.89306 6.48081 5.05058C6.76071 3.96819 7.75934 3.11787 8.9884 3.21886ZM8.71401 8.37194L5.85249 18.4529L15.8185 15.5772C15.7973 15.4851 15.7806 15.3919 15.7687 15.298C15.5528 13.5973 14.939 12.1362 13.5336 10.7307C12.1206 9.3177 10.5854 8.64007 8.84759 8.39422C8.80288 8.38789 8.75834 8.38046 8.71401 8.37194ZM10.3717 9.76319C10.9235 9.73939 11.3901 10.1674 11.4139 10.7192L11.4143 10.73C11.4381 11.2818 11.0101 11.7484 10.4584 11.7722C9.90659 11.796 9.44 11.368 9.41619 10.8162L9.41573 10.8054C9.39192 10.2536 9.81993 9.787 10.3717 9.76319ZM13.459 12.8505C14.0108 12.8267 14.4774 13.2547 14.5012 13.8065L14.5016 13.8173C14.5254 14.3691 14.0974 14.8357 13.5456 14.8595C12.9938 14.8832 12.5273 14.4552 12.5035 13.9034L12.503 13.8926C12.4792 13.3408 12.9072 12.8743 13.459 12.8505ZM8.87238 14.3498C9.42416 14.3261 9.89073 14.7541 9.9145 15.3059L9.91496 15.3167C9.93873 15.8685 9.5107 16.3351 8.95893 16.3588C8.40715 16.3826 7.94059 15.9546 7.91682 15.4028L7.91635 15.392C7.89258 14.8402 8.32061 14.3736 8.87238 14.3498Z" fill="#101828"/>
</g>
<defs>
<clipPath id="clip0_1146_29094">
<rect width="24" height="24" fill="white"/>
</clipPath>
</defs>
</svg>
