<svg width="24" height="24" viewBox="0 0 24 24" fill="none" xmlns="http://www.w3.org/2000/svg">
<path fill-rule="evenodd" clip-rule="evenodd" d="M4.00001 5C4.00001 4.44772 4.44772 4 5.00001 4H6.00001C6.55229 4 7.00001 4.44772 7.00001 5C7.00001 5.55228 6.55229 6 6.00001 6H5.00001C4.44772 6 4.00001 5.55228 4.00001 5ZM9.72457 4.55768C10.0239 4.77692 10.4473 5.11652 10.6689 5.39531C10.8442 5.61597 11.1792 6.13558 11.4419 6.58064C11.5239 6.71973 11.606 6.86332 11.6797 7H12.8164C12.6132 6.71007 12.4221 6.34267 12.2897 6.05213C12.209 5.87483 12.1326 5.68798 12.0803 5.52332C12.056 5.44657 12.0244 5.33673 12.008 5.21833C12.0003 5.16231 11.989 5.05795 12.002 4.93295C12.0114 4.84233 12.0527 4.52569 12.3355 4.26994C12.6784 3.95991 13.0736 4.00469 13.1511 4.01395C13.2819 4.02955 13.3855 4.06647 13.4364 4.08597C13.5478 4.12862 13.6501 4.18459 13.7221 4.2264C13.8773 4.31653 14.0539 4.43684 14.2189 4.5577C14.5182 4.77694 14.9417 5.11654 15.1632 5.39533C15.3386 5.61598 15.6735 6.13559 15.9362 6.58065C16.0183 6.71973 16.1003 6.86332 16.174 7H16.8164C16.6132 6.71007 16.4221 6.34267 16.2897 6.05213C16.209 5.87483 16.1326 5.68798 16.0803 5.52332C16.056 5.44657 16.0244 5.33673 16.008 5.21833C16.0003 5.16231 15.989 5.05795 16.002 4.93295C16.0114 4.84233 16.0527 4.52569 16.3355 4.26994C16.6784 3.9599 17.0736 4.00469 17.1511 4.01395C17.2819 4.02955 17.3855 4.06647 17.4364 4.08597C17.5478 4.12862 17.6501 4.18459 17.7221 4.2264C17.8773 4.31653 18.0539 4.43684 18.2189 4.5577C18.5182 4.77694 18.9417 5.11654 19.1632 5.39533C19.3386 5.61598 19.6735 6.13559 19.9362 6.58065C20.0183 6.71973 20.1003 6.86332 20.174 7H21.0001C21.5523 7 22.0001 7.44771 22.0001 8C22.0001 8.55228 21.5523 9 21.0001 9H20.174C20.1003 9.13667 20.0183 9.28026 19.9362 9.41935C19.6735 9.86441 19.3386 10.384 19.1632 10.6047C18.9417 10.8835 18.5182 11.2231 18.2189 11.4423C18.0539 11.5632 17.8773 11.6835 17.7221 11.7736C17.6501 11.8154 17.5478 11.8714 17.4364 11.914C17.3855 11.9335 17.2819 11.9704 17.1511 11.9861C17.0736 11.9953 16.6784 12.0401 16.3355 11.7301C16.0527 11.4743 16.0114 11.1577 16.002 11.0671C15.989 10.942 16.0003 10.8377 16.008 10.7817C16.0244 10.6633 16.056 10.5534 16.0803 10.4767C16.1326 10.312 16.209 10.1252 16.2897 9.94787C16.4221 9.65733 16.6132 9.28993 16.8164 9H16.174C16.1003 9.13667 16.0183 9.28026 15.9362 9.41935C15.6735 9.86441 15.3386 10.384 15.1632 10.6047C14.9417 10.8835 14.5182 11.2231 14.2189 11.4423C14.0539 11.5632 13.8773 11.6835 13.7221 11.7736C13.6501 11.8154 13.5478 11.8714 13.4364 11.914C13.3855 11.9335 13.2819 11.9704 13.1511 11.9861C13.0736 11.9953 12.6784 12.0401 12.3355 11.7301C12.0527 11.4743 12.0114 11.1577 12.002 11.0671C11.989 10.942 12.0003 10.8377 12.008 10.7817C12.0244 10.6633 12.056 10.5534 12.0803 10.4767C12.1326 10.312 12.209 10.1252 12.2897 9.94787C12.4221 9.65733 12.6132 9.28993 12.8164 9H11.6797C11.606 9.13667 11.5239 9.28026 11.4419 9.41934C11.1792 9.86441 10.8442 10.384 10.6689 10.6047C10.4473 10.8835 10.0239 11.2231 9.72457 11.4423C9.55958 11.5632 9.38302 11.6835 9.2278 11.7736C9.1558 11.8154 9.05345 11.8714 8.94211 11.914C8.8912 11.9335 8.78754 11.9705 8.65681 11.9861C8.57923 11.9953 8.18402 12.0401 7.84116 11.7301C7.55833 11.4743 7.51708 11.1577 7.50764 11.0671C7.49463 10.9421 7.50594 10.8377 7.5137 10.7817C7.5301 10.6633 7.56162 10.5534 7.586 10.4767C7.63829 10.312 7.71463 10.1252 7.79539 9.94789C7.9502 9.60805 8.18544 9.16304 8.42635 8.85988C8.59051 8.65329 8.95903 8.30486 9.30556 7.99999C8.95903 7.69514 8.59052 7.34671 8.42635 7.14012C8.18544 6.83696 7.9502 6.39195 7.79539 6.05211C7.71463 5.87482 7.63829 5.68797 7.586 5.52331C7.56162 5.44656 7.5301 5.33671 7.5137 5.21832C7.50594 5.16229 7.49463 5.05794 7.50764 4.93293C7.51708 4.84231 7.55833 4.52568 7.84116 4.26993C8.18402 3.95989 8.57924 4.00467 8.65681 4.01394C8.78754 4.02954 8.8912 4.06646 8.94211 4.08595C9.05345 4.1286 9.1558 4.18458 9.2278 4.22639C9.38302 4.31652 9.55958 4.43682 9.72457 4.55768ZM2.00001 8C2.00001 7.44772 2.44772 7 3.00001 7H7.00001C7.55229 7 8.00001 7.44772 8.00001 8C8.00001 8.55228 7.55229 9 7.00001 9H3.00001C2.44772 9 2.00001 8.55228 2.00001 8ZM4.00001 11C4.00001 10.4477 4.44772 10 5.00001 10H6.00001C6.55229 10 7.00001 10.4477 7.00001 11C7.00001 11.5523 6.55229 12 6.00001 12H5.00001C4.44772 12 4.00001 11.5523 4.00001 11ZM2.21878 13.3758C2.40854 13.1383 2.69602 13 3.00001 13H21C21.304 13 21.5915 13.1383 21.7812 13.3758C21.971 13.6132 22.0424 13.9241 21.9754 14.2206C21.6969 15.4517 20.8442 16.476 19.7453 17.2557C18.8237 17.9095 17.6792 18.4294 16.4013 18.7903V19C16.4013 19.5523 15.9536 20 15.4013 20H8.59869C8.04641 20 7.59869 19.5523 7.59869 19V18.7903C6.32079 18.4294 5.17635 17.9095 4.25474 17.2557C3.15585 16.476 2.30313 15.4517 2.02465 14.2206C1.95758 13.9241 2.02902 13.6132 2.21878 13.3758ZM9.59863 18H14.4014C14.4067 17.5365 14.7302 17.1367 15.1835 17.0356C16.5789 16.7242 17.745 16.2226 18.588 15.6245C18.8759 15.4202 19.1182 15.2108 19.318 15H4.68204C4.8818 15.2108 5.1241 15.4202 5.41204 15.6245C6.25502 16.2226 7.42108 16.7242 8.81648 17.0356C9.26985 17.1367 9.59333 17.5365 9.59863 18Z" fill="#101828"/>
</svg>
