<svg width="24" height="24" viewBox="0 0 24 24" fill="none" xmlns="http://www.w3.org/2000/svg">
<path fill-rule="evenodd" clip-rule="evenodd" d="M5.07473 5.36525C5.02074 5.6272 4.97272 5.94656 4.94924 6.29866C4.88369 7.28177 5.01783 8.37479 5.57841 9.21668C6.13295 10.0495 7.15991 10.6268 8.1835 10.9983C8.53456 11.1257 8.866 11.2221 9.14727 11.2932C9.20125 11.065 9.25272 10.8 9.28818 10.5126C9.40454 9.56937 9.33166 8.53144 8.79038 7.71854C8.21543 6.85509 7.1662 6.1884 6.137 5.74671C5.74328 5.57774 5.37534 5.45153 5.07473 5.36525ZM10.9368 12.3334C10.9481 12.2964 10.9597 12.2575 10.9715 12.2168C11.0769 11.8549 11.2005 11.3464 11.2731 10.7574C11.4152 9.60608 11.3799 7.99898 10.4551 6.61007C9.56394 5.27171 8.09519 4.41069 6.92575 3.90881C6.32654 3.65165 5.76558 3.47155 5.32907 3.36305C5.11299 3.30934 4.9109 3.26905 4.74001 3.24779C4.65742 3.23752 4.55738 3.22849 4.45508 3.23019C4.40468 3.23103 4.32989 3.23472 4.24449 3.25043C4.18051 3.2622 4.00041 3.29882 3.817 3.42975C3.68095 3.52688 3.59919 3.63576 3.56706 3.68032C3.52596 3.73734 3.49508 3.79085 3.47376 3.83053C3.43082 3.91048 3.39528 3.99344 3.36663 4.06711C3.30795 4.218 3.25052 4.40188 3.19818 4.60515C3.09283 5.0143 2.99433 5.55577 2.95367 6.16561C2.8739 7.362 3.00817 8.96523 3.91369 10.3252C4.82525 11.6941 6.34476 12.4586 7.50112 12.8783C8.09725 13.0947 8.64057 13.235 9.03528 13.3215C9.09357 13.3343 9.1488 13.3459 9.20066 13.3565C9.32457 13.5572 9.45928 13.7559 9.59737 13.9597C10.2431 14.9124 10.9628 15.9742 10.9986 17.8529C10.9571 18.3799 10.9727 18.8953 10.9869 19.3666C10.9936 19.5887 11 19.801 11 20C11 20.5523 11.4477 21 12 21C12.5523 21 13 20.5523 13 20V18C13 17.9656 12.9998 17.9313 12.9994 17.8972C13.0152 17.7492 13.0388 17.6006 13.0733 17.4462C13.2117 16.8267 13.5495 16.0936 14.4805 15.0949C14.5136 15.0951 14.5482 15.0951 14.5842 15.095C14.9325 15.0932 15.4158 15.073 15.9578 14.9981C17.0039 14.8535 18.4418 14.4824 19.4775 13.4731C20.4604 12.5152 20.8294 11.2458 20.9475 10.263C21.0077 9.76188 21.0073 9.30057 20.9766 8.93381C20.9613 8.75117 20.9375 8.57946 20.9054 8.42983C20.8847 8.33326 20.8307 8.08614 20.6854 7.87397C20.5187 7.63056 20.2952 7.52129 20.2085 7.48202C20.095 7.43067 19.9843 7.39966 19.8971 7.37971C19.7196 7.3391 19.5218 7.31819 19.3264 7.30936C18.9291 7.2914 18.4312 7.31873 17.8968 7.40805C16.848 7.58336 15.5003 8.02492 14.4924 9.00721C13.4396 10.0332 13.1183 11.4049 13.0301 12.4027C12.9849 12.915 12.9974 13.3678 13.021 13.6933C13.0218 13.704 13.0226 13.7145 13.0234 13.725C12.7403 14.0283 12.4934 14.3218 12.2787 14.6081C11.8766 13.691 11.3923 12.9919 11.0646 12.519C11.0187 12.4527 10.9759 12.3908 10.9368 12.3334ZM14.9998 13.0822C15.2063 13.0709 15.4384 13.0509 15.6839 13.0169C16.5902 12.8917 17.5072 12.6005 18.0816 12.0408C18.6112 11.5246 18.8726 10.7664 18.9618 10.0244C18.9937 9.75817 19.0012 9.51148 18.995 9.30521C18.7795 9.31012 18.5162 9.33226 18.2265 9.38068C17.3878 9.52088 16.4904 9.85274 15.8883 10.4395C15.331 10.9826 15.0921 11.7898 15.0224 12.5787C15.0066 12.7569 15.0003 12.9267 14.9998 13.0822ZM18.9398 8.81023C18.94 8.80974 18.9421 8.81583 18.9455 8.82993C18.9414 8.81775 18.9397 8.81072 18.9398 8.81023Z" fill="#101828"/>
</svg>
