<svg width="24" height="24" viewBox="0 0 24 24" fill="none" xmlns="http://www.w3.org/2000/svg">
<path fill-rule="evenodd" clip-rule="evenodd" d="M6 5C5.44772 5 5 5.44772 5 6C5 6.55196 5.44718 6.99947 5.99901 7H9.69947C10.5919 6.42592 11.4689 6.03373 12.4752 5.97494C13.4987 5.91515 14.5268 6.20792 15.699 6.75156C19.3672 6.6289 22.188 9.74499 21.2224 13.4649C21.1574 13.7153 21.0874 13.975 21.0123 14.2461C21.0086 14.2608 21.0046 14.2753 21.0002 14.2897C20.967 14.4094 20.9327 14.5312 20.8975 14.6554C20.909 15.4311 20.8854 16.1001 20.8272 16.7069C20.5611 19.4847 17.9205 21 15.5 21H8V19C8 17.3431 9.34315 16 11 16H13.5241C14.0251 16 14.4789 15.7043 14.6813 15.2459C15.0505 14.4097 14.4382 13.4701 13.5241 13.4701H10.3386L8.60758 14.7943C8.16893 15.1298 7.5413 15.0462 7.20574 14.6076C6.92496 14.2405 6.93765 13.7412 7.20628 13.3913C5.37736 13.0231 4 11.4074 4 9.47006V8.23611C3.38625 7.68679 3 6.8885 3 6C3 4.34315 4.34315 3 6 3H10C10.5523 3 11 3.44772 11 4C11 4.55228 10.5523 5 10 5H6ZM6 9V9.47006C6 10.5746 6.89543 11.4701 8 11.4701H9V9L6 9C6.00033 9 5.99967 9 6 9ZM11 8.54603V11.4701H12.8594L14.1964 8.28552C13.5182 8.02837 13.0188 7.94659 12.5918 7.97153C12.1168 7.99929 11.6341 8.16475 11 8.54603ZM16.1684 8.75506L14.9021 11.7711C15.4816 12.0405 15.9596 12.4737 16.2899 13H19.2767C19.28 12.9874 19.2833 12.9749 19.2865 12.9623C19.8513 10.7867 18.4006 8.88777 16.1684 8.75506ZM18.9003 15H16.7816C16.7524 15.3507 16.6646 15.7057 16.5109 16.0537C16.2894 16.5554 15.9513 16.9815 15.5366 17.306L16.1672 18.948C17.625 18.717 18.7191 17.7399 18.8364 16.5162C18.8786 16.075 18.9011 15.5799 18.9003 15ZM14.0447 19L13.6596 17.9972C13.6146 17.9991 13.5694 18 13.5241 18H11C10.4477 18 10 18.4477 10 19L14.0447 19Z" fill="currentColor"/>
</svg>
