<svg width="24" height="24" viewBox="0 0 24 24" fill="none" xmlns="http://www.w3.org/2000/svg">
<path fill-rule="evenodd" clip-rule="evenodd" d="M4.06189 11H7V9H4.58152C4.32622 9.6307 4.14901 10.3014 4.06189 11ZM3.03942 7.55564C2.3741 8.89447 2 10.4035 2 12C2 13.5965 2.3741 15.1055 3.03942 16.4444C4.67574 19.7371 8.07361 22 12 22C17.5228 22 22 17.5228 22 12C22 8.07361 19.7371 4.67574 16.4444 3.03942C15.1055 2.3741 13.5965 2 12 2C10.4035 2 8.89447 2.3741 7.55564 3.03942C5.60171 4.01042 4.01042 5.60171 3.03942 7.55564ZM5.75463 7H7V5.75463C6.54067 6.12284 6.12284 6.54067 5.75463 7ZM9 4.58152V7H11V4.06189C10.3014 4.14901 9.6307 4.32622 9 4.58152ZM13 4.06189V7H15V4.58152C14.3693 4.32622 13.6986 4.14901 13 4.06189ZM17 5.75463V7H18.2454C17.8772 6.54067 17.4593 6.12284 17 5.75463ZM19.4185 9H17V11H19.9381C19.851 10.3014 19.6738 9.6307 19.4185 9ZM19.9381 13H17V15H19.4185C19.6738 14.3693 19.851 13.6986 19.9381 13ZM18.2454 17H17V18.2454C17.4593 17.8772 17.8772 17.4593 18.2454 17ZM15 19.4185V17H13V19.9381C13.6986 19.851 14.3693 19.6738 15 19.4185ZM11 19.9381V17H9V19.4185C9.6307 19.6738 10.3014 19.851 11 19.9381ZM7 18.2454V17H5.75463C6.12284 17.4593 6.54067 17.8772 7 18.2454ZM4.58152 15H7V13H4.06189C4.14901 13.6986 4.32622 14.3693 4.58152 15ZM9 13V15H11V13H9ZM13 13V15H15V13H13ZM15 11H13V9H15V11ZM11 9V11H9V9H11Z" fill="currentColor"/>
</svg>
