<svg width="24" height="24" viewBox="0 0 24 24" fill="none" xmlns="http://www.w3.org/2000/svg">
<path fill-rule="evenodd" clip-rule="evenodd" d="M9 3C9 2.44772 9.44772 2 10 2H15C15.5523 2 16 2.44772 16 3V6C16 6.55228 15.5523 7 15 7V7.33599C15.3048 7.48173 15.6888 7.68954 16.078 7.96522C16.9233 8.56395 18 9.63748 18 11.25C18 11.5658 17.9825 11.8498 17.9507 12.1067C17.9492 12.1209 17.9473 12.135 17.9453 12.1491C17.843 12.9264 17.6082 13.453 17.3321 13.8672C17.2492 13.9915 17.1686 14.0968 17.109 14.1742C17.0753 14.218 17.0509 14.2498 17.0319 14.2751C17.0697 14.3349 17.1156 14.3945 17.1924 14.494C17.2218 14.5322 17.2557 14.5762 17.2954 14.6283C17.5768 14.9976 18 15.5957 18 16.5H17.8662C17.8662 16.5 17.8662 16.5 17.8662 16.5H18V19C18 20.611 16.4227 22 14.5 22C13.6293 22 12.9712 21.7529 12.5 21.4451C12.0288 21.7529 11.3707 22 10.5 22C8.57732 22 7 20.611 7 19V16.5C7 15.5957 7.42321 14.9976 7.70457 14.6283C7.7443 14.5762 7.77822 14.5322 7.80763 14.494C7.88438 14.3945 7.93031 14.3349 7.96809 14.2751C7.94911 14.2498 7.92469 14.218 7.89097 14.1742C7.83142 14.0968 7.75082 13.9915 7.66795 13.8672C7.39182 13.453 7.157 12.9264 7.05475 12.1491C7.05265 12.135 7.05085 12.1209 7.04934 12.1067C7.01751 11.8498 7 11.5658 7 11.25C7 9.63748 8.07673 8.56395 8.92198 7.96522C9.31119 7.68954 9.69518 7.48173 10 7.33599V7C9.44772 7 9 6.55228 9 6V3ZM12 7V8C12 8.42949 11.7258 8.81091 11.3189 8.94779C11.3184 8.94796 11.3179 8.94813 11.3174 8.94831L11.3036 8.95317C11.2891 8.95839 11.2647 8.96732 11.2319 8.97999C11.1662 9.00541 11.0679 9.04548 10.9479 9.10047C10.7052 9.21173 10.3883 9.37752 10.078 9.59727C9.51043 9.99932 9.11679 10.4673 9.02205 11H15.978C15.8832 10.4673 15.4896 9.99932 14.922 9.59727C14.6117 9.37752 14.2948 9.21173 14.0521 9.10047C13.9321 9.04548 13.8338 9.00541 13.7681 8.97999C13.7353 8.96732 13.7109 8.95839 13.6964 8.95317L13.6821 8.94813L13.6832 8.94849C13.2752 8.8122 13 8.43022 13 8V7H12ZM15.4889 13H9.51108C9.55922 13.0626 9.62035 13.1434 9.6758 13.2265C9.83667 13.4679 10 13.8004 10 14.25C10 14.6756 9.85376 15.0169 9.70404 15.2696C9.5938 15.4556 9.44844 15.6429 9.34955 15.7703C9.32934 15.7964 9.31107 15.8199 9.29543 15.8404C9.2511 15.8986 9.21261 15.9512 9.1794 16H15.8206C15.7874 15.9512 15.7489 15.8986 15.7046 15.8404C15.6889 15.8199 15.6707 15.7964 15.6504 15.7703C15.5516 15.6429 15.4062 15.4556 15.296 15.2696C15.1462 15.0169 15 14.6756 15 14.25C15 13.8004 15.1633 13.4679 15.3242 13.2265C15.3796 13.1434 15.4408 13.0626 15.4889 13ZM9 18V19C9 19.264 9.42268 20 10.5 20C11.0242 20 11.3154 19.8416 11.4625 19.7313C11.542 19.6716 11.5921 19.6161 11.6176 19.5843C11.6257 19.5741 11.6311 19.5667 11.6339 19.5626C11.812 19.2539 12.1419 19.0625 12.5 19.0625C12.8581 19.0625 13.188 19.2539 13.3661 19.5626C13.3689 19.5667 13.3743 19.5741 13.3824 19.5843C13.4079 19.6161 13.458 19.6716 13.5375 19.7313C13.6846 19.8416 13.9758 20 14.5 20C15.5773 20 16 19.264 16 19V18H9ZM11 5V4H14V5H11Z" fill="#101828"/>
</svg>
