<svg width="24" height="24" viewBox="0 0 24 24" fill="none" xmlns="http://www.w3.org/2000/svg">
<path fill-rule="evenodd" clip-rule="evenodd" d="M15.7542 3.29289C16.1447 3.68342 16.1447 4.31658 15.7542 4.70711L14.4829 5.97839C14.0923 6.36892 13.4592 6.36892 13.0687 5.97839C12.6781 5.58787 12.6781 4.9547 13.0687 4.56418L14.3399 3.29289C14.7305 2.90237 15.3636 2.90237 15.7542 3.29289ZM19.5659 4.43406C19.9565 4.82458 19.9565 5.45775 19.5659 5.84827L14.9153 10.4989C15.3163 10.5483 15.8114 10.6979 16.1779 10.8324C16.3748 10.9046 16.5739 10.9868 16.7367 11.0699C16.813 11.1087 16.9168 11.1656 17.015 11.2388C17.0615 11.2735 17.1446 11.3395 17.225 11.4372C17.2833 11.508 17.4802 11.7601 17.464 12.1415C17.4444 12.6045 17.1342 12.8554 17.0721 12.9049C16.9682 12.9878 16.8677 13.0364 16.8166 13.0596C16.7049 13.1103 16.5887 13.1452 16.503 13.1685C16.3191 13.2185 16.0949 13.2625 15.8773 13.2975C15.4797 13.3613 14.9048 13.4272 14.5332 13.387C14.2354 13.3547 13.5834 13.2183 13.0396 13.0817C12.8509 13.0343 12.6588 12.9829 12.4838 12.9305L11.2006 14.2136C11.6016 14.263 12.0966 14.4126 12.4632 14.5471C12.6601 14.6193 12.8591 14.7016 13.022 14.7846C13.0983 14.8235 13.2021 14.8803 13.3003 14.9535C13.3468 14.9882 13.4299 15.0542 13.5103 15.1519C13.5686 15.2227 13.7654 15.4749 13.7493 15.8562C13.7297 16.3192 13.4195 16.5701 13.3574 16.6196C13.2535 16.7025 13.153 16.7511 13.1018 16.7743C12.9901 16.825 12.874 16.8599 12.7883 16.8832C12.6044 16.9332 12.3802 16.9772 12.1626 17.0122C11.7649 17.076 11.1901 17.1419 10.8185 17.1017C10.5207 17.0695 9.86872 16.933 9.3249 16.7964C9.13621 16.749 8.94408 16.6976 8.76905 16.6452L7.9299 17.4843C8.33086 17.5337 8.82593 17.6833 9.19249 17.8178C9.38934 17.89 9.58843 17.9723 9.75131 18.0553C9.82756 18.0942 9.93141 18.151 10.0296 18.2242C10.0761 18.259 10.1592 18.325 10.2396 18.4226C10.2979 18.4934 10.4947 18.7456 10.4786 19.1269C10.459 19.5899 10.1488 19.8408 10.0867 19.8904C9.98276 19.9732 9.88232 20.0218 9.83113 20.045C9.71943 20.0957 9.60326 20.1307 9.51758 20.1539C9.33369 20.2039 9.10944 20.2479 8.89186 20.2829C8.49423 20.3467 7.91938 20.4127 7.54774 20.3724C7.24996 20.3402 6.59801 20.2038 6.05419 20.0672C5.86549 20.0198 5.67337 19.9683 5.49833 19.9159L4.70711 20.7071C4.31658 21.0976 3.68342 21.0976 3.29289 20.7071C2.90237 20.3166 2.90237 19.6834 3.29289 19.2929L4.03127 18.5545C3.96912 18.4021 3.90688 18.2384 3.8481 18.0766C3.65521 17.5455 3.43463 16.8547 3.38299 16.5219C3.32015 16.1169 3.33643 15.5789 3.37263 15.1774C3.39145 14.9686 3.41935 14.755 3.4574 14.5761C3.47521 14.4924 3.50321 14.3774 3.54856 14.2636C3.57005 14.2097 3.61231 14.1124 3.68582 14.0095C3.73914 13.9348 3.93173 13.6794 4.30427 13.5963C4.75653 13.4954 5.07917 13.7301 5.14314 13.7773C5.25008 13.8562 5.32299 13.9406 5.35867 13.9841C5.43653 14.0788 5.50035 14.182 5.54503 14.2587C5.64092 14.4234 5.74145 14.6287 5.83152 14.8298C5.99611 15.1973 6.20857 15.7355 6.26589 16.1049C6.27409 16.1578 6.28201 16.2225 6.28954 16.2963L7.30198 15.2838C7.23983 15.1314 7.17759 14.9677 7.11881 14.8059C6.92592 14.2748 6.70535 13.584 6.6537 13.2512C6.59087 12.8462 6.60715 12.3082 6.64334 11.9067C6.66217 11.6978 6.69006 11.4843 6.72811 11.3054C6.74592 11.2217 6.77392 11.1067 6.81928 10.9929C6.84077 10.939 6.88302 10.8417 6.95653 10.7387C7.00986 10.6641 7.20245 10.4087 7.57498 10.3256C8.02724 10.2247 8.34989 10.4594 8.41385 10.5066C8.52079 10.5855 8.59371 10.6699 8.62939 10.7134C8.70725 10.8081 8.77107 10.9113 8.81574 10.988C8.91163 11.1527 9.01216 11.3579 9.10223 11.5591C9.26683 11.9266 9.47928 12.4648 9.5366 12.8342C9.54481 12.8871 9.55273 12.9518 9.56025 13.0255L11.0167 11.5691C10.9545 11.4167 10.8923 11.253 10.8335 11.0912C10.6406 10.5601 10.4201 9.86932 10.3684 9.53648C10.3056 9.13151 10.3219 8.59349 10.3581 8.19198C10.3769 7.98314 10.4048 7.76955 10.4428 7.59073C10.4606 7.50702 10.4886 7.392 10.534 7.2782C10.5555 7.22428 10.5977 7.12696 10.6712 7.02403C10.7246 6.94937 10.9172 6.69398 11.2897 6.61088C11.742 6.51 12.0646 6.74467 12.1286 6.79186C12.2355 6.87077 12.3084 6.95521 12.3441 6.99865C12.422 7.09342 12.4858 7.1966 12.5305 7.27333C12.6263 7.43801 12.7269 7.64323 12.8169 7.84435C12.9815 8.21191 13.194 8.75011 13.2513 9.1195C13.2595 9.17239 13.2674 9.23707 13.275 9.31083L18.1517 4.43406C18.5422 4.04354 19.1754 4.04354 19.5659 4.43406ZM20.7071 8.24584C21.0976 8.63636 21.0976 9.26953 20.7071 9.66005L19.4358 10.9313C19.0453 11.3219 18.4121 11.3219 18.0216 10.9313C17.6311 10.5408 17.6311 9.90765 18.0216 9.51713L19.2929 8.24584C19.6834 7.85531 20.3166 7.85531 20.7071 8.24584ZM19.99 13C20.5423 13 20.99 13.4477 20.99 14V17C20.99 17.5523 20.5423 18 19.99 18C19.4377 18 18.99 17.5523 18.99 17V14C18.99 13.4477 19.4377 13 19.99 13ZM18.99 20C18.99 19.4477 19.4377 19 19.99 19H20C20.5523 19 21 19.4477 21 20C21 20.5523 20.5523 21 20 21H19.99C19.4377 21 18.99 20.5523 18.99 20Z" fill="#101828"/>
</svg>
