<svg width="24" height="24" viewBox="0 0 24 24" fill="none" xmlns="http://www.w3.org/2000/svg">
<path fill-rule="evenodd" clip-rule="evenodd" d="M5.26412 6.32289C5.45348 6.1171 5.72035 6 6 6H18C18.2797 6 18.5465 6.1171 18.7359 6.32289C18.9252 6.52868 19.0198 6.80436 18.9965 7.08305L18.1494 17.2491C18.0198 18.804 16.72 20 15.1597 20H8.84027C7.28 20 5.9802 18.804 5.85063 17.2491L5.00346 7.08305C4.98023 6.80436 5.07477 6.52868 5.26412 6.32289ZM7.0868 8L7.50347 13H16.4965L16.9132 8H7.0868ZM16.3299 15H7.67014L7.84372 17.083C7.88691 17.6013 8.32018 18 8.84027 18H15.1597C15.6798 18 16.1131 17.6013 16.1563 17.083L16.3299 15Z" fill="currentColor"/>
</svg>
