<svg width="24" height="24" viewBox="0 0 24 24" fill="none" xmlns="http://www.w3.org/2000/svg">
<path fill-rule="evenodd" clip-rule="evenodd" d="M7.55348 2.67736C7.69155 2.2723 8.07206 2 8.5 2H15.5C15.9222 2 16.2989 2.26514 16.4413 2.66256L16.4427 2.66647C16.6335 3.19873 17.0155 4.26425 17.3503 5.37552C17.6722 6.44377 18 7.70797 18 8.57072C18 11.4549 15.908 14.3542 13 14.9062V20H15C15.5523 20 16 20.4477 16 21C16 21.5523 15.5523 22 15 22H9C8.44772 22 8 21.5523 8 21C8 20.4477 8.44772 20 9 20H11V14.9062C8.33422 14.4001 6.35415 11.9216 6.0428 9.29034C6.01497 9.19846 6 9.10098 6 9C6 8.95772 6.00262 8.91606 6.00772 8.87516C6.00259 8.77373 6 8.67221 6 8.57072C6 7.69926 6.33766 6.42192 6.66274 5.35279C6.93106 4.47035 7.22946 3.61168 7.42466 3.04996C7.47533 2.90416 7.51905 2.77837 7.55348 2.67736ZM8.2397 10C8.81311 11.6893 10.3403 13 12 13C13.6597 13 15.1869 11.6893 15.7603 10H8.2397ZM15.9437 8H8.05709C8.14708 7.4535 8.33663 6.72266 8.57624 5.93462C8.79269 5.22278 9.02655 4.53611 9.21208 4H14.794C14.9838 4.54181 15.2204 5.23923 15.4353 5.9525C15.6708 6.73401 15.8557 7.45795 15.9437 8Z" fill="currentColor"/>
</svg>
