<svg width="24" height="24" viewBox="0 0 24 24" fill="none" xmlns="http://www.w3.org/2000/svg">
<path fill-rule="evenodd" clip-rule="evenodd" d="M7.55348 2.67736C7.69155 2.2723 8.07206 2 8.5 2H15.5C15.9222 2 16.2989 2.26514 16.4413 2.66256L16.4427 2.66647C16.6335 3.19873 17.0155 4.26425 17.3503 5.37552C17.6722 6.44377 18 7.70797 18 8.57072C18 11.4549 15.908 14.3542 13 14.9062V20H15C15.5523 20 16 20.4477 16 21C16 21.5523 15.5523 22 15 22H9C8.44772 22 8 21.5523 8 21C8 20.4477 8.44772 20 9 20H11V14.9062C8.09201 14.3542 6 11.4549 6 8.57072C6 7.69926 6.33766 6.42192 6.66274 5.35279C6.93106 4.47035 7.22946 3.61168 7.42466 3.04996C7.47533 2.90416 7.51905 2.77837 7.55348 2.67736ZM9.21208 4C9.02655 4.53611 8.79269 5.22278 8.57624 5.93462C8.23833 7.04594 8 8.04348 8 8.57072C8 10.8882 9.89331 13 12 13C14.1067 13 16 10.8882 16 8.57072C16 8.04732 15.7683 7.05744 15.4353 5.9525C15.2204 5.23923 14.9838 4.54181 14.794 4H9.21208Z" fill="#101828"/>
</svg>
