<svg width="24" height="24" viewBox="0 0 24 24" fill="none" xmlns="http://www.w3.org/2000/svg">
<path fill-rule="evenodd" clip-rule="evenodd" d="M9.00004 4C9.00004 2.89543 9.89547 2 11 2H13C14.1046 2 15 2.89543 15 4V9.41924C15.8779 9.98508 16.4124 10.6999 16.6987 11.5588C16.8134 11.9028 16.8845 12.2628 16.9285 12.6279C16.9747 12.7429 17 12.8685 17 13V14.2316C17.0001 14.2917 17.0001 14.3516 17.0001 14.4111C17 14.4408 17 14.4705 17 14.5V20C17 21.1046 16.1046 22 15 22H9.00004C7.89553 22 7.00004 21.1047 7.00004 20V14.5C7.00004 14.4705 7.00003 14.4408 7.00002 14.4111C6.99971 13.4816 6.99937 12.4647 7.30136 11.5588C7.58765 10.6999 8.12218 9.98508 9.00004 9.41924V4ZM11 9V10C11 10.3788 10.786 10.725 10.4473 10.8944C9.66024 11.2879 9.35666 11.7174 9.19872 12.1912C9.01037 12.7563 9.00004 13.4533 9.00004 14.5V20H15V19H12C11.4478 19 11 18.5523 11 18V13C11 12.4477 11.4478 12 12 12H14.7278C14.5517 11.601 14.2326 11.2343 13.5528 10.8944C13.214 10.725 13 10.3788 13 10V9H11ZM13 7H11V4H13V7ZM14.9984 14H13V17H15V14.5C15 14.3238 14.9997 14.1574 14.9984 14Z" fill="currentColor"/>
</svg>
