<svg width="24" height="24" viewBox="0 0 24 24" fill="none" xmlns="http://www.w3.org/2000/svg">
<path fill-rule="evenodd" clip-rule="evenodd" d="M2 6C2 4.89543 2.89543 4 4 4H20C21.1046 4 22 4.89543 22 6V7C22 8.10457 21.1046 9 20 9V18C20 19.1046 19.1046 20 18 20H6C4.89543 20 4 19.1046 4 18V9C2.89543 9 2 8.10457 2 7V6ZM6 9V18H18V9H6ZM20 7V6H4V7H20ZM12 10C12.5523 10 13 10.4477 13 11V13.5858L13.2929 13.2929C13.6834 12.9024 14.3166 12.9024 14.7071 13.2929C15.0976 13.6834 15.0976 14.3166 14.7071 14.7071L12.7071 16.7071C12.3166 17.0976 11.6834 17.0976 11.2929 16.7071L9.29289 14.7071C8.90237 14.3166 8.90237 13.6834 9.29289 13.2929C9.68342 12.9024 10.3166 12.9024 10.7071 13.2929L11 13.5858V11C11 10.4477 11.4477 10 12 10Z" fill="currentColor"/>
</svg>
