<svg width="24" height="24" viewBox="0 0 24 24" fill="none" xmlns="http://www.w3.org/2000/svg">
<path fill-rule="evenodd" clip-rule="evenodd" d="M9 3C9 2.44772 9.44772 2 10 2H14C14.5523 2 15 2.44772 15 3H18C19.1046 3 20 3.89543 20 5V20C20 21.1046 19.1046 22 18 22H6C4.89543 22 4 21.1046 4 20V5C4 3.89543 4.89543 3 6 3H9ZM9 5H6V20H18V5H15V6C15.5523 6 16 6.44772 16 7C16 7.55228 15.5523 8 15 8H9C8.44772 8 8 7.55228 8 7C8 6.44772 8.44772 6 9 6V5ZM11 6H13V4H11V6ZM8 12C8 11.4477 8.44772 11 9 11H9.01C9.56228 11 10.01 11.4477 10.01 12C10.01 12.5523 9.56228 13 9.01 13H9C8.44772 13 8 12.5523 8 12ZM11 12C11 11.4477 11.4477 11 12 11H15C15.5523 11 16 11.4477 16 12C16 12.5523 15.5523 13 15 13H12C11.4477 13 11 12.5523 11 12ZM8 16C8 15.4477 8.44772 15 9 15H9.01C9.56228 15 10.01 15.4477 10.01 16C10.01 16.5523 9.56228 17 9.01 17H9C8.44772 17 8 16.5523 8 16ZM11 16C11 15.4477 11.4477 15 12 15H15C15.5523 15 16 15.4477 16 16C16 16.5523 15.5523 17 15 17H12C11.4477 17 11 16.5523 11 16Z" fill="currentColor"/>
</svg>
