<svg width="24" height="24" viewBox="0 0 24 24" fill="none" xmlns="http://www.w3.org/2000/svg">
<path fill-rule="evenodd" clip-rule="evenodd" d="M8.5 2.58579C8.87507 2.21071 9.38378 2 9.91421 2H18C19.1046 2 20 2.89543 20 4V10C20 10.5523 19.5523 11 19 11C18.4477 11 18 10.5523 18 10V4H11V7C11 8.10457 10.1046 9 9 9H6V20H18V18C18 17.4477 18.4477 17 19 17C19.5523 17 20 17.4477 20 18V20C20 21.1046 19.1046 22 18 22H6C4.89543 22 4 21.1046 4 20V7.91421C4 7.38378 4.21071 6.87507 4.58579 6.5L8.5 2.58579ZM6.91421 7H9V4.91421L6.91421 7ZM16.2929 11.2929C16.6834 10.9024 17.3166 10.9024 17.7071 11.2929L19.7071 13.2929C20.0976 13.6834 20.0976 14.3166 19.7071 14.7071L17.7071 16.7071C17.3166 17.0976 16.6834 17.0976 16.2929 16.7071C15.9024 16.3166 15.9024 15.6834 16.2929 15.2929L16.5858 15H10C9.44772 15 9 14.5523 9 14C9 13.4477 9.44772 13 10 13H16.5858L16.2929 12.7071C15.9024 12.3166 15.9024 11.6834 16.2929 11.2929Z" fill="currentColor"/>
</svg>
