<svg width="24" height="24" viewBox="0 0 24 24" fill="none" xmlns="http://www.w3.org/2000/svg">
<path fill-rule="evenodd" clip-rule="evenodd" d="M8.5 2.58579C8.87507 2.21071 9.38378 2 9.91421 2H18C19.1046 2 20 2.89543 20 4V20C20 21.1046 19.1046 22 18 22H6C4.89543 22 4 21.1046 4 20V7.91421C4 7.38378 4.21071 6.87507 4.58579 6.5L8.5 2.58579ZM6 9V20H18V4H11V7C11 8.10457 10.1046 9 9 9H6ZM9 4.91421V7H6.91421L9 4.91421ZM10.7071 11.2929C11.0976 11.6834 11.0976 12.3166 10.7071 12.7071L9.41421 14L10.7071 15.2929C11.0976 15.6834 11.0976 16.3166 10.7071 16.7071C10.3166 17.0976 9.68342 17.0976 9.29289 16.7071L7.29289 14.7071C6.90237 14.3166 6.90237 13.6834 7.29289 13.2929L9.29289 11.2929C9.68342 10.9024 10.3166 10.9024 10.7071 11.2929ZM13.2929 11.2929C13.6834 10.9024 14.3166 10.9024 14.7071 11.2929L16.7071 13.2929C17.0976 13.6834 17.0976 14.3166 16.7071 14.7071L14.7071 16.7071C14.3166 17.0976 13.6834 17.0976 13.2929 16.7071C12.9024 16.3166 12.9024 15.6834 13.2929 15.2929L14.5858 14L13.2929 12.7071C12.9024 12.3166 12.9024 11.6834 13.2929 11.2929Z" fill="#101828"/>
</svg>
