<svg width="24" height="24" viewBox="0 0 24 24" fill="none" xmlns="http://www.w3.org/2000/svg">
<path d="M18 2C19.1046 2 20 2.89543 20 4V20C20 21.1046 19.1046 22 18 22H6C4.89543 22 4 21.1046 4 20V7.91406C4.00004 7.38368 4.2109 6.87504 4.58594 6.5L8.5 2.58594C8.87504 2.2109 9.38368 2.00004 9.91406 2H18ZM11 7C11 8.10457 10.1046 9 9 9H6V20H18V4H11V7ZM10.4658 11.001C10.8567 10.9876 11.2196 11.2029 11.3945 11.5527L12.6709 14.1055L13.2002 13.4004C13.4081 13.1231 13.7447 12.9728 14.0898 13.0039C14.435 13.035 14.7395 13.2428 14.8945 13.5527L16.8945 17.5527C17.0495 17.8626 17.0327 18.2306 16.8506 18.5254C16.6684 18.8202 16.3466 19 16 19H8C7.66565 19 7.35343 18.8329 7.16797 18.5547C6.9825 18.2765 6.94855 17.9239 7.07715 17.6152L9.57715 11.6152C9.72766 11.2542 10.0749 11.0144 10.4658 11.001ZM14.5 8C15.3284 8 16 8.67157 16 9.5C16 10.3284 15.3284 11 14.5 11C13.6716 11 13 10.3284 13 9.5C13 8.67157 13.6716 8 14.5 8ZM6.91406 7H9V4.91406L6.91406 7Z" fill="#101828"/>
</svg>
