<svg width="24" height="24" viewBox="0 0 24 24" fill="none" xmlns="http://www.w3.org/2000/svg">
<path fill-rule="evenodd" clip-rule="evenodd" d="M8.5 2.58579C8.87507 2.21071 9.38378 2 9.91421 2H18C19.1046 2 20 2.89543 20 4V20C20 21.1046 19.1046 22 18 22H6C4.89543 22 4 21.1046 4 20V7.91421C4 7.38378 4.21071 6.87507 4.58579 6.5L8.5 2.58579ZM6 9V20H18V4H11V7C11 8.10457 10.1046 9 9 9H6ZM9 4.91421V7H6.91421L9 4.91421ZM12 11C12.5523 11 13 11.4477 13 12V18C13 18.5523 12.5523 19 12 19C11.4477 19 11 18.5523 11 18V12C11 11.4477 11.4477 11 12 11ZM15 14C15.5523 14 16 14.4477 16 15V18C16 18.5523 15.5523 19 15 19C14.4477 19 14 18.5523 14 18V15C14 14.4477 14.4477 14 15 14ZM9 15C9.55228 15 10 15.4477 10 16V18C10 18.5523 9.55228 19 9 19C8.44772 19 8 18.5523 8 18V16C8 15.4477 8.44772 15 9 15Z" fill="currentColor"/>
</svg>
