<svg width="24" height="24" viewBox="0 0 24 24" fill="none" xmlns="http://www.w3.org/2000/svg">
<path fill-rule="evenodd" clip-rule="evenodd" d="M8.5 2.58579C8.87507 2.21071 9.38378 2 9.91421 2H18C19.1046 2 20 2.89543 20 4V20C20 21.1046 19.1046 22 18 22H6C4.89543 22 4 21.1046 4 20V7.91421C4 7.38378 4.21071 6.87507 4.58579 6.5L8.5 2.58579ZM6 9V20H18V4H11V7C11 8.10457 10.1046 9 9 9H6ZM9 4.91421V7H6.91421L9 4.91421ZM8.80388 11.0194C9.34544 10.9111 9.87227 11.2623 9.98058 11.8039L10.4733 14.2675L11.1425 13.1522C11.3232 12.851 11.6487 12.6667 12 12.6667C12.3513 12.6667 12.6768 12.851 12.8575 13.1522L13.5267 14.2675L14.0194 11.8039C14.1277 11.2623 14.6546 10.9111 15.1961 11.0194C15.7377 11.1277 16.0889 11.6546 15.9806 12.1961L14.9806 17.1961C14.8996 17.6012 14.5777 17.9148 14.1707 17.9853C13.7636 18.0558 13.3551 17.8688 13.1425 17.5145L12 15.6103L10.8575 17.5145C10.6449 17.8688 10.2364 18.0558 9.82933 17.9853C9.42225 17.9148 9.10044 17.6012 9.01942 17.1961L8.01942 12.1961C7.91111 11.6546 8.26232 11.1277 8.80388 11.0194Z" fill="#101828"/>
</svg>
