<svg width="24" height="24" viewBox="0 0 24 24" fill="none" xmlns="http://www.w3.org/2000/svg">
<path fill-rule="evenodd" clip-rule="evenodd" d="M8.5 2.58579C8.87507 2.21071 9.38378 2 9.91421 2H18C19.1046 2 20 2.89543 20 4V20C20 21.1046 19.1046 22 18 22H6C4.89543 22 4 21.1046 4 20V7.91421C4 7.38378 4.21071 6.87507 4.58579 6.5L5.08579 7L4.58579 6.5L8.5 2.58579ZM6 9V20H18V4H11V7C11 8.10457 10.1046 9 9 9H6ZM9 4.91421V7H6.91421L9 4.91421ZM7.00052 13C7.00052 11.8954 7.89595 11 9.00052 11H11.0005C12.1051 11 13.0005 11.8954 13.0005 13V15C13.0005 16.1046 12.1051 17 11.0005 17H9.00052C7.89595 17 7.00052 16.1046 7.00052 15V13ZM11.0005 13H9.00052V15H11.0005V13ZM16.3573 11.5229C16.7261 11.68 16.9655 12.0421 16.9655 12.443V15.427C16.9655 15.8129 16.7434 16.1644 16.3949 16.3301C16.0464 16.4958 15.6336 16.4462 15.3343 16.2026L14.0663 15.1706C13.833 14.9807 13.6975 14.6958 13.6975 14.395V13.662C13.6975 13.3899 13.8084 13.1296 14.0045 12.9411L15.2725 11.7221C15.5615 11.4443 15.9884 11.3659 16.3573 11.5229Z" fill="currentColor"/>
</svg>
