<svg width="24" height="24" viewBox="0 0 24 24" fill="none" xmlns="http://www.w3.org/2000/svg">
<path fill-rule="evenodd" clip-rule="evenodd" d="M8.5 2.58579C8.87507 2.21071 9.38378 2 9.91421 2H18C19.1046 2 20 2.89543 20 4V20C20 21.1046 19.1046 22 18 22H6C4.89543 22 4 21.1046 4 20V7.91421C4 7.38378 4.21071 6.87507 4.58579 6.5L8.5 2.58579ZM6 9V20H18V4H11V7C11 8.10457 10.1046 9 9 9H6ZM9 4.91421V7H6.91421L9 4.91421ZM13.3162 7.05132L13 8C13.3162 7.05132 13.3158 7.05117 13.3162 7.05132L13.318 7.05192L13.3201 7.05263L13.3252 7.05433L13.3385 7.05894C13.3488 7.06256 13.3621 7.06726 13.3779 7.07309C13.4097 7.08473 13.4523 7.1009 13.5041 7.12188C13.6076 7.16377 13.7491 7.22525 13.916 7.3087C14.2475 7.47448 14.6918 7.73314 15.1402 8.10678C16.0443 8.86023 17 10.1189 17 12C17 12.5523 16.5523 13 16 13C15.4477 13 15 12.5523 15 12C15 10.9696 14.5384 10.2594 14 9.76571V15.5C14 15.5639 13.994 15.6263 13.9826 15.6868C13.9941 15.7888 14 15.8932 14 16C14 17.8536 12.2132 19 10.5 19C8.78677 19 7 17.8536 7 16C7 14.1464 8.78677 13 10.5 13C11.0098 13 11.5262 13.1015 12 13.293V8C12 7.67856 12.1545 7.37671 12.4153 7.18876C12.6761 7.00081 13.0113 6.94967 13.3162 7.05132ZM10.5 15C9.45181 15 9 15.6444 9 16C9 16.3556 9.45181 17 10.5 17C11.5482 17 12 16.3556 12 16C12 15.6444 11.5482 15 10.5 15Z" fill="#101828"/>
</svg>
