<svg width="24" height="24" viewBox="0 0 24 24" fill="none" xmlns="http://www.w3.org/2000/svg">
<path fill-rule="evenodd" clip-rule="evenodd" d="M12.9414 3.69842C13.3214 3.25512 13.8761 3 14.4599 3H19C20.1046 3 21 3.89543 21 5V15C21 16.1046 20.1046 17 19 17H12C10.8954 17 10 16.1046 10 15V7.86992C10 7.3925 10.1708 6.93083 10.4815 6.56834L12.9414 3.69842ZM16 5V7C16 8.10457 15.1046 9 14 9H12V15H19V5H16ZM12.7456 7H14V5.53659L12.7456 7ZM5.94142 7.69842C6.32139 7.25513 6.87608 7 7.45994 7H9V9H7.45994L5.74565 11H8V13H5V19H12V18H14V19C14 20.1046 13.1046 21 12 21H5C3.89543 21 3 20.1046 3 19V11.8699C3 11.3925 3.17078 10.9308 3.48149 10.5683L4 11.0128L3.48149 10.5683L5.94142 7.69842Z" fill="currentColor"/>
</svg>
