<svg width="24" height="24" viewBox="0 0 24 24" fill="none" xmlns="http://www.w3.org/2000/svg">
<path fill-rule="evenodd" clip-rule="evenodd" d="M7.5 2.58579C7.87507 2.21071 8.38378 2 8.91421 2H17C18.1046 2 19 2.89543 19 4V5C19 5.55228 18.5523 6 18 6C17.996 6 17.992 5.99998 17.9881 5.99993C18.3523 6.01458 18.7113 6.09363 19.0485 6.23373C19.4239 6.38972 19.7648 6.61834 20.0517 6.90644C20.3378 7.19274 20.5648 7.5325 20.7197 7.90639C20.8751 8.28114 20.955 8.68282 20.955 9.08848C20.955 9.49414 20.8751 9.89582 20.7197 10.2706C20.5644 10.6453 20.3367 10.9858 20.0497 11.2725L13.3999 17.9183C13.2604 18.0578 13.0827 18.1528 12.8892 18.1915L9.19622 18.9305C8.86832 18.9962 8.52932 18.8935 8.29287 18.6571C8.05643 18.4206 7.95382 18.0816 8.01945 17.7537L8.75845 14.0617C8.79719 13.8682 8.89233 13.6904 9.03189 13.5509L15.6763 6.90644C15.6766 6.90615 15.6769 6.90585 15.6772 6.90555C15.9639 6.61787 16.3045 6.38956 16.6795 6.23373C17.0549 6.07774 17.4575 5.99744 17.864 5.99744C17.8909 5.99744 17.9177 5.99779 17.9445 5.99849C17.418 5.96969 17 5.53367 17 5V4H10V7C10 8.10457 9.10457 9 8 9H5V20H17V15C17 14.4477 17.4477 14 18 14C18.5523 14 19 14.4477 19 15V20C19 21.1046 18.1046 22 17 22H5C3.89543 22 3 21.1046 3 20V7.91421C3 7.38378 3.21071 6.87507 3.58579 6.5L7.5 2.58579ZM5.91421 7H8V4.91421L5.91421 7ZM17.864 7.99744C17.7208 7.99744 17.5791 8.02571 17.4469 8.08064C17.3147 8.13557 17.1947 8.21607 17.0937 8.31752L17.0921 8.31909L16.7181 8.69309L18.259 10.2345L18.6361 9.85766C18.7372 9.75671 18.8175 9.63667 18.8722 9.50472C18.9269 9.37276 18.955 9.23132 18.955 9.08848C18.955 8.94564 18.9269 8.8042 18.8722 8.67224C18.8175 8.54029 18.7373 8.42041 18.6363 8.31945L18.6343 8.31752C18.5333 8.21607 18.4133 8.13557 18.2811 8.08064C18.1489 8.02571 18.0072 7.99744 17.864 7.99744ZM16.8444 11.6483L15.3039 10.1073L10.6601 14.7511L10.275 16.675L12.2001 16.2898L16.8444 11.6483Z" fill="#101828"/>
</svg>
