<svg width="24" height="24" viewBox="0 0 24 24" fill="none" xmlns="http://www.w3.org/2000/svg">
<path fill-rule="evenodd" clip-rule="evenodd" d="M7 4C7 3.44772 7.44772 3 8 3H12C12.5523 3 13 3.44772 13 4H16C16.5523 4 17 4.44772 17 5V6C17 6.55228 16.5523 7 16 7C15.4477 7 15 6.55228 15 6H13C13 6.55228 12.5523 7 12 7C11.4477 7 11 6.55228 11 6V5H9V7H10C10.5523 7 11 7.44772 11 8C11 8.55228 10.5523 9 10 9H7C6.44772 9 6 8.55228 6 8C6 7.44772 6.44772 7 7 7V6H5V19H9C9.55228 19 10 19.4477 10 20C10 20.5523 9.55228 21 9 21H5C3.89543 21 3 20.1046 3 19V6C3 4.89543 3.89543 4 5 4H7ZM12.9732 8.63401C13.3513 8.22956 13.8803 8 14.434 8H19C20.1046 8 21 8.89543 21 10V19C21 20.1046 20.1046 21 19 21H12C10.8954 21 10 20.1046 10 19V12.603C10 12.0958 10.1927 11.6075 10.5392 11.237L12.9732 8.63401ZM12 14V19H19V10H16V12C16 13.1046 15.1046 14 14 14H12ZM14 10.4641V12H12.5639L14 10.4641Z" fill="currentColor"/>
</svg>
