<svg width="24" height="24" viewBox="0 0 24 24" fill="none" xmlns="http://www.w3.org/2000/svg">
<path fill-rule="evenodd" clip-rule="evenodd" d="M8.5 2.58579C8.87507 2.21071 9.38378 2 9.91422 2H18C19.1046 2 20 2.89543 20 4V10C20 10.5523 19.5523 11 19 11C18.4477 11 18 10.5523 18 10V4H11V7C11 8.10457 10.1046 9 9 9H6V10C6 10.5523 5.55229 11 5 11C4.44772 11 4 10.5523 4 10V7.91421C4 7.38378 4.21072 6.87507 4.58579 6.5L8.5 2.58579ZM6.91421 7H9V4.91421L6.91421 7ZM6 16H6.5C7.16304 16 7.79893 15.7366 8.26777 15.2678C8.73661 14.7989 9 14.163 9 13.5C9 12.837 8.73661 12.2011 8.26777 11.7322C7.79893 11.2634 7.16304 11 6.5 11H5C4.44772 11 4 11.4477 4 12V17C4 17.5523 4.44772 18 5 18C4.44772 18 4 18.4477 4 19V20C4 21.1046 4.89543 22 6 22H18C19.1046 22 20 21.1046 20 20V19C20 18.4477 19.5523 18 19 18C18.4477 18 18 18.4477 18 19V20H6V19C6 18.4477 5.55229 18 5 18C5.55228 18 6 17.5523 6 17V16ZM6 14H6.5C6.63261 14 6.75979 13.9473 6.85355 13.8536C6.94732 13.7598 7 13.6326 7 13.5C7 13.3674 6.94732 13.2402 6.85355 13.1464C6.75979 13.0527 6.63261 13 6.5 13H6V14ZM18 13H19C19.5523 13 20 12.5523 20 12C20 11.4477 19.5523 11 19 11H17C16.4477 11 16 11.4477 16 12V17C16 17.5523 16.4477 18 17 18C17.5523 18 18 17.5523 18 17V16H19C19.5523 16 20 15.5523 20 15C20 14.4477 19.5523 14 19 14H18V13ZM10 12C10 11.4477 10.4477 11 11 11H12.375C13.0709 11.0004 13.7388 11.2771 14.2309 11.7691C14.7229 12.2612 14.9996 12.9285 15 13.6244V15.375C14.9996 16.0709 14.7229 16.7388 14.2309 17.2309C13.7388 17.7229 13.0715 17.9996 12.3756 18H11C10.4477 18 10 17.5523 10 17V12ZM12 13V16H12.3744C12.5403 15.9999 12.6993 15.934 12.8166 15.8166C12.934 15.6993 12.9999 15.5403 13 15.3744V13.6256C12.9999 13.4597 12.934 13.3007 12.8166 13.1834C12.6993 13.066 12.5403 13.0001 12.3744 13H12Z" fill="#101828"/>
</svg>
