<svg width="24" height="24" viewBox="0 0 24 24" fill="none" xmlns="http://www.w3.org/2000/svg">
<path fill-rule="evenodd" clip-rule="evenodd" d="M7.5 2.58579C7.87507 2.21071 8.38378 2 8.91421 2H17C18.1046 2 19 2.89543 19 4V9C19 9.55228 18.5523 10 18 10C17.9624 10 17.9254 9.99793 17.8889 9.9939L20.3442 10.8941C20.743 11.0403 21.0059 11.4225 20.9999 11.8472C20.9718 13.8175 20.4624 15.7516 19.5154 17.4881C18.5684 19.2245 17.2118 20.7121 15.5606 21.8284C15.2223 22.0572 14.7789 22.0572 14.4406 21.8285C12.7891 20.7124 11.4322 19.2248 10.485 17.4884C9.53777 15.7519 9.02819 13.8177 9.0001 11.8473C8.99405 11.4225 9.25699 11.0403 9.65583 10.8941L14.6563 9.06109C14.8786 8.97963 15.1225 8.97964 15.3447 9.06111L17.4423 9.83015C17.1755 9.65056 17 9.34578 17 9V4H10V7C10 8.10457 9.10457 9 8 9H5V20H11C11.5523 20 12 20.4477 12 21C12 21.5523 11.5523 22 11 22H5C3.89543 22 3 21.1046 3 20V7.91421C3 7.38378 3.21071 6.87507 3.58579 6.5L7.5 2.58579ZM5.91421 7H8V4.91421L5.91421 7ZM11.0342 12.519C11.1518 13.9193 11.5612 15.2848 12.2408 16.5307C12.9241 17.7832 13.8638 18.8842 15.0004 19.7657C16.1368 18.8841 17.0764 17.7831 17.7595 16.5305C18.439 15.2847 18.8482 13.9192 18.9658 12.5189L15.0005 11.0651L11.0342 12.519Z" fill="#101828"/>
</svg>
