<svg width="24" height="24" viewBox="0 0 24 24" fill="none" xmlns="http://www.w3.org/2000/svg">
<path fill-rule="evenodd" clip-rule="evenodd" d="M8.5 2.58579C8.87507 2.21071 9.38378 2 9.91421 2H18C19.1046 2 20 2.89543 20 4V20C20 21.1046 19.1046 22 18 22H6C4.89543 22 4 21.1046 4 20V16C4 15.4477 4.44772 15 5 15C5.55228 15 6 15.4477 6 16V20H18V4H11V7C11 8.10457 10.1046 9 9 9H6V12C6 12.5523 5.55228 13 5 13C4.44772 13 4 12.5523 4 12V7.91421C4 7.38378 4.21071 6.87507 4.58579 6.5L8.5 2.58579ZM6.91421 7H9V4.91421L6.91421 7ZM11.5858 13H5C4.44772 13 4 13.4477 4 14C4 14.5523 4.44772 15 5 15H11.5858L11.2929 15.2929C10.9024 15.6834 10.9024 16.3166 11.2929 16.7071C11.6834 17.0976 12.3166 17.0976 12.7071 16.7071L14.7071 14.7071C15.0976 14.3166 15.0976 13.6834 14.7071 13.2929L12.7071 11.2929C12.3166 10.9024 11.6834 10.9024 11.2929 11.2929C10.9024 11.6834 10.9024 12.3166 11.2929 12.7071L11.5858 13Z" fill="#101828"/>
</svg>
