<svg width="24" height="24" viewBox="0 0 24 24" fill="none" xmlns="http://www.w3.org/2000/svg">
<path fill-rule="evenodd" clip-rule="evenodd" d="M8.5 2.58579C8.87507 2.21071 9.38378 2 9.91422 2H18C19.1046 2 20 2.89543 20 4V10C20 10.5468 19.5611 10.9911 19.0164 10.9999C19.1138 11.0015 19.2126 11.0175 19.3101 11.0493C19.8352 11.2206 20.122 11.7851 19.9507 12.3101L18.3937 17.0831C18.2582 17.4984 17.8689 17.7777 17.4321 17.7729C16.9954 17.7682 16.6122 17.4805 16.4858 17.0624L15.0428 12.2894C14.883 11.7607 15.182 11.2026 15.7106 11.0428C16.2393 10.883 16.7974 11.182 16.9572 11.7106L17.4793 13.4374L18.0493 11.6899C18.1852 11.2733 18.5686 11.0067 18.9834 10.9999C18.4388 10.991 18 10.5467 18 10V4H11V7C11 8.10457 10.1046 9 9 9H6V10C6 10.5523 5.55229 11 5 11C4.44772 11 4 10.5523 4 10V7.91421C4 7.38378 4.21072 6.87507 4.58579 6.5L8.5 2.58579ZM6.91421 7H9V4.91421L6.91421 7ZM10.4125 11.4265C10.8528 11.0312 11.4265 10.8174 12.0182 10.8282L12.0212 10.8282L12.9642 10.8482C13.5164 10.8599 13.9545 11.317 13.9428 11.8692C13.9311 12.4214 13.474 12.8595 12.9218 12.8478L11.9818 12.8278C11.9815 12.8278 11.9821 12.8278 11.9818 12.8278C11.8962 12.8265 11.8123 12.8575 11.7485 12.9148C11.6854 12.9714 11.6458 13.0496 11.6373 13.1339C11.6314 13.2158 11.6573 13.297 11.7096 13.3604C11.7627 13.4248 11.8388 13.4659 11.9217 13.4749L12.4 13.5276C12.7455 13.53 13.0862 13.6112 13.3962 13.7655C13.7295 13.9314 14.017 14.1767 14.2333 14.4798C14.4496 14.7829 14.5881 15.1345 14.6366 15.5037C14.6846 15.8692 14.6429 16.2409 14.5152 16.5866C14.3427 17.0726 14.0321 17.4726 13.5616 17.7213C13.13 17.9494 12.6553 18 12.238 18H11.108C10.5557 18 10.108 17.5523 10.108 17C10.108 16.4477 10.5557 16 11.108 16H12.238C12.3724 16 12.4679 15.991 12.5346 15.9788C12.5747 15.9715 12.5996 15.9638 12.6134 15.9588C12.6179 15.9497 12.6241 15.9358 12.6312 15.9154L12.6386 15.895C12.6543 15.8533 12.6594 15.8083 12.6536 15.7641C12.6478 15.7199 12.6312 15.6778 12.6053 15.6415C12.5794 15.6052 12.545 15.5759 12.5051 15.556C12.4652 15.5361 12.421 15.5264 12.3765 15.5276C12.3308 15.5289 12.285 15.527 12.2396 15.522L11.7043 15.4631C11.7041 15.463 11.7045 15.4631 11.7043 15.4631C11.1034 15.3972 10.5513 15.0993 10.1667 14.633C9.78196 14.1665 9.59455 13.5682 9.6444 12.9656L9.64498 12.9586C9.69787 12.3692 9.97212 11.8218 10.4125 11.4265ZM6.647 13C6.4754 13 6.31084 13.0682 6.1895 13.1895C6.06817 13.3108 6 13.4754 6 13.647V15.353C6 15.5246 6.06817 15.6892 6.1895 15.8105C6.31084 15.9318 6.47541 16 6.647 16H7.665C8.21728 16 8.665 16.4477 8.665 17C8.665 17.5523 8.21728 18 7.665 18H6.647C5.94497 18 5.2717 17.7211 4.77529 17.2247C4.27888 16.7283 4 16.055 4 15.353V13.647C4 12.945 4.27888 12.2717 4.77529 11.7753C5.2717 11.2789 5.94497 11 6.647 11H7.665C8.21728 11 8.665 11.4477 8.665 12C8.665 12.5523 8.21728 13 7.665 13H6.647ZM5 18C5.55229 18 6 18.4477 6 19V20H18V19C18 18.4477 18.4477 18 19 18C19.5523 18 20 18.4477 20 19V20C20 21.1046 19.1046 22 18 22H6C4.89543 22 4 21.1046 4 20V19C4 18.4477 4.44772 18 5 18Z" fill="#101828"/>
</svg>
