<svg width="24" height="24" viewBox="0 0 24 24" fill="none" xmlns="http://www.w3.org/2000/svg">
<path fill-rule="evenodd" clip-rule="evenodd" d="M8.5 2.58579C8.87507 2.21071 9.38378 2 9.91421 2H18C19.1046 2 20 2.89543 20 4V20C20 21.1046 19.1046 22 18 22H6C4.89543 22 4 21.1046 4 20V7.91421C4 7.38378 4.21071 6.87507 4.58579 6.5L8.5 2.58579ZM6 9V20H18V4H11V7C11 8.10457 10.1046 9 9 9H6ZM9 4.91421V7H6.91421L9 4.91421ZM12 6C12 5.44772 12.4477 5 13 5H16C16.5523 5 17 5.44772 17 6C17 6.55228 16.5523 7 16 7H13C12.4477 7 12 6.55228 12 6ZM12 9C12 8.44772 12.4477 8 13 8H16C16.5523 8 17 8.44772 17 9C17 9.55228 16.5523 10 16 10H13C12.4477 10 12 9.55228 12 9ZM7 12C7 11.4477 7.44772 11 8 11H16C16.5523 11 17 11.4477 17 12V18C17 18.5523 16.5523 19 16 19H8C7.44772 19 7 18.5523 7 18V12ZM9 16V17H11V16H9ZM11 14H9V13H11V14ZM13 16V17H15V16H13ZM15 14H13V13H15V14Z" fill="#101828"/>
</svg>
