<svg width="24" height="24" viewBox="0 0 24 24" fill="none" xmlns="http://www.w3.org/2000/svg">
<path fill-rule="evenodd" clip-rule="evenodd" d="M7.5 2.58579C7.87507 2.21071 8.38378 2 8.91421 2H17C18.1046 2 19 2.89543 19 4V9C19 9.55228 18.5523 10 18 10C17.4477 10 17 9.55228 17 9V4H10V7C10 8.10457 9.10457 9 8 9H5V20H9C9.55228 20 10 20.4477 10 21C10 21.5523 9.55228 22 9 22H5C3.89543 22 3 21.1046 3 20V7.91421C3 7.38378 3.21071 6.87507 3.58579 6.5L7.5 2.58579ZM5.91421 7H8V4.91421L5.91421 7ZM15 12C12.7909 12 11 13.7909 11 16C11 18.2091 12.7909 20 15 20C17.2091 20 19 18.2091 19 16C19 13.7909 17.2091 12 15 12ZM9 16C9 12.6863 11.6863 10 15 10C18.3137 10 21 12.6863 21 16C21 19.3137 18.3137 22 15 22C11.6863 22 9 19.3137 9 16ZM15 13C15.5523 13 16 13.4477 16 14V15H17C17.5523 15 18 15.4477 18 16C18 16.5523 17.5523 17 17 17H16V18C16 18.5523 15.5523 19 15 19C14.4477 19 14 18.5523 14 18V17H13C12.4477 17 12 16.5523 12 16C12 15.4477 12.4477 15 13 15H14V14C14 13.4477 14.4477 13 15 13Z" fill="currentColor"/>
</svg>
