<svg width="24" height="24" viewBox="0 0 24 24" fill="none" xmlns="http://www.w3.org/2000/svg">
<path fill-rule="evenodd" clip-rule="evenodd" d="M8.5 2.58579C8.87507 2.21071 9.38378 2 9.91421 2H18C19.1046 2 20 2.89543 20 4V10C20 10.5516 19.5534 10.9989 19.0021 11C19.5451 11.0009 19.9898 11.4363 19.9998 11.9817C20.01 12.5339 19.5705 12.9897 19.0183 12.9998L18.6829 13.006L18.6646 13.0062C18.493 13.0062 18.3284 13.0743 18.2071 13.1957C18.0858 13.317 18.0176 13.4816 18.0176 13.6532V15.3591C18.0176 15.5307 18.0858 15.6953 18.2071 15.8166C18.3284 15.938 18.493 16.0062 18.6646 16.0062H19C19.5523 16.0062 20 16.4539 20 17.0062C20 17.5319 19.5943 17.9628 19.079 18.0031C19.5943 18.0433 20 18.4743 20 19V20C20 21.1046 19.1046 22 18 22H6C4.89543 22 4 21.1046 4 20V19C4 18.4477 4.44772 18 5 18C5.55228 18 6 18.4477 6 19V20H18V19C18 18.4854 18.3887 18.0616 18.8885 18.0062H18.6646C17.9626 18.0062 17.2893 17.7273 16.7929 17.2309C16.2965 16.7345 16.0176 16.0612 16.0176 15.3591V13.6532C16.0176 12.9511 16.2965 12.2778 16.7929 11.7814C17.2869 11.2875 17.956 11.0089 18.6543 11.0062L18.9817 11.0002C18.9872 11.0001 18.9927 11 18.9982 11C18.4468 10.999 18 10.5517 18 10V4H11V7C11 8.10457 10.1046 9 9 9H6V10C6 10.5523 5.55228 11 5 11C4.44772 11 4 10.5523 4 10V7.91421C4 7.38378 4.21071 6.87507 4.58579 6.5L8.5 2.58579ZM6.91421 7H9V4.91421L6.91421 7ZM5 11C4.44772 11 4 11.4477 4 12V17C4 17.5523 4.44772 18 5 18H6.375C7.0709 17.9996 7.73879 17.7229 8.23086 17.2309C8.72294 16.7388 8.99957 16.0715 9 15.3756V13.625C8.99957 12.9291 8.72294 12.2612 8.23086 11.7691C7.73879 11.2771 7.07152 11.0004 6.37562 11H5ZM6 13V16H6.37439C6.54028 15.9999 6.69935 15.934 6.81665 15.8166C6.93389 15.6994 6.99983 15.5405 7 15.3747C7 15.3746 7 15.3748 7 15.3747L7 13.6256C7 13.6255 7 13.6257 7 13.6256C6.99983 13.4598 6.93389 13.3006 6.81665 13.1834C6.69935 13.066 6.54028 13.0001 6.37439 13H6ZM12.5 13C12.2239 13 12 13.2239 12 13.5V15.5C12 15.7761 12.2239 16 12.5 16C12.7761 16 13 15.7761 13 15.5V13.5C13 13.2239 12.7761 13 12.5 13ZM10 13.5C10 12.1193 11.1193 11 12.5 11C13.8807 11 15 12.1193 15 13.5V15.5C15 16.8807 13.8807 18 12.5 18C11.1193 18 10 16.8807 10 15.5V13.5Z" fill="#101828"/>
</svg>
