<svg width="24" height="24" viewBox="0 0 24 24" fill="none" xmlns="http://www.w3.org/2000/svg">
<path fill-rule="evenodd" clip-rule="evenodd" d="M9 5C9 3.89543 9.89543 3 11 3H18C19.1046 3 20 3.89543 20 5V15C20 16.1046 19.1046 17 18 17H16V15H18V5H11V6H9V5ZM6.94142 7.69842C7.32139 7.25513 7.87608 7 8.45994 7H13C14.1046 7 15 7.89543 15 9V19C15 20.1046 14.1046 21 13 21H6C4.89543 21 4 20.1046 4 19V11.8699C4 11.3925 4.17078 10.9308 4.48149 10.5683L5 11.0128L4.48149 10.5683L6.94142 7.69842ZM6 13V19H13V9H10V11C10 12.1046 9.10457 13 8 13H6ZM8 9.53659V11H6.74565L8 9.53659Z" fill="currentColor"/>
</svg>
