<svg width="24" height="24" viewBox="0 0 24 24" fill="none" xmlns="http://www.w3.org/2000/svg">
<path fill-rule="evenodd" clip-rule="evenodd" d="M2 6C2 4.89543 2.89543 4 4 4H8.03163C8.62518 4 9.18808 4.26365 9.56807 4.71963L11.4684 7H16C17.1046 7 18 7.89543 18 9V10H21C21.328 10 21.6351 10.1608 21.8219 10.4304C22.0087 10.7 22.0515 11.044 21.9363 11.3511L18.9363 19.3511C18.79 19.7414 18.4168 20 18 20H3C2.44772 20 2 19.5523 2 19V6ZM16 10V9H11.4684C10.8748 9 10.3119 8.73635 9.93193 8.28037L8.03163 6H4V13.4853L5.06367 10.6489C5.21003 10.2586 5.58316 10 6 10H16ZM4.443 18H17.307L19.557 12H6.693L4.443 18Z" fill="currentColor"/>
</svg>
