<svg width="24" height="24" viewBox="0 0 24 24" fill="none" xmlns="http://www.w3.org/2000/svg">
<path fill-rule="evenodd" clip-rule="evenodd" d="M3 6C3 4.89543 3.89543 4 5 4H10.5316C11.1252 4 11.6881 4.26365 12.0681 4.71963L13.9684 7H19C20.1046 7 21 7.89543 21 9V19C21 20.1046 20.1046 21 19 21H5C3.89543 21 3 20.1046 3 19V6ZM5 9V19H19V9H13.9684C13.8761 9 13.7845 8.99362 13.6943 8.98114C13.6314 8.99351 13.5665 9 13.5 9H5ZM11.365 7H5V6H10.5316L11.365 7ZM13.2929 11.2929C13.6834 10.9024 14.3166 10.9024 14.7071 11.2929L16.7071 13.2929C17.0976 13.6834 17.0976 14.3166 16.7071 14.7071L14.7071 16.7071C14.3166 17.0976 13.6834 17.0976 13.2929 16.7071C12.9024 16.3166 12.9024 15.6834 13.2929 15.2929L13.5858 15H8C7.44772 15 7 14.5523 7 14C7 13.4477 7.44772 13 8 13H13.5858L13.2929 12.7071C12.9024 12.3166 12.9024 11.6834 13.2929 11.2929Z" fill="currentColor"/>
</svg>
