<svg width="24" height="24" viewBox="0 0 24 24" fill="none" xmlns="http://www.w3.org/2000/svg">
<path fill-rule="evenodd" clip-rule="evenodd" d="M6 5C6 3.89543 6.89543 3 8 3H12.1569C12.8205 3 13.441 3.32917 13.813 3.87869L15.2493 6L19 6C20.1046 6 21 6.89543 21 8V15.5C21 16.3284 20.3284 17 19.5 17C18.9477 17 18.5 16.5523 18.5 16C18.5 15.6299 18.7011 15.3067 19 15.1338V8H15.2493C14.5857 8 13.9653 7.67083 13.5932 7.12132L12.1569 5H8C8 5.55228 7.55228 6 7 6C6.44772 6 6 5.55228 6 5ZM3 9C3 7.89543 3.89543 7 5 7H9.15692C9.82055 7 10.441 7.32917 10.813 7.87869L12.2493 10H16C17.1046 10 18 10.8954 18 12V19C18 20.1046 17.1046 21 16 21H5C3.89543 21 3 20.1046 3 19V9ZM5 12V19H16V12H12.2493C12.2005 12 12.1519 11.9982 12.1036 11.9947C12.0696 11.9982 12.035 12 12 12H5ZM9.83401 10H5V9H9.15692L9.83401 10Z" fill="#101828"/>
</svg>
