<svg width="24" height="24" viewBox="0 0 24 24" fill="none" xmlns="http://www.w3.org/2000/svg">
<path fill-rule="evenodd" clip-rule="evenodd" d="M3 6C3 4.89543 3.89543 4 5 4H10.5316C11.1252 4 11.6881 4.26365 12.0681 4.71963L13.9684 7H19C20.1046 7 21 7.89543 21 9V19C21 20.1046 20.1046 21 19 21H5C3.89543 21 3 20.1046 3 19V6ZM5 9V19H19V9H5ZM11.365 7H5V6H10.5316L11.365 7ZM12 10.5C12.5523 10.5 13 10.9477 13 11.5V13H14.5C15.0523 13 15.5 13.4477 15.5 14C15.5 14.5523 15.0523 15 14.5 15H13V16.5C13 17.0523 12.5523 17.5 12 17.5C11.4477 17.5 11 17.0523 11 16.5V15H9.5C8.94772 15 8.5 14.5523 8.5 14C8.5 13.4477 8.94772 13 9.5 13H11V11.5C11 10.9477 11.4477 10.5 12 10.5Z" fill="currentColor"/>
</svg>
