<svg width="97" height="48" viewBox="0 0 97 48" fill="none" xmlns="http://www.w3.org/2000/svg">
<path d="M48.7338 6.00006C22.0911 6.00006 0.734192 13.986 0.734192 23.9985C0.734192 33.95 22.2671 41.9976 48.7338 41.9976C75.2012 41.9976 96.7342 33.923 96.7342 23.9985C96.7342 14.074 75.2012 6.00006 48.7338 6.00006Z" fill="#003478"/>
<path d="M67.6406 27.8112C67.6535 27.8936 67.7617 27.9726 67.8664 28.01C67.9051 28.0228 67.924 28.0486 67.8836 28.1362C67.5848 28.7768 67.3099 29.1462 66.9353 29.7028C66.5905 30.2171 66.2023 30.6184 65.7323 31.0044C65.0234 31.591 64.0388 32.2296 63.2248 31.8003C62.8633 31.6127 62.7068 31.1067 62.7138 30.697C62.731 29.5451 63.2435 28.3625 64.1898 27.2002C65.3434 25.78 66.6187 25.0433 67.4557 25.446C68.3216 25.859 68.0453 26.8616 67.6574 27.6485C67.6274 27.7095 67.6277 27.7614 67.6406 27.8112ZM76.9328 18.8353C76.995 18.7254 76.9295 18.6451 76.7906 18.6451C76.0674 18.6451 75.1184 18.6467 74.3648 18.6467C74.1853 18.6467 74.0926 18.6681 74.008 18.8356C73.7298 19.3685 70.3399 24.449 69.7089 25.4356C69.6024 25.5859 69.4728 25.5648 69.4577 25.3927C69.3938 24.8067 68.8877 24.1331 68.0904 23.8108C67.4828 23.5643 66.8888 23.5197 66.2712 23.6017C65.1562 23.7515 64.1629 24.3396 63.2896 25.003C61.9734 26.0036 60.8378 27.3005 59.3718 28.2588C58.5716 28.7804 57.4757 29.2354 56.7423 28.5563C56.0787 27.941 56.1537 26.5744 57.1691 25.5175C57.276 25.4067 57.4044 25.5002 57.3842 25.5986C57.2884 26.0765 57.4056 26.5519 57.7689 26.8852C58.2118 27.2824 58.8458 27.3272 59.3885 27.0621C60.0288 26.7448 60.405 26.1322 60.5147 25.4369C60.6843 24.3583 59.8541 23.407 58.8152 23.3306C57.9712 23.2714 57.1619 23.565 56.3732 24.2159C55.9778 24.5439 55.7533 24.7862 55.4113 25.2726C55.328 25.3924 55.2 25.4043 55.2039 25.2274C55.2425 23.8465 54.6719 23.0695 53.5303 23.0442C52.6441 23.0227 51.6974 23.5038 50.9595 24.0922C50.1505 24.7418 49.4432 25.6027 48.6849 26.4117C48.5905 26.5113 48.5084 26.5066 48.4818 26.3134C48.4604 25.3984 48.229 24.5122 47.8055 23.8828C47.6557 23.6639 47.3403 23.5556 47.0753 23.7033C46.9529 23.7703 46.5273 23.9661 46.2173 24.2156C46.0636 24.3423 46.0035 24.5257 46.0717 24.7606C46.4805 26.1276 46.3907 27.6818 45.836 28.9944C45.3267 30.1967 44.3371 31.281 43.1738 31.648C42.4075 31.891 41.611 31.7721 41.118 31.0927C40.441 30.1551 40.7144 28.5244 41.7236 27.1705C42.6142 25.9782 43.9025 25.2209 45.1874 24.7333C45.3386 24.6749 45.3699 24.5778 45.327 24.4495C45.2574 24.2382 45.1458 23.9505 45.1007 23.8192C44.9826 23.5054 44.6527 23.4547 44.2498 23.4985C43.3161 23.6071 42.4738 23.927 41.6419 24.3725C39.4633 25.5391 38.371 27.797 37.8924 29.0049C37.6618 29.5852 37.4648 29.9471 37.2101 30.2681C36.8666 30.6998 36.4355 31.0928 35.6471 31.7851C35.5759 31.8487 35.5226 31.9809 35.5827 32.1041C35.663 32.2707 36.0731 32.8498 36.1887 32.9014C36.3171 32.9645 36.466 32.8756 36.5257 32.8335C37.0773 32.4596 37.7373 31.8669 38.0603 31.4649C38.1736 31.3271 38.29 31.3851 38.3501 31.5942C38.6515 32.6695 39.4407 33.5475 40.532 33.9148C42.5296 34.5884 44.6015 33.6133 46.1654 31.9158C47.1594 30.8369 47.518 30.1429 47.899 29.6713C48.5447 28.8713 49.8183 27.0818 51.3352 25.9328C51.8915 25.509 52.5497 25.1858 52.8808 25.4005C53.1465 25.5727 53.2324 25.9728 52.8061 26.748C51.2594 29.5723 48.9839 32.8905 48.5666 33.6951C48.4902 33.8346 48.558 33.9445 48.7031 33.9445C49.5124 33.9405 50.3147 33.9425 51.0493 33.9425C51.1717 33.9383 51.2263 33.8807 51.2877 33.7944C52.4746 31.9365 53.5915 30.1682 54.7888 28.34C54.8558 28.2322 54.9176 28.3142 54.9202 28.3614C54.9459 28.7856 55.049 29.3658 55.301 29.7468C55.7536 30.4511 56.3949 30.7537 57.1062 30.7584C57.6722 30.7669 57.9585 30.6789 58.5688 30.4509C59.0655 30.2667 59.4641 30.025 59.7701 29.8063C59.9487 29.6817 59.98 29.89 59.9757 29.9218C59.7009 31.3967 60.0402 33.1443 61.506 33.8689C63.2603 34.7339 65.1875 33.5181 66.2965 32.4206C66.4051 32.315 66.5214 32.3261 66.5326 32.5541C66.5583 32.9732 66.7455 33.4704 67.0922 33.8184C68.0215 34.751 69.8968 34.3814 71.7787 32.9248C72.9869 31.9922 74.2512 30.6746 75.3931 29.2793C75.4361 29.2252 75.467 29.1385 75.3846 29.0505C75.2107 28.8685 74.9591 28.6602 74.7866 28.4999C74.708 28.4329 74.5926 28.4522 74.5265 28.5022C73.3559 29.6154 72.3021 30.885 70.7793 31.935C70.2656 32.2935 69.447 32.5827 69.0793 32.0849C68.9359 31.8917 68.9523 31.6245 69.0922 31.2738C69.5362 30.1665 76.5662 19.4634 76.9312 18.8321" fill="white"/>
<path d="M43.8577 20.1268C43.8878 20.2857 43.9496 20.3166 44.0218 20.3033C44.3798 20.2316 44.7717 19.937 45.0037 19.5956C45.215 19.2861 45.3141 18.8394 45.1042 18.6604C44.917 18.4994 44.6122 18.5448 44.3862 18.7445C43.9362 19.1421 43.7997 19.7058 43.8577 20.1268ZM25.9401 33.9044C23.3189 33.9216 21.0096 32.3029 20.7447 29.4986C20.5974 27.9447 21.0366 26.5598 21.916 25.4189C22.6963 24.4022 24.0166 23.5576 25.1341 23.3513C25.4978 23.2847 25.9864 23.3255 26.1884 23.5677C26.5053 23.9365 26.4142 24.3416 26.0974 24.5033C25.2447 24.9386 24.2188 25.6839 23.7111 26.7015C23.2994 27.5321 23.2162 28.5331 23.8451 29.4867C24.8977 31.076 27.8319 31.1197 30.5601 28.5851C31.2358 27.9648 31.8404 27.3688 32.455 26.6628C33.6566 25.2889 34.0563 24.7883 35.6535 22.5727C35.6707 22.547 35.6793 22.5134 35.6707 22.4971C35.6578 22.4671 35.6364 22.4628 35.5888 22.4585C34.5225 22.4885 33.5928 22.8059 32.6892 23.4811C32.429 23.6709 32.0545 23.6443 31.8906 23.3944C31.7081 23.1119 31.8391 22.7441 32.1392 22.5364C33.5928 21.5255 35.1807 21.3422 36.8023 21.0685C36.8009 21.0685 36.9148 21.0728 37.0075 20.9508C37.6732 20.0965 38.1758 19.3259 38.8854 18.4619C39.6004 17.5853 40.524 16.7804 41.2296 16.1757C42.2146 15.3288 42.8463 15.0438 43.4882 14.6945C43.6574 14.606 43.4668 14.5004 43.4153 14.5004C39.8311 13.8268 36.1056 12.9551 32.5461 14.2728C30.0809 15.1928 29.0005 17.1477 29.5202 18.454C29.8898 19.3806 31.1085 19.5312 32.2494 18.9729C33.197 18.5086 34.074 17.7603 34.6956 16.797C35.0434 16.2621 35.7762 16.648 35.3803 17.577C34.3387 20.0252 32.3488 21.9671 29.9248 22.0492C27.862 22.1161 26.531 20.5985 26.5353 18.7263C26.5439 15.0335 30.6548 12.6009 34.9753 12.2373C40.1784 11.8073 45.1065 13.1932 50.2725 13.8199C54.2307 14.2992 58.0255 14.3092 62.004 13.3952C62.4743 13.293 62.8043 13.5931 62.7737 14.0682C62.735 14.7548 62.203 15.4161 60.8927 16.1308C59.4025 16.9481 57.8435 17.1961 56.2152 17.2094C52.2781 17.2437 48.6106 15.7075 44.8155 14.8828C44.8198 15.049 44.8636 15.2469 44.7245 15.3518C42.6223 16.9023 40.722 18.477 39.4494 20.6886C39.4065 20.7397 39.4279 20.7882 39.5039 20.783C40.6089 20.7242 41.6026 20.6959 42.6341 20.6134C42.8145 20.5963 42.8213 20.5533 42.8054 20.4219C42.7139 19.6596 42.9368 18.7904 43.6073 18.1924C44.2936 17.5771 45.153 17.5071 45.7226 17.9503C46.3702 18.4549 46.3129 19.3625 45.9587 20.0431C45.5981 20.7337 45.0025 21.1031 44.4308 21.2825C44.4308 21.2825 44.3106 21.3082 44.3286 21.4173C44.3501 21.5916 45.13 22.0232 45.1966 22.1382C45.261 22.2477 45.2267 22.4173 45.1095 22.5474C45.027 22.6418 44.8978 22.7303 44.7325 22.7273C44.599 22.7246 44.5179 22.6783 44.347 22.586C43.9975 22.3967 43.5607 22.0854 43.2694 21.7184C43.1702 21.5943 43.1195 21.5918 42.8718 21.6055C41.7555 21.6699 40.0149 21.8382 38.8356 21.9855C38.5497 22.0198 38.5076 22.0743 38.4488 22.1735C36.5686 25.274 34.561 28.6176 32.3567 30.8561C29.9925 33.2563 28.0273 33.8883 25.9411 33.9046" fill="white"/>
<path d="M48.7328 8.94321C24.2223 8.94321 4.35465 15.7163 4.35465 24.0042C4.35465 32.2928 24.2223 39.0664 48.7328 39.0664C73.243 39.0664 93.1093 32.2928 93.1093 24.0042C93.1093 15.7163 73.243 8.94321 48.7328 8.94321ZM48.7328 40.4314C23.33 40.4314 2.7374 33.0768 2.7374 24.0042C2.7374 14.9303 23.33 7.577 48.7328 7.577C74.1333 7.577 94.7246 14.9303 94.7246 24.0042C94.7246 33.0768 74.1333 40.4314 48.7328 40.4314Z" fill="white"/>
</svg>
