<svg width="155" height="48" viewBox="0 0 155 48" fill="none" xmlns="http://www.w3.org/2000/svg">
<path fill-rule="evenodd" clip-rule="evenodd" d="M4.49575 20.4021C4.46714 20.4592 4.35272 20.6019 4.32411 20.6305C4.32411 20.7162 4.2669 20.8304 4.18108 20.8875C4.18108 21.0302 3.92362 21.1159 3.89501 21.2587C3.86641 21.4014 3.80919 21.5442 3.69477 21.6299C3.69477 21.7726 3.46592 21.8297 3.46592 21.944C3.40871 21.9725 3.35149 22.2009 3.29428 22.2009C3.29428 22.2866 3.17986 22.3437 3.17986 22.4865C3.12264 22.515 3.06543 22.6292 3.06543 22.7149C2.951 22.772 2.97961 22.9148 2.86519 22.9719C2.86519 23.0575 2.77937 23.1718 2.77937 23.2574C2.72215 23.2574 2.63633 23.7143 2.63633 23.7714C2.55052 23.7714 2.57912 24.5994 2.60773 24.7422C2.69355 25.0277 2.69355 25.3418 2.89379 25.5131C2.94576 25.5671 2.97627 25.6382 2.97961 25.713C3.00822 25.7416 3.15125 25.8558 3.17986 25.8843C3.26567 25.97 3.72338 26.0842 3.72338 26.1128C3.95223 26.1413 4.09526 26.2841 4.2955 26.2841L5.03927 26.5125C5.03927 26.5982 5.35394 26.5696 5.35394 26.6553C5.55418 26.6838 5.78303 26.6838 5.98328 26.7124C6.18352 26.7409 6.41237 26.8551 6.64122 26.9123C6.64122 26.9979 7.09892 27.0265 7.21335 27.0265C7.49941 26.9979 7.69965 27.0836 7.92851 27.0836C8.30039 27.0836 8.64366 27.1692 9.01555 27.1692C9.01555 27.2834 9.87374 27.1407 9.95955 27.1407C9.95955 27.055 10.875 26.9694 10.9894 26.9408L11.5329 26.8551C11.7045 26.8266 11.7618 26.7124 11.962 26.6553C12.1908 26.5696 12.3053 26.484 12.5341 26.4268L13.0204 26.1984C13.0776 26.0842 13.2207 26.0557 13.2779 25.97C13.3351 25.8843 13.5067 25.7416 13.5926 25.6845C13.707 25.5988 13.8214 25.2847 13.8214 25.1419C13.9358 25.1419 13.9072 24.628 13.8214 24.5423C13.6784 24.4852 13.6498 24.4281 13.4781 24.4567C13.2493 24.4852 13.0776 24.5138 12.8488 24.5138C12.8488 24.5709 12.3339 24.628 12.3339 24.6851C12.1908 24.6851 12.0192 24.7136 11.9048 24.7136C11.9048 24.7707 11.6473 24.7993 11.5615 24.7993C11.5615 24.885 10.8464 24.8564 10.8464 24.9135C10.7891 24.9135 10.5603 24.9421 10.5603 24.9992C10.4745 24.9992 10.0454 24.9992 10.0454 25.0848C9.87374 25.0848 9.41603 25.1705 9.38743 25.1705C9.38743 25.2276 7.78547 25.4846 7.64244 25.5131C7.4708 25.5702 7.41359 25.4846 7.24195 25.5131C7.09892 25.5131 7.07032 25.456 6.95589 25.456C6.92728 25.3704 6.89868 25.4275 6.87007 25.3704C6.78425 25.3704 6.78425 25.2847 6.69843 25.2562C6.58401 25.1705 6.58401 25.0563 6.52679 24.9706C6.46958 24.9135 6.41237 24.5994 6.29795 24.5994C6.26934 24.4852 6.04049 23.9141 5.98328 23.9141C5.98328 23.7999 5.95467 23.7714 5.98328 23.6286C6.01188 23.5144 6.04049 23.3716 6.04049 23.286C6.04049 23.2574 6.0977 23.029 6.12631 23.029C6.12631 22.8577 6.18352 22.6578 6.18352 22.515C6.26934 22.515 6.26934 22.0011 6.41237 22.0011C6.41237 21.9154 6.44098 21.8297 6.49819 21.8012C6.5268 21.6584 6.61262 21.5728 6.69843 21.4586C6.78425 21.3443 7.04171 21.2872 7.18474 21.2301C7.24195 21.2016 7.64244 21.2016 7.64244 21.173C7.72826 21.173 8.3576 21.1159 8.3576 21.0302C8.50063 21.0302 8.70088 21.0017 8.87251 21.0017C9.01555 21.0017 9.10137 20.9446 9.21579 20.9446C9.21579 20.8018 9.93095 20.7733 10.074 20.7447C10.074 20.7162 10.2742 20.6591 10.3314 20.6591C10.3314 20.6019 10.6747 20.6019 10.7319 20.6019C11.018 20.6019 11.1896 20.4592 11.4471 20.4592C11.7045 20.4592 11.8476 20.3735 12.1336 20.345L12.763 20.3164C12.906 20.3164 12.9632 20.2593 13.1063 20.2593L13.9358 20.1736L14.3363 20.0594C14.508 20.0023 14.7368 19.9738 14.9085 19.9738L15.1373 19.8881C15.2803 19.831 15.3661 19.8596 15.4806 19.8596C15.6236 19.8596 15.7666 19.8596 15.9097 19.8025C16.0241 19.7739 16.1671 19.7168 16.2816 19.7453C16.3388 19.7739 16.7393 19.7453 16.7393 19.7739C16.8823 19.7739 16.9109 19.831 17.0253 19.831L17.5688 19.9452C17.5688 20.0023 17.7405 20.0023 17.7977 20.0023C17.8835 20.0594 17.9693 20.1165 18.0265 20.1736C18.141 20.2308 18.1982 20.3735 18.2268 20.4877C18.2554 20.6591 18.3412 20.7447 18.3698 20.8875C18.4842 20.9446 18.4842 21.1159 18.5987 21.1445C18.6845 21.3729 18.7703 21.4871 18.7703 21.7155C18.8275 21.7155 18.8561 22.2295 18.9133 22.2295C18.9133 22.3152 19.0564 22.7149 19.085 22.7149L19.1708 23.2003C19.228 23.4287 19.1422 23.6572 19.085 23.857C19.0564 23.9427 18.9992 24.114 18.9133 24.1711C18.9133 24.2282 18.8561 24.3424 18.8275 24.3996C18.7703 24.4567 18.6845 24.5709 18.6845 24.6565C18.6559 24.6565 18.5701 24.8564 18.5701 24.9135C18.5128 24.9135 18.4842 25.2276 18.427 25.2276C18.3984 25.2847 18.3412 25.5131 18.284 25.5131C18.284 25.6845 18.141 25.8843 18.141 26.1128C18.141 26.1128 17.9121 26.5696 17.9407 26.6267C17.9693 26.9123 17.8549 27.0265 17.7977 27.312C17.7691 27.4548 17.7119 27.569 17.7119 27.6832C17.6833 27.6832 17.6261 27.826 17.6261 27.8831C17.5402 27.8831 17.6261 28.3399 17.5402 28.3399C17.5116 28.5112 17.4544 28.5398 17.4544 28.7397C17.4544 28.8253 17.34 29.3678 17.3114 29.3678C17.3114 29.425 17.2828 29.6534 17.2256 29.6534C17.2256 29.8818 17.2542 30.0246 17.2256 30.253C17.2256 30.3958 17.1684 30.4814 17.1684 30.6528C17.1684 30.7099 17.1397 30.9383 17.0825 30.9383C17.0825 31.0525 17.0253 31.1667 17.0825 31.3095C17.1397 31.4808 17.1397 31.6236 17.1397 31.8234C17.2256 31.8234 17.197 32.6229 17.197 32.7372C17.197 33.0227 17.1111 33.2511 17.0825 33.5938C17.0539 33.9078 16.8537 34.0792 16.7965 34.3076C16.6534 34.3647 15.3948 35.0785 15.1087 34.9929C15.0515 34.9643 15.0801 34.9358 14.9943 34.9358C14.9943 34.8787 14.8512 34.8501 14.8226 34.8501C14.7368 34.8216 14.5938 34.7359 14.5652 34.6788C14.508 34.6788 14.0217 34.4789 14.0217 34.5075C13.9644 34.5075 13.8214 34.4504 13.8214 34.4218C13.7642 34.4218 13.6784 34.3933 13.6498 34.3361C13.5353 34.2219 13.2493 34.1648 13.2779 33.9364C13.2779 33.7936 13.3351 33.7365 13.2493 33.5938C13.1921 33.5367 13.1921 33.3082 13.1635 33.3082L13.2493 32.2517L13.2207 31.1382C13.2207 31.1382 13.3637 30.3672 13.3065 30.253C13.2779 30.1102 13.2493 29.8247 13.1635 29.7105C13.049 29.5963 12.9632 29.6248 12.8202 29.6534C12.8202 29.6819 12.4197 29.8247 12.3625 29.8533C12.3625 29.9104 12.0764 29.9389 12.0192 29.9389C11.8762 29.9675 11.7904 30.0246 11.6473 30.0246C11.6473 30.1388 11.018 30.0531 11.018 30.1959C10.7891 30.1959 10.6175 30.3101 10.3886 30.3387C10.1312 30.3672 10.0168 30.4814 9.75931 30.4814C9.53046 30.4814 9.33022 30.5671 9.07276 30.5385C8.84391 30.5385 8.70088 30.4243 8.47203 30.51C8.24318 30.5671 8.07154 30.4814 7.87129 30.4814C7.69966 30.2816 7.4422 30.3672 7.21335 30.3672C7.21335 30.4529 5.55418 30.1959 5.41115 30.1959C5.41115 30.1388 4.78181 30.0817 4.78181 29.996C4.46714 29.9675 4.2955 29.8247 3.95223 29.7962C3.80919 29.739 3.60895 29.5963 3.43731 29.5963C3.3801 29.5963 3.23707 29.5677 3.23707 29.5106C3.15125 29.5106 2.77937 29.3964 2.77937 29.3107C2.57912 29.3107 2.40748 29.0538 2.20724 29.0538C2.20724 29.0252 1.89257 28.8253 1.80675 28.8253C1.72093 28.7111 1.52069 28.5684 1.46348 28.4827C1.37766 28.4827 1.23462 28.3114 1.17741 28.2257C1.1202 28.2257 0.977168 28.1115 0.948561 28.0544C0.834136 27.9687 0.776924 27.9116 0.776924 27.7689C0.776924 27.7689 0.633892 27.569 0.633892 27.5119C0.605286 27.5119 0.49086 27.312 0.49086 27.2549L0.347829 26.6553L0.26201 26.3126C0.26201 26.2841 0.176191 26.1699 0.176191 26.1413C0.176191 26.0842 0.147584 25.5988 0.118978 25.5988C0.0903717 25.4275 -0.0240536 22.6578 0.00455269 22.6578C0.00455269 22.5721 0.0617653 22.0867 0.118978 22.0867C0.118978 22.0582 0.233403 21.5157 0.26201 21.3158C0.290616 21.2301 0.376435 20.6591 0.49086 20.6591C0.49086 20.4592 0.719711 20.2879 0.776924 20.0594C0.948561 19.9738 0.977168 19.6597 1.14881 19.6026C1.14881 19.4598 1.37766 19.4313 1.37766 19.2885C1.49208 19.2028 1.52069 19.0601 1.63511 19.003C1.63511 18.9173 1.77814 18.8887 1.77814 18.7745C1.92118 18.6603 2.007 18.5747 2.09281 18.4319C2.15003 18.3748 2.17863 18.232 2.29306 18.2035C2.32167 18.0892 2.35027 18.0892 2.43609 18.0036C2.43555 17.9742 2.44331 17.9452 2.45849 17.9199C2.47366 17.8947 2.49564 17.8742 2.52191 17.8608C2.60773 17.7752 2.9224 17.2326 2.97961 17.2326C3.00822 17.0613 3.12264 16.9186 3.26567 16.8043C3.32289 16.7472 3.3801 16.5759 3.49452 16.5759C3.52313 16.5188 3.58034 16.5474 3.58034 16.4903C3.66616 16.4903 3.63756 16.4331 3.69477 16.4046C3.69477 16.3189 3.92362 16.1191 4.00944 16.1191C4.09526 16.0048 4.15247 15.9763 4.2669 15.9192C4.43853 15.805 5.1823 14.9198 5.35394 14.8627C5.38254 14.8056 5.52557 14.777 5.58279 14.777C5.58279 14.7485 5.84024 14.6057 5.86885 14.6057C5.89746 14.5486 6.84146 13.8062 7.07032 13.5207C7.15613 13.5207 7.27056 13.4065 7.32777 13.3494C7.4422 13.2923 7.4708 13.2352 7.55662 13.1495C7.61384 13.1495 7.67105 13.0924 7.72826 13.0638L7.8999 12.8925C7.98572 12.8069 7.9285 12.8069 7.98572 12.7498C8.10014 12.6355 8.30039 12.607 8.44342 12.4928C8.50063 12.4357 8.58645 12.2358 8.70088 12.2358C8.7867 12.093 8.87251 12.0074 9.01555 11.9788C9.12997 11.7789 9.41603 11.7789 9.53046 11.6647C9.58767 11.6076 9.7307 11.4934 9.81652 11.4934C9.84513 11.4077 10.0454 11.3792 10.1312 11.3506C10.1312 11.2935 10.3886 11.2935 10.3886 11.2364C10.4459 11.2364 10.6175 11.1793 10.6175 11.1508C10.7891 11.0937 10.875 11.0651 11.0752 11.0651C11.0752 11.008 11.4185 11.008 11.5043 11.008C11.7331 11.008 11.962 11.008 12.1908 11.0365C12.3053 11.0365 12.4197 10.9794 12.5627 11.008C12.8488 11.0365 13.049 11.1508 13.3065 11.1508C13.3637 11.1508 13.5926 11.1793 13.5926 11.2364C13.707 11.265 13.9072 11.3221 14.0217 11.3792C14.3077 11.5505 14.5366 11.8075 14.8512 12.093C15.0229 12.2643 15.2517 12.4928 15.3089 12.7212C15.4234 12.7783 15.5092 13.1781 15.5664 13.1781C15.5664 13.4636 15.6808 13.7206 15.7094 14.0061C15.7952 14.0061 15.9383 14.4915 15.9383 14.5772C15.9669 14.5772 15.9955 15.0626 16.0813 15.0626C16.0813 15.2339 16.1385 15.3196 16.1099 15.4909C16.0813 15.6622 15.9955 15.805 15.9955 15.9763C15.9669 15.9763 15.9097 16.1476 15.9097 16.1762C15.7952 16.2618 15.7094 16.376 15.595 16.4903C15.4806 16.6045 14.8798 16.6901 14.8798 16.7758C14.651 16.7758 14.4794 16.89 14.2505 16.8614C14.1361 16.8614 14.0217 16.8329 13.9072 16.8043C13.8214 16.7758 13.7928 16.6616 13.707 16.6045C13.707 16.4903 13.5353 16.4617 13.5353 16.3189C13.4495 16.2904 13.3923 16.0905 13.3923 16.0334C13.3065 16.0334 13.2779 15.6051 13.1349 15.548C13.1349 15.5194 12.9346 15.0911 12.906 15.0911C12.906 14.9198 12.6485 14.7199 12.5341 14.5772C12.4483 14.463 12.2767 14.4915 12.2195 14.3773C12.0478 14.3487 11.9334 14.2916 11.8476 14.4344C11.7618 14.4344 11.6759 14.5201 11.5901 14.5486C11.4471 14.5772 11.3613 14.6914 11.2468 14.7199C11.2182 14.7199 11.018 14.8342 11.018 14.8342C10.9322 14.8342 10.8464 14.8913 10.7319 14.9198C10.7319 14.9769 10.4745 15.034 10.4173 15.0911C10.3028 15.1768 10.1312 15.2339 10.0168 15.291C9.93095 15.291 9.78792 15.4052 9.7307 15.4909C9.58767 15.5194 9.50185 15.6337 9.35882 15.6337C9.35882 15.6622 9.18718 15.7193 9.12997 15.7193C9.04415 15.805 8.84391 15.9477 8.8153 16.0334C8.52924 16.1191 8.27178 16.4046 8.07154 16.633C7.8999 16.6616 7.81408 16.8043 7.67105 16.9471C7.55662 17.0899 7.41359 17.1755 7.29917 17.3183C7.21335 17.404 7.09892 17.6038 6.9845 17.6038C6.89868 17.7181 6.58401 17.9179 6.58401 18.0607C6.46958 18.1464 6.29795 18.232 6.29795 18.3462C6.21213 18.4033 6.04049 18.6318 5.95467 18.6318C5.92606 18.6889 5.86885 18.6603 5.86885 18.7174C5.78303 18.7745 5.81164 18.8602 5.72582 18.8887C5.72582 19.0315 5.58279 19.0601 5.52557 19.1457C5.43975 19.2599 5.1823 19.4027 5.1823 19.5455C5.15369 19.5455 5.09648 19.6882 5.06787 19.7168C4.98205 19.8025 4.86763 19.9452 4.83902 20.088C4.78181 20.1451 4.63878 20.4021 4.49575 20.4021ZM40.082 18.4604C40.0534 18.5747 39.939 18.6889 39.8246 18.746C39.7673 18.9173 39.7101 19.003 39.7101 19.2028C39.6243 19.5169 39.5099 19.831 39.796 20.0594C39.796 20.1165 39.9962 20.1736 40.0534 20.2022C40.2251 20.2022 40.3395 20.2308 40.5111 20.2308C40.5111 20.2593 41.4265 20.2308 41.4265 20.1736C41.4837 20.1736 41.684 20.1165 41.684 20.088C41.8556 20.0594 41.97 20.0309 42.1417 20.0309C42.1989 20.0309 42.7424 19.9738 42.7424 19.9452L43.7436 19.7739C43.8294 19.574 44.2299 19.5455 44.4588 19.5455C44.7162 19.5455 44.9451 19.4884 45.2025 19.4884C45.3742 19.4884 45.7175 19.574 45.7175 19.7739C45.8033 19.831 45.8891 19.9452 45.9177 20.0594C45.9749 20.2022 46.0321 20.2593 46.0893 20.4021C46.118 20.4021 46.3182 20.8589 46.3182 20.916C46.3468 21.1445 46.4612 21.2016 46.4898 21.4871C46.4898 21.6299 46.547 21.7155 46.5757 21.8869L46.6901 22.4865C46.7473 22.4865 46.8903 23.1146 46.8903 23.2289C46.8903 23.4287 46.6901 23.6001 46.5184 23.6001C46.4326 23.7428 46.261 23.7428 46.0893 23.7714C46.0893 23.7999 45.9177 23.8856 45.8891 23.8856C45.7461 23.9141 45.5744 23.9427 45.4028 23.9427C45.2312 23.9998 45.0309 24.0569 44.8307 24.0569C44.516 24.0569 44.2299 24.1426 43.9439 24.1426C43.8294 24.1426 43.6578 24.1426 43.4862 24.114C43.3431 24.0855 43.2001 24.1426 42.9999 24.1426C42.8854 24.1426 41.9986 24.1711 41.9986 24.2282C41.6554 24.2568 41.4837 24.3424 41.1691 24.3424C41.1691 24.371 40.6541 24.4852 40.5683 24.4852C40.4253 24.4852 40.2823 24.5423 40.1678 24.5423H39.6243C39.5099 24.5423 39.4527 24.5994 39.3383 24.5994C39.1952 24.5994 39.1094 24.6565 38.995 24.6565C38.995 24.7422 38.7661 24.6851 38.7661 24.7707C38.6803 24.7707 38.5659 24.8564 38.4801 24.9135C38.4801 24.9992 38.337 25.1705 38.2512 25.199C38.1654 25.3133 38.194 25.4275 38.1654 25.5417C38.0796 25.8558 38.194 25.97 38.3656 26.227C38.4515 26.227 38.5373 26.3412 38.6517 26.3412C38.6517 26.3697 38.8233 26.4268 38.8806 26.4268C38.8806 26.5125 39.3096 26.6267 39.4241 26.6553C39.4241 26.7124 40.1106 26.7124 40.1106 26.8266C40.2251 26.8266 40.3109 26.8837 40.4825 26.8837C40.4825 27.0265 40.883 26.8837 40.9402 26.8551C41.1977 26.8551 41.4265 26.7695 41.6268 26.7695C41.6268 26.7124 41.9986 26.6553 42.0845 26.6553C42.0845 26.5696 42.4277 26.4268 42.5136 26.3412C42.5994 26.3412 42.6566 26.2555 42.7424 26.2555C42.8568 26.2555 42.9427 26.227 43.0571 26.227C43.2001 26.227 43.2287 26.2555 43.3431 26.3412C43.4004 26.3697 43.5148 26.5125 43.5148 26.5125C43.6292 26.5982 43.9153 27.0836 44.0011 27.1407C44.1155 27.2263 44.4016 27.7689 44.4302 28.0258L44.5446 28.6255C44.5446 28.6826 44.516 28.8539 44.4874 28.8539C44.4874 28.9681 44.4588 29.1109 44.4588 29.2536C44.4302 29.2536 44.373 29.7105 44.373 29.7962C44.3158 29.7962 44.2585 30.2816 44.2585 30.3672C44.1441 30.4243 44.2013 30.5671 44.0869 30.6528C44.0869 30.9383 43.429 31.338 43.429 31.2238C43.7436 31.2238 41.6554 31.852 41.6554 31.7378C41.5123 31.7663 41.3979 31.7092 41.2549 31.6521C41.0832 31.6236 40.9974 31.595 40.8258 31.595C40.6255 31.5665 40.3681 31.4237 40.1392 31.4237L39.6529 31.2809C39.4527 31.2238 39.281 31.1096 39.0522 31.1096C39.0522 31.0525 38.8519 31.0811 38.8519 31.0239L38.3942 30.9383C38.3942 30.7955 37.7649 30.8812 37.7649 30.7099C37.7077 30.7099 37.2786 30.5385 37.2786 30.4814C37.1642 30.4529 37.0498 30.3672 36.9925 30.2816C36.8495 30.2816 36.7923 30.0817 36.6779 30.0817C36.6493 30.0246 36.4776 29.9104 36.3918 29.9104C36.3346 29.8533 36.1916 29.7105 36.1057 29.7105C36.0199 29.6248 35.9913 29.5963 35.9913 29.4535C35.9627 29.4535 35.9341 29.3678 35.9055 29.3393C35.9055 29.3393 35.6766 29.2536 35.648 29.1965C35.5908 29.1394 35.505 29.1109 35.505 29.0252C35.4192 28.9967 35.4764 28.9681 35.4192 28.9395C35.4192 28.7968 35.1903 28.7397 35.1903 28.6255C35.1331 28.5969 35.1045 28.5112 35.0759 28.4541C35.0473 28.3114 35.0473 28.4827 35.0473 28.2828C35.0473 28.2828 34.9615 28.1401 34.9615 28.1115C34.8471 28.0544 34.7898 27.6546 34.7326 27.6546C34.7326 27.4548 34.5896 27.2549 34.5896 27.055C34.5038 27.055 34.5896 26.1128 34.4752 26.1128C34.4752 25.97 34.418 25.9414 34.418 25.7701C34.3608 25.7701 34.3894 25.2276 34.3894 25.1705C34.3894 25.0848 34.5038 24.4852 34.4752 24.4852C34.4752 24.3139 34.5038 24.114 34.5038 23.9713C34.5038 23.857 34.5896 23.7999 34.5896 23.6857C34.5896 23.2003 34.8185 22.8577 34.9043 22.4294C34.9615 22.1724 35.1045 22.0296 35.1045 21.7726C35.1617 21.7441 35.2189 21.6013 35.2189 21.5442C35.2475 21.5442 35.3048 21.4014 35.3048 21.3443C35.362 21.3158 35.3906 21.173 35.4192 21.173C35.4192 21.1445 35.5336 20.8875 35.5622 20.8875C35.6194 20.6305 35.7625 20.4877 35.8197 20.2308C35.8769 20.2308 35.8769 19.6597 35.9627 19.6597C36.0485 19.3742 35.8483 19.0601 35.648 18.8887C35.648 18.8602 35.6194 18.746 35.5622 18.746C35.5622 18.6032 35.4478 18.6318 35.3906 18.5175C35.3334 18.4033 35.1617 18.2891 35.1617 18.2035C35.1045 18.2035 35.1331 18.0607 35.1331 18.0036C35.0187 17.9179 34.9901 17.8608 34.9043 17.7466C34.7612 17.5182 34.8185 17.0899 34.8185 16.89C34.8185 16.633 34.7612 16.376 34.8185 16.0905C34.8471 15.9192 34.8471 15.7479 34.8471 15.6051L34.9901 15.291C35.1045 15.2339 35.1903 14.9484 35.3334 14.9484C35.362 14.8913 35.4478 14.8342 35.505 14.8056C35.505 14.7199 35.5908 14.6914 35.648 14.6343C35.7911 14.4915 35.9627 14.3487 36.163 14.2631C36.3632 14.1774 36.592 14.2345 36.8209 14.2345C37.1356 14.206 37.3072 14.0061 37.5933 13.8919C37.9079 13.7777 38.0224 13.692 38.4229 13.6349C38.4229 13.6064 38.6803 13.5492 38.7375 13.5492C38.8906 13.5445 39.0439 13.5541 39.1952 13.5778C39.3383 13.5778 39.3955 13.5207 39.5385 13.4921C39.7101 13.4636 41.2835 13.0924 41.3121 13.0924C41.3121 13.0067 41.97 12.9211 42.0845 12.864C42.2275 12.8069 42.2275 12.7783 42.3991 12.7783C42.5136 12.7783 42.628 12.7212 42.7424 12.7212C42.9426 12.7212 43.3145 12.5784 43.3717 12.5499C43.4862 12.5213 43.5434 12.4928 43.6864 12.4642C43.8867 12.4642 44.0011 12.4071 44.2013 12.3786C44.2299 12.3786 44.516 12.2929 44.516 12.2929C44.8021 12.2929 45.0023 12.2072 45.2598 12.2072C45.2598 12.2358 46.0607 12.1501 46.1752 12.1501C46.261 12.1501 46.8903 12.093 46.8903 12.2072C47.0334 12.2358 47.0906 12.3786 47.2336 12.4071C47.3194 12.5213 47.4052 12.6641 47.5197 12.7498C47.5483 12.864 47.6627 13.0353 47.7771 13.0924C47.7771 13.1209 47.8915 13.3208 47.9202 13.3208C47.9202 13.3779 48.006 13.5492 48.0346 13.5492C48.0632 13.7206 48.149 13.949 48.149 14.0632C48.2634 14.0632 48.3206 14.5201 48.4351 14.5201C48.4637 14.6628 48.5495 14.8627 48.5495 14.9769C48.5781 14.9769 48.6925 15.2053 48.6925 15.2625C48.8069 15.3196 48.7783 15.4909 48.7783 15.6051C48.7783 15.7193 48.8069 15.7764 48.6925 15.8335C48.6639 15.9477 48.6067 15.8906 48.6067 16.0048C48.6067 16.2047 48.5495 16.2333 48.3779 16.3475C48.2348 16.4331 48.0918 16.5188 47.9774 16.5188C47.9774 16.6045 47.5769 16.633 47.4625 16.633C47.2908 16.633 47.205 16.7472 47.0048 16.7472C46.9189 16.7472 46.2896 16.8614 46.2896 16.8614C46.118 16.8614 45.9749 16.9757 45.7747 16.9757C45.603 16.9757 45.4886 17.0613 45.3456 17.0613C45.1167 17.0613 44.8879 17.147 44.659 17.147C44.4588 17.147 44.3444 17.2326 44.1441 17.2326C43.9153 17.2326 43.8294 17.3183 43.6292 17.3183C43.4862 17.3183 43.4004 17.404 43.2573 17.404C43.2573 17.5182 42.7996 17.5467 42.6852 17.5467C42.5994 17.5467 42.1989 17.6324 42.1989 17.6609C41.9986 17.6609 41.9414 17.7466 41.7412 17.7466C41.7412 17.8323 41.4551 17.8037 41.4551 17.8608C41.3979 17.8608 41.1118 17.8608 41.1118 17.9179C41.026 17.9179 40.9974 17.975 40.9116 17.975C40.9116 18.0607 40.5111 18.0607 40.4253 18.0607C40.5397 18.2035 40.1678 18.4319 40.082 18.4604Z" fill="#8DC63F"/>
<path fill-rule="evenodd" clip-rule="evenodd" d="M51.7534 25.0848C51.6962 25.2562 51.5245 25.2847 51.4673 25.4275C51.4101 25.5988 51.3815 25.7987 51.4101 25.97C51.4387 26.1699 51.6104 26.227 51.6962 26.3983C51.782 26.4268 52.1539 26.5411 52.1539 26.5982C52.2111 26.5982 52.6116 26.6553 52.6116 26.7124C52.7546 26.7124 52.9835 26.798 53.0979 26.798C53.0979 26.9408 54.5854 26.9408 54.5854 26.8551C54.614 26.8551 54.7857 26.8837 54.8429 26.8837C54.8715 26.8837 55.0717 26.9408 55.0717 26.8837C55.2148 26.8837 55.0717 26.8551 55.1862 26.8551C55.1862 26.7409 55.6725 26.7409 55.7869 26.7409C55.7869 26.6267 56.1588 26.6838 56.2446 26.5696C56.3304 26.5696 56.4734 26.4268 56.5307 26.3412C56.6451 26.3412 56.6737 26.1699 56.8167 26.1699C56.8453 26.1128 57.017 26.0271 57.0742 26.0271C57.0742 26.0271 57.303 25.9414 57.3602 25.9414C57.6177 25.8843 57.6749 26.1128 57.9038 26.1984C57.9038 26.2555 57.961 26.3697 57.9896 26.4268C58.0468 26.5411 58.1612 26.5982 58.247 26.6838C58.3042 26.7409 58.3043 26.7695 58.3043 26.8837C58.3043 27.0265 58.3615 26.9979 58.3901 27.1121C58.4187 27.2263 58.5331 27.312 58.5331 27.3977C58.5331 27.4833 58.7333 27.7118 58.7333 27.8545C58.905 27.9402 58.9336 28.6826 58.9336 28.8539C58.9622 29.0538 58.905 29.1965 58.8764 29.3678C58.8478 29.5392 58.8192 29.7105 58.8192 29.8818C58.7906 29.8818 58.7333 30.0817 58.7333 30.1388C58.7047 30.3387 58.5903 30.6242 58.3901 30.7099C58.3043 30.9668 58.0754 31.0239 57.8179 31.0811C57.7321 31.1096 57.2744 31.2238 57.2744 31.2809C57.1314 31.3095 57.0456 31.3666 56.8739 31.3951C56.7023 31.3951 55.4436 31.595 55.3006 31.595C55.1289 31.6236 54.3566 31.7949 54.2708 31.6807C54.1849 31.6807 54.2422 31.6236 54.1563 31.6236C54.1563 31.5665 53.8989 31.6236 53.8703 31.6236C53.7272 31.6236 53.6986 31.6521 53.527 31.595C53.384 31.5379 53.3554 31.5379 53.2123 31.5665C53.0693 31.6236 52.726 31.4808 52.6688 31.3666C52.583 31.3666 52.5258 31.3095 52.4113 31.3095C52.2969 31.3095 52.1825 31.2524 52.0681 31.2524C52.0395 31.2524 51.8106 31.1382 51.8106 31.1096C51.7248 31.1096 51.2957 31.1096 51.2957 31.0239C51.1813 31.0239 50.7522 30.9097 50.7522 30.8526C50.6091 30.8241 50.4089 30.8241 50.3517 30.7099C50.2373 30.7099 50.1514 30.51 50.037 30.4529C50.0084 30.3387 49.9226 30.3387 49.9226 30.1959C49.894 30.1959 49.8368 30.0531 49.8368 29.996L49.6079 29.739C49.6079 29.6248 49.5221 29.5677 49.5221 29.4535C49.4077 29.4535 49.3219 28.9681 49.236 28.9681C49.2074 28.8539 49.1216 28.7397 49.0644 28.6826C48.9786 28.5969 48.7497 28.5398 48.7497 28.397C48.6925 28.3685 48.6639 28.3399 48.6639 28.2828C48.5781 28.2257 48.6353 28.1686 48.5495 28.1401C48.5495 28.1115 48.4637 27.9402 48.4351 27.9402C48.4351 27.8545 48.292 27.312 48.2348 27.312C48.2348 27.2549 48.149 26.5411 48.149 26.5411C48.0918 26.3412 48.0918 26.0842 48.1204 25.8843C48.149 25.5988 48.2062 25.3704 48.2062 25.0563C48.2348 24.628 48.4065 24.2282 48.4351 23.7999C48.4351 23.6857 48.4923 23.2003 48.5781 23.2003C48.5781 23.1146 48.6639 22.5721 48.7211 22.5721C48.7211 22.4579 48.7497 22.3152 48.7497 22.1724C48.7783 22.1724 48.8356 21.9725 48.8356 21.9154C48.8642 21.9154 48.95 21.3729 48.95 21.2872C48.95 21.173 49.0072 20.5448 49.0644 20.5448L49.2646 19.9452C49.2646 19.7453 49.4649 19.5169 49.5507 19.317C49.5793 19.317 49.6365 19.0315 49.7224 19.003C49.7224 18.8887 49.8082 18.8316 49.8082 18.7174C49.8654 18.7174 49.9226 18.489 49.9798 18.4319C49.9798 18.3462 50.0942 18.232 50.1228 18.1178C50.1514 18.1178 50.3231 17.6324 50.3231 17.5753C50.3517 17.5753 50.4661 17.2612 50.4661 17.2041C50.5233 17.2041 50.695 16.5759 50.695 16.5188C50.7236 16.5188 50.7522 15.7193 50.7522 15.6051C50.7522 15.4338 50.7522 15.2625 50.7808 15.1197C50.8094 15.034 50.838 15.0626 50.838 14.9769C50.9238 14.9198 50.9238 14.8627 50.981 14.8056C51.0669 14.7199 51.1813 14.6914 51.2671 14.6057C51.3529 14.4915 51.4673 14.4344 51.5818 14.4059C51.7534 14.3487 52.44 14.0347 52.44 14.0061C52.6116 14.0061 52.4113 13.9776 52.6116 13.9776C52.6116 13.8919 52.6974 13.9776 52.726 13.9776C52.726 13.9204 52.9835 13.949 52.9835 13.8633C53.0407 13.8633 53.3554 13.8062 53.3554 13.7777C53.6128 13.7777 53.8989 13.692 54.1849 13.6635C54.3566 13.6349 54.4138 13.6064 54.5854 13.6064C54.7285 13.6064 54.8715 13.5492 55.0431 13.5207C55.0431 13.435 55.7011 13.5207 55.7011 13.4065C55.8155 13.4065 56.4162 13.3779 56.4162 13.2923C56.6737 13.2637 56.9598 13.2352 57.2172 13.1495C57.2744 13.1209 57.3888 13.0924 57.3888 13.0638C57.4747 13.0638 57.7607 13.0067 57.7607 12.9782C57.8752 12.9782 58.5045 13.0067 58.5045 12.8925C58.6189 12.8925 58.6761 12.8354 58.8192 12.8354L59.1338 12.7498C59.2483 12.7498 59.3341 12.6926 59.5057 12.6926C59.6774 12.6926 59.849 12.6641 60.0206 12.607C60.1351 12.5784 61.1649 12.607 61.1649 12.6641C61.3651 12.6641 61.5368 12.8069 61.7656 12.8069C61.7656 12.864 61.8228 12.8069 61.8228 12.864C61.9373 12.864 61.9945 12.9496 62.0803 13.0067C62.1661 13.0638 62.4808 13.4065 62.538 13.4065C62.5952 13.692 62.7096 14.0061 62.9957 14.206C62.9957 14.2631 63.0815 14.3773 63.1101 14.4344C63.1673 14.4915 63.1673 14.5486 63.1959 14.6057C63.2222 14.6191 63.2442 14.6396 63.2594 14.6648C63.2745 14.6901 63.2823 14.7191 63.2817 14.7485C63.3104 14.7485 63.5106 15.1482 63.5106 15.2053C63.5678 15.5194 63.3962 16.376 63.1959 16.5188C63.1101 16.5759 63.0243 16.6045 62.9385 16.633C62.6238 16.6616 62.3664 16.7472 62.0231 16.6901C61.8514 16.6616 60.7644 16.89 60.6786 16.89C60.5642 16.89 60.4211 16.9471 60.3067 16.9471C60.3067 16.9757 60.1351 17.0328 60.1064 17.0328C60.1064 17.0899 59.8204 17.0899 59.7346 17.0899C59.7346 17.0613 59.5057 17.147 59.4199 17.147C58.8192 17.147 58.247 17.2612 57.6463 17.2612C57.3316 17.2612 56.1016 17.4325 56.1016 17.4896C56.0444 17.4896 55.8155 17.5753 55.8155 17.6038C55.7011 17.6038 55.6439 17.6609 55.5294 17.6895C55.415 17.7181 55.3578 17.8608 55.2434 17.8608C55.2148 17.9179 55.0431 18.0321 54.9573 18.0321C54.9287 18.0892 54.8715 18.0892 54.8143 18.1464C54.7571 18.232 54.6712 18.2606 54.614 18.3748C54.5282 18.4319 54.4424 18.5175 54.3566 18.5747C54.328 18.6889 54.2994 18.8031 54.2422 18.8887C54.1849 19.0315 54.1277 19.2314 54.0133 19.317C54.0133 19.3741 53.8989 19.5455 53.8417 19.574C53.67 19.6882 53.7272 19.8596 53.7272 20.0023C53.8703 20.088 53.8989 20.2022 54.0991 20.2308C54.2708 20.2593 54.3566 20.2022 54.4996 20.2022C54.4996 20.1451 55.2434 20.1736 55.2434 20.088C55.3864 20.088 56.5307 19.9167 56.5307 19.831C56.7595 19.831 56.9598 19.7453 57.16 19.6882C57.16 19.6026 57.5891 19.5455 57.5891 19.4884C57.7607 19.4598 57.9038 19.4884 57.9896 19.3741C58.0468 19.3741 58.2184 19.2599 58.247 19.2314C58.3042 19.2028 58.7047 19.1172 58.7047 19.0601C58.7906 19.0601 58.905 18.9744 59.0194 18.9458C59.1338 18.9458 59.191 19.003 59.2769 19.003C59.2769 19.003 59.4485 19.1172 59.5057 19.1172C59.5343 19.2028 59.6201 19.2028 59.706 19.2028C59.8204 19.2314 59.7632 19.2314 59.849 19.2885C59.9348 19.3456 59.9348 19.4027 60.0206 19.4884C60.0778 19.5455 60.1923 19.6311 60.1923 19.7168C60.3353 19.8025 60.5069 20.1736 60.5069 20.345C60.6214 20.345 60.7072 20.8304 60.793 20.8304C60.793 20.8875 60.8502 21.0302 60.9074 21.0588C60.9074 21.0874 60.9932 21.2872 60.9932 21.2872C60.9932 21.4014 61.0505 21.5157 61.0505 21.6299V22.0296C60.936 22.0296 61.1077 22.8006 60.9932 22.8006C60.9932 22.9148 60.8788 23.1718 60.7358 23.2574C60.7358 23.4287 60.3639 23.5429 60.2495 23.5429C60.2495 23.6001 60.0492 23.5715 60.0492 23.6286C59.8776 23.6572 59.7632 23.7143 59.5915 23.7428C59.3341 23.7714 59.2197 23.9141 58.9622 23.9427L58.6189 24.0284C58.6189 24.114 58.3901 24.114 58.3901 24.1426L57.5605 24.2568C57.5605 24.3424 55.5294 24.5423 55.4436 24.5423C55.4436 24.5709 55.2434 24.628 55.1862 24.628C55.1862 24.628 54.3566 24.7707 54.3566 24.6565C54.2994 24.6565 54.2994 24.7136 54.2135 24.7136C54.1277 24.7422 54.0133 24.7422 53.9275 24.7707C53.7272 24.7993 53.527 24.7993 53.3267 24.7707C53.3267 24.8564 52.6974 24.8564 52.6974 24.9421C52.583 24.9421 52.4972 24.9992 52.3827 24.9992H52.0967C51.925 24.9706 51.782 25.0563 51.7534 25.0848ZM108.794 14.0347C108.937 14.0347 109.08 15.2053 109.023 15.2053V15.8621C109.023 16.0334 108.966 16.2047 108.88 16.3475C108.823 16.376 108.594 16.5759 108.594 16.5759C108.537 16.5759 108.165 16.7758 108.165 16.8043C107.936 16.8043 107.707 16.9471 107.479 16.9471L106.735 17.0613C106.334 17.2041 105.934 17.2326 105.562 17.2897C105.562 17.3754 104.933 17.3183 104.933 17.404C104.675 17.404 104.446 17.5467 104.132 17.5753C104.017 17.5753 103.474 17.6609 103.474 17.7466C103.331 17.7466 103.159 17.8037 103.016 17.8037C103.016 17.8608 102.758 17.8894 102.673 17.8894C102.387 17.9179 102.244 18.0036 101.929 18.0607C101.929 18.1178 101.414 18.2035 101.328 18.2035C101.328 18.3177 100.613 18.3748 100.47 18.3748C100.356 18.4033 100.27 18.489 100.155 18.489C100.155 18.5461 99.8406 18.5747 99.7548 18.5747C99.7548 18.6032 99.1827 18.6889 99.1827 18.7745C99.1255 18.7745 98.9252 18.8031 98.9252 18.8602C98.8394 18.8602 98.7822 18.9744 98.6678 18.9744C98.6106 19.0886 98.4389 19.1457 98.4389 19.2599C98.3531 19.317 98.2673 19.4313 98.2387 19.5455C98.2101 19.6026 98.1243 19.7453 98.1243 19.7453C98.0957 19.8596 98.067 19.831 98.0384 19.9452C97.9812 19.9738 97.924 20.0594 97.924 20.1165C97.8668 20.1736 97.6952 20.345 97.6952 20.4021C97.638 20.4306 97.5807 20.6591 97.5521 20.6591C97.5521 20.7447 97.5807 20.8304 97.5807 20.9446L97.8096 21.0302C97.8954 21.1445 97.9812 21.2301 98.0957 21.2301C98.0957 21.3443 98.8108 21.2301 98.9252 21.2301C99.2971 21.2301 99.669 21.2016 100.041 21.1159C100.213 21.0874 100.384 21.0874 100.584 21.0874C100.584 21.0302 100.87 21.0302 100.956 21.0302C100.956 21.0017 101.729 20.9731 101.729 20.8875C101.814 20.8875 102.129 20.8589 102.129 20.8018C102.272 20.7733 102.415 20.6876 102.558 20.6876C102.558 20.6591 102.987 20.4592 103.073 20.4592C103.159 20.4592 103.302 20.4021 103.331 20.3164C103.388 20.3164 103.502 20.2593 103.531 20.2308C103.588 20.1736 103.702 20.1165 103.817 20.088C103.874 20.0023 104.103 19.9167 104.103 19.8596C104.332 19.8596 104.503 19.9452 104.704 20.0309C104.818 20.088 105.047 20.2308 105.047 20.3735C105.133 20.3735 105.133 20.6591 105.219 20.6591L105.447 21.2872C105.476 21.2872 105.619 21.7441 105.619 21.8012C105.619 21.8583 105.791 22.2866 105.791 22.2866C105.791 22.3723 105.905 23.2574 105.791 23.2574C105.791 23.3431 105.705 23.6001 105.648 23.6001C105.648 23.6286 105.562 23.8285 105.562 23.8285C105.562 23.9427 105.505 24.0569 105.419 24.1711C105.362 24.2568 105.018 24.3996 105.018 24.4281C104.99 24.4281 104.79 24.5423 104.79 24.5423C104.675 24.5423 104.589 24.628 104.475 24.628C104.446 24.628 104.16 24.6851 104.16 24.7136C103.989 24.7136 103.817 24.7422 103.617 24.7707L101.843 25.0277C101.614 25.0277 97.7524 25.5988 97.4377 25.5988C97.0944 25.5988 96.9228 25.6845 96.5509 25.6845C96.3221 25.6845 96.179 25.8272 95.9788 25.8843C95.893 25.9129 95.8072 25.9129 95.7499 25.9985C95.6641 25.9985 95.6927 26.0842 95.6069 26.0842C95.5211 26.1699 95.4353 26.3126 95.3494 26.3697C95.3208 26.5125 95.3494 26.6267 95.3494 26.7695C95.4067 26.7695 95.5211 27.055 95.6069 27.1121L95.8358 27.3406C95.9502 27.3406 96.0932 27.4548 96.1504 27.5404C96.2362 27.5404 96.3793 27.6832 96.4365 27.7403C96.5509 27.7403 96.5795 27.826 96.694 27.826C96.694 27.8831 97.3233 27.9402 97.4377 27.9687C97.8096 27.9973 98.2101 27.9116 98.5534 27.826C98.6106 27.7974 98.9538 27.7689 98.9538 27.7403C99.0111 27.7403 99.2399 27.6546 99.2399 27.6261C99.3829 27.5975 99.4116 27.5404 99.5832 27.5119C99.5832 27.4548 99.812 27.4833 99.812 27.4262C99.8692 27.4262 100.041 27.3977 100.041 27.3406C100.213 27.312 100.298 27.3406 100.384 27.1978C100.527 27.1978 100.699 27.0265 100.842 27.0265C100.842 27.0265 101.242 26.8551 101.3 26.8551C101.3 26.8266 101.9 26.7124 101.986 26.7124C102.186 26.6838 102.329 26.9123 102.472 27.0265C102.558 27.0836 102.587 27.2263 102.673 27.2834C102.701 27.3691 102.758 27.6546 102.816 27.6546C102.873 27.8831 102.987 27.9973 102.987 28.1972C103.102 28.1972 103.073 29.1109 103.073 29.2536C103.159 29.2536 103.073 29.9389 103.073 29.996C103.045 29.996 103.016 30.4529 102.987 30.5385C102.93 30.6813 102.873 30.9097 102.758 30.9668C102.758 31.1096 102.444 31.2809 102.358 31.3951C102.301 31.4522 102.158 31.5665 102.072 31.5665C102.072 31.595 101.929 31.6521 101.9 31.6521C101.843 31.7378 101.643 31.8234 101.557 31.852C101.5 31.9662 101.157 32.0804 101.042 32.0804C101.042 32.1661 100.556 32.1946 100.499 32.366C100.384 32.366 100.155 32.4802 100.012 32.5373C99.812 32.6229 99.6118 32.6229 99.4116 32.6229C99.4116 32.68 99.2113 32.6229 99.2113 32.7086C99.0683 32.7657 98.3245 32.6515 98.2101 32.6515C98.0098 32.6515 97.8096 32.6515 97.6094 32.6229C97.4377 32.6229 97.2375 32.5373 97.0658 32.5373C97.0086 32.5373 96.6367 32.5373 96.6367 32.4802C96.4365 32.4802 96.2362 32.366 96.0646 32.3374C95.9502 32.3089 95.4353 32.2517 95.4353 32.1661C95.3495 32.1661 95.2922 32.109 95.1492 32.0804C95.1492 32.0519 94.949 31.9662 94.9203 31.9662C94.8631 31.852 94.5485 31.852 94.5485 31.7663C94.5199 31.7663 94.2624 31.6236 94.2624 31.6236C94.148 31.595 94.0049 31.5379 93.9477 31.4237C93.8333 31.4237 93.7761 31.2238 93.6617 31.2238C93.5759 31.1096 93.3756 31.0239 93.3184 30.9097C93.0896 30.9097 92.9751 30.51 92.8321 30.3958C92.7177 30.2816 92.6605 30.1102 92.546 30.0531C92.546 29.9675 92.4888 29.9675 92.4602 29.8818C92.3744 29.8247 92.4316 29.7676 92.3458 29.7105C92.3172 29.5963 92.2314 29.5392 92.2314 29.425C92.2028 29.425 92.1169 29.2536 92.1169 29.1965C92.0311 29.1965 91.9167 28.4541 91.9167 28.3399C91.9167 28.14 91.8309 27.8545 91.8023 27.5975C91.7737 27.4262 91.7737 27.2549 91.8023 27.0836C91.7737 26.8551 91.7737 26.6267 91.8023 26.3697C91.8309 26.1984 91.8309 25.9985 91.8309 25.8272C91.8595 25.8272 91.8881 25.5417 91.8881 25.4846C91.9167 25.4846 92.0311 24.9421 92.0311 24.8564C92.0597 24.5994 92.2027 24.3996 92.2027 24.1711C92.1741 24.1711 92.403 23.5715 92.403 23.5429C92.4888 23.5429 92.5174 23.0575 92.5746 23.0575C92.5746 23.0004 92.6319 22.772 92.6605 22.772C92.6605 22.6578 92.6605 22.4865 92.7463 22.4579C92.7749 22.3437 92.8321 22.3152 92.8321 22.2009C92.8607 22.2009 92.9179 22.0296 92.9179 21.9725C93.0037 21.9725 93.061 21.5157 93.1468 21.5157C93.1754 21.2872 93.2612 21.173 93.3184 20.9731C93.347 20.8875 93.4042 20.8018 93.4042 20.7162C93.4614 20.7162 93.5186 20.2022 93.5186 20.1165C93.4328 20.1165 93.3756 20.1165 93.347 20.2593C93.2326 20.2879 93.1468 20.3735 93.0609 20.3735C93.0609 20.4021 92.8607 20.4877 92.8035 20.4877C92.6891 20.5163 90.6008 22.1438 90.5436 22.2009C90.4578 22.2866 90.4006 22.3152 90.2861 22.3152C90.2861 22.3723 89.9428 22.4865 89.857 22.4865C89.857 22.5436 89.5996 22.515 89.5996 22.5721C89.5138 22.5721 89.4279 22.6007 89.3421 22.6007C89.3135 22.6578 89.2563 22.6863 89.2277 22.7149C89.1705 22.7435 89.0561 22.8291 89.0275 22.9148C88.9989 22.9148 88.7414 23.029 88.7414 23.029C88.6556 23.029 88.1979 23.1432 88.1979 23.2003C88.1407 23.2003 87.8546 23.2574 87.8546 23.286C87.7688 23.3145 87.6544 23.3716 87.5685 23.3716C87.5685 23.4573 87.1966 23.4858 87.1966 23.5715C86.882 23.6572 86.5101 23.7714 86.1668 23.7999C86.0238 23.8285 86.0238 23.857 85.938 23.9713C85.8808 23.9713 85.9094 24.0569 85.8521 24.0855C85.8235 24.2568 85.7377 24.3139 85.7091 24.4852C85.6805 24.7993 85.6233 25.0277 85.5947 25.3418C85.5089 25.3418 85.4803 25.7987 85.4803 25.9129C85.4517 25.9129 85.4517 26.8837 85.3658 26.8837C85.3658 26.9694 85.3086 27.5119 85.2228 27.5119C85.2228 27.6261 85.1942 28.5398 85.1656 28.5398C85.1656 28.6255 85.0512 29.425 85.1084 29.425C85.137 29.5392 85.1084 29.6819 85.0798 29.7962C85.0512 29.9104 85.0798 29.996 85.0798 30.1388C85.0798 30.1959 84.9367 31.1953 84.9367 31.3095C84.9367 31.4237 84.9081 31.4808 84.9081 31.5665C84.8795 31.5665 84.8223 31.7092 84.7937 31.7378C84.7079 31.8234 84.5935 31.852 84.5363 31.9377C84.4504 31.9377 84.3646 32.0233 84.2788 32.0233C84.2788 32.0804 84.0499 32.109 83.9927 32.109C83.9927 32.1661 83.249 32.1946 83.1345 32.1946C82.9915 32.1946 82.9343 32.1375 82.7913 32.109C82.7913 32.0804 82.6482 31.9948 82.591 31.9948C82.5624 31.9091 82.4194 31.8806 82.3622 31.8234C82.2764 31.7378 82.1619 31.7663 82.0761 31.6521C81.9617 31.6521 81.5612 31.2524 81.5612 31.1382C81.4754 31.0811 81.4754 30.5385 81.3609 30.51C81.3323 30.3958 81.3324 30.253 81.3037 30.1388C81.2179 30.1388 81.3609 29.0823 81.3323 29.0252C81.2751 28.8539 81.4182 28.2257 81.4182 28.0829C81.4182 27.9687 81.361 27.8831 81.3896 27.7689C81.3896 27.6546 81.4468 27.5975 81.4468 27.4833C81.4468 27.3691 81.3896 26.3697 81.5326 26.3697C81.5326 26.2555 81.5898 26.1699 81.5898 26.0271C81.6184 26.0271 81.6756 25.1419 81.647 25.0277L81.2465 24.8279C81.1321 24.8279 81.0749 24.6851 80.9605 24.6851C80.8746 24.5709 80.7316 24.5138 80.6458 24.3996C80.56 24.3139 80.3597 24.2282 80.3597 24.114C80.3311 24.114 80.2167 23.8856 80.1881 23.857C80.0737 23.857 79.9592 23.7143 79.9306 23.6001C79.8162 23.5429 79.7018 23.2574 79.7018 23.1432C79.7018 23.1432 79.5588 22.7435 79.5588 22.6863C79.5302 22.6863 79.8734 20.8018 79.8734 20.7447C79.9306 20.7447 79.9592 20.345 80.0451 20.345C80.0451 20.1736 80.4169 19.9452 80.56 19.8881C80.703 19.831 80.7888 19.831 80.9605 19.8596C81.0463 19.8596 81.3037 19.831 81.3037 19.7739C81.4182 19.7739 81.5612 19.7168 81.7042 19.6882C81.7614 19.6026 81.8186 19.5455 81.9045 19.4884C81.9903 19.4313 81.9331 19.4027 82.0189 19.3741C82.0761 19.2314 82.1619 19.0886 82.2191 18.9458C82.305 18.7745 82.2191 18.5175 82.2477 18.3177C82.2764 17.8894 82.2764 17.4611 82.305 17.0042L82.0761 16.7187C82.0189 16.7187 81.7614 16.6616 81.7614 16.633C81.6184 16.633 81.5612 16.6045 81.3896 16.6616C81.2179 16.7187 81.0463 16.7187 80.8746 16.7187C80.7888 16.7187 80.4742 16.7187 80.4742 16.7758C80.3597 16.7758 80.3025 16.8614 80.1881 16.8614C80.0164 16.8614 79.8448 17.0899 79.6446 17.0899C79.6446 17.1184 79.4443 17.2326 79.3871 17.2326C79.3013 17.3469 79.2155 17.3754 79.0724 17.404C79.0724 17.4896 78.5289 17.5467 78.4145 17.5467C78.4145 17.6324 77.6993 17.4611 77.6421 17.4611C77.4705 17.4611 77.2702 17.3183 77.1272 17.3183C76.9842 17.2041 76.8412 17.0899 76.7267 16.9186C76.5265 16.89 76.4407 16.89 76.3262 16.9757C76.2118 17.0613 76.2118 17.2326 76.2118 17.3469C76.2118 17.4896 76.1546 17.6038 76.0974 17.7466C76.0116 18.0321 76.3262 18.1464 76.3262 18.4033C76.2976 18.6889 76.3548 18.8887 76.3262 19.2028C76.3262 19.2885 76.3262 19.4027 76.2976 19.4884C76.2404 19.6597 76.3262 19.8596 76.269 20.0309C76.269 20.4021 76.3262 20.8018 76.269 21.173C76.2404 21.3158 76.269 21.4014 76.269 21.5442V22.1438C76.269 22.3152 76.2118 22.4865 76.1832 22.6292C76.1546 22.8291 76.1546 23.0004 76.1546 23.2003C76.1546 23.2574 76.2118 23.6857 76.1546 23.6857C76.1546 23.8856 76.0974 24.0569 76.0974 24.2282C76.0974 24.4567 75.983 24.5994 76.0116 24.885C76.0402 25.199 76.0116 25.5702 75.9544 25.9414C75.9258 26.2841 75.8685 26.5982 75.8971 26.9123C75.8971 27.0265 75.9544 27.5119 76.0402 27.5119C76.0402 27.826 76.0974 28.2543 76.0974 28.5684C76.0974 28.654 76.1546 28.7397 76.1546 28.8539V29.425C76.1546 29.5392 76.0974 30.3958 76.0402 30.3958C76.0402 30.4814 75.9544 30.9954 75.8971 30.9954C75.8971 31.0239 75.7255 31.4522 75.7255 31.4522C75.7255 31.5094 75.6969 31.6807 75.6397 31.6807C75.6397 31.7949 75.468 31.8806 75.468 31.9948C75.4394 32.0233 75.1534 32.2232 75.1534 32.1946C75.039 32.1946 74.9531 32.2803 74.8101 32.2803H73.5228C73.2654 32.2803 73.0937 32.2232 72.8363 32.1661C72.7218 32.0233 72.6646 31.9377 72.5216 31.8234C72.3786 31.7092 72.3214 31.5379 72.1783 31.4522C72.1211 31.3951 72.0639 31.3095 72.0639 31.2524C71.9781 31.2524 72.0067 30.8812 71.9209 30.8812C71.9209 30.8241 71.7778 30.4814 71.7492 30.4814C71.7492 30.3958 71.692 30.0817 71.6634 30.0817V29.3678C71.6062 29.3678 71.5776 28.8253 71.5204 28.8253C71.5204 28.7682 71.4059 28.3399 71.3487 28.3399C71.3201 28.2828 71.2343 27.9687 71.2057 27.9687C71.1771 27.826 71.0913 27.7403 71.0341 27.5975C70.9482 27.5404 70.8338 27.3977 70.8338 27.312C70.7194 27.2549 70.7194 26.9123 70.605 26.9123C70.605 26.798 70.4333 26.7409 70.4047 26.5982C70.2903 26.5125 70.2903 26.3697 70.1759 26.3412C70.1759 26.2841 70.0329 26.0557 69.9756 26.0557C69.9756 25.9129 69.8612 25.9129 69.7754 25.7987C69.7468 25.7701 69.5751 25.5417 69.5751 25.5417C69.5751 25.5131 69.5465 25.3989 69.4893 25.3989C69.4893 25.3133 69.4321 25.199 69.3463 25.1419C69.2033 24.9992 69.2319 24.885 69.1174 24.7422C69.0602 24.628 68.9458 24.5138 68.9458 24.3996C68.8886 24.3996 68.8886 24.1997 68.8314 24.1426C68.8314 23.9998 68.5739 23.9427 68.5739 23.7999C68.4595 23.7428 68.3165 23.5429 68.2306 23.4287C68.1448 23.4287 68.1448 23.3716 68.0876 23.3431C68.0018 23.286 67.9732 23.286 67.8588 23.286C67.8302 23.286 67.7157 23.286 67.7157 23.3431C67.6013 23.3431 67.6299 23.4287 67.5441 23.4287C67.5441 23.4858 67.4583 23.4858 67.4583 23.5429C67.3725 23.5715 67.4011 23.6572 67.4011 23.7428C67.4011 23.7999 67.3725 24.1711 67.3152 24.1711C67.3152 24.2853 67.115 25.1419 67.0864 25.1419C67.0864 25.3704 66.9148 25.6845 66.9148 25.97C66.8862 25.97 66.7717 26.2841 66.7717 26.3412C66.6573 26.3412 66.7431 26.9694 66.6573 26.9694C66.6573 27.0265 66.7145 27.5975 66.6859 27.5975C66.6859 27.9973 66.6001 28.1972 66.6001 28.5398V29.1394C66.6001 29.3107 66.5143 29.5106 66.4571 29.6819C66.4571 29.739 66.4284 30.1388 66.3712 30.1388C66.3712 30.253 66.2854 30.2816 66.2854 30.4243C66.2568 30.4243 66.1424 30.767 66.1424 30.8241C65.9421 30.9383 65.9421 31.2809 65.5989 31.1953C65.5131 31.1667 64.7407 31.0811 64.6262 31.0811C64.4546 31.0811 64.3116 31.0525 64.1399 31.0525C64.1399 30.9954 63.5106 31.0239 63.4248 30.8526C63.3104 30.8241 63.2245 30.8241 63.1387 30.7384C63.0529 30.7384 63.0529 30.6528 62.9957 30.5956C62.8241 30.4529 62.8527 30.253 62.8241 30.0531C62.7954 29.8533 62.681 29.7676 62.681 29.5677C62.681 29.4535 62.681 29.3107 62.7096 29.1965C62.7382 29.0252 62.681 28.8539 62.6524 28.6826C62.6524 28.5398 62.7096 28.4256 62.7382 28.3114C62.7668 28.1686 62.7096 28.0829 62.7096 27.9402C62.7096 27.8545 62.7954 27.2834 62.7668 27.2834C62.7668 27.2263 62.7668 26.8266 62.8241 26.8266C62.8241 26.7695 62.8527 26.5982 62.9099 26.5982C62.9957 26.227 63.0243 25.9129 63.0529 25.5131C63.0815 25.0277 63.2817 24.7993 63.2817 24.2853C63.3676 24.2853 63.339 23.6857 63.4248 23.6857C63.4248 23.4573 63.5678 23.2289 63.5678 23.0004C63.625 23.0004 63.7395 22.2866 63.7681 22.1724C63.7681 21.8869 63.8539 21.5728 63.9111 21.2587C63.9683 21.0588 63.9969 20.8589 64.0541 20.6591C64.1113 20.4592 64.1113 20.2593 64.0827 20.0594C64.0827 19.8596 64.0827 19.6597 64.1399 19.4598C64.1685 19.2599 64.1685 19.1172 64.1685 18.9173C64.1972 18.7174 64.1685 18.5461 64.1685 18.3462C64.1685 18.232 64.2258 18.0607 64.2258 17.9465C64.1685 17.5753 64.1399 17.2041 64.1113 16.8329C64.0827 16.8329 63.9683 16.4903 63.9683 16.4331C63.8825 16.4331 63.8539 15.6051 63.9397 15.6051C63.9397 15.5194 63.9969 15.4338 63.9969 15.291V14.9769C63.9683 14.6343 64.0827 14.3773 64.0827 14.0632C64.0827 13.8633 64.1685 13.6635 64.1685 13.435C64.1399 13.435 64.4546 12.9211 64.4546 12.864C64.5404 12.864 64.569 12.7212 64.6835 12.7212C64.7407 12.6641 64.9695 12.5213 64.9695 12.4928C65.084 12.4928 65.1126 12.4357 65.2556 12.4071C65.2556 12.3786 65.4844 12.3215 65.5416 12.3215C65.5416 12.1501 66.314 12.2929 66.4285 12.2929C66.6287 12.2929 66.7145 12.3215 66.8861 12.3786C67.0578 12.4357 67.1436 12.5784 67.3438 12.6355C67.3438 12.7212 67.7443 12.7783 67.7443 12.8354C67.8302 12.8354 67.9446 12.8925 68.0018 12.9496C68.0876 12.9496 68.2306 13.2066 68.2306 13.2637C68.4023 13.2637 68.3737 14.0632 68.3737 14.206C68.3737 14.2631 68.3737 14.5486 68.4309 14.5486C68.4309 14.8056 68.4309 15.0626 68.4595 15.3196C68.4595 15.4052 68.5167 16.1476 68.5167 16.1476C68.4309 16.4046 68.5167 16.7187 68.5167 16.9757C68.5453 16.9757 68.6597 17.3183 68.6597 17.404C68.7456 17.404 68.6597 17.6324 68.6597 17.6895C68.6597 17.7752 68.8314 17.8894 68.8314 18.0036C68.9172 18.0607 68.9744 18.232 68.9744 18.3177C68.9744 18.3177 69.1174 18.5461 69.1174 18.5747C69.2319 18.6318 69.2319 18.7745 69.3463 18.8602C69.3463 18.9744 69.4893 19.0886 69.5465 19.2028C69.6324 19.4598 70.0614 19.6311 70.0614 19.8881C70.09 19.8881 70.1473 20.0309 70.1473 20.0594C70.2617 20.1165 70.3475 20.3164 70.4619 20.4306C70.5192 20.4877 70.6336 20.6305 70.6336 20.6876C70.7194 20.7733 71.0341 20.9731 71.0341 21.1159C71.1199 21.1445 71.2057 21.3158 71.2343 21.4014C71.3201 21.4871 71.6062 21.7155 71.6062 21.8297C71.7778 21.944 71.835 22.3152 72.1211 22.3152C72.2355 22.3152 72.2641 22.3437 72.3214 22.2295C72.3786 22.2295 72.3214 22.1724 72.3786 22.1724C72.4072 22.0011 72.493 21.8583 72.5216 21.7441C72.5216 21.687 72.6074 21.5728 72.5502 21.5728V21.0588C72.6074 21.0588 72.6646 20.2879 72.6646 20.1451C72.7504 20.1451 72.6646 19.831 72.6646 19.7739C72.6074 19.6026 72.6646 19.5169 72.6646 19.3741L72.7505 18.2891C72.7505 18.1749 72.7505 17.404 72.8363 17.404C72.8363 17.2897 72.8935 16.5759 72.9221 16.5759C72.9221 16.4617 72.9507 15.9763 73.0365 15.9763C73.0651 15.805 73.1223 15.7193 73.0365 15.548C73.0079 15.4909 73.0079 14.9769 73.0651 14.9769C73.0365 14.6057 73.0937 14.3487 73.0937 13.9776C73.1795 13.9776 73.0651 13.5778 73.1509 13.5778C73.1795 13.3779 73.2368 13.2923 73.3512 13.1209C73.5228 12.9211 73.7517 12.8069 74.0091 12.7212C74.0663 12.7212 74.381 12.6641 74.381 12.7212C74.4954 12.7212 74.6957 12.7498 74.7529 12.864C75.0103 12.864 75.2964 13.0067 75.468 13.2352C75.5253 13.2923 75.6111 13.3494 75.6111 13.4065C75.6683 13.4065 75.6683 13.4636 75.6969 13.4921C75.6969 13.5778 75.8113 13.6349 75.8685 13.692C75.8685 13.7491 75.9258 13.8348 75.983 13.8633C75.983 13.8919 76.0402 14.0347 76.0688 14.0347C76.0688 14.1489 76.126 14.2916 76.126 14.4059C76.126 14.5486 76.3262 14.8913 76.5265 14.8627C76.6695 14.8342 76.6981 14.7199 76.7839 14.6628C76.7839 14.6343 76.8984 14.463 76.8984 14.463C76.8984 14.3487 77.0128 14.2345 77.07 14.1774C77.1844 14.0632 77.2989 13.8348 77.4705 13.7777C77.7566 13.692 78.3859 13.6064 78.5289 13.5207C78.5575 13.435 78.7006 13.2066 78.815 13.2066C78.8722 13.1209 79.4443 12.9782 79.4443 12.9782C79.6446 13.0067 80.1595 12.8354 80.3025 12.7783C80.56 12.6926 83.6208 12.35 83.6208 12.4928H85.28C85.4517 12.4928 87.3683 12.5784 87.3683 12.607C87.4541 12.607 87.4827 12.6641 87.5685 12.6641C87.683 12.6641 88.627 12.8069 88.7986 12.8069C89.0561 12.8069 89.1991 12.8925 89.4851 12.8925C89.5996 12.8925 90.658 13.0924 90.658 13.1209C90.7438 13.1209 90.8583 13.2352 90.9727 13.2637C90.9727 13.2637 91.4018 13.3494 91.459 13.3494C91.459 13.4065 91.8309 13.5492 91.8881 13.5492C91.8881 13.6064 92.1455 13.692 92.1455 13.8348C92.2314 13.8919 92.4316 14.0632 92.4316 14.1489C92.6319 14.2345 92.6318 14.5486 92.8035 14.6628C92.8035 14.7485 92.8893 14.7199 92.8893 14.8342C92.9465 14.8342 92.8893 14.8913 92.9751 14.9198C93.0037 15.034 93.0896 15.2053 93.1754 15.2625C93.1754 15.3481 93.2612 15.3481 93.2612 15.4623C93.3184 15.4623 93.3184 15.6051 93.3184 15.6622C93.347 15.805 93.4328 15.9763 93.4328 16.0905C93.5186 16.0905 93.6045 16.4617 93.6045 16.5474C93.6045 16.8043 93.6903 17.0328 93.6903 17.2612C93.6903 17.3754 93.7475 17.4896 93.7475 17.6038V18.0607C93.6617 18.0607 93.6617 18.7174 93.6331 18.8602C93.5473 19.0886 93.4042 19.6882 93.8333 19.5169C93.9191 19.4884 94.0336 19.3741 94.0336 19.2885C94.1194 19.2028 94.3196 19.0601 94.3196 18.9458C94.434 18.8887 94.4054 18.7174 94.5199 18.6889C94.5199 18.5747 94.6057 18.5461 94.6057 18.4319C94.7201 18.3462 94.7201 18.2035 94.8345 18.1464C94.8345 18.0892 94.949 17.8894 94.9776 17.8894C94.9776 17.8037 95.1492 17.4325 95.1778 17.4325C95.1778 17.3754 95.2922 16.9471 95.3208 16.9471C95.3494 16.6901 95.4925 16.5759 95.5497 16.3189C95.6069 16.3189 95.6355 16.1762 95.6355 16.1191C95.7213 16.0905 95.6927 16.0048 95.7785 15.9477C95.8644 15.8621 95.8644 15.8335 95.8644 15.6908C95.893 15.548 95.9502 15.4623 95.9502 15.3481C96.036 15.291 96.036 15.2053 96.0932 15.1197C96.179 15.034 96.2076 14.9484 96.3221 14.8342C96.3221 14.777 96.3507 14.6628 96.4079 14.6628C96.4079 14.4344 96.7226 14.2916 96.8942 14.2345C96.8942 14.1774 97.4377 14.1203 97.5235 14.1203C97.5235 14.0918 98.0957 13.9776 98.1529 13.9776C98.2673 13.9776 98.9825 13.9204 98.9825 13.8919C99.2113 13.8919 100.155 13.6064 100.184 13.6064C100.184 13.5207 103.645 12.6926 103.788 12.6926C103.788 12.6355 105.276 12.2929 105.276 12.2643C105.333 12.2643 105.705 12.2358 105.705 12.1787C105.819 12.1787 105.877 12.093 105.991 12.093C105.991 12.093 106.821 11.8932 106.821 11.9788C106.906 11.9788 107.107 11.9788 107.107 12.0645C107.221 12.0645 107.278 12.2072 107.393 12.2072C107.507 12.3215 107.622 12.4642 107.765 12.4642C107.765 12.4928 107.85 12.5213 107.879 12.5499C107.936 12.6355 108.251 13.3779 108.28 13.5492C108.594 13.4921 108.766 13.9776 108.794 14.0347ZM89.2563 17.8323C89.2563 17.8608 89.0561 18.0036 88.9988 18.0036C88.9702 18.0892 88.77 18.1749 88.6842 18.2035C88.6556 18.2606 88.5411 18.3177 88.4839 18.3177C88.4553 18.3748 88.3695 18.4033 88.2837 18.4033C88.2837 18.4319 88.0262 18.5461 87.9976 18.5461C87.8832 18.6889 87.6829 18.746 87.5113 18.8031C87.3111 18.8602 87.1394 18.9458 86.9106 18.9458C86.9106 19.0315 86.5673 19.0315 86.4815 19.0315C86.3098 19.0315 86.1668 19.0315 86.0238 18.9173C85.9666 18.8316 85.938 18.8602 85.938 18.8031C85.8521 18.746 85.9094 18.6889 85.8235 18.6603C85.7949 18.5747 85.7663 18.1749 85.7091 18.1749C85.7091 18.0892 85.6233 17.5467 85.5661 17.5467C85.5661 17.4896 85.5375 17.2041 85.5089 17.2041C85.5089 17.0899 85.5089 16.9757 85.5375 16.8614C85.5375 16.7472 85.4803 16.6901 85.5089 16.5759C85.5089 16.376 85.5089 16.1762 85.7377 16.1476C85.938 16.1191 86.1096 16.1191 86.3099 16.1191C86.4529 16.0905 86.5101 16.1191 86.6531 16.1191C86.6531 16.1762 86.9392 16.1476 86.9392 16.2047C87.1108 16.2047 87.2253 16.2333 87.3969 16.2333C87.5113 16.2333 87.5971 16.2904 87.7116 16.2904C87.8546 16.2904 88.0548 16.3189 88.2265 16.3475C88.2265 16.3475 88.4839 16.4331 88.5125 16.4331C88.6842 16.4617 88.8272 16.5759 88.9988 16.5759C88.9988 16.6901 89.5138 16.6901 89.5996 16.8614C89.6568 16.9186 89.7426 17.2897 89.5996 17.2897C89.5459 17.5024 89.4256 17.6925 89.2563 17.8323Z" fill="#8DC63F"/>
<path fill-rule="evenodd" clip-rule="evenodd" d="M116.518 12.8925C116.633 12.8925 116.69 13.0924 116.804 13.1495C116.804 13.2066 117.376 13.9776 117.491 14.0918C117.548 14.1489 117.662 14.2916 117.662 14.3773C117.72 14.4059 117.863 14.6343 117.863 14.6914C117.948 14.7199 117.977 14.8342 117.977 14.9198C118.006 15.0626 118.177 15.1197 118.177 15.2625C118.235 15.291 118.292 15.4623 118.292 15.548C118.349 15.548 118.378 15.7193 118.378 15.7764C118.463 15.7764 118.492 16.7758 118.521 16.8614C118.549 17.1184 118.692 17.2897 118.692 17.5182C118.778 17.5182 118.807 18.0892 118.864 18.0892C118.864 18.1464 119.007 18.7745 119.035 18.7745C119.035 18.8887 119.093 19.4027 119.15 19.4027C119.15 19.4598 119.179 19.7453 119.236 19.7453C119.236 19.8596 119.293 19.9167 119.293 20.0023C119.293 20.1451 119.322 20.5734 119.579 20.6019C119.722 20.6305 119.865 20.345 119.865 20.2593C119.894 20.2593 119.951 20.1165 119.951 20.0594C120.094 20.0023 120.065 19.7453 120.208 19.6882C120.266 19.5455 120.351 19.4598 120.409 19.317C120.466 19.1743 120.494 19.1172 120.609 19.0315C120.609 18.9744 120.695 18.8316 120.752 18.8031C120.78 18.7174 120.838 18.7174 120.838 18.6318C120.866 18.6032 120.981 18.489 120.981 18.4604C121.124 18.4604 121.181 18.1749 121.324 18.1749C121.353 18.0892 121.667 17.8323 121.696 17.7466C121.724 17.6324 121.724 17.5753 121.839 17.5467C121.839 17.5467 122.011 17.404 122.068 17.404C122.068 17.3754 122.297 17.2326 122.354 17.2041C122.468 17.1755 122.611 17.147 122.611 17.0899C122.697 17.0899 123.155 16.7758 123.183 16.6901C123.298 16.6901 123.355 16.4903 123.469 16.4903C123.498 16.4331 123.756 16.3189 123.756 16.2904C123.87 16.2618 123.899 16.2047 124.042 16.2047C124.07 16.1191 124.328 16.062 124.328 16.0048C124.356 16.0048 124.471 15.9763 124.471 15.9192C124.557 15.8906 124.785 15.805 124.814 15.7193C125.014 15.7193 125.214 15.4909 125.415 15.4623C125.615 15.4338 125.758 15.3196 125.958 15.291C125.958 15.2625 126.244 15.1768 126.301 15.1768L126.788 15.0626L127.074 14.9769C127.131 14.9484 127.303 14.8913 127.303 14.8627C127.675 14.8056 128.476 14.5772 128.504 14.5772C128.504 14.5486 128.762 14.5201 128.819 14.5201C128.819 14.4915 129.019 14.4344 129.076 14.4344C129.076 14.4059 129.477 14.3773 129.534 14.3773C129.534 14.2631 130.735 14.206 130.821 14.206H131.136C131.279 14.206 131.365 14.1489 131.508 14.1489C131.651 14.1489 131.851 14.1774 131.994 14.2345C132.08 14.2916 132.166 14.3202 132.28 14.3773C132.309 14.4344 132.423 14.4344 132.423 14.463C132.566 14.4915 132.681 14.6628 132.795 14.8056C132.881 14.9198 132.995 14.9769 133.11 15.0911C133.196 15.2053 133.253 15.3196 133.367 15.3767C133.367 15.4623 133.424 15.4052 133.424 15.5194C133.424 15.6337 133.568 15.6908 133.653 15.7764C133.796 15.9192 133.796 16.1762 133.968 16.2618C134.054 16.376 134.054 16.5474 134.054 16.6901C134.14 16.6901 134.197 17.0328 134.225 17.1184C134.311 17.1184 134.34 17.6895 134.368 17.8037C134.397 18.0607 134.368 18.2891 134.368 18.5175C134.368 18.6603 134.397 19.3456 134.283 19.3456C134.283 19.4027 134.283 19.6311 134.225 19.6311C134.225 19.7453 134.14 19.8025 134.14 19.9167C134.082 19.9167 133.997 20.4877 133.882 20.5448C133.882 20.6305 133.825 20.6305 133.796 20.6591C133.739 20.8304 133.596 20.916 133.539 21.0874C133.51 21.2016 133.482 21.173 133.453 21.2872C133.396 21.3443 133.253 21.43 133.253 21.5157C133.196 21.5442 133.11 21.687 133.11 21.7441C132.967 21.8012 132.91 22.0011 132.767 22.0011C132.767 22.0296 132.023 22.0582 131.937 22.0582C131.937 22.1438 131.622 22.0296 131.565 22.0011C131.508 21.8869 131.451 21.9154 131.393 21.9154C131.308 21.9154 130.793 21.944 130.793 21.8297C130.678 21.8297 130.621 21.687 130.507 21.6584C130.478 21.6013 130.335 21.5442 130.249 21.5442L130.078 21.4014C130.02 21.3729 129.963 21.3443 129.906 21.2872C129.877 21.2587 129.849 21.2301 129.849 21.173C129.791 21.173 129.763 21.1445 129.734 21.0874C129.62 20.916 129.591 20.6305 129.62 20.4306L129.648 19.831C129.677 19.831 129.648 19.574 129.62 19.574C129.62 19.4598 129.677 18.8887 129.763 18.746C129.849 18.6032 129.82 18.4604 129.82 18.2891C129.82 18.1749 129.734 17.9179 129.648 17.8894C129.648 17.8037 129.448 17.7181 129.391 17.7181C129.248 17.7181 129.019 17.6895 128.905 17.7466C128.905 17.7752 128.704 17.8608 128.647 17.8608C128.533 17.8894 128.39 17.9179 128.275 17.9179C128.275 17.9465 128.104 18.0036 128.046 18.0036C128.046 18.0321 127.76 18.0892 127.703 18.0892C127.56 18.1464 127.503 18.2606 127.36 18.3177C127.36 18.4033 127.102 18.4033 127.102 18.4319C126.959 18.4604 126.931 18.5175 126.816 18.5461C126.702 18.6889 126.588 18.7174 126.473 18.8602C126.273 18.9173 126.216 18.9744 126.073 19.1172C126.073 19.2314 125.901 19.317 125.815 19.3742C125.701 19.4884 125.586 19.5169 125.501 19.6597C125.415 19.6597 125.157 19.9167 125.157 20.0023C125.043 20.088 125.014 20.1736 124.9 20.2879C124.9 20.4021 124.728 20.4592 124.728 20.5734C124.614 20.6876 124.499 20.7733 124.442 20.916C124.385 20.9446 124.213 21.1445 124.213 21.2016C124.127 21.2587 124.042 21.43 124.013 21.5157C123.927 21.6013 123.899 21.687 123.784 21.7441C123.784 21.8297 123.698 21.8583 123.698 21.944C123.67 21.944 123.498 22.1724 123.498 22.2295C123.498 22.2866 123.384 22.6292 123.326 22.6292C123.326 22.8291 123.155 22.9719 123.155 23.2289C123.155 23.4002 123.183 23.543 123.155 23.7143C123.155 23.7428 123.098 23.8856 123.183 23.8856C123.183 24.0284 123.355 24.0855 123.441 24.1711C123.584 24.1997 123.641 24.3139 123.784 24.371C123.841 24.3996 123.899 24.4281 123.927 24.4852C123.984 24.5709 124.042 24.5423 124.099 24.5994C124.213 24.5994 124.27 24.7993 124.385 24.7993C124.442 24.9135 124.614 24.9135 124.7 25.0277C124.785 25.1134 125.3 25.3704 125.3 25.4846C125.386 25.4846 125.529 25.5988 125.586 25.6845C125.672 25.6845 125.615 25.7701 125.729 25.7701C125.758 25.7701 125.901 25.7987 125.901 25.8272C125.958 25.8272 126.101 25.9129 126.13 25.97C126.216 25.97 126.301 26.1128 126.416 26.1413C126.416 26.2555 126.874 26.2841 126.874 26.3697C127.017 26.3697 127.16 26.5125 127.303 26.5125C127.303 26.5982 127.76 26.6267 127.76 26.7124C127.961 26.7124 128.161 26.7409 128.361 26.798C128.561 26.8551 128.733 26.9408 128.933 26.9408C129.048 26.9408 129.62 26.9694 129.62 26.9123C129.706 26.9123 130.421 26.9123 130.421 26.8551C130.564 26.8551 130.621 26.798 130.735 26.798C130.735 26.7409 131.079 26.7409 131.165 26.7124C131.165 26.6838 131.508 26.5125 131.565 26.5125C131.594 26.4554 131.651 26.4554 131.651 26.4268C131.765 26.4268 131.794 26.3412 131.88 26.2555C131.966 26.2555 132.223 26.1128 132.252 26.0271C132.337 25.9129 132.509 25.7416 132.624 25.7416C132.652 25.6845 132.795 25.6274 132.881 25.6274C132.881 25.5417 133.138 25.5702 133.167 25.5988C133.167 25.6559 133.224 25.5988 133.224 25.6559C133.339 25.6559 133.367 25.7701 133.424 25.8558C133.51 25.8843 133.568 25.8843 133.596 25.97C133.653 25.9985 133.625 26.0557 133.682 26.0557C133.682 26.1413 133.825 26.1984 133.825 26.227C134.025 26.3983 134.34 26.1413 134.34 25.97C134.54 25.97 134.34 24.4281 134.426 24.4281C134.426 24.2282 134.569 24.0284 134.569 23.7999C134.655 23.7999 134.655 23.2289 134.74 23.2289C134.74 23.029 134.855 22.8862 134.912 22.6863C134.969 22.6863 134.969 22.1724 135.084 22.1724C135.084 22.0867 135.255 21.5442 135.312 21.5442C135.312 21.4871 135.513 20.916 135.541 20.916C135.541 20.8875 135.599 20.7162 135.627 20.7162C135.627 20.6876 135.713 20.4592 135.742 20.4592C135.77 20.345 135.942 19.9167 135.999 19.9167C135.999 19.7739 136.142 19.6026 136.171 19.4598C136.199 19.3742 136.285 19.2885 136.285 19.2028C136.314 19.2028 136.4 18.9744 136.485 18.9173C136.485 18.8316 136.514 18.8887 136.543 18.7745C136.571 18.7745 136.571 18.6318 136.6 18.5747C136.657 18.3748 136.657 18.1749 136.6 18.0036C136.6 17.8608 136.571 17.7466 136.543 17.6038C136.543 17.5182 136.6 17.3754 136.6 17.2326C136.628 17.2326 136.714 16.7758 136.771 16.7758C136.771 16.6901 136.943 16.2904 137.029 16.2904C137.057 16.1762 137.115 15.9192 137.201 15.8335C137.286 15.7764 137.372 15.5765 137.487 15.5765C137.572 15.4623 137.658 15.4338 137.773 15.3196C137.887 15.1768 137.944 15.1482 138.116 15.1482C138.116 15.0626 138.631 15.034 138.745 15.0055L139.346 14.8056C139.575 14.8056 139.718 14.777 139.918 14.7485L142.064 14.4344C142.292 14.4344 143.923 14.0918 144.295 14.0632C144.638 14.0347 145.01 13.8633 145.382 13.8348C145.496 13.8348 146.326 13.8062 146.326 13.7206L147.156 13.692C147.156 13.6349 147.728 13.6064 147.842 13.6064C148.128 13.6064 149.387 13.3494 149.473 13.3494C149.587 13.3208 149.902 13.3208 150.016 13.2637C150.131 13.2066 151.189 13.0067 151.332 12.9782C151.332 12.8925 151.79 12.8354 151.79 12.7498C151.876 12.7498 152.505 12.6926 152.505 12.6641C152.705 12.6355 152.848 12.607 153.02 12.6641L153.277 12.7498C153.334 12.8354 153.449 13.0067 153.563 13.0067C153.621 13.0638 153.735 13.1781 153.735 13.2352C153.878 13.3494 153.992 13.4921 154.107 13.5778C154.107 13.6635 154.193 13.692 154.193 13.8062C154.25 13.8062 154.336 14.0632 154.422 14.0918C154.479 14.2345 154.593 14.3487 154.65 14.5201C154.679 14.5201 154.793 14.8056 154.793 14.8627C154.822 14.8627 154.879 15.2053 154.936 15.2053C154.936 15.291 155.079 17.2326 154.936 17.2326C154.936 17.3754 154.936 17.4896 154.793 17.5753C154.679 17.6609 154.507 17.7466 154.364 17.6895C154.221 17.6609 154.221 17.6895 154.107 17.6895C153.878 17.6895 153.706 17.6609 153.506 17.6038C153.249 17.5467 152.276 17.4896 151.961 17.4896C151.79 17.5467 151.618 17.5467 151.418 17.5467C151.246 17.5467 151.132 17.6038 150.989 17.6038C150.846 17.6038 150.703 17.6324 150.56 17.6609C150.417 17.6895 150.331 17.6324 150.216 17.6324C150.188 17.6324 149.988 17.6609 149.988 17.6895C149.787 17.6895 149.53 17.6324 149.358 17.7181C149.215 17.7752 148.386 17.7466 148.271 17.8037C148.185 17.8323 148.042 17.8608 147.956 17.8608C147.785 17.8323 147.699 17.8323 147.527 17.8894C147.356 17.9465 147.241 17.8894 147.098 17.8894C146.955 17.8894 146.784 17.9179 146.583 17.9465C146.583 18.0036 146.068 18.0036 145.983 18.0036C145.868 18.0036 145.01 18.1178 145.01 18.0892C144.896 18.0892 143.866 18.1749 143.866 18.1749C143.551 18.2035 143.465 18.2891 143.151 18.3177C143.036 18.3177 141.291 18.5461 141.291 18.6032C141.12 18.6318 141.148 18.7174 141.005 18.8031L140.547 19.1743C140.547 19.2599 140.404 19.3741 140.376 19.4884C140.319 19.4884 140.347 19.6311 140.29 19.6311C140.29 19.7739 139.918 20.2593 139.918 20.3735C139.889 20.6305 139.918 20.7733 140.118 20.9446C140.404 20.9446 140.633 21.0302 140.948 21.0302C140.948 21.0874 141.291 21.0588 141.348 21.0588L141.949 21.0874C142.235 21.0874 142.493 21.1159 142.807 21.173C142.95 21.2016 143.036 21.1445 143.179 21.1445C143.179 21.1159 143.58 21.0874 143.637 21.1159C143.723 21.1159 144.381 21.0017 144.495 21.0017C144.495 21.0302 145.067 20.8589 145.124 20.8589C145.296 20.6019 145.554 20.6305 145.811 20.6876L146.068 20.7733C146.097 20.8304 146.297 20.916 146.297 20.9446C146.355 20.9446 146.498 21.0017 146.498 21.0302C146.612 21.0302 146.669 21.2016 146.755 21.2587C146.755 21.3158 147.585 22.5721 147.585 22.6578C147.699 22.7149 147.699 22.9433 147.699 23.0575C147.699 23.2003 147.756 23.286 147.756 23.4287V23.9713C147.756 24.114 147.728 24.7707 147.613 24.7707C147.613 24.8564 147.585 24.9421 147.499 24.9992C147.384 25.0848 147.127 25.3704 147.127 25.5417C147.07 25.6559 146.612 25.9414 146.612 25.9985C146.412 25.9985 146.24 26.0557 146.04 26.1413C145.897 26.1984 145.782 26.2841 145.697 26.2841C145.697 26.3412 145.496 26.3983 145.468 26.4554C145.296 26.6838 145.611 26.9694 145.782 27.1407C145.868 27.2263 145.983 27.312 146.011 27.4262C146.183 27.4548 146.297 27.5975 146.355 27.7689C146.355 28.1115 146.297 29.7105 146.24 29.7105C146.24 29.7962 145.954 30.7384 145.725 30.8241C145.611 30.8526 144.638 31.338 144.438 31.338C144.438 31.5379 140.633 31.9091 140.176 31.9091C140.118 31.9091 139.403 31.9377 139.403 31.852C139.174 31.852 138.888 31.7663 138.659 31.7092C138.574 31.6807 137.458 31.4237 137.344 31.2238C137.286 31.2238 137.115 31.1096 137.057 31.0525C137 30.9954 136.8 30.8812 136.743 30.8812C136.714 30.7955 136.657 30.7955 136.571 30.7955C136.514 30.7384 136.514 30.6813 136.428 30.6813C136.342 30.5671 136.199 30.4529 136.085 30.3387C136.056 30.3387 135.885 30.253 135.885 30.2245C135.799 30.1673 135.827 30.1388 135.77 30.1102C135.77 29.9675 135.656 29.9675 135.599 29.8533C135.484 29.8533 135.341 29.6534 135.284 29.5677C135.227 29.5392 135.112 29.3678 135.112 29.3107C134.998 29.2251 134.998 29.1394 134.912 29.0538C134.883 29.0252 134.655 28.9396 134.655 28.9681C134.454 28.9681 134.368 29.425 134.283 29.425C134.283 29.5106 134.197 29.5963 134.168 29.7105C134.168 29.7676 134.082 29.996 134.025 29.996C134.025 30.0817 133.882 30.3672 133.796 30.4243C133.796 30.4814 133.568 30.8526 133.539 30.8526C133.539 30.9097 133.424 31.0525 133.367 31.1096C133.253 31.1953 133.253 31.338 133.138 31.4237C133.024 31.5665 132.881 31.6236 132.767 31.7378C132.623 31.8806 132.48 32.109 132.28 32.1375C132.109 32.1661 131.966 32.3089 131.794 32.3089C131.679 32.3089 131.594 32.366 131.451 32.366C131.222 32.366 131.05 32.4231 130.793 32.4231C130.507 32.4231 130.135 32.366 129.82 32.3374C129.648 32.3374 129.477 32.2803 129.334 32.2803C129.219 32.2803 129.162 32.1946 129.048 32.1946C129.019 32.1946 128.733 32.2517 128.733 32.1661C128.59 32.1375 128.561 32.109 128.447 32.0804C128.247 32.0519 128.132 31.9377 127.932 31.9091C127.76 31.8806 127.703 31.8234 127.56 31.7949C127.503 31.7949 127.217 31.7378 127.217 31.6521C127.16 31.6521 126.902 31.6236 126.902 31.5665C126.788 31.5665 126.731 31.4808 126.616 31.4522C126.616 31.3951 126.13 31.2809 126.13 31.2524C126.073 31.2524 125.872 31.1953 125.872 31.1667C125.729 31.1667 125.644 30.9668 125.501 30.9668C125.501 30.9383 125.214 30.7955 125.157 30.7955C125.157 30.767 124.986 30.6813 124.928 30.6813C124.871 30.5385 124.7 30.5956 124.642 30.4529C124.585 30.4529 124.442 30.3672 124.413 30.3101C124.356 30.3101 124.27 30.2816 124.242 30.2245C124.185 30.1673 124.07 30.1102 123.984 30.0817C123.87 29.9389 123.784 29.9104 123.67 29.8247C123.584 29.8247 123.412 29.6819 123.355 29.6248C123.269 29.5392 123.183 29.4821 123.069 29.4535C123.012 29.3678 122.897 29.3393 122.812 29.2536C122.697 29.1109 122.554 29.1109 122.468 28.9681C122.268 28.8253 122.096 28.5684 121.868 28.5112C121.696 28.2828 121.467 28.1972 121.295 27.9973C121.21 27.9116 121.181 27.9116 121.152 27.7974C121.095 27.7403 121.038 27.7403 121.038 27.6546C120.981 27.5975 120.924 27.6261 120.895 27.569C120.809 27.569 120.466 27.1121 120.466 26.9979C120.266 26.8552 120.237 26.5982 120.037 26.4554C120.037 26.3697 119.979 26.4268 119.979 26.3412C119.894 26.2841 119.894 26.1984 119.808 26.1128C119.751 26.0271 119.665 25.97 119.608 25.8843H119.379C119.379 25.9414 119.379 25.97 119.322 25.97C119.322 26.0557 119.15 26.5696 119.121 26.5696C119.093 26.9694 119.007 27.3691 119.035 27.7689C119.035 28.1115 119.179 28.4541 119.179 28.7968C119.179 29.2251 119.236 29.6248 119.236 30.0246C119.15 30.0246 119.207 30.6528 119.179 30.767C119.179 30.8812 119.15 31.0525 119.035 31.1096C119.035 31.1953 118.95 31.3951 118.921 31.4808C118.892 31.6807 118.778 31.7949 118.664 31.9662C118.571 32.058 118.465 32.1351 118.349 32.1946C118.349 32.2517 118.149 32.2803 118.149 32.3089C118.091 32.3089 117.748 32.3374 117.748 32.2803C117.605 32.2803 117.748 32.2517 117.634 32.2517C117.634 32.1946 117.462 32.2517 117.434 32.2517C117.319 32.2803 117.233 32.2232 117.119 32.1946C117.033 32.1946 116.718 32.0804 116.718 32.0233C116.575 32.0233 116.289 31.9377 116.175 31.7949C116.118 31.7092 115.975 31.5379 115.889 31.5094C115.86 31.3951 115.717 31.3095 115.717 31.2238C115.488 31.1096 115.517 30.6528 115.488 30.3958C115.374 29.9675 115.402 29.4821 115.402 29.0538C115.402 28.7682 115.402 28.4256 115.431 28.1686C115.488 27.8545 115.46 27.5404 115.46 27.1692C115.46 26.9694 115.231 26.6838 115.002 26.6267C115.002 26.484 114.144 26.5125 114.144 26.5696H113.028C112.971 26.5696 112.542 26.7124 112.542 26.7124C112.342 26.7124 112.17 26.798 111.998 26.798C111.998 26.798 111.34 26.9694 111.255 26.9694C111.255 27.0265 110.74 27.0265 110.74 27.1121C110.711 27.1121 110.568 27.1692 110.568 27.1978C110.454 27.2263 110.368 27.2835 110.282 27.2835C110.139 27.4262 109.996 27.569 109.881 27.7118C109.824 27.7689 109.71 28.0829 109.681 28.0829C109.653 28.1401 109.567 28.3399 109.538 28.3399C109.538 28.4256 109.452 28.4827 109.452 28.5969C109.367 28.654 109.367 28.7682 109.281 28.8253C109.281 28.8539 109.166 29.0823 109.195 29.0823C109.166 29.2251 109.109 29.2822 109.109 29.3964C109.052 29.3964 108.794 30.2245 108.709 30.2245C108.68 30.3387 108.651 30.3101 108.623 30.4529C108.537 30.51 108.566 30.5956 108.48 30.6242C108.394 30.8241 108.308 30.9668 108.222 31.1667C108.165 31.1953 108.194 31.2524 108.136 31.2524C108.136 31.338 108.051 31.3951 107.993 31.4237C107.85 31.5665 107.736 31.6236 107.593 31.7949C107.45 31.852 107.25 32.109 107.078 31.9662C106.964 31.8806 105.734 31.2524 105.591 31.1953C105.533 31.1096 105.362 31.0525 105.362 30.9383C105.219 30.8812 105.133 30.3387 105.076 30.3387C105.047 30.0817 104.961 29.8247 104.933 29.5392C104.933 29.4821 104.933 29.3107 104.99 29.3107C104.99 29.2251 104.961 28.8539 105.047 28.8539C105.104 28.6255 105.19 28.4256 105.276 28.1115C105.333 27.9116 105.562 27.7118 105.562 27.4833C105.591 27.4833 105.648 27.3406 105.648 27.312C105.762 27.2263 105.762 27.1407 105.877 27.055C105.877 26.9979 105.962 26.8266 105.991 26.798C105.991 26.7409 106.191 26.484 106.248 26.484C106.248 26.3697 106.42 26.0842 106.506 26.0271C106.563 25.8272 106.792 25.6274 106.792 25.3989C106.906 25.3989 106.906 24.9706 106.992 24.9706C106.992 24.885 107.078 24.7993 107.078 24.6851C107.135 24.6851 107.164 24.4567 107.164 24.3996C107.307 24.3996 107.307 23.7999 107.421 23.7999C107.421 23.7143 107.479 23.6286 107.479 23.4858C107.479 23.3431 107.45 23.2289 107.479 23.0575C107.507 22.9148 107.536 22.772 107.536 22.6292C107.593 22.4865 107.765 22.4008 107.85 22.2866C107.936 22.2009 107.965 22.1153 108.108 22.0867C108.165 22.0011 108.251 22.0296 108.28 21.944C108.394 21.944 108.508 21.7726 108.623 21.687C108.766 21.5728 108.852 21.43 108.909 21.2587C108.937 21.173 108.995 20.8875 109.052 20.8875C109.052 20.8018 109.252 20.4592 109.309 20.4306C109.309 20.2879 109.452 20.2022 109.51 20.0309C109.567 19.831 109.681 19.7739 109.738 19.574C109.796 19.5455 109.853 19.3741 109.853 19.2885C109.881 19.2885 109.967 19.0886 110.024 19.0315C110.024 18.9173 110.168 18.8602 110.196 18.746C110.196 18.6889 110.311 18.4033 110.368 18.4033C110.368 18.3177 110.454 18.232 110.482 18.1178C110.568 18.0892 110.539 17.8894 110.597 17.8894C110.597 17.7752 110.682 17.6895 110.711 17.5753C110.768 17.5467 110.825 17.3469 110.883 17.3469C110.883 17.2041 111.083 17.0899 111.083 16.9471C111.14 16.9471 111.169 16.7472 111.226 16.6901C111.312 16.4046 111.655 16.2618 111.655 15.9477C111.712 15.9192 111.798 15.805 111.798 15.7479C111.884 15.6908 111.913 15.6337 111.941 15.5194C112.084 15.4338 112.113 15.1768 112.256 15.0911C112.256 15.034 112.427 14.777 112.456 14.777C112.513 14.5772 112.914 14.4059 112.914 14.206C112.942 14.206 113 14.0918 113 14.0632C113.085 13.9776 113.171 13.8919 113.286 13.8062C113.371 13.7206 113.457 13.6064 113.572 13.5207C113.657 13.4065 113.829 13.3779 113.858 13.2352C113.972 13.1495 114.172 13.0353 114.23 12.9211C114.315 12.9211 114.373 12.7783 114.458 12.7212C114.573 12.6355 114.602 12.5784 114.745 12.5499C114.888 12.2358 115.46 12.4357 115.689 12.4642C115.717 12.4642 115.86 12.4928 115.86 12.5213C115.946 12.5213 116.089 12.5213 116.175 12.5499C116.175 12.6355 116.461 12.6926 116.518 12.8925ZM115.059 17.7181C115.231 17.7752 115.259 18.0892 115.259 18.232C115.288 18.3462 115.345 19.1743 115.374 19.1743C115.374 19.2599 115.374 20.0594 115.317 20.0594C115.317 20.3164 115.231 20.5163 115.231 20.7162C115.145 20.7733 115.202 20.8304 115.116 20.8875C115.116 20.9446 114.945 21.1159 114.888 21.173C114.716 21.2872 114.573 21.3158 114.344 21.2872C114.144 21.2587 113.972 21.4014 113.772 21.4014C113.686 21.4014 113.314 21.4014 113.314 21.3158C113.057 21.1159 113.228 20.8304 113.286 20.6019C113.314 20.6019 113.371 20.4306 113.371 20.4021C113.457 20.4021 113.457 20.1451 113.514 20.1451C113.514 20.0594 113.629 19.8025 113.743 19.7453C113.743 19.6026 113.858 19.4884 113.858 19.3456C113.944 19.3456 113.944 19.0315 114.029 18.9744C114.029 18.8602 114.172 18.7745 114.201 18.6889C114.258 18.5461 114.287 18.5175 114.315 18.4033C114.315 18.4033 114.516 18.0607 114.544 17.975C114.63 17.975 114.544 17.8323 114.63 17.8323C114.659 17.6895 114.945 17.6038 115.059 17.7181ZM142.55 26.1413C142.636 26.1413 143.122 26.227 143.236 26.227C143.294 26.227 143.408 26.1413 143.408 26.227C143.58 26.2841 143.666 26.3412 143.809 26.3412C143.952 26.3412 144.037 26.3983 144.152 26.3983C144.266 26.3983 144.352 26.3412 144.467 26.4268C144.552 26.484 144.61 26.5982 144.61 26.6838C144.61 26.7695 144.61 26.8551 144.552 26.9408C144.495 26.9694 142.521 27.2263 142.464 27.2263C142.464 27.3406 140.319 27.4548 140.09 27.4833C140.033 27.4833 139.832 27.4833 139.832 27.4262C139.689 27.4262 139.375 27.4548 139.346 27.3406C139.289 27.3406 139.289 27.2549 139.232 27.2549C139.232 27.1978 139.117 27.1978 139.06 27.1978C139.003 27.1978 138.774 27.055 138.774 27.0265C138.602 26.9979 138.145 26.7409 138.23 26.5125C138.259 26.3697 138.402 26.2555 138.516 26.1699C138.688 26.0557 138.831 26.0842 139.031 26.1128C139.031 26.0271 139.403 26.1413 139.46 26.1413C139.518 26.1413 139.661 26.1413 139.661 26.1984C139.746 26.1984 141.148 26.1128 141.491 26.1128C141.434 26.1984 142.321 25.9985 142.55 26.1413Z" fill="#8DC63F"/>
<path d="M33.76 27.4262C33.76 27.4262 33.6456 27.1407 33.6456 27.0836C33.5598 27.0265 33.4454 26.9408 33.4167 26.8837C33.3023 26.8551 33.3023 26.6267 33.1593 26.6267C33.0735 26.5696 33.0449 26.4554 32.959 26.3697C32.7016 26.3126 32.673 25.97 32.4155 25.9129C32.3011 25.8843 32.2439 25.7987 32.1295 25.7701C32.1009 25.713 31.9292 25.6274 31.872 25.6274C31.7862 25.5131 31.7004 25.5131 31.6145 25.3989C31.5573 25.3989 31.3285 25.2562 31.3285 25.2276C31.1855 25.199 31.1568 25.1419 31.0138 25.1419C30.928 25.0563 30.7564 24.7707 30.6419 24.7707C30.6133 24.7136 30.4131 24.5994 30.3559 24.5994C30.27 24.4852 30.1556 24.4281 30.0698 24.3139C29.9554 24.1997 29.9268 24.0569 29.7837 23.9713C29.6979 23.8856 29.4977 23.7714 29.4977 23.6286C29.4119 23.6286 29.4405 23.3716 29.4691 23.3145C29.5263 23.2289 29.5835 23.1718 29.6693 23.0861C29.7551 23.0004 29.8123 22.9148 29.8123 22.8291C29.8696 22.8291 30.2701 22.4294 30.3273 22.3152C30.4131 22.2009 30.4703 22.1153 30.5847 22.0296C30.6133 21.944 30.6133 21.8869 30.6705 21.8583C30.6705 21.8012 30.7277 21.5728 30.785 21.5728C30.785 21.4586 30.9566 21.3729 30.9852 21.2301C31.0138 21.0588 31.1855 20.9446 31.1855 20.7733C31.2427 20.7733 31.3571 20.2879 31.3571 20.2308C31.4429 20.2308 31.3571 19.7739 31.4429 19.7739C31.4429 19.7453 31.5001 19.5169 31.5287 19.5169C31.5573 19.3741 31.6145 19.3456 31.6145 19.2028C31.6145 19.0886 31.6718 18.9744 31.7004 18.8316C31.729 18.8316 31.7862 18.6318 31.7862 18.6032C31.8434 18.6032 31.8434 18.3177 31.8434 18.2606V17.6609C31.8434 17.5182 31.7862 17.4896 31.7862 17.3469C31.7862 17.3469 31.8434 16.8614 31.7004 16.8614C31.7004 16.633 31.6145 16.4617 31.6145 16.2618C31.5859 16.2618 31.4715 15.8906 31.4715 15.8335C31.4143 15.8335 31.3857 15.548 31.3857 15.4909C31.3571 15.4909 31.2999 15.3196 31.2999 15.2625C31.1855 15.2625 31.1855 14.6914 31.0424 14.6914C31.0424 14.5772 30.8422 14.4915 30.8422 14.3773C30.785 14.3773 30.4131 13.7206 30.3845 13.5492C30.3559 13.5492 30.2701 13.3494 30.2128 13.2923C30.127 13.2066 29.8696 13.0067 29.8696 12.8925C29.7837 12.8354 29.6979 12.607 29.5835 12.607C29.4405 12.4357 29.3833 12.4071 29.183 12.35C28.9542 12.2929 29.04 12.1787 28.9256 12.0645C28.7825 11.9503 28.7253 11.9217 28.5537 11.8932C28.5537 11.8075 28.0101 11.836 28.0101 11.7504C27.7241 11.7504 27.4666 11.6076 27.1806 11.6076C27.1806 11.5791 26.9517 11.4934 26.9231 11.4648C26.8373 11.4648 26.7515 11.4648 26.637 11.4363C26.6084 11.4934 26.5512 11.522 26.494 11.4934C26.494 11.4077 26.0363 11.3221 25.9505 11.3221L25.2353 11.2364C25.0923 11.2364 24.3485 11.265 24.3485 11.4077C24.2341 11.4077 24.2341 11.4648 24.0911 11.4648C24.0911 11.4934 23.7764 11.522 23.7192 11.522C23.7192 11.6076 23.2615 11.6076 23.2615 11.6933C23.1185 11.6933 22.9182 11.8075 22.8038 11.9503C22.7466 12.0359 22.6036 12.1787 22.5177 12.1787C22.4605 12.2929 22.2603 12.3786 22.2603 12.4928C21.9742 12.6926 21.9456 13.1209 21.774 13.4065C21.6023 13.6635 21.5451 13.8633 21.5737 14.1489C21.5737 14.4344 21.5451 14.6628 21.6309 14.9484C21.6595 15.0626 21.6882 15.2053 21.6882 15.3196C21.7168 15.3196 21.774 15.5194 21.774 15.5765C21.8026 15.5765 21.8884 15.7764 21.9456 15.8335C21.9456 15.8906 22.0314 16.0334 22.0886 16.062C22.0886 16.1191 22.2889 16.376 22.3461 16.4046C22.4033 16.4617 22.5463 16.5759 22.5463 16.6616C22.5463 16.7187 22.6322 17.0042 22.5463 17.0042C22.5463 17.1184 22.4891 17.147 22.4605 17.2897C22.3461 17.2897 22.2603 17.7752 22.2603 17.8608C22.2031 17.8608 22.1745 18.3748 22.0886 18.3748C22.0886 18.746 21.8026 18.9744 21.7454 19.3456C21.7168 19.4884 21.6595 19.6026 21.6595 19.7168C21.6309 19.7168 21.5737 19.831 21.5737 19.8596C21.5451 19.8596 21.4879 20.0023 21.4593 20.0309C21.4593 20.1451 21.3163 20.2022 21.2591 20.3164C21.2018 20.3164 21.116 20.345 21.0302 20.3735C21.0302 20.4306 20.8586 20.4021 20.8014 20.4021C20.8014 20.4592 20.5439 20.4592 20.5153 20.4592C20.5153 20.4592 20.2864 20.6019 20.2578 20.6876C20.2006 20.8304 20.2292 20.9446 20.0862 21.0302C19.9432 21.1159 19.886 21.1445 19.8573 21.2872C19.8287 21.43 19.8001 21.6013 19.8001 21.7726C19.7715 21.9154 19.8001 22.0867 19.8001 22.258C19.8001 22.4294 19.7429 22.6007 19.7715 22.772C19.8001 22.9433 19.8573 23.1146 19.9146 23.286C19.9432 23.4002 20.0004 23.4573 20.0004 23.5429C20.0862 23.6001 20.172 23.7999 20.2006 23.8856C20.315 23.9713 20.3723 24.0569 20.4581 24.1426C20.4867 24.1426 20.5725 24.3424 20.6297 24.3424C20.6297 24.5138 20.6583 24.628 20.6297 24.7993C20.6011 24.7993 20.5725 25.6845 20.5725 25.7987C20.5439 26.1413 20.4295 26.484 20.4295 26.7695C20.4295 26.8266 20.3437 27.4833 20.315 27.4833L20.2864 28.397C20.2864 28.4256 20.2006 28.7397 20.2864 28.7397L20.315 29.3678C20.3437 29.3678 20.4581 29.8533 20.4867 29.9389C20.5153 29.9389 20.5725 30.1102 20.5725 30.1673C20.5725 30.1673 20.7155 30.3672 20.7155 30.4243C20.83 30.51 20.83 30.6242 20.9444 30.6813C20.9444 30.767 21.0874 30.8526 21.1446 30.9097C21.3735 31.1096 21.5165 31.3951 21.8312 31.4523C22.06 31.5094 22.5749 31.4808 22.5749 31.5665H22.861C23.0899 31.595 23.2043 31.595 23.4045 31.4808C23.4045 31.3951 23.5476 31.1953 23.6048 31.1667C23.6048 31.0525 23.7192 31.0525 23.7192 30.9383C23.805 30.9097 23.7764 30.6528 23.8336 30.6528C23.8336 30.5671 23.9194 30.4814 23.9194 30.3672C23.948 30.3672 23.8908 29.6248 23.8908 29.5392C23.805 29.5392 23.8336 28.911 23.8336 28.8253C23.8336 28.654 23.7764 28.4827 23.7764 28.3114C23.7764 28.1686 23.6906 28.0544 23.6906 27.9116C23.6906 27.7403 23.7192 27.5404 23.662 27.3691C23.6334 27.2263 23.6048 27.0836 23.6334 26.9408C23.662 26.9408 23.7764 26.3412 23.7764 26.2841C23.8622 26.2841 24.0339 25.7987 24.0339 25.7416C24.1197 25.6845 24.1769 25.5131 24.2913 25.5131C24.463 25.4846 24.4916 25.4846 24.6346 25.5988C24.7204 25.6845 24.8348 25.9414 24.9779 25.9414C25.0351 26.0271 25.2067 26.1699 25.3212 26.2555C25.407 26.3697 25.5214 26.3412 25.6072 26.4268C25.6644 26.484 25.7789 26.5411 25.8647 26.5411C25.9505 26.7409 26.2652 26.7695 26.3796 26.9694C26.4654 26.9694 26.6657 27.1407 26.7229 27.2263C26.8087 27.3406 26.9231 27.3977 27.0661 27.4548C27.1234 27.5404 27.2378 27.5975 27.3236 27.6832C27.4666 27.7689 27.5524 27.8545 27.6669 27.9687C27.7527 28.0544 27.8671 28.2257 27.9815 28.2257C28.0674 28.3114 28.1818 28.5112 28.2676 28.5398C28.3248 28.6255 28.4392 28.6826 28.4965 28.7682C28.6109 28.8539 28.6395 28.9681 28.7539 29.0538C28.8397 29.1394 28.9828 29.3964 29.0972 29.3964C29.0972 29.5106 29.2974 29.5963 29.3546 29.7105C29.4977 29.8247 29.6121 29.9389 29.7265 30.0817C29.841 30.0817 29.9554 30.253 30.0412 30.3672C30.1842 30.3672 30.2414 30.6242 30.3845 30.6242C30.3845 30.6528 30.5847 30.7384 30.6419 30.7384C30.8708 30.7955 30.9852 30.9097 31.2713 30.9097C31.3571 30.9097 31.9006 30.9383 31.9006 30.8526C32.0436 30.8526 32.3869 30.6528 32.4441 30.4814C32.5299 30.4529 32.6158 30.3958 32.673 30.3958C32.7302 30.2816 32.8732 30.2245 32.8732 30.1102C32.9018 30.0817 32.959 29.9675 32.959 29.9675C32.9877 29.8533 33.1593 29.7676 33.1593 29.6819C33.2451 29.6248 33.4454 29.4535 33.4454 29.3678C33.5026 29.3107 33.5884 29.3107 33.5884 29.2251C33.76 29.1109 33.8172 28.8539 33.8172 28.654C33.76 28.1686 33.76 27.7403 33.76 27.4262ZM28.1532 17.3754C28.1246 17.5467 28.0674 17.6038 28.0674 17.7466C28.0388 17.7466 27.9243 17.975 27.9243 18.0321C27.8671 18.0607 27.7527 18.232 27.7527 18.3177C27.6955 18.3462 27.6097 18.5175 27.5811 18.5175C27.5238 18.6603 27.4094 18.746 27.295 18.8602C27.2092 18.9458 27.0661 19.2314 26.9517 19.2314C26.9231 19.2885 26.8659 19.2885 26.8659 19.317C26.7801 19.317 26.7229 19.4313 26.6657 19.4884C26.6084 19.4884 26.4082 19.6311 26.3796 19.6882C26.3224 19.7453 26.2652 19.7739 26.1793 19.8025C26.0363 19.8025 25.9219 19.831 25.7502 19.8025C25.6358 19.7739 25.6358 19.6311 25.6358 19.5455C25.55 19.5455 25.693 18.7745 25.693 18.6889C25.7216 18.5461 25.7789 18.4604 25.7789 18.3748C25.8647 18.3748 25.7789 17.9179 25.8647 17.9179C25.8647 17.7752 25.9219 17.7181 25.9219 17.5753C25.9791 17.5753 25.9505 17.1755 25.9505 17.1184C26.0077 16.89 25.9505 16.6901 25.9505 16.4617C25.9505 16.3475 26.0077 15.8335 26.0649 15.8335C26.0649 15.7193 26.2366 15.4909 26.351 15.3767C26.6084 15.3767 26.7515 15.5194 26.9803 15.5194C26.9803 15.548 27.3808 15.7193 27.4666 15.7479C27.5524 15.8906 27.7241 15.9477 27.8099 16.062C27.9243 16.062 27.9529 16.2047 28.0388 16.2618C28.0388 16.2904 28.1246 16.4903 28.1246 16.4903C28.1818 16.6616 28.2104 16.7472 28.2104 16.9471C28.239 16.9757 28.2676 17.3754 28.1532 17.3754Z" fill="#8DC63F"/>
</svg>
