<svg width="129" height="48" viewBox="0 0 129 48" fill="none" xmlns="http://www.w3.org/2000/svg">
<g clip-path="url(#clip0_1146_10080)">
<path d="M111.014 24.3822H116.662L113.812 18.0692L111.014 24.3822ZM101.691 34.2774V31.531L103.66 31.2151C104.341 31.0933 104.629 30.2137 104.713 30.0125L109.619 18.7519C110.018 17.8666 109.628 17.089 109.115 17.0083L106.537 16.5805V13.8057H117.719C118.347 13.8057 118.745 14.4077 119.001 14.9304L125.532 29.0083C126.047 30.1315 126.445 31.0182 127.101 31.14L129.156 31.4644V34.2774H116.578V31.5026L118.175 31.2208C118.946 31.1018 119.574 30.6174 118.946 29.2902L118.347 28.0012H109.417L108.733 29.572C108.307 30.5352 108.733 31.1018 109.39 31.2208L110.987 31.5026V34.2774H101.691Z" fill="#CC0000"/>
<path d="M91.1386 30.3328H87.431V17.7053H91.1386C94.6744 17.7053 96.159 18.8738 96.159 24.0197C96.159 29.2095 94.6744 30.3328 91.1386 30.3328ZM93.3615 13.8059H78.9803L78.9773 16.5806L80.7793 16.8427C81.4544 16.9815 81.7266 17.6656 81.7266 18.5877V29.6104C81.7266 30.3738 81.4975 31.1019 80.8999 31.2209L78.9693 31.575V34.269L93.3615 34.2775C99.979 34.2775 102.832 29.7322 102.832 23.7407C102.832 18.3512 99.979 13.8059 93.3615 13.8059Z" fill="#CC0000"/>
<path d="M0.890015 34.2778H12.525V31.5413L10.5311 31.2212C10.073 31.1404 9.61697 30.7396 9.61697 29.3671V26.0724H18.573V29.2098C18.573 30.1305 18.4584 31.0186 17.689 31.1404L15.663 31.4648V34.2778H27.2999V31.4648L25.2457 31.1404C24.848 31.0625 24.3909 30.6178 24.3909 29.4506V18.792C24.3909 17.7056 24.6752 16.9818 25.2739 16.9025L27.2999 16.5809V13.8062H15.663V16.5413L17.689 16.9025C18.3731 17.0229 18.573 17.7877 18.573 18.792V21.969H9.61697V18.7523C9.61697 17.5455 9.9595 16.9818 10.5582 16.9025L12.525 16.5809V13.8062H0.917136V16.5809L2.8578 16.9025C3.62924 17.0229 3.82713 17.8274 3.799 18.8741V29.2481C3.799 30.4152 3.57098 31.1022 2.82967 31.2212L0.890015 31.5413V34.2778Z" fill="#CC0000"/>
<path d="M39.7353 16.9404C36.4286 16.9404 34.5452 18.6713 34.5452 23.9787C34.5452 29.3668 36.4286 31.1019 39.7353 31.1019C43.0441 31.1019 44.9275 29.3668 44.9275 23.9787C44.9275 18.6713 43.0441 16.9404 39.7353 16.9404ZM27.8724 23.939C27.8724 17.5056 31.5518 12.9999 39.7645 12.9999C47.9229 12.9999 51.6023 17.5056 51.6023 23.939C51.6023 30.5354 47.9229 34.9999 39.7645 34.9999C31.5518 34.9999 27.8724 30.5354 27.8724 23.939Z" fill="#CC0000"/>
<path d="M52.2502 34.2778H61.5487V31.5413L59.5508 31.2212C58.9792 31.1404 58.6377 30.4634 58.6377 29.5299V19.1135L66.3692 33.4733C66.6234 33.9563 67.1085 34.2778 67.5646 34.2778H74.8662V18.7523C74.8662 18.0243 75.0038 17.0271 75.7511 16.9025L77.7741 16.5809V13.8062H68.4776V16.5413L70.5037 16.9025C71.2189 17.0243 71.3866 17.8671 71.3866 18.8316V28.969L63.7144 14.69C63.4301 14.1673 63.0595 13.8062 62.517 13.8062H52.2502V16.5809L54.1889 16.9025C54.8719 17.0455 55.1301 17.5356 55.1301 18.8741V29.2481C55.1301 30.479 54.892 31.071 54.1597 31.2212L52.2502 31.5413V34.2778Z" fill="#CC0000"/>
</g>
<defs>
<clipPath id="clip0_1146_10080">
<rect width="129" height="48" fill="white"/>
</clipPath>
</defs>
</svg>
