<svg width="87" height="48" viewBox="0 0 87 48" fill="none" xmlns="http://www.w3.org/2000/svg">
<g clip-path="url(#clip0_1146_10074)">
<path d="M7.67222 7.46531H1.44708V13.6905H7.67222V7.46531Z" fill="#00C7FD"/>
<path d="M7.51715 39.8981V17.4787H1.62431V39.8981H7.51715ZM46.6846 40.1196V34.6256C45.8206 34.6256 45.0895 34.5812 44.5578 34.4926C43.9375 34.404 43.4723 34.1825 43.1622 33.8723C42.852 33.5622 42.6526 33.1191 42.5419 32.5431C42.4533 31.9893 42.409 31.2582 42.409 30.3721V22.5297H46.6846V17.4787H42.409V8.72807H36.494V30.4164C36.494 32.2551 36.649 33.8059 36.9592 35.0465C37.2693 36.2649 37.801 37.2618 38.5321 38.015C39.2632 38.7683 40.2379 39.3 41.412 39.6323C42.6083 39.9646 44.1148 40.1196 45.9092 40.1196H46.6846ZM80.5352 39.8981V7.00009H74.6202V39.8981H80.5352ZM30.8005 19.6719C29.1611 17.8996 26.8572 17.0135 23.9329 17.0135C22.5151 17.0135 21.2302 17.3015 20.056 17.8775C18.9041 18.4535 17.9072 19.251 17.1318 20.2701L16.7995 20.691V17.4787H10.9731V39.8981H16.8438V27.9573V28.777C16.8438 28.6441 16.8438 28.5112 16.8438 28.3783C16.9102 26.2737 17.4198 24.7229 18.3945 23.726C19.4357 22.6626 20.6985 22.131 22.1385 22.131C23.8443 22.131 25.1514 22.6626 26.0153 23.6817C26.8572 24.7008 27.3003 26.1408 27.3003 27.9795V39.8759H33.2596V27.1598C33.2817 23.9697 32.4399 21.4442 30.8005 19.6719ZM71.563 28.6441C71.563 27.0269 71.275 25.5205 70.7212 24.1026C70.1452 22.707 69.3476 21.4664 68.3507 20.403C67.3317 19.3396 66.1132 18.5199 64.6954 17.9218C63.2776 17.3236 61.7047 17.0356 59.9989 17.0356C58.3817 17.0356 56.8531 17.3458 55.4352 17.9439C54.0174 18.5642 52.7768 19.3839 51.7356 20.4251C50.6944 21.4664 49.8525 22.707 49.2544 24.1248C48.6341 25.5426 48.3461 27.0712 48.3461 28.6884C48.3461 30.3056 48.6341 31.8342 49.2101 33.252C49.7861 34.6699 50.6058 35.9105 51.6248 36.9517C52.6439 37.9929 53.9066 38.8347 55.3688 39.4329C56.8309 40.0532 58.4481 40.3633 60.1761 40.3633C65.1828 40.3633 68.2843 38.0815 70.1452 35.9548L65.8917 32.7204C65.0056 33.7837 62.8788 35.2237 60.2204 35.2237C58.5589 35.2237 57.1854 34.8471 56.1441 34.0717C55.1029 33.3185 54.394 32.2551 54.0174 30.9481L53.9509 30.7487H71.563V28.6441ZM53.9953 26.5838C53.9953 24.9445 55.8783 22.0867 59.9324 22.0645C63.9865 22.0645 65.8917 24.9223 65.8917 26.5617L53.9953 26.5838Z" fill="#0068B5"/>
<path d="M87.2699 36.9738C87.1591 36.708 87.004 36.4864 86.8046 36.2871C86.6052 36.0877 86.3837 35.9326 86.1179 35.8218C85.852 35.7111 85.564 35.6446 85.276 35.6446C84.9659 35.6446 84.7 35.7111 84.4342 35.8218C84.1684 35.9326 83.9468 36.0877 83.7474 36.2871C83.5481 36.4864 83.393 36.708 83.2822 36.9738C83.1715 37.2397 83.105 37.5277 83.105 37.8157C83.105 38.1258 83.1715 38.3916 83.2822 38.6575C83.393 38.9233 83.5481 39.1449 83.7474 39.3442C83.9468 39.5436 84.1684 39.6987 84.4342 39.8095C84.7 39.9202 84.988 39.9867 85.276 39.9867C85.5862 39.9867 85.852 39.9202 86.1179 39.8095C86.3837 39.6987 86.6052 39.5436 86.8046 39.3442C87.004 39.1449 87.1591 38.9233 87.2699 38.6575C87.3806 38.3916 87.4471 38.1036 87.4471 37.8157C87.4471 37.5277 87.3806 37.2397 87.2699 36.9738ZM86.9154 38.5246C86.8268 38.7461 86.6939 38.9455 86.5388 39.1006C86.3837 39.2556 86.1843 39.3886 85.9628 39.4772C85.7413 39.5658 85.5197 39.6101 85.2539 39.6101C85.0102 39.6101 84.7665 39.5658 84.545 39.4772C84.3234 39.3886 84.1241 39.2556 83.969 39.1006C83.8139 38.9455 83.681 38.7461 83.5924 38.5246C83.5037 38.303 83.4594 38.0815 83.4594 37.8157C83.4594 37.572 83.5037 37.3283 83.5924 37.1067C83.681 36.8852 83.8139 36.6858 83.969 36.5307C84.1241 36.3757 84.3234 36.2428 84.545 36.1541C84.7665 36.0655 84.988 36.0212 85.2539 36.0212C85.4976 36.0212 85.7413 36.0655 85.9628 36.1541C86.1843 36.2428 86.3837 36.3757 86.5388 36.5307C86.6939 36.6858 86.8268 36.8852 86.9154 37.1067C87.004 37.3283 87.0483 37.5498 87.0483 37.8157C87.0705 38.0815 87.004 38.303 86.9154 38.5246ZM85.6748 37.9929C85.852 37.9707 85.9849 37.9043 86.0957 37.7935C86.2065 37.6827 86.2729 37.5277 86.2729 37.3061C86.2729 37.0624 86.2065 36.8852 86.0514 36.7523C85.9185 36.6194 85.6748 36.5529 85.3868 36.5529H84.412V39.0563H84.8773V38.0372H85.2096L85.8299 39.0563H86.3172L85.6748 37.9929ZM85.4311 37.6384C85.3646 37.6384 85.2982 37.6384 85.2096 37.6384H84.8773V36.9295H85.2096C85.276 36.9295 85.3425 36.9295 85.4311 36.9295C85.4976 36.9295 85.564 36.9517 85.6305 36.9738C85.697 36.996 85.7413 37.0403 85.7634 37.0846C85.7856 37.1289 85.8077 37.1954 85.8077 37.284C85.8077 37.3726 85.7856 37.439 85.7634 37.4834C85.7191 37.5277 85.6748 37.572 85.6305 37.5941C85.564 37.6163 85.4976 37.6384 85.4311 37.6384Z" fill="#0068B5"/>
</g>
<defs>
<clipPath id="clip0_1146_10074">
<rect width="87" height="48" fill="white"/>
</clipPath>
</defs>
</svg>
