<svg width="164" height="48" viewBox="0 0 164 48" fill="none" xmlns="http://www.w3.org/2000/svg">
<g clip-path="url(#clip0_1146_10119)">
<path fill-rule="evenodd" clip-rule="evenodd" d="M31.1945 5.33385C37.7496 8.78125 42.2275 15.6544 42.2275 23.577C42.2275 31.4996 37.7496 38.3944 31.1945 41.8207V39.465C33.7014 37.9653 35.8219 35.8669 37.365 33.3834L31.1945 30.8787V27.0672L37.9642 32.3561C39.3782 29.7436 40.1709 26.767 40.1709 23.5764C40.1709 16.8528 36.5712 10.9435 31.1945 7.68846V5.33385ZM21.6612 2.99982C25.0891 2.99982 28.3236 3.83526 31.1945 5.33385V7.68955C28.5592 6.10427 25.4743 5.16264 22.2182 5.05537L24.5744 21.9072L31.1945 27.0672V30.8787L21.6179 27.0033L12.1056 30.9004V27.11L18.7686 21.9067L21.1037 5.05483C17.8042 5.1621 14.7409 6.10427 12.1056 7.68846V5.33385C14.9555 3.83526 18.2116 2.99982 21.6612 2.99982ZM31.1945 41.8207C28.3236 43.3193 25.0886 44.1753 21.6612 44.1753C18.2122 44.1753 14.956 43.3193 12.1062 41.8418V39.465C14.8915 41.1559 18.1688 42.1197 21.6612 42.1197C25.1319 42.1197 28.3886 41.1559 31.1945 39.465V41.8207ZM12.1062 41.8418C5.52886 38.3944 1.05151 31.4996 1.05151 23.577C1.05151 15.6544 5.52832 8.78125 12.1056 5.33385L12.1062 7.68955C6.70726 10.9441 3.10815 16.8322 3.10815 23.577C3.10815 26.767 3.92246 29.787 5.33653 32.399L12.1056 27.11V30.9004L5.95742 33.4262C7.4999 35.8897 9.59933 37.9658 12.1062 39.465V41.8418Z" fill="#231F20"/>
<path d="M105.417 16.9201C104.473 17.1707 103.623 17.3216 102.567 17.4351V17.7558C103.756 17.7558 103.907 17.8887 103.907 18.8707V22.172C103.209 21.0401 102.661 20.701 101.642 20.701C99.6221 20.701 98.2083 22.606 98.2083 25.3238C98.2083 28.0416 99.6417 29.9481 101.699 29.9481C102.775 29.9481 103.51 29.4584 104.038 28.4015C104.114 29.118 104.115 29.1936 104.304 29.9111C105.077 29.6654 105.398 29.589 106.512 29.4578L106.794 29.4192V29.0985C105.53 29.061 105.417 28.9662 105.417 27.8156V16.9201ZM54.4952 17.0573C53.7778 17.1333 53.3997 17.1529 52.7019 17.1529C52.173 17.1529 51.8906 17.1346 51.1554 17.0774V17.5477C52.457 17.6237 52.7204 17.8126 52.7204 18.681V18.7951L52.3242 28.0607C52.2867 29.0802 52.099 29.2304 50.7776 29.3252V29.7785C51.7595 29.7025 52.1354 29.6844 52.6634 29.6844C53.1924 29.6844 53.5691 29.7025 54.5323 29.7785V29.3252C53.2109 29.2304 52.9656 29.0603 52.9656 28.2304V28.0607L53.3434 18.2662L56.4381 26.6267L56.6648 27.2867L56.93 28.0222L57.1937 28.7593L57.4018 29.3637H57.6856L57.8922 28.7408L58.1373 28.0222L58.401 27.3252L58.6277 26.7007L61.7425 18.2847L61.9121 28.0607V28.1548C61.9121 29.042 61.6293 29.2492 60.3454 29.3252V29.7785C61.5346 29.665 61.9872 29.6274 62.7046 29.6274C63.4211 29.6274 63.8747 29.665 65.0638 29.7785V29.3252C63.7049 29.2304 63.5345 29.0802 63.5157 28.0608L63.3091 18.7951V18.6625C63.3091 17.8128 63.5918 17.6237 64.8757 17.5477V17.0774C64.1583 17.1346 63.8564 17.1529 63.3846 17.1529C62.8182 17.1529 62.4225 17.1333 61.5728 17.0573L58.0063 26.6082L54.4952 17.0573ZM127.909 17.1329V17.6062C129.268 17.6812 129.458 17.8312 129.458 18.8506V28.0037C129.458 29.0231 129.307 29.1546 127.909 29.2681V29.7214H132.685C134.081 29.7214 134.836 29.5519 135.629 29.0615C136.573 28.4575 137.195 27.3055 137.195 26.1163C137.195 25.0979 136.761 24.174 136.025 23.6076C135.628 23.3056 135.213 23.1353 134.534 23.0031C135.893 22.4939 136.611 21.531 136.611 20.2106C136.611 19.2287 136.195 18.3596 135.477 17.8129C134.836 17.3412 134.1 17.1329 132.873 17.1329L127.909 17.1329ZM131.043 17.7188H132.646C134.232 17.7188 134.93 18.492 134.93 20.2476C134.93 21.1151 134.724 21.7386 134.309 22.229C133.893 22.7008 133.384 22.852 132.326 22.852H131.043V17.7188ZM87.6366 20.4172L87.1262 21.3794C86.5222 20.7942 86.013 20.5869 85.2018 20.5869C82.9745 20.5869 81.4641 22.5122 81.4641 25.3238C81.4641 28.079 82.9559 29.9296 85.1448 29.9296C86.8441 29.9296 87.9192 28.8339 88.1639 26.8148H87.3899C87.1639 28.4757 86.4648 29.3066 85.2943 29.3066C83.8417 29.3066 83.1063 27.9665 83.1063 25.3238C83.1063 22.6247 83.9378 21.0972 85.3529 21.0972C86.5046 21.0972 87.2015 21.8893 87.541 23.5305H87.9573V20.4172L87.6366 20.4172ZM121.453 20.4743L121.133 21.2468C120.491 20.8136 119.944 20.6439 119.208 20.6439C117.547 20.6439 116.377 21.6631 116.377 23.1542C116.377 24.2486 116.812 24.7769 118.189 25.4194L119.057 25.8141L119.774 26.1348C120.699 26.5503 121.059 26.9845 121.059 27.6259C121.059 28.5891 120.227 29.3251 119.114 29.3251C117.793 29.3251 117 28.495 116.659 26.7778L116.246 26.7963V29.9481H116.585L117.037 29.0985C117.755 29.6649 118.434 29.891 119.302 29.891C121.077 29.891 122.341 28.76 122.341 27.1741C122.341 26.0609 121.831 25.4561 120.397 24.8334L119.604 24.4942C117.886 23.7392 117.605 23.4944 117.605 22.7394C117.605 21.8523 118.378 21.1728 119.378 21.1728C120.567 21.1728 121.189 21.8905 121.359 23.3994H121.794V20.4743H121.453ZM149.352 20.4743C148.599 20.7388 147.956 20.8892 146.86 21.0402V21.3609C146.955 21.3609 147.051 21.3794 147.107 21.3794C148.051 21.3794 148.163 21.4939 148.182 22.2676V28.3815C148.182 29.1927 147.995 29.3444 146.843 29.4007V29.7785C147.825 29.6838 148.22 29.6659 148.88 29.6659C149.56 29.6659 149.938 29.6837 150.92 29.7785V29.4007C149.938 29.3632 149.693 29.174 149.693 28.42V23.8512C149.693 22.3038 150.372 21.4935 151.656 21.4935C152.863 21.4935 153.353 22.1536 153.353 23.7957V28.42C153.353 29.174 153.108 29.3632 152.089 29.4007V29.7785C153.07 29.6838 153.447 29.6659 154.146 29.6659C154.825 29.6659 155.204 29.6837 156.204 29.7785V29.4007C155.053 29.3445 154.863 29.1927 154.863 28.3815V23.8512C154.863 23.1347 154.769 22.6065 154.579 22.1535C154.202 21.2288 153.221 20.6439 152.089 20.6439C150.996 20.6439 150.22 21.0971 149.54 22.1165C149.502 21.399 149.447 20.9085 149.352 20.4743ZM76.718 20.5113C75.9433 20.7373 75.3018 20.8514 74.2262 20.9461V21.2854H74.4713C75.4523 21.3041 75.5474 21.3994 75.5661 22.2105V28.3815C75.5661 29.1927 75.3593 29.3444 74.2077 29.4007V29.7785C75.2458 29.6837 75.6417 29.6644 76.3217 29.6644C76.9819 29.6644 77.3785 29.6837 78.4157 29.7785V29.4007C77.265 29.3444 77.0757 29.1927 77.0757 28.3815V24.4371C77.0757 22.568 77.6984 21.381 78.6793 21.381C79.0188 21.381 79.2468 21.5683 79.2468 21.8328V22.0024L79.2083 22.192C79.1896 22.268 79.1712 22.3426 79.1712 22.3802C79.1712 22.7581 79.5111 23.0216 79.9453 23.0216C80.417 23.0216 80.7379 22.6626 80.7379 22.1149C80.7379 21.21 80.0391 20.5869 79.0957 20.5869C78.1147 20.5869 77.3021 21.2104 76.8876 22.2861V22.0779C76.8492 21.5115 76.8117 21.21 76.718 20.5113ZM69.6481 20.5868C67.3832 20.5868 65.969 22.4175 65.969 25.3237C65.969 28.23 67.3831 29.9296 69.8177 29.9296C71.6671 29.9296 72.8748 28.7774 73.1206 26.8333H72.3666C72.1396 28.438 71.309 29.3066 69.9688 29.3066C68.2517 29.3066 67.4973 27.9863 67.4785 25.0416H73.1021C73.0646 22.1353 71.8754 20.5868 69.6481 20.5868ZM93.1892 20.5868C90.9243 20.5868 89.5085 22.4175 89.5085 25.3237C89.5085 28.23 90.9242 29.9296 93.3588 29.9296C95.2082 29.9296 96.4169 28.7774 96.6617 26.8333H95.9061C95.6801 28.438 94.8501 29.3066 93.5099 29.3066C91.7928 29.3066 91.0368 27.9863 91.0181 25.0416H96.6432C96.6047 22.1353 95.4165 20.5868 93.1892 20.5868ZM111.19 20.5868C108.925 20.5868 107.509 22.4175 107.509 25.3237C107.509 28.23 108.925 29.9296 111.36 29.9296C113.209 29.9296 114.417 28.7774 114.663 26.8333H113.907C113.68 28.438 112.851 29.3066 111.511 29.3066C109.794 29.3066 109.038 27.9863 109.019 25.0416H114.644C114.605 22.1353 113.416 20.5868 111.19 20.5868ZM142.409 20.5868C140.144 20.5868 138.728 22.4175 138.728 25.3237C138.728 28.23 140.144 29.9296 142.578 29.9296C144.428 29.9296 145.635 28.7774 145.881 26.8333H145.125C144.899 28.438 144.07 29.3066 142.731 29.3066C141.013 29.3066 140.258 27.9863 140.239 25.0416H145.863C145.824 22.1353 144.636 20.5868 142.409 20.5868ZM157.58 20.8135L157.143 23.2668H157.523C158.202 21.5684 158.503 21.3039 159.731 21.3039H162.05L156.937 29.7214H163.429L163.92 27.0045H163.524C162.957 28.7216 162.43 29.2311 161.145 29.2311H158.938L164.072 20.8135L157.58 20.8135ZM69.6296 21.0772C70.8562 21.0772 71.479 22.1342 71.5925 24.3616H67.5155C67.704 22.1915 68.4217 21.0772 69.6296 21.0772ZM93.1691 21.0772C94.3958 21.0772 95.0186 22.1342 95.132 24.3616H91.0551C91.2436 22.1915 91.9612 21.0772 93.1691 21.0772ZM111.172 21.0772C112.398 21.0772 113.021 22.1342 113.134 24.3616H109.057C109.246 22.1915 109.964 21.0772 111.172 21.0772ZM142.39 21.0772C143.617 21.0772 144.239 22.1342 144.353 24.3616H140.276C140.464 22.1915 141.182 21.0772 142.39 21.0772ZM101.812 21.2283C103.208 21.2283 103.926 22.6638 103.926 25.4379C103.926 28.0609 103.228 29.4192 101.869 29.4192C100.51 29.4192 99.7934 28.0043 99.7934 25.3053C99.7934 22.5687 100.453 21.2283 101.812 21.2283ZM131.043 23.4379H132.836C133.837 23.4379 134.402 23.6066 134.836 24.0408C135.27 24.4751 135.514 25.2859 135.514 26.1919C135.514 28.0787 134.571 29.137 132.892 29.137H132.213C131.212 29.137 131.043 28.9847 131.043 28.1548V23.4379ZM123.473 24.1858V25.1619H127.691V24.1858H123.473Z" fill="#231F20"/>
</g>
<defs>
<clipPath id="clip0_1146_10119">
<rect width="164" height="48" fill="white"/>
</clipPath>
</defs>
</svg>
