<svg width="184" height="48" viewBox="0 0 184 48" fill="none" xmlns="http://www.w3.org/2000/svg">
<path d="M14.1163 14.0198C12.737 16.2204 11.5337 18.201 11.431 18.4064C11.2549 18.8025 11.2989 18.9052 12.693 21.2965C12.9865 21.8247 13.368 22.4849 13.5294 22.7636C15.2462 25.7711 16.3615 27.7224 16.5082 27.9424C16.6696 28.1772 16.7577 28.0745 17.3446 27.0622C17.7115 26.4313 18.9734 24.2747 20.162 22.2648C21.38 20.2109 22.3044 18.5237 22.2604 18.377C22.231 18.245 21.0718 16.4551 19.7071 14.4012C18.3424 12.3473 17.1392 10.5134 17.0365 10.3227C16.9484 10.1466 16.8164 9.99994 16.743 9.99994C16.6696 9.99994 15.4957 11.8045 14.1163 14.0198Z" fill="#ED1B24"/>
<path d="M85.828 18.4064C84.434 18.8318 83.6269 19.3013 82.6437 20.2989C80.9562 22.0008 80.4867 24.3188 81.3818 26.5487C81.6752 27.3263 83.0253 28.5733 84.0084 28.9988C84.4193 29.1748 85.5051 29.4976 86.4296 29.7176C89.1883 30.3632 89.8486 30.8033 89.8486 32.0063C89.8486 33.5467 88.1611 34.2656 85.9454 33.6934C84.9329 33.4294 83.5682 32.7545 82.9079 32.197C82.6437 31.977 82.3943 31.8596 82.3649 31.9329C82.3356 32.021 81.822 32.9012 81.2057 33.8842L80.1051 35.6887L80.4426 35.9674C81.0589 36.4809 83.3921 37.5666 84.5954 37.8893C85.5051 38.1387 86.2242 38.2121 87.7503 38.2268C89.9954 38.2414 90.8318 38.08 92.3872 37.3465C94.8965 36.1582 96.2758 33.8402 96.0704 31.126C95.9383 29.4389 95.6302 28.7053 94.5737 27.6637C93.4584 26.5781 92.2111 26.0059 89.9073 25.5658C88.1905 25.2283 87.6035 24.9936 87.2514 24.4948C86.7671 23.8053 87.1486 22.7343 87.9704 22.3822C89.0269 21.9421 90.8318 22.2355 92.1965 23.0717C92.578 23.3065 92.9448 23.4972 93.0035 23.4972C93.1356 23.4972 95.0285 19.8735 94.9405 19.7854C94.8965 19.7414 94.4416 19.5067 93.928 19.2426C91.5948 18.0836 88.1611 17.7315 85.828 18.4064Z" fill="#101828"/>
<path d="M142.924 18.4504C140.122 19.1986 138.302 20.9738 137.774 23.4678C137.407 25.2577 138.038 27.2089 139.315 28.2212C140.386 29.0721 140.885 29.2775 142.998 29.791C144.054 30.0551 145.169 30.3925 145.492 30.5392C146.842 31.1847 146.989 32.8719 145.756 33.6348C144.436 34.4563 141.721 33.8989 139.696 32.3878L139.197 32.0063L138.728 32.7692C138.463 33.1947 137.979 34.0015 137.642 34.5444C137.304 35.1019 137.011 35.6594 136.996 35.7914C136.981 36.1142 139.168 37.3465 140.621 37.8013C142.954 38.5495 146.167 38.5935 148.134 37.9187C151.421 36.8037 153.269 33.8695 152.756 30.6272C152.33 27.9571 150.555 26.4901 146.842 25.7418C144.964 25.3604 144.671 25.2577 144.142 24.7736C143.717 24.3921 143.687 23.5412 144.098 23.0277C144.524 22.4702 145.14 22.2795 146.285 22.3529C147.136 22.3969 147.517 22.5142 148.53 23.0277C149.19 23.3652 149.777 23.5999 149.836 23.5265C149.997 23.3505 151.729 20.1229 151.729 19.9908C151.729 19.7708 149.454 18.8172 148.207 18.5091C146.696 18.157 144.142 18.1276 142.924 18.4504Z" fill="#101828"/>
<path d="M180.152 18.8612C179.433 19.1253 179.096 19.4333 178.729 20.1816C178.289 21.1058 178.333 22.1034 178.861 22.9397C180.049 24.8176 182.808 24.5975 183.733 22.5436C184.246 21.4286 184.011 20.3136 183.102 19.4187C182.309 18.6705 181.267 18.4651 180.152 18.8612ZM182.207 19.404C183.366 19.9615 183.777 21.4873 183.087 22.6756C182.074 24.4655 179.404 23.9813 179.037 21.9421C178.832 20.8124 179.257 19.8735 180.196 19.3747C180.857 19.0079 181.429 19.0226 182.207 19.404Z" fill="#101828"/>
<path d="M180.196 21.4432C180.196 22.7783 180.24 23.057 180.416 23.057C180.578 23.057 180.636 22.881 180.636 22.3235C180.636 21.3259 181.003 21.3259 181.561 22.3235C181.84 22.8223 182.074 23.057 182.265 23.057C182.529 23.057 182.515 22.9984 182.104 22.4115C181.605 21.678 181.576 21.59 181.869 21.59C182.163 21.59 182.441 21.1938 182.441 20.7537C182.441 20.1522 181.928 19.8295 180.989 19.8295H180.196V21.4432ZM181.942 20.6217C182.001 20.9885 181.59 21.2965 181.047 21.2965C180.68 21.2965 180.636 21.2525 180.636 20.7684V20.2549L181.253 20.2989C181.737 20.3283 181.898 20.4016 181.942 20.6217Z" fill="#101828"/>
<path d="M35.3642 38.1681H39.7664L39.7811 31.6689C39.7811 27.8398 39.8398 25.3017 39.9132 25.4777C39.9865 25.6391 40.3681 26.8275 40.7789 28.1185C41.1898 29.4095 42.0702 32.1823 42.7599 34.2803L43.9925 38.0947H47.6023L48.0132 36.701C48.6442 34.6324 50.3023 28.9401 50.8599 27.0475C51.1094 26.1379 51.3735 25.3457 51.4322 25.287C51.4909 25.2283 51.5056 28.1038 51.4762 31.6689L51.3882 38.1681H56.1279V18.8758H48.9817L48.1746 21.5166C47.7344 22.969 47.0887 25.1403 46.7219 26.358C46.355 27.561 46.0322 28.6613 45.9735 28.7787C45.9001 28.9841 45.0637 26.5487 43.3615 21.1205L42.6278 18.8025H35.3642V38.1681Z" fill="#101828"/>
<path d="M57.8154 38.1681H63.1714V18.8758L60.5007 18.8318L57.8154 18.8025V38.1681Z" fill="#101828"/>
<path d="M64.4187 22.6169H69.848V38.1681H75.0866L75.1747 35.0578C75.2334 33.356 75.2774 29.8643 75.2774 27.2823V22.6169H80.4133V18.8025H64.4187V22.6169Z" fill="#101828"/>
<path d="M96.9949 25.4484C96.9949 31.4928 97.0242 32.197 97.2737 33.1506C98.1835 36.6276 101.837 38.931 105.682 38.4468C107.633 38.1974 108.998 37.5666 110.407 36.2609C111.478 35.2632 111.948 34.5297 112.373 33.2533C112.652 32.4317 112.681 31.9036 112.725 25.6245L112.769 18.8758L108.162 18.7878L108.118 25.4337C108.074 31.9476 108.074 32.0943 107.751 32.6812C107.091 33.8988 105.785 34.6471 104.64 34.427C103.98 34.295 102.967 33.312 102.703 32.5198C102.556 32.0796 102.498 30.3191 102.454 25.3604L102.41 18.8025H96.9949V25.4484Z" fill="#101828"/>
<path d="M113.723 38.4908L119.417 38.4321C124.729 38.3735 125.169 38.3441 126.167 38.0507C128.779 37.2585 129.718 36.4076 130.246 34.339C130.657 32.7252 130.319 30.994 129.351 29.7176C129.145 29.4536 128.544 29.0134 127.972 28.7347L126.959 28.2212L127.663 27.7664C128.529 27.2089 129.234 26.4167 129.586 25.6245C129.923 24.8762 130.202 23.1451 130.085 22.5876C129.835 21.5019 127.898 19.6681 126.372 19.0959C125.638 18.8172 125.242 18.8025 119.666 18.8025H113.723V38.4908ZM123.569 22.8076C124.626 23.5119 124.685 25.2283 123.657 25.8445C123.261 26.0939 122.909 26.1379 121.324 26.1379H119.446V22.4702H121.266C122.909 22.4702 123.114 22.4996 123.569 22.8076ZM123.834 30.9206C124.156 31.0527 124.523 31.3021 124.641 31.4928C125.154 32.2704 124.787 33.5908 123.892 34.1629C123.555 34.383 123.173 34.427 121.456 34.427H119.431V32.6225C119.431 31.6395 119.431 30.8033 119.446 30.7593C119.446 30.7153 120.297 30.6859 121.354 30.6859C122.748 30.6859 123.408 30.7446 123.834 30.9206Z" fill="#101828"/>
<path d="M130.892 38.3148H136.321V18.9492H134.824C133.988 18.9492 132.77 18.9052 132.11 18.8465L130.892 18.7585V38.3148Z" fill="#101828"/>
<path d="M153.548 18.9345C153.519 18.9639 153.49 23.3505 153.49 28.6613V38.3148H158.772V30.3925H164.202V38.3148H169.484V18.9492H164.202V25.6978H158.772V18.9639L156.19 18.9199C154.766 18.8905 153.578 18.9052 153.548 18.9345Z" fill="#101828"/>
<path d="M171.274 28.588L171.318 38.2414H176.454L176.498 28.588L176.528 18.9492H171.245L171.274 28.588Z" fill="#101828"/>
<path d="M2.80273 33.2533C1.26196 35.8647 0 38.0507 0 38.0947C0 38.1387 2.4212 38.1534 5.38534 38.1387L10.7707 38.0947L12.0326 35.9674C12.7223 34.7938 13.9843 32.6811 14.8354 31.2727C15.6718 29.8643 16.3908 28.6613 16.4055 28.6026C16.4348 28.544 14.0136 28.4853 11.0348 28.4853H5.60545L2.80273 33.2533Z" fill="#ED1B24"/>
<path d="M16.9337 28.7053C16.9778 28.8227 17.3886 29.5709 17.8729 30.3485C18.3424 31.1407 19.5164 33.18 20.4702 34.8965L22.231 38.0067L28.0126 38.0214C32.9724 38.0214 33.7648 37.992 33.7061 37.816C33.618 37.6106 32.7963 36.2462 31.2995 33.8402C30.9034 33.1946 29.9936 31.7276 29.2745 30.5686L27.9832 28.4853H22.4071C17.5501 28.4853 16.8604 28.5146 16.9337 28.7053Z" fill="#ED1B24"/>
</svg>
