<svg width="115" height="48" viewBox="0 0 115 48" fill="none" xmlns="http://www.w3.org/2000/svg">
<path d="M60.9454 16.025C60.7869 16.2167 60.6973 16.4307 60.6973 16.8028V27.0349H60.6405C60.6405 27.0349 55.0297 17.0504 54.7585 16.5888C54.5664 16.2614 54.352 16.0362 54.0696 15.8669C53.7872 15.7096 53.4936 15.6081 52.9295 15.6081H51.0782C50.6485 15.6081 50.3781 15.7543 50.1861 15.9803C50.0277 16.1711 49.9373 16.386 49.9373 16.7573V31.2609C49.9373 31.633 50.0277 31.8471 50.1861 32.0387C50.3781 32.2639 50.6485 32.41 51.0782 32.41H52.1278C52.5567 32.41 52.8279 32.2639 53.0199 32.0387C53.1775 31.8471 53.2679 31.633 53.2679 31.2609V20.7805H53.3247C53.3247 20.7805 59.15 31.0804 59.3876 31.4637C59.7149 32.0044 60.2677 32.41 61.0582 32.41H62.8535C63.2824 32.41 63.5536 32.2639 63.7456 32.0387C63.9032 31.8471 63.9936 31.633 63.9936 31.2609V18.1771H87.5787C87.8164 18.1771 87.9964 18.1101 88.1324 17.9975C88.2788 17.8617 88.3468 17.6812 88.3468 17.4113V16.4195C88.3468 16.1488 88.2788 15.9683 88.1324 15.8333C87.9964 15.7207 87.8164 15.6529 87.5787 15.6529H61.8374C61.4086 15.6529 61.1374 15.7998 60.9454 16.025ZM71.2422 19.9013C67.3243 19.9013 65.1225 22.9558 65.1225 26.1788C65.1225 29.6159 67.4827 32.636 71.2646 32.636C73.1504 32.636 75.0017 31.9261 76.0626 30.6748C76.5258 30.1341 76.8987 29.3787 76.8987 28.9171C76.8987 28.759 76.8643 28.624 76.7747 28.5226C76.6842 28.41 76.5482 28.3421 76.3114 28.3421H74.4937C74.132 28.3421 73.884 28.4771 73.7032 28.7478C73.1728 29.5256 72.4047 29.9313 71.2758 29.9313C69.5821 29.9313 68.4876 28.6464 68.4084 27.2377H76.2666C76.6162 27.2377 76.8643 27.1587 77.0339 26.9902C77.2259 26.8097 77.3163 26.5501 77.3163 26.0654C77.3163 24.5897 76.8531 23.0572 75.8826 21.8849C74.8889 20.7014 73.376 19.9013 71.2422 19.9013ZM83.356 19.9013C80.2629 19.9013 78.2308 21.3666 78.2308 23.7104C78.2308 24.5441 78.5356 25.2205 79.0324 25.75C79.6085 26.3705 80.4326 26.7985 81.6295 27.1028L84.2145 27.756C84.9257 27.9365 85.5578 28.1505 85.5578 28.7702C85.5578 29.7284 84.5417 30.0551 83.4584 30.0551C82.9272 30.0551 82.3743 29.9536 81.9223 29.7284C81.6062 29.5703 81.3358 29.3451 81.1438 29.0409C80.9742 28.7813 80.9182 28.5897 80.6582 28.4436C80.4998 28.3533 80.3077 28.3421 80.0485 28.3421H78.6484C78.3436 28.3421 78.1972 28.4324 78.0956 28.5562C77.994 28.6799 77.9596 28.8604 77.9596 29.0409C77.9596 29.4913 78.118 30.0551 78.4908 30.5622C79.3485 31.7113 81.1438 32.636 83.4352 32.636C85.6938 32.636 88.8212 31.7001 88.8212 28.6799C88.8212 27.9029 88.5948 27.2377 88.1772 26.6971C87.6467 26.0095 86.8907 25.536 85.6034 25.2093L83.0408 24.5553C81.9791 24.2854 81.4822 24.0937 81.4822 23.4397C81.4822 22.8088 82.0471 22.3018 83.356 22.3018C84.1241 22.3018 84.8241 22.4711 85.2761 22.9446C85.6482 23.3391 85.581 23.5419 85.8746 23.6993C86.0546 23.7895 86.2578 23.7895 86.5747 23.7895H87.85C88.0532 23.7895 88.2004 23.756 88.3124 23.6314C88.4036 23.53 88.4596 23.3726 88.4596 23.1131C88.4596 22.527 88.0756 21.7723 87.3987 21.1973C86.4954 20.4195 85.0729 19.9013 83.356 19.9013ZM90.3902 20.3301H89.7581C89.5213 20.3301 89.3405 20.3972 89.2053 20.5098C89.0581 20.6455 88.9901 20.826 88.9901 21.0959V21.8737C88.9901 22.1444 89.0581 22.3241 89.2053 22.4599C89.3405 22.5725 89.5213 22.6404 89.7581 22.6404H90.3902V28.2631C90.3902 29.7053 90.7854 30.6069 91.5191 31.3288C92.1967 31.9932 93.0776 32.41 94.6129 32.41H95.5722C95.8098 32.41 95.9898 32.343 96.1258 32.2304C96.2722 32.0946 96.3627 31.9141 96.3627 31.6442V30.6636C96.3627 30.3929 96.2722 30.2132 96.1258 30.0774C95.9898 29.9648 95.8098 29.8969 95.5722 29.8969H95.437C94.8273 29.8969 94.4097 29.7396 94.1273 29.4689C93.7888 29.1535 93.6192 28.6687 93.6192 28.0379V22.6404H95.6746C95.9114 22.6404 96.0922 22.5725 96.2274 22.4599C96.3739 22.3241 96.4419 22.1444 96.4419 21.8737V21.0959C96.4419 20.826 96.3739 20.6455 96.2274 20.5098C96.0922 20.3972 95.9114 20.3301 95.6746 20.3301H93.6304V16.6559C93.6304 16.3628 93.54 16.1488 93.4048 15.9803C93.2352 15.7774 92.9984 15.6529 92.6488 15.6529H91.3727C91.0222 15.6529 90.7854 15.7774 90.6158 15.9803C90.4806 16.1488 90.3902 16.3628 90.3902 16.6559V20.3301ZM97.3003 31.407C97.3003 31.7001 97.3899 31.9141 97.526 32.0834C97.6948 32.2863 97.9324 32.41 98.282 32.41H99.6253C99.9758 32.41 100.213 32.2863 100.382 32.0834C100.517 31.9141 100.608 31.7001 100.608 31.407V16.6567C100.608 16.3636 100.517 16.1496 100.382 15.9803C100.213 15.7774 99.9758 15.6529 99.6253 15.6529H98.282C97.9324 15.6529 97.6948 15.7774 97.526 15.9803C97.3899 16.1496 97.3003 16.3636 97.3003 16.6567V31.407ZM68.4308 24.8372C68.5772 23.4509 69.6389 22.4144 71.2534 22.4144C72.8343 22.4144 73.9288 23.4509 74.076 24.8372H68.4308ZM112.835 18.1771C113.072 18.1771 113.253 18.1101 113.388 17.9975C113.535 17.8617 113.603 17.6812 113.603 17.4113V16.3628C113.603 15.9571 113.524 15.7543 113.388 15.6081C113.264 15.4724 113.061 15.3941 112.835 15.3941C112.654 15.3941 112.474 15.4165 112.17 15.45L103.159 16.3404C102.9 16.3628 102.776 16.4419 102.686 16.5433C102.584 16.6559 102.538 16.8028 102.538 17.0056V17.591C102.538 17.817 102.584 17.9184 102.663 18.0086C102.764 18.1212 102.911 18.1771 103.114 18.1771H112.835ZM107.856 19.9013C103.938 19.9013 101.737 22.9558 101.737 26.1788C101.737 29.6159 104.097 32.636 107.879 32.636C109.765 32.636 111.616 31.9261 112.677 30.6748C113.14 30.1341 113.513 29.3787 113.513 28.9171C113.513 28.759 113.478 28.624 113.388 28.5226C113.298 28.41 113.162 28.3421 112.926 28.3421H111.108C110.746 28.3421 110.498 28.4771 110.317 28.7478C109.787 29.5256 109.019 29.9313 107.89 29.9313C106.196 29.9313 105.101 28.6464 105.023 27.2377H112.903C113.253 27.2377 113.502 27.1587 113.67 26.9902C113.862 26.8097 113.953 26.5501 113.953 26.0654C113.953 24.5897 113.49 23.0572 112.519 21.8849C111.526 20.7014 109.99 19.9013 107.856 19.9013ZM105.045 24.8372C105.192 23.4509 106.253 22.4144 107.868 22.4144C109.449 22.4144 110.543 23.4509 110.69 24.8372H105.045Z" fill="#939CA1"/>
<path d="M37.2038 18.3122C34.2812 13.9608 31.713 12.4946 30.9905 11.8047C30.1968 11.0436 29.592 10.1812 29.2072 9.76594C28.3511 8.83241 27.243 7.68007 25.4205 7.68007C23.6611 7.68007 22.4986 8.82443 22.121 9.81305C22.0114 10.0949 21.925 10.4399 21.8466 10.5653C21.6737 10.848 20.8961 12.1728 20.5737 12.6983H22.0274L21.3201 14.0311C22.145 13.8506 22.7338 13.7173 23.5195 13.7173C24.2188 13.7173 24.7212 13.8826 24.9412 14.321C25.35 15.1371 25.35 17.6063 26.0413 19.4654C26.6854 21.2126 28.2567 22.9224 30.024 24.232C30.0472 24.2472 30.0712 24.2552 30.1024 24.2552C30.1888 24.2552 30.244 24.1929 30.244 24.1298C30.244 24.0827 30.228 24.0515 30.1888 24.0124C28.7119 22.5383 27.5102 20.9076 26.8662 19.1204C26.2293 17.3795 26.3317 14.9327 25.7741 13.8426C25.4044 13.1215 24.6196 12.9339 23.8963 12.9339C23.3155 12.9339 22.773 13.0513 22.5218 13.1056L23.1579 12.0315H22.0818C22.3098 11.6322 22.545 11.2633 22.6634 11.0436C22.765 10.8552 22.805 10.6204 22.9306 10.2994C23.3387 9.27163 24.242 8.62079 25.4205 8.62079C26.8974 8.62079 27.7614 9.56949 28.6175 10.5182C29.0103 10.9574 29.6544 11.875 30.4009 12.5569C30.9113 13.0273 31.8858 13.5528 33.3859 15.098C34.25 15.9916 35.2557 17.1519 36.3157 18.7043C40.1105 24.2472 42.6003 29.132 43.9908 32.9428L43.9676 32.9588C39.9848 30.2612 36.5358 27.713 33.7555 24.569C31.7834 22.3346 30.0712 19.7473 28.5783 16.446C28.4759 16.2264 28.3903 16.0227 28.2959 15.8111C28.2567 15.7249 28.2175 15.7009 28.1543 15.7009C28.0759 15.7009 28.0207 15.756 28.0207 15.8343C28.0207 15.9205 28.0599 16.109 28.1463 16.4851C28.9399 19.9038 31.1393 22.9695 33.4883 25.5177C35.8293 28.0508 38.4759 30.2301 40.6521 31.8144L42.349 36.6594C42.3882 36.7775 42.4354 36.9029 42.4354 37.0203C42.4354 37.1066 42.4114 37.1768 42.357 37.2239C42.3098 37.2711 42.2474 37.295 42.1058 37.295H41.5954C41.3754 37.295 41.2881 37.2631 41.2097 37.2008C41.1313 37.1377 41.0769 37.0435 41.0369 36.9341C40.8881 36.4789 39.992 33.9306 39.82 33.4132C39.788 33.3197 39.7328 33.2878 39.6704 33.2878C39.592 33.2878 39.5368 33.3509 39.5368 33.4212C39.5368 33.4842 39.56 33.5545 39.6 33.7741C39.8272 34.9344 40.0945 36.2361 40.2041 36.7304C40.2521 36.9572 40.3065 37.1696 40.3065 37.3262C40.3065 37.4667 40.2753 37.5458 40.1577 37.6632L39.6312 38.1966C39.5056 38.322 39.4344 38.3531 39.3328 38.3531C39.2072 38.3531 39.1048 38.2669 39.0576 38.0473C38.4607 35.2635 37.5574 31.8144 37.3214 30.8569C37.2662 30.6461 37.227 30.5279 37.1014 30.5279C36.9918 30.5279 36.9526 30.6062 36.9526 30.7004C36.9526 30.7707 36.9678 30.857 36.9758 30.92C37.1174 31.9079 37.6911 35.507 38.3111 38.7923C38.4215 39.3569 38.6335 39.67 39.1208 39.67C39.3408 39.67 39.552 39.5837 39.7488 39.396C40.0713 39.0742 40.1649 38.988 40.5505 38.6119C40.8249 38.3451 41.0137 38.2357 41.485 38.2357H42.6475C42.9227 38.2357 43.0715 38.1655 43.2051 38.0393C43.3307 37.9219 43.4091 37.7574 43.4091 37.5218C43.4091 37.279 43.3467 37.0834 43.2603 36.8398C42.9619 36.0405 42.0034 33.3349 41.7202 32.5747L41.7442 32.5587C42.7259 33.3038 44.1556 34.2525 44.7844 34.2525C44.9805 34.2525 45.0989 34.1662 45.0989 33.8604C45.0989 32.4182 42.6947 26.4824 37.2038 18.3122Z" fill="#939CA1"/>
<path d="M10.2361 9.20114C10.4009 8.84019 10.7625 8.58944 11.1946 8.58944C11.7834 8.58944 12.2547 9.04463 12.2547 9.64834C12.2547 10.0005 12.0898 10.3072 11.8306 10.4948C11.8858 10.6993 11.925 10.8789 11.925 11.0514C11.925 11.7102 11.5322 12.1726 10.8097 12.4162C10.7153 12.8155 10.5425 13.1764 10.2593 13.4431C9.78805 13.8975 9.30881 13.8975 9.30881 14.086C9.30881 14.1882 9.38002 14.2505 9.57603 14.2505C10.4481 14.2505 11.3042 13.765 11.4066 12.9568C12.2395 12.6749 12.7419 11.8356 12.7419 11.1696C12.7419 10.9963 12.7259 10.8478 12.6555 10.7072C12.8835 10.4868 13.1507 10.1107 13.1507 9.55411C13.1507 9.06778 12.9379 8.57427 12.5611 8.21331C12.2314 7.89149 11.7674 7.67987 11.2258 7.67987C10.4401 7.67987 9.92966 8.10391 9.63924 8.51917C8.78237 8.51917 7.67508 9.46787 7.67508 10.8246H7.55747C7.47826 10.3543 6.99182 10.0396 6.58299 10.0165C6.25336 9.02865 5.5069 8.18217 4.2812 8.18217C4.14039 8.18217 3.96757 8.19016 3.81796 8.21331C3.45713 7.88351 3.0563 7.67987 2.49865 7.67987C1.42977 7.67987 0.557693 8.53514 0.557693 9.6164C0.557693 10.2912 0.864118 10.7536 1.44577 11.1616C1.44577 11.1616 1.43777 11.2479 1.43777 11.287C1.43777 12.1495 2.38024 13.4982 3.77876 13.4982C3.77876 13.7171 4.05398 14.0157 4.3604 14.07V14.1802H4.24199C2.31784 14.1802 1.50097 15.1058 1.50097 15.7247C0.927324 15.9602 0.557693 16.5951 0.557693 17.1828C0.557693 18.3512 1.41456 19.1825 2.54586 19.1825C2.92269 19.1825 3.30752 19.0339 3.57474 18.8295C3.77076 18.8998 4.02198 18.9389 4.2812 18.9389C4.82364 18.9389 5.42849 18.7512 5.85253 18.1315C5.91573 18.1395 5.97014 18.1395 6.03334 18.1395C6.7246 18.1395 7.32145 17.6843 7.63587 17.0886C7.71428 16.9401 7.74548 16.8227 7.74548 16.7356C7.74548 16.6502 7.70628 16.5791 7.61987 16.5791C7.51026 16.5791 7.49426 16.6813 7.29824 16.8618C6.85821 17.2619 6.18215 17.4104 5.4909 17.4104C5.15327 17.9047 4.73724 18.1635 4.258 18.1635C3.90437 18.1635 3.62995 18.0693 3.34672 17.8808C3.1187 18.1315 2.83628 18.2338 2.56106 18.2338C1.94101 18.2338 1.50097 17.8025 1.50097 17.1749C1.50097 16.7356 1.78339 16.3443 2.17623 16.195C2.24663 15.4188 3.0795 14.8933 4.11638 14.8933C4.25 14.8933 4.38361 14.9013 4.52522 14.9173C4.68203 14.6666 5.05886 14.3998 5.59331 14.3288C5.70371 14.3136 5.78932 14.3056 5.85253 14.2745C5.91573 14.2425 5.94693 14.1802 5.94693 14.1092C5.94693 14.0469 5.92293 13.9918 5.86053 13.9526C5.80532 13.9215 5.71092 13.9063 5.60131 13.8824C5.10607 13.7881 4.51722 13.4823 4.21879 12.7372C3.0323 12.7372 2.16022 11.7885 2.16022 10.7224V10.6521C1.76739 10.4948 1.50097 10.1187 1.50097 9.6715C1.50097 9.08375 1.96421 8.6134 2.55306 8.6134C2.90669 8.6134 3.21311 8.78589 3.40993 9.04463C3.57474 8.99751 3.76276 8.98154 3.94357 8.98154C4.82364 8.98154 5.76612 9.53814 5.94693 10.6202C7.07823 10.7224 7.34545 11.6791 7.41585 12.0792C7.45506 12.2828 7.48626 12.4553 7.61987 12.4553C7.76148 12.4553 7.79269 12.298 7.83989 12.0864C7.9263 11.6871 8.07591 11.3653 8.37433 11.1145C8.37433 10.0868 9.144 9.20114 10.2361 9.20114Z" fill="#939CA1"/>
<path d="M12.5219 15.3482C12.1523 15.8736 11.8859 16.1324 11.045 17.1202C9.93769 18.4298 9.35605 19.4888 8.38957 21.8405C8.54718 21.8246 8.7752 21.8094 9.02642 21.8094C9.15203 21.8094 9.25364 21.8094 9.41925 21.8166L9.53686 21.5658C10.0793 20.4055 10.809 18.8371 11.8306 17.6297L12.1843 17.2144C13.2364 15.9838 13.8884 15.2539 14.2972 13.5761C14.4389 12.9804 14.5565 12.4478 14.9573 12.0629C15.3181 11.7179 15.7742 11.5693 16.2374 11.5693C16.6302 11.5693 16.9215 11.6636 17.3455 11.8433C17.7303 12.0078 17.8711 12.0397 18.28 12.0397C18.4216 12.0397 18.5232 12.0317 18.6176 12.0237L18.068 12.7608L18.8144 13.2863C17.8791 13.5602 17.3847 14.4626 17.2191 14.8778C17.1879 14.9641 17.1727 15.0192 17.1727 15.0743C17.1727 15.1373 17.2039 15.1996 17.2983 15.1996C17.3999 15.1996 17.4783 15.1214 17.6119 14.9641C18.068 14.4154 18.4296 14.0385 20.1097 13.5139L18.924 12.6195L19.8193 11.3106H18.9792C18.4448 11.3106 18.0912 11.3026 17.6279 11.091C16.9991 10.8011 16.6774 10.6757 16.1198 10.6757C15.4365 10.6757 14.8157 10.9185 14.3053 11.3889C13.7156 11.9295 13.5348 12.6514 13.3236 13.4436C13.158 14.0545 12.9619 14.7293 12.5219 15.3482Z" fill="#939CA1"/>
<path d="M14.3286 20.6878C13.8806 21.2915 13.2677 22.0829 12.7965 22.9221C12.9461 22.9932 13.4413 23.2599 13.6141 23.3534C14.1558 22.538 14.9102 21.535 15.4047 20.774C15.8527 20.084 16.0335 19.7862 16.0647 18.8606C16.0727 18.7041 16.0727 18.5548 16.0879 18.4062C16.1271 17.9279 16.2536 17.4416 16.7088 16.9952C17.0464 16.6574 17.5337 16.4857 18.0209 16.4857C18.4921 16.4857 18.7666 16.6182 19.1754 16.6182C19.4658 16.6182 19.6778 16.548 19.8666 16.4777L20.0163 16.4226L19.6546 17.2858L20.5027 17.63C19.9611 17.967 18.7746 19.418 18.7746 21.1349C18.7746 21.7546 18.869 22.3264 19.0026 22.8359C19.0186 22.891 19.0498 22.9461 19.1362 22.9461C19.2146 22.9461 19.2698 22.899 19.2778 22.8127L19.2858 22.6323C19.309 22.1068 19.3482 21.2763 19.5602 20.5312C19.9139 19.2767 20.8643 18.1004 21.8148 17.5358L20.4635 16.9481L21.0451 15.529L20.4091 15.6624C20.0243 15.7406 19.741 15.8109 19.4034 15.8109C19.1834 15.8109 18.9322 15.7797 18.6337 15.7087C18.4057 15.6544 18.1617 15.6073 17.8169 15.6073C17.196 15.6073 16.528 15.842 16.0727 16.2812C15.2399 17.0734 15.1927 17.9279 15.1375 18.6889C15.0671 19.6999 14.8782 19.9507 14.3286 20.6878Z" fill="#939CA1"/>
<path d="M34.4858 21.166C34.4305 21.0957 34.3833 21.0637 34.3209 21.0637C34.2265 21.0637 34.1793 21.1268 34.1793 21.1971C34.1793 21.3073 34.2577 21.4407 34.4545 21.7705C35.0514 22.7815 35.7899 23.8004 36.7011 24.7579C37.6828 25.8001 38.8373 26.7719 40.071 27.6424L40.4558 27.9091C40.511 27.949 40.5503 27.9722 40.5975 27.9722C40.6759 27.9722 40.7311 27.8939 40.7311 27.8308C40.7311 27.7917 40.7151 27.7518 40.6679 27.7126C39.5214 26.6705 38.2877 25.4 37.1332 24.1774C36.2291 23.2127 35.3026 22.1937 34.4858 21.166Z" fill="#939CA1"/>
<path d="M9.20691 17.6143C9.32452 17.4186 9.67814 16.9403 9.81976 16.791C9.21491 15.5684 8.22523 14.4001 7.79319 13.9369L7.43156 14.2899C7.84839 14.8936 8.54685 16.0619 9.20691 17.6143Z" fill="#939CA1"/>
<path d="M3.44891 10.5343C3.3777 10.4712 3.3625 10.432 3.3625 10.3849C3.3625 10.3306 3.4017 10.2675 3.48811 10.2675C3.51931 10.2675 3.55051 10.2755 3.59052 10.2915C4.17137 10.5263 4.66661 10.801 5.10664 11.138C5.47547 11.4199 5.8371 11.7657 6.18993 12.1809L5.8603 12.557C5.45227 12.2192 4.13216 11.1148 3.44891 10.5343Z" fill="#939CA1"/>
<path d="M9.01843 13.1609L8.59439 12.9021C8.86881 12.2513 9.20724 11.6556 9.60728 11.2084C9.8905 10.8873 10.1577 10.6278 10.4561 10.3699C10.5266 10.3148 10.5658 10.2676 10.6362 10.2676C10.7154 10.2676 10.7706 10.3307 10.7706 10.393C10.7706 10.4242 10.7546 10.4633 10.7234 10.5104C10.2441 11.2555 9.30885 12.7296 9.01843 13.1609Z" fill="#939CA1"/>
<path d="M3.69251 16.7987C3.5901 16.8379 3.54289 16.8618 3.48849 16.8618C3.40208 16.8618 3.36208 16.7908 3.36208 16.7357C3.36208 16.6814 3.38608 16.6502 3.44129 16.6023C4.40697 15.85 5.25583 15.5522 6.42633 15.3557L6.56714 15.8269L3.69251 16.7987Z" fill="#939CA1"/>
<path d="M23.8415 10.7147C23.8415 10.44 23.9831 9.94571 24.4936 9.94571C24.6664 9.94571 24.8312 9.98484 24.9648 10.0479C25.1536 10.1342 25.2792 10.2595 25.2792 10.3929C25.2792 10.5343 25.1376 10.6756 24.9256 10.8481C24.7056 11.0278 24.4232 11.1931 24.1952 11.1931C23.9207 11.1931 23.8415 10.9335 23.8415 10.7147Z" fill="#939CA1"/>
<path d="M15.8683 13.004C15.8683 12.667 16.0723 12.2981 16.4652 12.2981C16.638 12.2981 16.842 12.3683 16.9916 12.5105C17.078 12.5888 17.1172 12.6742 17.1172 12.7612C17.1172 12.9497 16.9364 13.1294 16.7244 13.2548C16.5596 13.349 16.3868 13.4121 16.2379 13.4121C15.9939 13.4121 15.8683 13.2619 15.8683 13.004Z" fill="#939CA1"/>
<path d="M17.7144 17.8418C17.7144 17.7636 17.7224 17.6693 17.7536 17.5751C17.8168 17.3715 17.9496 17.175 18.28 17.175C18.4296 17.175 18.5937 17.2142 18.7273 17.3092C18.8457 17.3875 18.8929 17.4889 18.8929 17.5911C18.8929 17.9281 18.3272 18.3202 18.044 18.3202C17.84 18.3202 17.7144 18.1237 17.7144 17.8418Z" fill="#939CA1"/>
<path d="M14.6193 27.7365C13.5592 27.7365 13.0872 27.235 13.0872 26.6002C13.0872 25.4862 15.0433 24.3969 16.8027 23.7221L17.2587 24.3107C16.1746 24.7411 13.9913 25.6674 13.9913 26.4668C13.9913 26.7487 14.1561 26.9531 14.8153 26.9531C15.9626 26.9531 17.1963 26.3957 18.3348 25.8391C18.4212 25.8 18.5236 25.7609 18.618 25.7609C18.7669 25.7609 18.8613 25.808 18.9709 25.9645L19.1597 26.2232C17.8324 26.9531 16.1746 27.7365 14.6193 27.7365Z" fill="#939CA1"/>
<path d="M17.5417 28.0348C16.5048 28.6146 15.4287 28.9995 14.4782 28.9995C13.4173 28.9995 12.4749 28.5443 11.6892 27.36C11.3596 26.8585 11.1004 26.2316 10.7859 25.675C10.4091 25.0162 10.0003 24.6633 9.2858 24.6633C8.63375 24.6633 7.9969 24.93 7.32164 25.2199L7.35285 25.3692C7.40805 25.612 7.50246 25.7844 7.72968 25.7844C7.83208 25.7844 7.93449 25.7381 7.9897 25.7222C8.36653 25.604 8.64095 25.5018 9.02658 25.5018C9.61543 25.5018 9.89785 25.8475 10.2987 26.694L10.4483 27.0079C10.0395 27.1492 9.08099 27.2195 8.36653 27.2195H8.0289L8.0841 27.5565C8.10731 27.6978 8.16251 27.8152 8.28012 27.8703C8.42093 27.9406 8.62575 27.9486 8.97938 27.9486C9.87465 27.9486 10.5267 27.8392 10.9035 27.7441C11.87 29.18 13.1973 29.7286 14.4782 29.7286C15.5695 29.7286 16.6776 29.3285 17.7385 28.7487L17.5417 28.0348Z" fill="#939CA1"/>
<path d="M18.6098 28.3876L18.4218 27.6657C20.0395 26.7961 21.5164 26.0982 23.8734 25.8706C23.9206 26.7721 23.8574 27.9093 24.5255 27.9093C25.1375 27.9093 26.4728 26.3329 28.0129 24.3573C28.1545 24.4906 28.3818 24.632 28.5866 24.7885L28.1938 25.298C26.6928 27.2273 25.4127 28.874 24.3598 28.874C23.3782 28.874 23.0085 27.7208 22.9933 26.8584C21.4932 27.0077 20.0787 27.5092 18.6098 28.3876Z" fill="#939CA1"/>
<path d="M39.3955 12.6512C38.7827 12.6512 38.6099 12.3134 38.6099 11.8358C38.6099 10.848 39.2307 9.42896 39.6235 8.6208H38.6723C38.1778 9.57749 36.2297 12.6432 35.1768 13.9137L35.7816 14.5638C36.3473 13.9369 36.9681 12.8708 37.6434 11.8199H37.769C37.769 11.875 37.7618 11.9373 37.7618 11.9924C37.7618 12.8788 38.217 13.5368 39.3403 13.5368C40.0316 13.5368 41.1157 13.1918 42.1373 12.8468C42.9854 12.557 43.7631 12.2591 44.1479 12.1497V11.209C43.7079 11.3415 42.8126 11.6865 41.8853 12.0083C40.9116 12.3453 39.9532 12.6512 39.3955 12.6512Z" fill="#939CA1"/>
<path d="M41.4927 15.4972C42.4352 15.0979 44.1242 14.4231 45.0986 14.0702V13.1135C43.1425 13.8354 39.7094 15.2544 37.3684 16.525C37.4316 16.6024 37.8404 17.175 37.8869 17.2461C38.8765 16.838 39.7646 16.5713 40.5655 16.5713C41.6896 16.5713 42.608 16.5713 44.1482 16.2103V15.4892C43.2841 15.6465 42.3648 15.8342 41.768 15.8342C41.4143 15.8342 41.3119 15.7871 41.3119 15.6697C41.3119 15.5994 41.3591 15.5523 41.4927 15.4972Z" fill="#939CA1"/>
<path d="M21.367 19.9037L20.9894 20.6256H25.0041L24.7057 19.9037H21.367Z" fill="#939CA1"/>
<path d="M6.90517 24.2083C7.32921 24.2083 7.67484 24.067 8.00526 23.9344C8.31889 23.8082 8.63331 23.6829 9.05735 23.6829C10.063 23.6829 11.3039 24.1692 12.396 24.6316C12.4592 24.6555 12.5296 24.6707 12.6 24.6707C12.7737 24.6707 12.9073 24.5924 12.9929 24.4279L13.1345 24.1692C11.9328 23.4712 10.0158 22.7262 9.01815 22.7262C8.56291 22.7262 8.23248 22.8444 7.91886 22.9689C7.56523 23.1111 7.2588 23.2596 6.93638 23.2596C6.14351 23.2596 4.10894 22.4754 4.10894 21.7152C4.10894 20.8216 7.34521 20.4766 7.69884 20.4766L8.02046 19.7467C5.67227 19.7467 2.87524 20.57 2.87524 21.6601C2.87524 21.9739 3.05606 22.1304 3.05606 22.4203C3.05606 22.8124 2.87524 23.0791 2.87524 23.5183C2.87524 23.8082 3.04806 24.1772 3.25207 24.499C3.47209 24.836 3.73131 25.0548 3.73131 25.3375C3.73131 25.5491 3.5905 25.7999 3.5905 26.2942C3.5905 27.3523 4.19535 27.9959 5.37305 29.2577L5.60907 29.5084C4.63539 29.8853 2.82004 30.6695 2.396 30.8492C0.927083 31.4609 0.558253 32.206 0.558253 33.3823C0.558253 33.8367 0.558253 34.3541 0.589456 34.8165H0.871879C1.46153 34.8165 1.53193 34.4643 1.53193 34.1273C1.53193 33.8997 1.52393 33.641 1.52393 33.3583C1.53193 32.7083 1.55593 32.1277 2.60802 31.6574C3.03286 31.4689 5.11383 30.6224 6.66195 29.9636C7.11719 29.7672 7.54122 29.6026 8.01246 29.6026C8.53891 29.6026 9.14376 29.8302 9.89822 30.2774C10.5343 30.6536 11.2023 31.163 11.7288 31.7508L12.396 31.2413C11.8224 30.5673 11.0295 29.9636 10.2358 29.4932C9.44218 29.0229 8.73572 28.7482 8.13887 28.7482C7.87965 28.7482 7.66763 28.7953 7.48682 28.8424C7.2748 28.8975 7.07799 28.9598 6.82677 28.9598C6.53634 28.9598 6.29232 28.8895 5.93869 28.4815C5.80508 28.3329 4.95701 27.3682 4.7762 27.0864C4.68979 26.953 4.53298 26.6863 4.53298 26.3724C4.53298 26.2391 4.55618 26.0826 4.63539 25.9412C5.36505 26.5058 6.26912 26.8508 7.36841 26.9841L7.2196 26.2391C5.64027 25.8238 3.95933 24.4359 3.95933 23.5423C3.95933 23.3538 4.00654 23.2205 4.07774 23.056C4.68979 23.6206 6.12751 24.2083 6.90517 24.2083Z" fill="#939CA1"/>
<path d="M18.2094 24.3497C19.1991 23.6518 20.22 23.5735 21.0448 23.5735C21.5401 23.5735 22.1209 23.6438 22.7338 23.722C23.229 23.7851 23.6763 23.8322 24.2107 23.8322C25.2868 23.8322 26.3709 23.4401 26.8421 23.2357C26.9757 23.401 27.2037 23.6206 27.3846 23.7771C27.1565 23.9185 25.7116 24.7019 24.2347 24.7019C23.5827 24.7019 22.9618 24.6244 22.4274 24.5534C21.9561 24.4911 21.4457 24.436 20.9504 24.436C20.4088 24.436 19.3167 24.5925 18.6414 24.9143L18.2094 24.3497Z" fill="#939CA1"/>
<path d="M32.7968 27.1488C31.6183 29.6268 29.827 31.43 27.9892 32.4729C27.1171 32.9664 26.3315 33.2882 24.6353 33.2882H20.9662C19.6549 33.2882 18.8301 33.4607 18.186 33.6252C17.494 33.8057 17.0547 33.9854 16.3555 33.9854C15.3186 33.9854 14.3601 33.4759 13.8969 32.9904L14.7609 32.3084L14.3289 31.735C14.0777 31.9163 11.0062 34.1818 10.3614 34.6913L10.3222 34.6682C10.3382 34.5116 10.3382 34.3703 10.3382 34.2289C10.3382 32.504 9.5365 32.088 8.3196 31.6025L7.49473 32.088C9.16767 32.6454 9.5837 33.0918 9.5837 34.3383C9.5837 35.327 9.23007 35.7183 8.71963 36.0169C8.19319 36.3228 7.54114 36.4633 6.96829 36.4633C6.72427 36.4633 6.61466 36.5105 6.52825 36.5967C6.43385 36.6909 6.38664 36.8323 6.38664 37.0279V37.3026H6.58346C7.63554 37.3026 8.61002 37.1381 9.67811 36.2988L13.1584 33.5861C13.6528 34.1507 14.9025 34.9349 16.3787 34.9349C17.2115 34.9349 17.746 34.7304 18.5156 34.5348C19.1125 34.3855 19.6941 34.2521 20.9662 34.2521H24.6505C26.5363 34.2521 27.4476 33.86 28.4524 33.2962C30.6366 32.0728 32.4984 30.0029 33.5513 27.6264C33.276 27.4547 33.0168 27.2974 32.7968 27.1488Z" fill="#939CA1"/>
<path d="M26.8817 30.097C27.8322 28.5758 28.6802 27.227 30.762 26.1297C30.542 25.9964 30.2284 25.7927 30.0627 25.6825C29.2539 26.0355 28.453 26.7406 27.7698 27.4546C26.1984 29.0852 26.3392 30.026 24.6823 30.6616C24.2655 30.8181 23.755 30.9906 23.103 31.14C22.7181 29.9557 21.7525 28.7794 20.7308 28.7794C20.0235 28.7794 19.2067 29.1475 18.2642 29.5636C17.1569 30.0499 16.1432 30.6065 15.8216 30.8181L16.2536 31.3987C16.5832 31.2174 17.5337 30.7471 18.4842 30.3398C19.3091 29.9868 20.0555 29.6969 20.558 29.6969C21.3668 29.6969 21.8933 30.6145 22.1845 31.3508C21.1236 31.6023 19.3795 31.6646 18.8538 31.6646C18.6098 31.6646 18.5234 31.7038 18.437 31.7748C18.3586 31.8451 18.2954 31.9705 18.2562 32.143L18.1938 32.4097H18.7586C21.6973 32.4097 24.4703 31.9473 26.2528 30.8653C26.5049 30.9363 26.7249 30.9826 27.0073 30.9826C28.0282 30.9826 29.0811 30.426 29.7411 29.9166C29.9763 29.7361 30.0315 29.5708 30.0315 29.3911C30.0315 29.3048 30.0235 29.2266 30.0155 29.1475L29.9843 28.8425C29.0419 29.5867 28.2562 30.1441 27.2825 30.1441C27.1097 30.1441 26.9841 30.1282 26.8817 30.097Z" fill="#939CA1"/>
</svg>
