<svg width="45" height="48" viewBox="0 0 45 48" fill="none" xmlns="http://www.w3.org/2000/svg">
<path d="M25.5568 17.136C27.3328 16.176 28.5712 14.3712 28.7344 12.2688C28.7344 12.1824 28.6672 12.1152 28.5808 12.1152H25.8448C25.7584 12.1152 25.7008 12.1824 25.6912 12.2688C25.4704 13.7568 24.1744 14.8992 22.6096 14.8992C21.0448 14.8992 19.7584 13.7568 19.528 12.2688C19.5184 12.1824 19.4608 12.1152 19.3744 12.1152H16.6576C16.5712 12.1152 16.504 12.1824 16.504 12.2688C16.6576 14.3712 17.9056 16.176 19.6816 17.136C17.8192 18.144 16.552 20.0832 16.4944 22.3104C16.4944 22.3968 16.5616 22.464 16.648 22.464H19.3648C19.4512 22.464 19.5184 22.3968 19.5184 22.3104C19.6048 20.6784 20.9584 19.3824 22.6288 19.3824C24.2992 19.3824 25.6624 20.6784 25.7392 22.3104C25.7392 22.3968 25.8064 22.464 25.8928 22.464H28.6096C28.696 22.464 28.7632 22.3968 28.7632 22.3104C28.696 20.0736 27.4192 18.144 25.5568 17.136ZM16.6576 11.5008H19.3936C19.48 11.5008 19.5376 11.4336 19.5472 11.3472C19.768 9.8592 21.064 8.7168 22.6288 8.7168C24.1936 8.7168 25.4896 9.8592 25.7104 11.3472C25.72 11.4336 25.7872 11.5008 25.8736 11.5008H28.6C28.6864 11.5008 28.7536 11.4336 28.7536 11.3472C28.5232 8.208 25.8736 5.7312 22.6384 5.7312C19.4032 5.7312 16.7632 8.208 16.5232 11.3472C16.504 11.4336 16.5712 11.5008 16.6576 11.5008ZM37.5952 14.832C37.5952 23.0208 30.8944 29.664 22.6192 29.664C14.3536 29.664 7.6432 23.0208 7.6432 14.832C7.6432 6.6432 14.344 0 22.6192 0C30.8944 0 37.5952 6.6336 37.5952 14.832Z" fill="#75C044"/>
<path d="M6.2896 39.5904C6.2896 38.6976 5.368 38.3904 4.8208 38.3904C4.2832 38.3904 3.352 38.6976 3.352 39.5904V44.448C3.352 45.3408 4.2736 45.6384 4.8208 45.6384C5.3584 45.6384 6.2896 45.3408 6.2896 44.448V39.5904ZM8.6608 39.408V44.6304C8.6608 46.176 7.4416 47.9904 4.8304 48C2.2096 47.9904 1 46.176 1 44.6304V39.408C1 37.8624 2.2192 36.048 4.8304 36.0384C7.4416 36.048 8.6608 37.8624 8.6608 39.408Z" fill="#75C044"/>
<path d="M21.3904 47.7888V43.2384H25.0192V40.9056H21.4096V38.592H25.6048V36.2496H19.0288V47.7888H21.3904Z" fill="#75C044"/>
<path d="M28.792 43.4784H30.7024L29.7616 39.8496L28.792 43.4784ZM31.288 45.744H28.2064L27.6592 47.7888H25.288L28.3312 36.2592H31.096L34.1872 47.7888H31.8256L31.288 45.744Z" fill="#75C044"/>
<path d="M41.7904 36.2496L39.7072 40.6848L37.5952 36.2496H35.176V47.7888H37.4896V41.2224L38.968 44.2944H40.4464L41.9344 41.232V47.7888H44.248V36.2496H41.7904Z" fill="#75C044"/>
<path d="M14.824 42.0096L17.8384 36.2496H15.1024L13.4512 39.6096L11.8 36.2496H9.064L12.0784 42.0096L9.0448 47.7888H11.8192L13.4512 44.4384L15.0832 47.7888H17.848L14.824 42.0096Z" fill="#75C044"/>
</svg>
