<svg width="112" height="48" viewBox="0 0 112 48" fill="none" xmlns="http://www.w3.org/2000/svg">
<path fill-rule="evenodd" clip-rule="evenodd" d="M69.2061 23.0974C68.8275 23.2201 68.3099 23.3242 67.667 23.4045C67.3605 23.4445 67.02 23.4647 66.6209 23.4647C65.9509 23.4647 65.2251 23.4113 64.5223 23.3564L64.498 23.3555C63.8468 23.3063 63.2308 23.2601 62.6397 23.2601C62.2175 23.2601 61.8305 23.2851 61.4593 23.3325C60.3551 23.4697 59.4842 23.8164 59.4842 23.8164L59.4936 23.7267C59.7076 21.5121 61.5685 19.6214 63.8201 19.3224C64.0277 19.2981 64.2416 19.2843 64.4555 19.2843C66.577 19.2843 68.6343 20.8926 69.2457 23.0289L69.261 23.0843L69.2061 23.0974ZM71.7981 24.0376L71.7974 24.0074C71.7878 23.865 71.7607 23.6346 71.7307 23.387C71.6728 22.9377 71.5745 22.4954 71.4389 22.0688C70.4149 18.8388 67.6738 16.7543 64.4555 16.7543C64.1344 16.7543 63.8026 16.7746 63.4753 16.8193C59.3482 17.3504 56.5451 21.0908 57.0909 25.3345C57.5872 29.1764 60.6784 31.8084 64.4402 31.8084C64.7576 31.8084 65.0882 31.7864 65.422 31.7463C67.4268 31.4917 69.1884 30.6519 70.5081 29.0189C70.5825 28.926 70.6193 28.8072 70.6055 28.7007C70.5934 28.6062 70.5381 28.5163 70.4384 28.4441C70.217 28.2848 69.4266 27.9014 68.9966 27.6966L68.7118 27.5562C68.5814 27.489 68.488 27.4588 68.4029 27.4588C68.2985 27.4588 68.1997 27.5122 68.103 27.6294C67.2523 28.6184 66.1756 29.1379 65.0755 29.2823C64.8574 29.309 64.6459 29.3232 64.4402 29.3232C62.4354 29.3232 60.4119 27.9808 59.8246 26.1382L59.8099 26.0899L59.853 26.0691C59.9572 26.0175 60.8954 25.5806 62.2858 25.5806C62.4581 25.5806 62.6338 25.5876 62.8053 25.6029C63.2041 25.6344 63.6046 25.6863 64.027 25.7397C64.8066 25.8427 65.6151 25.9494 66.5588 25.9494C67.1405 25.9494 67.7123 25.9074 68.2953 25.8263C70.5902 25.384 71.5006 24.7404 71.5078 24.7345C71.8318 24.5249 71.8198 24.3513 71.7981 24.0376ZM107.748 17.6C107.748 17.4073 107.59 17.2522 107.399 17.2522H105.5C105.311 17.2522 105.154 17.4073 105.154 17.6V31.1047C105.154 31.2955 105.311 31.4532 105.5 31.4532H107.399C107.59 31.4532 107.748 31.2955 107.748 31.1047V17.6ZM106.451 12.4355C105.507 12.4355 104.737 13.2064 104.737 14.152C104.737 15.0955 105.507 15.8646 106.451 15.8646C107.398 15.8646 108.166 15.0955 108.166 14.152C108.166 13.2064 107.398 12.4355 106.451 12.4355ZM81.3085 19.3191C84.0002 19.3191 86.1094 21.5344 86.1094 24.3642C86.1094 27.2108 84.108 29.3554 81.4533 29.3554C80.1128 29.3554 78.8703 28.8746 77.9612 28.0037C77.0232 27.1084 76.5089 25.844 76.5089 24.4488C76.5089 21.6202 78.6616 19.3191 81.3085 19.3191ZM81.2243 31.813C81.3441 31.8181 81.4686 31.8229 81.5896 31.8229C83.541 31.8229 85.3545 31.0695 86.702 29.7117C88.0685 28.3275 88.8188 26.4294 88.8188 24.3642C88.8188 20.0972 85.5339 16.7543 81.3391 16.7543C77.9257 16.7543 75.0444 19.0019 74.1632 22.3455C74.0134 22.9132 73.8583 24.3609 73.8583 25.8046V36.4009C73.8583 36.594 74.0134 36.7513 74.2065 36.7513H76.0904C76.2851 36.7513 76.4428 36.5921 76.4428 36.398L76.4413 29.7231L76.5402 29.8191C77.4655 30.7182 79.1816 31.7172 81.2243 31.813ZM47.4604 19.3191C50.1497 19.3191 52.2598 21.5344 52.2598 24.3642C52.2598 27.2108 50.2591 29.3554 47.6022 29.3554C46.2584 29.3554 45.0216 28.8746 44.1131 28.0037C43.1736 27.1084 42.6567 25.844 42.6567 24.4488C42.6567 21.6202 44.8116 19.3191 47.4604 19.3191ZM47.3768 31.813C47.4969 31.8181 47.6205 31.8229 47.7393 31.8229C49.693 31.8229 51.5071 31.0695 52.8524 29.7117C54.2191 28.3275 54.9718 26.4294 54.9718 24.3642C54.9718 20.0972 51.684 16.7543 47.4886 16.7543C44.0766 16.7543 41.1921 19.0019 40.3132 22.3455C40.1605 22.9132 40.0078 24.3609 40.0078 25.8046V36.4009C40.0078 36.594 40.1644 36.7513 40.3528 36.7513H42.2423C42.4362 36.7513 42.5939 36.5921 42.5939 36.398L42.5908 29.7231L42.6862 29.8191C43.6119 30.7182 45.328 31.7172 47.3768 31.813ZM90.6338 29.4475C92.274 30.9485 94.0658 31.806 96.3922 31.806H96.4659C100.481 31.78 102.275 29.5853 102.275 27.4229C102.275 24.432 99.4534 23.6145 98.5889 23.4332C98.3115 23.3791 98.023 23.3249 97.7272 23.266C97.0283 23.1315 96.3027 22.9926 95.6434 22.8104C95.1812 22.6833 93.6742 22.1815 93.6742 21.0547C93.6742 19.8144 95.0508 19.1457 96.3438 19.1457C97.4301 19.1457 98.3358 19.3285 99.4947 20.2335C99.5853 20.3048 99.7124 20.3864 99.8675 20.3864C99.9821 20.3864 100.092 20.3468 100.21 20.2624C100.531 20.0259 101.118 19.5307 101.506 19.1428C101.597 19.0503 101.64 18.949 101.635 18.8431C101.626 18.6786 101.503 18.5441 101.441 18.4923C99.8909 17.2629 98.3994 16.7598 96.2964 16.7543H96.2811C93.2728 16.7543 91.0017 18.688 91.0017 21.2518C91.0017 23.2833 92.6719 24.7262 95.6992 25.3208L97.5949 25.6841C98.8409 25.9129 99.5413 26.5746 99.517 27.501C99.4947 28.404 98.3872 29.3392 96.5676 29.3392C95.0823 29.3392 93.774 28.7593 92.6778 27.7644L92.6618 27.7487C92.5844 27.6784 92.4919 27.5929 92.3674 27.5929C92.2803 27.5929 92.188 27.6334 92.0885 27.711C91.9743 27.8038 90.7084 28.8048 90.5732 28.9463C90.5113 29.0128 90.4822 29.083 90.4835 29.1568C90.4866 29.2738 90.5638 29.3832 90.6338 29.4475ZM110.518 29.7614C110.649 29.7614 110.723 29.8635 110.723 29.9753C110.723 30.0814 110.649 30.1829 110.51 30.1829H110.217V29.7614H110.518ZM110.683 30.4627C110.922 30.4023 111.025 30.1879 111.025 29.9753C111.025 29.7163 110.862 29.4593 110.518 29.4593H109.908V31.0279H110.217V30.4859H110.319L110.709 31.0279H111.084L110.683 30.4627ZM110.443 31.5309C111.159 31.5309 111.723 30.954 111.723 30.2367C111.723 29.521 111.159 28.9387 110.443 28.9387C109.727 28.9387 109.162 29.521 109.162 30.2367C109.162 30.954 109.727 31.5309 110.443 31.5309ZM110.443 28.6619C111.311 28.6619 112 29.3687 112 30.2367C112 31.1047 111.311 31.806 110.443 31.806C109.577 31.806 108.891 31.1047 108.891 30.2367C108.891 29.3687 109.577 28.6619 110.443 28.6619Z" fill="#004883"/>
<path fill-rule="evenodd" clip-rule="evenodd" d="M29.4761 36.4765C22.7344 43.2197 11.7998 43.2189 5.05854 36.4765C-1.68618 29.7325 -1.68618 18.7987 5.05854 12.0568C11.8013 5.31428 22.7344 5.31428 29.4748 12.0575C36.2195 18.7985 36.2195 29.7325 29.4761 36.4765Z" fill="white"/>
<path fill-rule="evenodd" clip-rule="evenodd" d="M30.7085 15.5533C31.0321 16.6011 31.2092 17.7133 31.2092 18.8663C31.2092 22.5864 29.3803 25.8575 26.5984 27.9072C21.761 31.47 14.7105 31.4748 4.97542 34.5424C7.91367 38.0542 12.3289 40.2894 17.2665 40.2894C26.1161 40.2894 33.2896 33.1159 33.2896 24.2668C33.2896 21.0544 32.3386 18.0637 30.7085 15.5533Z" fill="#004883"/>
<path fill-rule="evenodd" clip-rule="evenodd" d="M26.8758 11.4467C24.1983 9.43422 20.872 8.24379 17.267 8.24379C8.41789 8.24379 1.24463 15.4188 1.24463 24.2668C1.24463 27.8285 2.40663 31.118 4.37189 33.7778C15.1482 30.6401 23.6571 22.1869 26.8758 11.4467Z" fill="#E32934"/>
</svg>
