<svg width="74" height="48" viewBox="0 0 74 48" fill="none" xmlns="http://www.w3.org/2000/svg">
<path d="M49.989 8.00967C52.859 12.7447 52.262 19.9577 48.801 24.2097C44.971 29.2677 38.655 31.4617 32.417 29.7397C26.747 28.2527 22.121 22.8417 21.602 16.9897C20.894 10.7837 23.782 5.12967 29.027 2.02967C33.07 -0.455334 39.307 -0.740334 43.515 1.62967C46.071 2.87267 48.643 5.42967 49.988 8.00967H49.989ZM36.995 0.709666C37.05 1.27567 37.05 2.06967 36.995 2.71567C37.011 2.61367 37.095 2.61367 37.168 2.57367C37.365 2.64367 37.365 2.88867 37.31 3.05367H37.27C38.285 2.98367 39.27 3.23367 40.196 3.51767C41.171 3.64367 42.021 4.81567 42.98 4.19367C43.247 4.49367 43.71 4.20967 43.853 4.67367C44.223 4.74367 44.419 5.11367 44.671 5.34967C44.641 5.68767 44.954 5.84567 45.064 6.09667V6.05667C45.386 5.47467 45.898 4.97167 46.464 4.67267C44.4758 2.77392 41.9728 1.50212 39.267 1.01567C38.537 0.865666 37.717 0.913666 36.994 0.708666L36.995 0.709666ZM26.744 4.71367L28.411 6.31067C30.4807 4.27658 33.2423 3.09935 36.143 3.01467C36.043 2.30667 36.073 1.51467 36.113 0.780666C32.526 0.984666 29.412 2.33767 26.744 4.71367ZM47.611 1.25367L48.696 2.33867C49.796 4.03867 51.339 5.72067 52.866 6.79067C52.544 6.11467 52.473 5.32067 52.136 4.64367C51.46 2.74767 49.352 1.82767 47.613 1.24367L47.611 1.25367ZM25.454 1.46567C24.109 2.00067 22.654 2.44067 21.654 3.69967C20.874 4.71467 20.639 5.93367 20.238 7.09967L21.426 6.08467C23.226 4.82667 23.706 2.78467 25.453 1.48467L25.454 1.46567ZM38.731 1.92967L37.716 2.38567C37.616 2.44067 37.252 2.25967 37.316 2.55867C37.513 2.68467 37.709 2.82567 37.953 2.85867C38.59 2.57567 39.353 3.03867 39.888 2.45867C39.731 2.02567 39.164 2.01067 38.74 1.93867L38.731 1.92967ZM51.727 3.22567C53.229 4.22567 53.127 6.04167 53.662 7.52067C53.804 8.14067 54.182 8.70867 54.228 9.32067C53.426 6.98467 50.704 6.73267 49.721 4.52067L50.028 5.82067C50.791 8.32067 53.772 8.92767 54.905 11.1927C54.551 9.55667 55.172 7.84267 54.677 6.22967C54.277 4.84567 53.127 3.62667 51.727 3.21767V3.22567ZM18.912 5.46067C17.764 7.14367 18.7 9.46067 18.377 11.4607C18.777 10.6427 19.58 9.86367 20.273 9.28067C21.87 8.25067 23.301 6.60667 23.356 4.77367C22.506 6.95367 19.706 7.23567 19.014 9.55567H18.944C19.974 7.62867 19.392 4.91567 21.359 3.49167C20.329 3.79167 19.456 4.54567 18.913 5.45167L18.912 5.46067ZM36.962 3.79367C37.062 4.50167 37.032 5.35067 36.992 6.04367C38.785 6.07367 40.484 6.62567 41.884 7.67167C41.8005 7.6098 41.7328 7.5291 41.6864 7.43614C41.64 7.34317 41.6163 7.24056 41.617 7.13667H41.672C41.702 6.88467 41.318 6.76667 41.444 6.51667C41.782 6.54667 42.044 7.01267 42.224 7.26367C43.199 7.24767 42.624 8.41167 43.372 8.75767C43.545 8.84467 43.317 9.19767 43.584 9.15767C43.812 9.33767 44.084 9.54267 44.048 9.83367C44.135 10.3337 44.544 9.67667 44.772 10.0067C44.969 10.1637 44.63 10.2587 44.67 10.4467C44.796 10.5017 44.914 10.3207 45.008 10.4767C45.048 10.6497 44.921 10.7207 44.835 10.8147C44.748 11.1147 45.102 10.9407 45.205 11.0817C45.362 11.4197 45.488 11.9317 45.235 12.3087C45.589 12.6937 45.18 13.0887 45.109 13.4567C44.857 13.7007 44.809 14.2587 44.329 14.1327C44.229 14.3297 44.399 14.5577 44.289 14.7147L45.139 14.7547C44.659 14.0787 45.281 13.4247 45.477 12.8197C45.579 12.7797 45.705 12.5677 45.792 12.7797L45.69 13.5977C45.902 13.9197 45.816 14.3777 45.887 14.7537L48.067 14.7137C47.91 13.2737 47.611 11.8897 47.005 10.6397C46.848 10.6947 46.667 10.8127 46.505 10.7097C46.261 10.3877 46.065 9.98567 45.725 9.70967C45.442 9.70967 45.245 9.48167 45.017 9.33967C44.521 9.35567 44.702 8.63167 44.223 8.73367C43.971 8.60767 43.783 8.48167 43.723 8.18367C43.707 7.84567 43.683 7.42067 43.353 7.16867C43.173 7.06667 42.999 7.19867 42.873 7.31067C42.606 7.48367 42.495 7.18467 42.503 6.97267C42.203 6.74467 42.519 6.49267 42.361 6.22567C41.936 5.88767 42.133 5.25067 41.559 4.96767C40.623 4.51967 39.639 4.23767 38.602 4.02367C38.075 3.92967 37.502 3.92367 36.982 3.77167L36.962 3.79367ZM43.442 3.79367C43.342 3.82367 43.372 4.00567 43.412 4.07667C43.782 4.10667 43.782 4.72967 44.214 4.46967L44.112 4.02967C44.012 3.75467 43.624 3.89567 43.442 3.79367ZM28.892 6.89367C29.458 7.28667 30.009 7.90867 30.472 8.41967C31.966 6.96467 33.98 6.07567 36.142 6.04467C36.1027 5.31886 36.1027 4.59147 36.142 3.86567C33.405 4.07767 30.942 5.06867 28.89 6.89367H28.892ZM47.006 5.19367L45.519 6.79067L45.275 6.82067C45.472 6.82067 45.417 7.04867 45.542 7.13567C46.162 7.57567 46.447 8.19767 46.974 8.66167C47.171 9.14167 47.682 9.45567 47.682 10.0457C48.412 11.4777 48.76 13.1527 48.838 14.7957C49.568 14.7087 50.411 14.6957 51.111 14.6937L51.041 14.6237C50.907 10.9507 49.405 7.81167 47.006 5.19367ZM26.304 5.43767L26.234 5.22567C23.819 7.85267 22.459 11.1717 22.278 14.7977L24.583 14.8277C24.496 14.0977 24.683 13.3877 24.78 12.6647C25.276 10.5327 26.196 8.51167 27.832 6.92267L26.304 5.43767ZM54.974 5.97267C56.02 7.49867 55.422 9.64567 55.359 11.4327C55.399 12.2977 55.539 13.1557 55.485 14.0207C55.359 13.6827 55.328 13.3127 55.241 12.9587C54.816 11.0237 52.543 10.0717 51.623 8.45167C51.765 9.00167 51.867 9.55167 52.063 10.0797C52.857 12.3797 55.233 13.9097 55.555 16.3957C55.767 14.0207 57.435 12.1257 56.813 9.53567C56.483 8.23767 55.949 6.96367 54.974 5.97267ZM18.094 6.28767C17.276 7.26267 16.724 8.43467 16.442 9.68767C15.892 12.2907 17.457 14.2877 17.802 16.6727C18.258 13.6927 21.397 11.8127 21.562 8.69667C20.642 10.3797 18.408 11.3567 17.999 13.3467C17.999 13.6687 17.897 13.9837 17.826 14.2907L17.756 14.2207L17.856 12.9207C18.241 10.6237 16.896 8.24867 18.084 6.29067L18.094 6.28767ZM36.194 6.79067L36.124 6.84567C34.174 6.94567 32.544 7.82067 31.024 8.99267C31.606 9.37067 32.07 9.96767 32.621 10.4797C33.5739 9.56907 34.8279 9.03994 36.145 8.99267C36.098 8.34767 36.065 7.49267 36.185 6.79067H36.194ZM36.996 6.82067C37.096 7.48067 37.083 8.26066 37.036 8.95267C38.35 9.05467 39.75 9.58967 40.693 10.4467C41.189 9.94667 41.739 9.25867 42.29 8.95267C40.74 7.72567 39.001 6.95267 36.996 6.82067ZM28.32 7.35567V7.49767C26.527 9.55066 25.52 12.0207 25.34 14.7977C26.07 14.8137 26.882 14.7677 27.574 14.8277L27.504 14.7257C27.646 12.5317 28.424 10.5417 29.919 8.96067C29.321 8.48067 28.771 7.93067 28.322 7.36367L28.32 7.35567ZM42.76 9.46367C42.107 10.2267 41.258 11.0367 40.628 11.7687C40.668 11.8707 40.785 11.9807 40.801 11.9417C40.974 11.7297 40.841 11.1947 41.301 11.3047C41.765 11.4617 42.174 11.4047 42.685 11.4777C42.968 11.6347 43.007 11.9737 43.267 12.1147C43.367 12.2407 43.227 12.3587 43.165 12.4527C43.2211 12.5026 43.269 12.5609 43.307 12.6257C43.449 12.4997 43.645 12.3257 43.913 12.3977C44.18 12.4137 44.251 12.7907 44.495 12.8377C44.595 12.9797 44.425 13.1207 44.322 13.1757C44.377 13.4427 44.07 13.5297 44.18 13.7817C44.322 13.8117 44.463 13.7417 44.518 13.6397C45.053 13.2467 44.618 12.7347 44.548 12.2557C44.336 11.8157 43.888 11.7357 43.533 11.4057C43.5414 11.3328 43.5645 11.2625 43.6009 11.1989C43.6374 11.1352 43.6864 11.0797 43.745 11.0357C43.721 10.4057 43.085 9.98167 42.745 9.46267L42.76 9.46367ZM30.474 9.53367C29.994 10.1337 29.53 10.7767 29.174 11.4687C28.624 12.4837 28.466 13.6627 28.254 14.8187L29.174 14.7887C29.017 14.6087 29.048 14.3487 29.048 14.1127C29.26 13.6647 29.348 12.8547 30.023 12.8927C30.345 12.8227 30.007 12.5707 30.267 12.4367C30.747 12.3667 30.873 11.9167 31.282 11.7067C31.667 11.6667 31.746 11.1247 32.132 11.0867C31.487 10.6387 31.047 10.0717 30.465 9.53667L30.474 9.53367ZM37.034 9.80067L37.089 11.3267L37.671 11.5387C37.844 11.2387 38.151 11.1687 38.347 10.9187C38.527 10.8317 38.527 11.0607 38.614 11.1307C38.714 11.8227 37.961 12.1377 37.536 12.4307H37.709C38.149 11.9747 38.401 12.9967 38.857 12.5327C38.944 11.9507 39.762 12.0327 39.942 11.4477C39.8 11.5897 39.73 11.4317 39.604 11.3927C39.644 11.1957 39.919 11.0707 40.044 10.9367C39.1267 10.3612 38.1019 9.97843 37.032 9.81167L37.034 9.80067ZM36.122 9.84767C34.934 10.0207 33.817 10.4537 32.968 11.3737C33.251 11.4287 33.534 11.5467 33.748 11.7437C33.818 11.8857 33.622 11.9007 33.606 11.9877C33.786 12.2547 33.803 11.9327 33.991 11.8857C34.164 12.0587 34.313 12.1857 34.557 12.0587C34.683 12.2707 34.879 12.0747 35.037 12.0887C35.092 11.9157 35.337 11.7737 35.234 11.5887C35.321 11.4317 35.36 11.1887 35.572 11.1887C35.446 11.8487 36.068 11.1887 36.248 11.5037C36.048 11.0077 36.201 10.3477 36.122 9.86767V9.84767ZM57.352 11.4677C57.745 13.7677 56.352 15.4677 55.795 17.4677C55.48 18.2307 55.615 19.2057 55.142 19.8747C55.112 19.4897 55.322 19.1277 55.354 18.7187C55.708 16.1627 53.49 14.6447 52.979 12.4817C52.9521 13.0344 52.9863 13.5884 53.081 14.1337C53.207 16.8317 54.977 19.0257 54.465 21.8417C54.965 21.1817 55.365 20.4967 55.967 19.8417C58.004 17.7097 58.523 14.1617 57.351 11.4497L57.352 11.4677ZM15.932 11.7677C15.202 13.4677 15.24 15.7077 15.79 17.4677C16.27 19.2927 18.008 20.5677 18.913 22.1477C18.756 21.4877 18.787 20.6457 18.883 19.9677C19.483 17.6077 20.409 15.3277 20.267 12.7157C19.913 14.5957 18.23 15.9157 18.033 17.8597C17.907 18.6537 18.103 19.4327 18.206 20.1327C18.026 19.7787 17.852 19.3697 17.821 18.9127C17.546 16.3797 15.493 14.5077 15.933 11.7547L15.932 11.7677ZM36.076 12.6677L36.116 12.6977C36.156 12.9097 36.313 13.2327 36.116 13.3737C35.864 13.7117 35.251 13.6407 35.172 14.0977C34.512 14.2947 34.772 15.1127 34.552 15.6237C34.127 15.7257 34.285 15.2237 34.088 15.0417L33.986 15.1677C33.333 14.6717 33.459 15.7337 33.066 15.8207C33.514 15.9227 33.9 15.6637 34.366 15.6477C34.396 15.7027 34.508 15.7347 34.468 15.8207H34.538C34.64 15.7187 34.638 15.5927 34.64 15.4507C34.68 15.3087 34.852 15.2227 34.978 15.3087C34.938 15.4507 35.033 15.5607 35.151 15.6237L34.907 15.9617C34.781 16.1037 34.937 16.4887 34.607 16.4617C34.537 16.4777 34.481 16.4217 34.505 16.3617H34.435L34.608 16.6767C34.805 16.6607 34.765 16.3067 35.008 16.2767C35.236 16.2217 35.26 15.9547 35.236 15.7417C35.536 15.4897 35.896 15.6397 36.236 15.5997C36.323 15.6867 36.519 15.6997 36.48 15.8667C36.606 16.1187 36.393 16.4017 36.236 16.6137C36.306 16.7557 36.134 16.8657 36.134 17.0137C35.867 17.2967 35.568 17.1707 35.214 17.2577C35.662 17.5727 36.15 17.7577 36.74 17.7217C37.306 17.7617 37.04 17.0457 37.448 16.8167C37.692 16.7867 37.896 16.8467 38.172 16.7767C38.272 16.5647 38.298 16.3127 38.345 16.0687C38.101 15.9687 38.188 15.7147 38.172 15.5187C38.03 15.3457 38.046 15.0387 37.772 15.0187C37.717 14.8617 37.872 14.7907 37.874 14.6487C38.299 14.4917 37.646 14.2487 37.914 13.9957C37.434 13.9087 37.314 13.1457 36.726 13.3897C36.584 13.1927 36.226 13.1067 36.226 12.8077C36.266 12.5957 36.746 12.6817 36.69 12.7057C36.66 12.6657 36.603 12.6357 36.62 12.5797C36.44 12.5637 36.227 12.5797 36.12 12.6737L36.076 12.6677ZM30.043 14.4927C29.523 14.6657 30.043 15.1527 30.013 15.4927C29.958 15.7597 29.691 15.5477 29.533 15.6657C29.603 16.1057 29.233 16.1927 28.927 16.2717C28.825 16.5717 29.155 16.7117 28.997 16.9957C29.375 17.3807 29.673 17.8457 29.603 18.3797C29.87 18.7647 29.8 19.3397 29.87 19.8347C30.098 20.0627 30.224 20.4007 30.208 20.7547C30.224 20.9347 30.028 20.9987 29.908 21.0697C29.766 21.2427 30.01 21.1567 30.01 21.2977L31.906 19.3317C31.246 18.5687 30.718 17.5537 30.522 16.4917L30.278 16.3497C30.238 16.6167 30.248 17.0027 30.011 17.0967C29.885 16.9967 29.633 16.9237 29.633 16.6967C29.703 16.5397 29.83 16.6417 29.948 16.6267C29.932 16.5007 29.964 16.3747 29.978 16.2567C30.018 16.0997 29.75 15.9897 29.948 15.8567C30.121 15.8407 30.192 16.0367 30.318 16.1237L30.656 15.9507C30.554 15.6287 30.743 15.1167 30.626 14.7627C30.579 14.4797 30.272 14.5347 30.044 14.5187L30.043 14.4927ZM43.713 15.4837L44.091 15.9237C44.075 16.4197 44.751 16.5767 44.799 17.0797C44.941 16.6157 44.925 16.0797 45.066 15.6247C44.633 15.5777 44.066 15.7197 43.713 15.4837ZM48.771 15.5077L48.841 15.6497C48.7147 18.5349 47.5564 21.2787 45.577 23.3817C46.1456 23.9004 46.6915 24.4436 47.213 25.0097C49.093 22.8467 50.383 20.4167 50.831 17.6557C50.988 16.9477 50.931 16.1857 51.146 15.5087C50.454 15.7057 49.646 15.5787 48.873 15.6087L48.771 15.5077ZM45.871 15.5547C45.958 15.8377 45.784 16.1047 45.801 16.4047C45.501 16.9007 46.186 17.0247 45.998 17.4897C45.872 17.5917 45.746 17.5767 45.598 17.5197C45.244 18.9037 44.552 20.1797 43.561 21.2797H43.459C43.711 21.4367 43.899 21.7797 44.183 21.8617V21.6647C44.238 21.6247 44.27 21.5227 44.356 21.5627C44.906 21.7357 44.956 22.4987 44.993 22.8627C46.433 21.3627 47.329 19.5627 47.777 17.6007C47.934 16.9477 47.847 16.1607 48.115 15.5947C47.375 15.6347 46.573 15.6747 45.881 15.5647L45.871 15.5547ZM28.271 15.5787C28.428 16.0787 28.593 16.6407 28.468 17.2067C28.468 16.9547 29.018 16.7067 28.568 16.4767C28.741 16.2247 28.608 15.6827 28.938 15.6587C28.678 15.7137 28.482 15.7137 28.262 15.5787H28.271ZM22.333 15.6487C22.49 19.2507 23.82 22.4047 26.163 25.0787C26.683 24.5287 27.263 23.9067 27.83 23.4507C27.547 23.2707 27.366 22.9507 27.083 22.7037C26.729 22.6337 26.483 22.3037 26.407 21.9957C26.423 22.0357 26.367 22.0657 26.337 22.0977C26.015 22.2547 25.912 21.8537 25.7 21.7277C25.503 21.6257 25.66 21.1777 25.315 21.3427C25.118 21.0207 24.749 21.0427 24.607 20.6667L24.465 20.9107C24.213 20.8947 24.025 20.5887 23.883 20.4307C23.363 20.5877 23.568 19.8647 23.277 19.6287C23.177 19.1727 23.307 18.7557 23.544 18.4017C23.701 18.2597 24 18.3717 24.044 18.4717C24.311 18.5737 24.146 18.2597 24.288 18.2047C24.666 17.8827 24.854 18.3307 25.068 18.5747C24.753 17.6697 24.568 16.6087 24.604 15.6327C23.874 15.7197 23.054 15.6957 22.324 15.6487H22.333ZM25.313 15.6247L25.383 15.7267C25.453 16.7417 25.737 17.7327 25.823 18.7067C25.949 18.6197 25.863 18.3917 26.035 18.3917C26.09 17.9117 26.161 17.3617 26.475 16.9367C26.923 16.9207 26.939 16.3167 27.419 16.3547C27.519 16.4417 27.686 16.5517 27.734 16.6927C27.49 16.4097 27.482 15.9627 27.592 15.6147C26.876 15.7167 26.035 15.7167 25.312 15.6227L25.313 15.6247ZM31.463 16.5297L31.589 16.7417C31.762 17.4497 32.189 18.0397 32.533 18.6767L33.186 18.0007C33.17 17.9137 33.216 17.8207 33.156 17.7567C33.03 17.5837 33.116 17.2767 32.944 17.1747C32.889 17.3317 33.07 17.4187 32.984 17.5447C32.772 17.4577 32.544 17.3647 32.434 17.1047C32.474 16.7827 32.237 17.0177 32.064 16.8607C32.056 16.5147 31.616 16.7427 31.466 16.5307L31.463 16.5297ZM33.838 17.1117C33.798 17.3087 33.641 17.4657 33.523 17.6117C33.72 17.5247 33.838 17.2267 34.058 17.2417L33.838 17.1117ZM53.344 17.3787C51.999 20.2737 52.974 24.1187 51.338 26.8807L51.605 26.6527C54.783 24.9147 58.613 21.9887 57.985 17.7177C57.93 18.2997 57.741 18.8177 57.485 19.3147C56.242 21.2497 54.119 22.8307 53.072 24.8447C53.042 24.9147 52.946 24.9447 52.899 24.8847L53.111 24.6177C54.613 22.4547 53.268 19.7957 53.355 17.3817L53.344 17.3787ZM39.87 17.6147C39.555 18.0547 40.17 18.0147 40.208 18.3947C40.278 18.3947 40.365 18.4247 40.405 18.3647C40.365 18.2077 40.375 18.0427 40.232 17.9247C39.996 17.9327 39.996 17.6177 39.87 17.6177V17.6147ZM20.05 17.6617C20.223 18.5977 19.924 19.4157 19.783 20.2647C19.303 21.8927 19.539 23.7967 20.491 25.1247C20.176 24.9677 19.991 24.6047 19.783 24.2747C18.611 22.0247 15.653 20.7507 15.403 18.0527C15.387 19.0277 15.387 20.0587 15.686 20.9397C16.504 23.9597 19.839 25.5177 22.089 27.0437C20.492 24.2907 21.342 20.5387 20.052 17.6597L20.05 17.6617ZM43.63 17.7877C43.23 17.4807 43.308 18.0707 42.954 18.0317C42.828 18.0017 42.797 17.8517 42.781 17.7167C42.751 18.0387 42.498 18.2827 42.317 18.5347C41.664 18.3547 41.837 19.2647 41.184 19.0697C41.271 19.3217 41.554 19.0297 41.684 19.1097C41.784 19.0547 41.771 18.9367 41.826 18.8657C41.896 18.5987 42.219 18.4957 42.479 18.5987C42.621 18.8267 42.659 19.0987 42.652 19.3787C42.495 19.4787 42.495 19.6787 42.51 19.8587C42.313 20.1807 42.41 20.8737 41.802 20.8027C41.182 20.5747 40.504 20.4097 39.82 20.4027V20.5447C40.276 20.7177 40.78 20.7177 41.15 21.0447C41.543 21.0047 42.05 21.0997 42.338 20.8717C42.3765 20.5953 42.4938 20.336 42.676 20.1247C42.928 20.1547 42.873 20.4947 42.991 20.6597C43.738 19.7157 44.391 18.8117 44.643 17.6477C44.273 17.6317 44.006 17.8447 43.62 17.7897L43.63 17.7877ZM34.545 17.7577L33.185 19.2837C33.965 19.8837 34.868 20.3457 35.885 20.5037C35.869 20.2367 35.869 19.9687 36.011 19.7567C36.153 19.6697 36.365 19.7967 36.491 19.6547C36.475 19.5287 36.389 19.5287 36.318 19.4107C36.231 19.2137 36.318 19.0327 36.348 18.9107C36.403 18.8087 36.248 18.5887 36.418 18.5177C35.978 18.7297 35.584 18.4307 35.198 18.3057C34.986 18.1407 34.598 18.1007 34.553 17.7707L34.545 17.7577ZM38.925 19.2837C39.098 19.0557 39.46 19.1037 39.531 18.8437C39.216 18.7887 38.878 19.0167 38.925 19.2837ZM39.727 19.6217C39.57 19.7087 39.444 19.7087 39.357 19.8887C39.177 20.1327 38.957 19.8727 38.775 19.7867C38.83 19.8567 38.955 20.0307 38.805 20.1247C38.625 20.3217 38.451 20.0377 38.27 19.9827C38.168 20.6027 37.948 19.8097 37.617 19.9527C37.475 19.5987 37.232 20.0227 37.011 19.9827C36.838 20.1247 36.831 20.5327 36.511 20.4827C36.441 20.6797 36.173 20.6087 36.141 20.7497C36.298 20.9297 36.511 20.8517 36.676 20.8197C36.943 20.5757 37.282 20.7327 37.596 20.6937C37.566 21.1937 38.162 20.8197 38.343 21.1337C38.555 21.1177 38.555 20.9057 38.643 20.7487C39.083 20.6787 39.543 20.4107 39.776 20.0727C39.839 19.9547 39.918 19.6797 39.736 19.6087L39.727 19.6217ZM32.507 19.8657C32.0469 20.4207 31.5361 20.9316 30.981 21.3917H31.083C32.326 22.4697 33.899 23.2167 35.37 23.4517C34.835 23.3817 34.623 22.8537 34.37 22.4517C34.228 22.1297 34.724 22.0587 34.637 21.7217C34.817 21.4217 35.101 21.2577 35.455 21.2217C35.282 21.2517 35.117 21.2767 34.955 21.3237C34.058 21.0237 33.155 20.6317 32.509 19.8687L32.507 19.8657ZM51.982 21.6587L50.774 23.2057C49.177 25.4077 49.358 28.4207 47.14 30.3007C48.288 29.9307 49.547 29.7737 50.727 29.5207C53.401 28.8447 56.209 26.2207 56.595 23.4707C56.115 24.6187 55.108 25.4707 54.095 26.1307C52.341 26.9487 50.563 27.8847 49.077 29.1827H48.904L49.006 29.0407C51.57 27.3407 50.878 24.0707 51.963 21.6467L51.982 21.6587ZM42.922 21.8317V21.8617C41.86 22.6087 43.422 22.6417 43.457 23.2937C43.3 23.6087 42.733 23.9137 43.087 24.2937C43.187 24.4197 43.032 24.5217 42.985 24.6317L44.44 23.4047C44.26 23.5307 44.04 23.4447 43.94 23.2787C43.97 22.6257 43.2 22.3507 42.933 21.8387L42.922 21.8317ZM21.41 21.9017L21.81 22.9477C22.203 25.2917 22.392 27.8797 24.524 29.3657L24.494 29.3957C23.802 29.0957 23.274 28.5227 22.654 28.1377C20.648 26.8397 17.88 26.2577 16.747 23.7727C17.062 25.5977 18.304 27.2257 19.799 28.3507C21.592 29.9307 24.094 29.8057 26.299 30.4427C25.497 29.8227 25.041 29.1127 24.671 28.2407C23.877 26.0147 23.169 23.6947 21.415 21.9007L21.41 21.9017ZM31.148 22.6327C31.148 22.8767 31.47 22.8847 31.345 23.1827C30.865 23.4827 30.283 23.2697 29.819 23.6227C29.394 23.8507 29.039 23.3557 28.804 23.3787C30.864 25.1567 33.287 26.3437 36.072 26.4787L36.245 26.5807C36.145 25.9047 36.175 25.1107 36.215 24.4007C34.319 24.5007 32.615 23.7247 31.15 22.6307L31.148 22.6327ZM45.031 23.8907C44.7107 24.3274 44.3069 24.6962 43.843 24.9757C42.373 25.4757 42.231 27.1227 40.791 27.6757C40.225 27.9037 39.891 27.1757 39.391 27.0557C38.628 27.1817 37.834 27.3937 37.055 27.2677V29.6427L37.157 29.5727C40.7045 29.4318 44.0805 28.0092 46.659 25.5687C46.077 25.0187 45.456 24.4517 45.031 23.9017V23.8907ZM28.331 24.0327L26.758 25.6607C29.44 28.0677 32.658 29.3657 36.26 29.5937L36.158 29.4207C36.188 28.7127 36.103 27.9657 36.228 27.2887L36.198 27.3287C33.193 27.2417 30.448 26.1257 28.333 24.0327H28.331ZM36.936 24.5327L37.078 24.7767L37.048 26.5697C37.568 26.3727 38.291 26.3897 38.771 26.3027C38.488 26.0197 38.063 26.0507 37.953 25.6267C37.756 25.3437 38.04 25.0447 38.023 24.8087C37.685 24.6437 37.181 24.8387 36.938 24.5337L36.936 24.5327ZM48.954 26.2327C47.326 27.2947 45.926 29.1027 44.447 30.2597C43.629 30.8797 42.654 31.0617 41.694 31.3447C43.818 31.5017 45.58 32.5007 47.798 32.3597C48.9736 32.3032 50.1144 31.9422 51.1084 31.312C52.1024 30.6817 52.9155 29.8039 53.468 28.7647C51.832 30.7147 49.198 30.6047 46.782 30.8247C45.98 30.9267 45.185 31.1627 44.375 31.1627C44.405 31.1327 44.43 31.0757 44.477 31.0927C47.112 30.8807 47.859 28.0097 48.952 26.2327H48.954ZM24.422 26.3977C25.507 27.6717 25.555 29.3547 27.065 30.4017C27.647 30.9017 28.425 31.0077 29.071 31.2747C28.347 31.3447 27.687 31.0467 26.963 31.0077C24.533 30.7077 21.748 31.0237 19.963 29.0417C20.765 30.4577 22.197 31.6847 23.691 32.1647C26.515 33.2427 29.079 31.6647 31.777 31.4177C28.654 31.2757 26.955 27.8547 24.423 26.3997L24.422 26.3977ZM44.786 33.0127C42.371 31.9127 39.571 30.6767 36.74 31.7127C35.2008 31.2489 33.5592 31.2489 32.02 31.7127C29.535 32.8457 26.137 34.5527 23.52 32.6567C24.016 33.2567 24.55 33.5297 25.117 33.9567C26.817 35.0567 29.262 34.9567 31.017 34.0587C32.629 33.3827 33.857 31.3607 35.909 31.9987C34.171 32.8717 32.574 33.9187 31.135 35.4187L32.008 36.1657C33.282 34.4827 34.988 33.0827 36.83 32.2657C38.608 33.1307 40.236 34.6097 41.58 36.0957L42.453 35.3487C41.037 33.9787 39.401 32.8707 37.703 31.9987C38.143 31.8987 38.678 31.9117 39.127 31.9587C40.967 32.7607 42.375 34.3737 44.46 34.6187C46.662 34.9727 48.63 34.0837 49.99 32.4717L48.944 33.0217C47.717 33.5647 46.057 33.4217 44.807 33.0137L44.786 33.0127ZM5.164 40.4257V44.5977C5.164 45.0977 5.082 45.4977 4.837 45.8247C4.64303 46.1951 4.3242 46.4849 3.937 46.6427C3.537 46.8057 3.119 46.9697 2.537 46.9697C1.719 46.9697 1.137 46.7247 0.655001 46.3147C0.255001 45.9147 0 45.3327 0 44.5967V40.4257H1.064V44.5257C1.064 45.0257 1.228 45.4257 1.464 45.6707C1.7 45.9157 2.119 46.0707 2.609 46.0707C3.591 46.0707 4.082 45.5707 4.082 44.5167V40.4167L5.164 40.4257Z" fill="#008FD5"/>
<path d="M10.809 46.8157L7.619 41.6617V41.9067C7.701 42.4797 7.701 42.9707 7.701 43.3797V46.8157H6.719V40.3527H8.029L11.219 45.4247V40.3527H12.201V46.8157H10.809Z" fill="#008FD5"/>
<path d="M13.674 46.8257V40.3627H14.738V46.8257H13.674ZM18.674 46.8257H17.61V41.2627H15.728V40.3627H20.555V41.2627H18.675L18.674 46.8257ZM25.127 46.8257H21.444V40.3627H25.126V41.2627H22.508V42.9807H24.962V43.8807H22.508V45.9257H25.126L25.127 46.8257ZM31.674 43.5537C31.674 44.6177 31.347 45.4357 30.774 46.0077C30.201 46.5797 29.301 46.8257 28.238 46.8257H26.438V40.3627H28.402C29.466 40.3627 30.202 40.6077 30.775 41.1807C31.43 41.7537 31.674 42.5807 31.674 43.5537ZM30.609 43.6257C30.609 42.0717 29.873 41.3257 28.482 41.3257H27.582V45.9887H28.318C29.791 45.9067 30.618 45.1707 30.618 43.6157L30.609 43.6257ZM40.754 46.8257H39.454L36.254 41.6717V41.9167C36.336 42.4897 36.336 42.9807 36.336 43.3897V46.8257H35.354V40.3627H36.654L39.854 45.4347V40.3627H40.836L40.754 46.8257ZM46.481 46.8257L45.826 45.0257H43.372L42.717 46.8257H41.572L43.945 40.3627H45.09L47.464 46.8257H46.481ZM45.499 44.1257L44.926 42.4077C44.844 42.3257 44.844 42.0807 44.762 41.8347C44.68 41.5887 44.598 41.4347 44.598 41.2617C44.516 41.5887 44.434 41.9977 44.271 42.4067L43.698 44.1247L45.499 44.1257ZM50.081 46.8257H49.017V41.2627H47.134V40.3627H51.961V41.2627H50.079L50.081 46.8257ZM52.944 46.8257V40.3627H54.008V46.8257H52.944ZM61.371 43.6257C61.371 44.6897 61.126 45.5077 60.553 46.0797C60.053 46.6527 59.326 46.9797 58.353 46.9797C57.38 46.9797 56.635 46.6527 56.153 46.0797C55.671 45.5067 55.335 44.6797 55.335 43.6257C55.335 42.5717 55.58 41.7437 56.153 41.1717C56.653 40.5987 57.453 40.3537 58.353 40.3537C59.335 40.3537 60.071 40.6807 60.553 41.2537C61.126 41.7537 61.371 42.5527 61.371 43.6257ZM56.471 43.6257C56.471 44.4437 56.635 45.0257 56.971 45.4257C57.307 45.8257 57.789 46.0807 58.371 46.0807C59.026 46.0807 59.435 45.9167 59.771 45.5077C60.107 45.0987 60.271 44.5257 60.271 43.7077C60.271 42.8897 60.107 42.3077 59.771 41.9077C59.435 41.5077 58.953 41.3347 58.371 41.3347C57.716 41.3347 57.226 41.4987 56.971 41.9077C56.644 42.2347 56.471 42.8077 56.471 43.6257Z" fill="#008FD5"/>
<path d="M66.688 46.8157L63.498 41.6617V41.9067C63.58 42.4797 63.58 42.9707 63.58 43.3797V46.8157H62.598V40.3527H63.908L67.098 45.4247V40.3527H68.08V46.8157H66.688Z" fill="#008FD5"/>
<path d="M73.397 45.0987C73.397 45.6717 73.152 46.0807 72.742 46.4087C72.332 46.7367 71.76 46.8987 71.024 46.8987C70.288 46.8987 69.714 46.8167 69.224 46.5717V45.5897C69.551 45.7537 69.797 45.8347 70.124 45.9167C70.451 45.9987 70.779 45.9987 71.024 45.9987C71.434 45.9987 71.76 45.9167 71.924 45.7537C72.088 45.5907 72.251 45.3437 72.251 45.0987C72.2543 44.9911 72.2341 44.8841 72.1918 44.7851C72.1494 44.6862 72.0861 44.5976 72.006 44.5257C71.842 44.3617 71.433 44.1987 70.861 43.9527C70.289 43.7067 69.879 43.4627 69.634 43.1347C69.389 42.8067 69.307 42.4797 69.307 42.0707C69.307 41.4977 69.471 41.0887 69.88 40.7607C70.289 40.4327 70.78 40.2707 71.434 40.2707C72.088 40.2707 72.661 40.4347 73.316 40.6807L72.989 41.4987C72.416 41.2537 71.925 41.1717 71.435 41.1717C71.108 41.1717 70.862 41.2537 70.699 41.4167C70.619 41.4886 70.5556 41.5772 70.5132 41.6761C70.4709 41.7751 70.4507 41.8821 70.454 41.9897C70.454 42.1537 70.454 42.3167 70.536 42.3997C70.618 42.4827 70.7 42.6447 70.863 42.7267L71.763 43.1367C72.253 43.3007 72.581 43.5467 72.827 43.7097C73.073 43.8727 73.237 44.0367 73.317 44.2827C73.397 44.5287 73.399 44.7727 73.399 45.1007L73.397 45.0987Z" fill="#008FD5"/>
</svg>
