<svg width="40" height="48" viewBox="0 0 40 48" fill="none" xmlns="http://www.w3.org/2000/svg">
<g clip-path="url(#clip0_1146_10083)">
<path d="M19.68 46.2075C20.0796 46.0088 30.469 41.5375 33.7657 38.8547C37.1622 36.0725 38.9604 32.098 38.9604 27.3286V4.97208L38.6607 4.87271C30.3691 0.401403 20.0796 0.69949 19.5801 0.69949C19.1805 0.69949 8.89096 0.401403 0.599391 4.87271L0.399594 4.97208V27.428C0.399594 32.1974 2.19777 36.1719 5.59431 38.954C8.89096 41.6368 19.2804 46.1081 19.68 46.2075Z" fill="#341B14"/>
<path d="M19.68 46.7043C19.68 46.7043 8.69117 41.9349 5.29462 39.2521C1.69827 36.2712 0 32.1974 0 27.5274V4.27654C8.69117 -0.393496 19.68 0.00395326 19.68 0.00395326C19.68 0.00395326 30.6688 -0.393496 39.36 4.27654V27.428C39.36 32.098 37.6617 36.1719 34.0654 39.1528C30.6688 41.9349 19.68 46.7043 19.68 46.7043ZM1.59838 27.5274C1.59838 31.8993 3.19675 35.4763 6.2936 37.9604C9.09076 40.2457 17.3823 43.9222 19.68 44.9158C21.9777 43.9222 30.3691 40.1464 33.0664 37.9604C36.1632 35.4763 37.7616 31.7999 37.7616 27.5274V4.67399C26.1734 3.581 12.3874 4.17718 1.59838 14.1134V27.5274Z" fill="#FFB406"/>
<path d="M30.7687 24.2484C32.2672 25.1427 32.8666 25.7388 32.9665 26.8318C32.9665 28.0242 32.1673 28.7197 30.8686 28.7197C29.7698 28.7197 28.4711 28.1235 27.572 27.3286V30.5082C28.6709 31.1044 29.9695 31.6012 31.3681 31.6012C34.7647 31.6012 36.3631 29.2165 36.3631 27.0305C36.463 25.0433 35.8636 23.4535 32.9665 21.7643C31.6678 20.9694 30.6688 20.4726 30.6688 19.2803C30.6688 18.0879 31.7677 17.5911 32.6668 17.5911C33.8656 17.5911 35.0644 18.2866 35.7637 18.9822V16.0013C35.1643 15.5045 33.8656 14.809 31.9675 14.9083C29.6699 15.0077 27.2723 16.5975 27.2723 19.3796C27.3722 21.2675 27.9716 22.6586 30.7687 24.2484ZM18.9807 31.4025C19.2804 31.5018 19.7799 31.6012 20.5791 31.6012C24.4751 31.6012 26.6729 28.1235 26.6729 23.1554C26.6729 18.0879 24.3752 15.0077 20.2794 15.0077C18.3813 15.0077 16.8828 15.4051 15.5842 16.2V38.6559H18.9807V31.4025ZM18.9807 17.8892C19.2804 17.7898 19.7799 17.5911 20.1795 17.5911C22.1775 17.5911 22.9767 19.1809 22.9767 23.056C22.9767 26.8318 21.9777 28.6203 19.9797 28.6203C19.4802 28.6203 19.0806 28.521 18.8808 28.4216V17.8892H18.9807ZM8.49137 31.6012C10.5892 31.6012 12.3874 31.1044 13.6861 30.2101V15.2064H10.1896V28.2229C9.79005 28.521 9.29056 28.6203 8.59127 28.6203C6.99289 28.6203 6.7931 27.1299 6.7931 26.2356V15.2064H3.29665V26.0369C3.29665 29.7133 5.09482 31.6012 8.49137 31.6012ZM31.7677 45.0151V47.3005H32.1673V46.4062H32.2672L32.8666 47.3005H33.3661C33.3661 47.3005 32.7667 46.4062 32.6668 46.3069C32.9665 46.2075 33.1663 46.0088 33.1663 45.7107C33.1663 45.4126 32.9665 45.0151 32.3671 45.0151H31.7677ZM32.3671 45.3132C32.6668 45.3132 32.7667 45.512 32.7667 45.6113C32.7667 45.81 32.6668 46.0088 32.2672 46.0088H32.1673V45.3132H32.3671Z" fill="#FFB406"/>
<path d="M33.9655 46.1081C33.9655 46.903 33.2662 47.5986 32.467 47.5986C31.6678 47.5986 30.9685 46.903 30.9685 46.1081C30.9685 45.3132 31.6678 44.6177 32.467 44.6177C33.3661 44.6177 33.9655 45.3132 33.9655 46.1081ZM32.467 44.2202C31.468 44.2202 30.5689 45.0151 30.5689 46.1081C30.5689 47.1017 31.3681 47.996 32.467 47.996C33.466 47.996 34.3651 47.2011 34.3651 46.1081C34.3651 45.1145 33.466 44.2202 32.467 44.2202Z" fill="#FFB406"/>
</g>
<defs>
<clipPath id="clip0_1146_10083">
<rect width="39.36" height="48" fill="white"/>
</clipPath>
</defs>
</svg>
