<svg width="33" height="48" viewBox="0 0 33 48" fill="none" xmlns="http://www.w3.org/2000/svg">
<g clip-path="url(#clip0_1146_10140)">
<path d="M11.2132 39.2458C10.9079 39.2458 10.6534 39.3989 10.5515 39.6529L9.27892 42.9617L9.17707 43.3181L9.07546 42.9617L8.05739 39.7548V39.704C7.95553 39.4495 7.70101 39.2458 7.39569 39.2458H5.76671C5.41033 39.2966 5.15581 39.5511 5.15581 39.9585C5.15581 40.0601 5.20661 40.162 5.20661 40.2633L5.41008 40.9761L4.64652 42.9609L4.49386 43.3176L4.392 42.9609L3.42472 39.7543V39.7035H3.37392C3.32312 39.449 3.0686 39.2453 2.76302 39.2453H1.1343C0.777926 39.2961 0.472606 39.5503 0.472606 39.958C0.472606 40.0596 0.523663 40.1615 0.574208 40.2628L2.96649 47.4915C3.06834 47.7963 3.32286 48 3.62844 48C3.93376 48 4.18828 47.7963 4.29014 47.542L5.96992 43.2663L6.12258 42.8591L6.22444 43.2663L7.64969 47.4915C7.70049 47.7963 8.00607 48 8.31139 48C8.61697 48 8.87149 47.7963 8.97335 47.542L11.8239 40.2123C11.8747 40.1107 11.8747 40.0088 11.8747 39.907C11.8749 39.5511 11.5693 39.2458 11.2132 39.2458ZM23.2772 39.2458C22.9719 39.2458 22.7169 39.3989 22.6155 39.6529L21.3429 42.9617L21.2413 43.3181L21.1397 42.9617L20.1214 39.7548V39.704C20.0198 39.4495 19.765 39.2458 19.46 39.2458H17.8307C17.4743 39.2966 17.2198 39.5511 17.2198 39.9585C17.2198 40.0601 17.2198 40.162 17.2706 40.2633L17.4743 40.9761L16.7105 42.9609L16.5576 43.3176L16.456 42.9609L15.4887 39.7543L15.4379 39.7035C15.3871 39.449 15.1326 39.2453 14.8273 39.2453H13.1983C12.8419 39.2961 12.5366 39.5503 12.5366 39.958C12.5366 40.0596 12.5877 40.1615 12.6385 40.2628L15.031 47.4915C15.1326 47.7963 15.3874 48 15.693 48C15.998 48 16.2528 47.7963 16.3544 47.542L18.0347 43.2663L18.1874 42.8591L18.289 43.2663L19.7147 47.4915C19.7653 47.7963 20.0711 48 20.3762 48C20.6815 48 20.9365 47.7963 21.0381 47.542L23.8884 40.2123C23.9392 40.1107 23.9392 40.0088 23.9392 39.907C23.9389 39.5511 23.6334 39.2458 23.2772 39.2458ZM31.116 39.2458H25.4655C25.1092 39.2458 24.8552 39.5003 24.8552 39.8567V47.3393C24.9057 47.696 25.1602 47.9502 25.5166 47.9502H27.0943C27.4506 47.9502 27.7052 47.696 27.7052 47.3393V43.8274H30.0469C30.3517 43.8274 30.6575 43.5221 30.6575 43.2165C30.6575 42.8601 30.3525 42.5545 30.0469 42.5545H27.7052V40.5697H31.1158C31.4724 40.5697 31.7775 40.2646 31.7775 39.908C31.7777 39.5513 31.4727 39.2458 31.116 39.2458ZM22.3608 15.3217C23.3791 16.4416 23.4804 19.9031 26.0764 18.5286C27.6033 17.7142 27.6033 14.2528 25.5166 12.9802C23.8363 12.013 22.9203 13.3366 22.3094 14.9653C22.2589 15.118 22.2589 15.2199 22.3608 15.3217ZM18.3395 14.7619C17.2198 15.6273 16.5071 18.1214 14.522 17.256C12.8933 16.4416 12.7406 13.2856 15.5401 11.8095C17.4743 10.8933 18.4416 12.6749 18.4416 14.5582C18.4414 14.609 18.3906 14.7108 18.3395 14.7619ZM20.9866 21.0227C22.0554 20.9211 21.8009 19.9031 20.9866 19.6993C20.2738 19.4448 19.2049 19.2922 18.3906 19.343C17.0161 19.343 17.0672 20.4118 17.7794 20.6156C18.3395 20.7682 18.6954 20.819 19.1536 21.4299C19.561 22.2445 19.3576 21.1754 20.9866 21.0227ZM26.0259 3.30875C27.3493 1.06914 29.6908 1.47632 30.8618 2.59625C32.1346 3.81779 32.3889 5.24305 31.8801 6.21032C31.2181 7.53372 29.4878 9.1119 28.3679 7.58478C27.8594 6.87228 26.8408 6.05766 26.2301 5.85395C25.3639 5.44677 25.2115 4.68295 26.0259 3.30875Z" fill="#272728"/>
<path d="M31.3708 13.1329C31.2692 12.7257 31.0652 12.7765 31.0652 13.0821C31.1671 17.1541 28.724 21.532 23.532 21.5828C22.2086 21.5828 22.616 23.67 20.1725 22.6009C18.4416 21.4302 17.4235 23.7717 16.2017 21.2775C15.8964 20.5648 15.489 20.2594 14.9799 20.1068C9.83876 18.8342 8.20978 11.7587 12.7403 6.05766C13.6057 6.61776 13.9619 6.71936 14.9291 5.80315C15.3874 5.34491 16.2525 4.83587 16.7105 4.68321C17.7794 4.27603 18.3906 3.81779 17.423 1.73083C16.9776 0.747651 16.3708 0.223987 15.7243 0H13.9952C13.5009 0.147127 13.0399 0.38923 12.6382 0.712757C11.3148 1.78164 10.4494 3.46141 12.0779 5.44677C7.49728 8.5518 6.68292 12.3693 6.78453 15.7289C6.88613 19.2411 6.02097 18.9358 7.14091 22.4988C7.24251 22.8044 6.98825 22.8044 6.83558 22.7028C2.05077 19.6485 -0.545221 10.2824 6.93744 5.14119C7.0901 4.98853 7.0393 4.78481 6.4284 5.14119C-0.0364391 8.5518 -0.64708 15.169 0.421799 19.6485C0.930838 21.7863 0.16728 22.1937 0.981896 25.0442C2.91619 30.949 4.54491 31.4575 6.88639 31.6107C11.1114 31.6107 8.20978 29.2692 8.4135 26.3676C8.4135 26.1637 8.61722 26.1131 8.71882 26.4692C11.0603 31.661 12.6893 36.3952 18.7975 35.937C22.3094 35.479 20.3751 33.7482 20.1206 32.7299C17.5249 24.1278 23.8363 22.0916 22.0549 30.4902C20.8844 35.3261 24.6001 34.8168 27.2469 33.0862C29.945 31.3559 33.3051 19.5975 31.3708 13.1329ZM21.0882 23.3642C20.4773 24.8916 17.4741 24.3825 17.3722 22.8554C17.3722 22.8046 17.4741 22.8046 17.4741 22.8554C18.8483 23.1608 20.1206 23.3134 20.986 23.3134C21.0374 23.3134 21.0882 23.2626 21.0882 23.3642Z" fill="#272728"/>
<path d="M7.90447 34.2575C7.90413 34.6489 7.74852 35.0242 7.47178 35.3009C7.19505 35.5777 6.81981 35.7334 6.42841 35.7338C5.56299 35.7338 4.90129 35.0719 4.90129 34.2575C4.90129 33.4429 5.56299 32.7306 6.42841 32.7306C7.24277 32.7304 7.90447 33.4429 7.90447 34.2575ZM6.42841 32.4759C5.41033 32.4759 4.59597 33.2397 4.59597 34.2572C4.59597 35.2248 5.41033 36.0386 6.42841 36.0386C7.39569 36.0386 8.20979 35.2243 8.20979 34.2572C8.20979 33.2394 7.39543 32.4759 6.42841 32.4759Z" fill="#272728"/>
<path d="M6.93745 34.512C6.88639 34.7665 6.68293 34.9194 6.47921 34.9194C6.12283 34.9194 5.86831 34.6141 5.86831 34.2575C5.86831 33.9011 6.07203 33.5961 6.42841 33.5961C6.68293 33.5961 6.88639 33.7487 6.93745 33.9524H7.19197C7.14091 33.5452 6.83559 33.3415 6.42841 33.3415C5.91937 33.3415 5.56299 33.7487 5.56299 34.2575C5.56299 34.7665 5.91937 35.1737 6.47921 35.1737C6.83559 35.1737 7.09011 34.9194 7.19197 34.512H6.93745ZM31.4727 36.599C31.4724 36.9904 31.3168 37.3658 31.04 37.6426C30.7631 37.9194 30.3878 38.075 29.9963 38.0753C29.1309 38.0753 28.4695 37.4136 28.4695 36.599C28.4695 35.7841 29.1309 35.0716 29.9963 35.0716C30.8104 35.0716 31.4727 35.7844 31.4727 36.599ZM29.9963 34.8173C28.978 34.8173 28.1636 35.5811 28.1636 36.599C28.1636 37.5662 28.978 38.3803 29.9963 38.3803C30.9636 38.3803 31.7777 37.5657 31.7777 36.599C31.7777 35.5809 30.9634 34.8173 29.9963 34.8173Z" fill="#272728"/>
<path d="M29.6908 36.7008H29.945L30.4035 37.4646H30.7083L30.1995 36.7008C30.4541 36.6498 30.6575 36.5479 30.6575 36.2426C30.6575 35.8862 30.4541 35.7338 30.0469 35.7338H29.436V37.4646H29.6903L29.6908 36.7008ZM29.6908 36.4974V35.9883H29.9961C30.1995 35.9883 30.4035 35.9883 30.4035 36.1923C30.4035 36.4974 30.1995 36.4974 29.9961 36.4974H29.6908Z" fill="#272728"/>
</g>
<defs>
<clipPath id="clip0_1146_10140">
<rect width="33" height="48" fill="white"/>
</clipPath>
</defs>
</svg>
