<svg width="24" height="24" viewBox="0 0 24 24" fill="none" xmlns="http://www.w3.org/2000/svg">
<path d="M12 2C17.5228 2 22 6.47715 22 12C22 17.5228 17.5228 22 12 22C6.47715 22 2 17.5228 2 12C2 6.47715 6.47715 2 12 2ZM12 4C7.58172 4 4 7.58172 4 12C4 16.4183 7.58172 20 12 20C16.4183 20 20 16.4183 20 12C20 7.58172 16.4183 4 12 4ZM17 12C17.5523 12 18 12.4477 18 13C18 14.3622 17.2713 15.7324 16.2285 16.7354C15.1705 17.7528 13.6814 18.5 12 18.5C10.3186 18.5 8.82951 17.7528 7.77148 16.7354C6.72866 15.7324 6 14.3622 6 13C6 12.4477 6.44772 12 7 12C7.40908 12 7.76113 12.2458 7.91602 12.5977C8.07814 12.6698 8.35341 12.7533 8.75195 12.8301C9.60542 12.9944 10.7868 13.083 12 13.083C13.2132 13.083 14.3946 12.9944 15.248 12.8301C15.6466 12.7533 15.9219 12.6698 16.084 12.5977C16.2389 12.2458 16.5909 12 17 12ZM15.2373 14.8623C14.2817 15.0124 13.1285 15.083 12 15.083C10.8715 15.083 9.71826 15.0124 8.7627 14.8623C8.88074 15.0097 9.01316 15.1544 9.1582 15.2939C9.90987 16.0167 10.9208 16.5 12 16.5C13.0792 16.5 14.0901 16.0167 14.8418 15.2939C14.9868 15.1544 15.1193 15.0097 15.2373 14.8623ZM9 6.31152C9.19033 6.31152 9.36402 6.41917 9.44824 6.58984L9.9502 7.60645L11.0713 7.76953C11.2597 7.7968 11.4167 7.92835 11.4756 8.10938C11.5345 8.29039 11.4849 8.48919 11.3486 8.62207L10.5371 9.41406L10.7285 10.5312C10.7606 10.7187 10.6841 10.9086 10.5303 11.0205C10.3763 11.1324 10.1714 11.1472 10.0029 11.0586L9 10.5312L7.99707 11.0586C7.82862 11.1472 7.62371 11.1324 7.46973 11.0205C7.31596 10.9086 7.23936 10.7187 7.27148 10.5312L7.46289 9.41406L6.65137 8.62207C6.51508 8.48919 6.46555 8.29039 6.52441 8.10938C6.5833 7.92835 6.74031 7.7968 6.92871 7.76953L8.0498 7.60645L8.55176 6.58984C8.63598 6.41917 8.80967 6.31153 9 6.31152ZM15 6.31152C15.1903 6.31152 15.364 6.41917 15.4482 6.58984L15.9502 7.60645L17.0713 7.76953C17.2597 7.7968 17.4167 7.92835 17.4756 8.10938C17.5345 8.29039 17.4849 8.48919 17.3486 8.62207L16.5371 9.41406L16.7285 10.5312C16.7606 10.7187 16.6841 10.9086 16.5303 11.0205C16.3763 11.1324 16.1714 11.1472 16.0029 11.0586L15 10.5312L13.9971 11.0586C13.8286 11.1472 13.6237 11.1324 13.4697 11.0205C13.316 10.9086 13.2394 10.7187 13.2715 10.5312L13.4629 9.41406L12.6514 8.62207C12.5151 8.48919 12.4656 8.29039 12.5244 8.10938C12.5833 7.92835 12.7403 7.7968 12.9287 7.76953L14.0498 7.60645L14.5518 6.58984C14.636 6.41917 14.8097 6.31153 15 6.31152Z" fill="#101828"/>
</svg>
