<svg width="24" height="24" viewBox="0 0 24 24" fill="none" xmlns="http://www.w3.org/2000/svg">
<path fill-rule="evenodd" clip-rule="evenodd" d="M12 4C7.58172 4 4 7.58172 4 12C4 16.4183 7.58172 20 12 20C16.4183 20 20 16.4183 20 12C20 7.58172 16.4183 4 12 4ZM2 12C2 6.47715 6.47715 2 12 2C17.5228 2 22 6.47715 22 12C22 17.5228 17.5228 22 12 22C6.47715 22 2 17.5228 2 12ZM7.99 9C7.99 8.44772 8.43772 8 8.99 8H9C9.55228 8 10 8.44772 10 9C10 9.55228 9.55228 10 9 10H8.99C8.43772 10 7.99 9.55228 7.99 9ZM14 9C14 8.44772 14.4477 8 15 8H15.01C15.5623 8 16.01 8.44772 16.01 9C16.01 9.55228 15.5623 10 15.01 10H15C14.4477 10 14 9.55228 14 9ZM5.83024 12.3617C6.02022 12.1326 6.30238 12 6.6 12H17.41C17.7076 12 17.9898 12.1326 18.1798 12.3617C18.3697 12.5908 18.4478 12.8926 18.3927 13.1851C18.1123 14.6741 17.3205 16.0184 16.1542 16.9856C14.9878 17.9528 13.5202 18.4822 12.005 18.4822C10.4898 18.4822 9.02218 17.9528 7.85583 16.9856C6.68948 16.0184 5.89768 14.6741 5.61727 13.1851C5.56219 12.8926 5.64026 12.5908 5.83024 12.3617ZM7.98276 14C8.25989 14.5524 8.64988 15.0459 9.1325 15.4461C9.93997 16.1157 10.956 16.4822 12.005 16.4822C13.054 16.4822 14.07 16.1157 14.8775 15.4461C15.3601 15.0459 15.7501 14.5524 16.0272 14H7.98276Z" fill="#101828"/>
</svg>
