<svg width="24" height="24" viewBox="0 0 24 24" fill="none" xmlns="http://www.w3.org/2000/svg">
<path fill-rule="evenodd" clip-rule="evenodd" d="M9.37176 2.18936C9.94452 1.97498 10.5692 1.94127 11.1617 2.09276C11.4323 2.16193 11.6902 2.2682 11.9286 2.40734C12.167 2.2682 12.4249 2.16193 12.6955 2.09276C13.288 1.94127 13.9127 1.97498 14.4854 2.18936C15.0582 2.40373 15.5515 2.78847 15.8989 3.29175C16.052 3.5136 16.1736 3.75378 16.2614 4.0054C16.6977 3.97928 17.1347 4.04878 17.5419 4.20944C17.9735 4.37976 18.3598 4.6479 18.6703 4.99276C18.9807 5.33762 19.207 5.7498 19.3312 6.1969C19.4554 6.64399 19.4743 7.11381 19.3862 7.56941C19.2981 8.02501 19.1056 8.45397 18.8237 8.82256C18.5417 9.19115 18.1782 9.48932 17.7615 9.69362C17.3459 9.89743 16.8888 10.0023 16.4259 10H14.7352L14.7286 11.574C14.7286 11.5745 14.7286 11.575 14.7286 11.5755C14.7288 11.6341 14.7404 11.6618 14.746 11.6729C14.7518 11.6843 14.7653 11.706 14.8046 11.7349C14.8926 11.7994 15.1143 11.8977 15.5391 11.8977C15.8953 11.8977 16.1215 11.7909 16.2389 11.6971C16.3279 11.626 16.3465 11.574 16.3496 11.5634C16.3553 11.016 16.8008 10.574 17.3496 10.574C17.9019 10.574 18.3496 11.0217 18.3496 11.574C18.3496 11.6641 18.3749 11.7022 18.4097 11.7324C18.458 11.7742 18.6482 11.9 19.1606 11.9C19.3248 11.9 19.573 11.8388 19.754 11.7246C19.8371 11.6722 19.8759 11.6275 19.8906 11.6053C19.8998 11.5912 19.9006 11.587 19.9006 11.574C19.9006 11.0345 20.3286 10.5922 20.8678 10.5745C21.407 10.5568 21.8631 10.9701 21.8984 11.5084L21.9264 11.9344C21.9279 11.9562 21.9286 11.9781 21.9286 12C21.9286 14.6522 20.875 17.1957 18.9997 19.0711C17.1243 20.9464 14.5808 22 11.9286 22C9.27642 22 6.73288 20.9464 4.85752 19.0711C2.98216 17.1957 1.92859 14.6522 1.92859 12V11.574C1.92859 11.1367 2.21276 10.7501 2.63015 10.6196C3.04754 10.4891 3.50132 10.6449 3.75045 11.0043C3.77703 11.0427 3.80279 11.0802 3.828 11.117C3.97639 11.3333 4.10597 11.5222 4.27384 11.6851C4.45632 11.8621 4.57825 11.9 4.66859 11.9C4.81042 11.9 5.04638 11.8282 5.24899 11.6805C5.34248 11.6123 5.39671 11.5506 5.42126 11.5137C5.45241 10.9895 5.88742 10.574 6.41948 10.574C6.94626 10.574 7.37791 10.9813 7.41665 11.4982C7.44357 11.5332 7.50021 11.5913 7.5981 11.6563C7.81845 11.8026 8.12023 11.9 8.38859 11.9C8.43287 11.9 8.52067 11.8899 8.63527 11.8538C8.74698 11.8187 8.85598 11.7677 8.9457 11.7085C9.06229 11.6317 9.09935 11.5778 9.10959 11.5574V10H7.43127C6.9684 10.0023 6.51126 9.89743 6.09563 9.69362C5.679 9.48932 5.31543 9.19115 5.03353 8.82256C4.75162 8.45397 4.55906 8.02501 4.47099 7.56941C4.38292 7.11382 4.40174 6.644 4.52597 6.1969C4.65019 5.7498 4.87644 5.33762 5.18692 4.99276C5.4974 4.6479 5.88365 4.37976 6.3153 4.20944C6.72243 4.04878 7.15948 3.97927 7.59575 4.00539C7.68358 3.75377 7.80514 3.5136 7.95828 3.29175C8.3057 2.78847 8.79901 2.40373 9.37176 2.18936ZM9.42859 4.98597C9.43005 5.02872 9.43465 5.07131 9.44233 5.1134C9.51312 5.50115 9.34953 5.89432 9.02458 6.11741C8.69963 6.3405 8.27395 6.3519 7.93753 6.14651C7.80551 6.06592 7.65659 6.01704 7.50248 6.00374C7.34838 5.99043 7.19329 6.01306 7.04941 6.06983C6.90553 6.12661 6.77678 6.21599 6.67328 6.33094C6.56979 6.4459 6.49437 6.58329 6.45296 6.73232C6.41155 6.88135 6.40528 7.03796 6.43464 7.18983C6.464 7.34169 6.52818 7.48468 6.62215 7.60754C6.71612 7.73041 6.83731 7.82979 6.97619 7.8979C7.11507 7.966 7.26785 8.00095 7.42253 8.00001L7.42859 7.99998L10.8166 8C11.3689 8 11.8166 8.44771 11.8166 9C11.8166 9.45033 11.5189 9.83114 11.1096 9.95639V11.5371C11.1286 11.5627 11.1813 11.6176 11.313 11.6926C11.4283 11.7584 11.5653 11.8134 11.7006 11.8511C11.841 11.8903 11.9412 11.9 11.9796 11.9C12.0156 11.9 12.0992 11.8901 12.2173 11.8492C12.3315 11.8097 12.4475 11.7516 12.5465 11.6835C12.6446 11.6161 12.702 11.5554 12.7288 11.5183L12.7388 9.14973C12.7322 9.10341 12.7288 9.05607 12.7288 9.00793V7.31653C12.7288 6.76424 13.1765 6.31653 13.7288 6.31653C14.2811 6.31653 14.7288 6.76424 14.7288 7.31653V8H16.4347C16.5893 8.00093 16.7421 7.966 16.881 7.8979C17.0199 7.82979 17.1411 7.73041 17.235 7.60754C17.329 7.48468 17.3932 7.34169 17.4225 7.18983C17.4519 7.03796 17.4456 6.88135 17.4042 6.73232C17.3628 6.58329 17.2874 6.44589 17.1839 6.33094C17.0804 6.21599 16.9517 6.12661 16.8078 6.06983C16.6639 6.01306 16.5088 5.99043 16.3547 6.00374C16.2006 6.01704 16.0517 6.06592 15.9197 6.14651C15.5832 6.3519 15.1575 6.3405 14.8326 6.11741C14.5076 5.89432 14.3441 5.50115 14.4148 5.1134C14.4225 5.07131 14.4271 5.02871 14.4286 4.98594C14.4275 4.7866 14.3663 4.59213 14.253 4.42796C14.1378 4.26109 13.9742 4.13353 13.7843 4.06246C13.5944 3.99138 13.3873 3.9802 13.1909 4.03043C12.9944 4.08065 12.8181 4.18987 12.6856 4.34337C12.4957 4.56347 12.2193 4.69 11.9286 4.69C11.6379 4.69 11.3615 4.56347 11.1716 4.34337C11.0391 4.18987 10.8627 4.08065 10.6663 4.03043C10.4699 3.9802 10.2627 3.99138 10.0728 4.06246C9.88294 4.13353 9.71938 4.26109 9.6042 4.42796C9.49086 4.59214 9.4297 4.78662 9.42859 4.98597ZM13.6382 13.3596C13.1647 13.6744 12.5528 13.9 11.9796 13.9C11.4866 13.9 10.85 13.7307 10.3227 13.4302C10.2633 13.3964 10.201 13.3583 10.1374 13.3158C10.1069 13.3377 10.0765 13.3585 10.0465 13.3783C9.55108 13.7049 8.93178 13.9 8.38859 13.9C7.69957 13.9 7.01678 13.671 6.49193 13.3225C6.47473 13.3111 6.45739 13.2993 6.43994 13.2872C6.4357 13.2904 6.43147 13.2935 6.42724 13.2965C5.95046 13.6442 5.31098 13.9 4.66859 13.9C4.48217 13.9 4.30703 13.8784 4.14315 13.8404C4.48203 15.2739 5.21327 16.5984 6.27173 17.6568C7.77203 19.1571 9.80686 20 11.9286 20C14.0503 20 16.0852 19.1571 17.5854 17.6568C18.6425 16.5998 19.3732 15.2774 19.7127 13.8462C19.5224 13.8822 19.3358 13.9 19.1606 13.9C18.4377 13.9 17.7964 13.7433 17.2958 13.3958C16.7999 13.7173 16.1778 13.8977 15.5391 13.8977C14.8495 13.8977 14.1727 13.7446 13.6382 13.3596ZM11.1002 11.5209C11.1005 11.5209 11.1019 11.5233 11.1036 11.5283C11.1007 11.5235 11.0999 11.521 11.1002 11.5209ZM5.43145 11.4968C5.43184 11.4959 5.43207 11.4954 5.43209 11.4954L5.43145 11.4968ZM7.92859 16C7.92859 15.4477 8.3763 15 8.92859 15H8.93859C9.49087 15 9.93859 15.4477 9.93859 16C9.93859 16.5523 9.49087 17 8.93859 17H8.92859C8.3763 17 7.92859 16.5523 7.92859 16ZM13.9286 16C13.9286 15.4477 14.3763 15 14.9286 15H14.9386C15.4909 15 15.9386 15.4477 15.9386 16C15.9386 16.5523 15.4909 17 14.9386 17H14.9286C14.3763 17 13.9286 16.5523 13.9286 16ZM10.5144 16.9104C10.8894 16.5353 11.3982 16.3246 11.9286 16.3246C12.459 16.3246 12.9677 16.5353 13.3428 16.9104C13.3468 16.9143 13.3508 16.9184 13.355 16.9226C13.4346 17.0021 13.5545 17.1218 13.6492 17.2466C13.7551 17.3863 13.9286 17.6567 13.9286 18.0334V19.0334H9.92859V18.0334C9.92859 17.6666 10.0785 17.3948 10.2264 17.2115C10.2875 17.1357 10.3509 17.0717 10.3918 17.031C10.4264 16.9966 10.4413 16.9822 10.4547 16.9693C10.4689 16.9555 10.4815 16.9433 10.5144 16.9104Z" fill="#101828"/>
</svg>
