<svg width="24" height="24" viewBox="0 0 24 24" fill="none" xmlns="http://www.w3.org/2000/svg">
<path fill-rule="evenodd" clip-rule="evenodd" d="M12 4C7.58172 4 4 7.58172 4 12C4 16.4183 7.58172 20 12 20C16.4183 20 20 16.4183 20 12C20 7.58172 16.4183 4 12 4ZM2 12C2 6.47715 6.47715 2 12 2C17.5228 2 22 6.47715 22 12C22 17.5228 17.5228 22 12 22C6.47715 22 2 17.5228 2 12ZM7.99 9C7.99 8.44772 8.43772 8 8.99 8H9C9.55228 8 10 8.44772 10 9C10 9.55228 9.55228 10 9 10H8.99C8.43772 10 7.99 9.55228 7.99 9ZM13.99 9C13.99 8.44772 14.4377 8 14.99 8H15C15.5523 8 16 8.44772 16 9C16 9.55228 15.5523 10 15 10H14.99C14.4377 10 13.99 9.55228 13.99 9ZM7.44625 12.1051L7.4531 12.1084C7.46254 12.1129 7.47937 12.1207 7.50334 12.1316C7.5513 12.1532 7.62773 12.1865 7.73074 12.2277C7.9369 12.3102 8.24846 12.4237 8.65016 12.5384C9.45471 12.7681 10.6126 13 12.005 13C13.3974 13 14.5525 12.7682 15.3541 12.5386C15.7544 12.424 16.0645 12.3106 16.2695 12.2282C16.372 12.1871 16.4479 12.1539 16.4955 12.1323C16.5193 12.1215 16.536 12.1136 16.5453 12.1092L16.5538 12.1051L16.5527 12.1056L16.5516 12.1062C16.8615 11.9507 17.2298 11.9668 17.5249 12.1488C17.8202 12.3309 18 12.6531 18 13C18 14.2464 17.4069 15.9468 16.1542 16.9856C14.9878 17.9528 13.5202 18.4822 12.005 18.4822C10.4898 18.4822 9.02218 17.9528 7.85583 16.9856C6.607 15.95 6 14.2522 6 13C6 12.6534 6.17945 12.3316 6.47427 12.1493C6.76869 11.9674 7.13652 11.9508 7.44625 12.1051C7.44639 12.1052 7.44612 12.105 7.44625 12.1051ZM8.42546 14.5497C8.60749 14.8914 8.84503 15.2077 9.1325 15.4461C9.93997 16.1157 10.956 16.4822 12.005 16.4822C13.054 16.4822 14.07 16.1157 14.8775 15.4461C15.1643 15.2082 15.4006 14.8918 15.5811 14.5496C14.6636 14.7872 13.4415 15 12.005 15C10.5686 15 9.34481 14.7873 8.42546 14.5497Z" fill="#101828"/>
</svg>
