<svg width="24" height="24" viewBox="0 0 24 24" fill="none" xmlns="http://www.w3.org/2000/svg">
<path fill-rule="evenodd" clip-rule="evenodd" d="M9.49123 19C9.59109 19.0001 9.69078 18.9724 9.77981 18.9176C9.86908 18.8626 9.94539 18.7816 9.99769 18.6807C10.0037 18.669 10.01 18.6574 10.0165 18.646C11.1355 16.6795 12.5288 14.8902 14.1527 13.3349C14.1904 13.2988 14.2309 13.2657 14.2738 13.2359C14.355 13.1795 14.4383 13.1195 14.5245 13.0576C14.9322 12.7642 15.4027 12.4257 16 12.2091V6.5C16 5.11929 17.1193 4 18.5 4C19.8807 4 21 5.11929 21 6.5V13C21 13.2652 20.8946 13.5196 20.7071 13.7071C20.5196 13.8946 20.2652 14 20 14L17.0529 14C16.5866 14.0548 16.311 14.2488 15.7131 14.6695C15.6406 14.7205 15.5634 14.7749 15.4805 14.8327C14.0251 16.2368 12.773 17.849 11.7633 19.6202C11.5465 20.0303 11.2247 20.3766 10.8285 20.6206C10.426 20.8685 9.96312 21.0004 9.48971 21C9.11931 21.0001 8.75391 20.9193 8.41803 20.7639C8.08198 20.6085 7.78405 20.3823 7.54304 20.1022C7.30209 19.8221 7.12335 19.4942 7.01721 19.1408C6.91108 18.7875 6.87959 18.4157 6.92449 18.0497C6.93276 17.9823 6.94785 17.916 6.96956 17.8517L7.93194 15H5.58497C5.44381 14.9999 5.24739 14.9992 5.03606 14.9507C4.81485 14.8999 4.6357 14.8114 4.48794 14.7324C4.09003 14.5199 3.75056 14.2135 3.49653 13.8413C3.24257 13.4693 3.08093 13.0419 3.0235 12.5954C2.96662 12.1533 3.01331 11.7034 3.1602 11.2826L5.2548 4.89263L5.26264 4.86965C5.26949 4.85035 5.27663 4.82995 5.28412 4.80856C5.39304 4.49744 5.57519 3.97714 5.99629 3.5925C6.4944 3.13753 7.14823 3 7.87962 3C9.88669 3 12.04 3.66353 13.7139 4.17933C14.1137 4.30251 14.4861 4.41728 14.8227 4.51256C15.3541 4.663 15.6629 5.21574 15.5125 5.74714C15.362 6.27854 14.8093 6.58737 14.2779 6.43693C13.8533 6.31672 13.4175 6.18331 12.9742 6.04761C11.3155 5.53984 9.55201 5 7.87962 5C7.50891 5 7.37596 5.05307 7.34412 5.07051C7.33842 5.07747 7.32282 5.09899 7.29843 5.14902C7.25712 5.23377 7.21787 5.34035 7.15149 5.52722L5.05741 11.9156L5.04978 11.938C5.00447 12.0659 4.98964 12.2041 5.00715 12.3402C5.02466 12.4763 5.07371 12.6044 5.14834 12.7137C5.22289 12.8229 5.32022 12.9095 5.43036 12.9684C5.45685 12.9825 5.47615 12.9923 5.48953 12.9988C5.50935 12.9995 5.53886 13 5.58497 13C5.5851 13 5.58484 13 5.58497 13H10.5C11.0523 13 11.5 13.4477 11.5 14C11.5 14.5523 11.0523 15 10.5 15H10.0428L8.90466 18.3724C8.90446 18.4378 8.91389 18.503 8.93265 18.5655C8.95896 18.653 9.00261 18.7321 9.05924 18.7979C9.1158 18.8637 9.1838 18.9145 9.25772 18.9487C9.33155 18.9829 9.41047 19 9.4895 19L9.49123 19ZM7.33598 5.07598C7.33574 5.07582 7.33779 5.07408 7.34284 5.07123C7.33874 5.07471 7.33621 5.07614 7.33598 5.07598ZM18 12H19V6.5C19 6.22386 18.7761 6 18.5 6C18.2239 6 18 6.22386 18 6.5V12Z" fill="#101828"/>
</svg>
