<svg width="24" height="24" viewBox="0 0 24 24" fill="none" xmlns="http://www.w3.org/2000/svg">
<path fill-rule="evenodd" clip-rule="evenodd" d="M14.5088 5C14.4089 4.99988 14.3092 5.02758 14.2202 5.0824C14.1309 5.13738 14.0546 5.21837 14.0023 5.31934C13.9963 5.33102 13.99 5.34257 13.9835 5.354C12.8645 7.32048 11.4712 9.10981 9.84728 10.6651C9.80956 10.7012 9.76907 10.7343 9.72617 10.7641C9.64502 10.8205 9.56168 10.8805 9.47555 10.9424C9.0678 11.2358 8.59734 11.5743 8 11.7909V17.5C8 18.8807 6.88071 20 5.5 20C4.11929 20 3 18.8807 3 17.5V11C3 10.7348 3.10536 10.4804 3.29289 10.2929C3.48043 10.1054 3.73478 10 4 10L6.94707 10C7.4134 9.94515 7.68896 9.75124 8.28686 9.33047C8.35936 9.27946 8.43659 9.22511 8.51948 9.16726C9.97492 7.76316 11.227 6.15099 12.2367 4.37978C12.4535 3.96974 12.7753 3.62337 13.1715 3.3794C13.574 3.13155 14.0369 2.9996 14.5103 3C14.8807 2.99993 15.2461 3.08071 15.582 3.23609C15.918 3.39154 16.216 3.61766 16.457 3.89783C16.6979 4.17793 16.8767 4.50582 16.9828 4.85916C17.0889 5.21246 17.1204 5.58428 17.0755 5.95033C17.0672 6.01769 17.0521 6.08403 17.0304 6.14834L16.0681 9H18.415C18.5562 9.00006 18.7526 9.00079 18.9639 9.04933C19.1851 9.10014 19.3643 9.18863 19.5121 9.26757C19.91 9.48015 20.2494 9.78654 20.5035 10.1587C20.7574 10.5307 20.9191 10.9581 20.9765 11.4046C21.0334 11.8467 20.9867 12.2966 20.8398 12.7174L18.7452 19.1074L18.7374 19.1304C18.7305 19.1497 18.7234 19.1701 18.7159 19.1914C18.607 19.5026 18.4248 20.0229 18.0037 20.4075C17.5056 20.8625 16.8518 21 16.1204 21C14.1133 21 11.96 20.3365 10.2861 19.8207C9.88631 19.6975 9.51388 19.5827 9.17731 19.4874C8.64591 19.337 8.33709 18.7843 8.48753 18.2529C8.63797 17.7215 9.19072 17.4126 9.72211 17.5631C10.1467 17.6833 10.5825 17.8167 11.0258 17.9524C12.6845 18.4602 14.448 19 16.1204 19C16.4911 19 16.624 18.9469 16.6559 18.9295C16.6616 18.9225 16.6772 18.901 16.7016 18.851C16.7429 18.7662 16.7821 18.6597 16.8485 18.4728L18.9426 12.0844L18.9502 12.062C18.9955 11.9341 19.0104 11.7959 18.9929 11.6598C18.9753 11.5237 18.9263 11.3956 18.8517 11.2863C18.7771 11.1771 18.6798 11.0905 18.5696 11.0316C18.5432 11.0175 18.5238 11.0077 18.5105 11.0012C18.4906 11.0005 18.4611 11 18.415 11C18.4149 11 18.4152 11 18.415 11H13.5C12.9477 11 12.5 10.5523 12.5 10C12.5 9.44772 12.9477 9 13.5 9H13.9572L15.0953 5.62765C15.0955 5.56216 15.0861 5.49699 15.0673 5.43455C15.041 5.34698 14.9974 5.26793 14.9408 5.2021C14.8842 5.13635 14.8162 5.08548 14.7423 5.05128C14.6684 5.01713 14.5895 4.99996 14.5105 5L14.5088 5ZM16.664 18.924C16.6643 18.9242 16.6622 18.9259 16.6572 18.9288C16.6613 18.9253 16.6638 18.9239 16.664 18.924ZM6 12H5V17.5C5 17.7761 5.22386 18 5.5 18C5.77614 18 6 17.7761 6 17.5V12Z" fill="#101828"/>
</svg>
