<svg width="20" height="20" viewBox="0 0 20 20" fill="none" xmlns="http://www.w3.org/2000/svg">
<path d="M10.394 2.08C10.2695 2.02663 10.1355 1.99911 10 1.99911C9.86455 1.99911 9.73051 2.02663 9.60601 2.08L2.60601 5.08C2.42562 5.15685 2.2718 5.28503 2.16368 5.44861C2.05557 5.61218 1.99792 5.80393 1.99792 6C1.99792 6.19608 2.05557 6.38783 2.16368 6.5514C2.2718 6.71498 2.42562 6.84316 2.60601 6.92L5.25001 8.051C5.34815 7.94 5.46975 7.85221 5.60601 7.794L9.60601 6.08C9.72705 6.02606 9.85761 5.9967 9.99009 5.99365C10.1226 5.99061 10.2544 6.01392 10.3777 6.06224C10.5011 6.11057 10.6137 6.18293 10.7089 6.27514C10.8041 6.36735 10.88 6.47755 10.9322 6.59935C10.9844 6.72115 11.0119 6.85211 11.0131 6.98463C11.0142 7.11714 10.989 7.24857 10.939 7.37126C10.8889 7.49396 10.8149 7.60548 10.7214 7.69934C10.6278 7.7932 10.5165 7.86753 10.394 7.918L7.66701 9.08801L9.60701 9.919C9.73137 9.97223 9.86523 9.99968 10.0005 9.99968C10.1358 9.99968 10.2696 9.97223 10.394 9.919L17.394 6.919C17.5738 6.84187 17.727 6.71369 17.8347 6.55034C17.9424 6.38699 17.9997 6.19565 17.9997 6C17.9997 5.80436 17.9424 5.61302 17.8347 5.44967C17.727 5.28632 17.5738 5.15814 17.394 5.081L10.394 2.081V2.08ZM3.31001 9.39701L5.00001 10.12V14.222C4.65376 14.1433 4.30314 14.0852 3.95001 14.048C3.72215 14.0241 3.50943 13.9226 3.34742 13.7606C3.18542 13.5986 3.08395 13.3859 3.06001 13.158C2.9285 11.8989 3.01305 10.6266 3.31001 9.396V9.39701ZM9.30001 16.573C8.62402 15.9097 7.84786 15.357 7.00001 14.935V10.978L8.81801 11.758C9.1915 11.9181 9.59364 12.0007 10 12.0007C10.4064 12.0007 10.8085 11.9181 11.182 11.758L16.69 9.39701C16.9887 10.6274 17.0733 11.9 16.94 13.159C16.9161 13.3869 16.8146 13.5996 16.6526 13.7616C16.4906 13.9236 16.2779 14.0251 16.05 14.049C14.0325 14.261 12.1465 15.1508 10.7 16.573C10.5131 16.7562 10.2618 16.8589 10 16.8589C9.73825 16.8589 9.48694 16.7562 9.30001 16.573ZM6.00001 18C6.26522 18 6.51958 17.8946 6.70711 17.7071C6.89465 17.5196 7.00001 17.2652 7.00001 17V14.935C6.364 14.619 5.6926 14.38 5.00001 14.223V17C5.00001 17.2652 5.10536 17.5196 5.2929 17.7071C5.48044 17.8946 5.73479 18 6.00001 18Z" fill="currentColor"/>
</svg>
