<svg width="20" height="20" viewBox="0 0 20 20" fill="none" xmlns="http://www.w3.org/2000/svg">
<path d="M5.00003 4C5.00003 3.73478 4.89468 3.48043 4.70714 3.29289C4.5196 3.10536 4.26525 3 4.00003 3C3.73482 3 3.48046 3.10536 3.29293 3.29289C3.10539 3.48043 3.00003 3.73478 3.00003 4V11.268C2.69602 11.4435 2.44357 11.696 2.26805 12C2.09253 12.3041 2.00012 12.6489 2.00012 13C2.00012 13.3511 2.09253 13.6959 2.26805 14C2.44357 14.304 2.69602 14.5565 3.00003 14.732V16C3.00003 16.2652 3.10539 16.5196 3.29293 16.7071C3.48046 16.8946 3.73482 17 4.00003 17C4.26525 17 4.5196 16.8946 4.70714 16.7071C4.89468 16.5196 5.00003 16.2652 5.00003 16V14.732C5.30405 14.5565 5.5565 14.304 5.73202 14C5.90754 13.6959 5.99995 13.3511 5.99995 13C5.99995 12.6489 5.90754 12.3041 5.73202 12C5.5565 11.696 5.30405 11.4435 5.00003 11.268V4ZM11 4C11 3.73478 10.8947 3.48043 10.7071 3.29289C10.5196 3.10536 10.2653 3 10 3C9.73482 3 9.48046 3.10536 9.29293 3.29289C9.10539 3.48043 9.00003 3.73478 9.00003 4V5.268C8.69602 5.44354 8.44357 5.69602 8.26805 6.00004C8.09253 6.30407 8.00012 6.64894 8.00012 7C8.00012 7.35106 8.09253 7.69593 8.26805 7.99996C8.44357 8.30398 8.69602 8.55646 9.00003 8.732V16C9.00003 16.2652 9.10539 16.5196 9.29293 16.7071C9.48046 16.8946 9.73482 17 10 17C10.2653 17 10.5196 16.8946 10.7071 16.7071C10.8947 16.5196 11 16.2652 11 16V8.732C11.304 8.55646 11.5565 8.30398 11.732 7.99996C11.9075 7.69593 11.9999 7.35106 11.9999 7C11.9999 6.64894 11.9075 6.30407 11.732 6.00004C11.5565 5.69602 11.304 5.44354 11 5.268V4ZM16 3C16.2653 3 16.5196 3.10536 16.7071 3.29289C16.8947 3.48043 17 3.73478 17 4V11.268C17.304 11.4435 17.5565 11.696 17.732 12C17.9075 12.3041 17.9999 12.6489 17.9999 13C17.9999 13.3511 17.9075 13.6959 17.732 14C17.5565 14.304 17.304 14.5565 17 14.732V16C17 16.2652 16.8947 16.5196 16.7071 16.7071C16.5196 16.8946 16.2653 17 16 17C15.7348 17 15.4805 16.8946 15.2929 16.7071C15.1054 16.5196 15 16.2652 15 16V14.732C14.696 14.5565 14.4436 14.304 14.268 14C14.0925 13.6959 14.0001 13.3511 14.0001 13C14.0001 12.6489 14.0925 12.3041 14.268 12C14.4436 11.696 14.696 11.4435 15 11.268V4C15 3.73478 15.1054 3.48043 15.2929 3.29289C15.4805 3.10536 15.7348 3 16 3Z" fill="black"/>
</svg>
