<svg width="20" height="20" viewBox="0 0 20 20" fill="none" xmlns="http://www.w3.org/2000/svg">
<path fill-rule="evenodd" clip-rule="evenodd" d="M14.707 12.293C14.8944 12.4805 14.9997 12.7348 14.9997 13C14.9997 13.2652 14.8944 13.5195 14.707 13.707L10.707 17.707C10.5194 17.8945 10.2651 17.9998 9.99996 17.9998C9.73479 17.9998 9.48049 17.8945 9.29296 17.707L5.29296 13.707C5.19745 13.6148 5.12127 13.5044 5.06886 13.3824C5.01645 13.2604 4.98886 13.1292 4.98771 12.9964C4.98655 12.8636 5.01186 12.7319 5.06214 12.609C5.11242 12.4861 5.18667 12.3745 5.28056 12.2806C5.37446 12.1867 5.48611 12.1125 5.60901 12.0622C5.7319 12.0119 5.86358 11.9866 5.99636 11.9877C6.12914 11.9889 6.26036 12.0165 6.38236 12.0689C6.50437 12.1213 6.61471 12.1975 6.70696 12.293L8.99996 14.586V3C8.99996 2.73478 9.10532 2.48043 9.29285 2.29289C9.48039 2.10536 9.73474 2 9.99996 2C10.2652 2 10.5195 2.10536 10.7071 2.29289C10.8946 2.48043 11 2.73478 11 3V14.586L13.293 12.293C13.4805 12.1055 13.7348 12.0002 14 12.0002C14.2651 12.0002 14.5194 12.1055 14.707 12.293Z" fill="currentColor"/>
</svg>
