<svg width="20" height="20" viewBox="0 0 20 20" fill="none" xmlns="http://www.w3.org/2000/svg">
<path fill-rule="evenodd" clip-rule="evenodd" d="M9.70703 16.707C9.5195 16.8945 9.26519 16.9998 9.00003 16.9998C8.73487 16.9998 8.48056 16.8945 8.29303 16.707L2.29303 10.707C2.10556 10.5195 2.00024 10.2652 2.00024 10C2.00024 9.73483 2.10556 9.48052 2.29303 9.293L8.29303 3.293C8.48163 3.11084 8.73423 3.01004 8.99643 3.01232C9.25863 3.0146 9.50944 3.11977 9.69485 3.30518C9.88026 3.49058 9.98543 3.7414 9.9877 4.00359C9.98998 4.26579 9.88919 4.51839 9.70703 4.70699L5.41403 9H17C17.2652 9 17.5196 9.10535 17.7071 9.29289C17.8947 9.48042 18 9.73478 18 10C18 10.2652 17.8947 10.5196 17.7071 10.7071C17.5196 10.8946 17.2652 11 17 11H5.41403L9.70703 15.293C9.8945 15.4805 9.99982 15.7348 9.99982 16C9.99982 16.2652 9.8945 16.5195 9.70703 16.707Z" fill="black"/>
</svg>
