<svg width="20" height="20" viewBox="0 0 20 20" fill="none" xmlns="http://www.w3.org/2000/svg">
<path fill-rule="evenodd" clip-rule="evenodd" d="M7.00006 2C6.80231 2.00004 6.60901 2.05871 6.4446 2.1686C6.28019 2.27848 6.15205 2.43465 6.07638 2.61735C6.00071 2.80005 5.9809 3.00108 6.01947 3.19503C6.05804 3.38898 6.15325 3.56715 6.29306 3.707L7.00006 4.414V8.172C7 8.43719 6.8946 8.69151 6.70706 8.879L2.70706 12.879C0.817056 14.769 2.15606 18 4.82806 18H15.1711C17.8441 18 19.1831 14.769 17.2931 12.879L13.2931 8.879C13.1055 8.69151 13.0001 8.43719 13.0001 8.172V4.414L13.7071 3.707C13.8469 3.56715 13.9421 3.38898 13.9806 3.19503C14.0192 3.00108 13.9994 2.80005 13.9237 2.61735C13.8481 2.43465 13.7199 2.27848 13.5555 2.1686C13.3911 2.05871 13.1978 2.00004 13.0001 2H7.00006ZM9.00006 8.172V4H11.0001V8.172C11.0005 8.96724 11.3167 9.72977 11.8791 10.292L12.9061 11.32C12.1868 11.153 11.4354 11.1883 10.7351 11.422L10.2651 11.578C9.44393 11.8517 8.55618 11.8517 7.73506 11.578L7.17206 11.391C7.13441 11.3782 7.0964 11.3665 7.05806 11.356L8.12106 10.293C8.6837 9.73052 8.99989 8.96758 9.00006 8.172Z" fill="currentColor"/>
</svg>
