<svg width="20" height="20" viewBox="0 0 20 20" fill="none" xmlns="http://www.w3.org/2000/svg">
<path fill-rule="evenodd" clip-rule="evenodd" d="M15.707 4.293C15.8944 4.48053 15.9997 4.73484 15.9997 5C15.9997 5.26516 15.8944 5.51947 15.707 5.707L10.707 10.707C10.5194 10.8945 10.2651 10.9998 9.99996 10.9998C9.73479 10.9998 9.48049 10.8945 9.29296 10.707L4.29296 5.707C4.1108 5.5184 4.01001 5.2658 4.01228 5.0036C4.01456 4.7414 4.11973 4.49059 4.30514 4.30518C4.49055 4.11977 4.74136 4.0146 5.00356 4.01233C5.26575 4.01005 5.51836 4.11084 5.70696 4.293L9.99996 8.586L14.293 4.293C14.4805 4.10553 14.7348 4.00021 15 4.00021C15.2651 4.00021 15.5194 4.10553 15.707 4.293ZM15.707 10.293C15.8944 10.4805 15.9997 10.7348 15.9997 11C15.9997 11.2652 15.8944 11.5195 15.707 11.707L10.707 16.707C10.5194 16.8945 10.2651 16.9998 9.99996 16.9998C9.73479 16.9998 9.48049 16.8945 9.29296 16.707L4.29296 11.707C4.19745 11.6148 4.12127 11.5044 4.06886 11.3824C4.01645 11.2604 3.98886 11.1292 3.98771 10.9964C3.98655 10.8636 4.01186 10.7319 4.06214 10.609C4.11242 10.4861 4.18667 10.3745 4.28056 10.2806C4.37446 10.1867 4.48611 10.1125 4.60901 10.0622C4.7319 10.0119 4.86358 9.9866 4.99636 9.98775C5.12914 9.9889 5.26036 10.0165 5.38236 10.0689C5.50437 10.1213 5.61471 10.1975 5.70696 10.293L9.99996 14.586L14.293 10.293C14.4805 10.1055 14.7348 10.0002 15 10.0002C15.2651 10.0002 15.5194 10.1055 15.707 10.293Z" fill="currentColor"/>
</svg>
