<svg width="20" height="20" viewBox="0 0 20 20" fill="none" xmlns="http://www.w3.org/2000/svg">
<path fill-rule="evenodd" clip-rule="evenodd" d="M5.05008 3.63599C5.23755 3.82351 5.34286 4.07782 5.34286 4.34299C5.34286 4.60815 5.23755 4.86246 5.05008 5.04999C4.39999 5.70001 3.88431 6.47171 3.53248 7.32104C3.18066 8.17036 2.99957 9.08067 2.99957 9.99999C2.99957 10.9193 3.18066 11.8296 3.53248 12.6789C3.88431 13.5283 4.39999 14.3 5.05008 14.95C5.14559 15.0422 5.22177 15.1526 5.27418 15.2746C5.32659 15.3966 5.35417 15.5278 5.35533 15.6606C5.35648 15.7934 5.33118 15.925 5.2809 16.0479C5.23062 16.1708 5.15637 16.2825 5.06247 16.3764C4.96858 16.4703 4.85693 16.5445 4.73403 16.5948C4.61114 16.6451 4.47946 16.6704 4.34668 16.6692C4.2139 16.6681 4.08268 16.6405 3.96067 16.5881C3.83867 16.5357 3.72832 16.4595 3.63608 16.364C2.80034 15.5283 2.13739 14.5361 1.68509 13.4442C1.2328 12.3522 1 11.1819 1 9.99999C1 8.81808 1.2328 7.64775 1.68509 6.55581C2.13739 5.46387 2.80034 4.47172 3.63608 3.63599C3.82361 3.44852 4.07791 3.3432 4.34308 3.3432C4.60824 3.3432 4.86255 3.44852 5.05008 3.63599ZM14.9501 3.63599C15.1376 3.44852 15.3919 3.3432 15.6571 3.3432C15.9222 3.3432 16.1766 3.44852 16.3641 3.63599C17.1998 4.47172 17.8628 5.46387 18.3151 6.55581C18.7674 7.64775 19.0002 8.81808 19.0002 9.99999C19.0002 11.1819 18.7674 12.3522 18.3151 13.4442C17.8628 14.5361 17.1998 15.5283 16.3641 16.364C16.2718 16.4595 16.1615 16.5357 16.0395 16.5881C15.9175 16.6405 15.7863 16.6681 15.6535 16.6692C15.5207 16.6704 15.389 16.6451 15.2661 16.5948C15.1432 16.5445 15.0316 16.4703 14.9377 16.3764C14.8438 16.2825 14.7695 16.1708 14.7193 16.0479C14.669 15.925 14.6437 15.7934 14.6448 15.6606C14.646 15.5278 14.6736 15.3966 14.726 15.2746C14.7784 15.1526 14.8546 15.0422 14.9501 14.95C15.6002 14.3 16.1158 13.5283 16.4677 12.6789C16.8195 11.8296 17.0006 10.9193 17.0006 9.99999C17.0006 9.08067 16.8195 8.17036 16.4677 7.32104C16.1158 6.47171 15.6002 5.70001 14.9501 5.04999C14.7626 4.86246 14.6573 4.60815 14.6573 4.34299C14.6573 4.07782 14.7626 3.82351 14.9501 3.63599ZM7.87908 6.46399C8.06655 6.65152 8.17186 6.90582 8.17186 7.17099C8.17186 7.43615 8.06655 7.69046 7.87908 7.87799C7.60045 8.15657 7.37943 8.48731 7.22863 8.85132C7.07783 9.21533 7.00022 9.60548 7.00022 9.99949C7.00022 10.3935 7.07783 10.7836 7.22863 11.1477C7.37943 11.5117 7.60045 11.8424 7.87908 12.121C7.97192 12.2139 8.04556 12.3242 8.09578 12.4456C8.146 12.5669 8.17183 12.697 8.17178 12.8283C8.17173 12.9597 8.14582 13.0897 8.09551 13.2111C8.0452 13.3324 7.97149 13.4426 7.87858 13.5355C7.78567 13.6283 7.67538 13.702 7.55401 13.7522C7.43264 13.8024 7.30257 13.8282 7.17122 13.8282C7.03988 13.8281 6.90982 13.8022 6.78849 13.7519C6.66716 13.7016 6.55692 13.6279 6.46408 13.535C5.52672 12.5973 5.00015 11.3258 5.00015 9.99999C5.00015 8.67417 5.52672 7.40263 6.46408 6.46499C6.55695 6.37201 6.66724 6.29825 6.78864 6.24793C6.91004 6.1976 7.04016 6.1717 7.17158 6.1717C7.30299 6.1717 7.43312 6.1976 7.55452 6.24793C7.67592 6.29825 7.7862 6.37201 7.87908 6.46499V6.46399ZM12.1211 6.46399C12.214 6.37101 12.3242 6.29725 12.4456 6.24693C12.567 6.1966 12.6972 6.1707 12.8286 6.1707C12.96 6.1707 13.0901 6.1966 13.2115 6.24693C13.3329 6.29725 13.4432 6.37101 13.5361 6.46399C14.0005 6.9283 14.3689 7.47955 14.6203 8.08627C14.8716 8.69298 15.001 9.34327 15.001 9.99999C15.001 10.6567 14.8716 11.307 14.6203 11.9137C14.3689 12.5204 14.0005 13.0717 13.5361 13.536C13.3484 13.7236 13.0939 13.829 12.8286 13.829C12.5632 13.829 12.3087 13.7236 12.1211 13.536C11.9334 13.3483 11.828 13.0939 11.828 12.8285C11.828 12.5631 11.9334 12.3086 12.1211 12.121C12.6835 11.5584 12.9994 10.7955 12.9994 9.99999C12.9994 9.20449 12.6835 8.44157 12.1211 7.87899C12.0281 7.78611 11.9543 7.67583 11.904 7.55443C11.8537 7.43303 11.8278 7.3029 11.8278 7.17149C11.8278 7.04007 11.8537 6.90994 11.904 6.78855C11.9543 6.66715 12.0281 6.55686 12.1211 6.46399ZM10.0001 8.99999C10.2653 8.99999 10.5196 9.10534 10.7072 9.29288C10.8947 9.48042 11.0001 9.73477 11.0001 9.99999V10.01C11.0001 10.2752 10.8947 10.5296 10.7072 10.7171C10.5196 10.9046 10.2653 11.01 10.0001 11.01C9.73486 11.01 9.48051 10.9046 9.29297 10.7171C9.10544 10.5296 9.00008 10.2752 9.00008 10.01V9.99999C9.00008 9.73477 9.10544 9.48042 9.29297 9.29288C9.48051 9.10534 9.73486 8.99999 10.0001 8.99999Z" fill="black"/>
</svg>
