<svg width="20" height="20" viewBox="0 0 20 20" fill="none" xmlns="http://www.w3.org/2000/svg">
<path fill-rule="evenodd" clip-rule="evenodd" d="M12 13C11.7348 13 11.4805 13.1054 11.2929 13.2929C11.1054 13.4805 11 13.7348 11 14C11 14.2653 11.1054 14.5196 11.2929 14.7071C11.4805 14.8947 11.7348 15 12 15H17C17.2653 15 17.5196 14.8947 17.7071 14.7071C17.8947 14.5196 18 14.2653 18 14V9.00004C18 8.73482 17.8947 8.48047 17.7071 8.29293C17.5196 8.1054 17.2653 8.00004 17 8.00004C16.7348 8.00004 16.4805 8.1054 16.2929 8.29293C16.1054 8.48047 16 8.73482 16 9.00004V11.586L11.707 7.29304C11.5195 7.10557 11.2652 7.00025 11 7.00025C10.7349 7.00025 10.4806 7.10557 10.293 7.29304L8.00004 9.58604L3.70704 5.29304C3.51844 5.11088 3.26584 5.01009 3.00364 5.01237C2.74144 5.01465 2.49063 5.11981 2.30522 5.30522C2.11981 5.49063 2.01465 5.74144 2.01237 6.00364C2.01009 6.26584 2.11088 6.51844 2.29304 6.70704L7.29304 11.707C7.48057 11.8945 7.73488 11.9998 8.00004 11.9998C8.26521 11.9998 8.51951 11.8945 8.70704 11.707L11 9.41404L14.586 13H12Z" fill="black"/>
</svg>
